<svg xmlns="http://www.w3.org/2000/svg" height="480" width="640" viewBox="0 0 640 480"><defs><style>.a{fill:#fff;}.b{fill:#dc171d;}.c{fill:#012a87;}</style></defs><title>Netherlands Antillies</title><rect class="a" width="231.67" height="154.67"/><rect class="a" x="398.33" width="241.67" height="154.67"/><rect class="a" x="398.33" y="321.33" width="241.67" height="158.67"/><rect class="a" y="321.33" width="231.67" height="158.67"/><rect class="b" x="231.67" width="166.67" height="154.67"/><rect class="b" x="231.67" y="321.33" width="166.67" height="158.67"/><path class="c" d="M231.67,154.67H0V321.33H640V154.67H231.67Zm-15,104.17-12.95-10.42-12.88,10L195.94,243,183,232.58h15.55L204,217.17,209,232.58h15.71L212.21,243Zm69.5,55.56L273.21,304l-12.88,10,5.11-15.42L252.5,288.14h15.55l5.45-15.42,4.95,15.42h15.71l-12.46,10.42Zm-4.45-127,4.45,15.83-12.95-10.42-12.88,10,5.11-15.42L252.5,177h15.55l5.45-15.42L278.45,177h15.71ZM348.05,177l5.45-15.42L358.45,177h15.71l-12.46,10.42,4.45,15.83-12.95-10.42-12.88,10,5.11-15.42L332.5,177Zm21.44,137.37L356.54,304l-12.88,10,5.11-15.42-12.94-10.42h15.55l5.45-15.42,4.95,15.42H377.5L365,298.56Zm51.34-81.8,5.45-15.42,4.95,15.42h15.71L434.49,243l4.45,15.83L426,248.42l-12.88,10L418.22,243l-12.94-10.42Z"/><polygon class="a" points="278.45 288.14 273.5 272.72 268.05 288.14 252.5 288.14 265.44 298.56 260.33 313.97 273.21 303.97 286.16 314.39 281.71 298.56 294.17 288.14 278.45 288.14"/><polygon class="a" points="361.78 288.14 356.83 272.72 351.38 288.14 335.83 288.14 348.77 298.56 343.66 313.97 356.54 303.97 369.49 314.39 365.04 298.56 377.5 288.14 361.78 288.14"/><polygon class="a" points="273.5 161.6 268.05 177.02 252.5 177.02 265.44 187.44 260.33 202.85 273.21 192.85 286.16 203.27 281.71 187.44 294.17 177.02 278.45 177.02 273.5 161.6"/><polygon class="a" points="340.33 202.85 353.21 192.85 366.16 203.27 361.71 187.44 374.17 177.02 358.45 177.02 353.5 161.6 348.05 177.02 332.5 177.02 345.44 187.44 340.33 202.85"/><polygon class="a" points="208.95 232.58 204 217.17 198.55 232.58 183 232.58 195.94 243 190.83 258.42 203.71 248.42 216.66 258.83 212.21 243 224.67 232.58 208.95 232.58"/><polygon class="a" points="413.11 258.42 425.99 248.42 438.94 258.83 434.49 243 446.95 232.59 431.23 232.59 426.28 217.17 420.83 232.59 405.28 232.59 418.22 243 413.11 258.42"/></svg>