<svg id="Alianza_del_Pacifico" data-name="Alianza del Pacifico" xmlns="http://www.w3.org/2000/svg" xmlns:xlink="http://www.w3.org/1999/xlink" width="640" height="497.8559" viewBox="0 0 640 497.8559"><defs><style>.cls-1{fill:none;}.cls-2{fill:#fff;}.cls-3{fill:#0067b3;}.cls-4{clip-path:url(#clip-path);}.cls-5{fill:url(#linear-gradient);}.cls-6{clip-path:url(#clip-path-2);}.cls-7{fill:url(#linear-gradient-2);}.cls-8{clip-path:url(#clip-path-3);}.cls-9{fill:url(#linear-gradient-3);}.cls-10{fill:#ffd400;}.cls-11{clip-path:url(#clip-path-4);}.cls-12{fill:url(#linear-gradient-4);}.cls-13{clip-path:url(#clip-path-5);}.cls-14{fill:url(#linear-gradient-5);}.cls-15{clip-path:url(#clip-path-6);}.cls-16{fill:url(#linear-gradient-6);}.cls-17{fill:#3caf57;}.cls-18{clip-path:url(#clip-path-7);}.cls-19{fill:url(#linear-gradient-7);}.cls-20{clip-path:url(#clip-path-8);}.cls-21{fill:url(#linear-gradient-8);}.cls-22{clip-path:url(#clip-path-9);}.cls-23{fill:url(#linear-gradient-9);}.cls-24{clip-path:url(#clip-path-10);}.cls-25{fill:url(#radial-gradient);}.cls-26{clip-path:url(#clip-path-11);}.cls-27{fill:url(#linear-gradient-10);}.cls-28{clip-path:url(#clip-path-12);}.cls-29{fill:url(#radial-gradient-2);}.cls-30{clip-path:url(#clip-path-13);}.cls-31{fill:url(#linear-gradient-11);}.cls-32{clip-path:url(#clip-path-14);}.cls-33{fill:url(#radial-gradient-3);}.cls-34{clip-path:url(#clip-path-15);}.cls-35{fill:url(#linear-gradient-12);}.cls-36{fill:#ed1c24;}.cls-37{clip-path:url(#clip-path-16);}.cls-38{fill:url(#linear-gradient-13);}.cls-39{clip-path:url(#clip-path-17);}.cls-40{fill:url(#linear-gradient-14);}.cls-41{clip-path:url(#clip-path-18);}.cls-42{fill:url(#linear-gradient-15);}.cls-43{clip-path:url(#clip-path-19);}.cls-44{fill:url(#radial-gradient-4);}.cls-45{clip-path:url(#clip-path-20);}.cls-46{fill:url(#linear-gradient-16);}.cls-47{clip-path:url(#clip-path-21);}.cls-48{fill:url(#radial-gradient-5);}.cls-49{clip-path:url(#clip-path-22);}.cls-50{fill:url(#linear-gradient-17);}.cls-51{clip-path:url(#clip-path-23);}.cls-52{fill:url(#radial-gradient-6);}.cls-53{clip-path:url(#clip-path-24);}.cls-54{fill:url(#linear-gradient-18);}.cls-55{clip-path:url(#clip-path-25);}.cls-56{fill:url(#linear-gradient-19);}.cls-57{clip-path:url(#clip-path-26);}.cls-58{fill:url(#linear-gradient-20);}.cls-59{clip-path:url(#clip-path-27);}.cls-60{fill:url(#linear-gradient-21);}</style><clipPath id="clip-path" transform="translate(0 4.7769)"><path class="cls-1" d="M516.9509,148.4474a195.9813,195.9813,0,0,1-145.875,89.8352c83.516,11.2267,142.7481-30.8249,165.27-50.4294l.9464-.7059c3.6517-3.0332,5.16-4.92,4.567-7.5157a8.1658,8.1658,0,0,0-1.2965-2.6271c-2.0053-3.3236-4.2419-6.691-6.4222-10.1646-4.364-7.0752-8.9651-14.3847-13.0948-20.754a9.2093,9.2093,0,0,0-.94-1.1777,12.3755,12.3755,0,0,0-3.155,3.5392"/></clipPath><linearGradient id="linear-gradient" x1="-256.6069" y1="518.2259" x2="-253.4832" y2="518.2259" gradientTransform="matrix(0, 22.1241, 22.1221, 0.0024, -11007.495, 5837.734)" gradientUnits="userSpaceOnUse"><stop offset="0" stop-color="#5286c5"/><stop offset="1" stop-color="#0067b3"/></linearGradient><clipPath id="clip-path-2" transform="translate(0 4.7769)"><path class="cls-1" d="M467.2962,124.7727a167.6466,167.6466,0,0,1-98.5943,100.8151c67.4506-8.6058,106.4816-52.5286,120.982-72.4548l.5623-.6778c1.3119-1.89,3.0081-4.1046,2.5645-5.7508a5.9651,5.9651,0,0,0-1.7211-2.5365c-2.2615-2.24-4.6762-4.6856-7.1971-7.1-4.97-5.02-10.1553-10.2021-14.8752-14.7159-.1436-.1468-.25-.1749-.3373-.3373a16.6954,16.6954,0,0,0-1.3838,2.7582"/></clipPath><linearGradient id="linear-gradient-2" x1="-256.2895" y1="518.3262" x2="-253.1657" y2="518.3262" gradientTransform="matrix(0, 24.8319, 24.8296, 0.0026, -12438.8681, 6495.4628)" xlink:href="#linear-gradient"/><clipPath id="clip-path-3" transform="translate(0 4.7769)"><path class="cls-1" d="M421.646,114.5737a142.9629,142.9629,0,0,1-57.78,99.4314c50.0735-20.726,72.5205-62.14,80.3891-80.57l.3218-.8059c.5935-1.3432,1.4214-3.2268,1.1838-4.3514a3.8457,3.8457,0,0,0-1.768-1.6805c-2.2991-1.3838-4.6856-3.0082-7.1626-4.4795-5.07-3.1237-10.14-6.3349-14.8283-9.1774a5.8719,5.8719,0,0,0-.3562,1.6336"/></clipPath><linearGradient id="linear-gradient-3" x1="-255.9282" y1="518.1725" x2="-252.8045" y2="518.1725" gradientTransform="matrix(0, 26.9022, 26.8998, 0.0029, -13533.8136, 7002.1187)" xlink:href="#linear-gradient"/><clipPath id="clip-path-4" transform="translate(0 4.7769)"><path class="cls-1" d="M375.2431,18.8847c-.0875.4685-.2,1.8305.756,4.6137a196.1525,196.1525,0,0,1-20.56,170.1774c60.8158-58.47,64.8486-130.9622,63.5117-160.7906l-.0251-1.1495c-.1343-4.7762-.609-7.1-3.1175-8.2373a7.2763,7.2763,0,0,0-2.7956-.6935c-3.808-.4717-7.8781-.9152-11.97-1.3275-8.2717-.9747-16.8213-1.8556-24.4525-2.5927-.3623-.0313-.65-.0469-.8746-.0469a1.6368,1.6368,0,0,0-.4717.0469"/></clipPath><linearGradient id="linear-gradient-4" x1="-251.8927" y1="520.9932" x2="-248.769" y2="520.9932" gradientTransform="matrix(0, 52.7693, 52.7645, 0.0056, -27102.1105, 13307.7059)" gradientUnits="userSpaceOnUse"><stop offset="0" stop-color="#ffdd5d"/><stop offset="1" stop-color="#ffd400"/></linearGradient><clipPath id="clip-path-5" transform="translate(0 4.7769)"><path class="cls-1" d="M356.5538,41.1443c-3.2393.3468-6.6036.7185-10.0928,1.0527-7.0471.9527-14.2692,1.7149-20.8009,2.5708a2.1258,2.1258,0,0,0-.4341.0875,9.0624,9.0624,0,0,0,1.3494,2.83A167.9441,167.9441,0,0,1,344.0619,187.619C379.3133,129.4021,369.23,71.4444,362.6887,47.8353l-.2936-1.0027c-.5466-2.1241-1.2682-4.7606-2.8457-5.4259a4.135,4.135,0,0,0-1.8055-.3811,6.4955,6.4955,0,0,0-1.19.1187"/></clipPath><linearGradient id="linear-gradient-5" x1="-252.7455" y1="519.9796" x2="-249.6218" y2="519.9796" gradientTransform="matrix(0, 45.8076, 45.8034, 0.0048, -23464.574, 11615.5289)" xlink:href="#linear-gradient-4"/><clipPath id="clip-path-6" transform="translate(0 4.7769)"><path class="cls-1" d="M313.462,66.9932c-2.5708.94-5.2165,1.8836-7.9873,2.8613-5.5165,2.0336-11.2643,4.0046-16.3653,5.9663a13.4,13.4,0,0,0,1.0309,1.1933A143.1042,143.1042,0,0,1,331.93,184.2016c14.9625-52.1538-3.4393-95.5392-12.96-113.1382l-.4092-.74c-.678-1.3869-1.6213-3.0674-2.624-3.5985a1.9332,1.9332,0,0,0-.709-.1218,5.3391,5.3391,0,0,0-1.765.3905"/></clipPath><linearGradient id="linear-gradient-6" x1="-254.0384" y1="518.4802" x2="-250.9147" y2="518.4802" gradientTransform="matrix(0, 37.8565, 37.8531, 0.004, -19308.0706, 9682.5009)" xlink:href="#linear-gradient-4"/><clipPath id="clip-path-7" transform="translate(0 4.7769)"><path class="cls-1" d="M215.2052,24.8978a7.5418,7.5418,0,0,0-2.3272,1.7993c-2.6833,2.6989-5.5414,5.57-8.4341,8.534-5.8663,5.8788-11.9637,11.9514-17.2274,17.44a3.6276,3.6276,0,0,0-.84,1.1151c.2686.3842,1.3119,1.2839,4.0671,2.24A197.0329,197.0329,0,0,1,310.8912,178.0666C302.9038,94.1883,248.679,45.7955,224.5388,28.3183l-.8745-.7684c-2.8364-2.0461-4.7293-3.1456-6.4755-3.1456a4.3909,4.3909,0,0,0-1.9836.4935"/></clipPath><linearGradient id="linear-gradient-7" x1="-252.0177" y1="519.4645" x2="-248.894" y2="519.4645" gradientTransform="matrix(0, 55.0198, 55.0149, 0.0058, -28329.6474, 13881.8985)" gradientUnits="userSpaceOnUse"><stop offset="0" stop-color="#6dbb75"/><stop offset="1" stop-color="#3caf57"/></linearGradient><clipPath id="clip-path-8" transform="translate(0 4.7769)"><path class="cls-1" d="M194.1544,80.0191a6.1755,6.1755,0,0,0-2.0586,2.2459c-1.6524,2.7395-3.5079,5.6571-5.304,8.5747-3.77,6.0725-7.6063,12.295-10.9674,17.8958a1.4828,1.4828,0,0,0-.1781.3374,8.4663,8.4663,0,0,0,2.9489.69A167.43,167.43,0,0,1,298.94,183.1676c-23.5061-63.699-75.1288-91.9437-97.7633-101.58l-.9466-.2686a12.0352,12.0352,0,0,0-4.8011-1.565,2.8752,2.8752,0,0,0-1.2745.2655"/></clipPath><linearGradient id="linear-gradient-8" x1="-253.7933" y1="517.486" x2="-250.6696" y2="517.486" gradientTransform="matrix(0, 40.1625, 40.1589, 0.0043, -20544.387, 10261.8448)" xlink:href="#linear-gradient-7"/><clipPath id="clip-path-9" transform="translate(0 4.7769)"><path class="cls-1" d="M186.9668,129.9862a3.8226,3.8226,0,0,0-1.3838,2.096c-.89,2.549-1.7682,5.3072-2.7459,8.0186-1.918,5.6133-3.8577,11.4047-5.57,16.5089.4373,0,1.0028,0,1.6213-.0343a142.7942,142.7942,0,0,1,109.8677,34.0361c-31.4809-44.2289-76.7936-56.7925-96.6324-60.3566l-.7653-.0594a14.2416,14.2416,0,0,0-3.0988-.45,2.7534,2.7534,0,0,0-1.2932.24"/></clipPath><linearGradient id="linear-gradient-9" x1="-257.0277" y1="513.9229" x2="-253.9039" y2="513.9229" gradientTransform="matrix(0, 26.7193, 26.7169, 0.0028, -13497.4291, 6985.8732)" xlink:href="#linear-gradient-7"/><clipPath id="clip-path-10" transform="translate(0 4.7769)"><path class="cls-1" d="M98.69,173c-4.5825,1.3245-13.204,2.68-11.9514,13.22,1.4118,11.4672,2.8925,25.0742,4.3514,36.4508.7464,5.4884,4.4919,7.4313,11.8295,2.8894,61.7841-38.2906,144.0942-41.4206,214.0784,6.5442l-28.7416-22.2253A211.3643,211.3643,0,0,0,157.41,165.0657,220.7655,220.7655,0,0,0,98.69,173"/></clipPath><radialGradient id="radial-gradient" cx="-254.8029" cy="513.0915" r="3.1237" gradientTransform="matrix(0, 27.5499, 27.545, -0.0012, -13936.1507, 7224.4107)" gradientUnits="userSpaceOnUse"><stop offset="0" stop-color="#f1f2f2"/><stop offset="1" stop-color="#d1d3d4"/></radialGradient><clipPath id="clip-path-11" transform="translate(0 4.7769)"><path class="cls-1" d="M157.9192,169.8418a219.7228,219.7228,0,0,0-58.0326,7.7812l-1.0621.3249c-4.6543,1.1683-6.866,2.1241-7.3376,4.7824a9.17,9.17,0,0,0-.0468,3.0082c.3966,3.6828.9,7.8249,1.3712,11.9045.94,8.2279,1.9774,16.7994,2.98,24.3463a4.6388,4.6388,0,0,0,.3466,1.3713,12.18,12.18,0,0,0,4.3077-1.8055c52.2629-32.3181,114.0254-38.3281,170.4149-18.2519a204.1151,204.1151,0,0,0-112.9228-33.4614h-.0187"/></clipPath><linearGradient id="linear-gradient-10" x1="-251.6431" y1="528.9556" x2="-248.5194" y2="528.9556" gradientTransform="matrix(55.8448, 0, -0.0059, -55.8498, 14148.2011, 29738.6616)" gradientUnits="userSpaceOnUse"><stop offset="0" stop-color="#e6e7e8"/><stop offset="1" stop-color="#d1d3d4"/></linearGradient><clipPath id="clip-path-12" transform="translate(0 4.7769)"><path class="cls-1" d="M124.8671,225.0037c-3.52,1.868-10.449,4.6544-7.319,13.1134,3.3112,9.2618,7.16,20.1355,10.5739,29.3005,1.6211,4.4857,5.07,5.426,10.3239.2125,43.832-43.4886,111.4265-61.9435,178.5523-35.5262l-28.0356-12.8822A179.6769,179.6769,0,0,0,213.25,202.3848a186.45,186.45,0,0,0-88.3827,22.6189"/></clipPath><radialGradient id="radial-gradient-2" cx="-255.9511" cy="511.3026" r="3.1237" gradientTransform="matrix(0, 23.0815, 23.0774, -0.001, -11581.7564, 6135.3693)" xlink:href="#radial-gradient"/><clipPath id="clip-path-13" transform="translate(0 4.7769)"><path class="cls-1" d="M127.1567,229.0958l-.89.4716c-1.9556.99-4.3889,2.3023-4.7481,4.0109a5.2177,5.2177,0,0,0,.4467,2.9519c1.0622,3.0332,2.24,6.2756,3.4486,9.5368,2.3272,6.7285,4.8074,13.6038,7.11,19.7294a2.203,2.203,0,0,1,.1405.4186,9.8373,9.8373,0,0,0,2.4334-1.918,167.41,167.41,0,0,1,132.3742-48.5052,172.01,172.01,0,0,0-54.0155-8.7151,184.2108,184.2108,0,0,0-86.2992,22.0191"/></clipPath><linearGradient id="linear-gradient-11" x1="-252.6045" y1="529.2794" x2="-249.4807" y2="529.2794" gradientTransform="matrix(46.8313, 0, -0.0049, -46.8355, 11956.4684, 25025.7326)" xlink:href="#linear-gradient-10"/><clipPath id="clip-path-14" transform="translate(0 4.7769)"><path class="cls-1" d="M156.576,262.9382c-2.5834,2.24-7.7875,5.8664-3.63,12.3419,4.5136,6.969,9.7554,15.3125,14.3847,22.2253,2.2116,3.3611,5.2166,3.4486,8.6089-1.8743,27.9324-44.3912,80.4766-72.47,141.0583-63.5272L291.29,226.7873a156.5152,156.5152,0,0,0-31.9307-3.333c-43.0168,0-78.8867,18.3019-102.7831,39.4839"/></clipPath><radialGradient id="radial-gradient-3" cx="-256.3797" cy="510.0004" r="3.1237" gradientTransform="matrix(0, 20.3303, 20.3267, -0.0009, -10129.9867, 5467.9075)" xlink:href="#radial-gradient"/><clipPath id="clip-path-15" transform="translate(0 4.7769)"><path class="cls-1" d="M159.6685,266.4493l-.6778.5591c-1.1028.9622-2.6553,2.3272-2.8583,3.3268a3.7314,3.7314,0,0,0,.7935,2.4209c1.4463,2.2147,3.0082,4.6294,4.5418,7.0752,3.2113,5.01,6.4881,10.0678,9.493,14.6191a4.8309,4.8309,0,0,0,.94-1.2058,143.534,143.534,0,0,1,94.9861-64.97q-3.7671-.192-7.4282-.1874c-50.1857,0-85.4931,25.6521-99.7905,38.3625"/></clipPath><linearGradient id="linear-gradient-12" x1="-253.995" y1="530.107" x2="-250.8713" y2="530.107" gradientTransform="matrix(37.7086, 0, -0.004, -37.712, 9735.3323, 20252.662)" xlink:href="#linear-gradient-10"/><clipPath id="clip-path-16" transform="translate(0 4.7769)"><path class="cls-1" d="M139.2144,367.9891l-.4436,1.1652c-1.9773,4.3263-2.5709,6.6316-.7966,8.6933a9.3753,9.3753,0,0,0,2.24,1.89c3.2426,1.971,6.7318,4.1545,10.196,6.3817,7.094,4.3326,14.4034,8.8839,21.0226,12.8385a5.0977,5.0977,0,0,0,1.212.5561c.3342-.3936.9371-1.5931,1.262-4.5107,7.1971-61.05,41.0521-112.9914,91.8283-144.7066-79.9206,26.5579-114.8532,90.26-126.52,117.6926"/></clipPath><linearGradient id="linear-gradient-13" x1="-250.8489" y1="515.8398" x2="-247.7252" y2="515.8398" gradientTransform="matrix(0, 39.1578, 39.1543, 0.0041, -19996.3808, 10088.7225)" gradientUnits="userSpaceOnUse"><stop offset="0" stop-color="#ed1c24"/><stop offset="1" stop-color="#f37153"/></linearGradient><clipPath id="clip-path-17" transform="translate(0 4.7769)"><path class="cls-1" d="M196.4035,378.81l-.15.9278c-.4435,2.2365-.9464,4.9511.2625,6.2318a5.23,5.23,0,0,0,2.5676,1.5743c3.0925,1.0371,6.31,2.1648,9.6118,3.2456,6.7315,2.33,13.6163,4.7324,19.8512,6.7066.1625,0,.2812.1031.3968.1031a14.5692,14.5692,0,0,0,0-3.1268A167.6144,167.6144,0,0,1,273.3066,260.761C216.536,297.99,200.708,354.62,196.4035,378.81"/></clipPath><linearGradient id="linear-gradient-14" x1="-250.6523" y1="516.3797" x2="-247.5285" y2="516.3797" gradientTransform="matrix(0, 39.079, 39.0755, 0.0041, -19943.4886, 10065.3261)" xlink:href="#linear-gradient-13"/><clipPath id="clip-path-18" transform="translate(0 4.7769)"><path class="cls-1" d="M245.8958,376.5825v.9434c.0875,1.4587.2031,3.511.8965,4.2763a3.9955,3.9955,0,0,0,2.3115.9059c2.6833.2218,5.5165.531,8.4061.8309,5.9256.59,11.9231,1.2714,17.4209,1.6525a8.0123,8.0123,0,0,0-.5-1.5057,143.0931,143.0931,0,0,1,8.4871-114.7c-35.9915,40.5928-38.0563,87.6267-37.0224,107.5967"/></clipPath><linearGradient id="linear-gradient-15" x1="-251.0278" y1="516.1725" x2="-247.9041" y2="516.1725" gradientTransform="matrix(0, 35.482, 35.4788, 0.0037, -18049.3167, 9180.3493)" xlink:href="#linear-gradient-13"/><clipPath id="clip-path-19" transform="translate(0 4.7769)"><path class="cls-1" d="M301.7854,265.2123c-33.8111,73.3545-19.3046,144.8,6.7817,192.94,2.2366,4.1546,5.57,12.2044,15.5811,8.6934,10.8018-3.9484,23.6249-8.3872,34.3861-12.445,5.2791-1.9523,6.3817-6.0693.2591-12.1825-51.17-51.6945-72.7484-131.109-41.7952-210.1143Z"/></clipPath><radialGradient id="radial-gradient-4" cx="-250.6915" cy="514.7782" r="3.1237" gradientTransform="matrix(0, 27.1588, 27.154, -0.0012, -13667.4061, 7159.6731)" xlink:href="#radial-gradient"/><clipPath id="clip-path-20" transform="translate(0 4.7769)"><path class="cls-1" d="M312.7841,455.9376l.4562.9871c2.2271,4.2577,3.6984,6.1756,6.41,6.1132a13.0963,13.0963,0,0,0,2.8894-.6435c3.5985-1.2651,7.425-2.6864,11.3046-4.07,7.8313-2.7114,15.8686-5.7039,23.0938-8.3715a4.4662,4.4662,0,0,0,1.2369-.6185c-.1279-.4842-.6934-1.6837-2.7706-3.8485a196.4051,196.4051,0,0,1-56.1271-161.94c-29.0038,79.09-.7779,146.0967,13.5069,172.3922"/></clipPath><linearGradient id="linear-gradient-16" x1="-248.5135" y1="519.6235" x2="-245.3897" y2="519.6235" gradientTransform="matrix(0, 57.3757, 57.3705, 0.0061, -29496.8424, 14538.0725)" gradientUnits="userSpaceOnUse"><stop offset="0" stop-color="#d1d3d4"/><stop offset="1" stop-color="#e6e7e8"/></linearGradient><clipPath id="clip-path-21" transform="translate(0 4.7769)"><path class="cls-1" d="M310.7194,262.4072c-13.9412,67.2694,11.6734,123.6777,42.4826,158.5666,2.7363,2.98,7.01,9.0775,14.5567,4.1889,8.1965-5.351,18.0114-11.5609,26.1206-16.9025,3.9483-2.6458,4.1294-6.2381-2.1274-10.0678-52.2755-32.9865-85.3245-94.6863-74.7537-166.0885Z"/></clipPath><radialGradient id="radial-gradient-5" cx="-251.8783" cy="514.5826" r="3.1237" gradientTransform="matrix(0, 23.9201, 23.9158, -0.0011, -11962.6803, 6353.3461)" xlink:href="#radial-gradient"/><clipPath id="clip-path-22" transform="translate(0 4.7769)"><path class="cls-1" d="M356.7662,417.8188l.6467.7684c1.44,1.6806,3.2455,3.686,4.9822,3.686a5.029,5.029,0,0,0,2.78-1.1183c2.7582-1.7149,5.6789-3.57,8.5716-5.5009,5.9506-3.77,12.1168-7.7031,17.5646-11.3172.1219-.1343.2561-.2218.3686-.3436a12.0115,12.0115,0,0,0-2.3741-1.8836,167.4793,167.4793,0,0,1-77.0872-118.0612c-6.1726,67.6536,28.2447,115.381,44.5474,133.77"/></clipPath><linearGradient id="linear-gradient-17" x1="-249.2507" y1="519.1826" x2="-246.127" y2="519.1826" gradientTransform="matrix(0, 46.8464, 46.8422, 0.0049, -23970.8009, 11951.2028)" xlink:href="#linear-gradient-16"/><clipPath id="clip-path-23" transform="translate(0 4.7769)"><path class="cls-1" d="M316.9982,232.107l.5746,26.2331c1.3432,58.46,33.3084,100.2279,65.5733,123.2185,2.7176,2.04,7.5469,6.2568,12.8228.7153,5.779-5.96,12.7042-12.9322,18.3957-18.986,2.8019-2.9644,2.1834-5.8976-3.6859-7.8749C361.0426,338.0232,321.9242,293.2446,316.9982,232.107Z"/></clipPath><radialGradient id="radial-gradient-6" cx="-253.5295" cy="513.9321" r="3.1237" gradientTransform="matrix(0, 20.6445, 20.6408, -0.0009, -10242.8873, 5539.9234)" xlink:href="#radial-gradient"/><clipPath id="clip-path-24" transform="translate(0 4.7769)"><path class="cls-1" d="M324.62,281.8336c9.3868,53.3908,44.8818,84.2813,61.2438,95.9265l.6717.4436c1.1963.9434,2.8019,2.0648,3.9546,2.0648a3.6939,3.6939,0,0,0,2.1178-1.2839c1.8305-1.9055,3.8328-3.9546,5.8976-6.0444,4.1546-4.1733,8.3466-8.55,12.12-12.5324a9.7748,9.7748,0,0,0-1.4744-.6309A142.5715,142.5715,0,0,1,324.62,281.8336Z"/></clipPath><linearGradient id="linear-gradient-18" x1="-250.5644" y1="518.1076" x2="-247.4407" y2="518.1076" gradientTransform="matrix(0, 35.6833, 35.6801, 0.0038, -18118.4945, 9211.9069)" xlink:href="#linear-gradient-16"/><clipPath id="clip-path-25" transform="translate(0 4.7769)"><path class="cls-1" d="M489.4183,374.8582l1.212.1718c4.6263.934,7.041,1.0215,8.6622-1.2151a8.9306,8.9306,0,0,0,1.3837-2.63c1.184-3.6517,2.48-7.472,3.7955-11.4078,2.7488-7.9,5.5071-15.9436,7.8529-23.2406a5.2617,5.2617,0,0,0,.2624-1.4056,11.9674,11.9674,0,0,0-4.6856-.2156,196.2651,196.2651,0,0,1-161.69-56.8487c43.9226,71.9269,113.8473,91.5908,143.2071,96.7918"/></clipPath><linearGradient id="linear-gradient-19" x1="-249.7122" y1="519.9505" x2="-246.5885" y2="519.9505" gradientTransform="matrix(0, 41.9112, 41.9074, 0.0044, -21360.3878, 10722.8702)" xlink:href="#linear-gradient-13"/><clipPath id="clip-path-26" transform="translate(0 4.7769)"><path class="cls-1" d="M354.6983,268.22c49.1268,46.9559,107.8092,49.7141,132.3959,48.43h.9653c2.1867-.1218,4.8856-.25,6.0131-1.6525a5.9025,5.9025,0,0,0,.9154-2.7988c.2686-3.2425.6528-6.7535.9714-10.2021.7685-7.0409,1.4776-14.2973,2.0679-20.8415a3.1237,3.1237,0,0,0,.0282-.4092,10.3059,10.3059,0,0,0-3.0332.6778A167.2339,167.2339,0,0,1,354.6983,268.22Z"/></clipPath><linearGradient id="linear-gradient-20" x1="-252.9404" y1="517.4946" x2="-249.8166" y2="517.4946" gradientTransform="matrix(0, 25.5149, 25.5126, 0.0027, -12776.2548, 6703.9949)" xlink:href="#linear-gradient-13"/><clipPath id="clip-path-27" transform="translate(0 4.7769)"><path class="cls-1" d="M474.2088,239.5384a142.6859,142.6859,0,0,1-113.5879,17.5241c47.6181,25.9238,93.8649,17.4023,113.1163,11.8639l.94-.2093c1.3245-.3842,3.3018-.9558,3.9828-1.7711a3.7642,3.7642,0,0,0,.3466-2.499c-.3811-2.6583-.731-5.5165-1.0526-8.4091-.8029-5.8351-1.5338-11.8764-2.2459-17.3148a6.2131,6.2131,0,0,0-1.5.8153"/></clipPath><linearGradient id="linear-gradient-21" x1="-261.7735" y1="510.8359" x2="-258.6497" y2="510.8359" gradientTransform="matrix(0, 12.4593, 12.4582, 0.0013, -5944.2151, 3503.7116)" xlink:href="#linear-gradient-13"/></defs><path id="bkgd" class="cls-2" d="M0,0H640V480H0Z" transform="translate(0 4.7769)"/><path class="cls-3" d="M544.544,174.4109c-6.1007-9.6835-13.2947-21.2757-19.63-30.9467-2.98-4.6138-7.2219-4.7762-11.8575,2.4615-39.3185,61.1688-112.2261,99.4-196.0577,86.18l35.6075,7.7187c78.9177,17.1431,145.5343-12.4074,186.8924-48.34,3.5986-3.0862,10.78-8.0842,5.045-17.0743" transform="translate(0 4.7769)"/><g class="cls-4"><rect class="cls-5" x="360.9779" y="125.7614" width="191.5731" height="142.8947" transform="translate(-34.1159 120.9822) rotate(-13.982)"/></g><path class="cls-3" d="M494.43,140.8059c-6.9879-6.866-15.0909-15.0314-22.1379-21.813-3.4174-3.3049-6.9285-2.6645-9.4025,4.1858C442.0172,181.43,388.9544,227.0613,317,232.1061l30.9217-.3842c68.6284-.9,118.1769-38.1063,145.5532-75.819,2.3677-3.2737,7.3845-8.7277.9559-15.097" transform="translate(0 4.7769)"/><g class="cls-6"><rect class="cls-7" x="358.0342" y="108.5069" width="145.8874" height="130.5885" transform="translate(-29.2241 114.0573) rotate(-13.9819)"/></g><path class="cls-3" d="M446.4949,122.6483c-7.0409-4.4794-15.3532-9.7085-22.5221-13.9412-3.4892-2.096-6.2881-.9121-7,5.2853-6.0537,52.1944-41.3455,100.1-99.9748,118.1143l25.496-6.1974c56.7174-13.9412,90.6191-54.2373,106.066-90.7067,1.3837-3.0926,4.5107-8.6059-2.0647-12.5543" transform="translate(0 4.7769)"/><g class="cls-8"><rect class="cls-9" x="352.8735" y="104.518" width="104.118" height="117.9093" transform="translate(-27.5003 107.459) rotate(-13.982)"/></g><path class="cls-10" d="M413.4081,18.1178c-11.4047-1.2994-24.8682-2.8582-36.3352-3.9484-5.629-.5654-8.3716,2.649-5.5415,10.8488,23.3778,68.8625,7.9312,149.72-54.531,207.0873l28.1479-22.9812c62.5245-51.1635,80.8764-121.7316,78.4743-176.4468-.2344-4.7887.4091-13.4383-10.2145-14.56" transform="translate(0 4.7769)"/><g class="cls-11"><rect class="cls-12" x="335.2772" y="13.5947" width="105.1712" height="185.3242" transform="translate(-14.1817 101.6395) rotate(-13.982)"/></g><path class="cls-10" d="M355.9376,36.4078c-9.6993,1.1652-21.1633,2.4147-30.8624,3.6985-4.72.706-6.4006,3.7141-2.5335,9.9928,32.54,52.5911,35.2231,122.6031-5.5414,182.007l18.911-24.3806c42.0172-54.4028,43.6977-116.2651,31.35-161.1624-1.184-3.92-2.3335-11.23-11.3235-10.1553" transform="translate(0 4.7769)"/><g class="cls-13"><rect class="cls-14" x="308.3175" y="36.664" width="87.9041" height="155.3166" transform="translate(-17.185 93.2781) rotate(-13.982)"/></g><path class="cls-10" d="M311.7822,62.5159c-7.7564,2.9176-17.0557,6.1257-24.7963,9.0307-3.7453,1.4307-4.6137,4.3514-.2,8.8308,37.0536,37.2879,52.6,94.6989,30.2126,151.7287L327.963,208.269C352.4,155.2375,341.96,103.64,323.0994,68.8228c-1.6214-3.0394-4.0421-8.8777-11.3172-6.3069" transform="translate(0 4.7769)"/><g class="cls-15"><rect class="cls-16" x="275.7584" y="61.3657" width="84.4845" height="128.0729" transform="translate(-20.8775 85.3267) rotate(-13.982)"/></g><path class="cls-17" d="M209.4887,23.3481c-8.05,8.1842-17.721,17.7616-25.6771,26.0613-3.8921,4.0421-3.1268,8.1217,5.0105,11.0549,68.4533,24.5368,122.1315,87.0332,128.1759,171.6424l-.503-36.3507C315.38,115.0139,271.66,56.6908,227.322,24.5133c-3.77-2.7989-10.3614-8.6965-17.8333-1.1652" transform="translate(0 4.7769)"/><g class="cls-18"><rect class="cls-19" x="169.6572" y="11.6426" width="157.953" height="179.1857" transform="translate(-17.0936 67.8506) rotate(-13.982)"/></g><path class="cls-17" d="M188.1166,79.7311c-5.1918,8.4247-11.3767,18.1707-16.3622,26.5891-2.4114,4.0359-1,7.2783,6.31,8.1186,61.3155,7.2345,117.7645,48.7426,138.9339,117.6676l-7.4032-30.01C293.2955,135.4146,245.8649,95.5,203.0323,77.31c-3.7453-1.5744-10.2146-5.1729-14.9157,2.4209" transform="translate(0 4.7769)"/><g class="cls-20"><rect class="cls-21" x="164.9795" y="66.3957" width="144.6271" height="130.1299" transform="translate(-24.7326 66.0059) rotate(-13.982)"/></g><path class="cls-17" d="M181.0694,130.5907c-2.596,7.8624-5.8383,17.2023-8.4248,25.1053-1.212,3.7985.5842,6.2194,6.7754,5.5415,52.1786-5.7757,106.86,17.849,137.5782,70.868l-11.8545-23.39c-26.2924-52.1413-73.18-76.16-112.1323-83-3.3613-.5779-9.4213-2.421-11.942,4.8761" transform="translate(0 4.7769)"/><g class="cls-22"><rect class="cls-23" x="171.566" y="117.1835" width="122.8917" height="85.9902" transform="translate(-31.7981 65.8222) rotate(-13.982)"/></g><g class="cls-24"><rect class="cls-25" x="80.8175" y="138.0984" width="240.8491" height="120.9729" transform="translate(-42.0014 59.2544) rotate(-13.975)"/></g><g class="cls-26"><rect class="cls-27" x="87.497" y="148.9511" width="187.1691" height="95.3003" transform="translate(-42.1215 54.3306) rotate(-13.9759)"/></g><g class="cls-28"><rect class="cls-29" x="108.9085" y="178.9622" width="213.5991" height="117.3039" transform="translate(-50.9986 63.9029) rotate(-13.9749)"/></g><g class="cls-30"><rect class="cls-31" x="116.3672" y="190.3063" width="156.0839" height="92.6789" transform="translate(-51.3984 58.7349) rotate(-13.976)"/></g><g class="cls-32"><rect class="cls-33" x="141.8843" y="203.9977" width="182.0177" height="116.1193" transform="translate(-56.393 68.7767) rotate(-13.975)"/></g><g class="cls-34"><rect class="cls-35" x="149.6235" y="215.6784" width="123.6381" height="91.1803" transform="translate(-56.8408 63.5775) rotate(-13.9759)"/></g><path class="cls-36" d="M137.7673,383.8055c9.8459,5.9788,21.3382,13.2477,31.2154,19.1328,4.7761,2.8832,8.6089,1.2651,9.6116-7.3189C187.1159,323.402,235.9022,257.026,317,232.1049l-35.32,8.6683c-78.44,19.22-125.4333,75.0225-146.8058,125.4332-1.8555,4.3576-6.16,12.0232,2.8926,17.5991" transform="translate(0 4.7769)"/><g class="cls-37"><rect class="cls-38" x="120.0921" y="236.8629" width="161.7501" height="176.0846" transform="translate(-72.5481 62.9602) rotate(-13.982)"/></g><path class="cls-36" d="M197.5786,392.01c9.2524,3.08,20.16,6.86,29.51,9.9179,4.5107,1.4806,7.3689-.69,6.6036-7.928-6.841-61.4437,20.8664-125.6956,83.3066-161.8934l-27.6512,13.96c-61.2564,30.9624-89.4416,86.118-97.579,131.9587-.706,3.9515-2.7706,11.1392,5.81,13.9849" transform="translate(0 4.7769)"/><g class="cls-39"><rect class="cls-40" x="179.9312" y="253.3674" width="108.7509" height="151.6252" transform="translate(-72.5932 71.1422) rotate(-13.982)"/></g><path class="cls-36" d="M248.6806,387.3968c8.24.8,17.9957,1.8618,26.3673,2.5584,3.9483.3467,5.9256-1.9524,3.8608-7.8312-17.3616-49.6142-6.6909-108.19,38.0908-150.02L296.8327,248.95c-44.8972,37.366-57.689,88.3671-55.5961,127.97.1218,3.2892-.2092,9.671,7.444,10.4769" transform="translate(0 4.7769)"/><g class="cls-41"><rect class="cls-42" x="231.3869" y="266.1102" width="65.0061" height="121.9568" transform="translate(-71.2115 78.2282) rotate(-13.982)"/></g><g class="cls-43"><rect class="cls-44" x="240.64" y="223.9236" width="151.6098" height="254.6136" transform="translate(-75.455 91.5936) rotate(-13.975)"/></g><g class="cls-45"><rect class="cls-46" x="249.8839" y="275.5883" width="128.6803" height="195.469" transform="translate(-80.8912 91.7596) rotate(-13.982)"/></g><g class="cls-47"><rect class="cls-48" x="274.3744" y="222.8088" width="146.038" height="216.5376" transform="translate(-69.672 98.4708) rotate(-13.9749)"/></g><g class="cls-49"><rect class="cls-50" x="290.6161" y="275.7533" width="116.494" height="154.8149" transform="translate(-74.9932 99.5314) rotate(-13.982)"/></g><g class="cls-51"><rect class="cls-52" x="299.6787" y="222.315" width="134.8067" height="175.2927" transform="translate(-63.9898 102.6007) rotate(-13.9749)"/></g><g class="cls-53"><rect class="cls-54" x="314.0021" y="272.9049" width="107.2408" height="116.2926" transform="translate(-69.0956 103.4093) rotate(-13.982)"/></g><path class="cls-36" d="M505.1023,372.63c3.6515-10.833,8.15-23.7,11.714-34.7077,1.6681-5.2322-.8654-8.5933-9.3525-7.6531-72.2861,7.8874-147.9146-24.6743-190.466-98.1631l16.3776,32.468c36.4228,72.2112,101.3556,105.407,155.2429,114.8938,4.6606.8,13.12,3.2893,16.484-6.8379" transform="translate(0 4.7769)"/><g class="cls-55"><rect class="cls-56" x="336.8385" y="259.4256" width="185.1212" height="135.2665" transform="translate(-66.3005 118.217) rotate(-13.982)"/></g><path class="cls-36" d="M499.6478,312.6279c.94-9.79,2.2115-21.2694,3.0675-30.94.4435-4.8323-2.3616-7.1-9.24-4.748C435.1146,297.3561,366.2272,284.8768,317,232.1045l19.7168,23.7591c43.9822,52.7972,104.1482,67.863,150.5637,65.5014,4.0421-.278,11.48.2093,12.3669-8.7371" transform="translate(0 4.7769)"/><g class="cls-57"><rect class="cls-58" x="350.8159" y="251.6449" width="151.1215" height="82.8653" transform="translate(-58.1797 116.4802) rotate(-13.982)"/></g><path class="cls-36" d="M483.67,263.8269c-1.0621-8.2591-2.2116-17.9957-3.4019-26.2674-.6059-3.9827-3.2642-5.2791-8.5963-2.09C427.3085,263.59,367.8453,266.3884,317,232.1055l20.954,15.9435c46.4622,35.3481,99.0782,36.2946,137.1065,25.39,3.3174-.95,9.5836-2.0085,8.6091-9.6117" transform="translate(0 4.7769)"/><g class="cls-59"><rect class="cls-60" x="357.0288" y="225.0676" width="125.6916" height="71.5743" transform="translate(-50.5867 113.9543) rotate(-13.982)"/></g></svg>