<svg xmlns="http://www.w3.org/2000/svg" height="480" width="640" viewBox="0 0 640 480"><defs><style>.a{fill:#fff;}.b{fill:#039;}.c{fill:#ff8400;}</style></defs><title>Bophuthatswana</title><rect class="a" width="640" height="480"/><rect class="b" y="25" width="640" height="426.67"/><path class="c" d="M0,420.05v31.61H53.33L640,62.53V25H594.56Z"/><path class="a" d="M223.21,168.21a80,80,0,1,1-80-80A80,80,0,0,1,223.21,168.21Z"/><path d="M147.26,238.34c-.65-1.05-.07-2.37,1.3-2.92s.48-1.07-2-1.16c-6-.21-5.64-3.38.58-4.94,6.41-1.61,8.32-.37,8,5.2C155,239.1,149.39,241.78,147.26,238.34Zm-19.68-11.11c-4.21-2.5-8.21-5.37-8.89-6.38-2.05-3.06-7.84-4.45-8.64-2.07-.47,1.4-2.15,1.62-4.57.59a27.7,27.7,0,0,0-7.78-1.84c-3-.16-3.79-1.35-3.27-5.15,1.37-10,.73-14.32-1.87-12.71-1.2.74-.86-.76.75-3.34a40.26,40.26,0,0,0,4.21-10.2c1.43-6.16,4.43-5.44,7.15,1.72q1.79,4.71,4.87,3.53c2.26-.87,2.52-1.86,1-3.72s-1.4-2.83.44-3.6,1.54-1.87-1.25-4.12c-2.09-1.69-3.13-3.74-2.31-4.57s2.64.06,4,2c2.77,3.79,7,4.64,7,1.41,0-1.39,1.27-1.36,4,.07,3.25,1.74,4,1.5,4-1.34,0-3.18.25-3.2,3.2-.26,3.77,3.77,2.11,7.53-3.31,7.53-2.11,0-3.83.79-3.83,1.74,0,2.77,7,3.86,10.86,1.69,3.06-1.71,3.39-1.29,2.53,3.22-.91,4.78.39,6.18,5,5.38.9-.16,1.06.64.36,1.77a2.31,2.31,0,0,1-3.11.92c-1-.63-1.84-.28-1.84.77s-1.78,1.44-4,.87c-4.15-1.09-5.48,2.2-1.81,4.47,2.69,1.66,15.63-5.14,15.63-8.21,0-1.25-2-3.68-4.44-5.39-3.81-2.67-4-3.41-1.48-5.18,1.63-1.13,6.25-1.89,10.26-1.68l7.3.38-4.83,4.83c-6.67,6.67-6,9.81,2.26,11.37,5.32,1,7.9.5,10.37-2,3.07-3.12,2.93-3.2-2.28-1.24-8.13,3.05-11.23,2.25-4.32-1.12,5.9-2.87,5.9-2.88.53-1.79l-5.39,1.1,4.9-7.22c2.69-4,4.9-8,4.9-9s.79-1.33,1.76-.73,2.34-1.21,3-4q1.28-5.1,4.16-4c1.58.61,3,0,3-1.3.12-1.81.4-1.8,1.16.07.55,1.36,1.62,2.1,2.38,1.63s1.38.92,1.38,3.08c0,3.57-.22,3.63-2.4.66s-2.74-2.61-5.55,2.83c-1.74,3.36-4.17,6.11-5.41,6.11s-1.82.43-1.3,1c1.3,1.3,14.17-3.44,16-5.89,4.31-5.86-1.88-17.61-8.06-15.3-2.78,1-2.89.75-.71-1.93,1.66-2,1.86-3.59.56-4.4-1.1-.68-3.08.48-4.4,2.59s-3.57,3.38-5,2.83-2.61,0-2.61,1.18,1.33,2.19,3,2.19,3,.86,3,1.91-1.34,1.4-3,.77c-2.25-.86-2.65-.24-1.61,2.53,1.22,3.24,1,3.36-2,1-2.17-1.77-3.33-1.94-3.33-.49a2.22,2.22,0,0,1-2.22,2.22c-1.44,0-1.27-1.15.49-3.28,2.11-2.56,2.17-3.47.24-4.12C155.12,167,154,164.52,154,162s-.89-5.21-2-5.88a4.29,4.29,0,0,1-1.82-3.57c.11-1.7.41-1.72,1.08-.09,1.31,3.19,8.64.87,8.64-2.73,0-2.42-.55-2.52-3-.52-1.84,1.53-3,1.67-3,.37s-1.79-2.65-4-3.35-3.46-2.1-2.83-3.13a2.18,2.18,0,0,1,3-.73c1,.63,1.84-.31,1.84-2.08,0-4.32,4.32-8.41,7.7-7.29,1.65.55,2.18,0,1.35-1.32s-.39-2.23.83-2.23,1.59-1,.83-2.23-.32-1.88,1.24-1.36a6.24,6.24,0,0,1,3.49,3.49c.52,1.56,0,2.06-1.36,1.24s-2.23-.47-2.23.64-1.64,3.61-3.63,5.55c-5,4.91-7.23,11.25-3.36,9.76a5.68,5.68,0,0,1,5.47,1.42c1.4,1.4,5,3.16,8,3.9s5.41,2.23,5.41,3.3a1.76,1.76,0,0,0,1.48,1.94c2,0,1.56-11.48-.49-13.34-.89-.81-1-.36-.2,1s.48,2.47-.67,2.47a2,2,0,0,1-2.09-2c0-1.09-1.33-2-3-2s-3-.89-3-2c0-2.7,2.62-2.48,5.8.49,2.16,2,2.45,1.67,1.57-2-.59-2.44-.27-4.44.72-4.44s1.79,1.26,1.79,2.8c0,5,4.7,4.52,9.31-1,5.34-6.35,5.8-11.34,1.2-13.1-2.17-.83-4.29.2-6.14,3-2.83,4.26-2.84,4.26-7.12-2.1-4.78-7.09-12.65-10.75-18.25-8.49-3.36,1.35-3.25,1.67,1.25,3.61l4.94,2.12-4.71.82c-2.59.45-5.29-.12-6-1.26-1.68-2.72-9.46-.63-10.82,2.91-1.3,3.38,1.12,3.62,4.31.43,1.29-1.29,2.9-1.77,3.59-1.08,2.47,2.47-4.89,7.28-12.35,8.05-4.18.44-6,.4-4.15-.08,3.36-.85,4.27-2.89,3.6-8-.18-1.37,1.94-3.34,4.7-4.4,6.22-2.37,6.57-3.94.58-2.67-4.41.94-4.41.92-.49-2.41s3.87-3.34-1-2.15a44.2,44.2,0,0,1-7.41,1.23,2.34,2.34,0,0,0-2.47,2.12c0,1.15.89,1.54,2,.87s2-.35,2,.71c0,1.58-4.23,3.17-13.83,5.2-.54.11-3.15.94-5.8,1.84-4.61,1.57-4.66,1.75-1.1,4.35,2,1.49,3.32,2.79,2.84,2.88-7.11,1.34-9.73.81-9.28-1.9.64-3.86-6.37-5.47-8.54-2-2.54,4.12,3.75,10,8.18,7.58,5.44-2.91,6.35-2.36,5,3-.81,3.22-.41,4.94,1.14,4.94,3.88,0,11.32-8.1,10.18-11.07-.58-1.51.08-2.75,1.46-2.75s1.93.58,1.22,1.3-.36,2.43.79,3.81c1.54,1.85,1,3.08-1.95,4.67-5.93,3.17-9.2,10-5.81,12.17,5,3.2,7.95,2.12,5.68-2.11-1.64-3.07-1.33-4.26,1.49-5.78a15.67,15.67,0,0,1,7.43-1.56c2.84.25,3.7-.71,3.24-3.61-.56-3.54-.28-3.46,2.73.71,2,2.74,2.58,5.18,1.47,5.93a11.75,11.75,0,0,0-3.21,4.85c-.73,2-2.22,3-3.31,2.35s-2-.36-2,.7a3.2,3.2,0,0,0,2.21,2.66c1.22.41,2.49,3.86,2.83,7.67.46,5.18-.35,7.54-3.23,9.34-3.36,2.1-4.1,1.77-5.75-2.57-1.14-3-3.44-5-5.79-5a7.63,7.63,0,0,1-5.91-3.46c-1.8-3.09-2-3-2.07,1,0,3.05-1.25,4.44-3.87,4.44a5.24,5.24,0,0,0-4.81,3.46c-.83,2.85-1,2.77-.91-.49.22-8.64-.26-10.13-2.23-7-1,1.58-1.35,3.63-.77,4.56s.37,4.08-.45,7L100,179.79l-1.28-5.93A29.91,29.91,0,0,1,99.08,162c2.64-9.77,1.91-24-1.37-26.68-7-5.82-.4-14.87,9.54-13.07,3,.54,8-1.31,13.7-5,12.66-8.24,25.94-9.33,45-3.7,8.11,2.4,17.4,5,20.65,5.74,3.87.91,6.52,3.13,7.69,6.45,1.52,4.31.59,6.57-6.25,15.22l-8,10.16,5.08,14.82c5,14.63,5.18,14.83,12.2,15.14l7.12.32-6.42.8c-6.7.83-9,4.38-3,4.65,2.07.09,2.46.56,1,1.15-3.87,1.56-2.89,4.62,1.48,4.62,2.17,0,4,.86,4,1.91s-1.47,1.35-3.28.66c-2.78-1.07-3.11-.21-2.15,5.66.62,3.81.54,7.84-.18,9-2.91,4.54-37.89,22-37.81,18.89.06-2.55,19.75-14.56,21.79-13.3,1.05.65,4.8-1.71,8.32-5.25,4.45-4.48,5.2-5.94,2.45-4.8-2.17.9-6.87,2.7-10.43,4s-7.52,3.4-8.79,4.67-3.07,2.31-4,2.31-5,2.22-9,4.94c-6.88,4.68-22.15,7.05-22.15,3.45,0-.82-2.71-2.69-6-4.16a58.69,58.69,0,0,1-11.58-7.34c-3.06-2.57-6.1-4.13-6.77-3.46-1.08,1.08,11.19,10,21.25,15.4,3.91,2.11,6.7,7.13,3.78,6.8C136,231.84,131.8,229.72,127.59,227.22Zm22.23-6.75c1.5-.95,2.16-2.64,1.46-3.76s.08-3.38,1.72-5c4.34-4.34,3.74-5.24-3.44-5.21-9.07,0-12.1,2.43-10.3,8.1,1.32,4.17,1.14,4.39-1.76,2-1.79-1.48-3.25-1.83-3.25-.78,0,1.93,7.21,6.11,10.86,6.31A10.12,10.12,0,0,0,149.81,220.47Zm-22.36-11.11c-3.2-2.55-6.58-4.17-7.53-3.58s1.16,3.19,4.68,5.79C132.72,217.55,135.25,215.59,127.45,209.36Zm-24.1,2c-.82-2.14-.24-2.64,2-1.76,1.75.67,3.18.24,3.18-1s2-2.19,4.35-2.19c3.32,0,3.8-.54,2-2.32-3.42-3.42-17,4-13.94,7.65C103.83,215.2,104.76,215,103.35,211.37Zm55.91-3.43c-.55-1.36-1-.25-1,2.47s.45,3.83,1,2.47A7.62,7.62,0,0,0,159.27,207.93Zm14.49.11c3.8-2.38,8.25-4.37,9.88-4.44s3.25-2.15,3.6-4.63c.58-4.07-.08-4.47-6.57-4-4.43.3-7.92,1.8-9,3.89-3,5.64-2.1,6.14,3.38,1.83s10.6-5.37,10.6-2.12a2.28,2.28,0,0,1-2.47,2c-1.36,0-6.47,2.67-11.36,5.92C161.61,213.22,163.3,214.58,173.76,208Zm-65.19-7.27c0-3.14-5.37-6.26-8.63-5-1.76.68-2.73,2-2.16,2.91s2.34,1.18,3.94.57,2.9-.13,2.9,1.07a2.1,2.1,0,0,0,2,2.19A1.87,1.87,0,0,0,108.57,200.77ZM121,199.14a2.74,2.74,0,0,1-1.27-3.68c.79-2.06-.45-2.82-4.56-2.76l-5.64.07,5.85,4.78c3.22,2.63,6.33,4.25,6.91,3.61S122.33,199.61,121,199.14Zm12.23-6.52c1.44-2.34-.49-2.34-5.93,0-3.81,1.64-3.8,1.7.38,1.84C130.1,194.54,132.59,193.71,133.27,192.63Zm53.33-2c.67-1.09.33-2-.75-2a4.33,4.33,0,0,0-3.2,2c-.67,1.09-.33,2,.75,2A4.33,4.33,0,0,0,186.6,190.65Zm-10.86-2c0-1.09-1.33-2-3-2s-3,.89-3,2,1.33,2,3,2S175.73,189.76,175.73,188.67Zm4.94-2c-1.56-2.53-3-2.53-3,0a2,2,0,0,0,2.09,2C181,188.67,181.34,187.79,180.67,186.7Zm-52.35-25.2c0-.83-1.78-2.61-4-4-4.74-3-5.11-1.9-.85,2.36C127,163.31,128.33,163.77,128.33,161.5Zm4.2-3c-2-1.94-2.18-1.71-1.11,1.11.74,1.95,1.85,3,2.45,2.44S133.87,159.86,132.52,158.52Zm33.19-.29c1.58-1.91,1.66-3.19.24-4.07-1.14-.7-2.07.21-2.07,2,0,2.73-.53,2.88-3,.86-2.86-2.37-4.32,0-1.65,2.63C161.29,161.72,163.17,161.29,165.71,158.23Zm-49.24-4.34c0-1.21-2.14-3.8-4.75-5.76s-4.35-4.89-3.8-6.7c.82-2.7.69-2.73-.95-.17a33.64,33.64,0,0,0-3.16,8.89c-1.22,5.7-1,5.93,5.7,5.93C113.34,156.08,116.48,155.1,116.48,153.89Zm16.77-8.7a2.27,2.27,0,0,0-3.08-.87c-2.74,1.69-2.23,2.88,1.24,2.88C133.1,147.19,133.93,146.29,133.25,145.19ZM152,113.61a2,2,0,1,0-2,2A2,2,0,0,0,152,113.61Zm-17.78,63.33a4.24,4.24,0,0,1,2-3.08c1.09-.67,2,.16,2,1.86s-.89,3.08-2,3.08A1.93,1.93,0,0,1,134.25,176.94Zm-15.31-1.51c-2.44-.47-4.44-1.78-4.44-2.91s1.45-1.49,3.21-.82,4.29-.18,5.86-2.26c2.51-3.31,2.65-3.31,2.71,0,0,1.9-.88,3.46-2,3.46s-1.54.89-.87,2,.95,1.85.61,1.71S121.39,175.9,118.94,175.43Zm27.16-15.28c0-.48.89-1.42,2-2.09s2-.28,2,.87a2,2,0,0,1-2,2.09C147,161,146.11,160.63,146.11,160.15Zm-5.66-4.44c-2-2.15-2.12-3.5-.49-5.13s2.21-1.36,2.21,1c0,1.76,1.07,3.55,2.37,4s1.57,1.28.49,1.93S141.93,157.32,140.44,155.71Zm22-10.44c-3.41-2.78-3.78-3.84-1.63-4.67,3.05-1.17,7.81,3.35,6.72,6.38C167.15,148,164.86,147.25,162.43,145.27Zm-32.13-6.85c0-.48.89-1.42,2-2.09s2-.28,2,.87a2,2,0,0,1-2,2.09C131.19,139.29,130.3,138.9,130.3,138.42Zm13.88-1c-1.6-1-2.31-2.44-1.58-3.17s2.77.11,4.53,1.87C150.62,139.57,148.85,140.35,144.19,137.39Zm4.88-6c-.67-1.09-.33-2,.75-2a4.33,4.33,0,0,1,3.2,2c.67,1.09.33,2-.75,2A4.33,4.33,0,0,1,149.07,131.39Zm22.11.71a2.55,2.55,0,0,1-.19-3c1.26-2,4.75-.28,4.75,2.4C175.73,133.63,173.06,134,171.18,132.1Zm-43.5-5.47c-1.11-2.9.17-5.12,2.95-5.12,2.21,0,2.11,5.41-.12,6.79C129.54,128.9,128.26,128.15,127.68,126.63Zm36.2-6.11c-1.37-1.65-1.59-3-.48-3s3.08,1.33,4.43,3,1.59,3,.48,3S165.24,122.16,163.88,120.53Z"/></svg>