<svg xmlns="http://www.w3.org/2000/svg" xmlns:xlink="http://www.w3.org/1999/xlink" width="1000" height="500"><style><![CDATA[.B{stroke:#000}.C{fill-rule:evenodd}.D{fill:none}.E{fill:#fad62e}.F{fill:#fcfaf2}.G{fill:#bb1426}.H{stroke-width:.638}]]></style><path d="M0 0h1000v500H0z" fill="#00247d"/><path d="M0 27.95l110.765 55.383H0v83.334h110.765L0 222.05V250h55.902l152.43-76.217V250h83.334v-76.217L444.098 250H500v-27.95l-110.765-55.383H500V83.332H389.234L500 27.95V0h-55.9l-152.43 76.215V0h-83.334v76.215L55.902 0H0z" fill="#fff"/><path d="M500 0h-37.27L296.065 83.332h37.268zM166.667 83.332L0 0v18.633l129.4 64.7zM0 250h37.268l166.666-83.334h-37.267zm333.333-83.334L500 250v-18.635l-129.398-64.7zM225 0h50v100h225v50H275v100h-50V150H0v-50h225V0z" fill="#cf142b"/><path d="M875 250c0 69.036-55.964 125-125 125s-125-55.964-125-125 55.964-125 125-125 125 55.964 125 125z" fill="#fff" class="C"/><g transform="matrix(.909091 0 0 .909091 71.849078 23.411636)"><g class="B C E H"><path d="M816.375 317.683l-2.32-5.577s-2.872-2.534-5.144-3.274c-4.864-1.586-11.45-.02-16.063 2.19-8.37 4.012-9.237 15.9-7.007 23.837 4.17 14.84 15.165 35.276 33.01 25.998l2.823-4.376.743-8.765c-1.577.72-4.064-.13-5.643-.117-1.392.01-2.604.684-3.913.268-7.93-2.516-14.133-15.52-13.916-22.88 6.362-4.434 10.12 1.623 12.627 3.417z"/><path d="M798.944 325.136c-.237-2.21.308-8.9 5.348-13.965"/></g><g transform="matrix(.637923 0 0 .637923 862.49271 129.98422)" class="B C E"><path d="M-293.04 294.234l3.64-8.743s4.502-3.97 8.063-5.133c7.625-2.487 17.948-.032 25.18 3.435 13.12 6.3 14.48 24.925 10.984 37.367-6.536 23.265-23.773 55.298-51.748 40.754l-4.425-6.86-1.164-13.74c2.472 1.13 6.37-.202 8.845-.183 2.182.017 4.082 1.072 6.134.42 12.43-3.944 22.154-24.33 21.815-35.868-9.973-6.95-15.863 2.545-19.795 5.356z"/><path d="M-301.46 325.952c-4.652-6.202-7.935-10.137-5.256-15.383 5.878-8.43 13.052-21.6 17.635-25.294-3.5 14.014 18.813 35.05 37.076 43.114s41.557 13.8 69.34 13.8 51.078-5.745 69.34-13.8 40.566-29.1 37.076-43.114c4.584 3.684 11.757 16.863 17.635 25.294 2.68 5.245-.605 9.18-5.256 15.383-23.48 22.777-64.645 41.247-118.795 41.247s-95.317-18.47-118.795-41.247z"/><path d="M-296.124 362.422s-7.2-7.65-1.8-11.7c4.727-3.546 7.426 4.05 7.426 4.05 1.677-11.88-7.84-18.172-8.326-37.128-7.734-4.952-23.93 1.02-20.927 15.3 0 0 7.04 5.147 9.676 8.55 3.04 3.926 3.895 9.215 6.75 13.276 2.014 2.865 7.2 7.65 7.2 7.65zm30.4-56.505c.372-3.463-.483-13.95-8.384-21.9"/></g><g transform="matrix(.637923 0 0 .637923 861.99329 129.98422)" fill="#009e7f"><path d="M-288.596 310.922c-.388-.444-.7-.696-.97-.756-.2-.053-.534.112-.973.496l-5.515 4.82-.506.575c-.365.563-.156 1.292.626 2.187.848.97 1.857 1.447 3.027 1.43s2.326-.527 3.47-1.526c1.198-1.047 1.875-2.24 2.03-3.584s-.24-2.556-1.187-3.64zm.933.107c1.24 1.42 1.872 2.877 1.892 4.37s-.573 2.767-1.782 3.823c-1.557 1.36-3.3 1.868-5.23 1.522-1.415-.256-2.585-.913-3.5-1.973l-.876-1.107-.786-.952-1.373-1.426-.397-.34c-.084-.096-.064-.2.06-.307.086-.075.185-.07.297.015.276.214.536.296.782.247s.568-.248.966-.597l5.482-4.8c.403-.352.616-.734.64-1.146s-.14-.82-.495-1.227c-.113-.13-.115-.242-.006-.338.076-.066.15-.082.22-.048s.187.143.348.328l.822.966.523.574 1.04 1.008 1.38 1.398zm5.633 9.35c-.052-.04-.27.04-.654.24l-.34.178-2.344 1.257c-.082.04-.142.086-.18.134-.117.15-.018.347.297.594l1.94 1.524c.166.13.285.15.357.058a.44.44 0 0 0 .055-.137l.024-.098.716-2.683c.172-.642.215-.998.127-1.067zm2.33-1.87c.07.055.047.334-.07.836l-.116.472-2.396 9.207c-.123.463-.15.858-.083 1.187s.24.647.514.955c.068.075.058.17-.03.28-.095.12-.2.14-.3.056a2.95 2.95 0 0 1-.22-.235c-.28-.338-.796-.8-1.546-1.4s-1.295-.96-1.622-1.102a.8.8 0 0 1-.193-.106c-.123-.096-.136-.206-.04-.33.048-.062.133-.07.253-.025a1.37 1.37 0 0 0 .781.081c.262-.05.462-.163.6-.338.193-.246.427-.936.7-2.07.082-.347.067-.596-.046-.744s-.602-.563-1.468-1.243l-.892-.7-.673-.358c-.22-.052-.63.092-1.232.435l-.6.346a1.44 1.44 0 0 0-.437.368c-.433.552-.3 1.174.403 1.866.15.153.18.28.093.382-.1.107-.223.103-.372-.014-.08-.062-.18-.164-.302-.306a4.83 4.83 0 0 0-.705-.702c-.206-.162-.558-.4-1.054-.718l-.68-.448c-.123-.096-.142-.198-.058-.306.07-.1.185-.108.343-.057.295.112.592.124.9.038s.84-.34 1.62-.757l5.035-2.722.832-.438 1.594-.772.8-.37-.015.02.303-.17c.202-.113.327-.15.376-.112zm15.884 10.057c.17.095.218.2.142.347-.062.112-.162.137-.3.074-.475-.22-.88-.243-1.213-.07s-.68.582-1.04 1.23l-.27.5-2.352 4.64-.16.304c-.373.672-.532 1.236-.477 1.7s.337.86.843 1.22c.125.095.153.205.084.33-.075.135-.277.1-.607-.073a4.71 4.71 0 0 1-.443-.3l-1.2-.808c-.5-.283-.95-.494-1.316-.633l-.697-.3c-.12-.067-.148-.163-.078-.288.053-.095.16-.123.322-.085.32.075.582.06.8-.048s.405-.33.592-.664l.183-.347 2.482-4.962c.068-.134.073-.217.014-.25-.073-.04-.248.038-.524.235l-6.216 4.457c-.308.224-.5.313-.604.267-.1-.054-.14-.42-.1-1.1l.05-.965.57-6.647c-.001-.045-.02-.078-.06-.1-.078-.043-.172.035-.283.235l-.137.23-2.3 3.928-.316.723c-.26.792-.123 1.442.415 1.95.188.176.25.322.187.436-.072.13-.193.147-.365.052-.132-.073-.282-.172-.45-.296l-.48-.36a5.14 5.14 0 0 0-.556-.346c-.445-.247-.803-.42-1.075-.517a2.62 2.62 0 0 1-.39-.161c-.152-.084-.2-.2-.12-.32.05-.1.144-.122.283-.097.445.082.844.01 1.196-.22s.688-.628 1.007-1.202l3.15-5.162c.324-.584.436-1.12.337-1.612s-.398-.875-.894-1.15c-.185-.103-.24-.222-.163-.36s.223-.155.432-.038l.164.1.407.265.295.174c.23.127.46.236.697.328l.676.297c.32.178.465.46.43.84l-.64 8.208c-.028.36.003.562.093.606s.235-.006.435-.15l6.004-4.333c.566-.4.944-.656 1.134-.735a.61.61 0 0 1 .556.032c.068.038.17.105.3.2l.426.266c.2.1.455.23.767.357l.348.164zm.632.906a4.74 4.74 0 0 1 .293.178l1.408.835 1.648.753.526.236c.257.133.348.27.273.416-.04.08-.1.124-.144.134s-.164-.01-.328-.056c-.332-.096-.593-.1-.782.024s-.42.402-.694.87l-1.086 1.8-.664 1.32c-.62 1.198-.997 2.082-1.133 2.655a2.9 2.9 0 0 0 .108 1.707c.314.858.937 1.53 1.87 2 .953.493 1.87.6 2.748.35.592-.177 1.16-.588 1.703-1.234s1.17-1.654 1.877-3.024l.3-.6.75-1.54c.208-.475.25-.907.123-1.295s-.4-.696-.85-.924c-.193-.1-.252-.224-.176-.37.06-.117.14-.154.236-.1.037.013.1.05.16.1.077.06.265.175.565.35l.77.446.745.35.7.275.253.113c.134.07.167.17.1.3-.052.1-.145.13-.28.087l-.307-.093c-.417-.134-.822.18-1.215.94l-.326.648-.485.903c-.737 1.426-1.402 2.54-1.995 3.34s-1.167 1.358-1.723 1.67c-1.34.764-2.903.685-4.687-.237-1.26-.65-2.116-1.394-2.568-2.23-.6-1.135-.433-2.633.53-4.495l1.564-2.825.675-1.36c.174-.336.263-.6.267-.763s-.072-.363-.23-.57a3.27 3.27 0 0 0-.697-.66c-.178-.13-.235-.257-.173-.378.068-.132.186-.154.354-.067zm14.79 7.047a4.14 4.14 0 0 1 1.306.863l.43.428c.194.188.34.302.437.342.072.03.154.043.247.04l.354-.026c.05-.003.095.003.136.02.108.045.127.152.056.323l-.275.62a2.71 2.71 0 0 0-.1.285l-.215.8-.215.736a.96.96 0 0 1-.05.16c-.092.222-.202.306-.33.253-.093-.04-.12-.164-.08-.376.148-.78.03-1.556-.357-2.328s-.916-1.298-1.6-1.577c-.463-.192-.932-.203-1.406-.034s-.798.466-.974.9c-.163.393-.15.796.034 1.208.12.266.606.82 1.46 1.66 1.015 1.005 1.622 1.83 1.82 2.47.23.77.177 1.563-.16 2.376-.37.896-1.018 1.54-1.942 1.937s-1.82.413-2.692.053c-.355-.147-.87-.502-1.542-1.064l-.7-.56c-.218-.144-.337-.246-.358-.306s.002-.205.068-.437c.074-.252.142-.634.202-1.144.093-.78.18-1.268.26-1.463.102-.247.233-.337.393-.27.072.03.1.113.078.248-.1.985.022 1.907.4 2.764s.902 1.425 1.573 1.703c.522.216 1.07.2 1.645-.016s.968-.596 1.18-1.108c.167-.404.198-.78.092-1.13s-.375-.75-.806-1.197l-.96-1c-.905-.954-1.466-1.733-1.68-2.337s-.172-1.273.13-2.004c.35-.85.922-1.446 1.712-1.788s1.596-.344 2.42-.003zm12.953 4.786c1.506.468 2.506 1.125 3 1.973a2.84 2.84 0 0 1 .282 2.361 3.07 3.07 0 0 1-1.663 1.923c-.836.405-1.724.46-2.664.17-.5-.158-.94-.35-1.292-.578s-.505-.413-.46-.558.134-.195.266-.154a.5.5 0 0 1 .12.064 3.57 3.57 0 0 0 .805.4c.638.198 1.227.153 1.768-.134s.912-.754 1.112-1.4c.25-.805.215-1.536-.104-2.192s-.855-1.102-1.608-1.336c-.582-.18-1-.216-1.253-.106s-.458.415-.613.913l-1.876 6.038c-.313 1.008-.454 1.694-.422 2.06.04.436.34.77.9 1.004l.332.138c.14.055.187.157.14.304s-.17.2-.37.126c-.048-.015-.123-.044-.226-.088l-.518-.188-1.22-.432-.313-.1a14.06 14.06 0 0 0-1.583-.36l-.515-.113c-.17-.053-.238-.144-.203-.274s.124-.18.272-.17c.44.032.774-.077 1-.327s.463-.768.707-1.555l1.907-6.138c.2-.6.213-1.094.07-1.447s-.48-.645-1-.874c-.2-.1-.26-.203-.217-.345.05-.158.188-.2.417-.13a6.04 6.04 0 0 1 .367.141l2.017.7.917.258.904.218.824.22zm4.492 1.42l.24.075.396.105.812.23 3.067.783 3.287.725a.87.87 0 0 1 .115.02c.157.038.214.147.17.325a8.05 8.05 0 0 0-.113.676l-.18 1.028c-.1.4-.256.595-.467.555-.103-.02-.125-.15-.065-.393.13-.534.03-.97-.306-1.305s-.94-.612-1.82-.827l-.993-.243-.57-.07c-.298.02-.503.258-.616.717l-.1.33-.43 1.76c-.123.503-.164.83-.124.983s.2.264.484.333l.246.052.36.08.692.17c.537.132 1.025-.06 1.46-.575l.284-.35a.27.27 0 0 1 .277-.095c.118.023.16.1.122.262l-.107.35-.1.353a23.67 23.67 0 0 0-.227 1.231l-.22 1.096-.093.415c-.018.076-.04.125-.062.148-.03.027-.077.035-.144.025-.138-.022-.197-.145-.177-.37.042-.476-.035-.865-.232-1.165a1.05 1.05 0 0 0-.455-.377c-.194-.087-.57-.2-1.128-.336l-.553-.135c-.26-.064-.447-.068-.56-.013s-.216.197-.307.427c-.1.262-.22.684-.362 1.267l-.178.73c-.186.76-.26 1.323-.223 1.687.033.266.1.457.204.574s.285.207.545.27c2.2.538 3.802.223 4.807-.947.054-.056.095-.083.123-.082.057.002.102.032.137.1a.25.25 0 0 1 .026.192c-.13.532-.4 1.013-.8 1.442-.342.365-.714.595-1.115.7s-.898.07-1.488-.075a11.94 11.94 0 0 1-1.137-.346l-.92-.318c-.34-.117-.803-.247-1.393-.4l-1.82-.366-.485-.092c-.13-.032-.185-.1-.167-.23.018-.1.096-.158.233-.176.338-.043.58-.117.722-.223s.3-.32.438-.644c.13-.272.255-.653.375-1.145l1.573-6.425c.148-.605.15-1.04.005-1.304s-.517-.516-1.118-.755c-.14-.058-.194-.156-.16-.294.03-.127.136-.17.315-.125zm18.9 4.073c.3.055.436.2.407.463l-.066.596c-.01.093-.024.32-.037.677-.014.296-.037.53-.07.705s-.124.256-.273.23c-.127-.023-.196-.143-.207-.36-.02-.53-.174-.937-.458-1.222s-.735-.483-1.353-.596c-.83-.153-1.36-.183-1.6-.092s-.4.4-.483.9l-1.135 6.18c-.17.925-.156 1.604.04 2.04s.632.737 1.303.905c.194.053.274.17.242.35-.024.13-.12.178-.3.147l-.814-.184-1.013-.255-.327-.068-.858-.132-1.832-.23-.4-.04c-.17-.03-.238-.118-.207-.26.028-.12.07-.194.125-.22s.167-.03.333-.01c.432.05.8-.043 1.074-.282s.47-.602.56-1.1l.063-.387 1.34-7.288c.08-.432-.113-.7-.578-.776-1.093-.2-1.854-.258-2.282-.173-.312.068-.53.168-.653.3s-.322.484-.596 1.052l-.108.218c-.102.214-.217.3-.343.286-.182-.033-.252-.134-.2-.302.034-.152.1-.36.2-.625l.213-.7.233-.713.15-.5c.06-.2.196-.295.403-.257.055.01.147.033.276.068.2.056.512.12.906.192l1.67.324 1.988.4 4.103.648.552.085z"/><path d="M-206.9 347.4c.182.025.264.104.245.237-.014.1-.036.164-.07.194s-.105.045-.218.047c-.407.012-.678.087-.812.226s-.234.446-.3.92l-.964 7.048-.047.837c.008.434.125.782.35 1.044s.546.42.96.477c.27.037.395.14.372.305-.022.16-.212.217-.57.168a6.98 6.98 0 0 1-.656-.135l-1.73-.364c-.552-.076-.992-.106-1.32-.1-.283.016-.486.016-.607-.001a.22.22 0 0 1-.207-.21l-.008-.07.267-.162c.418-.1.706-.227.865-.416s.27-.523.336-1.002l.1-.734.9-6.584c.07-.507.03-.88-.117-1.12s-.45-.426-.9-.562c-.275-.084-.45-.152-.525-.205s-.105-.13-.1-.232c.022-.158.098-.225.23-.202a3.59 3.59 0 0 1 .437.129c.192.072.523.14.992.205l1.157.1.6.034 1.316.114zm14.85 1.397c.194.016.285.102.272.258-.01.128-.1.192-.24.2-.523-.003-.902.142-1.135.436s-.38.8-.44 1.55l-.038.567-.247 5.54c-.063.767.025 1.346.263 1.737s.662.645 1.27.762c.153.035.224.124.212.266-.013.153-.207.215-.583.184-.1-.01-.287-.04-.528-.1l-1.427-.24a10.13 10.13 0 0 0-1.46-.034l-.754.024c-.138-.01-.202-.088-.2-.23.01-.108.095-.178.258-.2.32-.063.554-.186.7-.37s.234-.467.265-.85l.024-.392.213-5.544c.007-.15-.023-.228-.1-.234-.084-.007-.2.136-.38.43l-3.687 6.384-.136.24c-.188.33-.335.495-.44.492-.122-.004-.3-.326-.537-.965l-.352-.9-2.175-6.16-.048-.13c-.02-.04-.05-.063-.095-.066-.088-.008-.142.103-.16.33l-.03.266-.482 4.53.01.8c.1.83.483 1.364 1.183 1.606.244.083.36.2.35.32-.012.148-.116.214-.3.198-.15-.012-.327-.04-.53-.084l-.587-.13c-.15-.034-.365-.062-.65-.085-.507-.04-.905-.05-1.193-.027a2.61 2.61 0 0 1-.422.015c-.173-.014-.253-.095-.24-.243.01-.102.08-.17.218-.205.44-.1.772-.34 1-.693s.367-.856.42-1.5l.668-5.446.07-.555c.054-.666-.065-1.2-.358-1.608s-.723-.633-1.3-.68c-.2-.017-.3-.104-.297-.26.013-.162.14-.233.378-.214l.2.024.48.074.34.036a5.68 5.68 0 0 0 .77.012l.738-.01c.366.03.613.226.74.588l2.804 7.74c.123.34.235.5.335.514s.2-.103.335-.316l3.68-6.424c.346-.608.6-.988.73-1.138a.61.61 0 0 1 .519-.2 4.42 4.42 0 0 1 .364.055 4.77 4.77 0 0 0 .497.066 7.27 7.27 0 0 0 .846.009l.385.005z"/><path d="M-191.527 348.78c.06.001.175.01.342.027l1.633.112 1.8-.07.576-.026c.3.003.433.086.43.248-.001.1-.024.15-.07.185s-.15.066-.318.098c-.34.064-.57.188-.688.373s-.195.548-.228 1.088l-.154 2.104v1.48c-.013 1.348.048 2.308.184 2.88s.425 1.064.866 1.475c.667.625 1.525.943 2.576.953 1.073.01 1.943-.298 2.6-.926.45-.424.77-1.047.965-1.87s.3-2.003.314-3.545l.007-.676-.025-1.712c-.03-.518-.186-.922-.474-1.2s-.68-.437-1.176-.442c-.218-.002-.326-.086-.324-.252.001-.132.055-.2.16-.204.04-.005.103.004.193.028.095.018.316.037.662.058l.9.052.822-.024.74-.065a2.5 2.5 0 0 1 .277-.013c.15.001.226.076.224.225-.001.114-.07.182-.2.203l-.316.055c-.433.068-.653.53-.662 1.385l.001.725-.027 1.025c-.016 1.606-.108 2.9-.276 3.88s-.43 1.738-.786 2.268c-.853 1.286-2.283 1.92-4.292 1.9-1.42-.014-2.518-.3-3.297-.833-1.056-.74-1.573-2.156-1.553-4.252l.123-3.226-.01-1.518c.003-.378-.03-.645-.105-.802s-.228-.3-.46-.405c-.273-.13-.58-.222-.92-.276-.218-.036-.326-.123-.325-.26.001-.148.097-.22.286-.22zm16.647-.226c.523-.024 1.04.052 1.55.228l.57.206c.255.088.435.13.54.125.078-.003.158-.027.24-.07l.3-.173c.043-.024.088-.037.132-.04.117-.005.18.084.188.268l.014.68a2.41 2.41 0 0 0 .03.3l.144.816.117.758c.014.067.022.122.024.167.01.24-.053.363-.193.37-.1.004-.178-.098-.232-.306-.197-.77-.633-1.42-1.3-1.957s-1.38-.787-2.108-.754c-.5.023-.93.2-1.288.565s-.526.76-.505 1.22c.02.425.2.785.543 1.08.22.2.896.485 2.025.884 1.345.48 2.244.97 2.696 1.467.535.6.823 1.34.863 2.22.044.968-.27 1.827-.938 2.577s-1.474 1.146-2.416 1.2c-.384.017-1-.086-1.848-.3l-.872-.2c-.258-.038-.4-.08-.454-.126s-.085-.187-.124-.425c-.04-.26-.14-.634-.302-1.122-.246-.746-.374-1.225-.383-1.436-.012-.267.068-.404.24-.412.078-.003.137.06.176.192.317.94.828 1.717 1.533 2.334s1.42.9 2.147.876c.564-.026 1.058-.263 1.483-.712s.624-.95.6-1.503c-.02-.437-.152-.8-.396-1.063s-.657-.52-1.238-.742l-1.298-.5c-1.224-.48-2.062-.948-2.513-1.404s-.695-1.08-.73-1.87c-.042-.918.222-1.7.792-2.345s1.3-.988 2.2-1.028zm10.282-.072c-1.077.108-1.9.584-2.44 1.428s-.757 1.933-.623 3.267c.18 1.794.75 3.228 1.707 4.304s2.087 1.548 3.386 1.417a3.17 3.17 0 0 0 2.503-1.552c.575-.924.8-2.095.65-3.513-.162-1.616-.747-2.945-1.755-3.984s-2.15-1.495-3.428-1.367zm.775-.73c1.683-.17 3.1.208 4.224 1.132s1.783 2.222 1.95 3.894c.12 1.2-.038 2.32-.475 3.353-.257.613-.584 1.13-.983 1.55s-.94.824-1.628 1.212c-.2.1-.285.194-.284.255.003.085.2.202.563.353l.978.404c.472.197.943.272 1.412.225.315-.03.648-.217 1-.557.05-.05.098-.08.14-.1s.093.016.15.077.084.12.084.176c.001.117-.17.36-.513.73-.67.715-1.344 1.106-2.018 1.173-.4.04-.85-.004-1.32-.137s-1.126-.395-1.964-.788l-2.032-.878c-.335-.115-.65-.158-.943-.128-.448.045-.807.266-1.077.664s-.378.86-.325 1.4c.018.178-.046.274-.2.3-.18.018-.28-.1-.303-.322l-.1-.638.06-.56c.1-.367.33-.794.72-1.28.05-.06.072-.105.07-.133-.004-.04-.142-.14-.415-.303-.658-.393-1.2-.985-1.66-1.777a6.44 6.44 0 0 1-.813-2.567c-.182-1.812.252-3.337 1.302-4.576s2.5-1.952 4.382-2.14zm5.88.718c.06-.01.174-.022.34-.034l1.627-.18 1.77-.4.562-.128c.285-.05.44.007.468.167.015.088.003.153-.035.194s-.137.092-.296.153c-.323.123-.527.286-.6.5s-.094.574-.03 1.1l.223 2.098.266 1.455c.227 1.33.458 2.263.694 2.802a2.9 2.9 0 0 0 1.114 1.297c.767.496 1.67.656 2.704.48 1.058-.18 1.86-.64 2.405-1.376.366-.498.572-1.168.617-2s-.062-2.025-.322-3.544l-.114-.667-.33-1.68c-.12-.505-.347-.874-.682-1.107s-.746-.3-1.236-.225c-.215.037-.336-.027-.364-.2-.022-.13.02-.206.122-.23.038-.012.103-.014.195-.008.097.001.317-.02.662-.06l.884-.108.805-.17.715-.195.27-.062c.15-.025.236.035.26.18.02.112-.037.2-.17.237l-.302.1c-.414.144-.55.638-.405 1.48l.13.714.156 1.013c.27 1.583.4 2.872.42 3.868s-.114 1.787-.37 2.37c-.6 1.418-1.905 2.295-3.885 2.634-1.398.24-2.53.16-3.392-.233-1.17-.54-1.932-1.84-2.285-3.908l-.453-3.197-.28-1.492c-.064-.373-.146-.63-.246-.77s-.276-.246-.526-.316a3.3 3.3 0 0 0-.954-.108c-.22.003-.342-.063-.366-.198-.025-.146.056-.235.242-.267zm13.213-2.398c.038-.008.12-.02.248-.036l.402-.077.832-.143 3.104-.622 3.277-.77c.042-.015.08-.026.112-.033.158-.033.256.04.294.22.026.125.1.344.2.658l.282 1.005c.087.413.027.647-.18.702-.1.027-.178-.082-.23-.326-.113-.538-.393-.886-.84-1.044s-1.113-.144-2 .042l-1 .2-.544.183c-.26.146-.342.45-.244.913l.062.337.373 1.772c.107.506.2.82.314.94s.296.15.58.1l.245-.06.36-.084.698-.147c.54-.114.898-.497 1.07-1.15l.105-.438a.27.27 0 0 1 .209-.205c.117-.03.2.03.223.183a6.46 6.46 0 0 1 .055.363l.062.362a23.75 23.75 0 0 0 .328 1.208l.277 1.083.096.414c.016.076.02.13.008.16-.015.037-.055.065-.12.084-.134.04-.24-.046-.32-.257-.168-.448-.406-.764-.713-.95a1.05 1.05 0 0 0-.573-.143c-.213.005-.6.067-1.163.185l-.557.117c-.262.055-.433.132-.512.23s-.1.27-.092.518c.024.28.1.712.222 1.3l.155.734c.16.767.338 1.306.53 1.618.144.225.3.368.433.43s.347.063.6.007c2.216-.467 3.524-1.445 3.923-2.934.024-.073.05-.116.075-.127.052-.022.106-.015.162.022s.1.1.106.162c.113.536.078 1.086-.105 1.65-.15.477-.386.845-.707 1.104s-.78.45-1.373.576c-.35.074-.74.134-1.175.18l-.968.112c-.356.04-.83.125-1.425.25l-1.8.458-.477.127c-.13.027-.214-.018-.25-.136-.026-.097.018-.183.133-.26.286-.185.47-.356.555-.513s.122-.414.116-.77c-.001-.3-.053-.7-.157-1.194l-1.363-6.473c-.128-.6-.315-1.002-.56-1.178s-.7-.24-1.334-.197c-.152.01-.242-.057-.272-.196-.027-.128.05-.2.23-.25zm24.32-6.3c.095-.032.165.02.2.154.042.124-.01.23-.16.316-.288.162-.485.404-.6.725s-.202.946-.287 1.873l-.252 3.126-.34 3.438-.18 1.806-.14 1.175c-.02.27-.106.432-.255.483-.1.034-.203-.001-.304-.108l-.32-.34-.36-.414-3.317-3.6-2.098-2.412c-.692-.844-1.198-1.386-1.516-1.624s-.675-.334-1.07-.3c-.225.028-.36-.025-.406-.16-.05-.146-.001-.243.146-.293.042-.014.123-.036.242-.065.278-.06.596-.152.953-.273l1.337-.412 1.5-.578c.147-.05.245-.002.295.144.042.124-.04.246-.25.364-.37.2-.5.494-.358.878.16.473.768 1.3 1.823 2.514l3.236 3.715c.144.162.25.235.315.22s.1-.1.115-.286l.445-4.56c.147-1.496.124-2.532-.07-3.106-.1-.327-.316-.556-.616-.686s-.673-.155-1.12-.074c-.192.04-.308-.001-.35-.125s.002-.2.134-.253l.447-.134.844-.232.808-.238c.478-.162.883-.335 1.213-.52a2.32 2.32 0 0 1 .305-.139z"/><path d="M-116.5 338.15c.17-.07.28-.042.33.083.038.093.05.16.037.202s-.068.1-.165.15c-.347.214-.544.414-.6.602s.02.503.2.947l2.688 6.586.378.75c.224.372.5.615.826.728s.684.1 1.07-.067c.253-.103.4-.077.475.078.06.15-.076.294-.4.43-.144.06-.356.13-.636.2l-1.68.55c-.516.2-.912.404-1.188.582-.237.156-.413.257-.526.303a.22.22 0 0 1-.284-.078l-.04-.057.15-.274c.318-.286.498-.55.54-.793s-.027-.588-.2-1.036l-.273-.7-2.5-6.153c-.193-.474-.413-.777-.66-.9s-.604-.144-1.07-.032c-.28.065-.466.093-.557.084s-.156-.06-.195-.156c-.06-.148-.027-.244.098-.3.095-.033.243-.068.443-.107.203-.033.523-.14.96-.318l1.053-.5.546-.276 1.197-.56zm6.332-3.25c.963-.4 1.886-.524 2.77-.402l.63.088c.128.02.233.014.316-.02.103-.042.164-.114.182-.216l.067-.303c.01-.05.048-.1.115-.118.16-.065.308.07.444.405l.237.56.285.703.3.562.212.32a2.71 2.71 0 0 1 .232.437c.08.196.047.323-.098.382-.083.033-.162-.007-.238-.12-.12-.18-.386-.42-.795-.727s-.773-.53-1.1-.678c-1.3-.605-2.485-.685-3.585-.238-.975.395-1.605 1.117-1.9 2.165s-.168 2.2.35 3.488c.676 1.67 1.714 2.8 3.113 3.4 1.05.44 2.015.48 2.898.12.52-.2 1.023-.56 1.505-1.045s.816-.98 1.002-1.487l.282-.75c.037-.1.088-.182.15-.214.094-.044.165-.007.213.112.086.2.02.632-.2 1.26-.577 1.64-1.648 2.776-3.214 3.4-1.514.614-2.94.627-4.28.04s-2.322-1.657-2.95-3.2c-.345-.85-.505-1.756-.48-2.716s.23-1.814.615-2.565a5.47 5.47 0 0 1 2.9-2.634zm8.548-3.766c.165-.08.277-.062.336.06.045.1.062.157.052.2s-.06.096-.154.16c-.33.238-.513.452-.546.643s.056.5.27.93l3.152 6.378.43.72c.25.355.542.577.876.667s.688.042 1.063-.143c.245-.12.405-.106.48.044s-.054.3-.38.46a6.99 6.99 0 0 1-.619.256l-1.636.668c-.5.247-.88.468-1.144.665-.226.172-.393.285-.503.34a.22.22 0 0 1-.289-.057l-.045-.054.13-.284c.297-.308.457-.584.483-.83s-.07-.584-.283-1.018l-.32-.67-2.944-5.957c-.227-.46-.468-.746-.724-.86s-.612-.1-1.07.045c-.275.085-.458.126-.55.124s-.16-.05-.205-.142c-.07-.143-.045-.242.078-.296.092-.04.237-.086.434-.14.2-.048.512-.177.936-.386l1.015-.565.525-.314 1.154-.643zm3.732-2.232a4.14 4.14 0 0 1 1.478-.517l.6-.082c.267-.04.446-.087.537-.14a.57.57 0 0 0 .18-.173l.194-.298c.027-.042.06-.074.1-.096.1-.06.198-.01.3.15l.327.595a2.58 2.58 0 0 0 .166.252l.506.656.455.617c.043.052.076.098.098.137.12.208.12.346.001.417-.087.05-.203-.004-.348-.163-.53-.6-1.22-.965-2.068-1.126s-1.587-.058-2.218.3a1.89 1.89 0 0 0-.878 1.098c-.152.48-.113.917.118 1.314a1.46 1.46 0 0 0 .982.704c.284.066 1.02.014 2.204-.156 1.414-.2 2.437-.183 3.07.05.753.284 1.35.806 1.794 1.566.488.838.6 1.744.365 2.718s-.775 1.7-1.6 2.174c-.332.194-.926.388-1.78.583l-.87.218c-.247.086-.4.12-.46.1s-.162-.126-.307-.32c-.156-.212-.42-.496-.788-.854-.564-.547-.9-.9-1.006-1.094-.135-.23-.127-.4.023-.477.067-.04.15-.01.245.088.717.685 1.53 1.138 2.44 1.357s1.68.146 2.308-.22c.488-.284.815-.724.983-1.318s.112-1.13-.167-1.6c-.22-.378-.502-.63-.844-.758s-.823-.155-1.44-.083l-1.386.15c-1.307.143-2.266.117-2.878-.08s-1.117-.634-1.515-1.318c-.463-.794-.592-1.6-.386-2.445s.694-1.478 1.463-1.927zm6.42-4.1a4.14 4.14 0 0 1 1.424-.65l.6-.137c.262-.065.436-.127.522-.2.063-.045.118-.108.164-.188l.166-.314c.023-.044.053-.08.1-.105.095-.068.196-.027.303.123l.38.562a2.57 2.57 0 0 0 .189.236l.563.607.5.573a1.07 1.07 0 0 1 .111.127c.14.196.152.334.04.415-.082.058-.202.015-.36-.13-.583-.54-1.304-.85-2.163-.932s-1.586.088-2.18.5a1.89 1.89 0 0 0-.774 1.174c-.108.492-.03.924.238 1.297.247.347.594.55 1.042.612.3.04 1.016-.08 2.18-.356 1.4-.327 2.4-.405 3.06-.232.776.214 1.42.68 1.93 1.395.563.8.767 1.68.612 2.673s-.616 1.763-1.383 2.3c-.313.223-.886.47-1.72.743l-.847.296c-.238.108-.388.155-.45.14s-.173-.1-.334-.3c-.174-.197-.462-.456-.863-.778-.612-.493-.98-.825-1.102-.997-.155-.217-.162-.376-.02-.477.064-.045.148-.024.252.065.776.617 1.628.993 2.555 1.128s1.686-.008 2.278-.43c.46-.328.746-.795.86-1.403s.008-1.137-.313-1.587c-.254-.356-.557-.582-.9-.677s-.833-.08-1.442.05l-1.366.277c-1.3.262-2.246.323-2.873.185s-1.17-.53-1.63-1.174c-.534-.75-.736-1.548-.608-2.4s.555-1.535 1.28-2.053zm6.84-5.232c.14-.12.253-.128.34-.026.065.076.1.136.1.18s-.036.108-.1.194c-.262.312-.385.565-.37.758s.178.47.5.835l4.63 5.4.595.6c.33.282.668.426 1.014.43s.677-.13.995-.402c.207-.178.366-.203.475-.075s.02.303-.254.538a7 7 0 0 1-.537.401l-1.42 1.052c-.423.362-.737.67-.944.927-.176.222-.3.374-.404.453a.22.22 0 0 1-.294.016l-.057-.04.056-.307c.2-.37.3-.68.263-.923s-.212-.55-.526-.916l-.477-.57-4.325-5.045c-.333-.388-.638-.607-.914-.655s-.618.054-1.025.308c-.245.15-.413.236-.502.256s-.167-.008-.234-.087c-.104-.12-.103-.223.002-.306a3.58 3.58 0 0 1 .387-.242c.182-.096.452-.298.812-.606l.844-.8.43-.434.96-.908z"/><path d="M-75.25 309.22c.126-.15.25-.173.368-.07.098.083.103.186.015.307-.308.423-.4.816-.306 1.176s.438.78 1.003 1.26l.44.36 4.094 3.21.267.215c.587.497 1.11.763 1.565.797s.9-.162 1.36-.6c.118-.104.23-.1.34-.018.117.1.054.293-.2.58-.072.085-.2.2-.38.376l-1.026 1.02c-.377.445-.67.834-.878 1.168l-.42.627c-.1.106-.19.113-.298.02-.083-.07-.09-.18-.02-.333.136-.298.17-.56.107-.784s-.243-.462-.536-.7l-.305-.247-4.383-3.4c-.118-.093-.2-.114-.242-.063-.054.064-.012.25.128.56l3.16 6.965c.16.346.207.56.144.644-.074.096-.44.055-1.098-.126l-.937-.238-6.408-1.855c-.044-.008-.08.005-.11.038-.057.068.001.175.175.323l.2.18 3.402 3.03.648.45c.726.41 1.39.402 1.995-.027.2-.15.365-.183.465-.1.113.096.106.218-.02.368a4.2 4.2 0 0 1-.378.383l-.447.402c-.114.1-.263.26-.448.478-.33.388-.568.706-.716.954a2.62 2.62 0 0 1-.233.352c-.112.132-.225.15-.338.055-.078-.066-.092-.165-.04-.297.167-.42.173-.826.018-1.216s-.482-.797-.983-1.222l-4.45-4.095c-.51-.432-1.015-.646-1.516-.644s-.935.22-1.302.653c-.137.16-.265.19-.384.1s-.108-.25.046-.432l.13-.14.34-.348.228-.256c.17-.2.322-.406.458-.62l.423-.605c.238-.28.54-.367.91-.26l7.926 2.227c.348.098.552.107.613.027s.04-.232-.062-.456l-3.08-6.733c-.293-.635-.46-1.054-.5-1.256a.61.61 0 0 1 .139-.539c.05-.06.136-.147.257-.264s.232-.234.344-.366c.148-.174.314-.402.5-.682l.23-.3z"/><circle r="1.442" cy="344.988" cx="-243.95"/><circle cx="-131.659" cy="349.314" r="1.442"/><circle r="1.442" cy="311.403" cx="-69.435"/></g><path d="M818.343 361.18s4.593-4.88 1.148-7.464c-3.016-2.262-4.737 2.584-4.737 2.584-1.07-7.58 5-11.592 5.31-23.685 4.934-3.16 15.266.65 13.35 9.76 0 0-4.492 3.283-6.172 5.455-1.94 2.504-2.485 5.878-4.306 8.47-1.285 1.828-4.593 4.88-4.593 4.88z" class="B C E H"/><g transform="matrix(.637923 0 0 .637923 861.87311 129.98422)"><use xlink:href="#B" fill="#afcbf3"/><path d="M-300.777 112.775v73.232l.76 13.668c1.678 30.242 12.927 55.068 28.725 74.334h179.195c15.798-19.266 27.048-44.092 28.727-74.334l.758-13.668v-73.232h-238.164z" fill="#bad2f4"/><path d="M-300.777 149.78v36.23l.76 13.668c1.678 30.242 12.927 55.068 28.725 74.334h179.195c15.798-19.266 27.048-44.092 28.727-74.334l.758-13.668v-36.23h-238.164z" fill="#c6daf6"/><path d="M-300.777 182.38v3.63l.76 13.668c1.678 30.242 12.927 55.068 28.725 74.334h179.195c15.798-19.266 27.048-44.092 28.727-74.334l.758-13.668v-3.63h-238.164z" fill="#e0ebfa"/><path d="M-298.133 215.86c4.11 23.028 13.958 42.44 26.84 58.15h179.195c12.882-15.71 22.73-35.122 26.84-58.15h-232.875z" fill="#f0f5fd"/><path d="M-280.025 239.654c-4 2.838-7.378 3.266-10.453 2.445 21.154 51.027 72.287 78.482 108.783 80.986 36.47-2.502 87.552-29.917 108.736-80.87-1.82-.392-3.58-1.254-5.283-2.562-4.465 2.126-9.2 3.44-15.52 0-4.095 2.158-8.643 3.414-15.523 0-5.174 3.522-10.348 3.043-15.52 0-4.842 1.162-8.944 4.91-15.52 0-5.174 3.6-10.348 2.958-15.52 0-4.31 1.514-7.663 4.698-15.52 0-6.224 3.676-11.17 2.876-15.52 0-4.277 1.57-7.683 4.662-15.52 0-5.174 3.748-10.35 2.794-15.523 0-4.7 2.852-9.884 2.78-15.52 0-4.354 2.87-9.296 3.68-15.52 0-5.174 4.4-10.348 3.058-15.52 0-5.174 4.443-10.348 4.002-15.52 0z" fill="#37abc8" stroke="#fff"/><path d="M-275.767 226.457l20.037 7.8m135.458-17.367l28.363-1.436 23.504-39.325M-142.53 75.445l74.676 100.885-92.268-92.986m-87.748 9.043l19.575-12.7 15.254 12.966" class="B D"/><g class="C"><path d="M-196.926 45.824l.23 7.713s-1.837.903-2.76.69c-1.357-.315-2.12-1.883-3.45-2.33-.923-.31-1.95.014-2.875-.286-1.58-.512-2.504-2.24-4.14-2.32-1.56-.077-2.58.5-4.14.5-1.594.01-3.018-1.24-3.018-1.24s1.38-.042 2.673-.412c2.096-.6 2.64-2.807 4.795-2.916 1.657-.083 2.747 1.23 4.405 1.295 1.46.057 1.986-.85 3.44-.712.788.076 1.854 1.116 2.635 1.26.935.175 2.203-1.24 2.203-1.24z" stroke-width=".7" class="B G"/><path d="M-277.94 228.427c20.22-25.846 18.272-87.008 17.932-96.994l28.935 13.856-5.298 70.504z" class="B F"/><path d="M-229.162 68.975l.04 22.966-.37 139.532 4-.006-1.63-139.526-.04-22.972z"/></g><path d="M-248.937 233.928l18.34-111.054-9.51 109.696" class="B D"/><path d="M-261.868 166.658c3.224-9.847 7.858-25.903 6.253-42.27l54.542-1.53c10.2 13.632 7.077 43.033 7.077 43.033-8.14-11.92-40.476-15.006-67.87.766zm.538 64.208c3.224-9.847 10-44.07-2.904-62.882l69.886-1.6c11.86 22.427 4.285 49.2-.565 55.872-10.143-13.324-41.876-10.605-66.416 8.6zm7.257-107.612c20.428-7.12 32.08-8.66 50.485-1.215.06-3.13-2-11.5-9.798-29.47h-34.383c2.174 10.72-.293 22.808-6.305 30.686z" stroke-width=".946" class="B C F"/><path d="M-219.39 229.174l22.415-122.94-13.924 121.922 23.773-2.717-9.17-119.544 18 116.488" class="B D"/><path d="M-195.76 44.548l-2 .025.172 26.214.613 154.814 4-.025-2.614-154.994-.17-26.034z" class="C"/><path d="M-241.97 153.898c3.406-10.97 8.3-28.857 6.605-47.088l66.065-1.705c10.773 15.186 7.475 47.94 7.475 47.94-8.598-13.278-51.207-16.717-80.145.853zm.567 71.53c3.406-10.97 10.574-49.096-3.068-70.052l82.273-1.78c12.527 24.985 4.526 54.82-.597 62.242-10.714-14.844-52.686-11.814-78.608 9.6zm7.666-119.882c21.578-7.93 42.338-9.648 61.78-1.354.063-3.488 4.224-12.822-4.012-32.83h-44.77c-.87 15.9-6.648 25.408-12.998 34.185z" stroke-width="1.027" class="B C F"/><path d="M-182.713 222.72l23.773-115.13-14.264 114.45 25.81-3.396-11.207-111.054 19.358 110.714" class="B D"/><path d="M-157.79 46.42l-2 .027.19 27.734.196 145.094 4-.027-2.195-144.866-.192-27.963z" class="C"/><g class="F B C"><path d="M-199.7 153.197c3.408-10.406 8.305-27.376 6.6-44.672l60.097-1.617c10.778 14.407 7.48 45.48 7.48 45.48-8.602-12.596-45.232-15.86-74.185.8zm.57 67.858c3.408-10.406 10.58-46.576-3.07-66.457l76.313-1.7c12.534 23.702 4.528 52.007-.597 59.048-10.72-14.082-46.712-11.208-72.647 9.1zm7.67-113.73c21.6-7.524 36.36-9.153 55.8-1.284.063-3.3 4.226-12.164-4.014-31.146h-38.792c-.87 15.073-6.65 24.104-13.004 32.43z"/><path d="M-148.203 208.897c6.598-30.358 4.247-63.94-.325-86.127 15.492 20.592 30.984 40.285 46.476 65-25.982 4.698-38.514 15.497-46.15 21.125z"/><path d="M-145.278 116.595c13.203 17.297 35.73 38.535 58.176 68.9-20.76 3.754-33.583 8.803-41.534 14.597 2.142-23.192-8.913-60.544-16.643-83.498z"/></g><path d="M-66.81 173.924l-64.492 41.588 1.627 2.52 47.557-30.904-.303-.95 16.48-10.627z" class="C"/><g class="B"><path d="M-101.258 197.485l9.945 19.59" stroke-width="2.5" class="D"/><g class="C"><path d="M-252.197 253.905c-4.554-7.71-13.327-10.164-15.998-12.233l-6.352-6.352-.706-1.647c50.937-1.503 127.74-24.91 160.812-20.2 1.953.127 4.033 2.457 3.44 3.5-1.507 5.095-12.268 12.804-17.312 19.513-5.873 7.8-7.953 15.7-11.9 23.066z" fill="#312a25"/><path d="M-137.857 222.29l-4.988.127c-13.755.523-34.516 5.074-52.102 7.188s-35.518 5.087-50.52 6.236c-11.392.873-21.397 1.504-27.77.785l4.326 4.326c6.717.518 15.137.14 24.768-.598 15.2-1.165 33.17-3.442 50.734-5.553s34.73-4.054 48.166-4.564c6.72-.255 12.513-.145 16.86.44 1.728.233 3.195.57 4.4.947l.383-.395 6.213-6.352c-2.115-1.017-4.727-1.574-7.74-1.98-2.42-.326-5.13-.512-8.096-.584a131.41 131.41 0 0 0-4.635-.025z" fill="#b3b3b3"/><path d="M-149.338 239.67c-17.8.105-42.326 3.4-58.043 4.863-26.603 2.493-43.7 2.754-51.102 2.713 2.325 1.663 4.595 3.797 6.285 6.658l111.984 5.646c3.028-5.657 4.963-11.6 8.348-17.602-.845-.496-1.767-.98-2.492-1.14-3.862-.856-9.048-1.174-14.98-1.14z" class="E"/></g><path d="M-218.888 71.286l22.372-12.966 17.542 12.966m2.034 3.304l18.372-12.966 17.542 12.966m-137.798 153.905l18.34-96.45" class="D"/></g><g class="C"><use xlink:href="#C" class="G"/><path d="M-270.722 136.4c.526-.487 1.09-.926 1.743-1.26 1.692-.87 3.97.16 5.664-.71 1.358-.697 3.108-3.362 3.108-3.362l-2.452 13.02-8.034 1.786z" fill="#252d5b"/><path d="M-270.68 139.983l3.5-.674-3.626-2.628.68-.842 4.187 2.87.178-4.002 1.467-.055-.258 3.877 3.943-5.74-.38 2.082-2.65 3.73 2.513-.6-.516 1.762-2.26.474 1.563 2.746-.152 1.087-.953.168-1.43-3.396-.24 3.74-1.44.32.476-4.033-3.41 4.78-1.184.193-.003-.97 3.667-4.238-3.76.834z" fill="#fff"/><path d="M-260.907 133.503l-3.373 4.938.406-.043 2.9-4.34zm-4.507 1.134l-.204 4.708-5.06 1.004-.05.775 5.15-1.08-.503 4.74.646-.137.438-4.697 3.448-.635.22-.76-3.5.753.204-4.708zm-4.912 1.574l-.236.367 3.7 2.55.6-.133zm5.768 4.106l1.852 3.3.064-.7-1.496-2.507zm-1.466.362l-.594.2-3.627 4.488.608-.065z" class="G"/></g><use xlink:href="#C" stroke-width=".7" class="B D"/><path d="M-284.973 250.227l-1.32.936c23.14 45.218 70.324 69.572 104.598 71.924 34.014-2.334 80.74-26.34 104.066-70.898-1.723-.262-3.562-.873-5.56-1.96-4.095 2.158-8.643 3.414-15.523 0-5.174 3.522-10.348 3.043-15.52 0-4.842 1.162-8.944 4.91-15.52 0-5.174 3.6-10.348 2.958-15.52 0-4.31 1.514-7.663 4.698-15.52 0-6.224 3.676-11.17 2.876-15.52 0-4.277 1.57-7.683 4.662-15.52 0-5.174 3.748-10.35 2.794-15.523 0-4.7 2.852-9.884 2.78-15.52 0-4.354 2.87-9.296 3.68-15.52 0-5.174 4.4-10.348 3.058-15.52 0-5.174 4.443-10.348 4.002-15.52 0-6.293 4.476-11.1 2.97-15.52 0z" fill="#37abc8" stroke="#fff"/><g class="C"><path d="M-78.56 252.14c-2.938.07-7.067 2.917-11.48 3.174-8.96.522-19.426-2.56-26.426 1.297-1.678.925-4.2 2.963-3.34 4.676 2.397 4.78 13.272-4.243 16.035.334.643 1.066-.633 2.656-1.672 3.342-4.75 3.132-12.07-1.772-17.035 1.002-1.187.663-2.884 2.095-2.34 3.34 1.98 4.53 12.8-2.566 14.7 2.004 1.123 2.717-2.746 5.644-5.346 7.016-7.692 4.058-18.343-2.684-26.055 1.336-1.126.587-2.88 1.86-2.34 3.008 3.326 7.053 19.482-6.083 23.385.668.823 1.423-.937 3.482-2.338 4.342-7.975 4.893-19.38-2.82-28.062.668-3.218 1.292-4.42 5.84-7.682 7.016-4.3 1.548-9.972-3.316-13.697-.668-1.608 1.143-2.866 4.1-1.67 5.68 3.78 4.96 12.936 2.03 18.707-.334 2.843-1.164 3.846-5.166 6.682-6.348 4.217-1.757 9.482-1.34 14.438-1.385 3.14-.03 6.795-1.942 7.943.717.874 2.024-2.686 3.726-4.676 4.676-3.84 1.832-8.928-.64-12.695 1.338-1.818.955-4.947 2.85-4.008 4.676 1.685 3.277 4.98 1.367 8.986.28 6.68-1.81 15.334-6.264 21.805-6.613 1.902-1.407 3.782-2.87 5.635-4.39-.974.148-1.937.317-2.865.5-3.686.765-6.848 3.955-8.172 1.193-1.176-2.45 2.265-5.426 4.676-6.682 3.52-1.832 7.815-.126 11.89.19a137.4 137.4 0 0 0 6.437-6.268c-5.73.672-15.306 6.426-19.33 2.402-.945-.945-.905-3.026 0-4 1.816-1.973 5.715.706 8.018-.668 2.626-1.567 2.293-6.28 5-7.682 2.476-1.278 5.934 1.72 8.352.334 1.642-.94 3.773-3.47 2.674-5.012-1.637-2.295-6.684 3.61-8.352 1.336-1.62-2.208 1.4-5.807 3.674-7.35 4.632-3.156 11.45.183 16.865-1.047a126.09 126.09 0 0 0 4.574-8.004c-.288-.064-.587-.103-.904-.096zm-115.578 1.69c-2.08-.01-3.745.804-4.84 3.447-.723 1.746 2.27 3.268 4 4.008 10.76 4.578 24.728-4.782 35.074.668 1.695.893 4.158 2.945 3.342 4.678-3.377 7.17-22.097-6.088-23.72 1.67-.54 2.584 4.447 3.067 7.016 3.676 6.285 1.49 17.062-6.365 19.375-.334 2.007 5.233-7.47 8.99-12.693 11.023-5.668 2.205-11.983-2.375-18.29-2.043-6.514.343-13.018 5.523-18.79 3.045-2.753-1.182-6.782.002-5.658-2.775 1.02-2.517 4.126-1.828 7.033-2.342 4.024-.712 8.314-2.103 11.986-2.9 1.86-.404 5.185-.108 5.346-2.004.262-3.083-5.037-3.848-8.018-4.678-7.08-1.972-14.97 1.646-22.05-.334-3.605-1.008-10.316-1.988-9.687-5.678.78-4.585 13.547 1.975 13.697-2.674.14-4.373-8.356-2.778-12.695-3.34-10.022-1.297-20.306-.958-30.46-.723-6.18.143-12.313-.646-18.31.723-2.9.664-7.13 1.043-8.61 3.42a128.79 128.79 0 0 0 7.381 10.615c1.386 1.178 2.517 2.386 2.94 3.688a134.69 134.69 0 0 0 8.797 9.59c6.736 1.265 16.328 2.3 29.912 1.75 1.425-.058 3.714 2.366 2.672 3.34-3.428 3.205-16.707 1.35-27.06.1 2.71 2.407 5.493 4.683 8.326 6.836 8.153-1.167 16.252-6.414 23.074-3.594 2.347.97 5.793 3.73 4.678 6.012-2.838 5.802-18.144-4.65-21.15 1.066-.257.49-.15.942.182 1.363l2.588 1.7c.98.458 1.995.862 2.68 1.215 6.235 3.217 14.762-3.456 21.045-.334 1.855.922 4.612 3.164 3.676 5.012-1.812 3.576-10.49-3.704-12.025 0-1.09 2.633 5.47 3.742 7.1 5.834 9.747 4.004 19.402 6.633 28.38 7.877a35.25 35.25 0 0 0 9.283-2.02c2.533-.92 7.256-2.474 6.348-5.012-1.28-3.575-8.53.976-12.36 1.422-7.852.914-14.972 1.637-22.38-.754-2.12-.684-5.968-1.87-5.344-4.008 1.253-4.287 8.9-.757 13.36-1.002 12.683-.698 25.9 2.228 38.082-1.336 2.73-.798 8.136-1.61 7.35-4.344-1.585-5.508-14.29-.04-20.203.896-11.326 1.796-19.534 4.038-29.904.44-3.286-1.14-9.163-3.395-8.018-6.68 2.38-6.823 12.75-3.606 21.28-2.432 2.646.364 5.115 2.78 7.113 1.764 2.124-1.08 5.398-3.543 4.342-5.68-5.032-10.182-23.552 4.28-34.072 0-5.762-2.344-7.578-10.74-13.363-13.027-10.46-4.135-23.946 6.2-33.74.668-6.602-3.73-15.123-13.13-11.357-19.71 3.02-5.277 9.093.718 15.943 1.143 7.83.485 16.676-4.02 23.143-1.477 2.712 1.067 7.388 3.292 6.346 6.014-2.99 7.8-25.68-5.078-29.316 2.443-.727 1.504 1.508 3.275 3.008 4 12.202 5.976 31.767-5.458 45.016-2.445 1.7.387 5.06.64 4.678 2.34-1.2 5.324-14.332-4.73-16.37.334-2.116 5.26 6.76 9.927 12.025 12.025 7.022 2.797 14.72.653 22.5.457 9.074-.23 18.26 1.04 26.607-1.793 5.2-1.768 8.175-7.853 13.36-9.687 5.992-2.12 16.646 4.885 19.04-1.002.742-1.825-2.195-3.574-4.008-4.344-4.613-1.96-10.492 2.455-15.033.334-1.938-.905-4.903-3.067-4.008-5 2.843-6.173 18.5 5.86 20.377-.668 1.158-4.005-6.37-5.793-10.355-7.016-11.975-3.674-29.086-1.45-42.443-1.223-5.084.087-9.713-2.2-13.182-2.225zm63.217 52.795c-3.484 1.266-7.275 3.26-11.15 4.33-4.855 1.34-9.834.105-14.48 2.777-2.467 1.42-8.22 1.634-7.35 4.344.232.722.538 1.323.908 1.826 10.45-2.752 21.404-7.186 32.072-13.277z" fill="#00d4aa"/><path d="M-171.747 252.65c-7.453 5.09-8 4.424-11.014 5.813 3.672.435 7.345.81 11.018-1.27 4.384 3.5 8.77 1.917 13.152 2.494-4.612-2.345-11.44-4.7-13.156-7.035zm51.396.305c-7.453 5.09-8 4.424-11.014 5.812 3.672.435 7.345.81 11.018-1.27 4.384 3.5 8.767 1.92 13.15 2.496-.386-.196-.806-.393-1.22-.6 2.14-.02 4.283-.386 6.424-1.6 4.384 3.5 8.767 1.917 13.15 2.494-4.612-2.345-11.438-4.7-13.154-7.035-5.448 3.72-7.205 4.362-8.934 4.982-3.954-1.763-8.132-3.526-9.422-5.29zm-110.133 1.836c-7.453 5.09-8 4.424-11.014 5.812 3.672.435 7.343.81 11.016-1.27 4.384 3.5 8.77 1.92 13.152 2.496-4.612-2.345-11.438-4.692-13.154-7.037zm33.65.918c-7.453 5.09-8 4.424-11.014 5.813 3.672.435 7.345.81 11.018-1.27 2.744 2.19 5.49 2.4 8.232 2.375-4.56 2.862-5.408 2.63-7.93 3.79.752.09 1.504.163 2.256.227-6.633 4.45-7.32 3.946-10.21 5.28 3.672.435 7.345.81 11.018-1.27 4.384 3.5 8.77 1.92 13.152 2.496-4.204-2.138-10.24-4.276-12.574-6.414 2.46.09 4.918-.194 7.377-1.588 4.384 3.5 8.767 1.92 13.15 2.496-4.612-2.345-11.438-4.692-13.154-7.037l-1.123.746c-4.17-1.88-8.822-3.76-10.197-5.64zm54.455 2.14c-7.453 5.09-8 4.424-11.014 5.813 3.672.435 7.345.81 11.018-1.27 4.384 3.5 8.767 1.92 13.15 2.496-4.612-2.345-11.438-4.692-13.154-7.037zm-110.44.307c-7.453 5.09-8 4.424-11.012 5.813 3.672.435 7.343.81 11.016-1.27 4.384 3.5 8.77 1.92 13.152 2.496-4.612-2.345-11.44-4.692-13.156-7.037zm30.898 7.953c-5.817 3.972-7.432 4.443-9.29 5.117-.064-.074-.137-.147-.19-.22l-1.113.738c-.14.06-.264.108-.416.178l.13.014c-6.07 4.015-6.812 3.592-9.613 4.883 3.672.435 7.345.81 11.018-1.27 2.81 2.245 5.622 2.4 8.434 2.373-5.838 3.836-6.594 3.438-9.355 4.71 3.672.435 7.343.81 11.016-1.27 4.384 3.5 8.77 1.917 13.152 2.494-3.895-1.98-9.36-3.962-12.002-5.943.635.015 1.27.047 1.906.13-3.825-1.946-9.167-3.9-11.86-5.836 2.73.184 5.46-.006 8.19-1.555 4.384 3.5 8.77 1.92 13.152 2.496-4.612-2.345-11.44-4.692-13.156-7.037zm106.715 2.873c-7.453 5.09-8 4.424-11.012 5.813 3.672.435 7.343.81 11.016-1.27 4.384 3.5 8.77 1.917 13.152 2.494-4.612-2.345-11.44-4.7-13.156-7.035zm-30.002 6.713c-7.453 5.09-8 4.424-11.014 5.813 3.672.435 7.345.81 11.018-1.27 4.384 3.5 8.767 1.92 13.15 2.496-4.612-2.345-11.438-4.692-13.154-7.037zm-29.293.205c-7.453 5.09-8 4.424-11.014 5.813 3.672.435 7.343.81 11.016-1.27 4.384 3.5 8.77 1.917 13.152 2.494-4.612-2.345-11.438-4.7-13.154-7.035zm-68.527 7.342c-7.453 5.09-8 4.424-11.014 5.813 3.672.435 7.343.81 11.016-1.27 4.384 3.5 8.77 1.917 13.152 2.494-4.612-2.345-11.438-4.7-13.154-7.035zm55.066 0c-4.74 3.236-6.684 4.144-8.248 4.734-1.386-.762-2.515-1.525-3.072-2.287-7.453 5.09-8 4.424-11.014 5.813 3.672.435 7.345.81 11.018-1.27 4.384 3.5 8.767 1.92 13.15 2.496-2.205-1.12-4.903-2.244-7.32-3.365 1.83-.114 3.66-.54 5.488-1.578 4.384 3.5 8.77 1.917 13.152 2.494-4.612-2.345-11.438-4.7-13.154-7.035zm59.96.846c-5.415 3.698-7.184 4.355-8.902 4.973-.692-.47-1.245-.938-1.588-1.406-7.453 5.09-8 4.424-11.014 5.813 3.672.435 7.343.81 11.016-1.27 4.384 3.5 8.77 1.92 13.152 2.496-2.918-1.484-6.717-2.97-9.553-4.453 2.297.034 4.594-.307 6.89-1.61 4.384 3.5 8.77 1.92 13.152 2.496-4.612-2.345-11.438-4.692-13.154-7.037zm-92.082 7.414c-7.453 5.09-8 4.424-11.014 5.813 3.672.435 7.345.81 11.018-1.27 2.25 1.796 4.5 2.25 6.748 2.348-4.603 2.894-5.444 2.652-7.975 3.818 3.672.435 7.343.81 11.016-1.27 4.384 3.5 8.77 1.92 13.152 2.496-3.24-1.65-7.547-3.297-10.434-4.945.214.02.428.023.643.05a61.99 61.99 0 0 0-2.24-1.072c-.472-.357-.864-.713-1.125-1.07l-.502.334c-3.913-1.743-8.012-3.486-9.287-5.23zm52.008 2.447c-7.453 5.09-8 4.424-11.014 5.813 3.672.435 7.345.81 11.018-1.27 4.384 3.5 8.767 1.92 13.15 2.496-4.612-2.345-11.438-4.692-13.154-7.037zm2.754 10.707c-7.453 5.09-8 4.424-11.014 5.813 3.672.435 7.343.81 11.016-1.27 4.384 3.5 8.77 1.92 13.152 2.496-4.612-2.345-11.438-4.692-13.154-7.037zm-50.172 1.225c-7.453 5.09-8 4.424-11.014 5.813 3.672.435 7.343.81 11.016-1.27 4.384 3.5 8.77 1.917 13.152 2.494-4.612-2.345-11.438-4.7-13.154-7.035zm27.533 1.53c-7.453 5.09-8 4.424-11.014 5.813 3.672.435 7.343.81 11.016-1.27 4.384 3.5 8.77 1.92 13.152 2.496-4.612-2.345-11.438-4.692-13.154-7.037z" fill="#d5f6ff"/></g><use xlink:href="#B" stroke-width="1.5" class="B D"/></g></g><defs ><path id="B" d="M-63.37 199.677l.76-13.67V20.756h-238.164v165.252l.76 13.67c4.343 78.257 72.75 120.282 118.324 123.41 45.574-3.127 113.98-45.15 118.324-123.41z"/><path id="C" d="M-260.206 131.068l-4.225 22.43s-2.487 2.47-3.915 2.906c-2.62.802-4.73-.526-7.327.344-2.638.884-7.695 5.04-7.695 5.04s.38-7.41-1.03-10.72c-.41-.964-1.637-3.183-1.637-3.183s1.672-3.014 3.863-4.417c2.027-1.298 5.012-2.01 7.14-3.14 2.404-1.276 3.635-3.945 6.055-5.19 1.692-.87 3.97.16 5.664-.71 1.358-.697 3.108-3.362 3.108-3.362z"/></defs></svg>