<svg xmlns="http://www.w3.org/2000/svg" xmlns:xlink="http://www.w3.org/1999/xlink" height="480" width="640" viewBox="0 0 640 480">
<style type="text/css">
	.st0{fill:#FFFFFF;}
	.st1{fill:#002495;}
</style>
<g>
	<path class="st0" d="M0,0h640v480H0V0z"/>
	<g id="qtr">
		<path class="st1" d="M0,0h266.7v180H0V0z"/>
		<path class="st0" d="M159.5,111.7c1.7-2.9,1.6-9.1-1.8-11.4c-2.7-1.4-5.5-0.8-6.9,0.4c-2.2,1.6-4.4,6.4-4.4,11.3h7.7v9.7h-16
			c0.2,4.9,2.7,9,7.1,11.2c-0.5,2-3.3,6.4-7,6.1c-0.7,4.6-1.4,7.1-4.8,11.2c-3.3-4.1-4.1-6.6-4.8-11.2c-3.7,0.2-6.4-4-7-6.1
			c4.5-2.2,6.9-6.2,7.1-11.2h-16V112h7.7c0-4.9-2.1-9.7-4.4-11.3c-1.4-1.3-4.4-1.8-6.9-0.4c-3.4,2.2-3.6,8.5-1.8,11.4
			c-16.2-3.4-14.6-21-9.1-27.4c4.5-5.2,9.3-6,13.1-4.3c8.5,3.5,14.3,14.9,14.5,32h4.5c0-15.6-2.5-20.5-8.6-40.1
			c-3.2-9.2-1.3-20.6,4.4-31.1c2-3.7,4.6-7.2,7.5-10.8c2.9,3.6,5.4,7.1,7.5,10.8c5.7,10.6,7.6,22,4.4,31.1
			c-6.3,19.6-8.6,24.5-8.6,40.1h4.5c0.3-17,6-28.6,14.5-32c3.7-1.7,8.6-0.8,13.1,4.3c5.5,6.4,7.1,24-9.1,27.4L159.5,111.7z"/>
	</g>
	<g>
		<g id="qtr_1_">
			<path class="st1" d="M373.3,0H640v180H373.3V0z"/>
			<path class="st0" d="M532.8,111.7c1.7-2.9,1.6-9.1-1.8-11.4c-2.7-1.4-5.5-0.8-6.9,0.4c-2.2,1.6-4.4,6.4-4.4,11.3h7.7v9.7h-16
				c0.2,4.9,2.7,9,7.1,11.2c-0.5,2-3.3,6.4-7,6.1c-0.7,4.6-1.4,7.1-4.8,11.2c-3.3-4.1-4.1-6.6-4.8-11.2c-3.7,0.2-6.4-4-7-6.1
				c4.5-2.2,6.9-6.2,7.1-11.2h-16V112h7.7c0-4.9-2.1-9.7-4.4-11.3c-1.4-1.3-4.4-1.8-6.9-0.4c-3.4,2.2-3.6,8.5-1.8,11.4
				c-16.2-3.4-14.6-21-9.1-27.4c4.5-5.2,9.3-6,13.1-4.3c8.5,3.5,14.3,14.9,14.5,32h4.5c0-15.6-2.5-20.5-8.6-40.1
				c-3.2-9.2-1.3-20.6,4.4-31.1c2-3.7,4.6-7.2,7.5-10.8c2.9,3.6,5.4,7.1,7.5,10.8c5.7,10.6,7.6,22,4.4,31.1
				c-6.3,19.6-8.6,24.5-8.6,40.1h4.5c0.3-17,6-28.6,14.5-32c3.7-1.7,8.6-0.8,13.1,4.3c5.5,6.4,7.1,24-9.1,27.4L532.8,111.7z"/>
		</g>
	</g>
	<g>
		<g id="qtr_2_">
			<path class="st1" d="M0,300h266.7v180H0V300z"/>
			<path class="st0" d="M159.5,411.7c1.7-2.9,1.6-9.1-1.8-11.4c-2.7-1.4-5.5-0.8-6.9,0.4c-2.2,1.6-4.4,6.4-4.4,11.3h7.7v9.7h-16
				c0.2,4.9,2.7,9,7.1,11.2c-0.5,2-3.3,6.4-7,6.1c-0.7,4.6-1.4,7.1-4.8,11.2c-3.3-4.1-4.1-6.6-4.8-11.2c-3.7,0.2-6.4-4-7-6.1
				c4.5-2.2,6.9-6.2,7.1-11.2h-16V412h7.7c0-4.9-2.1-9.7-4.4-11.3c-1.4-1.3-4.4-1.8-6.9-0.4c-3.4,2.2-3.6,8.5-1.8,11.4
				c-16.2-3.4-14.6-21-9.1-27.4c4.5-5.2,9.3-6,13.1-4.3c8.5,3.5,14.3,14.9,14.5,32h4.5c0-15.6-2.5-20.5-8.6-40.1
				c-3.2-9.2-1.3-20.6,4.4-31.1c2-3.7,4.6-7.2,7.5-10.8c2.9,3.6,5.4,7.1,7.5,10.8c5.7,10.6,7.6,22,4.4,31.1
				c-6.3,19.6-8.6,24.5-8.6,40.1h4.5c0.3-17,6-28.6,14.5-32c3.7-1.7,8.6-0.8,13.1,4.3c5.5,6.4,7.1,24-9.1,27.4H159.5z"/>
		</g>
	</g>
	<g>
		<g id="qtr_3_">
			<path class="st1" d="M373.3,300H640v180H373.3V300z"/>
			<path class="st0" d="M532.8,411.7c1.7-2.9,1.6-9.1-1.8-11.4c-2.7-1.4-5.5-0.8-6.9,0.4c-2.2,1.6-4.4,6.4-4.4,11.3h7.7v9.7h-16
				c0.2,4.9,2.7,9,7.1,11.2c-0.5,2-3.3,6.4-7,6.1c-0.7,4.6-1.4,7.1-4.8,11.2c-3.3-4.1-4.1-6.6-4.8-11.2c-3.7,0.2-6.4-4-7-6.1
				c4.5-2.2,6.9-6.2,7.1-11.2h-16V412h7.7c0-4.9-2.1-9.7-4.4-11.3c-1.4-1.3-4.4-1.8-6.9-0.4c-3.4,2.2-3.6,8.5-1.8,11.4
				c-16.2-3.4-14.6-21-9.1-27.4c4.5-5.2,9.3-6,13.1-4.3c8.5,3.5,14.3,14.9,14.5,32h4.5c0-15.6-2.5-20.5-8.6-40.1
				c-3.2-9.2-1.3-20.6,4.4-31.1c2-3.7,4.6-7.2,7.5-10.8c2.9,3.6,5.4,7.1,7.5,10.8c5.7,10.6,7.6,22,4.4,31.1
				c-6.3,19.6-8.6,24.5-8.6,40.1h4.5c0.3-17,6-28.6,14.5-32c3.7-1.7,8.6-0.8,13.1,4.3c5.5,6.4,7.1,24-9.1,27.4H532.8z"/>
		</g>
	</g>
</g>
</svg>
