<svg xmlns="http://www.w3.org/2000/svg" height="480" width="640" viewBox="0 0 640 480"><defs><style>.a{fill:#4fc5e6;}.b{fill:#001e7a;}.c{fill:#218410;}.d{fill:#f8d828;}</style></defs><title>Caribbean Community</title><path class="a" d="M158.12,242.08c-.64-23.52,2.77-47.31,11.84-69.14,12.59-31.84,36.66-58.1,64.71-77.21,41.05-27.09,93.51-32.78,140.87-22.1,41.17,9.67,77,36.43,100.89,70.93,19.27,28.5,28.16,63.29,26.88,97.53,0,0,0,.08,0,.12,58.15,0,107,0,136.69.05V0H0V242.26c30.8,0,88.71-.05,158.12-.06C158.12,242.16,158.12,242.12,158.12,242.08Z"/><path class="b" d="M503.31,242.2a162.07,162.07,0,0,1-38.63,102c-22.4,26.35-52.46,46.7-85.92,55.82C334,410.06,284.15,407.75,244,383.7c-50.21-28.42-85.57-83.2-85.89-141.51-69.41,0-127.33,0-158.12.06V480H640V242.25C610.32,242.23,561.46,242.21,503.31,242.2Z"/><path class="c" d="M476.43,144.55c-23.89-34.49-59.73-61.26-100.89-70.93-47.36-10.67-99.82-5-140.87,22.1-28,19.11-52.11,45.37-64.71,77.21-9.07,21.83-12.48,45.62-11.84,69.14,0,0,0,.08,0,.12.32,58.31,35.69,113.09,85.89,141.51,40.14,24,90,26.35,134.74,16.27,33.46-9.12,63.52-29.46,85.92-55.82a162.07,162.07,0,0,0,38.63-102s0-.08,0-.12C504.59,207.84,495.7,173.05,476.43,144.55ZM430.65,358.24c-35.36,28.25-83.15,39.77-127.61,32a158.29,158.29,0,0,1-72.18-31.89c-36.53-28.5-58.72-74.19-59.31-120.43-.71-25.35,6.86-50.19,17.94-72.75,21.81-42,64-72.07,110.29-81,31-4,63.73-3.52,92.78,9.28,40.69,16.82,74.74,50.79,88.39,93C504,246.61,481,319.15,430.65,358.24Z"/><path class="d" d="M480.93,186.47c-13.65-42.24-47.7-76.21-88.39-93-29.05-12.8-61.81-13.33-92.78-9.28-46.24,8.89-88.48,39-110.29,81-11.09,22.56-18.65,47.41-17.94,72.75.59,46.24,22.79,91.93,59.31,120.43A158.29,158.29,0,0,0,303,390.19c44.46,7.82,92.25-3.7,127.61-32C481,319.15,504,246.61,480.93,186.47ZM442.07,326.29c-2.65,6.17-9,10.15-15.57,10.95-26.51,3.54-53.26.09-79.89.78-11-.18-22.54,1.12-33-3.13-6.77-2.88-9.94-10.47-11-17.33-1.83-13.14-1-26.47-1.05-39.7-16.89-.57-34.38,2.19-50.72-3.29-9.05-3.66-10.74-14.61-11.75-23.15-1.17-20.53-.27-41.12-.57-61.67.16-13.81-1-28.53,5.17-41.33,5.67-8,16.43-8.85,25.35-9.35,28.21-.07,56.41-.32,84.62.59,9.28.27,19.63,2.79,25.71,10.35,4.34,9.14,3.41,19.7,3.63,29.58-10.42.07-20.82-.16-31.25-.18-.41-4.78-.85-9.58-1.26-14.35-20.3-.39-40.62-.94-60.94-.75-6.4.21-13.14-1-19.2,1.69,1,28.14.21,56.32.48,84.46,10.22.16,20.46.34,30.7.43.23-13.55-1.1-27.73,4-40.64,3.73-8,13.62-9.53,21.53-10.1,27.86-.75,55.73.09,83.61-.14,10.15.32,22.06.27,29.53,8.32,6.17,9.1,5.1,20.78,5.62,31.27-10.79,0-21.55,0-32.34-.21.07-4.8.14-9.62.23-14.42q-39.94-.27-79.89-.23c0,8.71.09,17.42.14,26.13,5.6,0,11.2,0,16.8-.07-.09-5.33-.62-10.88,1.85-15.79,10.15-.14,20.27.09,30.38.8-.5,12.23,2.17,27.63-8.5,36.46-11.93,8-27.09,5.23-40.59,5.6q-.48,16.29,0,32.59c26.45,1.71,52.94.73,79.41,1q.14-7.85.25-15.66c10.47-.3,21-.21,31.43.09C445.59,306,446.1,316.69,442.07,326.29Z"/><path d="M413.64,295.77q-.1,7.82-.25,15.66c-26.47-.25-53,.73-79.41-1q-.55-16.29,0-32.59c13.51-.37,28.66,2.4,40.59-5.6,10.67-8.82,8-24.23,8.5-36.46-10.1-.71-20.23-.94-30.38-.8-2.47,4.91-1.94,10.47-1.85,15.79-5.6.07-11.2.07-16.8.07,0-8.71-.16-17.42-.14-26.13q39.94-.1,79.89.23c-.09,4.8-.16,9.62-.23,14.42,10.79.23,21.55.23,32.34.21-.53-10.49.55-22.17-5.62-31.27-7.47-8-19.38-8-29.53-8.32-27.89.23-55.75-.62-83.61.14-7.91.57-17.81,2.08-21.53,10.1-5.1,12.91-3.77,27.09-4,40.64-10.24-.09-20.48-.27-30.7-.43-.27-28.14.53-56.32-.48-84.46,6.06-2.65,12.8-1.49,19.2-1.69,20.32-.18,40.64.37,60.94.75.41,4.78.85,9.58,1.26,14.35,10.42,0,20.82.25,31.25.18-.23-9.87.71-20.43-3.63-29.58-6.08-7.57-16.43-10.08-25.71-10.35-28.21-.91-56.41-.66-84.62-.59-8.91.5-19.68,1.39-25.35,9.35-6.13,12.8-5,27.52-5.17,41.33.3,20.55-.59,41.14.57,61.67,1,8.55,2.7,19.5,11.75,23.15,16.34,5.49,33.83,2.72,50.72,3.29,0,13.23-.78,26.56,1.05,39.7,1,6.86,4.21,14.45,11,17.33,10.47,4.25,22,2.95,33,3.13,26.63-.69,53.37,2.77,79.89-.78,6.56-.8,12.91-4.78,15.57-10.95,4-9.6,3.52-20.25,3-30.42C434.6,295.57,424.11,295.47,413.64,295.77Z"/></svg>