<svg xmlns="http://www.w3.org/2000/svg" height="480" width="640" viewBox="0 0 640 480"><defs><style>.a{fill:#0073cf;}.b{fill:#fecb00;}.c{fill:#fff;}</style></defs><title>Commonweath of Independent states</title><path class="a" d="M0,0V480H640V0ZM234.75,426H216V267.91c-23.59-2.47-103.45-55-103.45-72.45,0-4.91,5.38-13.12,13.09-13.66h0c4.32-.3,9.37,1.82,14.63,8.28,17.31,21.24,76.09,63.76,94.46,71.81Zm22.19,0H240.77V260.69c-13.42-3-73.8-44.49-101.3-78.39-9.69-12-9.44-17-9.44-20.54,0-10.91,7.24-16.76,15-17.15a17.16,17.16,0,0,1,16.55,10.46c19.55,43.26,64.28,87.07,95.36,100.81Zm22.16,0H263V254.67C209.65,235,157.71,156.2,157.71,126.25c0-16.14,9.62-26.48,23.74-27.08h.34c6.49,0,22.49,1.57,22.49,20.09,0,7.34-1,6.4-1,18,0,8.56.17,24.92,11,48.19,11.45,24.54,35.5,45.66,64.81,62Zm22.19,0H285.12V246.25C158.25,181.91,212.61,55,265.4,54H266a28.9,28.9,0,0,1,28.89,28.89c0,15.95-11.64,23.74-23.47,31.3C252.12,126.56,242,153.34,242,169.58c0,38.83,45.93,68.47,59.32,72.86ZM316,139.23a31.3,31.3,0,0,1,31.31,31.28v0A31.3,31.3,0,1,1,316,139.23ZM324.69,426H307.31V243h17.38Zm22.19,0H330.71V242.45c13.4-4.39,59.32-34,59.32-72.86,0-16.24-10.15-43-29.49-55.37-11.84-7.56-23.47-15.35-23.47-31.3A28.91,28.91,0,0,1,365,54H366c53,0,108.29,127.63-19.07,192.22ZM369,426H352.9V247.45c29.31-16.37,53.37-37.49,64.81-62,10.85-23.26,11-39.63,11-48.19,0-11.58-1-10.64-1-18,0-17.5,14.32-19.88,21.37-20.09.41,0,.77,0,1.13,0,14.3.46,24.07,10.82,24.07,27.08C474.29,156.2,422.35,235,369,254.67Zm22.19,0H375.06V255.88c31.08-13.74,75.81-57.56,95.36-100.81a17.23,17.23,0,0,1,14.9-10.46c8.36-.41,16.66,5.47,16.66,17.15,0,3.59.25,8.59-9.44,20.54-27.5,33.9-87.88,75.41-101.3,78.39ZM416,267.91V426H397.25V261.9c18.36-8,77.15-50.57,94.46-71.81,4.63-5.68,9.1-8,13.05-8.28h0c8.55-.58,14.67,8.42,14.67,13.66C519.43,212.89,439.58,265.45,416,267.91Z"/><path class="b" d="M284.7,170.54a31.3,31.3,0,0,0,62.59,0v0a31.3,31.3,0,0,0-62.59,0Z"/><path class="c" d="M366,54H365a28.91,28.91,0,0,0-27.95,28.89c0,15.95,11.64,23.74,23.47,31.3C379.88,126.56,390,153.34,390,169.58c0,38.83-45.93,68.47-59.32,72.86V426h16.18V246.25C474.25,181.66,418.94,54,366,54Z"/><path class="c" d="M474.29,126.25c0-16.26-9.78-26.63-24.07-27.08-.35,0-.72,0-1.13,0-7,.21-21.37,2.58-21.37,20.09,0,7.34,1,6.4,1,18,0,8.56-.17,24.92-11,48.19-11.45,24.54-35.5,45.66-64.81,62V426H369V254.67C422.35,235,474.29,156.2,474.29,126.25Z"/><path class="c" d="M492.54,182.3c9.69-12,9.44-17,9.44-20.54,0-11.69-8.3-17.57-16.66-17.15a17.23,17.23,0,0,0-14.9,10.46c-19.55,43.26-64.28,87.07-95.36,100.81V426h16.18V260.69C404.66,257.71,465,216.2,492.54,182.3Z"/><polygon class="c" points="504.76 181.81 504.76 181.81 504.76 181.81 504.76 181.81"/><path class="c" d="M140.29,190.08c-5.26-6.45-10.31-8.58-14.63-8.28h0c-7.71.54-13.09,8.75-13.09,13.66,0,17.42,79.85,70,103.45,72.45V426h18.73V261.9C216.38,253.85,157.6,211.32,140.29,190.08Z"/><path class="c" d="M504.76,181.81c-4,.27-8.42,2.59-13.05,8.28-17.31,21.24-76.09,63.76-94.46,71.81V426H416V267.91c23.59-2.47,103.45-55,103.45-72.45C519.43,190.22,513.31,181.23,504.76,181.81Z"/><path class="c" d="M161.58,155.06A17.16,17.16,0,0,0,145,144.61c-7.77.39-15,6.25-15,17.15,0,3.59-.25,8.59,9.44,20.54,27.5,33.9,87.88,75.41,101.3,78.39V426h16.18V255.88C225.86,242.14,181.13,198.32,161.58,155.06Z"/><path class="c" d="M214.28,185.42c-10.85-23.26-11-39.63-11-48.19,0-11.58,1-10.64,1-18,0-18.52-16-20.09-22.49-20.09h-.34c-14.11.61-23.74,10.95-23.74,27.08C157.71,156.2,209.65,235,263,254.67V426H279.1V247.45C249.79,231.08,225.73,210,214.28,185.42Z"/><polygon class="c" points="307.31 243.01 307.31 425.98 316 425.98 324.69 425.98 324.69 243.01 316 243.01 307.31 243.01"/><path class="c" d="M242,169.58c0-16.24,10.15-43,29.49-55.37,11.84-7.56,23.47-15.35,23.47-31.3A28.9,28.9,0,0,0,266,54h-.64c-52.8,1-107.15,127.89,19.71,192.22V426h16.18V242.45C287.9,238.05,242,208.41,242,169.58Z"/></svg>