<svg xmlns="http://www.w3.org/2000/svg" height="480" width="640" viewBox="0 0 640 480"><defs><style>.a{fill:#039;}.b{fill:#fc0;}</style></defs><title>Council of Europe</title><path class="a" d="M0,0V480H640V0ZM137.87,232h19.37l6-18.43,6,18.43H188.6l-15.67,11.39,6,18.43-15.67-11.39-15.67,11.39,6-18.43Zm62.37,109.81-15.67-11.39-15.67,11.39,6-18.43L159.21,312h19.37l6-18.43,6,18.43h19.37l-15.67,11.39Zm-6-178.43,6,18.43-15.67-11.39-15.67,11.39,6-18.43L159.21,152h19.37l6-18.43,6,18.43h19.37Zm64.65,237.09-15.67-11.39-15.67,11.39,6-18.43-15.67-11.39h19.37l6-18.43,6,18.43H268.6l-15.67,11.39Zm-6-295.32,6,18.43L243.24,112.2l-15.67,11.39,6-18.43L217.87,93.78h19.37l6-18.43,6,18.43H268.6Zm86,317.09-15.67-11.39-15.67,11.39,6-18.43-15.67-11.39h19.37l6-18.43,6,18.43H348.6l-15.67,11.39ZM333,83.92l6,18.43L323.3,91l-15.67,11.39,6-18.43L297.93,72.54h19.37l6-18.43,6,18.43h19.37Zm63.82,9.41,6-18.43,6,18.43h19.37l-15.67,11.39,6,18.43-15.67-11.39-15.67,11.39,6-18.43L377.43,93.33ZM418.91,400l-15.67-11.39L387.56,400l6-18.43-15.67-11.39h19.37l6-18.43,6,18.43H428.6l-15.67,11.39Zm36.56-248,6-18.43,6,18.43h19.37l-15.67,11.39,6,18.43-15.67-11.39-15.67,11.39,6-18.43L436.1,152Zm22.11,189.81L461.9,330.43l-15.67,11.39,6-18.43L436.54,312h19.37l6-18.43,6,18.43h19.37l-15.67,11.39Zm21.33-79.56-15.67-11.39-15.67,11.39,6-18.43-15.67-11.39h19.37l6-18.43,6,18.43H508.6l-15.67,11.39Z"/><polygon class="b" points="323.3 54.11 317.31 72.54 297.94 72.54 313.61 83.92 307.62 102.35 323.3 90.96 338.97 102.35 332.98 83.92 348.66 72.54 329.28 72.54 323.3 54.11"/><polygon class="b" points="387.12 123.15 402.79 111.76 418.46 123.15 412.48 104.72 428.15 93.33 408.78 93.33 402.79 74.91 396.8 93.33 377.43 93.33 393.1 104.72 387.12 123.15"/><polygon class="b" points="445.78 181.81 461.46 170.43 477.13 181.81 471.14 163.39 486.82 152 467.44 152 461.46 133.57 455.47 152 436.1 152 451.77 163.39 445.78 181.81"/><polygon class="b" points="489.22 232.44 483.24 214.02 477.25 232.44 457.87 232.44 473.55 243.83 467.56 262.26 483.24 250.87 498.91 262.26 492.92 243.83 508.6 232.44 489.22 232.44"/><polygon class="b" points="467.89 312 461.9 293.57 455.92 312 436.54 312 452.21 323.39 446.23 341.81 461.9 330.43 477.58 341.81 471.59 323.39 487.26 312 467.89 312"/><polygon class="b" points="409.22 370.22 403.24 351.8 397.25 370.22 377.87 370.22 393.55 381.61 387.56 400.04 403.24 388.65 418.91 400.04 412.92 381.61 428.6 370.22 409.22 370.22"/><polygon class="b" points="329.22 392.44 323.24 374.02 317.25 392.44 297.87 392.44 313.55 403.83 307.56 422.26 323.24 410.87 338.91 422.26 332.92 403.83 348.6 392.44 329.22 392.44"/><polygon class="b" points="249.22 370.67 243.24 352.24 237.25 370.67 217.87 370.67 233.55 382.06 227.56 400.48 243.24 389.09 258.91 400.48 252.92 382.06 268.6 370.67 249.22 370.67"/><polygon class="b" points="190.56 312 184.57 293.57 178.58 312 159.21 312 174.88 323.39 168.89 341.81 184.57 330.43 200.24 341.81 194.26 323.39 209.93 312 190.56 312"/><polygon class="b" points="163.24 250.43 178.91 261.81 172.92 243.39 188.6 232 169.22 232 163.24 213.57 157.25 232 137.87 232 153.55 243.39 147.56 261.81 163.24 250.43"/><polygon class="b" points="184.57 133.57 178.58 152 159.21 152 174.88 163.39 168.89 181.81 184.57 170.43 200.24 181.81 194.26 163.39 209.93 152 190.56 152 184.57 133.57"/><polygon class="b" points="243.24 75.35 237.25 93.78 217.87 93.78 233.55 105.17 227.56 123.59 243.24 112.2 258.91 123.59 252.92 105.17 268.6 93.78 249.22 93.78 243.24 75.35"/></svg>