<svg xmlns="http://www.w3.org/2000/svg" height="480" width="640" viewBox="0 0 640 480"><defs><style>.a{fill:#de0000;}.b{fill:#fff;}</style></defs><title>Council for Mutual Economic Assistance</title><path class="a" d="M0,0V480H640V0ZM457,302.34a90.77,90.77,0,0,1-54.88.46l-13.74,42.29H344a43.37,43.37,0,1,0,68.24-37A93.63,93.63,0,0,0,457.9,305,95.34,95.34,0,0,0,468,301a91.25,91.25,0,1,1-172,44.07H251.59l-13.74-42.28a43.36,43.36,0,1,0,56.26,53.48,93.59,93.59,0,0,0,17.09,42.49,94.62,94.62,0,0,0,6.9,8.4A91.25,91.25,0,1,1,223,257.24L209.3,215l36-26.13a43.36,43.36,0,1,0-33.48,70,93.6,93.6,0,0,0-35.13,29.39,95,95,0,0,0-5.86,9.15A91.25,91.25,0,1,1,284,160.67l36-26.14,36,26.12A43.37,43.37,0,1,0,279,150.46a93.6,93.6,0,0,0-38.8-24.32,94.94,94.94,0,0,0-10.51-2.74,91.25,91.25,0,1,1,165,65.43l36,26.14L417,257.24a43.37,43.37,0,1,0-14.08-76.33,93.68,93.68,0,0,0,10.5-55.27A91.25,91.25,0,0,1,457,302.34Z"/><path class="b" d="M413.38,125.63a93.68,93.68,0,0,1-10.5,55.27A43.31,43.31,0,1,1,417,257.24L430.7,215l-36-26.14a91.24,91.24,0,1,0-165-65.43,94.94,94.94,0,0,1,10.51,2.74A93.6,93.6,0,0,1,279,150.46,43.32,43.32,0,1,1,356,160.66l-36-26.12-36,26.14A91.24,91.24,0,1,0,170.8,297.4a95,95,0,0,1,5.86-9.15,93.6,93.6,0,0,1,35.13-29.39,43.32,43.32,0,1,1,33.48-70L209.3,215,223,257.24A91.24,91.24,0,1,0,318.1,407.18a94.62,94.62,0,0,1-6.9-8.4,93.59,93.59,0,0,1-17.09-42.49,43.32,43.32,0,1,1-56.26-53.48l13.74,42.28h44.46A91.24,91.24,0,1,0,468,301a95.34,95.34,0,0,1-10.12,4,93.63,93.63,0,0,1-45.7,3.13,43.31,43.31,0,1,1-68.24,37h44.46l13.74-42.29a91.24,91.24,0,1,0,11.23-177.17ZM359.85,263.87l24.63,75.79L320,292.82l-64.47,46.84,24.63-75.79L215.68,217h79.69L320,141.24,344.63,217h79.69Z"/><polygon class="a" points="344.63 217.03 320 141.24 295.37 217.03 215.68 217.03 280.15 263.87 255.53 339.66 320 292.82 384.47 339.66 359.85 263.87 424.32 217.03 344.63 217.03"/></svg>