<svg xmlns="http://www.w3.org/2000/svg" height="480" width="640" viewBox="0 0 640 480"><defs><style>.a,.q{fill:none;}.b,.g,.o,.p,.u,.v{fill:#fff;}.c,.t{fill:#0087ff;}.d{fill:red;}.e,.n{fill:#ff0;}.f,.r{fill:#008300;}.g,.n,.o,.p,.q,.r,.s,.t,.u,.v{stroke:#000;}.g{stroke-width:2.5px;}.h,.i{isolation:isolate;}.i{font-size:9.1px;font-family:TimesNewRomanPS-BoldMT, Times New Roman;font-weight:700;}.j{letter-spacing:-0.09em;}.k{letter-spacing:-0.06em;}.l{letter-spacing:-0.04em;}.m{letter-spacing:-0.06em;}.n{stroke-width:1.5px;}.o{stroke-width:1.06px;}.r{stroke-width:0.52px;}.s{fill:#fbf014;stroke-width:0.47px;}.t,.u{stroke-width:3.03px;}.v{stroke-width:0.29px;}</style></defs><title>East African Community</title><rect class="a" y="273.6" width="640"/><rect class="b" y="326.4" width="640" height="21.6"/><rect class="b" y="132" width="640" height="21.6"/><rect class="c" y="348" width="640" height="132"/><rect class="c" width="640" height="132"/><rect class="d" y="290.4" width="640" height="36"/><rect y="153.6" width="640" height="36"/><rect class="e" y="206.4" width="640" height="67.2"/><rect class="f" y="273.6" width="640" height="16.8"/><rect class="f" y="189.6" width="640" height="16.8"/><path class="g" d="M320.37,154.45a68.4,68.4,0,0,0-48.46,116.69l-29.3,9.36,2.69,6.73-9.44,2,6.75,21.91H398.13l6.73-21.91-9.44-2,2.71-6.73-29.32-9.36a68.4,68.4,0,0,0-48.44-116.69Z"/><path class="f" d="M244.17,289.65l5.94,19.28H390.64l5.92-19.28Z"/><path class="b" d="M247.88,292.13l4.4,14.31H388.45l4.4-14.31h-145Z"/><g class="h"><text class="i" transform="translate(251.87 302.3) scale(0.89 1)">JUMUI<tspan class="j" x="29.83" y="0">Y</tspan><tspan class="k" x="35.57" y="0">A</tspan><tspan class="l" x="41.64" y="0"> </tspan><tspan class="j" x="43.58" y="0">Y</tspan><tspan class="m" x="49.32" y="0">A </tspan><tspan x="57.16" y="0">AFRIK</tspan><tspan class="m" x="86.49" y="0">A</tspan><tspan x="92.56" y="0" xml:space="preserve"> MASHARIKI</tspan></text></g><path class="f" d="M244.17,289.66l8.89-2.38-2.81-4.87,15.33-5.74v5.21h4.74v8H244.53Z"/><path class="b" d="M268.08,289.78H249.43l18.65-5Z"/><path class="b" d="M264,282h-8.46L264,278.7Z"/><path class="b" d="M253,283.4l1.91,3.37,12.41-3.37Z"/><path class="f" d="M396.56,289.66l-8.89-2.38,2.81-4.87-15.33-5.74v5.21h-4.74v8H396.2Z"/><path class="b" d="M372.65,289.78H391.3l-18.65-5Z"/><path class="b" d="M376.7,282h8.46l-8.46-3.28Z"/><path class="b" d="M387.72,283.4l-1.91,3.37L373.4,283.4Z"/><path class="n" d="M318.82,162.58a60.54,60.54,0,0,0-20.37,116.95v-6.69A54.35,54.35,0,0,1,320,168.76h.36a54.35,54.35,0,0,1,21.91,104.08v6.69a60.53,60.53,0,0,0-21.91-116.95h-1.55Z"/><path class="o" d="M337.05,266.85l.09,9c-5.46.81-11.56,6.54-13.17,7.61s-4.36,3.19-5.79,3c-2.42-.3-.63-2.25-.63-2.25s-1.67,2-3,1.08.69-2.34.69-2.34a1.72,1.72,0,0,1-1.87.5c-1.18-.32-.33-1.79-.33-1.79s-3.31,1.74-3.8,1.17a1.51,1.51,0,0,1,.24-2.15l7.64-6.45h0c4.26-1.59,5.38.63,7.35.54s7.26-3,8.69-4.39,1.08-3,2.15-3.31S337,266.76,337.05,266.85Z"/><path class="p" d="M303.65,267.42l-.08,8.42c5.14.76,10.87,6.15,12.38,7.16s4,2.61,5.39,2.44c2.27-.28,1.82-1.11,1.82-1.11a3.12,3.12,0,0,0,2.34,0c1.34-.5.68-1.45.68-1.45s2,.58,2.91-.48-.77-2.1-.77-2.1.75-.52-.6.24-4.11-2.43-6.89-2.52-3,2.7-4.8,1.35,1.46-3.52,2.53-3.88c4.4-1.44,8.45.34,3.14-1.66-2.72-1.08-4.82.89-6.67.8s-6.41-2.6-7.75-3.95-1-2.78-2-3.12S303.73,267.34,303.65,267.42Z"/><path class="q" d="M326.27,282.87l-3.63-1.58"/><path class="q" d="M323.53,284.54l-4.29-2.65"/><path class="r" d="M296.58,263.07c-10.55,5.15-11-8.31-15.92-8.2C289.66,248.92,288.24,260,296.58,263.07Z"/><path class="r" d="M292.44,248.26c-5.39,9.72,7.06,11,6.68,15.63C305.16,255.7,294.8,256.38,292.44,248.26Z"/><path class="r" d="M287.28,252c-13,2.28-9.48-9-14.86-10C283.91,238.55,279,247.28,287.28,252Z"/><path class="r" d="M286,238.57c-7.16,8.49,3.17,8.9,1.9,13.37C295.38,245.07,287.69,245.35,286,238.57Z"/><path class="r" d="M278.42,240.15c-13-1.9-4.79-15.13-8.71-18C280.47,222.92,273.53,234.58,278.42,240.15Z"/><path class="r" d="M283.4,223.46c-12,5.69.15,11.72-4.61,17.1C290.53,239.9,280.13,232.13,283.4,223.46Z"/><path class="r" d="M276.73,223.88c-13.94-6.47.64-18.32-1.86-22.74C284.39,210.72,269.92,214.43,276.73,223.88Z"/><path class="r" d="M285.68,207.76c-12,1.52-6,12.56-8.47,16.46C286.54,222.08,279,216.46,285.68,207.76Z"/><path class="r" d="M279.88,204.41c-6.86-10.29,4.41-12.64,5.24-17.88C288.4,200.11,280.71,195.64,279.88,204.41Z"/><path class="r" d="M293.41,195.84c-11.19-3.17-9.23,8-13,10.68C289.88,208.1,288,199,293.41,195.84Z"/><path class="r" d="M288.21,191c-2.21-8.93,2.24-7.43,7.31-11.32C298.27,186.86,291.46,186,288.21,191Z"/><path class="r" d="M302.43,189.68c-8.64-6.33-9.54,2.2-14,3.35C296.68,197.9,297,190.71,302.43,189.68Z"/><path class="r" d="M297.27,185.39c.28-3.83,5.37-9,10.74-7.16C307.68,184.57,301.54,186.28,297.27,185.39Z"/><path class="r" d="M344.14,263.07c10.55,5.15,11-8.31,15.92-8.2C351.07,248.92,352.49,260,344.14,263.07Z"/><path class="r" d="M348.28,248.26c5.39,9.72-7.06,11-6.68,15.63C335.57,255.7,345.93,256.38,348.28,248.26Z"/><path class="r" d="M353.44,252c13,2.28,9.48-9,14.86-10C356.82,238.55,361.77,247.28,353.44,252Z"/><path class="r" d="M354.76,238.57c7.16,8.49-3.17,8.9-1.9,13.37C345.35,245.07,353,245.35,354.76,238.57Z"/><path class="r" d="M362.31,240.15c13-1.9,4.79-15.13,8.71-18C360.26,222.92,367.19,234.58,362.31,240.15Z"/><path class="r" d="M357.33,223.46c12,5.69-.15,11.72,4.61,17.1C350.2,239.9,360.6,232.13,357.33,223.46Z"/><path class="r" d="M364,223.88c13.94-6.47-.64-18.32,1.86-22.74C356.34,210.72,370.81,214.43,364,223.88Z"/><path class="r" d="M355,207.76c12,1.52,6,12.56,8.47,16.46C354.19,222.08,361.75,216.46,355,207.76Z"/><path class="r" d="M360.85,204.41c6.86-10.29-4.41-12.64-5.24-17.88C352.33,200.11,360,195.64,360.85,204.41Z"/><path class="r" d="M347.32,195.84c11.19-3.17,9.23,8,13,10.68C350.84,208.1,352.76,199,347.32,195.84Z"/><path class="r" d="M352.52,191c2.21-8.93-2.24-7.43-7.31-11.32C342.46,186.86,349.27,186,352.52,191Z"/><path class="r" d="M338.3,189.68c8.64-6.33,9.54,2.2,14,3.35C344.05,197.9,343.72,190.71,338.3,189.68Z"/><path class="r" d="M343.46,185.39c-.28-3.83-5.37-9-10.74-7.16C333,184.57,339.19,186.28,343.46,185.39Z"/><path class="a" d="M307.65,182.3a49,49,0,0,1,25.19.17"/><path d="M309.81,174.29l.51,3L312,177a1.36,1.36,0,0,0,.82-.34,1.26,1.26,0,0,0,.17-1l.2,0,.45,2.61-.2,0a2.89,2.89,0,0,0-.27-.68.7.7,0,0,0-.38-.25,1.69,1.69,0,0,0-.72,0l-1.65.28.42,2.47a2.37,2.37,0,0,0,.15.6.37.37,0,0,0,.18.14,1,1,0,0,0,.43,0l1.27-.22a3.49,3.49,0,0,0,.91-.25,1.4,1.4,0,0,0,.49-.44,4.32,4.32,0,0,0,.53-1.15l.22,0-.33,2-5.78,1,0-.2.27,0a1.07,1.07,0,0,0,.48-.21.46.46,0,0,0,.19-.31,2.53,2.53,0,0,0-.06-.74l-.83-4.87a1.64,1.64,0,0,0-.29-.85.87.87,0,0,0-.7-.11l-.27,0,0-.2,5.78-1,.36,1.63-.22,0a2.57,2.57,0,0,0-.4-.77.88.88,0,0,0-.47-.27,2.54,2.54,0,0,0-.79.05l-2.06.35m11,3.62-2.94,0-.51,1.2a1.9,1.9,0,0,0-.19.66.39.39,0,0,0,.16.31,1.49,1.49,0,0,0,.72.16v.21h-2.39v-.21a1.29,1.29,0,0,0,.62-.22,3.44,3.44,0,0,0,.63-1.1l2.64-6.27h.2l2.68,6.31a3,3,0,0,0,.58,1,1.21,1.21,0,0,0,.73.25v.21l-3,0v-.21a1.11,1.11,0,0,0,.61-.15.39.39,0,0,0,.16-.31,2.33,2.33,0,0,0-.23-.78l-.47-1.09m-.16-.41-1.31-3.07-1.31,3.08h2.61M332,174l-.27,2.58-.17,0a3.25,3.25,0,0,0-.7-1.82,2.42,2.42,0,0,0-1.44-.77,2.51,2.51,0,0,0-1.41.15,2.54,2.54,0,0,0-1.16,1,5.5,5.5,0,0,0-.7,2,4.44,4.44,0,0,0,0,1.82,2.48,2.48,0,0,0,.78,1.31,2.88,2.88,0,0,0,1.43.66,2.65,2.65,0,0,0,1.34-.09,4.35,4.35,0,0,0,1.44-1l.15.14a4,4,0,0,1-1.57,1.24,3.38,3.38,0,0,1-1.87.16,3.43,3.43,0,0,1-2.65-1.88,4,4,0,0,1-.35-2.55,4.36,4.36,0,0,1,.86-2,3.68,3.68,0,0,1,1.63-1.22,3.8,3.8,0,0,1,2-.19,3.58,3.58,0,0,1,1.53.67.88.88,0,0,0,.31.18.37.37,0,0,0,.28-.06.87.87,0,0,0,.28-.38l.19,0"/><path class="d" d="M318.38,188c-.84.06-1.69.2-2.5.3a11.17,11.17,0,0,1-6,5l-.57.2c-3.13,1.14-6.22,1.16-8.26.24a35.52,35.52,0,0,0-6.52,5.51s0,0,0,0a11.25,11.25,0,0,1-1.37,7.62l-.28.5c-1.67,2.9-4.06,4.92-6.22,5.51h0a34.88,34.88,0,0,0-1.47,8.58,11.21,11.21,0,0,1,3.84,6.73c0,.19.09.37.12.57.58,3.28.05,6.35-1.21,8.2a34.94,34.94,0,0,0,4.28,7.41h0a11.28,11.28,0,0,1,7.19,2.67c.15.12.29.26.44.38,2.55,2.14,4.12,4.82,4.34,7a35,35,0,0,0,8.24,3,11.18,11.18,0,0,1,7.31-2.65h.59c3.36,0,6.3,1.06,7.9,2.65a35,35,0,0,0,8.24-3,11.26,11.26,0,0,1,3.9-6.69l.44-.38c2.53-2.12,5.41-3.19,7.64-3.05h0a35.18,35.18,0,0,0,4.22-7.27,11.27,11.27,0,0,1-1.27-7.57c0-.19.07-.37.1-.57.58-3.31,2.14-6,4-7.33a35.11,35.11,0,0,0-1.45-8.58,11.21,11.21,0,0,1-5.9-5c-.1-.16-.18-.35-.28-.53-1.68-2.91-2.23-6-1.66-8.16a35.41,35.41,0,0,0-6.81-5.76,11.19,11.19,0,0,1-7.78,0l-.55-.2c-3.13-1.14-5.53-3.11-6.5-5.13a35.5,35.5,0,0,0-4.24-.26h-2Zm-2.67.3s0,0,0,0h0v0Zm9.45,69.77v0h0v0Z"/><path class="s" d="M350.43,223.08A30.07,30.07,0,1,1,320.36,193,30.08,30.08,0,0,1,350.43,223.08Z"/><path class="s" d="M347.91,223.08a27.55,27.55,0,1,1-27.55-27.55A27.56,27.56,0,0,1,347.91,223.08Z"/><path class="t" d="M312.13,209.51l9.11,1.62L320,220.24l-7.7,5.27-4.25-4.66.2-7.49Z"/><path class="u" d="M309.59,216.23l-3.55.12-.24,0-.12,0-.05.19-.09.05-.07.24-.28.14,0,.16-.26.17-.33.21-.16-.05-.07-.33-.1,0-.37.07-.26.07,0-.44-.1-.12v-.8h.17l.05-.78.09-.19,0-.16.28-.24.19-.14.1-.21,0-.26.1-.1-.14-.12-.19.1-.24-.16,0-.33.05-.17.19-.12.09.05.12-.71.3-.19-.14-.44.1-.26-.05-.33.75-.28.07-.3.07-.33.31-.09L306,210l.16.44,0,.23.21,0,.12-.3.19-.09.07-.26.49-.59.09-.17.4-.17L308,209l.26-.28.12-.17,0-.21.12.05.19-.23-.14-.21.09-.16-.1-.42-.12-.12,0-.12-.19.28-.21-.09,0-.26-.23.05-.21,0-.24-.33-.14.07V207l-.14-.09-.1-.28-.24,0,.1-.37.31-.64.05-.31-.37-.31.23-.71.35-.38,0-.35-.23.07.28-.44.63-.31.33,0,.56.35.19-.12.24,0,.35-.26.47.37,0,.21.33,0,.14.21h.19l0-.3.59-.3.94-.09.71-.35.4.28,1,.05,1.38-1.29,4.51,1-.26,7.76-4.6,2.54-.26-.16-.14.1-.07-.07.05-.35-.3.05-.09.4h-.26l-.31-.16,0-.14.26,0,0-.14-.19-.1-.28.05,0-.17.21-.23-.05-.09-.17.19-.21-.09-.17.12.17.24-.24.14,0,.16-.35-.05v.14h.23l-.54.4-.14-.16.05-.14h-.12l-.19.17-.33,0,.05-.1.24-.07-.07-.09-.23,0v-.3l-.09.05,0,.26-.12-.05,0,.16,0,.16,0,.12-.12,0,0-.09-.17.07-.1-.16s-.19,0-.16.12a2.07,2.07,0,0,1,.07.24l-.33-.1-.14-.09v.33l-.21.05-.28-.26.12.28-.31,0-.19.12.16.17.12.14.14.16-.07.14-.12-.07-.21.31h-.16l-.12.26-.12.09.05.14.1,0,0,.16-.12,0-.28.35.05.12.16,0Z"/><path class="u" d="M315.74,216.3l9.82,5.38.14.74-.36.22.11.36.33.06.11.36,3.81,2.73L330,226l.33.14.08-.36.22-.22.44-1-.25-.08.17-.36.22.06.33-.44.06-.39-.28-.19.33.11.28-.83.39-.11.08-.58.19-.19s-.25-.69,0-.94,1.1-.22,1.1-.22l.55-.58v-.22l.33-.25-.33-.58.63.19.52-.19.3,0,.52-.74v-.28l-1.57-2v-10l.94-.91,1.54-2.12-.44-.19-1.57.22-.39-.55h-.19l-.11-.3-.28-.17-2.59,1.13-.11.44-.61.58-.06.28-.14,0-.14-.08-2.67-.63-.11.22-.91,0-3.12-2.26h-2.34l-.47-.19,0-.3h-4.22l-1,1,.25,1,.36.06.19.5h.41l-.08.47-.08.08,0,.52.17.3.28.17,0,.44.52.22.08.58.3.22.08.25-.22.3.36.52-.11.36.17.41v.17l-.08.52-.22.17-.14.33-.17.06.08.61-.47.06-.22.28-.22-.14,0,.58-.25.41h-.28v.25l-.33.11-.11.47v.39l-.36.25-.08.44.11.3.19.11.17-.11-.08.3.3.14.14.36.33-.19-.06-.25H317l.52-.25.14.3.25.22-.08.08-.28-.06-.14.19-.19-.08-.47,0-.06.19.25.17-.22.17-.17-.17-.22.11-.17-.11-.28-.08.06.33h-.25l-.14.47.25.25.25.14-.19.39Z"/><path class="u" d="M330.84,235l.3-.3v-.19l.3,0,.18-.34,0,.46-.16.11,0,.27h-.22l.06.25h-.11V235Z"/><path class="u" d="M329.77,230.14v-.57l-.11-.1.38-.29.06-.34.39-.15-.11.38-.15,0-.05.46.22.28v.25l.19.11.25.34v.27l-.18.14-.35-.43-.33.1Z"/><path class="u" d="M331,227.94l.08-.34.15-.39-.27-.66.3,0,.11.29.2.08,0-.3s.14-.1.09.05a6.34,6.34,0,0,0-.11.7l.15.33-.23.3-.25.25Z"/><path class="u" d="M333.05,241.77l-1.16.91-1.54.61-.38.28-.78,0-.56.2-.38.13-.43.46-.68-.48h-.81l-.28.3-.05.46-.53.25-.33-.08-.2.25L324,245l-.28-.3-.48.08-.66.48-.3-.1-.08-.18L322,245l-.2.13-.38-.08,0-.3-.3-.1-.33-.46-.43.05-.13.23-.3.28-.35-.13-1.29,0L318,244h-.3l-.41-.78,0-.51.15-.13.05-.53-.33-.25.08-.81-.15-.23-.05-.35-.58-.58.05-.25-.78-.56h-.2l-.05.51-.28-.05-.2-.23-.86.18-.35-.43-.38.05-.35-.28-.46,0-.35-.35-.73,0-.18-.51-.48.05-.23-.2-.56.05-.05-.3-.66-.05-.33-.25,0-.46-.51-.23-.46.1-.18-.56-.38-.35-.1-.48-.58-.86v-.3l-.33-.35V233l-.3-.3,0-.33.15,0,0-.28-.43-.3-.18-.33-.61-.58-.28.1h-.28l-.58-.71,0-.35.25-.33h.33l.13-.25-.08-.3-.51-.86.05-.43.2-.15-.13-.51-.53-.48V226l.13-.38v-.18l.48-.23.28-.15.28-.2.05-.25.46-.25,0-.25.48-.43,0-.33.18-.43.58-.25,0-.15.48-.25-.05-.63.1-.2-.23-.13-.2.05-.33-.15-.35.1-.1-.3.33-.38-.18-.15.23-.48.86-.13,0-.63.15-.2-.33-.48.05-.78-.23-.28.05-.23-.48-.3-.33-.58.51-.08.23-.18h3l.13.23,0,.28-.1.1-.1.38-.13.3,0,.15,0,.33-.08.38-.13.13v.3l-.13.13.25.05-.08.35-.1.38.23.08.43-.05-.25.48-.1.38.13.48.35-.3.28.2-.08-.43.13-.35.33.18.13-.15-.2-.3.38-.33.3.43.28.05.18.41.25-.53.1.38.33-.08,0,.41.23.33-.41.2,0,.43.25-.08,0-.33.33-.1-.15-.33-.1-.35.38-.53.28.05.23.35.56,0,.53-.51.66-.2-.13-.46h-.18l-.25.3-.76-.13-.28-.15-.2.13-.23.08-.66-.3v-.25l-.18-.13.28-.1.2.25.2,0,.25-.13.33.3.51-.1v-.25l-.33-.1.05-.2.51,0,.13-.18.43-.13-.25-.35,0-.2.73.2-.33-.35.08-.33.48.28,0-.13-.38-.28.53-.53,9.95,5.42.1.76-.35.23V223l.43-.05,0,.41,3.8,2.56.25.43-.2.23-.18.38-.1.58-.18.3v.51l-.33.33-.25.63v.48l.2.33-.13.51.38.33h.3l.73.86.38.35.18.38-.2.48-.25.08-.23.78,0,.58.28.28-.08.38-.2.51-.15.51.15.56.2.43.18.13v.35l-.15,0,.2.48.35.13.05.71-.15,0,0,.2.35.28.15.78-.18.28.1.15.46.1.18.41.35-.13.56.3.23.35Z"/><path class="v" d="M301.94,220.14c-.19-.33.79-.9.78-1.35,0-.78.39-1.12,1.17-1.51.1,0,.56-.3.68-.22s.23.49.49.24.89-1.06,1.27-.95c-.18.45.27,1,.51,1.34a2.59,2.59,0,0,1,.52,1.6c-.1.6-.5.68-1.09.48s-.83.3-1.41-.13c-.09.54,0,1.13-.8,1.27-.39.07-.75.11-.94-.22a.42.42,0,0,0-.81.1.86.86,0,0,1-.38-.66"/><path class="v" d="M302.32,220.8c.34-.93.92.09,1,.1,1.2.12,1.44-.22,1.54-1.24.66.48.45-.22,1.94.22-.25.1-.89.7-.39.68-.42.94.41,1,.87.86-.29.37.35.52-.25.89-.37.23-.36.1-.45.51,0,.1-.45.05-.52.18s.26.48.22.57a1.55,1.55,0,0,1-.52.57c-.49.31-.56.67-1.08,1a1.53,1.53,0,0,1-.75.18c-.09-.27-.65-1.27-.75-1.6s.06-1-.31-1.38c0-.23.17-.52,0-.78a2.21,2.21,0,0,1-.5-.72"/></svg>