<svg xmlns="http://www.w3.org/2000/svg" height="480" width="640" viewBox="0 0 640 480"><defs><style>.cls-1{fill:#dc241f;}.cls-2{fill:#ffc726;}.cls-3{fill:#fff;}</style></defs><title>East Timor</title><g id="Layer_2" data-name="Layer 2"><g id="East_Timor" data-name="East Timor"><path class="cls-1" d="M640,480V0H0V480Z"/><path class="cls-2" d="M0,0V480L480,240Z"/><path d="M0,0V480L320,240Z"/><g id="t"><path id="o" class="cls-3" d="M82.43,164.87l12.51,83.06,39.55-6Z"/><path id="o-2" data-name="o" class="cls-3" d="M82.43,164.87l58.94,59.85-28.5,28.07Z"/></g><g id="f"><g id="t-2" data-name="t"><path id="o-3" data-name="o" class="cls-3" d="M179.85,181.06l-75.13,37.57L122.6,254.4Z"/><path id="o-4" data-name="o" class="cls-3" d="M179.85,181.06l-38.7,74.55-35.5-18.43Z"/></g></g><g id="t-3" data-name="t"><path id="o-5" data-name="o" class="cls-3" d="M36.94,252.51l82.86,13.77,6.56-39.46Z"/><path id="o-6" data-name="o" class="cls-3" d="M36.94,252.51l75.13-37.57L130,250.72Z"/></g><g id="t-4" data-name="t"><path id="o-7" data-name="o" class="cls-3" d="M194.55,278.7l-58.94-59.85-28.5,28.07Z"/><path id="o-8" data-name="o" class="cls-3" d="M194.55,278.7l-82.86-13.77,6.56-39.46Z"/></g><g id="f-2" data-name="f"><g id="t-5" data-name="t"><path id="o-9" data-name="o" class="cls-3" d="M106.23,322.86l38.7-74.55-35.5-18.43Z"/><path id="o-10" data-name="o" class="cls-3" d="M106.23,322.86,93.72,239.8l39.55-6Z"/></g></g></g></g></svg>
