<svg xmlns="http://www.w3.org/2000/svg" height="480" width="640" viewBox="0 0 640 480"><defs><style>.a{fill:#d00;}.b{fill:#ffce00;}.c,.e,.f,.g,.h,.i,.j,.k,.l{fill:#ffc709;}.c,.d,.e,.f,.h,.i,.j,.k,.l,.m,.o{stroke:#000;}.c,.i{stroke-width:6.25px;}.d,.e,.h,.i,.j,.k,.l{stroke-linejoin:round;}.d{stroke-width:12.5px;}.e,.f{stroke-width:13.75px;}.h{stroke-width:17.72px;}.j,.k,.n{stroke-linecap:round;}.j{stroke-width:5.14px;}.k,.n,.p{stroke-width:5px;}.l{stroke-width:6.29px;}.m{stroke-width:3.12px;}.n,.p,.q{fill:none;stroke:#ffc709;}.o,.q{stroke-width:3.13px;}</style></defs><title>German Democratic</title><rect width="640" height="160"/><rect class="a" y="160" width="640" height="160"/><rect class="b" y="320" width="640" height="160"/><path class="a" d="M413.8,238.56c0,51.83-41.57,93.84-92.85,93.84s-92.85-42-92.85-93.84,41.57-93.84,92.85-93.84S413.8,186.73,413.8,238.56Z"/><path class="c" d="M325.6,352.82,296.88,366.4l-3-2.28,27-12.71Z"/><path class="c" d="M328.64,355.1l-28.73,13.58-3-2.28,27-12.71Z"/><path class="c" d="M331.68,357.36,303,370.94l-3-2.28,27-12.71Z"/><path class="c" d="M334.71,359.64,306,373.22l-3-2.28,27-12.71Z"/><path class="c" d="M337.74,361.91,309,375.49l-3-2.28,27-12.71Z"/><path class="c" d="M316.07,352.8l28.73,13.58,3-2.28-27-12.71Z"/><path class="c" d="M313,355.08l28.73,13.58,3-2.28-27-12.71Z"/><path class="c" d="M309.93,357.37l28.73,13.58,3-2.28-27-12.71Z"/><path class="c" d="M306.89,359.63l28.73,13.58,3-2.28-27-12.71Z"/><path class="c" d="M303.86,361.88l28.73,13.58,3-2.28-27-12.71Z"/><path class="d" d="M322.25,160.46l-40.84,2.19V186.7l40.84,2.19h4.42l34.05-5V165.46l-34.05-5Z"/><rect class="e" x="310.21" y="201.46" width="21.24" height="120.25" rx="3.58" ry="3.58"/><path class="f" d="M368.87,239.94A66.3,66.3,0,0,1,285,249.37l-8.49,12.55a81.45,81.45,0,0,0,103.21-11.35Z"/><path class="f" d="M313.2,186.17l-58.5,108,66.22-85.44,66.23,85.44-58.49-108L320.93,197Z"/><path class="g" d="M322.18,161.6l-28.06,1.35-11.65,4.68v14.12l11.5,4.68,28.21,1.5h4.3l33.11-4.86V166.22l-33.11-4.63Z"/><path class="h" d="M320.82,183h0a9.72,9.72,0,0,1,9.72,9.72v.48a9.72,9.72,0,0,1-9.72,9.72h0a9.72,9.72,0,0,1-9.72-9.72v-.48A9.72,9.72,0,0,1,320.82,183Z"/><path class="i" d="M325,192.75a4.12,4.12,0,1,1-4.12-4.12A4.12,4.12,0,0,1,325,192.75Z"/><path class="g" d="M245.21,338.06,208.45,297,194,245.39l5.14-47.62,23.52-45.65L259,124.06l21.74-8.1,6.13,8.89L297.59,128l-6.13,5.14-.79,13.24-37.16,24.3L231,208.24l-2.17,42.29,11.27,36.75,43.08,41.1Z"/><path class="i" d="M199.73,278.85a50.66,50.66,0,0,0,5.29,10.3c4.08,5.83,6.94,5.48,6.94,5.48s4.38.65,4.88-2.77a5,5,0,0,0-2.23-4.63,43.28,43.28,0,0,0-5.87-3.11c-2.84-1.74-2.67-1.71-4.35-3.89-1.08-2.5-.72-.75-3.5-10.56s-4-15.29-4.06-15.29l-3.49.8L197,269.49l1.28,4.87Z"/><path class="i" d="M197.77,245.35l7.6,25.43a53.33,53.33,0,0,1,1.45,5.59,12.74,12.74,0,0,1-.57,4.74,22.26,22.26,0,0,0-.52,3.65,7.34,7.34,0,0,0,1.06,4.18c0,.08.87,1.32,3.35,1.47,2.86-.18,3.22-2.24,3.22-2.24s.43-.22.21-3.08a36.81,36.81,0,0,0-1.82-7.3L200.9,243.47Z"/><path class="i" d="M193.11,239.11l6.68,25.69a53.33,53.33,0,0,1,1.25,5.64,12.74,12.74,0,0,1-.74,4.71,22.26,22.26,0,0,0-.66,3.63,7.34,7.34,0,0,0,.91,4.22c0,.08.82,1.35,3.3,1.59,2.86-.08,3.3-2.12,3.3-2.12s.44-.2.32-3.07a36.81,36.81,0,0,0-1.55-7.36l-9.62-34.69Z"/><path class="i" d="M195.46,276.83a50.66,50.66,0,0,0,5.15,10.37c4,5.88,6.86,5.57,6.86,5.57s4.37.71,4.92-2.71a5,5,0,0,0-2.17-4.66,43.28,43.28,0,0,0-5.83-3.18c-2.82-1.78-2.64-1.75-4.3-3.94-1-2.51-.71-.76-3.36-10.61s-3.79-15.35-3.86-15.34l-3.5.76,3.47,14.36,1.21,4.89Z"/><path class="i" d="M208.8,261.59a53,53,0,0,0,4.38,10.34c3.44,5.89,6,5.63,6,5.63s3.86.78,4.4-2.58a5.15,5.15,0,0,0-1.84-4.65,37.66,37.66,0,0,0-5.1-3.26,9.89,9.89,0,0,1-3.74-4c-.88-2.5-.61-.76-2.78-10.54S207,237.34,207,237.34l-3.12.68,2.82,14.25,1,4.85Z"/><path class="i" d="M212.44,262.2a50.66,50.66,0,0,0,4.94,10.47c3.89,6,6.75,5.7,6.75,5.7s4.36.79,5-2.61a5,5,0,0,0-2.07-4.7,43.28,43.28,0,0,0-5.76-3.3c-2.79-1.84-2.61-1.8-4.22-4-1-2.53-.69-.77-3.15-10.67s-3.48-15.42-3.55-15.42l-3.52.69L210,252.76l1.11,4.91Z"/><path class="i" d="M208.66,235.64l6.68,25.69a53.33,53.33,0,0,1,1.25,5.64,12.74,12.74,0,0,1-.74,4.71,22.26,22.26,0,0,0-.66,3.63,7.34,7.34,0,0,0,.91,4.22c0,.08.82,1.35,3.3,1.59,2.86-.08,3.3-2.12,3.3-2.12s.44-.2.32-3.07a36.81,36.81,0,0,0-1.55-7.36l-9.62-34.69Z"/><path class="i" d="M221.2,243.53l8.23,25.23a53.33,53.33,0,0,1,1.59,5.55,12.74,12.74,0,0,1-.45,4.75,22.26,22.26,0,0,0-.43,3.67,7.34,7.34,0,0,0,1.17,4.15c0,.08.9,1.3,3.39,1.38,2.85-.25,3.16-2.32,3.16-2.32s.43-.23.14-3.08a36.81,36.81,0,0,0-2-7.26l-11.71-34Z"/><path class="i" d="M225.59,276.85a50.66,50.66,0,0,0,5.26,10.32c4.06,5.84,6.92,5.5,6.92,5.5s4.38.66,4.89-2.76a5,5,0,0,0-2.22-4.64,43.28,43.28,0,0,0-5.86-3.12c-2.84-1.75-2.66-1.72-4.34-3.9-1.07-2.5-.71-.75-3.47-10.57s-3.94-15.31-4-15.3l-3.49.8,3.62,14.32,1.26,4.88Z"/><path class="i" d="M207.17,268.13a50.66,50.66,0,0,0,4.94,10.47c3.89,6,6.75,5.7,6.75,5.7s4.36.79,5-2.61a5,5,0,0,0-2.07-4.7,43.28,43.28,0,0,0-5.76-3.3c-2.79-1.84-2.61-1.8-4.22-4-1-2.53-.69-.77-3.15-10.67s-3.48-15.42-3.55-15.42l-3.52.69,3.19,14.42,1.11,4.91Z"/><path class="i" d="M203.26,265.4a50.66,50.66,0,0,0,4.94,10.47c3.89,6,6.75,5.7,6.75,5.7s4.36.79,5-2.61a5,5,0,0,0-2.07-4.7,43.28,43.28,0,0,0-5.76-3.3c-2.79-1.84-2.61-1.8-4.22-4-1-2.53-.69-.77-3.15-10.67s-3.48-15.42-3.55-15.42l-3.52.69L200.84,256l1.11,4.91Z"/><path class="i" d="M212.79,238.07l6.68,25.69a53.33,53.33,0,0,1,1.25,5.64,12.74,12.74,0,0,1-.74,4.71,22.26,22.26,0,0,0-.66,3.63,7.34,7.34,0,0,0,.91,4.22c0,.08.82,1.35,3.3,1.59,2.86-.08,3.3-2.12,3.3-2.12s.44-.2.32-3.07A36.81,36.81,0,0,0,225.6,271L216,236.3Z"/><path class="i" d="M230,278.11a50.66,50.66,0,0,0,5.71,10.08c4.32,5.66,7.16,5.19,7.16,5.19s4.4.47,4.76-3a5,5,0,0,0-2.42-4.54,43.29,43.29,0,0,0-6-2.86c-2.91-1.63-2.73-1.6-4.51-3.7-1.18-2.45-.75-.72-3.93-10.41s-4.61-15.12-4.69-15.11l-3.46.95,4.25,14.15,1.48,4.82Z"/><path class="i" d="M226.11,248.56l9.18,24.53a51.39,51.39,0,0,1,1.79,5.42,12.93,12.93,0,0,1-.27,4.78,22.38,22.38,0,0,0-.29,3.69,7.09,7.09,0,0,0,1.32,4.05c0,.08.95,1.23,3.44,1.11,2.84-.48,3.07-2.57,3.07-2.57a14,14,0,0,0-.36-5.39c-.63-3.36-6.65-14.38-9-21.83l-5.31-16.23Z"/><path class="c" d="M222.36,154.34a87.91,87.91,0,0,0-8.21,11.82c-4.61,7.76-4.81,8.08-7,13.91-1.54,5.68-1.55,7.59-.49,10.76,1.37,2.56,2.71,3.09,4,3.15s1.89-.29,2.81-1.7c1.84-4.18-.48-6.27-1.18-9.75s-.41-.8-.41-3.38a10.26,10.26,0,0,1,1.92-5.24,76.06,76.06,0,0,1,5-8c4-6.14,5.93-9.52,5.93-9.52s.42-1.37-.5-2a1.79,1.79,0,0,0-1.92,0Z"/><path class="c" d="M219.8,153.11a87.91,87.91,0,0,0-8.21,11.82c-4.61,7.76-4.81,8.08-7,13.91-1.54,5.68-1.55,7.59-.49,10.76,1.37,2.56,2.71,3.09,4,3.15s1.89-.29,2.81-1.7c1.84-4.18-.48-6.27-1.18-9.75s-.41-.8-.41-3.38a10.26,10.26,0,0,1,1.92-5.24,76.06,76.06,0,0,1,5-8c4-6.14,5.93-9.52,5.93-9.52s.42-1.37-.5-2a1.79,1.79,0,0,0-1.92,0Z"/><path class="c" d="M241.15,146.92a87.91,87.91,0,0,0-9.68,10.65c-5.58,7.1-5.82,7.39-8.7,12.89-2.26,5.43-2.52,7.33-1.88,10.61,1,2.71,2.29,3.42,3.52,3.63s1.92,0,3-1.32c2.37-3.9.34-6.28.1-9.82s-.3-.85,0-3.4a10.26,10.26,0,0,1,2.58-4.94,76.07,76.07,0,0,1,6-7.32c4.78-5.57,7.12-8.67,7.12-8.67a2,2,0,0,0-.23-2.09,1.79,1.79,0,0,0-1.91-.2Z"/><path class="c" d="M229.08,146.93s-6.14,10-8.36,13.88c-2.71,4.23-5.18,10.2-7.54,13.36-2.85,3-5.69,3.5-7.68,5.42-2.28,2-2.7,3-2.81,4.76a3.51,3.51,0,0,0,4.62,3.25c2.27-.28,4.8-3.93,4.8-3.93l5.49-10.41c4.88-10.06,14.64-24.91,14.64-24.91Z"/><path class="c" d="M216.63,153.22A87.91,87.91,0,0,0,208.41,165c-4.61,7.76-4.81,8.08-7,13.91-1.54,5.68-1.55,7.59-.49,10.76,1.37,2.56,2.71,3.09,4,3.15s1.89-.29,2.81-1.7c1.84-4.18-.48-6.27-1.18-9.75s-.41-.8-.41-3.38a10.26,10.26,0,0,1,1.92-5.24,76.06,76.06,0,0,1,5-8c4-6.14,5.93-9.52,5.93-9.52s.42-1.37-.5-2a1.79,1.79,0,0,0-1.92,0Z"/><path class="c" d="M247.94,148.28s-7.54,9-10.3,12.51c-3.3,3.78-6.62,9.33-9.41,12.12-3.26,2.56-6.14,2.63-8.39,4.24-2.56,1.69-3.12,2.61-3.48,4.3a3.51,3.51,0,0,0,4.09,3.89c2.29.05,5.32-3.19,5.32-3.19l7-9.49c6.3-9.24,18.13-22.5,18.13-22.5Z"/><path class="c" d="M243.62,148.94a87.91,87.91,0,0,0-9.54,10.78c-5.49,7.17-5.72,7.46-8.54,13-2.19,5.46-2.43,7.36-1.74,10.63,1.06,2.7,2.33,3.39,3.57,3.59s1.91-.07,3-1.36c2.32-3.93.26-6.29,0-9.82s-.31-.85,0-3.4a10.26,10.26,0,0,1,2.52-5,76.07,76.07,0,0,1,5.94-7.4c4.7-5.63,7-8.76,7-8.76a2,2,0,0,0-.26-2.09,1.79,1.79,0,0,0-1.91-.18Z"/><path class="c" d="M250.82,149.59s-7.54,9-10.3,12.51c-3.3,3.78-6.62,9.33-9.41,12.12-3.26,2.56-6.14,2.63-8.39,4.24-2.56,1.69-3.12,2.61-3.48,4.3a3.51,3.51,0,0,0,4.09,3.89c2.29.05,5.32-3.19,5.32-3.19l7-9.49c6.3-9.24,18.13-22.5,18.13-22.5Z"/><path class="c" d="M237.39,145.29A87.91,87.91,0,0,0,227.81,156c-5.52,7.15-5.75,7.44-8.59,13-2.21,5.45-2.46,7.35-1.79,10.63,1.05,2.7,2.32,3.4,3.55,3.6s1.92-.06,3-1.35c2.33-3.92.28-6.29,0-9.82s-.31-.85,0-3.4a10.26,10.26,0,0,1,2.54-5,76.07,76.07,0,0,1,6-7.38c4.73-5.61,7-8.73,7-8.73a2,2,0,0,0-.25-2.09,1.79,1.79,0,0,0-1.91-.19Z"/><path class="c" d="M251.65,153.75s-7.54,9-10.3,12.51c-3.3,3.78-6.62,9.33-9.41,12.12-3.26,2.56-6.14,2.63-8.39,4.24-2.56,1.69-3.12,2.61-3.48,4.3a3.51,3.51,0,0,0,4.09,3.89c2.29.05,5.32-3.19,5.32-3.19l7-9.49c6.3-9.24,18.13-22.5,18.13-22.5Z"/><path class="c" d="M249.35,161.08s-7.86,9.79-10.73,13.55c-3.45,4.11-6.82,10.06-9.77,13.11-3.46,2.82-6.65,3-9.05,4.81-2.74,1.88-3.31,2.87-3.62,4.65a3.84,3.84,0,0,0,4.73,3.89c2.54,0,5.71-3.57,5.71-3.57l7.19-10.25c6.47-10,18.86-24.36,18.86-24.36Z"/><path class="c" d="M251.73,169.15s-1.09,1.32-10.29,13.13c-8.42,12.93-9.69,15.36-9.69,15.36s-1.36,2.5-2.73,3.25-3.71.67-4.41.13-1-.59-1.27-3.09a3.92,3.92,0,0,1,1.3-2.61,8.92,8.92,0,0,1,3.41-1.59,8,8,0,0,0,3.12-2.94c2-3.21,2.94-4.77,6.36-9.45,4.43-6.17,7.92-9.94,12-14.78Z"/><path class="c" d="M252.14,166.93s-7.19,9.9-9.8,13.69c-3.17,4.17-6.11,10.08-8.86,13.2-3.3,2.94-6.53,3.38-8.83,5.26-2.64,2-3.14,3-3.3,4.7,0,2.32,2.55,4,5.16,3.34,2.59-.23,5.53-3.83,5.53-3.83L238.51,193c5.76-10,17.18-24.58,17.18-24.58Z"/><path class="c" d="M257.79,170.42s-1,1.37-9.6,13.64c-7.74,13.35-8.89,15.85-8.89,15.85s-1.23,2.56-2.56,3.38-3.67.86-4.4.36-1.07-.54-1.43-3a3.92,3.92,0,0,1,1.16-2.67,8.92,8.92,0,0,1,3.32-1.76,8,8,0,0,0,3-3.09c1.87-3.31,2.69-4.92,5.87-9.76,4.11-6.39,7.39-10.33,11.18-15.37Z"/><path class="j" d="M307.38,104.42a132.37,132.37,0,0,0-33.8,8.13l.91,1.82a131.75,131.75,0,0,1,33.22-8C308.69,106.3,308.47,104.32,307.38,104.42Z"/><path class="k" d="M314.19,107.57a119.59,119.59,0,0,0-28.58,4.85q-5.26,1.51-10.37,3.48l.92,1.85a128.1,128.1,0,0,1,38.2-8.14c1.2-.13,1-2-.18-2Z"/><path class="k" d="M309.18,111.7a127.74,127.74,0,0,0-32.24,7.57l.78,1.55a127.14,127.14,0,0,1,31.75-7.43C310.47,113.32,310.26,111.6,309.18,111.7Z"/><path class="k" d="M278.33,122l.92,1.84a123.06,123.06,0,0,1,38.69-7.66c1.16-.07,1.16-2-.15-2A130.67,130.67,0,0,0,278.33,122Z"/><path class="k" d="M311.88,118.18A122.09,122.09,0,0,0,280,125.42l.94,1.88a130,130,0,0,1,31.28-7.09c1.2-.18.92-2.11-.35-2Z"/><path class="k" d="M281.88,129.12l.91,1.83c9.85-3.61,26-7,35.41-6.88,1-.08.93-2-.09-2.05-11.77,0-24.08,2.69-36.24,7.1Z"/><path class="k" d="M310.81,126.39a118.14,118.14,0,0,0-27.09,6.4l.92,1.83A111.49,111.49,0,0,1,311,128.44a1,1,0,1,0-.23-2.05Z"/><path class="k" d="M285.54,136.43l.92,1.83a120.4,120.4,0,0,1,29.46-6,1,1,0,0,0-.18-2.08C305.6,130.54,294.55,133.28,285.54,136.43Z"/><path class="k" d="M316.67,134.57c-7.51.06-20.68,2.82-29.13,5.84l.92,1.83c8.08-2.86,21.39-5.49,28.31-5.65A1,1,0,1,0,316.67,134.57Z"/><path class="k" d="M310.26,139.32a108.6,108.6,0,0,0-20.73,5.06l.92,1.82a98.55,98.55,0,0,1,20.24-4.91A1,1,0,1,0,310.26,139.32Z"/><path class="k" d="M316.4,142.69c-7.76.28-17.9,2.56-25.17,5.1l.92,1.84c6.78-2.34,16.46-4.61,24.28-4.89a1,1,0,1,0,0-2Z"/><path class="l" d="M302.15,137.11s-16.24-3.43-15.23,5.66C291.11,150.28,302.15,137.11,302.15,137.11Z"/><path class="l" d="M298.64,147.51s-13.17,8.53-15.48.14C284.24,139.59,298.64,147.51,298.64,147.51Z"/><path class="l" d="M288.68,136.44s-15.21,3.73-10.52,11.23C284.87,152.47,288.68,136.44,288.68,136.44Z"/><path class="l" d="M289,151.86s-13,7.45-14.63-.85C275.93,143.24,289,151.86,289,151.86Z"/><path class="l" d="M278.71,139.75s-14.44,5.44-9,12.16C276.89,155.76,278.71,139.75,278.71,139.75Z"/><path class="l" d="M280.76,156s-12.36,7.56-13.73-.73C268.63,147.46,280.76,156,280.76,156Z"/><path class="l" d="M269.23,144S256.32,152,263,157.15C270.77,159.33,269.23,144,269.23,144Z"/><path class="l" d="M274.23,159.38S262.42,169,259.56,161C259.93,153,274.23,159.38,274.23,159.38Z"/><path class="l" d="M267.3,163.83s-9.94,10.25-13.59,3.16C253.11,159.52,267.3,163.83,267.3,163.83Z"/><path class="l" d="M261.39,150s-12.6,7.92-5.91,12.89C263.13,164.94,261.39,150,261.39,150Z"/><path class="l" d="M253.58,155.45s-11.46,9.41-4.23,13.63C257.17,170.23,253.58,155.45,253.58,155.45Z"/><path class="l" d="M260.64,169.71S250.7,180.81,247,173C246.35,164.78,260.64,169.71,260.64,169.71Z"/><path class="l" d="M289.88,112.74s-17.78-3.42-16.41,6.93C278.26,128.1,289.88,112.74,289.88,112.74Z"/><path class="l" d="M275.14,111.66s-16.33,7.1-9.57,14.41C274.06,130,275.14,111.66,275.14,111.66Z"/><path class="l" d="M265.8,115.82s-16.73,8.44-9.37,16.08C265.46,135.8,265.8,115.82,265.8,115.82Z"/><path class="l" d="M256.13,120.56s-15.56,9.45-7.9,16.32C257.24,140,256.13,120.56,256.13,120.56Z"/><path class="l" d="M246.06,126.85s-13.83,10.89-5.37,16.19C249.92,144.68,246.06,126.85,246.06,126.85Z"/><path class="l" d="M238.41,132.41S225,144,233.57,149C242.81,150.36,238.41,132.41,238.41,132.41Z"/><path class="l" d="M231.13,137.69s-13.51,11.36-5,16.49C235.37,155.6,231.13,137.69,231.13,137.69Z"/><path class="l" d="M223.52,144.38s-11.88,12.94-2.86,17C229.9,161.61,223.52,144.38,223.52,144.38Z"/><path class="l" d="M306.37,123.93s-10.37,14.3-16.06,6.16C288.28,121,306.37,123.93,306.37,123.93Z"/><path class="l" d="M298.34,116.89s-17.18-.07-14.16,9.91C290.08,134.25,298.34,116.89,298.34,116.89Z"/><path class="l" d="M297.68,133.78s-16.22,8.46-17.83-1.71C282.08,122.7,297.68,133.78,297.68,133.78Z"/><path class="l" d="M286.63,118.13s-17.86,4.56-12.21,13.15C282.41,136.7,286.63,118.13,286.63,118.13Z"/><path class="l" d="M286.42,137.31s-16.24,9.1-18-1.53C270.54,125.93,286.42,137.31,286.42,137.31Z"/><path class="l" d="M276.22,142.56s-15.24,8.79-17.16-1C260.86,132.42,276.22,142.56,276.22,142.56Z"/><path class="l" d="M275.19,121.19s-18.6,7.11-11.55,15.93C272.82,142.18,275.19,121.19,275.19,121.19Z"/><path class="l" d="M262.62,127.84s-16.32,9.48-8.23,16.28C263.88,147.17,262.62,127.84,262.62,127.84Z"/><path class="l" d="M267.06,147.21s-13.9,10.61-16.81.94C251,138.69,267.06,147.21,267.06,147.21Z"/><path class="l" d="M252,133.9S236.67,145,245.4,151.06C255.15,153.22,252,133.9,252,133.9Z"/><path class="l" d="M242.89,140s-13.77,11.52-5.08,16.71C247.2,158.08,242.89,140,242.89,140Z"/><path class="l" d="M258.84,152.65s-12.94,12.61-17.42,3.52C240.82,146.73,258.84,152.65,258.84,152.65Z"/><path class="l" d="M214.41,313.62s12.33,14.07,18.66,5.56C235.17,309.86,214.41,313.62,214.41,313.62Z"/><path class="l" d="M220.43,321.51s13.55,15.15,19.3,5.29C241.13,316.25,220.43,321.51,220.43,321.51Z"/><path class="l" d="M229.32,329.51s11.92,12.37,16.39,3.81C246.52,324.33,229.32,329.51,229.32,329.51Z"/><path class="l" d="M239.58,298.71s11.47,12.79,2.61,16.62C233.15,315.48,239.58,298.71,239.58,298.71Z"/><path class="l" d="M230.13,313s8.72,15.73,15.46,8.22C248.76,312.34,230.13,313,230.13,313Z"/><path class="l" d="M245.49,310s10.52,13.58,15.89,5.55C263.14,306.74,245.49,310,245.49,310Z"/><path class="l" d="M245.52,306.07s12.86,12.14,4.16,16.9C240.47,323.94,245.52,306.07,245.52,306.07Z"/><path class="l" d="M236.68,323.32s11.84,13.46,17,4.81C255,318.83,236.68,323.32,236.68,323.32Z"/><path class="l" d="M260,299.74s12.51,11,5,15.86C256.77,316.94,260,299.74,260,299.74Z"/><path class="l" d="M252.48,315.71S263.39,328,268,320C269.11,311.43,252.48,315.71,252.48,315.71Z"/><path class="l" d="M267.61,305.54s11.64,10.29,3.94,14.59C263.33,321.15,267.61,305.54,267.61,305.54Z"/><path class="l" d="M257.82,321.84s13,11.18,16.68,2.24C274.45,315,257.82,321.84,257.82,321.84Z"/><path class="l" d="M252.58,313.51s14.38,10.55,6.18,16.32C249.6,331.89,252.58,313.51,252.58,313.51Z"/><path class="l" d="M260.84,320.49s13.71,10.35,5.74,15.82C257.74,338.18,260.84,320.49,260.84,320.49Z"/><path class="l" d="M274.94,312.84s12.07,12.22,3.4,16.48C269.33,329.9,274.94,312.84,274.94,312.84Z"/><path class="l" d="M198.58,185.49s-6.07,16.8,4.16,17C211.65,199.07,198.58,185.49,198.58,185.49Z"/><path class="l" d="M195.06,195.48s-4.79,17.33,5.52,16.78C209.28,208.17,195.06,195.48,195.06,195.48Z"/><path class="l" d="M192.2,205.58s-3.86,17.32,7,16.17C208.11,217.23,192.2,205.58,192.2,205.58Z"/><path class="l" d="M190.43,215.7s-2,18.86,8.07,16.59C206.46,226.6,190.43,215.7,190.43,215.7Z"/><path class="l" d="M189.37,226.12s-1.35,18,8.72,15.49C205.88,235.93,189.37,226.12,189.37,226.12Z"/><path class="l" d="M216.66,176.2s-12.18,14.74-1.59,18.18C225.53,193.82,216.66,176.2,216.66,176.2Z"/><path class="l" d="M228,189.1s-5.64,17.1-13.83,11.07C209.28,192.05,228,189.1,228,189.1Z"/><path class="l" d="M208.94,187.37s-8.43,16.11,1.89,17.62C220.31,202.71,208.94,187.37,208.94,187.37Z"/><path class="l" d="M228,192.21s-10.21,13.29-.91,15.52C236.23,206.57,228,192.21,228,192.21Z"/><path class="l" d="M238.6,202.06s-4.32,14.87-11,9.74C223.57,204.82,238.6,202.06,238.6,202.06Z"/><path class="l" d="M222.89,201.5s-6.63,14.67,2,15.25C232.64,214.07,222.89,201.5,222.89,201.5Z"/><path class="l" d="M224.61,198.79s-4.77,17.24-13,11.6C206.45,202.54,224.61,198.79,224.61,198.79Z"/><path class="l" d="M203.78,198.73s-5.49,18.34,5.45,18C218.54,212.5,203.78,198.73,203.78,198.73Z"/><path class="l" d="M235.75,210.16s-2.82,14.4-10.15,10.36C220.73,214.45,235.75,210.16,235.75,210.16Z"/><path class="l" d="M220.33,211.38s-5.59,13.85,3.18,13.88C231.24,222.35,220.33,211.38,220.33,211.38Z"/><path class="l" d="M221.17,207.83s-1.8,18-11.14,13.84C203.45,214.75,221.17,207.83,221.17,207.83Z"/><path class="l" d="M200.34,209.77s-3.18,19.38,7,17.75C215.61,222.2,200.34,209.77,200.34,209.77Z"/><path class="l" d="M234.11,217.48s-2,15.78-9.58,11.84C219.31,223,234.11,217.48,234.11,217.48Z"/><path class="l" d="M218.47,221.11s-4.15,14.52,4.52,13.81C230.33,231.32,218.47,221.11,218.47,221.11Z"/><path class="l" d="M219,218.18s-.54,18-10,14.5C202.08,226.27,219,218.18,219,218.18Z"/><path class="l" d="M198.53,221.76s-.32,19.11,9.52,15.88C215.44,231.19,198.53,221.76,198.53,221.76Z"/><path class="l" d="M188.35,235.61s.46,18.3,10,14.8C205.44,243.92,188.35,235.61,188.35,235.61Z"/><path class="l" d="M232.41,226s.46,15.21-7.9,12.8C218.17,233.82,232.41,226,232.41,226Z"/><path class="l" d="M216.58,231.56s-1.87,15.88,7.34,13.61C231.18,240.1,216.58,231.56,216.58,231.56Z"/><path class="l" d="M218.37,227.62s.86,18.24-8.78,15.49C202.24,237.19,218.37,227.62,218.37,227.62Z"/><path class="l" d="M197.28,232.76S198.7,251,207.87,247C214.4,240.1,197.28,232.76,197.28,232.76Z"/><path class="l" d="M232,234.63s2.11,15.26-6.45,13.6C218.74,243.75,232,234.63,232,234.63Z"/><path class="l" d="M217,241.17s-.71,15.89,7.25,13C230.32,248.73,217,241.17,217,241.17Z"/><path class="l" d="M232.49,243.11s2.44,14.71-6.23,12.88C219.29,251.5,232.49,243.11,232.49,243.11Z"/><path class="l" d="M188.43,246.39s2.53,17,11.14,12.61C205.45,252.14,188.43,246.39,188.43,246.39Z"/><path class="m" d="M221.16,281.76s-9.62.12-16-1.91c-8.42-2.3-11.77-10.08-11.77-10.08a7.79,7.79,0,0,0-1.16,4.32c.08,2.3,1.72,7.62,5.86,13.25,4.29,6.93,7.2,15.11,10.66,20.48,2.76,4.83,8.6,9.2,8.6,9.2s18.57-2.22,20.37-2.6c2.39-.36,18.8-4.15,22.49-4.35s12,.33,12,.33-2.94-5.42-4.37-6.47c-2.84-2.35-6.28-3.31-9.83-6.75-1.94-2.13-5.21-5.91-7.06-8-2.3-2.2-4-4.36-6.55-5.77-2-1.33-23.26-1.69-23.26-1.69Z"/><path class="g" d="M263.13,301.2s-6.83.17-10.11.59c-3.63.57-11.44,1.52-17.71,2.16A156.78,156.78,0,0,1,218.56,305L207,304.48a45.79,45.79,0,0,0,2.42,4,24.43,24.43,0,0,0,4.44,5.22,44.43,44.43,0,0,0,3.51,3.06c1.38-.15,10.11-1.2,13.64-1.69,5.8-.56,8.74-1.34,15.42-2.76,3.49-.71,11.58-2.41,13.69-2.53,2.37-.19,10.82.25,11.7.33-.56-.91-1.22-2-2.14-3.57-1.31-2.21-2.32-2.78-4.16-4-.73-.47-2.33-1.31-2.39-1.33Z"/><path class="a" d="M200.15,290.45c.54,1,2,3.86,3.22,6.42,1.62,3.51,2.51,5.41,3.7,7.71,2.57.19,5.08.27,11.49.47A157.22,157.22,0,0,0,235.31,304c6.27-.64,14.08-1.58,17.71-2.15,3.29-.42,10.22-.59,10.22-.59a45.69,45.69,0,0,1-4.51-3.09c-1.78-1.65-2.59-2.83-4-4.35-1.88-.15-4.5-.17-7.37-.37-5-.28-12.72.24-17,.24a166.57,166.57,0,0,1-17.68-.86c-8.31-.6-10.32-2-12.47-2.39Z"/><path class="n" d="M193.23,271.49a22.56,22.56,0,0,0,4.6,5.65c3.48,2.48,4.37,3,11.09,4.55,6.05,1,7.42.69,15.49.94,7.87.24,10.14.43,15.23.84A38.66,38.66,0,0,1,244,284"/><path class="g" d="M396.79,338.06,433.55,297,448,245.39l-5.14-47.62-23.52-45.65L383,124.06,361.21,116l-6.13,8.89L344.41,128l6.13,5.14.79,13.24,37.16,24.3L411,208.24l2.17,42.29-11.27,36.75-43.08,41.1Z"/><path class="i" d="M442.27,278.85a50.66,50.66,0,0,1-5.29,10.3c-4.08,5.83-6.94,5.48-6.94,5.48s-4.38.65-4.88-2.77a5,5,0,0,1,2.23-4.63,43.28,43.28,0,0,1,5.87-3.11c2.84-1.74,2.67-1.71,4.35-3.89,1.08-2.5.72-.75,3.5-10.56s4-15.29,4.06-15.29l3.49.8L445,269.49l-1.28,4.87Z"/><path class="i" d="M444.23,245.35l-7.6,25.43a53.33,53.33,0,0,0-1.45,5.59,12.74,12.74,0,0,0,.57,4.74,22.26,22.26,0,0,1,.52,3.65,7.34,7.34,0,0,1-1.06,4.18c0,.08-.87,1.32-3.35,1.47-2.86-.18-3.22-2.24-3.22-2.24s-.43-.22-.21-3.08a36.81,36.81,0,0,1,1.82-7.3l10.86-34.32Z"/><path class="i" d="M448.89,239.11l-6.68,25.69a53.33,53.33,0,0,0-1.25,5.64,12.74,12.74,0,0,0,.74,4.71,22.26,22.26,0,0,1,.66,3.63,7.34,7.34,0,0,1-.91,4.22c0,.08-.82,1.35-3.3,1.59-2.86-.08-3.3-2.12-3.3-2.12s-.44-.2-.32-3.07a36.81,36.81,0,0,1,1.55-7.36l9.62-34.69Z"/><path class="i" d="M446.54,276.83a50.66,50.66,0,0,1-5.15,10.37c-4,5.88-6.86,5.57-6.86,5.57s-4.37.71-4.92-2.71a5,5,0,0,1,2.17-4.66,43.28,43.28,0,0,1,5.83-3.18c2.82-1.78,2.64-1.75,4.3-3.94,1-2.51.71-.76,3.36-10.61s3.79-15.35,3.86-15.34l3.5.76-3.47,14.36-1.21,4.89Z"/><path class="i" d="M433.2,261.59a53,53,0,0,1-4.38,10.34c-3.44,5.89-6,5.63-6,5.63s-3.86.78-4.4-2.58a5.15,5.15,0,0,1,1.84-4.65,37.66,37.66,0,0,1,5.1-3.26,9.89,9.89,0,0,0,3.74-4c.88-2.5.61-.76,2.78-10.54S435,237.34,435,237.34l3.12.68-2.82,14.25-1,4.85Z"/><path class="i" d="M429.56,262.2a50.66,50.66,0,0,1-4.94,10.47c-3.89,6-6.75,5.7-6.75,5.7s-4.36.79-5-2.61a5,5,0,0,1,2.07-4.7,43.28,43.28,0,0,1,5.76-3.3c2.79-1.84,2.61-1.8,4.22-4,1-2.53.69-.77,3.15-10.67s3.48-15.42,3.55-15.42l3.52.69L432,252.76l-1.11,4.91Z"/><path class="i" d="M433.34,235.64l-6.68,25.69a53.33,53.33,0,0,0-1.25,5.64,12.74,12.74,0,0,0,.74,4.71,22.26,22.26,0,0,1,.66,3.63,7.34,7.34,0,0,1-.91,4.22c0,.08-.82,1.35-3.3,1.59-2.86-.08-3.3-2.12-3.3-2.12s-.44-.2-.32-3.07a36.81,36.81,0,0,1,1.55-7.36l9.62-34.69Z"/><path class="i" d="M420.8,243.53l-8.23,25.23a53.33,53.33,0,0,0-1.59,5.55,12.74,12.74,0,0,0,.45,4.75,22.26,22.26,0,0,1,.43,3.67,7.34,7.34,0,0,1-1.17,4.15c0,.08-.9,1.3-3.39,1.38-2.85-.25-3.16-2.32-3.16-2.32s-.43-.23-.14-3.08a36.81,36.81,0,0,1,2-7.26l11.71-34Z"/><path class="i" d="M416.41,276.85a50.66,50.66,0,0,1-5.26,10.32c-4.06,5.84-6.92,5.5-6.92,5.5s-4.38.66-4.89-2.76a5,5,0,0,1,2.22-4.64,43.28,43.28,0,0,1,5.86-3.12c2.84-1.75,2.66-1.72,4.34-3.9,1.07-2.5.71-.75,3.47-10.57s3.94-15.31,4-15.3l3.49.8-3.62,14.32-1.26,4.88Z"/><path class="i" d="M434.83,268.13a50.66,50.66,0,0,1-4.94,10.47c-3.89,6-6.75,5.7-6.75,5.7s-4.36.79-5-2.61a5,5,0,0,1,2.07-4.7,43.28,43.28,0,0,1,5.76-3.3c2.79-1.84,2.61-1.8,4.22-4,1-2.53.69-.77,3.15-10.67s3.48-15.42,3.55-15.42l3.52.69-3.19,14.42-1.11,4.91Z"/><path class="i" d="M438.74,265.4a50.66,50.66,0,0,1-4.94,10.47c-3.89,6-6.75,5.7-6.75,5.7s-4.36.79-5-2.61a5,5,0,0,1,2.07-4.7,43.28,43.28,0,0,1,5.76-3.3c2.79-1.84,2.61-1.8,4.22-4,1-2.53.69-.77,3.15-10.67s3.48-15.42,3.55-15.42l3.52.69L441.16,256,440,260.87Z"/><path class="i" d="M429.21,238.07l-6.68,25.69a53.33,53.33,0,0,0-1.25,5.64,12.74,12.74,0,0,0,.74,4.71,22.26,22.26,0,0,1,.66,3.63,7.34,7.34,0,0,1-.91,4.22c0,.08-.82,1.35-3.3,1.59-2.86-.08-3.3-2.12-3.3-2.12s-.44-.2-.32-3.07A36.81,36.81,0,0,1,416.4,271L426,236.3Z"/><path class="i" d="M412,278.11a50.66,50.66,0,0,1-5.71,10.08c-4.32,5.66-7.16,5.19-7.16,5.19s-4.4.47-4.76-3a5,5,0,0,1,2.42-4.54,43.29,43.29,0,0,1,6-2.86c2.91-1.63,2.73-1.6,4.51-3.7,1.18-2.45.75-.72,3.93-10.41s4.61-15.12,4.69-15.11l3.46.95-4.25,14.15-1.48,4.82Z"/><path class="i" d="M415.89,248.56l-9.18,24.53a51.39,51.39,0,0,0-1.79,5.42,12.93,12.93,0,0,0,.27,4.78,22.38,22.38,0,0,1,.29,3.69,7.09,7.09,0,0,1-1.32,4.05c0,.08-.95,1.23-3.44,1.11-2.84-.48-3.07-2.57-3.07-2.57a14,14,0,0,1,.36-5.39c.63-3.36,6.65-14.38,9-21.83l5.31-16.23Z"/><path class="c" d="M419.64,154.34a87.91,87.91,0,0,1,8.21,11.82c4.61,7.76,4.81,8.08,7,13.91,1.54,5.68,1.55,7.59.49,10.76-1.37,2.56-2.71,3.09-4,3.15s-1.89-.29-2.81-1.7c-1.84-4.18.48-6.27,1.18-9.75s.41-.8.41-3.38a10.26,10.26,0,0,0-1.92-5.24,76.06,76.06,0,0,0-5-8c-4-6.14-5.93-9.52-5.93-9.52s-.42-1.37.5-2a1.79,1.79,0,0,1,1.92,0Z"/><path class="c" d="M422.2,153.11a87.91,87.91,0,0,1,8.21,11.82c4.61,7.76,4.81,8.08,7,13.91,1.54,5.68,1.55,7.59.49,10.76-1.37,2.56-2.71,3.09-4,3.15s-1.89-.29-2.81-1.7c-1.84-4.18.48-6.27,1.18-9.75s.41-.8.41-3.38a10.26,10.26,0,0,0-1.92-5.24,76.06,76.06,0,0,0-5-8c-4-6.14-5.93-9.52-5.93-9.52s-.42-1.37.5-2a1.79,1.79,0,0,1,1.92,0Z"/><path class="c" d="M400.85,146.92a87.91,87.91,0,0,1,9.68,10.65c5.58,7.1,5.82,7.39,8.7,12.89,2.26,5.43,2.52,7.33,1.88,10.61-1,2.71-2.29,3.42-3.52,3.63s-1.92,0-3-1.32c-2.37-3.9-.34-6.28-.1-9.82s.3-.85,0-3.4a10.26,10.26,0,0,0-2.58-4.94,76.07,76.07,0,0,0-6-7.32c-4.78-5.57-7.12-8.67-7.12-8.67a2,2,0,0,1,.23-2.09,1.79,1.79,0,0,1,1.91-.2Z"/><path class="c" d="M412.92,146.93s6.14,10,8.36,13.88c2.71,4.23,5.18,10.2,7.54,13.36,2.85,3,5.69,3.5,7.68,5.42,2.28,2,2.7,3,2.81,4.76a3.51,3.51,0,0,1-4.62,3.25c-2.27-.28-4.8-3.93-4.8-3.93l-5.49-10.41c-4.88-10.06-14.64-24.91-14.64-24.91Z"/><path class="c" d="M425.37,153.22A87.91,87.91,0,0,1,433.59,165c4.61,7.76,4.81,8.08,7,13.91,1.54,5.68,1.55,7.59.49,10.76-1.37,2.56-2.71,3.09-4,3.15s-1.89-.29-2.81-1.7c-1.84-4.18.48-6.27,1.18-9.75s.41-.8.41-3.38a10.26,10.26,0,0,0-1.92-5.24,76.06,76.06,0,0,0-5-8c-4-6.14-5.93-9.52-5.93-9.52s-.42-1.37.5-2a1.79,1.79,0,0,1,1.92,0Z"/><path class="c" d="M394.06,148.28s7.54,9,10.3,12.51c3.3,3.78,6.62,9.33,9.41,12.12,3.26,2.56,6.14,2.63,8.39,4.24,2.56,1.69,3.12,2.61,3.48,4.3a3.51,3.51,0,0,1-4.09,3.89c-2.29.05-5.32-3.19-5.32-3.19l-7-9.49c-6.3-9.24-18.13-22.5-18.13-22.5Z"/><path class="c" d="M398.38,148.94a87.91,87.91,0,0,1,9.54,10.78c5.49,7.17,5.72,7.46,8.54,13,2.19,5.46,2.43,7.36,1.74,10.63-1.06,2.7-2.33,3.39-3.57,3.59s-1.91-.07-3-1.36c-2.32-3.93-.26-6.29,0-9.82s.31-.85,0-3.4a10.26,10.26,0,0,0-2.52-5,76.07,76.07,0,0,0-5.94-7.4c-4.7-5.63-7-8.76-7-8.76a2,2,0,0,1,.26-2.09,1.79,1.79,0,0,1,1.91-.18Z"/><path class="c" d="M391.18,149.59s7.54,9,10.3,12.51c3.3,3.78,6.62,9.33,9.41,12.12,3.26,2.56,6.14,2.63,8.39,4.24,2.56,1.69,3.12,2.61,3.48,4.3a3.51,3.51,0,0,1-4.09,3.89c-2.29.05-5.32-3.19-5.32-3.19l-7-9.49c-6.3-9.24-18.13-22.5-18.13-22.5Z"/><path class="c" d="M404.61,145.29A87.91,87.91,0,0,1,414.19,156c5.52,7.15,5.75,7.44,8.59,13,2.21,5.45,2.46,7.35,1.79,10.63-1.05,2.7-2.32,3.4-3.55,3.6s-1.92-.06-3-1.35c-2.33-3.92-.28-6.29,0-9.82s.31-.85,0-3.4a10.26,10.26,0,0,0-2.54-5,76.07,76.07,0,0,0-6-7.38c-4.73-5.61-7-8.73-7-8.73a2,2,0,0,1,.25-2.09,1.79,1.79,0,0,1,1.91-.19Z"/><path class="c" d="M390.35,153.75s7.54,9,10.3,12.51c3.3,3.78,6.62,9.33,9.41,12.12,3.26,2.56,6.14,2.63,8.39,4.24,2.56,1.69,3.12,2.61,3.48,4.3a3.51,3.51,0,0,1-4.09,3.89c-2.29.05-5.32-3.19-5.32-3.19l-7-9.49c-6.3-9.24-18.13-22.5-18.13-22.5Z"/><path class="c" d="M392.65,161.08s7.86,9.79,10.73,13.55c3.45,4.11,6.82,10.06,9.77,13.11,3.46,2.82,6.65,3,9.05,4.81,2.74,1.88,3.31,2.87,3.62,4.65a3.84,3.84,0,0,1-4.73,3.89c-2.54,0-5.71-3.57-5.71-3.57l-7.19-10.25c-6.47-10-18.86-24.36-18.86-24.36Z"/><path class="c" d="M390.27,169.15s1.09,1.32,10.29,13.13c8.42,12.93,9.69,15.36,9.69,15.36s1.36,2.5,2.73,3.25,3.71.67,4.41.13,1-.59,1.27-3.09a3.92,3.92,0,0,0-1.3-2.61,8.92,8.92,0,0,0-3.41-1.59,8,8,0,0,1-3.12-2.94c-2-3.21-2.94-4.77-6.36-9.45-4.43-6.17-7.92-9.94-12-14.78Z"/><path class="c" d="M389.86,166.93s7.19,9.9,9.8,13.69c3.17,4.17,6.11,10.08,8.86,13.2,3.3,2.94,6.53,3.38,8.83,5.26,2.64,2,3.14,3,3.3,4.7,0,2.32-2.55,4-5.16,3.34-2.59-.23-5.53-3.83-5.53-3.83L403.49,193c-5.76-10-17.18-24.58-17.18-24.58Z"/><path class="c" d="M384.21,170.42s1,1.37,9.6,13.64c7.74,13.35,8.89,15.85,8.89,15.85s1.23,2.56,2.56,3.38,3.67.86,4.4.36,1.07-.54,1.43-3a3.92,3.92,0,0,0-1.16-2.67,8.92,8.92,0,0,0-3.32-1.76,8,8,0,0,1-3-3.09c-1.87-3.31-2.69-4.92-5.87-9.76-4.11-6.39-7.39-10.33-11.18-15.37Z"/><path class="j" d="M334.62,104.42a132.37,132.37,0,0,1,33.8,8.13l-.91,1.82a131.75,131.75,0,0,0-33.22-8C333.31,106.3,333.53,104.32,334.62,104.42Z"/><path class="k" d="M327.81,107.57a119.59,119.59,0,0,1,28.58,4.85q5.26,1.51,10.37,3.48l-.92,1.85a128.1,128.1,0,0,0-38.2-8.14c-1.2-.13-1-2,.18-2Z"/><path class="k" d="M332.82,111.7a127.74,127.74,0,0,1,32.24,7.57l-.78,1.55a127.14,127.14,0,0,0-31.75-7.43C331.53,113.32,331.74,111.6,332.82,111.7Z"/><path class="k" d="M363.67,122l-.92,1.84a123.06,123.06,0,0,0-38.69-7.66c-1.16-.07-1.16-2,.15-2A130.67,130.67,0,0,1,363.67,122Z"/><path class="k" d="M330.12,118.18A122.09,122.09,0,0,1,362,125.42l-.94,1.88a130,130,0,0,0-31.28-7.09c-1.2-.18-.92-2.11.35-2Z"/><path class="k" d="M360.12,129.12,359.2,131c-9.85-3.61-26-7-35.41-6.88-1-.08-.93-2,.09-2.05,11.77,0,24.08,2.69,36.24,7.1Z"/><path class="k" d="M331.19,126.39a118.14,118.14,0,0,1,27.09,6.4l-.92,1.83A111.49,111.49,0,0,0,331,128.44a1,1,0,1,1,.23-2.05Z"/><path class="k" d="M356.46,136.43l-.92,1.83a120.4,120.4,0,0,0-29.46-6,1,1,0,0,1,.18-2.08C336.4,130.54,347.45,133.28,356.46,136.43Z"/><path class="k" d="M325.33,134.57c7.51.06,20.68,2.82,29.13,5.84l-.92,1.83c-8.08-2.86-21.39-5.49-28.31-5.65A1,1,0,1,1,325.33,134.57Z"/><path class="k" d="M331.74,139.32a108.6,108.6,0,0,1,20.73,5.06l-.92,1.82a98.55,98.55,0,0,0-20.24-4.91A1,1,0,1,1,331.74,139.32Z"/><path class="k" d="M325.6,142.69c7.76.28,17.9,2.56,25.17,5.1l-.92,1.84c-6.78-2.34-16.46-4.61-24.28-4.89a1,1,0,1,1,0-2Z"/><path class="l" d="M339.85,137.11s16.24-3.43,15.23,5.66C350.89,150.28,339.85,137.11,339.85,137.11Z"/><path class="l" d="M343.36,147.51s13.17,8.53,15.48.14C357.76,139.59,343.36,147.51,343.36,147.51Z"/><path class="l" d="M353.32,136.44s15.21,3.73,10.52,11.23C357.13,152.47,353.32,136.44,353.32,136.44Z"/><path class="l" d="M353,151.86s13,7.45,14.63-.85C366.07,143.24,353,151.86,353,151.86Z"/><path class="l" d="M363.29,139.75s14.44,5.44,9,12.16C365.11,155.76,363.29,139.75,363.29,139.75Z"/><path class="l" d="M361.24,156s12.36,7.56,13.73-.73C373.37,147.46,361.24,156,361.24,156Z"/><path class="l" d="M372.77,144s12.91,7.93,6.2,13.11C371.23,159.33,372.77,144,372.77,144Z"/><path class="l" d="M367.77,159.38S379.58,169,382.44,161C382.07,153,367.77,159.38,367.77,159.38Z"/><path class="l" d="M374.7,163.83s9.94,10.25,13.59,3.16C388.89,159.52,374.7,163.83,374.7,163.83Z"/><path class="l" d="M380.61,150s12.6,7.92,5.91,12.89C378.87,164.94,380.61,150,380.61,150Z"/><path class="l" d="M388.42,155.45s11.46,9.41,4.23,13.63C384.83,170.23,388.42,155.45,388.42,155.45Z"/><path class="l" d="M381.35,169.71S391.3,180.81,395,173C395.65,164.78,381.35,169.71,381.35,169.71Z"/><path class="l" d="M352.12,112.74s17.78-3.42,16.41,6.93C363.73,128.1,352.12,112.74,352.12,112.74Z"/><path class="l" d="M366.86,111.66s16.33,7.1,9.57,14.41C367.94,130,366.86,111.66,366.86,111.66Z"/><path class="l" d="M376.2,115.82s16.73,8.44,9.37,16.08C376.54,135.8,376.2,115.82,376.2,115.82Z"/><path class="l" d="M385.87,120.56s15.56,9.45,7.9,16.32C384.76,140,385.87,120.56,385.87,120.56Z"/><path class="l" d="M395.94,126.85s13.83,10.89,5.37,16.19C392.08,144.68,395.94,126.85,395.94,126.85Z"/><path class="l" d="M403.59,132.41S417,144,408.43,149C399.19,150.36,403.59,132.41,403.59,132.41Z"/><path class="l" d="M410.87,137.69s13.51,11.36,5,16.49C406.63,155.6,410.87,137.69,410.87,137.69Z"/><path class="l" d="M418.47,144.38s11.88,12.94,2.86,17C412.1,161.61,418.47,144.38,418.47,144.38Z"/><path class="l" d="M335.63,123.93s10.37,14.3,16.06,6.16C353.72,121,335.63,123.93,335.63,123.93Z"/><path class="l" d="M343.66,116.89s17.18-.07,14.16,9.91C351.92,134.25,343.66,116.89,343.66,116.89Z"/><path class="l" d="M344.32,133.78s16.22,8.46,17.83-1.71C359.92,122.7,344.32,133.78,344.32,133.78Z"/><path class="l" d="M355.37,118.13s17.86,4.56,12.21,13.15C359.59,136.7,355.37,118.13,355.37,118.13Z"/><path class="l" d="M355.58,137.31s16.24,9.1,18-1.53C371.46,125.93,355.58,137.31,355.58,137.31Z"/><path class="l" d="M365.78,142.56s15.24,8.79,17.16-1C381.14,132.42,365.78,142.56,365.78,142.56Z"/><path class="l" d="M366.81,121.19s18.6,7.11,11.55,15.93C369.18,142.18,366.81,121.19,366.81,121.19Z"/><path class="l" d="M379.38,127.84s16.32,9.48,8.23,16.28C378.12,147.17,379.38,127.84,379.38,127.84Z"/><path class="l" d="M374.94,147.21s13.9,10.61,16.81.94C391,138.69,374.94,147.21,374.94,147.21Z"/><path class="l" d="M390,133.9s15.29,11.11,6.55,17.16C386.85,153.22,390,133.9,390,133.9Z"/><path class="l" d="M399.11,140s13.77,11.52,5.08,16.71C394.8,158.08,399.11,140,399.11,140Z"/><path class="l" d="M383.16,152.65s12.94,12.61,17.42,3.52C401.18,146.73,383.16,152.65,383.16,152.65Z"/><path class="l" d="M427.59,313.62s-12.33,14.07-18.66,5.56C406.83,309.86,427.59,313.62,427.59,313.62Z"/><path class="l" d="M421.57,321.51s-13.55,15.15-19.3,5.29C400.87,316.25,421.57,321.51,421.57,321.51Z"/><path class="l" d="M412.67,329.51s-11.92,12.37-16.39,3.81C395.47,324.33,412.67,329.51,412.67,329.51Z"/><path class="l" d="M402.42,298.71s-11.47,12.79-2.61,16.62C408.85,315.48,402.42,298.71,402.42,298.71Z"/><path class="l" d="M411.87,313s-8.72,15.73-15.46,8.22C393.24,312.34,411.87,313,411.87,313Z"/><path class="l" d="M396.51,310S386,323.62,380.63,315.6C378.86,306.74,396.51,310,396.51,310Z"/><path class="l" d="M396.48,306.07s-12.86,12.14-4.16,16.9C401.53,323.94,396.48,306.07,396.48,306.07Z"/><path class="l" d="M405.32,323.32s-11.84,13.46-17,4.81C387,318.83,405.32,323.32,405.32,323.32Z"/><path class="l" d="M382,299.74s-12.51,11-5,15.86C385.23,316.94,382,299.74,382,299.74Z"/><path class="l" d="M389.52,315.71S378.61,328,374,320C372.89,311.43,389.52,315.71,389.52,315.71Z"/><path class="l" d="M374.39,305.54s-11.64,10.29-3.94,14.59C378.66,321.15,374.39,305.54,374.39,305.54Z"/><path class="l" d="M384.18,321.84s-13,11.18-16.68,2.24C367.55,315,384.18,321.84,384.18,321.84Z"/><path class="l" d="M389.42,313.51s-14.38,10.55-6.18,16.32C392.4,331.89,389.42,313.51,389.42,313.51Z"/><path class="l" d="M381.16,320.49s-13.71,10.35-5.74,15.82C384.26,338.18,381.16,320.49,381.16,320.49Z"/><path class="l" d="M367.06,312.84s-12.07,12.22-3.4,16.48C372.67,329.9,367.06,312.84,367.06,312.84Z"/><path class="l" d="M443.42,185.49s6.07,16.8-4.16,17C430.35,199.07,443.42,185.49,443.42,185.49Z"/><path class="l" d="M446.94,195.48s4.79,17.33-5.52,16.78C432.72,208.17,446.94,195.48,446.94,195.48Z"/><path class="l" d="M449.8,205.58s3.86,17.32-7,16.17C433.89,217.23,449.8,205.58,449.8,205.58Z"/><path class="l" d="M451.56,215.7s2,18.86-8.07,16.59C435.54,226.6,451.56,215.7,451.56,215.7Z"/><path class="l" d="M452.63,226.12s1.35,18-8.72,15.49C436.12,235.93,452.63,226.12,452.63,226.12Z"/><path class="l" d="M425.34,176.2s12.18,14.74,1.59,18.18C416.47,193.82,425.34,176.2,425.34,176.2Z"/><path class="l" d="M414,189.1s5.64,17.1,13.83,11.07C432.72,192.05,414,189.1,414,189.1Z"/><path class="l" d="M433.06,187.37s8.43,16.11-1.89,17.62C421.69,202.71,433.06,187.37,433.06,187.37Z"/><path class="l" d="M414,192.21s10.21,13.29.91,15.52C405.77,206.57,414,192.21,414,192.21Z"/><path class="l" d="M403.4,202.06s4.32,14.87,11,9.74C418.43,204.82,403.4,202.06,403.4,202.06Z"/><path class="l" d="M419.11,201.5s6.63,14.67-2,15.25C409.36,214.07,419.11,201.5,419.11,201.5Z"/><path class="l" d="M417.39,198.79s4.77,17.24,13,11.6C435.55,202.54,417.39,198.79,417.39,198.79Z"/><path class="l" d="M438.22,198.73s5.49,18.34-5.45,18C423.46,212.5,438.22,198.73,438.22,198.73Z"/><path class="l" d="M406.25,210.16s2.82,14.4,10.15,10.36C421.27,214.45,406.25,210.16,406.25,210.16Z"/><path class="l" d="M421.67,211.38s5.59,13.85-3.18,13.88C410.76,222.35,421.67,211.38,421.67,211.38Z"/><path class="l" d="M420.83,207.83s1.8,18,11.14,13.84C438.55,214.75,420.83,207.83,420.83,207.83Z"/><path class="l" d="M441.66,209.77s3.18,19.38-7,17.75C426.39,222.2,441.66,209.77,441.66,209.77Z"/><path class="l" d="M407.89,217.48s2,15.78,9.58,11.84C422.68,223,407.89,217.48,407.89,217.48Z"/><path class="l" d="M423.53,221.11s4.15,14.52-4.52,13.81C411.67,231.32,423.53,221.11,423.53,221.11Z"/><path class="l" d="M423,218.18s.54,18,10,14.5C439.92,226.27,423,218.18,423,218.18Z"/><path class="l" d="M443.47,221.76s.32,19.11-9.52,15.88C426.56,231.19,443.47,221.76,443.47,221.76Z"/><path class="l" d="M453.65,235.61s-.46,18.3-10,14.8C436.56,243.92,453.65,235.61,453.65,235.61Z"/><path class="l" d="M409.59,226s-.46,15.21,7.9,12.8C423.83,233.82,409.59,226,409.59,226Z"/><path class="l" d="M425.42,231.56s1.87,15.88-7.34,13.61C410.82,240.1,425.42,231.56,425.42,231.56Z"/><path class="l" d="M423.63,227.62s-.86,18.24,8.78,15.49C439.76,237.19,423.63,227.62,423.63,227.62Z"/><path class="l" d="M444.72,232.76S443.3,251,434.13,247C427.6,240.1,444.72,232.76,444.72,232.76Z"/><path class="l" d="M410,234.63s-2.11,15.26,6.45,13.6C423.26,243.75,410,234.63,410,234.63Z"/><path class="l" d="M425,241.17s.71,15.89-7.25,13C411.68,248.73,425,241.17,425,241.17Z"/><path class="l" d="M409.51,243.11s-2.44,14.71,6.23,12.88C422.71,251.5,409.51,243.11,409.51,243.11Z"/><path class="l" d="M453.57,246.39s-2.53,17-11.14,12.61C436.55,252.14,453.57,246.39,453.57,246.39Z"/><path class="m" d="M420.84,281.76s9.62.12,16-1.91c8.42-2.3,11.77-10.08,11.77-10.08a7.79,7.79,0,0,1,1.16,4.32c-.08,2.3-1.72,7.62-5.86,13.25-4.29,6.93-7.2,15.11-10.66,20.48-2.76,4.83-8.6,9.2-8.6,9.2s-18.57-2.22-20.37-2.6c-2.39-.36-18.8-4.15-22.49-4.35s-12,.33-12,.33,2.94-5.42,4.37-6.47c2.84-2.35,6.28-3.31,9.83-6.75,1.94-2.13,5.21-5.91,7.06-8,2.3-2.2,4-4.36,6.55-5.77,2-1.33,23.26-1.69,23.26-1.69Z"/><path class="g" d="M378.87,301.2s6.83.17,10.11.59c3.63.57,11.44,1.52,17.71,2.16A156.78,156.78,0,0,0,423.44,305l11.54-.53a45.79,45.79,0,0,1-2.42,4,24.43,24.43,0,0,1-4.44,5.22,44.43,44.43,0,0,1-3.51,3.06c-1.38-.15-10.11-1.2-13.64-1.69-5.8-.56-8.74-1.34-15.42-2.76-3.49-.71-11.58-2.41-13.69-2.53-2.37-.19-10.82.25-11.7.33.56-.91,1.22-2,2.14-3.57,1.31-2.21,2.32-2.78,4.16-4,.73-.47,2.33-1.31,2.39-1.33Z"/><path class="a" d="M441.85,290.45c-.54,1-2,3.86-3.22,6.42-1.62,3.51-2.51,5.41-3.7,7.71-2.57.19-5.08.27-11.49.47A157.22,157.22,0,0,1,406.69,304c-6.27-.64-14.08-1.58-17.71-2.15-3.29-.42-10.22-.59-10.22-.59a45.69,45.69,0,0,0,4.51-3.09c1.78-1.65,2.59-2.83,4-4.35,1.88-.15,4.5-.17,7.37-.37,5-.28,12.72.24,17,.24a166.57,166.57,0,0,0,17.68-.86c8.31-.6,10.32-2,12.47-2.39Z"/><path class="n" d="M448.77,271.49a22.56,22.56,0,0,1-4.6,5.65c-3.48,2.48-4.37,3-11.09,4.55-6.05,1-7.42.69-15.49.94-7.87.24-10.14.43-15.23.84A38.66,38.66,0,0,0,398,284"/><path class="o" d="M288.1,317.78a21.6,21.6,0,0,0-3.47.37c-7.71,1.34-13.51,5.85-32.71,10.39a65.87,65.87,0,0,1-21.19,2,1.59,1.59,0,0,1-1-1.49L227.8,328a3.56,3.56,0,0,0,0,3.36A4.29,4.29,0,0,0,229,333.2c13.88,9.88,14.24,12,22.22,19.54,4.4,4.34,5.73,5.71,20.39,3.39,2.89,4.69,3.52,7.13,11.86,4.71l1.4,3.51c1.3,2.42,3.07,2.46,7.58,1.5,11.68-2.51,15.06-5.36,28.4-5.66,13.34.29,16.72,3.14,28.41,5.66,4.51,1,6.29.92,7.58-1.5l1.4-3.51c8.34,2.42,9,0,11.86-4.71,14.66,2.33,16,1,20.39-3.39,8-7.53,8.34-9.66,22.23-19.54a4.29,4.29,0,0,0,1.2-1.85,3.55,3.55,0,0,0,0-3.36L412,329.06a1.59,1.59,0,0,1-1,1.49,65.87,65.87,0,0,1-21.19-2c-19.2-4.54-25-9.06-32.71-10.39-3.08-.54-6.47-.75-7.9,1.25-1.66,2-3,5.87-5.42,9.45-4.46-1.42-8-2.72-11.64-3.49a66.25,66.25,0,0,0-22.5,0c-3.65.77-7.19,2.07-11.64,3.49-2.38-3.58-3.75-7.42-5.42-9.45-.9-1.25-2.56-1.64-4.43-1.62Z"/><path class="p" d="M286.68,327.32a20.94,20.94,0,0,1,2.16,5.69"/><path class="a" d="M240.13,341.51c4.91-.53,6.34-.67,10.4-1.34,3.81-.7,7-1.39,10.37-2.32,1,1.54,2,3,3.07,4.55a36.13,36.13,0,0,1,2.88,5.26c-3.08.28-5.63.75-8.87,1.16-2.78.36-6,.8-9.23,1.2-1.25-1.23-2.2-2.23-3.57-3.64-1.66-1.67-2.93-3-5.06-4.87Z"/><path class="a" d="M274.57,340.47a66.06,66.06,0,0,0-9.26,2.34c1.88,3.28,2.94,6.38,4.25,9.1,3.8-.86,5.74-1.26,9.42-2l-1.87-4Z"/><path class="g" d="M248.74,350c3-.36,6-.77,9.06-1.17,3.59-.48,6-.89,9.31-1.22.68,1.58,1,2.44,1.84,4.22.68,1.49,1.57,2.9,2.24,4.1-2.19.3-3.86.56-6.26.81a31.3,31.3,0,0,1-5.63.17,9.14,9.14,0,0,1-5.41-2c-1.19-1-3.08-2.88-5.15-4.88Z"/><path class="g" d="M269.56,351.91c3.28-.77,6.23-1.39,9.69-2.08.82,2,1.15,2.89,1.85,4.94s1.35,3.93,2,5.9a24.29,24.29,0,0,1-4.1.82,5.46,5.46,0,0,1-4-.91,17.47,17.47,0,0,1-3.24-4.52c-.87-1.55-1.47-2.5-2.27-4.15Z"/><path class="a" d="M318.94,336.88a51.11,51.11,0,0,0-6.72.75c-5.56,1.36-8.88,2.52-12.69,3.8-6.74,2.25-8.86,3.29-12.65,4.44-3,.92-5.13,1.41-7.86,2,1.31,3.11,2.29,6,3.47,9.34a75.26,75.26,0,0,0,9.59-2.23c3.83-1.26,7.2-2.34,11.32-3.59a77.18,77.18,0,0,1,10.86-2.5c1.9-.18,3.28-.29,4.72-.34h0l1.85,0,1.85,0h0c1.44,0,2.82.16,4.72.34a77.18,77.18,0,0,1,10.86,2.5c4.13,1.25,7.49,2.32,11.32,3.59a75.28,75.28,0,0,0,9.59,2.23c1.18-3.39,2.16-6.23,3.47-9.34-2.73-.63-4.86-1.12-7.86-2-3.79-1.16-5.91-2.19-12.65-4.44-3.81-1.28-7.13-2.44-12.69-3.8a51.12,51.12,0,0,0-6.72-.75,32.72,32.72,0,0,0-3.8,0Z"/><path class="g" d="M319.22,348.57h0a45.58,45.58,0,0,0-10.1,1.32c-7.81,1.82-14.64,4.49-19.13,5.72-2.64.67-4.93,1.14-7.48,1.65a73.53,73.53,0,0,0,2.71,7.24c1,1.64,2.44,1.83,4,1.65a68.56,68.56,0,0,0,7.09-1.48c5-1.35,9.13-2.75,13.93-3.73a56.19,56.19,0,0,1,21.17,0c4.8,1,8.91,2.38,13.94,3.73a68.65,68.65,0,0,0,7.09,1.48c1.57.18,3,0,4-1.65a73.54,73.54,0,0,0,2.71-7.24c-2.55-.51-4.84-1-7.49-1.65-4.49-1.23-11.31-3.9-19.13-5.72a45.68,45.68,0,0,0-10.1-1.32h-3.23Z"/><path class="p" d="M355,327.45a35.35,35.35,0,0,0-2.2,5.57"/><path class="a" d="M401.54,341.51c-4.91-.53-6.34-.67-10.4-1.34-3.81-.7-6.95-1.39-10.37-2.32-1,1.54-2,3-3.08,4.55a36.29,36.29,0,0,0-2.88,5.26c3.08.28,5.63.75,8.87,1.16,2.78.36,6,.8,9.23,1.2,1.25-1.23,2.21-2.23,3.57-3.64,1.66-1.67,2.93-3,5.06-4.87Z"/><path class="a" d="M367.11,340.47a66.12,66.12,0,0,1,9.26,2.34c-1.89,3.28-2.94,6.38-4.25,9.1-3.81-.86-5.74-1.26-9.42-2l1.87-4Z"/><path class="g" d="M392.93,350c-3-.36-6-.77-9.05-1.17-3.59-.48-6-.89-9.31-1.22-.68,1.58-1,2.44-1.84,4.22-.68,1.49-1.57,2.9-2.24,4.1,2.18.3,3.86.56,6.26.81a31.3,31.3,0,0,0,5.63.17,9.14,9.14,0,0,0,5.41-2c1.19-1,3.08-2.88,5.14-4.88Z"/><path class="g" d="M372.11,351.91c-3.28-.77-6.23-1.39-9.69-2.08-.82,2-1.15,2.89-1.85,4.94s-1.35,3.93-2,5.9a24.23,24.23,0,0,0,4.1.82,5.46,5.46,0,0,0,4-.91,17.43,17.43,0,0,0,3.24-4.52c.87-1.55,1.47-2.5,2.27-4.15Z"/><path class="q" d="M272.43,335.91c.79,2.18,2.5,5,3.61,7.32.47.91,2,4.12,3.12,7.05"/><path class="q" d="M258.3,333.6c1.83,2.86,3.54,5.49,5.5,8.29A35.11,35.11,0,0,1,267,348"/><path class="q" d="M383.33,333.9c-1.83,2.86-3.5,5.19-5.46,8a35.22,35.22,0,0,0-3.2,6.12"/><path class="q" d="M369.23,335.7c-.78,2.18-2.49,5.18-3.61,7.53-.47.91-2,4.12-3.12,7.05"/><path class="p" d="M228.68,328.49a1.67,1.67,0,0,0,.13,1.58,2.72,2.72,0,0,0,1.74,1.34,68.55,68.55,0,0,0,17.91-1.15,168.08,168.08,0,0,0,21.27-6.12c4.35-1.57,9.53-3.79,12.64-4.64,3.91-1.05,7.73-1.71,9.09-.05,1,1.53-2.27,3.32-5.55,4.41a68.07,68.07,0,0,1-11.22,2.25,112.19,112.19,0,0,0-12,2.65c-2.26.73-4.85,2.57-4.57,4.18.47,2.1,3.47,1.5,6.14.62L282,326.8c2-.74,4.19-.49,4.65.6s.08,2.65-2.64,3.2L275.56,332c-3,.55-3.35,2.74-3.12,3.52s1.48,2,5.1,1.1c8.33-2,14.13-4.93,19.51-6.59,13.11-4.45,15.55-4.79,23.77-4.82,7.93,0,10.44.29,23.79,4.82,5.38,1.66,11.19,4.55,19.51,6.59,3.63.87,4.81-.41,5.06-1.23s-.19-2.51-3.08-3.4l-8.49-1.43c-2.73-.55-3-2.09-2.65-3.2s2.63-1.33,4.65-.6l17.73,6.77c2.67.89,5.8,1.57,6.27-.53.28-1.61-1.8-3.41-4.7-4.27a112.25,112.25,0,0,0-12-2.65,68,68,0,0,1-11.22-2.25c-3.28-1.09-6.53-2.84-5.59-4.41,1.57-1.7,5.48-1,9.14.05,3.11.85,8.29,3.07,12.64,4.64a168,168,0,0,0,21.27,6.12,68.55,68.55,0,0,0,17.91,1.15,2.72,2.72,0,0,0,1.74-1.34,1.66,1.66,0,0,0,.13-1.58"/></svg>