<svg id="Multi_Jurisdiction" data-name="Multi Jurisdiction" xmlns="http://www.w3.org/2000/svg" height="480" width="640" viewBox="0 0 469.08 469.06"><defs><style>.cls-1{fill:#fff;stroke:#000;stroke-width:4px;}</style></defs><title>multi-jurisdiction</title><path class="cls-1" d="M562.05,240.89c0,128.42-104.11,232.53-232.53,232.53S97,369.31,97,240.89h0C97,112.47,201.09,8.36,329.52,8.36S562.05,112.47,562.05,240.89Z" transform="translate(-94.98 -6.36)"/><path d="M311.93,459.82c-1.18-.18-2.19-.75-2.26-1.25s-.15-1.29-.2-1.73c-.13-1.08-5.57-5.85-9.14-8a9,9,0,0,1-3.84-4.4c-.53-1.47-1.25-2.67-1.59-2.67s-.61-.5-.61-1.12a3.72,3.72,0,0,0-1.64-2.28c-.89-.62-1.41-1.51-1.12-2s.05-.65-.69-.37-1.2,0-1.2-1.41c0-1.18-1.34-3.27-3.58-5.63-3.7-3.84-5.29-8.56-3.61-10.69a9.91,9.91,0,0,0,1.28-3.09,8.33,8.33,0,0,1,2.82-3.84c2.75-2,2.83-2.78.68-6.43-.9-1.52-1.43-3.29-1.17-4s-1-4.15-2.75-7.76c-2.38-4.9-4.31-7.59-7.56-10.56-3.92-3.57-7.85-9-7.85-10.8,0-.37.53-.69,1.17-.69.79,0,1.17-.81,1.19-2.51a8,8,0,0,1,1.17-4c2-2.68.83-8.19-1.32-6.05a3.31,3.31,0,0,1-2,1c-1.43,0-1.25-2.28.23-2.84,2.25-.86-.55-1.79-5.5-1.81-2.56,0-5-.28-5.53-.59a19.49,19.49,0,0,1-2.9-4.61c-1.78-3.52-2.42-4.11-5-4.59-3.9-.73-8.69-.72-15.71,0-5.46.59-6.07.49-9.7-1.45-3-1.6-5.38-2.17-10.48-2.51-7.55-.51-8.18-.91-15-9.56a88.31,88.31,0,0,0-7.49-8.31c-2.32-2.15-3.24-3.48-2.67-3.88,1.39-1,.34-5.25-1.91-7.78a46.91,46.91,0,0,1-3-3.77c-.54-.81-1.69-2.52-2.55-3.79a5.17,5.17,0,0,1-1-4.65,34.17,34.17,0,0,0,.62-6.2c0-2.47.49-4.29,1.27-5,1.63-1.55,3.24-5.43,2.25-5.43-.41,0-.76-1-.76-2.33s.3-2.32.67-2.32.63.61.58,1.35c-.21,3.05,1.34,1.88,1.62-1.23.21-2.25,0-3.2-.51-2.86-1,.63-1,.8.34-5.79.94-4.5,1.78-6.24,4.47-9.36,1.82-2.11,3.91-4,4.65-4.26a1.89,1.89,0,0,0,1.35-1.58c0-2.06,2.36-4.78,4.53-5.21a5.23,5.23,0,0,0,3.2-2.4c.82-1.54,1.46-1.87,2.87-1.52,1.12.29,1.83.12,1.83-.43a.77.77,0,0,1,1-.73,4.69,4.69,0,0,0,2.13-.34c.64-.27,2.08-.82,3.19-1.22,1.56-.57,2.13-1.43,2.51-3.72.65-4.12,5.31-8.87,9.9-10.08,4.35-1.15,7.6-5.17,7.07-8.77-.23-1.61-.78-2.33-1.76-2.33a2.46,2.46,0,0,1-1.89-.77,2.6,2.6,0,0,0-2-.78c-1.79,0-1.86-.63-.31-2.68a4.94,4.94,0,0,0,.69-3.89c-.35-1.89,0-3,1.92-5.37a18,18,0,0,0,3.94-10.71c0-1.81.45-2.23,3.19-3s3.41-.65,4.52.36a4.69,4.69,0,0,0,2.49,1.21,3.11,3.11,0,0,1,1.91.77,17.61,17.61,0,0,0,4.61,1.93c3.7,1.13,3.92,1.11,5.19-.42A11,11,0,0,0,259,190c.58-3.11-.19-8.08-1.26-8.08-.4,0-.74-.48-.74-1.09a1.85,1.85,0,0,0-1.17-1.53c-.68-.26-1.16-1.42-1.16-2.79,0-2.22.17-2.35,3-2.35,1.68,0,3.24.44,3.49,1s.23.13,0-.89c-.37-1.47-.21-1.76.73-1.4a1.13,1.13,0,0,0,1.53-.47c.22-.64.82-.49,1.91.48,1.5,1.33,1.74,1.34,4.57.09l3-1.32-2.72-.68a61.16,61.16,0,0,0-8.53-1l-7.18-.38c-2.1-.13-1.6-1.38.77-1.91A11.16,11.16,0,0,0,259,166c1.26-1,1.34-1.33.47-1.87-1.43-.88-.51-3.15,1.29-3.15,1,0,1.41-.58,1.38-2.13,0-1.87.24-2.1,2.1-1.91s2.12,0,2-1.94c-.05-1.32-.23-1.63-.44-.81a1.78,1.78,0,0,1-1.54,1.35c-.73,0-1-.44-.76-1.15.37-1,.19-1-1.08-.2a3.47,3.47,0,0,0-1.52,2.58,4.32,4.32,0,0,1-1.36,2.82c-1.57,1.37-8,2.48-10.29,1.76s-2-4.07.42-5.2c1.17-.53,1.81-1.33,1.56-2-.61-1.58,1.91-5,3.3-4.5a2.94,2.94,0,0,0,2.57-.84,4.11,4.11,0,0,1,3.27-.92,2.42,2.42,0,0,0,2.75-1.07c.55-.88.59-1.42.11-1.42-1.38,0-.84-1.55.58-1.64s1.29-.11,0-.44c-1.83-.48-1.71-1.33.47-3.69,1.88-2,4.37-2.66,4.37-1.1,0,.62.34.6,1.13-.07a1.92,1.92,0,0,1,2-.4c.47.29,1.55-.09,2.38-.85,1.21-1.1,1.71-1.18,2.47-.41s.43,1.43-1.58,3.24c-2.18,2-2.32,2.28-1,2.28,2.06,0,2.06,2.42,0,4.27-1.8,1.63-1.59,4.26.86,11.07,1.68,4.69,2,10,.51,10.46-.53.19-.74.6-.46.9.86.94,5-1.65,7.16-4.56,1.91-2.5,2.46-2.76,5.9-2.76,4.19,0,4.32-.17,5.06-6.12.58-4.62,1.23-5.55,4.72-6.74,2.32-.8,3.12-.82,3.58-.1.35.55.6-.11.6-1.58,0-2.78-1.09-3.22-3.52-1.38a7.56,7.56,0,0,1-3.84,1.16c-3.46,0-4.51-2.17-3.85-8,.72-6.28,1.94-8.45,5.74-10.16,1.74-.79,3.16-1.7,3.16-2s1.23-1.06,2.73-1.59c1.84-.67,3.64-2.3,5.49-5,1.52-2.2,3.61-4.46,4.64-5s1.74-1.15,1.56-1.33-1.08.09-2,.58-1.87.72-2.1.49c-.62-.62,4.43-5.06,7.67-6.74A12.44,12.44,0,0,0,321,106c.27-.44,1.51-.8,2.77-.8s2.28-.28,2.28-.62c0-.92,4.63-2.31,7.87-2.37a6.43,6.43,0,0,1,4.89,1.86,7.08,7.08,0,0,0,3.19,1.91c.62,0,1.13.35,1.13.78s.69.77,1.54.77c2.75,0,11.48,4,12.38,5.73a3.72,3.72,0,0,0,2.85,1.75c1.81.11,1.86,0,.74-1.22a4.82,4.82,0,0,1-1.21-2.63c0-.72-.36-1.3-.78-1.3s-.78-.56-.78-1.25c0-1,.58-1.17,2.53-.89a18.53,18.53,0,0,1,3.87.93c1,.43,2.08-.24,4.19-2.58a10.68,10.68,0,0,1,5.44-3.66c5-.93,2.07-4.2-3.22-3.61a10,10,0,0,1-5.64-.88c-2-1.05-2.49-1.81-2.88-4.93-.26-2-.67-4.56-.91-5.62-.94-4.26-.52-6.43,1.57-7.95,1.12-.82,2-2,2-2.65s.55-1,1.35-.88c1.06.21,1.29.86,1.06,3-.17,1.48-.34,5.25-.37,8.39-.06,5,.14,5.88,1.68,7.13,2.31,1.87,9.07,3.13,13,2.43l3.11-.57-2.14-1.86a6,6,0,0,1-2.13-3.41,4.91,4.91,0,0,0-1.08-2.77,10.26,10.26,0,0,1-1.64-3.85c-.53-2.52-.48-2.6,1.42-2.13,1.72.43,2,.22,2.22-1.63l.24-2.13,1.74,1.88c1.42,1.52,1.75,1.63,1.75.57,0-.72-.38-1.31-.86-1.31s-.72-.81-.49-1.94.1-1.94-.24-1.94-.82-1.48-1.1-3.3c-1-6.56-1.3-7.4-2.79-7.8-2.13-.56-1.93-2.86.24-2.89,1.7,0,1.7-.05.19-.9a7.67,7.67,0,0,1-2.12-1.72c-.39-.58-.57-.59-.58,0s-2.25,1.27-5,1.82c-5.23,1-6.91.68-9.07-2-1-1.23-.89-1.3,1.55-.82a5.64,5.64,0,0,0,4.54-.71,5.07,5.07,0,0,1,3.75-.77c1.11.28,1.87.13,1.87-.36s1.17-.67,3.38-.34c2.69.4,3.47.26,3.86-.72.58-1.54,2.89-1.56,7.69-.11,3.58,1.09,3.69,1.07,3.69-.51A3.8,3.8,0,0,1,395,52c1.24-.94,1.17-1-.73-1.06-2.48,0-3-.71-2.44-3,.36-1.36,1-1.7,3.64-1.74,1.76,0,2.77-.24,2.24-.45a1.69,1.69,0,0,1-1-1.47c0-2.8-8-5-10.67-3s-8,.77-8-2a2.52,2.52,0,0,0-.77-2,1.44,1.44,0,0,1,.85-2.72,2.06,2.06,0,0,1,2,1.55c.22.85.77,1.55,1.22,1.55A4.84,4.84,0,0,1,383.65,39c1.31,1.18,1.44,1.18,1.89,0a2,2,0,0,1,1.57-1.27c1.29,0,1.43-1.24.24-2a1.86,1.86,0,0,1-.47-2c.27-1-.39-1.88-2.27-3-2.65-1.56-3.47-3.12-1.67-3.19,1.58-.06-5.76-3.6-8.72-4.22A80.85,80.85,0,0,1,363,18.68c-4.7-2.27-9.33-4.35-10.29-4.63-2-.58-2.37-2-.59-2,.64,0,1.17-.35,1.17-.77s.52-.77,1.16-.77,1.16.35,1.16.77,1,.78,2.14.78a11.65,11.65,0,0,1,4.46,1.24c3.13,1.65,10.47,2.43,10.47,1.12,0-.61.51-.77,1.36-.44s5.37,1.37,10.28,2.42a100.14,100.14,0,0,1,10.48,2.62c3.82,1.79,7.68,3.12,9.06,3.12a10.58,10.58,0,0,1,3.78,1.18c2.06,1.07,2.29,1.07,2.29,0,0-.65.36-1.18.79-1.18s.77.53.77,1.16a1.28,1.28,0,0,0,1.37,1.17,26,26,0,0,1,5.63,1.62,59.41,59.41,0,0,0,7,2.2c3.11.64,10.82,4.62,10.82,5.59s-8.84-1.08-15.9-3.53c-.85-.3-.24.26,1.35,1.25s2.91,2.23,2.91,2.77a.91.91,0,0,0,.8,1c.43,0,2.28,1.35,4.07,3A89.94,89.94,0,0,0,441,46.23a87.65,87.65,0,0,1,10.58,7.14c1.54,1.45,2.63,2,3,1.46A1.24,1.24,0,0,0,453,52.94c-1.08.41-1.26.13-1.44-2.25a3.35,3.35,0,0,0-1.24-1.87c-2.33-1.82-.05-1.86,5.16-.11,5.42,1.82,7,2.91,5.6,3.79-.47.3-.27.7.5,1a2.73,2.73,0,0,0,2,0,1.8,1.8,0,0,1,1.82.43,6.77,6.77,0,0,0,3.47,1c1.73.06,2.33.41,2.19,1.31s.38,1.25,1.48,1.26c2,0,9.57,6.17,9.57,7.78s-1.08,1.38-2.79-.51a12,12,0,0,0-3-2.37c-1.84-.88,2.68,3.3,9.47,8.74a33.75,33.75,0,0,1,7.16,7.9c2.43,4.15,11.78,14.17,16.42,17.59L512,98.58l-2.91-4c-3-4.15-3.37-4.94-2.19-4.94,1,0,14.37,17.76,13.77,18.34-.27.27-1,0-1.67-.49-1.65-1.38-1.47-.58.37,1.54,1.53,1.78,2,3.1,1.08,3.1a30.73,30.73,0,0,1-4.47-4.26c-2.2-2.34-4.32-4.26-4.71-4.26a5.46,5.46,0,0,1-2.23-1.35c-1.51-1.34-1.51-1.33-.24,1.16.84,1.63,1,2.51.41,2.51s-.67.55-.42,1.21.15,1-.41.65c-1.79-1.09.21,1.2,2.37,2.74l2.2,1.57-.27-2.31c-.43-3.7,1-2.67,3.66,2.55,3.12,6.22,3.86,7.16,4.64,5.9.42-.67,1.76.31,4.34,3.16,4.21,4.63,6.24,7.65,9.71,14.4a34.93,34.93,0,0,0,4,6.33c2.73,2.78,3.63,4.05,4.79,6.85,1.48,3.52,1.46,5.34-.07,4.76-.91-.35-1-.15-.46.89,1,1.93,4,16.31,4,19.38a18.65,18.65,0,0,0,1.68,6.24c1.89,4.09,2.9,11.78,1.55,11.78-.46,0-1.23-1.48-1.7-3.3-1.39-5.39-1.66-6.15-2-5.76-.2.2.14,3.07.78,6.4,1,5.53,1.43,6.31,4.55,9.2,4.38,4,5.71,8.77,6.41,22.74.44,9,.36,10.28-.71,10.28a1.2,1.2,0,0,1-1.22-1.16,1.16,1.16,0,0,0-1.15-1.17,1.17,1.17,0,0,1-1.16-1.16c0-1.74-1.37-1.41-2,.47s.28,10,1.15,10c.35,0,.86,1.49,1.13,3.3.36,2.34,1,3.54,2.15,4.07,3.44,1.58,5.22,15.86,3.43,27.5-.63,4-1.51,7.47-2,7.63a1.48,1.48,0,0,0-.83,1.37c0,.61-.35,1.1-.78,1.1s-.77-.53-.77-1.17c0-1.47-3.2-8.43-4-8.79-1-.43-.7-1.83.63-2.8,1.1-.81,1-1.07-.78-2.24-2.57-1.69-2.61-4.35-.11-6.69,1.61-1.51,2.12-1.64,3.13-.81.66.55,1.42.79,1.7.51.79-.79-2.16-10.58-3.19-10.58-.53,0-1.51-2.58-2.28-6-2.32-10.38-3-12.86-4.64-17.64l-1.64-4.65-.8,4.2c-.77,4-2.38,6-3,3.81-.16-.57-.71-2.52-1.2-4.33s-1.19-3.3-1.54-3.3a14.3,14.3,0,0,1-3.62-2.72,17.48,17.48,0,0,0-3.39-2.7c-.82,0-5.47,11-5.47,12.92a26.32,26.32,0,0,1-1.08,5.53c-1.29,4.34-2.94,13.76-2.86,16.31a17.7,17.7,0,0,1-1.81,5.7c-1.72,3.6-1.79,4.09-.76,6.54a21.12,21.12,0,0,1,1.18,6.32c.1,4.38,1.2,8.47,2.51,9.28,1.94,1.2,4.36,5.55,4.36,7.85,0,2.95-1.38,6.08-3,6.68s-2.34-.76-3-5.26q-.84-6.17-3,.43c-.63,1.92-1.26,2.53-2.69,2.53s-2.33-.88-4.08-4.27c-1.21-2.34-2.55-4.38-3-4.52s-1.64-2.06-2.68-4.27a29.35,29.35,0,0,0-3.78-6,12.5,12.5,0,0,1-2.4-3.68c-.3-.93-.89-1.69-1.34-1.69s-.62-.48-.4-1.07-.43-2.32-1.47-3.84a12.41,12.41,0,0,1-1.87-3.54c0-.43-1.27-.62-2.94-.42a10.09,10.09,0,0,1-6-1.21,15.33,15.33,0,0,0-4.06-1.56,1.06,1.06,0,0,1-1-1.1c0-.61-1.07-1.34-2.38-1.62s-2.57-1-2.8-1.63a4.76,4.76,0,0,0-2-1.94c-1.22-.65-2-.52-3.6.64a26.67,26.67,0,0,1-4.76,2.56,16.71,16.71,0,0,0-4.23,2.5c-.84.77-1.88,1.26-2.33,1.1a12.7,12.7,0,0,0-4.3.75c-4.35,1.31-8.71,1.35-9.93.13s-1.23,1.21.21,4c1.31,2.54,2.91,3.34,5.39,2.72,1.07-.27,2.86.22,4.67,1.29,2.72,1.6,2.89,1.9,2.43,4.51-.27,1.54-.68,4.1-.93,5.7-.27,1.76-.86,2.91-1.52,2.91s-1.09.94-1.09,2.92-.44,3.19-1.55,3.88a3.49,3.49,0,0,0-1.56,2.58,2.07,2.07,0,0,1-1.59,2,3.18,3.18,0,0,0-2,2.58,3.13,3.13,0,0,1-2.09,2.59c-2.58.66-7.35,5-7.62,6.89-.15,1.08-1.72,2.69-4.12,4.27a55.61,55.61,0,0,0-5.71,4.24c-2.32,2.14-9.51,6.79-10.52,6.79a8,8,0,0,0-2.86,2,7.65,7.65,0,0,1-4.64,2.13c-2.28.11-2.72-.24-4.3-3.37-2.2-4.37-2.76-6-3-8.85-.15-1.58-1.41-3.35-4.12-5.82-2.15-2-4.11-4.28-4.36-5.17a5.67,5.67,0,0,0-3-2.71c-2-.86-2.75-1.88-3.58-4.59-1.79-5.86-3.36-8.55-5.3-9a5.74,5.74,0,0,1-3-2.7c-.64-1.23-1.46-2.24-1.82-2.24s-.88-.79-1.14-1.74c-.83-3-5.4-7.7-6.91-7.13a2,2,0,0,0-1.32,1.68c0,1.49,4,8.56,6.19,10.88.9,1,1.45,2.06,1.21,2.45-.57.92.33,3.16,1.27,3.16,2.18,0,5,4.73,5.72,9.69.41,2.76,1,3.78,2.78,4.83a13,13,0,0,1,3.93,4.84,15.85,15.85,0,0,0,2.51,4.07c.56.39.52.58-.13.58s-.74.54-.49,1.18c.59,1.53,1.83,1.49,1.83-.06,0-.82.57-1.14,1.74-1s1.75.78,1.75,1.8,1.25,2.38,3.28,3.75c4.91,3.28,7.65,6.09,8.24,8.44.85,3.44,3.07,4.08,7.33,2.15,2-.91,4.17-2,4.81-2.38a18.3,18.3,0,0,1,2.32-1.2c5-2,9.81-4.51,10.33-5.42a2.67,2.67,0,0,1,2.13-1.09c1.13,0,1.51.53,1.51,2.17a5.23,5.23,0,0,0,1,3.15c.78.79.71,1.13-.36,1.73a1.64,1.64,0,0,0-.91,1.82c.22.59-.36,2.56-1.29,4.39s-2.54,5.55-3.56,8.28c-2.92,7.77-6.68,12.9-16.86,23-14.06,14-21.47,22.91-19.07,22.91,1.21,0,.82,3-.43,3.24-1,.22-1,.51-.07,2.34,1.25,2.39,1.2,3.82-.2,5.51s-.38,4.95,1.48,5.43c1.33.35,1.48,1.1,1.37,7.25l-.13,6.86-3.2,3.09a23.14,23.14,0,0,1-7.2,4.53,15.63,15.63,0,0,0-5,2.57,16.3,16.3,0,0,1-4,2.68c-3.3,1.7-4.31,3.28-3,4.81,1,1.2.31,6.39-1,7.4a25.9,25.9,0,0,1-4.84,2c-3.33,1.09-4.18,1.78-5.3,4.24-1.33,3-1.59,3.15-12.32,8.82-6.57,3.48-10.9,4.31-24.19,4.7C319.65,460,313.1,460,311.93,459.82Zm60.86-52.9c-.64-1.63-1.54,2.81-1,5,.3,1.2.51,1,.94-1.09A8.9,8.9,0,0,0,372.79,406.92Zm-16.44-10.83c0-.38-.72-.88-1.6-1.1-1.31-.34-1.43-.22-.68.68C355.1,396.9,356.35,397.13,356.35,396.09Zm11.19-17.92c1.59,0,3.79-2.92,3.25-4.32-.36-1-1-1.13-2.61-.74-1.17.28-2.25.85-2.38,1.24a1.4,1.4,0,0,1-1.28.72c-.55,0-1.15,1-1.34,2.3-.28,1.85,0,2.33,1.27,2.51.88.13,1.72-.21,1.86-.74A1.35,1.35,0,0,1,367.54,378.17ZM555.73,274.74c-.74-.68-.85-.56-.45.54a13.32,13.32,0,0,1,.6,2.71c.07.71.27.47.45-.54A3.32,3.32,0,0,0,555.73,274.74Zm-.73-2.44c0-1.48-.48-1.48-1.05,0-.25.64-.12,1.17.3,1.17S555,272.95,555,272.31Zm-121-5.71c0-1.09.12-1.11.74-.11,1,1.54,1.71.71,4.65-5.22,1.32-2.67,2.74-4.85,3.15-4.85a.86.86,0,0,0,.73-1c0-.54-.9,0-2,1.26-2.47,2.81-7.41,3.59-11,1.74a5.88,5.88,0,0,0-3.6-.79c-1.16.44-6.67-4.52-6.67-6a.76.76,0,0,0-.82-.67c-.46,0-.6-.34-.34-.77s.11-.77-.35-.77-.83.78-.83,1.74c0,1.41-.15,1.52-.76.58s-.76-1-.77.13a2,2,0,0,1-1,1.72c-.66.28-.42.82.78,1.71a4.12,4.12,0,0,1,1.74,2.33c0,.58.49.85,1.11.62s1.66.45,2.51,1.77a18.8,18.8,0,0,0,2.58,3.23c.64.56.8.84.34.61s-.85,0-.85.6a1.06,1.06,0,0,0,1.1,1c.74,0,1-.61.76-1.82-.3-1.57-.11-1.75,1.29-1.33,2.1.64,2,.48,2.77,3.26.47,1.66.4,2.5-.22,2.77s-.59.59.19,1.13C430.62,270.43,433.93,268.42,434,266.59ZM315.23,254.86c.34-3,.73-3.66,3.1-4.84,3.52-1.75,6.62-1.72,8.43.09a10,10,0,0,0,4.47,2,13,13,0,0,1,3.79,1.18,10.68,10.68,0,0,0,3.49,1.05c1.49.24,4.47.76,6.59,1.17,3.32.62,4.19.51,6-.74,2.16-1.54,6-1.91,10.76-1.05,3.57.65,4.05,0,6.1-8.21s1.52-12.58-1.44-13a2.5,2.5,0,0,0-2.49.91c-1,1.78-5.15,2.44-6.72,1.07-2.06-1.81-4.79-2.42-4.79-1.07,0,2.23-4.07,2.77-6.05.79-1.2-1.2-1.32-1.16-1.71.52-.43,1.84-2.32,3.13-2.32,1.6a5.45,5.45,0,0,0-1.61-2.45c-.88-.88-1.41-2.13-1.17-2.77.33-.86.06-1-1.1-.65s-1.54.13-1.54-.77c0-.69.35-1,.77-.79s.77.11.77-.34-.53-.82-1.2-.82c-.93,0-1.16-.78-1-3.48.1-1.91-.06-3.71-.35-4s-.54-.13-.54.37a1.06,1.06,0,0,1-1.16.9,1.16,1.16,0,0,1-1.16-1.16c0-.63.35-1.16.77-1.16s.77-.58.77-1.29c0-1-.3-.93-1.52.48a8.38,8.38,0,0,1-4,2.26l-2.42.49,2,2.17c1.14,1.23,2.4,1.93,2.91,1.62s.69-.22.44.18,1,2.25,2.67,4.12c2.68,2.9,2.95,3.48,1.87,4.09-.69.38-1.06,1-.81,1.43s.13.73-.28.73-.94-.52-1.18-1.15a1.22,1.22,0,0,0-1.63-.69c-.85.32-1.2,0-1.2-1.2,0-2-2.21-3.06-3.17-1.53a7.62,7.62,0,0,0-.7,3.21c0,1.17-.36,2.13-.79,2.13a.71.71,0,0,1-.77-.61c0-.33-1-1-2.32-1.48-1.57-.59-2.33-1.41-2.33-2.5,0-.89-.5-1.62-1.12-1.62-1.62,0-2.36-1.61-1.12-2.4.78-.48.81-.68.1-.68-.53,0-1-.69-1-1.52a2.59,2.59,0,0,0-.79-2c-1.47-.91-3-5.85-2.59-8.13.36-1.79,0-2.65-1.65-4.2a15.55,15.55,0,0,0-4.74-2.82c-1.45-.47-2.64-1.24-2.64-1.69a6,6,0,0,0-1.74-2.52c-2.89-2.8-4.47-5-4.47-6.24,0-1.76-1.52-1.37-2.28.6-.52,1.35-.25,2.19,1.2,3.73a6.76,6.76,0,0,1,1.86,3.19c0,1.87,3,5.3,4.72,5.3.82,0,1.49.46,1.49,1s1.58,2.12,3.5,3.48c3.54,2.5,4,3.52,2.74,5.58-.62,1-1,.88-2.36-.6-.9-1-2-1.53-2.43-1.26s-.52.76,0,1.33a3.53,3.53,0,0,1,.85,2.16c0,1.83-3.93,6.13-5.6,6.13-1,0-1.38.61-1.38,2.33,0,2.58-1.46,3.08-3.38,1.16a4.1,4.1,0,0,0-1.68-1.16c-1.18,0-5-3.29-5-4.31,0-1.38,3.72-2.37,4.8-1.29s6.2.28,7-.93-.1-4.32-2.14-6.15c-4.2-3.75-6-5.17-6.46-5.19-.29,0-1.55-1.41-2.8-3.1s-2.74-3.08-3.3-3.08a.93.93,0,0,1-1-.78.81.81,0,0,1,.84-.77c1.13,0,0-3.25-1.46-4.35-.89-.65-1.78-.57-3.57.32-4.57,2.27-5.1,2.47-6.15,2.47a11.87,11.87,0,0,1-3.53-1.24c-3-1.51-4.74-1-4.74,1.51,0,2.23-.93,3.06-5,4.48s-8.31,5.18-7.74,6.93c.46,1.46-3.94,6.46-5.06,5.76-.36-.22-1.17.13-1.82.77-1.34,1.34-3.44,1.49-6.2.44-2.56-1-5.18-.19-5.18,1.55s.75,2.23,3.62,2.45a6.09,6.09,0,0,1,3.16,1.09c.64.63,1.66.71,3.1.27,8.48-2.62,10.37-2.71,25-1a75.55,75.55,0,0,0,8.38.4c2.87-.06,4.23.25,4.52,1a1.18,1.18,0,0,0,1.52.68c.73-.28,1.1.12,1.1,1.24a2.31,2.31,0,0,1-1.13,2.08c-.89.35-.94.79-.27,2.11,2.29,4.44,2.32,4.59,1.27,5.26a5.25,5.25,0,0,1-2.31.67,2.06,2.06,0,0,0-1.75,1.22c-.26.69-.13,1,.32.72s1.95.77,3.38,2.29,3.36,2.77,4.3,2.77c3.09,0,8.6,3,8.6,4.69,0,1,.79,1.85,2.13,2.37,1.18.45,3.71,1.63,5.63,2.61C313.88,259.27,314.76,259,315.23,254.86Zm15.28-14.52c-1.23-.18-2-.73-1.87-1.24.35-1,.46-1.05,5.41-.21C340.89,240.07,337.61,241.41,330.5,240.34Zm27.39-.26c0-1.12,2-3.09,2.6-2.52.25.25,1.34-.13,2.42-.84,2-1.33,2.68-.73,1,.92-.51.51-.62.93-.24.93s0,.52-.81,1.14C361.14,241,357.9,241.28,357.9,240.07Zm-18.13-1.89c.58-1.48,1.07-1.48,1.07,0,0,.64-.34,1.17-.75,1.17S339.53,238.83,339.77,238.18Zm-41.62-2.72c0-1,.55-1,1.17,0,.26.43.11.77-.35.77A.79.79,0,0,1,298.15,235.47ZM281.76,221a4.8,4.8,0,0,1,.07-1.41,34.81,34.81,0,0,0,.15-4c0-2.49.28-3.17,1.28-3.09s1.22-.51,1-2.76.12-3,1.38-3.71,1.59-.64,1.55.91a11.66,11.66,0,0,1-.67,3.32,5.24,5.24,0,0,0,0,3.28c.49,1.31-.26,5.8-1.16,6.91C285,221,281.83,221.46,281.76,221Zm-17.34-4.86c-.68-1.1.19-2.37,1.63-2.37.67,0,1.07.54.92,1.29C266.67,216.61,265.12,217.26,264.42,216.13Zm4.24-1.55a.8.8,0,0,1,.78-.82c1,0,1,.55,0,1.16C269,215.18,268.67,215,268.67,214.58Zm64.49,15.24c-.64-.63-.86-.55-.86.32,0,1.55,1,2.59,1.42,1.43A2,2,0,0,0,333.16,229.82ZM419.45,219c1.14-.84,1.2-1.31.36-3.49-.53-1.38-1.23-2.51-1.56-2.51s-.61-.44-.61-1a13.71,13.71,0,0,0-1.55-3.88,13.45,13.45,0,0,1-1.55-4,3.28,3.28,0,0,0-1.16-2,4.09,4.09,0,0,1-1.17-2.81c0-1.34-.43-1.84-1.59-1.84a6.47,6.47,0,0,1-3.52-1.94,7.53,7.53,0,0,0-2.63-1.94c-.38,0-1.32-.81-2.1-1.79-1.9-2.4-3.8-3-5-1.62-.71.84-.73,1.59-.13,2.86a20.74,20.74,0,0,1,1.28,3.65,9.16,9.16,0,0,0,1,2.73c1.22,1.65,9,7.35,10,7.35a1.12,1.12,0,0,1,1.07,1.16,1.19,1.19,0,0,1-1.21,1.17c-1,0-1.15.85-1,4.46.21,4.1.39,4.49,2.17,4.72a5.88,5.88,0,0,1,2.67,1C414.4,220.28,417.91,220.13,419.45,219Zm-74.74-2.13c0-.43-.55-.78-1.21-.78s-1,.35-.73.78C343.39,217.86,344.71,217.86,344.71,216.86Zm9.91-5c3.09-2,10.26-3.35,10.26-2,0,.44.36.58.81.31a1.9,1.9,0,0,1,1.94.44c.64.52,3.38.93,6.22.93,4.21,0,5.4-.3,6.95-1.75,2.33-2.18,1.64-3.82-2.51-6-1.62-.85-4.85-2.55-7.2-3.81-4.57-2.44-6.19-2.46-9.43-.17-2.51,1.79-4.53,1.88-4.53.23a2,2,0,0,0-1.62-1.66c-1.1-.29-1.5-.87-1.23-1.87s0-1.44-1-1.44a2.06,2.06,0,0,1-1.82-1c-.52-1.26-3.57,2.38-3.59,4.27a4.53,4.53,0,0,1-1.58,2.69,5.19,5.19,0,0,0-1.55,3.48c0,1.18-.32,2.16-.69,2.16-1.31,0-1.59,3.45-.43,5.22C345.22,214.48,350.66,214.44,354.62,211.9Zm13.61-17.82a1.91,1.91,0,0,0-.4-1.88c-1-1-4.5.43-4.5,1.91S367.7,195.47,368.23,194.08Zm-56.54-32.69c1.83-1.39,4.44-1.47,5.74-.18.67.67,1.13.71,1.51.14a4.38,4.38,0,0,1,1.83-1.3c.81-.3,1.42-1.68,1.67-3.82a44.2,44.2,0,0,1,1.79-7.4c1.16-3.39,1.78-4.14,3.76-4.64s1.82-.65-2.29-1c-2.72-.23-4.78-.08-5,.37a6,6,0,0,1-3.75,3.05c-1.75.55-3,3-2.15,4.31.53.85-.9,4-2.23,4.85a5.73,5.73,0,0,1-2.59.58c-1.8,0-2.34,1.1-1,2,1.17.72.92,1.93-.39,1.93-.64,0-1.16-.35-1.16-.77s-.87-.77-1.94-.77-1.94.35-1.94.77.52.77,1.16.77a1.18,1.18,0,0,1,1.17,1.17C305.91,162.92,309.67,162.91,311.69,161.39Zm5.09-9.39a3.86,3.86,0,0,1,1.18-2.62c1.83-1.54,2-.55.34,2C317,153.4,316.78,153.47,316.78,152Zm-14,2.09c.91-.58.94-1,.17-2.51-.56-1.08-.77-1.21-.52-.35a2.37,2.37,0,0,1-.94,2.5C299.93,154.88,301,155.2,302.76,154.09Zm27.7-2.77c.67-1.75-1.21-3.73-2.5-2.65-.82.67-.84,1.16-.11,2.33C329,152.8,329.86,152.9,330.46,151.32ZM361,145.56c0-1.05-1.37-1.74-1.86-.94s.21,1.68,1.21,1.68A.69.69,0,0,0,361,145.56ZM338,142c.57-1.48.17-1.48-1.06,0-.56.67-.63,1.16-.17,1.16S337.76,142.66,338,142Zm-14.82-3.78c.64-.94.45-9-.22-9a13.17,13.17,0,0,0-2.79,2.17c-3.07,2.81-4,6.14-2.08,7.58A3.86,3.86,0,0,0,323.18,138.24Zm23.85.71c0-1-2.19-2.75-3.44-2.75-.79,0-.46,2,.5,2.95C345.37,140.44,347,140.32,347,138.95Zm-19-12.52c2.94-2.25,3.49-4.18,1.17-4.18-1.52,0-3.94,1.9-3.94,3.09a7,7,0,0,1-.47,1.88C324.17,129,325,128.76,328.08,126.42Zm24-1.86a2.2,2.2,0,0,0-1.79-.72c-1.08.05-1,.18.24.72C352.61,125.47,352.63,125.47,352.08,124.57Zm3.88-4.18c0-1.44-.45-1.62-3.93-1.62s-3.9.16-3.63,1.55.95,1.57,3.93,1.63C355.53,122,356,121.83,356,120.39ZM508,106c.24-.37-.07-1.09-.66-1.59-.89-.74-1-.62-.68.68C507.11,106.9,507.36,107.07,508,106ZM383.6,83.26c-.76-.76-.86-.67-.43.43.29.77.72,1.2,1,1S384.13,83.79,383.6,83.26Zm90.69-21.8a5,5,0,0,0-1.35-1.35c-1.23-1-1.26-.93-.29.3S474.3,62.1,474.3,61.46ZM418.42,29.6c0-.58-9.6-3.48-10-3s-.22.63,5.37,2.61Q418.42,30.84,418.42,29.6ZM402.66,435.72a15.82,15.82,0,0,1-.41-3.72c-.08-2.58.34-3.57,2.26-5.42s2.29-2.62,1.87-5.1c-.56-3.26,1.26-7.65,3.15-7.65,2.16,0,8.16-3.3,10.28-5.63,8.55-9.48,8.61-9.54,9.75-8.32,1.51,1.6,2.16,7.46.94,8.48-.53.44-1.2.57-1.48.3s-.51.42-.51,1.56-.35,2.07-.78,2.07a.77.77,0,0,0-.77.76c0,.9-5.19,9.28-9.7,15.68-2.36,3.36-3.93,4.73-6.54,5.72C406.78,436,403.12,436.54,402.66,435.72ZM444,416.21a.8.8,0,0,1,.77-.82c1,0,1,.55,0,1.16C444.38,416.81,444,416.66,444,416.21ZM260.13,368.13a.81.81,0,0,1,.78-.82c1,0,1,.55,0,1.16C260.48,368.73,260.13,368.58,260.13,368.13ZM130,361.29c-8.63-13.47-19.34-37.77-24.54-55.68-8.28-28.54-11.39-61.14-8.36-87.83,1.26-11.07,2.64-11.75,2.43-1.2-.38,19.52-.24,26.61.57,27.58.47.56,1.26,3.47,1.76,6.44a36.44,36.44,0,0,0,1.6,6.75,15.24,15.24,0,0,1,.72,5,47,47,0,0,0,1.08,8.35c.59,2.56,1.29,6.39,1.56,8.53.86,6.84,7.24,22.3,11.36,27.6a77.76,77.76,0,0,1,5.74,10.29c2,4.11,3.88,7.48,4.25,7.48.81,0,1.42,1.46,2.85,6.83,1.58,5.92,1.38,7.65-1.26,10.93l-2.36,2.94,2,6.13c2.25,6.83,4.2,14.28,3.75,14.28A31.9,31.9,0,0,1,130,361.29Zm313.25-49c1.53-1,3.32-1,2.72,0a2.86,2.86,0,0,1-2.18.76C442.41,313,442.31,312.86,443.25,312.25Zm-45-5.11c0-1.37,1.67-1.13,2.15.31.17.51-.24.92-.92.92A1.25,1.25,0,0,1,398.25,307.14ZM162.71,278.85c-.28-.45-.32-1-.1-1.24.55-.56,2.06.42,2.06,1.33S163.35,279.87,162.71,278.85Zm2.75-3.06c0-1,.55-1,1.17,0,.26.42.11.78-.35.78A.8.8,0,0,1,165.46,275.79Zm-4.07-5c-1.56-2.13-1.68-2.74-.58-2.74a.85.85,0,0,1,.77.91,4.87,4.87,0,0,0,1.29,2.33c.71.78,1,1.4.58,1.39S162.13,271.81,161.39,270.78Zm381-23.38a4.64,4.64,0,0,1-.52-2.56l.05-2,.74,1.87C543.46,246.73,543.29,248.32,542.37,247.4Zm-344.64-4.07c-.34-.54-.39-1.19-.14-1.44.69-.69,1.45.33,1.07,1.45C198.4,244.12,198.22,244.12,197.73,243.33Zm5.38-1.35c1.12-1.1,2.2-1.83,2.42-1.62.61.61-2.25,3.64-3.42,3.64C201.52,244,201.93,243.16,203.11,242Zm-8.16-1.86c0-.42.55-.77,1.21-.77s1,.35.73.77C196.27,241.13,194.95,241.13,194.95,240.12Zm5.43-17.83c0-1,.55-1,1.17,0,.26.43.11.77-.34.77A.8.8,0,0,1,200.38,222.29Zm-11.64-29.47c0-1,.55-1,1.17,0,.26.42.11.78-.34.78A.8.8,0,0,1,188.74,192.82Zm-4.3-6.24c-.71-1.15-.14-1.56,1.1-.79.67.4.75.81.23,1.13A1,1,0,0,1,184.44,186.57Zm-77.05-6.95c0-1.07.18-1.5.39-1a3.07,3.07,0,0,1,0,1.94C107.56,181.13,107.39,180.7,107.39,179.63Zm.48-7.06c-.58-1.5,1-8.44,1.89-8.44.63,0,.23,3.41-.92,7.73C108.46,173.27,108.21,173.45,107.87,172.57Zm8.71-27.84a.77.77,0,1,1,.77.78A.78.78,0,0,1,116.58,144.73Zm2.32-4.3c0-1,2.47-5.12,2.83-4.76s-1.84,5.19-2.46,5.19A.41.41,0,0,1,118.9,140.44Zm160.65-5.15a2.27,2.27,0,0,1,.81-1.83c1.36-.85,1.56,0,.35,1.64C279.72,136.42,279.57,136.43,279.55,135.29ZM122,134a1.69,1.69,0,0,1,.78-1.25c.42-.27.77-.14.77.29a1.71,1.71,0,0,1-.77,1.26C122.36,134.53,122,134.4,122,134Zm150.87-7.84c0-.85.46-1.56,1-1.56.79,0,.84.37.19,1.56C273.05,128.07,272.88,128.07,272.88,126.13Zm-100.15-4.85a6.41,6.41,0,0,1,.76-1.94c.39-.62.17-1-.6-1a1.18,1.18,0,0,1-1.21-1.14c0-.73.45-1,1.28-.64,1.29.49,1.25-.49-.22-5.45-.3-1,.07-1.54,1.2-1.83.89-.23,1.62-.66,1.62-1s.63-.57,1.41-.62c2.36-.18,7.92-2.87,7.65-3.71-.14-.43-1.06-.83-2-.88-2.06-.11-3.28-1.69-2.72-3.52a1.64,1.64,0,0,0-.4-1.8c-.45-.28-.81.14-.81,1a5.93,5.93,0,0,1-1.14,3c-1.78,2.36-1.49-.31.36-3.36,2.13-3.49,2-4.55-.87-5.12-3.81-.76-4-.6-1.73,1.35,2.09,1.8,2.1,1.88.8,3.88-.73,1.12-1.86,2-2.48,2s-1.15.31-1.15.69-.71.87-1.58,1.1-1.51.71-1.44,1.07c.34,1.72-1.18,5.69-2.16,5.69-.62,0-.93.31-.7.67s1.38.52,2.56.34c2-.31,2-.24.8.77a3.55,3.55,0,0,0-1.36,2.07c0,1.21-3.71.4-5.5-1.2a4.53,4.53,0,0,0-2.55-1.1c-1.11,0-1.18-.27-.44-1.65a4.53,4.53,0,0,1,2.36-2c.81-.21,1.47-.71,1.47-1.12s-.3-.55-.66-.32-1.06-.45-1.54-1.51-1.18-1.91-1.56-1.91c-1.17,0-4.75,3.15-4.56,4a1.23,1.23,0,0,1-.92,1.22c-.76.28-.94,0-.61-.86.27-.7.15-1.27-.26-1.27s-.75-.58-.75-1.29c0-1.19-.1-1.19-1.42,0a4.86,4.86,0,0,1-2.24,1.29c-.45,0-2.54,1.54-4.63,3.41-3.12,2.8-4.19,3.33-6,3s-2.57,0-4.09,1.83l-1.91,2.24,1.37-2.5c.75-1.37,4.36-6.5,8-11.39A232.71,232.71,0,0,1,283.1,12.59C305,8.2,331.39,6.39,344.45,8.34c3.77.56,6,1.15,5.06,1.31A3,3,0,0,0,347.29,11c-.25.65-1.49,1.1-3,1.1-2.84,0-4.28,1.22-2.1,1.79,1.14.3,1.1.37-.22.44a4.49,4.49,0,0,0-2.51,1c-.63.63-5.83,1-16.64,1.13-18.73.26-20,.4-25.47,2.81a34.86,34.86,0,0,1-8.23,2.34,20.91,20.91,0,0,0-5.44,1.25,17.14,17.14,0,0,1-3.7,1.26c-1.7.36-2,.66-1.2,1.16a2,2,0,0,0,1.7.3,7.27,7.27,0,0,1,3.33.37c1.63.45,2.89.47,3.16,0s0-.71-.53-.71-.71-.27-.25-.71c1.33-1.28,6.16-1.21,8,.1,1.69,1.18,1.71,1.3.36,2s-6.79,2-12,2.86c-2.12.35-3,.91-3.28,2.25-.42,1.67-.84,1.8-6.09,1.8-6,0-13.19,1.65-12.76,3,.35,1.07,4.27,1.47,5.43.56,3.16-2.5,11.07-3,10.16-.63-.47,1.22,1.74,2.33,2.42,1.22a2.55,2.55,0,0,1,2-.75,1.36,1.36,0,0,0,1.51-1.25c0-.82.42-1.09,1.22-.78a8.13,8.13,0,0,0,2.38.47c1,0,1,.15,0,1.18-1.89,1.89-.8,3.19,2.37,2.82,1.94-.23,2.63-.06,2.27.55s.58.88,3,.88,3.7.36,4,1.16a1.84,1.84,0,0,0,1.52,1.17c1,0,1.41,1,.89,1.91-.11.19.49.85,1.33,1.46,1.31,1,1.39,1.39.61,3.12a5,5,0,0,1-2.82,2.47l-1.9.48,1.67,1.68a6.75,6.75,0,0,0,3.37,1.83,14,14,0,0,1,4.1,1.38c1.89,1,2.35,1.67,2.14,3.21a4.16,4.16,0,0,1-1.38,2.67c-.84.54-.87.71-.1.72.56,0,.8.37.53.8s.07.77.73.77A1.19,1.19,0,0,1,309,66.83,1.12,1.12,0,0,1,308,68c-1.62,0-8.25,3.08-8.25,3.84,0,.37-.79.52-1.75.35s-1.31-.13-.78.13c.71.34.75.85.13,2-.46.85-1,1.35-1.29,1.11s-.84.1-1.31.76a4,4,0,0,1-2.28,1.4c-1.65.24-2.83,1.89-2.32,3.23.31.82-1.29,1.59-4,1.94a4.76,4.76,0,0,0-1.84,1,4.2,4.2,0,0,1-2.13.9c-1.2,0-7.27,5.65-7.27,6.76,0,.39-.75.49-1.65.21s-1.47-.23-1.14.28-5.67,2.25-7.29,1.91c-6.71-1.42-9.41-1.51-16.11-.6-2.74.38-4.43.27-5.17-.35s-1.73-.65-3.88.25c-1.53.64-2.79,1.48-2.79,1.86s-1.09.73-2.42.77-4.78,1.31-7.67,2.83c-6.22,3.27-7.38,3.45-6.6,1a22.57,22.57,0,0,0,.73-4.22c.22-3.16,2.81-6.52,10-12.91,6.69-6,16.08-10.88,16.08-8.38,0,.36.88.5,2,.3,1.83-.35,1.86-.45.58-1.44s-1.3-1.13.18-2.29a5.51,5.51,0,0,1,3.67-.92c1.56.22,2.25-.09,2.58-1.13.27-.85,3.13-2.68,7-4.49,7.5-3.49,10.52-6,9.9-8.4-.34-1.25.25-1.92,2.75-3.2A13.14,13.14,0,0,1,279.31,51a4.37,4.37,0,0,0,1.94-.45c.86-.38,2.34,0,4.15,1.15,2.27,1.4,2.95,1.54,3.47.69,1.43-2.31-4.72-3.88-17.68-4.52-2.3-.12-2.21-1.75.27-4.69,1.5-1.78,1.71-2.38.82-2.38a2.18,2.18,0,0,0-1.69.81c-.34.54-1.18.37-2.5-.48-1.76-1.15-2.62-1.2-7.16-.39a25.33,25.33,0,0,0-7.44,2.42,9.12,9.12,0,0,1-3.68,1.51c-.77,0-1.19.35-.93.78.8,1.29,3.51.86,6.05-.94s11.68-3,13.07-1.58-3,6.64-7.57,9c-2.34,1.19-4.46,2.67-4.69,3.3a1.81,1.81,0,0,1-1.52,1.13,1.06,1.06,0,0,0-1.1,1c0,1.06-6.21,4.46-8.11,4.46-.64,0-2.13,1.12-3.3,2.48-4.95,5.74-5.41,6-8.82,5.92L229.62,70l2.45-2.18a12,12,0,0,0,2.45-2.62c0-.81-3.36,1.38-5.79,3.79a15.54,15.54,0,0,1-5.37,3.3c-2,.6-2.66.62-2.09,0,1.44-1.44.9-2.38-.58-1-2.37,2.14-2.65,1.44-.76-1.92a25,25,0,0,1,5-5.86,14.85,14.85,0,0,0,4-4.95,5.42,5.42,0,0,1,2.83-3.06c2.62-1,2.7-1,2.7.41,0,1.62,2.32,2.4,3.17,1.06.49-.77.69-.8.7-.11a.93.93,0,0,0,.87,1c.49,0,.68-.69.45-1.59-.3-1.15.06-1.78,1.3-2.25a8,8,0,0,0,2.75-1.89,4.24,4.24,0,0,1,2.87-1.25c1,0,1.84-.31,1.84-.69s-1.2-.4-2.91,0a19.66,19.66,0,0,1-6.15.23c-2.79-.39-3.74-.11-6.84,2-2,1.36-3.84,2.24-4.13,2s.1-1,.87-1.55c1-.69,1.12-1.2.53-1.56-1.38-.85,1.52-3.61,3.23-3.06,2.09.67,3.21-.31,1.88-1.63a3.7,3.7,0,0,0-1.85-1.12,3.09,3.09,0,0,1-1.7-1.16c-1.22-1.47-5.22-1.48-7.76,0-1.07.61-3.13,1.65-4.58,2.32a30.68,30.68,0,0,0-5.92,4.12c-1.81,1.59-4.74,4.07-6.54,5.51a17.42,17.42,0,0,0-4.08,4.41,6.85,6.85,0,0,1-3.2,2.78,21.29,21.29,0,0,0-4.74,3,29.7,29.7,0,0,1-4.6,3.22c-1.79.92-2,1.25-1,1.63.69.27,1.27.15,1.27-.27a.79.79,0,0,1,.82-.75,12.68,12.68,0,0,0,3.68-1.95c1.58-1.07,3-1.59,3.13-1.16.69,2.08,8.23-.38,11.19-3.66a4.32,4.32,0,0,1,3.1-1.35,6.85,6.85,0,0,0,3.3-.68,37.38,37.38,0,0,1,7.58-2.82c.33,0,.07.81-.58,1.8s-1,2-.77,2.23-.82,1.5-2.32,2.82-2.75,2.76-2.75,3.19-1.3,1.33-2.9,2c-3.07,1.28-6.41,4-6.41,5.25,0,.41,1.56.56,3.66.32,3.12-.35,3.47-.27,2.3.58-1.34,1-7.49,6.51-13,11.7a16.68,16.68,0,0,0-3.81,5.71c-.56,1.71-1.28,2.95-1.59,2.76s-1,.66-1.51,1.9c-1.38,3.33-5.8,7.15-7,6-.7-.69-.8-.6-.43.36s-.17,1.49-1.89,2.09c-1.31.45-2.37,1.37-2.37,2a1.09,1.09,0,0,1-.93,1.2c-.69,0-.71.23-.06.88,1.1,1.1.41,2.89-2,5.12-1,1-1.62,1.76-1.29,1.76s-.33.87-1.48,1.94C173.72,122.43,172.5,122.79,172.73,121.28Zm-8.48-32.77c.37-1.55.29-2.06-.23-1.55a8.24,8.24,0,0,0-1.32,3.09c-.37,1.56-.28,2.07.23,1.56A8.2,8.2,0,0,0,164.25,88.51Zm-2.07-1.6c.1-1.14-.15-1.78-.61-1.51-.9.56-1,3.49-.16,3.49C161.75,88.89,162.09,88,162.18,86.92Zm8.32-7.32c1.65-1.82.3-2.12-1.5-.34-1.37,1.37-1.52,1.88-.56,1.88A4.9,4.9,0,0,0,170.5,79.6Zm4.66-7c.61-1-.41-1-1.94,0-1,.64-1,.76.15.77A2.28,2.28,0,0,0,175.16,72.61Zm7.55-4.82c1.34-1.25,2-2.5,1.7-3s-.23-.71.43-.3.88.26.64-.47c-.46-1.38-1.58-1.16-2.56.51A24.23,24.23,0,0,1,180,68c-1.17,1.2-2.13,2.6-2.13,3.11C177.88,72.11,178.65,71.59,182.71,67.79ZM251.2,50.9a1.71,1.71,0,0,0-1.26-.77c-.42,0-.56.35-.3.77a1.7,1.7,0,0,0,1.26.78C251.33,51.68,251.47,51.33,251.2,50.9Zm32.07-9.29c1.12,0,1.13.11.13.76s-1,.76.11.76A3.23,3.23,0,0,0,285.68,42c.72-.87.6-1.19-.58-1.57-2-.65-4,.24-4,1.78,0,.81.21.92.45.31A1.88,1.88,0,0,1,283.28,41.61Zm-23-7A1.91,1.91,0,0,0,262,33.45c.6-1.56-.17-1.46-3.23.4-1.51.92-2.33,1.92-2,2.44s.84.49,1.48-.4A3.18,3.18,0,0,1,260.33,34.62Zm8.72-7c.27-.43.14-.78-.3-.78a1.72,1.72,0,0,0-1.26.78c-.27.42-.13.77.3.77A1.7,1.7,0,0,0,269,27.64Zm6.6-6.21c0-.43-.52-.78-1.16-.78s-1.16.35-1.16.78.52.77,1.16.77S275.65,21.85,275.65,21.43ZM257,112.53a1.92,1.92,0,0,0-1.17-1.63c-1.51-.58-1.51-1.83,0-1.83a1.17,1.17,0,0,0,1.17-1.16c0-.64-.37-1.17-.83-1.17s-.61-.33-.36-.74a1.5,1.5,0,0,1,1.73-.26c1,.38,1.15.18.73-.94-.61-1.58.58-2.68,2.89-2.7,1.07,0,1.34.39,1,1.54s0,1.56,1.27,1.56a22.18,22.18,0,0,1,4.63.82c2.72.76,2.94,1,2.72,3.28-.31,3.21-2.72,4.4-9,4.42C258,113.72,257,113.47,257,112.53Zm106.82-6.31a1.45,1.45,0,0,1,1-2.58,1.37,1.37,0,0,1,1.55,1.55A1.45,1.45,0,0,1,363.85,106.22ZM321.53,84.45a7.62,7.62,0,0,1-.88-2.87c0-.66-.35-1.21-.78-1.21-.91,0-1-3.07-.14-4.44.35-.55,1.65-.82,3.09-.64s2.49,0,2.49-.36c0-.72,5.22-.45,6,.31s-1.51,2.91-2.61,2.48c-1.43-.55-1.31,1.08.2,2.74s.89,3-1.14,2.81c-1-.07-1.31-.56-1.07-1.5.63-2.38-.89-1.52-2.61,1.48C322.48,86,322.39,86,321.53,84.45ZM217.24,74.06c.52-.53,1.14-.76,1.38-.52s-.18.67-1,1C216.57,74.93,216.49,74.84,217.24,74.06ZM378.06,73c-1.43-1.71-.62-1.91,1-.24.74.79,1.05,1.42.68,1.42A3.11,3.11,0,0,1,378.06,73ZM343.4,72.9c-.64-.26-.53-.78.39-1.71s1.58-1.09,2.2-.53a1.32,1.32,0,0,1,.48,1.48c-.23.38.07.52.66.31s1-1.25.84-2.81c-.24-2.37-.18-2.42,1.87-1.64,1.53.58,2.28.56,2.67-.09s.7-.65,1.08,0,.14.86-.34.86-.65.35-.39.78,0,.78-.53.79c-.74,0-.7.22.14.76s.85.76-.52.77a2.32,2.32,0,0,1-2.07-1c-.25-.6-.41-.49-.45.31C349.34,73,346.06,74,343.4,72.9ZM201.48,65a4.37,4.37,0,0,1,2.18-1.13c1.7-.42,1.71-.39.26.68C202.25,65.76,200.83,66,201.48,65Zm19.84-7.85c1.52-1,2.55-1,1.94,0a2.29,2.29,0,0,1-1.79.77C220.34,57.86,220.33,57.75,221.33,57.1Zm3.88-3.88c0-.42.53-.78,1.17-.78s1.16.36,1.16.78-.52.78-1.16.78S225.21,53.65,225.21,53.23Zm69.27-13.65a1.58,1.58,0,0,1,1.49-.06c.61.24.43.43-.47.47S294.23,39.83,294.48,39.57Zm-5.2-1.06c-.82-.29-1.17-.71-.77-.92,1-.57,7.75-.82,7.2-.28C294.76,38.26,290.71,39,289.28,38.51Zm5.18-3.64c-1.65-.67-1.07-1.93.78-1.67,1,.14,1.65.6,1.55,1C296.56,35.17,295.76,35.39,294.46,34.88Zm-11.05-.52A8.63,8.63,0,0,1,285.17,32c1.27-1.37,2.88-2,5.73-2.33a57.94,57.94,0,0,0,6-.93c1.51-.38,2-.21,2,.63,0,1.55-2,3.17-3.12,2.5-.47-.3-2.5-.28-4.49,0-2.89.45-3.32.69-2.08,1.19,1.41.57,1.37.63-.39.69a19.77,19.77,0,0,0-3.69.53C284.19,34.59,283.41,34.6,283.41,34.36Zm74.28-14.22a4.51,4.51,0,0,1,2.33,0c.76.2.32.37-1,.39S357.16,20.36,357.69,20.14Z" transform="translate(-94.98 -6.36)"/></svg>