<?xml version="1.0" encoding="utf-8"?>
<!-- Generator: Adobe Illustrator 24.2.0, SVG Export Plug-In . SVG Version: 6.00 Build 0)  -->
<svg version="1.1" id="Layer_1" xmlns="http://www.w3.org/2000/svg" xmlns:xlink="http://www.w3.org/1999/xlink" x="0px" y="0px"
	 viewBox="0 0 1200 900" style="enable-background:new 0 0 1200 900;" xml:space="preserve" width="1200" height="900">
<style type="text/css">
	.st0{fill:#FCD116;}
	.st1{fill:#000099;}
	.st2{fill:#009900;}
	.st3{fill:#FFFFFF;}
	.st4{fill:#009E49;}
	.st5{fill:#CE1126;}
	.st6{stroke:#FCD116;stroke-width:162.54;}
	.st7{clip-path:url(#SVGID_2_);stroke:#000000;stroke-width:116.1;}
</style>
<rect class="st0" width="1200" height="900"/>
<path class="st1" d="M561.5,768h531l-57.9-114L827,600l-209.5,54L561.5,768z"/>
<path class="st2" d="M827,228L617.5,654h417L827,228z"/>
<path class="st3" d="M827,351l-88.5,180h177L827,351z"/>
<path class="st4" d="M0,387V0h580.5L0,387z"/>
<path class="st5" d="M0,387h580.5V0L0,387z"/>
<path class="st6" d="M0,387L580.5,0"/>
<g>
	<g>
		<defs>
			<rect id="SVGID_1_" width="580.5" height="387"/>
		</defs>
		<clipPath id="SVGID_2_">
			<use xlink:href="#SVGID_1_"  style="overflow:visible;"/>
		</clipPath>
		<path class="st7" d="M0,387L580.5,0"/>
	</g>
</g>
<polygon class="st3" points="412,137.2 451.4,138.8 420.5,114.4 434.1,77.5 401.4,99.3 370.5,74.9 381.1,112.8 348.4,134.6 
	387.7,136.2 398.4,174.1 "/>
<polygon class="st3" points="191.4,284.2 230.8,285.8 199.9,261.4 213.5,224.5 180.8,246.4 149.9,221.9 160.5,259.8 127.8,281.7 
	167.1,283.3 177.8,321.2 "/>
</svg>
