<svg id="Model_Treaty_US" preserveAspectRatio="xMidYMid meet" data-name="Model Treaty US" xmlns="http://www.w3.org/2000/svg" xmlns:xlink="http://www.w3.org/1999/xlink" width="640" height="480" viewBox="0 0 640 480"><defs><style>.cls-1,.cls-3,.cls-4{fill:#fff;}.cls-1,.cls-2,.cls-3{stroke:#000;}.cls-1,.cls-3{stroke-miterlimit:10;}.cls-1,.cls-2{stroke-width:20.8372px;}.cls-2{fill:none;stroke-linejoin:round;}.cls-3{stroke-width:33.6456px;}.cls-5{opacity:0.4;}.cls-6{fill:#b22234;}.cls-7{fill:#3c3b6e;}</style><symbol id="doc_icon" data-name="doc icon" viewBox="0 0 300.837 397.209"><polygon class="cls-1" points="290.419 386.791 10.419 386.791 10.419 10.419 201.209 10.419 290.419 100.279 290.419 386.791"/><polyline class="cls-2" points="290.419 100.279 201.86 100.279 201.209 10.419"/><line class="cls-3" x1="65.4186" y1="164.6047" x2="231.4186" y2="164.6047"/><line class="cls-3" x1="65.4186" y1="228.6047" x2="231.4186" y2="228.6047"/><line class="cls-3" x1="65.4186" y1="292.6047" x2="231.4186" y2="292.6047"/></symbol></defs><title>Model Treaty US</title><path id="bkgd" class="cls-4" d="M0,0H640V480H0Z"/><g id="flag" class="cls-5"><rect class="cls-4" width="640" height="480.7506"/><rect id="stripe" class="cls-6" width="640" height="36.9812"/><rect id="stripe-2" data-name="stripe" class="cls-6" y="73.9614" width="640" height="36.9812"/><rect id="stripe-3" data-name="stripe" class="cls-6" y="147.9233" width="640" height="36.9807"/><rect id="stripe-4" data-name="stripe" class="cls-6" y="221.8852" width="640" height="36.9801"/><rect id="stripe-5" data-name="stripe" class="cls-6" y="295.8466" width="640" height="36.9801"/><rect id="stripe-6" data-name="stripe" class="cls-6" y="369.808" width="640" height="36.9812"/><rect id="stripe-7" data-name="stripe" class="cls-6" y="443.7704" width="640" height="36.9802"/><rect class="cls-7" width="364.8001" height="258.4612"/><g id="_Group_" data-name="&lt;Group&gt;"><g id="star"><polygon id="pt" class="cls-4" points="35.086 28.375 22.51 37.512 27.314 22.727 35.086 28.375"/><polygon id="pt-2" data-name="pt" class="cls-4" points="29.715 30.119 17.139 20.983 32.684 20.983 29.715 30.119"/><polygon id="pt-3" data-name="pt" class="cls-4" points="26.396 25.551 31.2 10.767 36.004 25.551 26.396 25.551"/><polygon id="pt-4" data-name="pt" class="cls-4" points="29.715 20.983 45.26 20.983 32.684 30.119 29.715 20.983"/><polygon id="pt-5" data-name="pt" class="cls-4" points="35.086 22.727 39.89 37.512 27.314 28.375 35.086 22.727"/></g><g id="star-2" data-name="star"><polygon id="pt-6" data-name="pt" class="cls-4" points="95.566 28.375 82.99 37.512 87.793 22.727 95.566 28.375"/><polygon id="pt-7" data-name="pt" class="cls-4" points="90.195 30.119 77.619 20.983 93.165 20.983 90.195 30.119"/><polygon id="pt-8" data-name="pt" class="cls-4" points="86.876 25.551 91.68 10.767 96.483 25.551 86.876 25.551"/><polygon id="pt-9" data-name="pt" class="cls-4" points="90.195 20.983 105.74 20.983 93.165 30.119 90.195 20.983"/><polygon id="pt-10" data-name="pt" class="cls-4" points="95.566 22.727 100.37 37.512 87.793 28.375 95.566 22.727"/></g><g id="star-3" data-name="star"><polygon id="pt-11" data-name="pt" class="cls-4" points="156.046 28.375 143.47 37.512 148.273 22.727 156.046 28.375"/><polygon id="pt-12" data-name="pt" class="cls-4" points="150.676 30.119 138.1 20.983 153.644 20.983 150.676 30.119"/><polygon id="pt-13" data-name="pt" class="cls-4" points="147.357 25.551 152.16 10.767 156.963 25.551 147.357 25.551"/><polygon id="pt-14" data-name="pt" class="cls-4" points="150.676 20.983 166.22 20.983 153.644 30.119 150.676 20.983"/><polygon id="pt-15" data-name="pt" class="cls-4" points="156.046 22.727 160.85 37.512 148.273 28.375 156.046 22.727"/></g><g id="star-4" data-name="star"><polygon id="pt-16" data-name="pt" class="cls-4" points="216.526 28.375 203.95 37.512 208.754 22.727 216.526 28.375"/><polygon id="pt-17" data-name="pt" class="cls-4" points="211.155 30.119 198.579 20.983 214.124 20.983 211.155 30.119"/><polygon id="pt-18" data-name="pt" class="cls-4" points="207.837 25.551 212.64 10.767 217.444 25.551 207.837 25.551"/><polygon id="pt-19" data-name="pt" class="cls-4" points="211.155 20.983 226.7 20.983 214.124 30.119 211.155 20.983"/><polygon id="pt-20" data-name="pt" class="cls-4" points="216.526 22.727 221.33 37.512 208.754 28.375 216.526 22.727"/></g><g id="s5"><g id="star-5" data-name="star"><polygon id="pt-21" data-name="pt" class="cls-4" points="277.006 28.375 264.43 37.512 269.233 22.727 277.006 28.375"/><polygon id="pt-22" data-name="pt" class="cls-4" points="271.636 30.119 259.06 20.983 274.604 20.983 271.636 30.119"/><polygon id="pt-23" data-name="pt" class="cls-4" points="268.316 25.551 273.12 10.767 277.923 25.551 268.316 25.551"/><polygon id="pt-24" data-name="pt" class="cls-4" points="271.636 20.983 287.18 20.983 274.604 30.119 271.636 20.983"/><polygon id="pt-25" data-name="pt" class="cls-4" points="277.006 22.727 281.81 37.512 269.233 28.375 277.006 22.727"/></g></g><g id="s6"><g id="star-6" data-name="star"><polygon id="pt-26" data-name="pt" class="cls-4" points="337.486 28.375 324.91 37.512 329.714 22.727 337.486 28.375"/><polygon id="pt-27" data-name="pt" class="cls-4" points="332.115 30.119 319.539 20.983 335.084 20.983 332.115 30.119"/><polygon id="pt-28" data-name="pt" class="cls-4" points="328.796 25.551 333.6 10.767 338.403 25.551 328.796 25.551"/><polygon id="pt-29" data-name="pt" class="cls-4" points="332.115 20.983 347.661 20.983 335.084 30.119 332.115 20.983"/><polygon id="pt-30" data-name="pt" class="cls-4" points="337.486 22.727 342.29 37.512 329.714 28.375 337.486 22.727"/></g></g><g id="_star_b2_" data-name="&lt;star b2&gt;"><g id="star-7" data-name="star"><polygon id="pt-31" data-name="pt" class="cls-4" points="65.326 54.294 52.75 63.431 57.554 48.647 65.326 54.294"/><polygon id="pt-32" data-name="pt" class="cls-4" points="59.955 56.04 47.379 46.902 62.924 46.902 59.955 56.04"/><polygon id="pt-33" data-name="pt" class="cls-4" points="56.637 51.471 61.44 36.687 66.244 51.471 56.637 51.471"/><polygon id="pt-34" data-name="pt" class="cls-4" points="59.955 46.902 75.5 46.902 62.924 56.04 59.955 46.902"/><polygon id="pt-35" data-name="pt" class="cls-4" points="65.326 48.647 70.129 63.431 57.554 54.294 65.326 48.647"/></g><g id="star-8" data-name="star"><polygon id="pt-36" data-name="pt" class="cls-4" points="125.806 54.294 113.23 63.431 118.033 48.647 125.806 54.294"/><polygon id="pt-37" data-name="pt" class="cls-4" points="120.435 56.04 107.859 46.902 123.404 46.902 120.435 56.04"/><polygon id="pt-38" data-name="pt" class="cls-4" points="117.116 51.471 121.92 36.687 126.724 51.471 117.116 51.471"/><polygon id="pt-39" data-name="pt" class="cls-4" points="120.435 46.902 135.98 46.902 123.404 56.04 120.435 46.902"/><polygon id="pt-40" data-name="pt" class="cls-4" points="125.806 48.647 130.61 63.431 118.033 54.294 125.806 48.647"/></g><g id="star-9" data-name="star"><polygon id="pt-41" data-name="pt" class="cls-4" points="186.287 54.294 173.71 63.431 178.513 48.647 186.287 54.294"/><polygon id="pt-42" data-name="pt" class="cls-4" points="180.915 56.04 168.34 46.902 183.884 46.902 180.915 56.04"/><polygon id="pt-43" data-name="pt" class="cls-4" points="177.597 51.471 182.4 36.687 187.203 51.471 177.597 51.471"/><polygon id="pt-44" data-name="pt" class="cls-4" points="180.915 46.902 196.46 46.902 183.884 56.04 180.915 46.902"/><polygon id="pt-45" data-name="pt" class="cls-4" points="186.287 48.647 191.09 63.431 178.513 54.294 186.287 48.647"/></g><g id="star-10" data-name="star"><polygon id="pt-46" data-name="pt" class="cls-4" points="246.766 54.294 234.19 63.431 238.993 48.647 246.766 54.294"/><polygon id="pt-47" data-name="pt" class="cls-4" points="241.396 56.04 228.819 46.902 244.364 46.902 241.396 56.04"/><polygon id="pt-48" data-name="pt" class="cls-4" points="238.076 51.471 242.88 36.687 247.683 51.471 238.076 51.471"/><polygon id="pt-49" data-name="pt" class="cls-4" points="241.396 46.902 256.94 46.902 244.364 56.04 241.396 46.902"/><polygon id="pt-50" data-name="pt" class="cls-4" points="246.766 48.647 251.57 63.431 238.993 54.294 246.766 48.647"/></g><g id="s5-2" data-name="s5"><g id="star-11" data-name="star"><polygon id="pt-51" data-name="pt" class="cls-4" points="307.246 54.294 294.67 63.431 299.474 48.647 307.246 54.294"/><polygon id="pt-52" data-name="pt" class="cls-4" points="301.875 56.04 289.3 46.902 304.844 46.902 301.875 56.04"/><polygon id="pt-53" data-name="pt" class="cls-4" points="298.556 51.471 303.36 36.687 308.163 51.471 298.556 51.471"/><polygon id="pt-54" data-name="pt" class="cls-4" points="301.875 46.902 317.42 46.902 304.844 56.04 301.875 46.902"/><polygon id="pt-55" data-name="pt" class="cls-4" points="307.246 48.647 312.05 63.431 299.474 54.294 307.246 48.647"/></g></g></g><g id="_star_b3_" data-name="&lt;star b3&gt;"><g id="star-12" data-name="star"><polygon id="pt-56" data-name="pt" class="cls-4" points="35.086 80.215 22.51 89.352 27.314 74.568 35.086 80.215"/><polygon id="pt-57" data-name="pt" class="cls-4" points="29.715 81.959 17.139 72.822 32.684 72.822 29.715 81.959"/><polygon id="pt-58" data-name="pt" class="cls-4" points="26.396 77.391 31.2 62.607 36.004 77.391 26.396 77.391"/><polygon id="pt-59" data-name="pt" class="cls-4" points="29.715 72.822 45.26 72.822 32.684 81.959 29.715 72.822"/><polygon id="pt-60" data-name="pt" class="cls-4" points="35.086 74.568 39.89 89.352 27.314 80.215 35.086 74.568"/></g><g id="star-13" data-name="star"><polygon id="pt-61" data-name="pt" class="cls-4" points="95.566 80.215 82.99 89.352 87.793 74.568 95.566 80.215"/><polygon id="pt-62" data-name="pt" class="cls-4" points="90.195 81.959 77.619 72.822 93.165 72.822 90.195 81.959"/><polygon id="pt-63" data-name="pt" class="cls-4" points="86.876 77.391 91.68 62.607 96.483 77.391 86.876 77.391"/><polygon id="pt-64" data-name="pt" class="cls-4" points="90.195 72.822 105.74 72.822 93.165 81.959 90.195 72.822"/><polygon id="pt-65" data-name="pt" class="cls-4" points="95.566 74.568 100.37 89.352 87.793 80.215 95.566 74.568"/></g><g id="star-14" data-name="star"><polygon id="pt-66" data-name="pt" class="cls-4" points="156.046 80.215 143.47 89.352 148.273 74.568 156.046 80.215"/><polygon id="pt-67" data-name="pt" class="cls-4" points="150.676 81.959 138.1 72.822 153.644 72.822 150.676 81.959"/><polygon id="pt-68" data-name="pt" class="cls-4" points="147.357 77.391 152.16 62.607 156.963 77.391 147.357 77.391"/><polygon id="pt-69" data-name="pt" class="cls-4" points="150.676 72.822 166.22 72.822 153.644 81.959 150.676 72.822"/><polygon id="pt-70" data-name="pt" class="cls-4" points="156.046 74.568 160.85 89.352 148.273 80.215 156.046 74.568"/></g><g id="star-15" data-name="star"><polygon id="pt-71" data-name="pt" class="cls-4" points="216.526 80.215 203.95 89.352 208.754 74.568 216.526 80.215"/><polygon id="pt-72" data-name="pt" class="cls-4" points="211.155 81.959 198.579 72.822 214.124 72.822 211.155 81.959"/><polygon id="pt-73" data-name="pt" class="cls-4" points="207.837 77.391 212.64 62.607 217.444 77.391 207.837 77.391"/><polygon id="pt-74" data-name="pt" class="cls-4" points="211.155 72.822 226.7 72.822 214.124 81.959 211.155 72.822"/><polygon id="pt-75" data-name="pt" class="cls-4" points="216.526 74.568 221.33 89.352 208.754 80.215 216.526 74.568"/></g><g id="s5-3" data-name="s5"><g id="star-16" data-name="star"><polygon id="pt-76" data-name="pt" class="cls-4" points="277.006 80.215 264.43 89.352 269.233 74.568 277.006 80.215"/><polygon id="pt-77" data-name="pt" class="cls-4" points="271.636 81.959 259.06 72.822 274.604 72.822 271.636 81.959"/><polygon id="pt-78" data-name="pt" class="cls-4" points="268.316 77.391 273.12 62.607 277.923 77.391 268.316 77.391"/><polygon id="pt-79" data-name="pt" class="cls-4" points="271.636 72.822 287.18 72.822 274.604 81.959 271.636 72.822"/><polygon id="pt-80" data-name="pt" class="cls-4" points="277.006 74.568 281.81 89.352 269.233 80.215 277.006 74.568"/></g></g><g id="s6-2" data-name="s6"><g id="star-17" data-name="star"><polygon id="pt-81" data-name="pt" class="cls-4" points="337.486 80.215 324.91 89.352 329.714 74.568 337.486 80.215"/><polygon id="pt-82" data-name="pt" class="cls-4" points="332.115 81.959 319.539 72.822 335.084 72.822 332.115 81.959"/><polygon id="pt-83" data-name="pt" class="cls-4" points="328.796 77.391 333.6 62.607 338.403 77.391 328.796 77.391"/><polygon id="pt-84" data-name="pt" class="cls-4" points="332.115 72.822 347.661 72.822 335.084 81.959 332.115 72.822"/><polygon id="pt-85" data-name="pt" class="cls-4" points="337.486 74.568 342.29 89.352 329.714 80.215 337.486 74.568"/></g></g></g><g id="_star_b4_" data-name="&lt;star b4&gt;"><g id="star-18" data-name="star"><polygon id="pt-86" data-name="pt" class="cls-4" points="66.072 106.22 53.496 115.357 58.3 100.573 66.072 106.22"/><polygon id="pt-87" data-name="pt" class="cls-4" points="60.701 107.966 48.125 98.829 63.67 98.829 60.701 107.966"/><polygon id="pt-88" data-name="pt" class="cls-4" points="57.383 103.397 62.186 88.613 66.99 103.397 57.383 103.397"/><polygon id="pt-89" data-name="pt" class="cls-4" points="60.701 98.829 76.247 98.829 63.67 107.966 60.701 98.829"/><polygon id="pt-90" data-name="pt" class="cls-4" points="66.072 100.573 70.875 115.357 58.3 106.22 66.072 100.573"/></g><g id="star-19" data-name="star"><polygon id="pt-91" data-name="pt" class="cls-4" points="126.552 106.22 113.976 115.357 118.779 100.573 126.552 106.22"/><polygon id="pt-92" data-name="pt" class="cls-4" points="121.181 107.966 108.606 98.829 124.15 98.829 121.181 107.966"/><polygon id="pt-93" data-name="pt" class="cls-4" points="117.862 103.397 122.666 88.613 127.469 103.397 117.862 103.397"/><polygon id="pt-94" data-name="pt" class="cls-4" points="121.181 98.829 136.726 98.829 124.15 107.966 121.181 98.829"/><polygon id="pt-95" data-name="pt" class="cls-4" points="126.552 100.573 131.355 115.357 118.779 106.22 126.552 100.573"/></g><g id="star-20" data-name="star"><polygon id="pt-96" data-name="pt" class="cls-4" points="187.032 106.22 174.456 115.357 179.26 100.573 187.032 106.22"/><polygon id="pt-97" data-name="pt" class="cls-4" points="181.661 107.966 169.086 98.829 184.63 98.829 181.661 107.966"/><polygon id="pt-98" data-name="pt" class="cls-4" points="178.342 103.397 183.146 88.613 187.95 103.397 178.342 103.397"/><polygon id="pt-99" data-name="pt" class="cls-4" points="181.661 98.829 197.207 98.829 184.63 107.966 181.661 98.829"/><polygon id="pt-100" data-name="pt" class="cls-4" points="187.032 100.573 191.836 115.357 179.26 106.22 187.032 100.573"/></g><g id="star-21" data-name="star"><polygon id="pt-101" data-name="pt" class="cls-4" points="247.512 106.22 234.936 115.357 239.739 100.573 247.512 106.22"/><polygon id="pt-102" data-name="pt" class="cls-4" points="242.142 107.966 229.565 98.829 245.11 98.829 242.142 107.966"/><polygon id="pt-103" data-name="pt" class="cls-4" points="238.822 103.397 243.626 88.613 248.429 103.397 238.822 103.397"/><polygon id="pt-104" data-name="pt" class="cls-4" points="242.142 98.829 257.686 98.829 245.11 107.966 242.142 98.829"/><polygon id="pt-105" data-name="pt" class="cls-4" points="247.512 100.573 252.316 115.357 239.739 106.22 247.512 100.573"/></g><g id="s5-4" data-name="s5"><g id="star-22" data-name="star"><polygon id="pt-106" data-name="pt" class="cls-4" points="307.992 106.22 295.416 115.357 300.22 100.573 307.992 106.22"/><polygon id="pt-107" data-name="pt" class="cls-4" points="302.621 107.966 290.046 98.829 305.59 98.829 302.621 107.966"/><polygon id="pt-108" data-name="pt" class="cls-4" points="299.302 103.397 304.106 88.613 308.91 103.397 299.302 103.397"/><polygon id="pt-109" data-name="pt" class="cls-4" points="302.621 98.829 318.167 98.829 305.59 107.966 302.621 98.829"/><polygon id="pt-110" data-name="pt" class="cls-4" points="307.992 100.573 312.796 115.357 300.22 106.22 307.992 100.573"/></g></g></g><g id="_star_b3_2" data-name="&lt;star b3&gt;"><g id="star-23" data-name="star"><polygon id="pt-111" data-name="pt" class="cls-4" points="36.004 131.924 23.428 141.06 28.232 126.276 36.004 131.924"/><polygon id="pt-112" data-name="pt" class="cls-4" points="30.633 133.668 18.057 124.532 33.602 124.532 30.633 133.668"/><polygon id="pt-113" data-name="pt" class="cls-4" points="27.314 129.1 32.118 114.316 36.921 129.1 27.314 129.1"/><polygon id="pt-114" data-name="pt" class="cls-4" points="30.633 124.532 46.178 124.532 33.602 133.668 30.633 124.532"/><polygon id="pt-115" data-name="pt" class="cls-4" points="36.004 126.276 40.808 141.06 28.232 131.924 36.004 126.276"/></g><g id="star-24" data-name="star"><polygon id="pt-116" data-name="pt" class="cls-4" points="96.483 131.924 83.907 141.06 88.711 126.276 96.483 131.924"/><polygon id="pt-117" data-name="pt" class="cls-4" points="91.113 133.668 78.537 124.532 94.082 124.532 91.113 133.668"/><polygon id="pt-118" data-name="pt" class="cls-4" points="87.794 129.1 92.597 114.316 97.401 129.1 87.794 129.1"/><polygon id="pt-119" data-name="pt" class="cls-4" points="91.113 124.532 106.658 124.532 94.082 133.668 91.113 124.532"/><polygon id="pt-120" data-name="pt" class="cls-4" points="96.483 126.276 101.287 141.06 88.711 131.924 96.483 126.276"/></g><g id="star-25" data-name="star"><polygon id="pt-121" data-name="pt" class="cls-4" points="156.964 131.924 144.388 141.06 149.192 126.276 156.964 131.924"/><polygon id="pt-122" data-name="pt" class="cls-4" points="151.593 133.668 139.017 124.532 154.562 124.532 151.593 133.668"/><polygon id="pt-123" data-name="pt" class="cls-4" points="148.274 129.1 153.078 114.316 157.881 129.1 148.274 129.1"/><polygon id="pt-124" data-name="pt" class="cls-4" points="151.593 124.532 167.138 124.532 154.562 133.668 151.593 124.532"/><polygon id="pt-125" data-name="pt" class="cls-4" points="156.964 126.276 161.768 141.06 149.192 131.924 156.964 126.276"/></g><g id="star-26" data-name="star"><polygon id="pt-126" data-name="pt" class="cls-4" points="217.444 131.924 204.868 141.06 209.671 126.276 217.444 131.924"/><polygon id="pt-127" data-name="pt" class="cls-4" points="212.073 133.668 199.497 124.532 215.042 124.532 212.073 133.668"/><polygon id="pt-128" data-name="pt" class="cls-4" points="208.754 129.1 213.558 114.316 218.362 129.1 208.754 129.1"/><polygon id="pt-129" data-name="pt" class="cls-4" points="212.073 124.532 227.618 124.532 215.042 133.668 212.073 124.532"/><polygon id="pt-130" data-name="pt" class="cls-4" points="217.444 126.276 222.247 141.06 209.671 131.924 217.444 126.276"/></g><g id="s5-5" data-name="s5"><g id="star-27" data-name="star"><polygon id="pt-131" data-name="pt" class="cls-4" points="277.924 131.924 265.348 141.06 270.151 126.276 277.924 131.924"/><polygon id="pt-132" data-name="pt" class="cls-4" points="272.553 133.668 259.977 124.532 275.522 124.532 272.553 133.668"/><polygon id="pt-133" data-name="pt" class="cls-4" points="269.234 129.1 274.037 114.316 278.841 129.1 269.234 129.1"/><polygon id="pt-134" data-name="pt" class="cls-4" points="272.553 124.532 288.098 124.532 275.522 133.668 272.553 124.532"/><polygon id="pt-135" data-name="pt" class="cls-4" points="277.924 126.276 282.727 141.06 270.151 131.924 277.924 126.276"/></g></g><g id="s6-3" data-name="s6"><g id="star-28" data-name="star"><polygon id="pt-136" data-name="pt" class="cls-4" points="338.404 131.924 325.828 141.06 330.631 126.276 338.404 131.924"/><polygon id="pt-137" data-name="pt" class="cls-4" points="333.033 133.668 320.457 124.532 336.002 124.532 333.033 133.668"/><polygon id="pt-138" data-name="pt" class="cls-4" points="329.714 129.1 334.518 114.316 339.321 129.1 329.714 129.1"/><polygon id="pt-139" data-name="pt" class="cls-4" points="333.033 124.532 348.578 124.532 336.002 133.668 333.033 124.532"/><polygon id="pt-140" data-name="pt" class="cls-4" points="338.404 126.276 343.207 141.06 330.631 131.924 338.404 126.276"/></g></g></g><g id="_star_b4_2" data-name="&lt;star b4&gt;"><g id="star-29" data-name="star"><polygon id="pt-141" data-name="pt" class="cls-4" points="66.251 157.176 53.676 166.313 58.479 151.529 66.251 157.176"/><polygon id="pt-142" data-name="pt" class="cls-4" points="60.881 158.921 48.305 149.784 63.85 149.784 60.881 158.921"/><polygon id="pt-143" data-name="pt" class="cls-4" points="57.562 154.352 62.366 139.57 67.169 154.352 57.562 154.352"/><polygon id="pt-144" data-name="pt" class="cls-4" points="60.881 149.784 76.426 149.784 63.85 158.921 60.881 149.784"/><polygon id="pt-145" data-name="pt" class="cls-4" points="66.251 151.529 71.055 166.313 58.479 157.176 66.251 151.529"/></g><g id="star-30" data-name="star"><polygon id="pt-146" data-name="pt" class="cls-4" points="126.732 157.176 114.156 166.313 118.959 151.529 126.732 157.176"/><polygon id="pt-147" data-name="pt" class="cls-4" points="121.361 158.921 108.785 149.784 124.33 149.784 121.361 158.921"/><polygon id="pt-148" data-name="pt" class="cls-4" points="118.042 154.352 122.845 139.57 127.649 154.352 118.042 154.352"/><polygon id="pt-149" data-name="pt" class="cls-4" points="121.361 149.784 136.905 149.784 124.33 158.921 121.361 149.784"/><polygon id="pt-150" data-name="pt" class="cls-4" points="126.732 151.529 131.535 166.313 118.959 157.176 126.732 151.529"/></g><g id="star-31" data-name="star"><polygon id="pt-151" data-name="pt" class="cls-4" points="187.212 157.176 174.636 166.313 179.439 151.529 187.212 157.176"/><polygon id="pt-152" data-name="pt" class="cls-4" points="181.841 158.921 169.265 149.784 184.81 149.784 181.841 158.921"/><polygon id="pt-153" data-name="pt" class="cls-4" points="178.522 154.352 183.326 139.57 188.129 154.352 178.522 154.352"/><polygon id="pt-154" data-name="pt" class="cls-4" points="181.841 149.784 197.386 149.784 184.81 158.921 181.841 149.784"/><polygon id="pt-155" data-name="pt" class="cls-4" points="187.212 151.529 192.016 166.313 179.439 157.176 187.212 151.529"/></g><g id="star-32" data-name="star"><polygon id="pt-156" data-name="pt" class="cls-4" points="247.691 157.176 235.116 166.313 239.919 151.529 247.691 157.176"/><polygon id="pt-157" data-name="pt" class="cls-4" points="242.322 158.921 229.745 149.784 245.29 149.784 242.322 158.921"/><polygon id="pt-158" data-name="pt" class="cls-4" points="239.001 154.352 243.806 139.57 248.608 154.352 239.001 154.352"/><polygon id="pt-159" data-name="pt" class="cls-4" points="242.322 149.784 257.865 149.784 245.29 158.921 242.322 149.784"/><polygon id="pt-160" data-name="pt" class="cls-4" points="247.691 151.529 252.495 166.313 239.919 157.176 247.691 151.529"/></g><g id="s5-6" data-name="s5"><g id="star-33" data-name="star"><polygon id="pt-161" data-name="pt" class="cls-4" points="308.171 157.176 295.596 166.313 300.399 151.529 308.171 157.176"/><polygon id="pt-162" data-name="pt" class="cls-4" points="302.8 158.921 290.225 149.784 305.77 149.784 302.8 158.921"/><polygon id="pt-163" data-name="pt" class="cls-4" points="299.481 154.352 304.286 139.57 309.089 154.352 299.481 154.352"/><polygon id="pt-164" data-name="pt" class="cls-4" points="302.8 149.784 318.346 149.784 305.77 158.921 302.8 149.784"/><polygon id="pt-165" data-name="pt" class="cls-4" points="308.171 151.529 312.976 166.313 300.399 157.176 308.171 151.529"/></g></g></g><g id="_star_b3_3" data-name="&lt;star b3&gt;"><g id="star-34" data-name="star"><polygon id="pt-166" data-name="pt" class="cls-4" points="36.57 182.943 23.994 192.08 28.798 177.296 36.57 182.943"/><polygon id="pt-167" data-name="pt" class="cls-4" points="31.199 184.687 18.624 175.551 34.168 175.551 31.199 184.687"/><polygon id="pt-168" data-name="pt" class="cls-4" points="27.88 180.119 32.684 165.336 37.488 180.119 27.88 180.119"/><polygon id="pt-169" data-name="pt" class="cls-4" points="31.199 175.551 46.745 175.551 34.168 184.687 31.199 175.551"/><polygon id="pt-170" data-name="pt" class="cls-4" points="36.57 177.296 41.374 192.08 28.798 182.943 36.57 177.296"/></g><g id="star-35" data-name="star"><polygon id="pt-171" data-name="pt" class="cls-4" points="97.05 182.943 84.474 192.08 89.277 177.296 97.05 182.943"/><polygon id="pt-172" data-name="pt" class="cls-4" points="91.68 184.687 79.103 175.551 94.649 175.551 91.68 184.687"/><polygon id="pt-173" data-name="pt" class="cls-4" points="88.36 180.119 93.164 165.336 97.967 180.119 88.36 180.119"/><polygon id="pt-174" data-name="pt" class="cls-4" points="91.68 175.551 107.224 175.551 94.649 184.687 91.68 175.551"/><polygon id="pt-175" data-name="pt" class="cls-4" points="97.05 177.296 101.854 192.08 89.277 182.943 97.05 177.296"/></g><g id="star-36" data-name="star"><polygon id="pt-176" data-name="pt" class="cls-4" points="157.53 182.943 144.954 192.08 149.758 177.296 157.53 182.943"/><polygon id="pt-177" data-name="pt" class="cls-4" points="152.16 184.687 139.583 175.551 155.128 175.551 152.16 184.687"/><polygon id="pt-178" data-name="pt" class="cls-4" points="148.84 180.119 153.644 165.336 158.448 180.119 148.84 180.119"/><polygon id="pt-179" data-name="pt" class="cls-4" points="152.16 175.551 167.705 175.551 155.128 184.687 152.16 175.551"/><polygon id="pt-180" data-name="pt" class="cls-4" points="157.53 177.296 162.334 192.08 149.758 182.943 157.53 177.296"/></g><g id="star-37" data-name="star"><polygon id="pt-181" data-name="pt" class="cls-4" points="218.01 182.943 205.435 192.08 210.238 177.296 218.01 182.943"/><polygon id="pt-182" data-name="pt" class="cls-4" points="212.639 184.687 200.063 175.551 215.609 175.551 212.639 184.687"/><polygon id="pt-183" data-name="pt" class="cls-4" points="209.321 180.119 214.125 165.336 218.927 180.119 209.321 180.119"/><polygon id="pt-184" data-name="pt" class="cls-4" points="212.639 175.551 228.184 175.551 215.609 184.687 212.639 175.551"/><polygon id="pt-185" data-name="pt" class="cls-4" points="218.01 177.296 222.813 192.08 210.238 182.943 218.01 177.296"/></g><g id="s5-7" data-name="s5"><g id="star-38" data-name="star"><polygon id="pt-186" data-name="pt" class="cls-4" points="278.491 182.943 265.914 192.08 270.718 177.296 278.491 182.943"/><polygon id="pt-187" data-name="pt" class="cls-4" points="273.119 184.687 260.544 175.551 276.088 175.551 273.119 184.687"/><polygon id="pt-188" data-name="pt" class="cls-4" points="269.801 180.119 274.604 165.336 279.408 180.119 269.801 180.119"/><polygon id="pt-189" data-name="pt" class="cls-4" points="273.119 175.551 288.665 175.551 276.088 184.687 273.119 175.551"/><polygon id="pt-190" data-name="pt" class="cls-4" points="278.491 177.296 283.293 192.08 270.718 182.943 278.491 177.296"/></g></g><g id="s6-4" data-name="s6"><g id="star-39" data-name="star"><polygon id="pt-191" data-name="pt" class="cls-4" points="338.969 182.943 326.394 192.08 331.199 177.296 338.969 182.943"/><polygon id="pt-192" data-name="pt" class="cls-4" points="333.6 184.687 321.023 175.551 336.568 175.551 333.6 184.687"/><polygon id="pt-193" data-name="pt" class="cls-4" points="330.279 180.119 335.084 165.336 339.887 180.119 330.279 180.119"/><polygon id="pt-194" data-name="pt" class="cls-4" points="333.6 175.551 349.145 175.551 336.568 184.687 333.6 175.551"/><polygon id="pt-195" data-name="pt" class="cls-4" points="338.969 177.296 343.774 192.08 331.199 182.943 338.969 177.296"/></g></g></g><g id="_star_b4_3" data-name="&lt;star b4&gt;"><g id="star-40" data-name="star"><polygon id="pt-196" data-name="pt" class="cls-4" points="66.072 208.716 53.497 217.853 58.301 203.069 66.072 208.716"/><polygon id="pt-197" data-name="pt" class="cls-4" points="60.702 210.462 48.126 201.325 63.671 201.325 60.702 210.462"/><polygon id="pt-198" data-name="pt" class="cls-4" points="57.383 205.893 62.187 191.109 66.99 205.893 57.383 205.893"/><polygon id="pt-199" data-name="pt" class="cls-4" points="60.702 201.325 76.248 201.325 63.671 210.462 60.702 201.325"/><polygon id="pt-200" data-name="pt" class="cls-4" points="66.072 203.069 70.876 217.853 58.301 208.716 66.072 203.069"/></g><g id="star-41" data-name="star"><polygon id="pt-201" data-name="pt" class="cls-4" points="126.553 208.716 113.977 217.853 118.78 203.069 126.553 208.716"/><polygon id="pt-202" data-name="pt" class="cls-4" points="121.182 210.462 108.606 201.325 124.151 201.325 121.182 210.462"/><polygon id="pt-203" data-name="pt" class="cls-4" points="117.863 205.893 122.666 191.109 127.47 205.893 117.863 205.893"/><polygon id="pt-204" data-name="pt" class="cls-4" points="121.182 201.325 136.727 201.325 124.151 210.462 121.182 201.325"/><polygon id="pt-205" data-name="pt" class="cls-4" points="126.553 203.069 131.356 217.853 118.78 208.716 126.553 203.069"/></g><g id="star-42" data-name="star"><polygon id="pt-206" data-name="pt" class="cls-4" points="187.033 208.716 174.457 217.853 179.261 203.069 187.033 208.716"/><polygon id="pt-207" data-name="pt" class="cls-4" points="181.662 210.462 169.087 201.325 184.631 201.325 181.662 210.462"/><polygon id="pt-208" data-name="pt" class="cls-4" points="178.343 205.893 183.147 191.109 187.951 205.893 178.343 205.893"/><polygon id="pt-209" data-name="pt" class="cls-4" points="181.662 201.325 197.207 201.325 184.631 210.462 181.662 201.325"/><polygon id="pt-210" data-name="pt" class="cls-4" points="187.033 203.069 191.837 217.853 179.261 208.716 187.033 203.069"/></g><g id="star-43" data-name="star"><polygon id="pt-211" data-name="pt" class="cls-4" points="247.512 208.716 234.937 217.853 239.74 203.069 247.512 208.716"/><polygon id="pt-212" data-name="pt" class="cls-4" points="242.142 210.462 229.566 201.325 245.111 201.325 242.142 210.462"/><polygon id="pt-213" data-name="pt" class="cls-4" points="238.822 205.893 243.627 191.109 248.43 205.893 238.822 205.893"/><polygon id="pt-214" data-name="pt" class="cls-4" points="242.142 201.325 257.686 201.325 245.111 210.462 242.142 201.325"/><polygon id="pt-215" data-name="pt" class="cls-4" points="247.512 203.069 252.317 217.853 239.74 208.716 247.512 203.069"/></g><g id="s5-8" data-name="s5"><g id="star-44" data-name="star"><polygon id="pt-216" data-name="pt" class="cls-4" points="307.993 208.716 295.417 217.853 300.22 203.069 307.993 208.716"/><polygon id="pt-217" data-name="pt" class="cls-4" points="302.621 210.462 290.046 201.325 305.591 201.325 302.621 210.462"/><polygon id="pt-218" data-name="pt" class="cls-4" points="299.303 205.893 304.107 191.109 308.91 205.893 299.303 205.893"/><polygon id="pt-219" data-name="pt" class="cls-4" points="302.621 201.325 318.167 201.325 305.591 210.462 302.621 201.325"/><polygon id="pt-220" data-name="pt" class="cls-4" points="307.993 203.069 312.797 217.853 300.22 208.716 307.993 203.069"/></g></g></g><g id="_star_b3_4" data-name="&lt;star b3&gt;"><g id="star-45" data-name="star"><polygon id="pt-221" data-name="pt" class="cls-4" points="35.832 234.562 23.256 243.699 28.059 228.915 35.832 234.562"/><polygon id="pt-222" data-name="pt" class="cls-4" points="30.461 236.307 17.885 227.17 33.429 227.17 30.461 236.307"/><polygon id="pt-223" data-name="pt" class="cls-4" points="27.142 231.739 31.946 216.955 36.749 231.739 27.142 231.739"/><polygon id="pt-224" data-name="pt" class="cls-4" points="30.461 227.17 46.006 227.17 33.429 236.307 30.461 227.17"/><polygon id="pt-225" data-name="pt" class="cls-4" points="35.832 228.915 40.635 243.699 28.059 234.562 35.832 228.915"/></g><g id="star-46" data-name="star"><polygon id="pt-226" data-name="pt" class="cls-4" points="96.311 234.562 83.735 243.699 88.539 228.915 96.311 234.562"/><polygon id="pt-227" data-name="pt" class="cls-4" points="90.941 236.307 78.365 227.17 93.91 227.17 90.941 236.307"/><polygon id="pt-228" data-name="pt" class="cls-4" points="87.622 231.739 92.425 216.955 97.229 231.739 87.622 231.739"/><polygon id="pt-229" data-name="pt" class="cls-4" points="90.941 227.17 106.485 227.17 93.91 236.307 90.941 227.17"/><polygon id="pt-230" data-name="pt" class="cls-4" points="96.311 228.915 101.115 243.699 88.539 234.562 96.311 228.915"/></g><g id="star-47" data-name="star"><polygon id="pt-231" data-name="pt" class="cls-4" points="156.792 234.562 144.216 243.699 149.019 228.915 156.792 234.562"/><polygon id="pt-232" data-name="pt" class="cls-4" points="151.422 236.307 138.845 227.17 154.389 227.17 151.422 236.307"/><polygon id="pt-233" data-name="pt" class="cls-4" points="148.102 231.739 152.906 216.955 157.709 231.739 148.102 231.739"/><polygon id="pt-234" data-name="pt" class="cls-4" points="151.422 227.17 166.966 227.17 154.389 236.307 151.422 227.17"/><polygon id="pt-235" data-name="pt" class="cls-4" points="156.792 228.915 161.596 243.699 149.019 234.562 156.792 228.915"/></g><g id="star-48" data-name="star"><polygon id="pt-236" data-name="pt" class="cls-4" points="217.272 234.562 204.696 243.699 209.5 228.915 217.272 234.562"/><polygon id="pt-237" data-name="pt" class="cls-4" points="211.901 236.307 199.324 227.17 214.871 227.17 211.901 236.307"/><polygon id="pt-238" data-name="pt" class="cls-4" points="208.582 231.739 213.387 216.955 218.19 231.739 208.582 231.739"/><polygon id="pt-239" data-name="pt" class="cls-4" points="211.901 227.17 227.446 227.17 214.871 236.307 211.901 227.17"/><polygon id="pt-240" data-name="pt" class="cls-4" points="217.272 228.915 222.075 243.699 209.5 234.562 217.272 228.915"/></g><g id="s5-9" data-name="s5"><g id="star-49" data-name="star"><polygon id="pt-241" data-name="pt" class="cls-4" points="277.752 234.562 265.176 243.699 269.98 228.915 277.752 234.562"/><polygon id="pt-242" data-name="pt" class="cls-4" points="272.381 236.307 259.806 227.17 275.35 227.17 272.381 236.307"/><polygon id="pt-243" data-name="pt" class="cls-4" points="269.063 231.739 273.865 216.955 278.67 231.739 269.063 231.739"/><polygon id="pt-244" data-name="pt" class="cls-4" points="272.381 227.17 287.927 227.17 275.35 236.307 272.381 227.17"/><polygon id="pt-245" data-name="pt" class="cls-4" points="277.752 228.915 282.556 243.699 269.98 234.562 277.752 228.915"/></g></g><g id="s6-5" data-name="s6"><g id="star-50" data-name="star"><polygon id="pt-246" data-name="pt" class="cls-4" points="338.231 234.562 325.656 243.699 330.46 228.915 338.231 234.562"/><polygon id="pt-247" data-name="pt" class="cls-4" points="332.861 236.307 320.285 227.17 335.83 227.17 332.861 236.307"/><polygon id="pt-248" data-name="pt" class="cls-4" points="329.541 231.739 334.346 216.955 339.149 231.739 329.541 231.739"/><polygon id="pt-249" data-name="pt" class="cls-4" points="332.861 227.17 348.407 227.17 335.83 236.307 332.861 227.17"/><polygon id="pt-250" data-name="pt" class="cls-4" points="338.231 228.915 343.035 243.699 330.46 234.562 338.231 228.915"/></g></g></g></g></g><use width="300.8372" height="397.2093" transform="translate(169.5814 41.3953)" xlink:href="#doc_icon"/></svg>