<svg xmlns="http://www.w3.org/2000/svg" height="480" width="640" viewBox="0 0 640 480"><defs><style>.a{fill:#fcd116;}.b{fill:#ce1126;}</style></defs><title>Sarawak</title><polygon class="a" points="640 0 154 0 640 243 640 0"/><polygon class="a" points="0 480 474 480 0 243 0 480"/><polygon points="640 243 154 0 0 0 0 83 640 403 640 243"/><polygon class="b" points="0 83 0 243 474 480 634 480 640 480 640 403 0 83"/><polygon class="a" points="356.11 261.06 433.21 253.72 359.79 229.06 414.14 173.88 342.05 202.19 348.21 124.98 311.18 193 266.27 129.9 281.63 205.81 206.67 186.33 267.23 234.62 197.28 267.88 274.71 265.94 242.51 336.38 300.58 285.13 321.19 359.78 332.73 283.2 396.5 327.14 356.11 261.06"/></svg>