<?xml version="1.0" encoding="utf-8"?>
<!-- Generator: Adobe Illustrator 24.2.0, SVG Export Plug-In . SVG Version: 6.00 Build 0)  -->
<svg version="1.1" id="Layer_1" xmlns="http://www.w3.org/2000/svg" xmlns:xlink="http://www.w3.org/1999/xlink" x="0px" y="0px"
	 viewBox="0 0 600 450" style="enable-background:new 0 0 600 450;" xml:space="preserve" width="600" height="450">
<style type="text/css">
	.st0{fill:#003573;}
	.st1{fill:#FFFFFF;}
	.st2{fill:#DC221F;}
	.st3{fill:#FFCC00;}
</style>
<path class="st0" d="M0,0h600v450H0V0z"/>
<path class="st1" d="M0,0h600v300H0V0z"/>
<path class="st2" d="M0,0h600v150H0V0z"/>
<path class="st3" d="M367.2,130.6l8.4,57.6l32.6-48.2l-17.5,55.5l50.3-29.3l-39.8,42.5l58-4.6L405,225l54.3,21l-58-4.6l39.8,42.5
	l-50.3-29.3l17.5,55.5l-32.6-48.2l-8.4,57.6l-8.4-57.6L326.3,310l17.5-55.5l-50.3,29.3l39.8-42.5l-58,4.6l54.3-21l-54.3-21l58,4.6
	L293.5,166l50.3,29.3L326.3,140l32.6,48.2L367.2,130.6z M320,133c-50.8-22.5-110.3,0.4-132.8,51.2s0.4,110.3,51.2,132.8
	c26,11.5,55.7,11.5,81.7,0c-50.8,36.5-121.6,24.8-158-26s-24.8-121.6,26-158C227.5,104.7,280.6,104.7,320,133L320,133z"/>
</svg>
