<svg xmlns="http://www.w3.org/2000/svg" height="480" width="640" viewBox="0 0 640 480"><defs><style>.a{fill:#fff;}.b{fill:#e30a17;}</style></defs><title>Northern Cyprus</title><rect class="a" y="432" width="640" height="48"/><path class="a" d="M0,384H640V96H0ZM201,120a119.91,119.91,0,0,1,101.45,55.89,95.61,95.61,0,0,1,24.22,56.22l17.18-5.58V182.94l25.62,35.27,41.46-13.47L385.32,240l25.62,35.27L369.48,261.8l-25.62,35.27V253.47l-17.18-5.58a95.61,95.61,0,0,1-24.22,56.22A120,120,0,1,1,201,120Z"/><rect class="a" width="640" height="48"/><rect class="b" y="48" width="640" height="48"/><rect class="b" y="384" width="640" height="48"/><path class="b" d="M201,360a119.91,119.91,0,0,0,101.45-55.89,96,96,0,1,1,0-128.22A120,120,0,1,0,201,360Z"/><path class="a" d="M231,144a96,96,0,1,0,95.68,103.89L302.4,240l24.28-7.89A96,96,0,0,0,231,144Z"/><polygon class="b" points="410.94 204.73 369.48 218.2 343.86 182.94 343.86 226.53 326.68 232.11 302.4 240 326.68 247.89 343.86 253.47 343.86 297.06 369.48 261.8 410.94 275.27 385.32 240 410.94 204.73"/></svg>