<svg xmlns="http://www.w3.org/2000/svg" height="480" width="640" viewBox="0 0 640 480"><defs><style>.a{fill:#fff;}.b{fill:#e9e9e9;}</style></defs><title>Nordic Countries</title><rect class="a" x="266.35" width="373.65" height="199.35"/><rect class="a" width="182.52" height="199.35"/><rect class="a" y="283.17" width="182.52" height="196.83"/><rect class="a" x="266.35" y="283.17" width="373.65" height="196.83"/><polygon class="b" points="0 202.35 0 280.17 185.52 280.17 185.52 480 263.35 480 263.35 280.17 640 280.17 640 202.35 263.35 202.35 263.35 0 185.52 0 185.52 202.35 0 202.35"/><polygon points="0 199.35 0 202.35 185.52 202.35 185.52 0 182.52 0 182.52 199.35 0 199.35"/><polygon points="640 202.35 640 199.35 266.35 199.35 266.35 0 263.35 0 263.35 202.35 640 202.35"/><polygon points="263.35 480 266.35 480 266.35 283.17 640 283.17 640 280.17 263.35 280.17 263.35 480"/><polygon points="0 280.17 0 283.17 182.52 283.17 182.52 480 185.52 480 185.52 280.17 0 280.17"/></svg>