<svg xmlns="http://www.w3.org/2000/svg" height="480" width="640" viewBox="0 0 640 480"><defs><style>.cls-1,.cls-11{fill:#fff;}.cls-2{fill:#00247d;}.cls-3{fill:#cf142b;}.cls-11,.cls-4,.cls-7{stroke:#000;}.cls-4{stroke-width:0.37px;}.cls-5{fill:#006ec7;}.cls-6{fill:#b3b3b3;}.cls-7{fill:none;}.cls-8{fill:#c6c6c6;}.cls-9{fill:#e6e6e6;}.cls-10{fill:#d0d0d0;}.cls-12{fill:#f3f3f3;}.cls-13{fill:#fd5;}.cls-14{fill:#e9ca57;}.cls-15{fill:#ffe88d;}.cls-16{fill:#d4b748;}</style></defs><title>Northern Rhodesia</title><g id="Layer_2" data-name="Layer 2"><g id="Northern_Rhodesia" data-name="Northern Rhodesia"><rect class="cls-1" width="640" height="480"/><rect id="rect1358" class="cls-2" y="84" width="640" height="320"/><rect id="rect1517" class="cls-2" y="84" width="320" height="160"/><g id="upper_half" data-name="upper half"><polygon id="upper_left_white" data-name="upper left white" class="cls-1" points="35.78 84 133.33 132.78 133.33 84 144 84 160 153.33 0 148 0 137.33 70.89 137.33 0 101.89 0 84 0 84 35.78 84"/><g id="use1521"><polygon id="upper_left_white-2" data-name="upper left white" class="cls-1" points="284.22 84 186.67 132.78 186.67 84 176 84 160 153.33 320 148 320 137.33 249.11 137.33 320 101.89 320 84 320 84 284.22 84"/></g><path id="upper_red_diagonals" data-name="upper red diagonals" class="cls-3" d="M0,84l106.67,53.33H82.82L0,95.93Zm320,0L213.33,137.33H189.48L296.15,84Z"/></g><g id="g1349"><g id="upper_half-2" data-name="upper half"><polygon id="upper_left_white-3" data-name="upper left white" class="cls-1" points="284.22 244 186.67 195.22 186.67 244 176 244 160 174.67 320 180 320 190.67 249.11 190.67 320 226.11 320 244 320 244 284.22 244"/><g id="use1524"><polygon id="upper_left_white-4" data-name="upper left white" class="cls-1" points="35.78 244 133.33 195.22 133.33 244 144 244 160 174.67 0 180 0 190.67 70.89 190.67 0 226.11 0 244 0 244 35.78 244"/></g><path id="upper_red_diagonals-2" data-name="upper red diagonals" class="cls-3" d="M320,244,213.33,190.67h23.85L320,232.07ZM0,244l106.67-53.33h23.85L23.85,244Z"/></g><path id="path1526" class="cls-3" d="M144,84h32v64H320v32H176v64H144V180H0V148H144Z"/></g><g id="g4562"><g id="g1427"><path id="path2900" class="cls-4" d="M541.56,163.44V265.82c0,22.64-29.34,45.28-61.56,58.74-32.22-13.47-61.56-36.11-61.56-58.75V163.44H541.56Z"/><path id="rect2902" class="cls-1" d="M469.35,163.44c-.5,1.11-7.19,16-7.19,26.8,0,11.2,7.23,17.92,7.23,26.88S462.16,235,462.16,244s7.23,17.92,7.23,26.88-7.23,15.68-7.23,26.88c0,6.74,2.61,15.12,4.69,20.71,3.82,2,7.74,3.78,11.71,5.48-1.38-3.15-6.91-16.39-6.91-26.19,0-11.2,7.21-17.92,7.21-26.88S471.66,253,471.66,244s7.21-17.92,7.21-26.88-7.21-15.68-7.21-26.88c0-10.78,6.67-25.69,7.17-26.8h-9.48Z"/><path id="use2963" class="cls-1" d="M450.39,163.44c-.5,1.1-7.19,16-7.19,26.8,0,11.2,7.21,17.92,7.21,26.88S443.2,235,443.2,244s7.21,17.92,7.21,26.88-7.21,15.68-7.21,26.88a37.44,37.44,0,0,0,.61,6.39c3.54,2.7,7.36,5.29,11.36,7.76a52.41,52.41,0,0,1-2.49-14.15c0-11.2,7.21-17.92,7.21-26.88S452.68,253,452.68,244s7.21-17.92,7.21-26.88-7.21-15.68-7.21-26.88c0-10.78,6.69-25.7,7.19-26.8h-9.48Z"/><path id="use2965" class="cls-1" d="M431.42,163.44c-.5,1.11-7.19,16-7.19,26.8,0,11.2,7.23,17.92,7.23,26.88S424.23,235,424.23,244s7.23,17.92,7.23,26.88c0,5.7-2.93,10.5-5.05,16.12h0a71.29,71.29,0,0,0,7.41,8.49c.86-9.88,7.12-16.29,7.12-24.63,0-9-7.21-17.92-7.21-26.88s7.21-17.92,7.21-26.88-7.21-15.68-7.21-26.88c0-10.78,6.67-25.69,7.17-26.8h-9.48Z"/><path id="use2967" class="cls-1" d="M488.32,163.44c-.5,1.1-7.19,16-7.19,26.8,0,11.2,7.21,17.92,7.21,26.88S481.14,235,481.14,244s7.21,17.92,7.21,26.88-7.21,15.68-7.21,26.88c0,8.1,3.78,18.55,5.87,23.71q4-1.89,8-3.95c-2-5.56-4.35-13.39-4.35-19.76,0-11.2,7.21-17.92,7.21-26.88S490.62,253,490.62,244s7.21-17.92,7.21-26.88-7.21-15.68-7.21-26.88c0-10.78,6.69-25.7,7.19-26.8h-9.48Z"/><path id="use2991" class="cls-1" d="M507.28,163.44c-.5,1.11-7.19,16-7.19,26.8,0,11.2,7.23,17.92,7.23,26.88S500.1,235,500.1,244s7.23,17.92,7.23,26.88-7.23,15.68-7.23,26.88c0,4.8,1.32,10.43,2.84,15.29,2.78-1.66,5.47-3.38,8.05-5.16a44.51,44.51,0,0,1-1.4-10.13c0-11.2,7.21-17.92,7.21-26.88S509.59,253,509.59,244s7.21-17.92,7.21-26.88-7.21-15.68-7.21-26.88c0-10.78,6.67-25.69,7.17-26.8h-9.48Z"/><path id="use2993" class="cls-1" d="M526.26,163.44c-.5,1.1-7.19,16-7.19,26.8,0,11.2,7.21,17.92,7.21,26.88S519.07,235,519.07,244s7.21,17.92,7.21,26.88-7.21,15.68-7.21,26.88a32.9,32.9,0,0,0,.25,3.91,92.45,92.45,0,0,0,9.77-9.17c1.67-8.24,6.67-14.15,6.67-21.61,0-9-7.21-17.92-7.21-26.88s7.21-17.92,7.21-26.88-7.21-15.68-7.21-26.88c0-10.78,6.69-25.7,7.19-26.8h-9.48Z"/></g><rect id="rect6284" class="cls-5" x="418.36" y="163.36" width="123.28" height="53.22"/><g id="g4951"><g id="g4604"><g id="g4556"><path id="path4499-4" class="cls-6" d="M493.51,206.64c0-.28-.28-.56,0-.91a2,2,0,0,1,.84-.77,6.75,6.75,0,0,1,1.12-.56s.46-.32-.53-.6a12.21,12.21,0,0,0-2.42-.53,18.57,18.57,0,0,0-1.93.35,10.87,10.87,0,0,0-1.72.11c-.32.11-.81.46-.39.63a7.46,7.46,0,0,1,1.58.6c.53.35,1.51.6,2.1,1A10.4,10.4,0,0,0,493.51,206.64Zm7.92.74c.18-.14,1.37-1.19,1.37-1.19a18.08,18.08,0,0,0,1.82-1.16,13.13,13.13,0,0,0,1.65-1.72l.56-.77a8.78,8.78,0,0,1-.32,1.4c-.21.6-.67,1.68-.67,1.68a3.41,3.41,0,0,0-.46,1.19,4.52,4.52,0,0,0,.63.84l2,.28c1.47.11,3,.11,3,.11.77.14,1.68.39,1.68.39s-1.33.21-1.33.21l-1.33.91a6.36,6.36,0,0,1-1.86.53c-1.47-.14-3.29-.46-3.29-.46-.84-.11-1.58-.25-1.58-.25a4.08,4.08,0,0,1-.88-.63c-.49-.56-.77-.95-.77-.95C501.4,207.48,501.43,207.38,501.43,207.38Z"/><path id="path4499" class="cls-7" d="M493.51,206.64c0-.28-.28-.56,0-.91a2,2,0,0,1,.84-.77,6.75,6.75,0,0,1,1.12-.56s.46-.32-.53-.6a12.21,12.21,0,0,0-2.42-.53,18.57,18.57,0,0,0-1.93.35,10.87,10.87,0,0,0-1.72.11c-.32.11-.81.46-.39.63a7.46,7.46,0,0,1,1.58.6c.53.35,1.51.6,2.1,1A10.4,10.4,0,0,0,493.51,206.64Zm7.92.74c.18-.14,1.37-1.19,1.37-1.19a18.08,18.08,0,0,0,1.82-1.16,13.13,13.13,0,0,0,1.65-1.72l.56-.77a8.78,8.78,0,0,1-.32,1.4c-.21.6-.67,1.68-.67,1.68a3.41,3.41,0,0,0-.46,1.19,4.52,4.52,0,0,0,.63.84l2,.28c1.47.11,3,.11,3,.11.77.14,1.68.39,1.68.39s-1.33.21-1.33.21l-1.33.91a6.36,6.36,0,0,1-1.86.53c-1.47-.14-3.29-.46-3.29-.46-.84-.11-1.58-.25-1.58-.25a4.08,4.08,0,0,1-.88-.63c-.49-.56-.77-.95-.77-.95C501.4,207.48,501.43,207.38,501.43,207.38Z"/><path id="path4554" class="cls-8" d="M489.67,204.29c.76,0,1.67,0,2,.43a5.14,5.14,0,0,0,.81,1,6.77,6.77,0,0,1,1.14-1c.52-.33,1.9-.38.76-.57a5.51,5.51,0,0,0-1.86-.14c-.71,0-1.43.14-1.81.14s-.81,0-.81,0Zm15.75.57c-.62.52-1.43,1.33-1.43,1.33l-1.09.81a2.65,2.65,0,0,0,.1.9,4.41,4.41,0,0,0,1.43,1,44.87,44.87,0,0,0,4.62.43,2.65,2.65,0,0,0,1-.48l-1.38-.24a34.34,34.34,0,0,1-3.43-.81,3.55,3.55,0,0,1-1.57-.62,14.2,14.2,0,0,1,1.71-2.38Z"/></g><path id="path4485-7" class="cls-9" d="M470,203.8c-.14,0-.74.46-1.09.56a4.56,4.56,0,0,0-1.16.56,6.09,6.09,0,0,0-1.19.88,4.78,4.78,0,0,0-.6.6c-.25.28-.28.49-.67.63s-.42.18-.84.35a11.92,11.92,0,0,0-1.19.56c-.46.25-.67.42-1,.6a4.18,4.18,0,0,0-.63.46l-.21.84a2.74,2.74,0,0,0,.63.56,6.76,6.76,0,0,1,.74.46,4.26,4.26,0,0,1,.7.49c.25.25.56.63.56.63l.49.56s-.35.14.28.32,0,.7,1.75.21a22.12,22.12,0,0,1,4.17-.7l7.08-.35s8.69.67,9,.84,4.52.56,4.52.56.88-.14,1-.32.7-.91,1.12-1a22.5,22.5,0,0,1,2.59-.49,35.13,35.13,0,0,0,3.65-.53,13.73,13.73,0,0,0,2-.74,13.4,13.4,0,0,1,1.12-.95,1.86,1.86,0,0,0,1-.74,6.44,6.44,0,0,0,.46-1s.21-.35-.39-.28a5.44,5.44,0,0,1-1.75.18,6.14,6.14,0,0,0-2.07-.11,16.75,16.75,0,0,1-2.31.46,3.27,3.27,0,0,1-2.14-.11,10.41,10.41,0,0,1-1.72-.91c-.67-.39-.7-.28-1.47-.74a12.9,12.9,0,0,0-1.89-.88c-.74-.32-2.1-1-2.45-1.12a18.88,18.88,0,0,0-2.07-.46c-1-.21-1.86-.18-2.77-.35s-2-.32-2.91-.46-1.79-.25-2.07-.28-7.11.77-7.26.81S470,203.8,470,203.8Z"/><path id="path4546" class="cls-10" d="M463.17,208.71c-.19.19-.86.38-.38,1s1.86,1.24,2,1.43.52.62.71.81a2,2,0,0,0,.81.29s.24.14.52-.48.43-.38.62-1,.29-.67.38-1,.43-.57.24-1a2.83,2.83,0,0,0-1-1,1.51,1.51,0,0,1,.86.1c.33.19.62,0,.67.52s.38.33.14,1-.48.86-.57,1.19-1.19.86,0,.62,1-.19,1.38-.52a6.8,6.8,0,0,0,.71-1.24,2,2,0,0,0,.33-1.19c0-.43.24-.48-.33-1.19a3.86,3.86,0,0,0-1-1c-.43-.33-.81-.71,0-.33s1.14.48,1.38,1,.48.76.43,1.24a6,6,0,0,1-.38,1.33c-.24.76-.43,1.19-.14,1.33s.71.24.76-.24-.1-1.24.33-1.71,1-.43.67-1-.29-.81-.9-1.24-1.24-.9-1.24-.9l2.33,1.19s2.38.19,2.62.19a24.71,24.71,0,0,1,3.52-.1c1,.14,3.09.14,3.76.29s3.47.57,3.76.71,3.14.67,3.43.76a21.9,21.9,0,0,1,2.76.52,25.29,25.29,0,0,0,3.09.71,17.28,17.28,0,0,0,2.66.14,20.81,20.81,0,0,0,2.43-.57l1.81-.76a3.27,3.27,0,0,1-1.38.9c-.81.24-.81.24-1.57.43a4.21,4.21,0,0,1-2,.29,25.54,25.54,0,0,1-3,.1A29,29,0,0,1,490,210c-.86-.24-.62-.38-2.14-.81a22.27,22.27,0,0,0-3.95-.76c-1.57-.19-2.09-.29-3.09-.43s-2.9-.29-3.47-.29A5.24,5.24,0,0,0,476,208l0,.71s2.14,0,2.9.14,4.47.29,5,.48,2.57.9,2.9,1a34.44,34.44,0,0,0,4.14.57c.19,0,4.52-.14,4.76-.14a5.59,5.59,0,0,0,2.47-.1c.9-.38,1.76-.76,1.76-.76l2.57-1.28a2.87,2.87,0,0,1-1,.81c-.71.38-.24.52-1.43.86a6.31,6.31,0,0,1-2,.48,34.49,34.49,0,0,1-3.71.48c-1.52.1-.9.14-2.62.19s-2.76-.1-3.95-.1-.1,0-3.14-.52a18.1,18.1,0,0,1-3.76-.86,10.49,10.49,0,0,0-1.62-.38l.38.33s-.52-.29-.57.19-.29.29.14.71-.71.48,1.43.62a56.36,56.36,0,0,1,6.52.62,26.93,26.93,0,0,0,4.19.57,7.69,7.69,0,0,1,1.81-.62c.71,0,5.28-1,5.71-1a16.93,16.93,0,0,1-3.28.76,7.48,7.48,0,0,0-2,.19c-.52.19-.43.38-.81.67s.14.48-.9.67-.57.14-2.09-.1-4.57-.43-5.52-.62-3.52-.29-5.52-.43-2.33,0-2.86-.14a11.08,11.08,0,0,1-2.52,0c-.19,0-2,.38-2,.38a30.21,30.21,0,0,0-3.28.24c-.62,0-2.38.57-2.62.57s-.52-.52-.81-.71-.67-.9-1.19-1.24a13.26,13.26,0,0,1-1.19-.81c-.57-.43-1-.38-1-.76a2,2,0,0,1,.48-1,2.09,2.09,0,0,1,1.14-.48c.38,0,.4.36.4.36s0-.07-.21.12Z"/><path id="path4485" class="cls-7" d="M470,203.8c-.14,0-.74.46-1.09.56a4.56,4.56,0,0,0-1.16.56,6.09,6.09,0,0,0-1.19.88,4.78,4.78,0,0,0-.6.6c-.25.28-.28.49-.67.63s-.42.18-.84.35a11.92,11.92,0,0,0-1.19.56c-.46.25-.67.42-1,.6a4.18,4.18,0,0,0-.63.46l-.21.84a2.74,2.74,0,0,0,.63.56,6.76,6.76,0,0,1,.74.46,4.26,4.26,0,0,1,.7.49c.25.25.56.63.56.63l.49.56s-.35.14.28.32,0,.7,1.75.21a22.12,22.12,0,0,1,4.17-.7l7.08-.35s8.69.67,9,.84,4.52.56,4.52.56.88-.14,1-.32.7-.91,1.12-1a22.5,22.5,0,0,1,2.59-.49,35.13,35.13,0,0,0,3.65-.53,13.73,13.73,0,0,0,2-.74,13.4,13.4,0,0,1,1.12-.95,1.86,1.86,0,0,0,1-.74,6.44,6.44,0,0,0,.46-1s.21-.35-.39-.28a5.44,5.44,0,0,1-1.75.18,6.14,6.14,0,0,0-2.07-.11,16.75,16.75,0,0,1-2.31.46,3.27,3.27,0,0,1-2.14-.11,10.41,10.41,0,0,1-1.72-.91c-.67-.39-.7-.28-1.47-.74a12.9,12.9,0,0,0-1.89-.88c-.74-.32-2.1-1-2.45-1.12a18.88,18.88,0,0,0-2.07-.46c-1-.21-1.86-.18-2.77-.35s-2-.32-2.91-.46-1.79-.25-2.07-.28-7.11.77-7.26.81S470,203.8,470,203.8Z"/><path id="path4487-4" class="cls-6" d="M461.51,209.59a2.33,2.33,0,0,0-1.09-.14c-.35.11-.49.25-.49.46s-.07.46,0,.63.07.56.49.56.84.07,1.12.07.6-.18.84,0,.42.67.56.77a1.52,1.52,0,0,0,.63.42c.46.18.6.39.7.11s.39-.53.07-.77-.39-.35-.84-.74-.25-.35-.7-.6-.67-.39-.91-.53A3.62,3.62,0,0,1,461.51,209.59Z"/><path id="path4487" class="cls-7" d="M461.51,209.59a2.33,2.33,0,0,0-1.09-.14c-.35.11-.49.25-.49.46s-.07.46,0,.63.07.56.49.56.84.07,1.12.07.6-.18.84,0,.42.67.56.77a1.52,1.52,0,0,0,.63.42c.46.18.6.39.7.11s.39-.53.07-.77-.39-.35-.84-.74-.25-.35-.7-.6-.67-.39-.91-.53A3.62,3.62,0,0,1,461.51,209.59Z"/><path id="path4489-0" class="cls-6" d="M464.7,212.32a5.48,5.48,0,0,0-1.19-.42c-.39-.07-.18-.14-.56-.07s-.46,0-.67.18-.07-.21-.35.28a3.07,3.07,0,0,0-.46.91c-.07.32,0,.53.28.42s-.11-.18.7-.35a3.53,3.53,0,0,1,1.12-.18,6.71,6.71,0,0,0,.84,0c.35,0,.39.07.42-.14a3.25,3.25,0,0,0,0-.46Z"/><path id="path4489" class="cls-7" d="M464.7,212.32a5.48,5.48,0,0,0-1.19-.42c-.39-.07-.18-.14-.56-.07s-.46,0-.67.18-.07-.21-.35.28a3.07,3.07,0,0,0-.46.91c-.07.32,0,.53.28.42s-.11-.18.7-.35a3.53,3.53,0,0,1,1.12-.18,6.71,6.71,0,0,0,.84,0c.35,0,.39.07.42-.14a3.25,3.25,0,0,0,0-.46Z"/><path id="path4491" class="cls-11" d="M464.63,210a2.45,2.45,0,0,1-.6-.46c-.21-.21-.39-.39-.25-.67s.18-.53.53-.7.53-.35.91-.32.07-.18.74.14.84.28.88.53.14.49-.21.74a7.09,7.09,0,0,1-.81.46c-.25.14-.32.25-.56.28A3.47,3.47,0,0,1,464.63,210Z"/><path id="path4493" d="M465,209.55c-.21-.07-.6,0-.53-.32s.25-.28.32-.42.18-.07,0-.28-.63,0-.25-.35a1.31,1.31,0,0,1,.91-.25l-.35.56s.25.07.25.21.14.18,0,.35Z"/><path id="path4495" class="cls-7" d="M467.33,211a.37.37,0,0,0,.35-.32c.07-.32.14-.35.25-.77s.21-.21.14-.74,0-.6-.21-.84a5.38,5.38,0,0,0-.67-.53m2.07,3.29a10.19,10.19,0,0,0,.88-.88c.11-.35.49-1.23.49-1.23a5.73,5.73,0,0,0,0-1.16,7.37,7.37,0,0,0-.35-.88,5.79,5.79,0,0,0-.6-.63,8.19,8.19,0,0,0-1.05-.7m2.56,5.12c.07-.39.28-1.05.28-1.05a6.45,6.45,0,0,1,.35-1.3,6.76,6.76,0,0,0,.67-.91,1.87,1.87,0,0,0-.49-.7,9.59,9.59,0,0,1-.81-.77,2.87,2.87,0,0,0-.88-.53m34.07,1.89c-.14,0-1.16.6-1.16.6a10.75,10.75,0,0,1-1.19.56l-1.93.81c-.77.18-1.86.35-1.86.35-.84.07-2.35.11-2.35.11-1.05-.11-2.49-.35-2.49-.35-1.47-.39-2.66-.63-2.66-.63-1.26-.25-2.42-.49-2.42-.49-1.16-.28-2.49-.63-2.49-.63a25.5,25.5,0,0,0-3.36-.46c-1.4-.11-2.45-.25-2.45-.25a18.93,18.93,0,0,0-2-.14,16,16,0,0,0-1.93-.07,9.57,9.57,0,0,0-1.51.11c-.84.07-1.12.07-1.12.07h-.67m3.26,1.82,1.61,0s1,0,1.61.11l1.37.14a14,14,0,0,1,1.75.18s1.4.21,2.31.42a19.43,19.43,0,0,1,2.31.84,17,17,0,0,0,2.52.35h3.36l1.82-.11c.42,0,1.61,0,1.61,0,.42,0,1.86-.25,1.86-.25a9.12,9.12,0,0,1,1-.35,7.62,7.62,0,0,0,.77-.39A3.41,3.41,0,0,0,501,209l.53-.28"/><path id="path4497-9" class="cls-6" d="M475.74,209.69s0,.18.67-.11.84-.32,1.26-.49a6.37,6.37,0,0,1,1.23-.28,3.69,3.69,0,0,0-.7.56c-.11.18-.21.28-.11.42a4.62,4.62,0,0,0,.49.46s-.67.14-.63.35a.77.77,0,0,0,.32.56,3.38,3.38,0,0,1,.56.81s-.25.28-1,.21a5.69,5.69,0,0,1-1.44-.14c-.56-.18-.53.11-.77-.42s-.42-.21-.25-.74l.35-1.05Z"/><path id="path4497" class="cls-7" d="M475.74,209.69s0,.18.67-.11.84-.32,1.26-.49a6.37,6.37,0,0,1,1.23-.28,3.69,3.69,0,0,0-.7.56c-.11.18-.21.28-.11.42a4.62,4.62,0,0,0,.49.46s-.67.14-.63.35a.77.77,0,0,0,.32.56,3.38,3.38,0,0,1,.56.81s-.25.28-1,.21a5.69,5.69,0,0,1-1.44-.14c-.56-.18-.53.11-.77-.42s-.42-.21-.25-.74l.35-1.05Z"/><path id="path4550" class="cls-12" d="M477.92,203.24a7.77,7.77,0,0,0-2.71.29c-1.09.24-2.09.62-2.28.67s.14.48.43.67.14.71.57.71h2.19c1.14,0,2.38.33,3.52.24a6.18,6.18,0,0,1,2.81,0,10.81,10.81,0,0,0,2.9.67c1.62.1,2.38.1,2.38.1s-.14-.52-1.14-1a12.56,12.56,0,0,0-2.09-.76c-1.38-.43-.76-.29-2.24-.76a8.67,8.67,0,0,0-2.28-.57l-2-.29Zm15,3.9a17.92,17.92,0,0,0-2.19-.62.73.73,0,0,0-.67.62,5.73,5.73,0,0,0,2,1,11.7,11.7,0,0,0,2.28.62,3.49,3.49,0,0,0,1.24-.1c-.48-.29-1.62-.9-1.62-.9A11.41,11.41,0,0,1,492.91,207.14Zm-25-1.38a1.68,1.68,0,0,0-1.19.48c0,.19,1,.62,1,.62A6.79,6.79,0,0,1,469.4,208l-.86-1.28C468.31,206.33,467.88,205.76,467.88,205.76Z"/><path id="path4552" class="cls-8" d="M460.6,210s-.76.48-.19.57.67-.1,1.14.1,1.09,0,.67-.1-.71-.24-1-.33-.67-.24-.67-.24Zm2.19,2.28a1.5,1.5,0,0,0-.76.33c-.1.24.48.33.48.33.67-.24,1.24-.38,1.24-.38a2.52,2.52,0,0,0-1-.29Zm14.47-2.52a12.44,12.44,0,0,0-1.43.81c-.19.38.33,1,.33,1a5.69,5.69,0,0,0,1.43.33l-.24-1a7.15,7.15,0,0,0-.1-1.14Z"/></g><g id="g4893"><path id="path4664-1" class="cls-13" d="M442.17,171.06c-.44,0-.82.06-2.28.13s-1.52.63-2.79,0a9.27,9.27,0,0,0-2.92-1.27c-1.46-.32-2.28-.76-2.85-.89s-1.33-1.59-.63-.06a11.76,11.76,0,0,0,1.65,2.6s.06.57-1.14.44-1.27-.44-3.11-.76-3.42-1.71-2.85-.44a5.85,5.85,0,0,0,2.28,2.6c.82.51,2.22.82,1.33.7a10,10,0,0,0-3-.32c-1.33.13-4-.82-3.68-.25a9.8,9.8,0,0,0,3.3,2.35c1,.38.19.44,2.35.63a29.82,29.82,0,0,1,4.31.44c.82.25,2.09,0,1.33.38s.38.63-1.65.82-3.17.38-3.17.38a3.29,3.29,0,0,0,2.35,1.52,27.54,27.54,0,0,1,3.93.06,10.79,10.79,0,0,0,3.55.25c.76-.19,2.47-.7,1.08-.06s-2.35,1.14-2.35,1.14a12.64,12.64,0,0,0,3.42.32c1.14-.19,2-.51,3.55-.76s2.6-.89,2.28-.44L445,182.67a17.7,17.7,0,0,0,2.35-.19,7.45,7.45,0,0,0,2.28-.76s-.38,1.27-.44,1.59.7.44,1.59-.13,1.84-2.28,1.52-1-.89,1.46-.25,1.78,2.16-.19,2.16-.19-.63,1,.32,1.27a2.9,2.9,0,0,0,2-.19.75.75,0,0,0,.7.7,3.19,3.19,0,0,0,1.33-.06s-.13,1.4.57,1.4a2.45,2.45,0,0,0,1.78-.76c.13-.32,0-.57.32.13s.06,1.2.7.82,1.08-1.2,1.2-.89.32,1.33.76,1.33a7.32,7.32,0,0,0,1.52-.38s.76-.19.82.25-.44,1.14.44.82a4.25,4.25,0,0,0,1.52-1s.82,1,1.2,1,1.14-.82,1.14-.82.32,1.33.63,1.52,1.2.38,1.27-.06-.51-1.46.06-1.14.38,1,1.4,1.4,1.33-.32,1.33-.63.51-.19,1.08-.13,1,.7,1-.38,1.84-1.14-.32-2.73a32.55,32.55,0,0,0-4.95-2.92c-1.08-.57-7.48-3-10.59-4s-7.67-2.92-10.46-3.61a70.12,70.12,0,0,1-8.75-3.55Z"/><path id="path4664" class="cls-7" d="M442.17,171.06c-.44,0-.82.06-2.28.13s-1.52.63-2.79,0a9.27,9.27,0,0,0-2.92-1.27c-1.46-.32-2.28-.76-2.85-.89s-1.33-1.59-.63-.06a11.76,11.76,0,0,0,1.65,2.6s.06.57-1.14.44-1.27-.44-3.11-.76-3.42-1.71-2.85-.44a5.85,5.85,0,0,0,2.28,2.6c.82.51,2.22.82,1.33.7a10,10,0,0,0-3-.32c-1.33.13-4-.82-3.68-.25a9.8,9.8,0,0,0,3.3,2.35c1,.38.19.44,2.35.63a29.82,29.82,0,0,1,4.31.44c.82.25,2.09,0,1.33.38s.38.63-1.65.82-3.17.38-3.17.38a3.29,3.29,0,0,0,2.35,1.52,27.54,27.54,0,0,1,3.93.06,10.79,10.79,0,0,0,3.55.25c.76-.19,2.47-.7,1.08-.06s-2.35,1.14-2.35,1.14a12.64,12.64,0,0,0,3.42.32c1.14-.19,2-.51,3.55-.76s2.6-.89,2.28-.44L445,182.67a17.7,17.7,0,0,0,2.35-.19,7.45,7.45,0,0,0,2.28-.76s-.38,1.27-.44,1.59.7.44,1.59-.13,1.84-2.28,1.52-1-.89,1.46-.25,1.78,2.16-.19,2.16-.19-.63,1,.32,1.27a2.9,2.9,0,0,0,2-.19.75.75,0,0,0,.7.7,3.19,3.19,0,0,0,1.33-.06s-.13,1.4.57,1.4a2.45,2.45,0,0,0,1.78-.76c.13-.32,0-.57.32.13s.06,1.2.7.82,1.08-1.2,1.2-.89.32,1.33.76,1.33a7.32,7.32,0,0,0,1.52-.38s.76-.19.82.25-.44,1.14.44.82a4.25,4.25,0,0,0,1.52-1s.82,1,1.2,1,1.14-.82,1.14-.82.32,1.33.63,1.52,1.2.38,1.27-.06-.51-1.46.06-1.14.38,1,1.4,1.4,1.33-.32,1.33-.63.51-.19,1.08-.13,1,.7,1-.38,1.84-1.14-.32-2.73a32.55,32.55,0,0,0-4.95-2.92c-1.08-.57-7.48-3-10.59-4s-7.67-2.92-10.46-3.61a70.12,70.12,0,0,1-8.75-3.55Z"/><path id="path4662-7" class="cls-13" d="M449.47,172.14a27.05,27.05,0,0,1-5.07-.7,7.94,7.94,0,0,1-2.35-1,17.62,17.62,0,0,0-2.28-1.46c-.7-.32-1-1.14-.76-.32s-.06,1.2,1,2a6.68,6.68,0,0,0,2.16,1.27c1.27.51,1.46.63,1.08.89s-1.52.51-.51,1,1.9.51,1.9.76-1,.7.32,1,2.66-.19,2.6.25-1,.82.57,1.08,3,.44,3,.44-1,.7.32.63,2.16-.63,2-.06-.51,1,.32,1.27,1.52-.06,1.59.25a1.24,1.24,0,0,0,1.4,1.14h1.59c.25,0-1.08.7.7.82a7.84,7.84,0,0,0,2.73-.25c.25,0,.44.57,1.33.63a11,11,0,0,0,2.47-.32s-.06,1.2.19,1.33a9.5,9.5,0,0,0,2-.06s-.19.82.44.89,1.08-1.14,1.14-.19-.51,1.4.51,1.08.38-1.33,1.08-.44,1.33,1.14,1.78.06,1.2-1.33.44-2.54,1-1.33-2.22-3a23.81,23.81,0,0,0-7.74-2.66c-2.22-.32-7.1-2.16-9-2.79a28.6,28.6,0,0,0-4.76-1Z"/><path id="path4885" class="cls-14" d="M438.48,171.53a.94.94,0,0,1,1,.46c.33.59.66.72.66,1.44a18.16,18.16,0,0,1-.33,2.36,8.8,8.8,0,0,1,2.36,0,4.43,4.43,0,0,1,2.3.85,9.27,9.27,0,0,1,1.12,1.44,8.52,8.52,0,0,1,3,0c.85.33.92.79.92.79s.46-.59,1-.26,1.05.72,1.05.72l.07.53s1.18-.53,1.25-.26a5.78,5.78,0,0,1,.07.92h1s.79-.13,1.12.2a13.09,13.09,0,0,1,1,1.31,9.43,9.43,0,0,1,1.58-.13c.26.07.53.53.53.53s1.58-.26,1.77,0,1.05.92,1.38.72a8.59,8.59,0,0,1,1.84-.59,1.35,1.35,0,0,1,.59,0s.2.39.46.46a10.61,10.61,0,0,1,2,.13,6.07,6.07,0,0,1,.79,1.05l1.31.53h.59a4.61,4.61,0,0,1,.59.53c.39.39.59.72,1.05.46a2.06,2.06,0,0,1,1.18-.39,3.79,3.79,0,0,0,.92.2c.33,0,.53.13.85-.2s.92-.92.66-1.12a2.9,2.9,0,0,1-.53-.59s-.53.92-1,.92-.46.33-1.05-.2a4.31,4.31,0,0,1-.79-.85s-.13.92-.66.92-.66-.07-.66-.59.39-.46-.07-.59a11.62,11.62,0,0,1-2-1.05c-.53-.33-1.05-1.05-1.44-1.31s0,.2-1.44-.07-2.89-.39-2.89-.39l-1.51-.92a6.26,6.26,0,0,1-1.05.07c-1.25.07-1,.59-2.1-.26a21.31,21.31,0,0,1-2.1-1.58c-.59-.59-.2-.66-1-.59s-.66.2-2.17-.39-1.51-.33-2.43-1.12-.53-1.05-1.38-1.25-1.71.07-2.36-.53-.72-.53-1-1.05a7.46,7.46,0,0,0-1.63-1.82,21.6,21.6,0,0,0-2-1.31,13.14,13.14,0,0,1-1.87-1.33s.26,1.51.53,1.64.53.8.53.8l.88.53Z"/><path id="path4662" class="cls-7" d="M449.47,172.14a27.05,27.05,0,0,1-5.07-.7,7.94,7.94,0,0,1-2.35-1,17.62,17.62,0,0,0-2.28-1.46c-.7-.32-1-1.14-.76-.32s-.06,1.2,1,2a6.68,6.68,0,0,0,2.16,1.27c1.27.51,1.46.63,1.08.89s-1.52.51-.51,1,1.9.51,1.9.76-1,.7.32,1,2.66-.19,2.6.25-1,.82.57,1.08,3,.44,3,.44-1,.7.32.63,2.16-.63,2-.06-.51,1,.32,1.27,1.52-.06,1.59.25a1.24,1.24,0,0,0,1.4,1.14h1.59c.25,0-1.08.7.7.82a7.84,7.84,0,0,0,2.73-.25c.25,0,.44.57,1.33.63a11,11,0,0,0,2.47-.32s-.06,1.2.19,1.33a9.5,9.5,0,0,0,2-.06s-.19.82.44.89,1.08-1.14,1.14-.19-.51,1.4.51,1.08.38-1.33,1.08-.44,1.33,1.14,1.78.06,1.2-1.33.44-2.54,1-1.33-2.22-3a23.81,23.81,0,0,0-7.74-2.66c-2.22-.32-7.1-2.16-9-2.79a28.6,28.6,0,0,0-4.76-1Z"/><path id="path4660-1" class="cls-13" d="M471,176.58s.25-.7-1-.89-.44-.19-2.22-.44a27,27,0,0,0-3.23-.32c-1.14-.06-2-.44-3-.57a6.23,6.23,0,0,1-1.84-.32,27.62,27.62,0,0,0-3.42-1,11.22,11.22,0,0,1-1.9-.38,15.33,15.33,0,0,1-2.28-.63,13.73,13.73,0,0,1-1.46-.7,8.78,8.78,0,0,1-1.59-1.08s-.32-.25-.19.38a2.38,2.38,0,0,0,.7,1.52c.57.63.7,1.14,1.59,1.27a18.88,18.88,0,0,0,2.16.13s-1,.32-.89.63a1.67,1.67,0,0,0,1.27,1.14c.7.06,2.85.06,2.85.06s-.51.25.44.63a6,6,0,0,0,2.09.51c.44,0,.82.7,1.59.63s1.27-.32,1.71-.32a6.66,6.66,0,0,1,1.2.19s-.06.44.82.7a3.65,3.65,0,0,0,1.78.32c.82-.06,1.65-.76,1.2-.06s-1.14.89-.25,1,1.71-.63,1.4.06-.25.82.25.82,0,0,.7.13,1,.19,1.2-.38a5,5,0,0,0,.38-1.4,7.51,7.51,0,0,0-.13-1.65Z"/><path id="path4883" class="cls-14" d="M473,183.57c-.3.4-.25,1.09-.55.59a14.9,14.9,0,0,0-1.34-1.59,1.57,1.57,0,0,0-.89-.64c-.69-.25-1.59-.69-1.59-.69s-.94-1.24-1.34-1.39a15.83,15.83,0,0,0-2.68-.59c-.89-.1-1.39-.1-1.39-.1a5.22,5.22,0,0,0-1.69-1,4.23,4.23,0,0,0-1.44.3,11.27,11.27,0,0,0-1.93-.84,5.8,5.8,0,0,0-1.29-.2,4,4,0,0,1-1.64-.59c-.35-.2-.79-.25-1.59-.59s-1.19-.4-1.64-.64a13.11,13.11,0,0,1-1.64-.84,3.61,3.61,0,0,1-1.49-1.54c-.2-.55.68-.71.68-.71l.16-.43a1.39,1.39,0,0,1-.64-.74c-.1-.45-.4-1-.2-.94a8.34,8.34,0,0,1,1.09,1.14,2.77,2.77,0,0,0,1.24.94,11.31,11.31,0,0,0,2,.64c.4,0,.84.15.84.45s-.35.55.1.74a4.84,4.84,0,0,0,1.73.4,17.48,17.48,0,0,0,2,.15.66.66,0,0,0,.5.84,17.69,17.69,0,0,0,2,.64c.35,0,.79,0,1.64,0s2,.15,2,.15,0,.94,1.09.89a16.31,16.31,0,0,0,2-.15c.74-.1.94-.59.94-.1s.15,1,.5,1.09,1.29.35,1.29.55a7.33,7.33,0,0,0,1.09,2.28c.35.25,2.23,2.68,2.23,2.68h-.5Z"/><path id="path4850" class="cls-15" d="M470.17,178s-.3.5-.69.15.2-1.78-1.19-1.69-1.78.64-2.08.4-.3-.64-1.24-.59-.79-.55-2.08-.69l-2.53-.3a8.54,8.54,0,0,1-2.08-.5c-1.59-.45-2-.3-2.53-.55a3,3,0,0,1-1.09-.79c-.4-.4-2-1-.89-.89s3.17.74,3.42.79,3.52,1,3.52,1a5.33,5.33,0,0,1,1.24.15c.5.15,2.33.45,2.53.5s3.77.35,4.11.45,2.13.4,2.13.4l-.45,2.43Z"/><path id="path4660" class="cls-7" d="M471,176.58s.25-.7-1-.89-.44-.19-2.22-.44a27,27,0,0,0-3.23-.32c-1.14-.06-2-.44-3-.57a6.23,6.23,0,0,1-1.84-.32,27.62,27.62,0,0,0-3.42-1,11.22,11.22,0,0,1-1.9-.38,15.33,15.33,0,0,1-2.28-.63,13.73,13.73,0,0,1-1.46-.7,8.78,8.78,0,0,1-1.59-1.08s-.32-.25-.19.38a2.38,2.38,0,0,0,.7,1.52c.57.63.7,1.14,1.59,1.27a18.88,18.88,0,0,0,2.16.13s-1,.32-.89.63a1.67,1.67,0,0,0,1.27,1.14c.7.06,2.85.06,2.85.06s-.51.25.44.63a6,6,0,0,0,2.09.51c.44,0,.82.7,1.59.63s1.27-.32,1.71-.32a6.66,6.66,0,0,1,1.2.19s-.06.44.82.7a3.65,3.65,0,0,0,1.78.32c.82-.06,1.65-.76,1.2-.06s-1.14.89-.25,1,1.71-.63,1.4.06-.25.82.25.82,0,0,.7.13,1,.19,1.2-.38a5,5,0,0,0,.38-1.4,7.51,7.51,0,0,0-.13-1.65Z"/><path id="path4672-1" class="cls-16" d="M480.31,196.79s.1.25-.2.6-.2.65-.7.95a4,4,0,0,0-1.2.95,2.91,2.91,0,0,0-.75,1c-.1.3-.95.8-.75,1a2,2,0,0,0,.9.3c.49,0,.95.09.95.44s.4,0,.1.7-.65.8-.65.8.35-.7,0-.7a7.37,7.37,0,0,1-.8,0c-.75,0-.55,0-1.09-.34a1.39,1.39,0,0,0-1-.16,3,3,0,0,1-.9.45c-.25,0-.2.1-.45.25s-.25.5-.45.65a6,6,0,0,1-.75.4l-.7.35s-.4-.1-.35-.45.75-.85.45-.9a1.3,1.3,0,0,0-.9.3,10.43,10.43,0,0,0-.85.7s-.25.55-.3-.1-.2-.85.1-1.15a3.13,3.13,0,0,1,.75-.55,4.14,4.14,0,0,0,.65-.6,1.07,1.07,0,0,1,.55-1.1c.7-.45.6-.6,1.15-.6a6.45,6.45,0,0,1,1.2.15c.35,0,.25.2.85.15s.45.25.95-.2a7.05,7.05,0,0,0,1.35-1.4c.3-.5.85-1.35.95-1.59a2,2,0,0,1,.9-1.1c.65-.4,1-.85,1.1-.3a3.11,3.11,0,0,1-.1,1Z"/><path id="path4865" class="cls-13" d="M478.07,197.82l.59.35s.35.27.47,0,.47-.5.17-.59a1.2,1.2,0,0,1-.64-.4c-.07-.15,0-.55-.17-.22l-.32.72Zm-.2.2.62.69-.57.5c-.32.27-.94.72-.94.72l-.07-.52.94-1.26Zm-1.54,1.88a2.77,2.77,0,0,0,.45.59c.12.07-.1.27-.1.27-.27.2-.72.57-.72.57l-.5.2a3.61,3.61,0,0,1-.17-.84c0-.15.25-.35.25-.35.22,0,.62-.12.62-.12.17-.25.17-.32.17-.32Zm.52,1.34a2.3,2.3,0,0,0-.82.42c0,.12.22.4.22.4a4.41,4.41,0,0,0,.89.17c.3,0,.74,0,.74,0s.37.3.37.3l.15-.59c0-.17-.32-.35-.32-.35-.57,0-.87-.1-.87-.1A1.17,1.17,0,0,1,476.86,201.24Zm-2.43.27a3.8,3.8,0,0,1,.79-.17,4.68,4.68,0,0,1-.62.52,5.81,5.81,0,0,0-.74.35c-.27.25-.5.5-.5.5a3.8,3.8,0,0,1-.82.62.57.57,0,0,1-.3,0c0-.25.32-.79.32-.79.3-.17,1.86-1,1.86-1Zm-.72-.62.47,0a3.61,3.61,0,0,1-.67.42c-.45.25-1,.5-1,.5a3.71,3.71,0,0,0-.42.62l-.37,0a1.4,1.4,0,0,0-.64,0c-.32.2-.64.42-.64.42-.17.12-.1-.35-.1-.35a10.6,10.6,0,0,0,1.26-1c.1,0,1-.25,1-.25.35-.15,1.07-.52,1.07-.52Zm.69-.62-1,.37-.72.22-.57.12-.27,0a9,9,0,0,1,1-1c.1,0,1.59.22,1.59.22Z"/><path id="path4670-5" class="cls-16" d="M487.93,197.09c-.2.4-.15.5-.45,1.3a5.18,5.18,0,0,1-.6,1.2,2.39,2.39,0,0,0-.35,1c0,.35-.2.65.1.75s.6,0,1.2.15a4.52,4.52,0,0,1,1.15.45,2.4,2.4,0,0,1,.6.5,1.35,1.35,0,0,1,.35.45c.15.3.35.6.3.8a2.6,2.6,0,0,1-.7.8c-.2.15-.3-.7-.3-.7s-.7.65-.8.1-.15-1.15-.4-1.2-1.3-.3-1.59-.35-.45.35-.45.35.1.65.15.9.1.55.1.55,0,.45-.3.5a.58.58,0,0,0-.5.6c0,.25.15.55-.1.35a1,1,0,0,1-.5-.9,1.66,1.66,0,0,0,0-.7,9.79,9.79,0,0,1,0-1.25.92.92,0,0,0-.8,0c-.35.2-.45.1-.85.4s-.2.3-.7.5-.5.45-.9.35a1.65,1.65,0,0,0-1.1-.1,6.51,6.51,0,0,1-.7.2s-.3-.5.15-.75a5,5,0,0,1,1.1-.4s.45-.3.1-.3-1.1.4-1.44.45-.6,0-.3-.55a2.09,2.09,0,0,1,.55-.8,3.12,3.12,0,0,1,1-.9c.35-.15.55-.5.9-.2a2,2,0,0,0,.95.6,7.25,7.25,0,0,0,1.49,0c.45,0,.55-.55.55-.55a2.16,2.16,0,0,1,.35-.75,2.49,2.49,0,0,0,.5-1.49c0-.45-.1-.5.55-1.54a14.36,14.36,0,0,1,1.74-2.14,3.71,3.71,0,0,1,.25,1.25,4,4,0,0,1-.4,1.1Z"/><path id="path4672" class="cls-7" d="M480.31,196.79s.1.25-.2.6-.2.65-.7.95a4,4,0,0,0-1.2.95,2.91,2.91,0,0,0-.75,1c-.1.3-.79.78-.59.93a2,2,0,0,0,.9.3c.44,0,.79.12.79.47s.4,0,.1.7-.65.8-.65.8.35-.7,0-.7a7.37,7.37,0,0,1-.8,0,1.51,1.51,0,0,1-1.17-.34,1.19,1.19,0,0,0-.92-.16,3,3,0,0,1-.9.45c-.25,0-.2.1-.45.25s-.25.5-.45.65a6,6,0,0,1-.75.4l-.7.35s-.4-.1-.35-.45.75-.85.45-.9a1.3,1.3,0,0,0-.9.3,10.43,10.43,0,0,0-.85.7s-.25.55-.3-.1-.2-.85.1-1.15a3.13,3.13,0,0,1,.75-.55,4.14,4.14,0,0,0,.65-.6,1.07,1.07,0,0,1,.55-1.1c.7-.45.6-.6,1.15-.6a6.45,6.45,0,0,1,1.2.15c.35,0,.25.2.85.15s.45.25.95-.2a7.05,7.05,0,0,0,1.35-1.4c.3-.5.85-1.35.95-1.59a2,2,0,0,1,.9-1.1c.65-.4,1-.85,1.1-.3a3.11,3.11,0,0,1-.1,1Z"/><path id="path4668-5" class="cls-13" d="M484.34,190.56a4.59,4.59,0,0,1,.2,1.3,3.46,3.46,0,0,1-.25,1.84c-.3.4-.75.55-1.3,1s-.55.8-1.3,1.44-1,1-1.54,1.35-.7-.7-.7-.7-.5.65-.5,0a5.89,5.89,0,0,1,0-1.84,8.48,8.48,0,0,0,.4-2.19,4.38,4.38,0,0,0-.2-2.09c-.3-.65-.7-.55-.65-1.74s0-1.59.65-1.84,1.4-.6,1.94,0a18.4,18.4,0,0,1,1.4,1.44A25,25,0,0,0,484.34,190.56Z"/><path id="path4846" class="cls-15" d="M482.64,190.37s.61.28.16.23-1.54-.45-1,0,1.88,1.24,1.34,1.19-.79-.25-.79,0-.84-.59-.74-.15.5,1.29.15,1.29-.4.15-.4.5-.74,0-.64.59.2.4-.15,1.09a11,11,0,0,0-.55,1.29l-.55.35-.25.4a5.57,5.57,0,0,1-.3-1.24c0-.4.3-1,.4-1.88s.35-1.09.25-1.64,0-.89-.15-1.24-.64-.79-.74-1.54a3.19,3.19,0,0,1,.1-1.88,1.3,1.3,0,0,1,1.69.15,16.17,16.17,0,0,1,1.57,1.94c.69.3.65.55.65.55Z"/><path id="path4668" class="cls-7" d="M484.34,190.56a4.59,4.59,0,0,1,.2,1.3,3.46,3.46,0,0,1-.25,1.84c-.3.4-.75.55-1.3,1s-.55.8-1.3,1.44-1,1-1.54,1.35-.7-.7-.7-.7-.5.65-.5,0a5.89,5.89,0,0,1,0-1.84,8.48,8.48,0,0,0,.4-2.19,4.38,4.38,0,0,0-.2-2.09c-.3-.65-.7-.55-.65-1.74s0-1.59.65-1.84,1.4-.6,1.94,0a18.4,18.4,0,0,1,1.4,1.44A25,25,0,0,0,484.34,190.56Z"/><path id="path4863" class="cls-13" d="M486,197.3a1.58,1.58,0,0,0,.35.25l.64.17c.12,0,.35.15.4,0a1.69,1.69,0,0,0,.27-.52c0-.2.17-.5-.25-.79s-.5-.4-.62-.22L486,197.3Zm-.1.45.82.27a2.22,2.22,0,0,1,.42.32c0,.12-.17.37-.17.37-.17.22-.35.5-.35.5a1.35,1.35,0,0,1-.45.35,1.63,1.63,0,0,1-.47-.27,5.71,5.71,0,0,1,.2-.67,6.22,6.22,0,0,1,.1-.72Zm-.45,2a3.7,3.7,0,0,1,.55.1,1.84,1.84,0,0,1,.2.37c0,.15,0,.45,0,.45s-.15.55-.15.55a.66.66,0,0,1-.32.27,1.38,1.38,0,0,1-.47,0,2.56,2.56,0,0,1-.42-.37c.07-.25.59-1.31.59-1.31Zm1,1.44a1.28,1.28,0,0,0-.32.4c0,.12.62.25.62.25a4.28,4.28,0,0,1,.77,0l.74.37a4.74,4.74,0,0,1,.4.69c.07.32.15.57.15.57l.37-.32a.49.49,0,0,1,.3,0c.15.2.3.37.3.37s0-.74,0-.74a2.82,2.82,0,0,0-.55-.69,6.68,6.68,0,0,0-1.29-.55l-.72-.1a1.68,1.68,0,0,1-.52-.15,1.14,1.14,0,0,0-.27-.17Zm-1,.52a1.94,1.94,0,0,0-.47.15,1.2,1.2,0,0,0,.07.52,1.34,1.34,0,0,1,.22.45,6.44,6.44,0,0,1,0,.77,2.09,2.09,0,0,0-.07.59c0,.4.2.27.2.27a2.3,2.3,0,0,0,.27-.67c-.07-.5-.12-.72-.12-.72a4.59,4.59,0,0,1,.07-.94c0-.37-.17-.42-.17-.42Zm-.94.35-.74-.12a8.89,8.89,0,0,1-1.24,0,2.18,2.18,0,0,0-.37,0,1.13,1.13,0,0,0-.37.42,3.62,3.62,0,0,1-.55.45,1.38,1.38,0,0,1-.32.27,1,1,0,0,0,.07.3c.2,0,.64-.12.64-.12a3.52,3.52,0,0,0,.62-.5l.64-.27a10,10,0,0,1,1.07-.32,1.94,1.94,0,0,0,.55-.15Zm-1.16-.64a4.82,4.82,0,0,1-.89-.47,3.6,3.6,0,0,0-.62-.32,1.35,1.35,0,0,0-.64.17c-.2.17-.62.47-.62.47a1.62,1.62,0,0,0-.17.37c.1,0,.35.25.35.25a2.51,2.51,0,0,1,0,.47l.52-.64a5,5,0,0,1,.55-.32l1,.22.55-.1Z"/><path id="path4626-8" class="cls-13" d="M480.92,169a2,2,0,0,0-1.17-.86c-.22,0-1.17,0-1.6,0a8.48,8.48,0,0,0-1.72.77,10.48,10.48,0,0,0-1.23.83c-.22.12-.46.22-.31.31s.46.12.43.25a3.44,3.44,0,0,1-.77.68,11.26,11.26,0,0,0-1.23,1c-.22.25-1.29,1.54-1.39,1.66s-1.29,2-1.36,2.16-.4,1.48-.43,1.66a9,9,0,0,0-.15,1.66,20.55,20.55,0,0,0,1.23,2.16s1.17,1.23,1.6,1.79a18.14,18.14,0,0,0,2.13,1.85c.15.12,1.76,1.39,2,1.69a20.75,20.75,0,0,0,2.22,1.82,16.93,16.93,0,0,0,2.65,1.51c.83.37,2.59,1.39,2.59,1.39s5,2.71,5.24,2.9a10.61,10.61,0,0,1,1.45,1.42,4.17,4.17,0,0,0,.4.89,11.21,11.21,0,0,1,.77,1.23,16.35,16.35,0,0,1,.74,1.48,5,5,0,0,0,.59,1.39c.37.59.37.77.83,1.11s.4.49,1,.62a2.62,2.62,0,0,0,1.66.09c1.17-.18,1.36-.25,2.25-.34s1.51-.28,2.28-.34,1.39-.18,1.85-.25a2.66,2.66,0,0,0,1.23-.31c.62-.31.62,0,1-.43s.8-.49.77-1,.28-.55-.22-1-.62-.34-1-.77a4.25,4.25,0,0,1-.68-1c-.15-.37-2.13-3.51-2.13-3.51s-.77-1.2-1.26-1.79-1.88-2.28-2.43-2.86-4.93-4.37-5.42-4.71-3.17-2.06-3.85-2.49-4.56-2.49-4.71-2.59-1.66-.83-2.06-1-1.08-.59-1.63-.86a9.51,9.51,0,0,1-1.26-.55c-.18-.18-.49-.37-.37-.77s.46-.52.71-.77a2.28,2.28,0,0,1,.59-.4s1-.37,1.11-1a5.33,5.33,0,0,0,.06-1.51c0-.18-.28-1-.31-1.29a4.66,4.66,0,0,0-.22-1.14,7.15,7.15,0,0,0-.46-.71Z"/><path id="path4670" class="cls-7" d="M487.93,197.09c-.2.4-.15.5-.45,1.3a5.18,5.18,0,0,1-.6,1.2,2.39,2.39,0,0,0-.35,1c0,.35-.2.65.1.75s.6,0,1.2.15a4.52,4.52,0,0,1,1.15.45,2.4,2.4,0,0,1,.6.5,1.35,1.35,0,0,1,.35.45c.15.3.35.6.3.8a2.6,2.6,0,0,1-.7.8c-.2.15-.3-.7-.3-.7s-.7.65-.8.1-.15-1.15-.4-1.2-1.3-.3-1.59-.35-.45.35-.45.35.1.65.15.9.1.55.1.55,0,.45-.3.5a.58.58,0,0,0-.5.6c0,.25.15.55-.1.35a1,1,0,0,1-.5-.9,1.66,1.66,0,0,0,0-.7,9.79,9.79,0,0,1,0-1.25.92.92,0,0,0-.8,0c-.35.2-.45.1-.85.4s-.2.3-.7.5-.5.45-.9.35a1.65,1.65,0,0,0-1.1-.1,6.51,6.51,0,0,1-.7.2s-.3-.5.15-.75a5,5,0,0,1,1.1-.4s.45-.3.1-.3-1.1.4-1.44.45-.6,0-.3-.55a2.09,2.09,0,0,1,.55-.8,3.12,3.12,0,0,1,1-.9c.35-.15.55-.5.9-.2a2,2,0,0,0,.95.6,7.25,7.25,0,0,0,1.49,0c.45,0,.55-.55.55-.55a2.16,2.16,0,0,1,.35-.75,2.49,2.49,0,0,0,.5-1.49c0-.45-.1-.5.55-1.54a14.36,14.36,0,0,1,1.74-2.14,3.71,3.71,0,0,1,.25,1.25,4,4,0,0,1-.4,1.1Z"/><path id="path4858" class="cls-14" d="M477.41,185.7l-.55.74s1.44,1.24,1.64,1.44,2.53,1.59,3,1.88,2.43,1.29,2.87,1.59a14.68,14.68,0,0,0,1.59.79,1.88,1.88,0,0,0-.45-1.14c-.45-.5-.94-.54-1.29-1.24s-.06-.6,0-1a5.22,5.22,0,0,0,0-1.29l-.39.1c-.4.2-.2.65-1.14.35a4.08,4.08,0,0,1-1.68-.8c-.5-.4-.3,0-.35.15s.25.89-.69.15a8.17,8.17,0,0,0-1.64-1.14Zm13.23,4.21-.35,1.83c-.15.5-.34,2.13-.34,2.13v.6c.2.15,1.14,1,1.14,1l.3.95,1,1.48,1.24,3,.89,1.14,1.73.6a18.83,18.83,0,0,0,2.37-.5c.2,0,3.43-.45,3.43-.45.2,0,2.48-.34,2.48-.34a9.91,9.91,0,0,0,1.24-.5,3.44,3.44,0,0,1,.35-.65,10.21,10.21,0,0,1-1-.19c-.45-.4-1.54-1.44-1.54-1.44-.35-.35-1.38-1.49-1.38-1.49-.55-.4-1.94-1.53-1.94-1.53a17.85,17.85,0,0,1-1.38-1.54c-.4-.45-.94-1-.94-1a5.68,5.68,0,0,0-.89.74,3.93,3.93,0,0,1-1-1c-.5-.64-.65-.8-.65-.8-.25.15-1.18,0-1.18,0a15,15,0,0,0-1.34-1,9.35,9.35,0,0,0-.95-.15,2.19,2.19,0,0,1-.69-.35Zm6.64,5c.1.25-.15.89-.15.89a6.06,6.06,0,0,1-1.19.65c-.94-.2-1.53-.3-1.53-.3a4.94,4.94,0,0,1-1.83-.89l1.88.19a16.2,16.2,0,0,1,1.88-.34C496.89,195,497.28,194.92,497.28,194.92Zm-2,2.18s.75,1.84,1,2.63a14.65,14.65,0,0,1,.79,2.23,2.91,2.91,0,0,1-.69-.74,6.3,6.3,0,0,1-.8-1.34s-.3-.8-.45-1.39A10.7,10.7,0,0,1,495.3,197.1Zm-2,.1a3,3,0,0,1,.25.85,8.69,8.69,0,0,0,.84,2.17,13.91,13.91,0,0,1,1,1.69s-.34.2-.74-.3c0,0-.55-1.09-.89-1.68a12.27,12.27,0,0,1-.45-1.84A5.23,5.23,0,0,1,493.27,197.2Zm5.7.11a12.52,12.52,0,0,1,1.59.69l1.39,1.73a8,8,0,0,1,.49,1,25.74,25.74,0,0,1-2.52-1.73A4.54,4.54,0,0,1,499,197.3Zm-1.63.34a2,2,0,0,1,.79.89c.3.64.84,1.44,1,1.94a4.61,4.61,0,0,0,.6,1c-.79-.25-.79.1-1.44-.89s-.69-1-.84-1.49A6.71,6.71,0,0,1,497.33,197.64Z"/><path id="path4852" class="cls-14" d="M479.18,172.25s.43.72-.17.94-.94.51-1.32.6a2.18,2.18,0,0,0-.72.34s1.19.09.38.43-.26.09-1.15.68-1.36,1.07-1.19,1.11,1.66-.77,1.11-.09a7.28,7.28,0,0,0-1,1.62c0,.13,0,.68,0,1.36s.85-1.75.85-.34-.26,2.6.13,1.7a9.26,9.26,0,0,1,1.32-2.13c.38-.47.47-1.41,1-.72s.51,1.15.85.77.51-.6.77-.64.55.26.81.26,2,.34,2.17.34.6.17.38,0a13.73,13.73,0,0,0-1.24-.72,4.49,4.49,0,0,0-1.24-.72,3.51,3.51,0,0,1-1.24-.38.44.44,0,0,1-.2-.54s-.11-.48.27-.65a4,4,0,0,0,.91-.73l.38-.21s.55-.26.21-.3-.7.14-.92-.11-.37-.24-.37-.62a1,1,0,0,0-.12-.54Z"/><path id="path4842" class="cls-15" d="M479.61,168.08c.15,0,.47,0,.47.22s0,.3-.12.45-.15.37-.5.27-.64-.22-.4,0,.47.4.35.47-.5.27-.5.37a2.8,2.8,0,0,0,0,.35l-.27.3s-.1.1-.4.07-.47-.07-.77-.07a1.09,1.09,0,0,0-.67.17c-.1.1-.12.25-.3.37a3.8,3.8,0,0,0-.52.55,3.24,3.24,0,0,0-.55.67c-.17.3-.4.45-.25.47s1,0,1,0l1.21-.22a5.36,5.36,0,0,0,.59-.2c.27-.1.52-.47.25,0s-.32.52-.52.67a4.31,4.31,0,0,1-.94.62c-.52.25-.72.4-1.21.59a4,4,0,0,0-1,.5c-.42.27-.35.12-.77.47a3.9,3.9,0,0,0-.84.74c-.82.82-.69.37-1,1.07s-.17.59-.52,1.29-.45.62-.52,1.26a3.71,3.71,0,0,0,.22,1.44l.17.57a14.54,14.54,0,0,1-1.41-2.28c0-.27.59-3.12.62-3.25s1.29-2.38,1.29-2.38l1.54-1.51,1.73-1.44s.25-.12.15-.2l-.35-.25s.32-.64.55-.67,1.26-.67,1.54-.77a5.42,5.42,0,0,1,1.44-.47,7.74,7.74,0,0,0,1.29-.1Zm-7.36,14.25,1.34.79,1,.25,1.09.3c.79.15,1.64.25,1.64.25l-1,.1c-.2,0-.89,0-.89,0l-1-.1c-.45-.25-1.14-.55-1.14-.55ZM491,190.76c0-.55,0-1.14,0-1.14V189c.5.74.89,1.44.89,1.44l.55-.4c.2,0,1.14.74,1.14.74.55.45,1.44,1.14,1.44,1.14l.55-1,.2,1c.59.69,1,1.09,1,1.09a1,1,0,0,0,1.09-.55l.69.5c.15.3.74,1.19.74,1.19a5.92,5.92,0,0,0,1,1.09c.84.5,1.83,1.24,1.83,1.24a15.9,15.9,0,0,0,1.24,1.39c.35.45,1.19,1.29,1.19,1.29a3.7,3.7,0,0,0,1.14.55,4.91,4.91,0,0,0,.89,0l-.79.69a3.13,3.13,0,0,1-1.14-.5c-.35-.3-1-.84-1-.84a2.77,2.77,0,0,1-.5-.79,5.62,5.62,0,0,0-.89-.94c-.45-.25-1.49-1-1.49-1-.2-.15-1.24-.84-1.24-.84-.4-.4-.94-1.09-.94-1.09a6.58,6.58,0,0,1-.64-1c0,.2-.1.84-.1.84l-.35.1a12.71,12.71,0,0,0-1.19-1c-.2-.25-.84-.94-.84-.94l.15.89-1.19-.45-1.54-1.14a2.71,2.71,0,0,0-.45-.64,2.13,2.13,0,0,1-.4.55,1.85,1.85,0,0,1-.4-.3C491.33,191.1,491,190.76,491,190.76Zm-12-9.95c-.7.07-.77,1.33-.77,1.33a11.26,11.26,0,0,1,2.31,1.61,2.4,2.4,0,0,0,1.68.7c-.63-1.19-.21-.91-.21-.91a12.79,12.79,0,0,0,2.45.91,4.78,4.78,0,0,0-2.45-2.38C481,181.72,479,180.81,479,180.81Z"/><path id="path4626" class="cls-7" d="M480.92,169a2,2,0,0,0-1.17-.86c-.22,0-1.17,0-1.6,0a8.48,8.48,0,0,0-1.72.77,10.48,10.48,0,0,0-1.23.83c-.22.12-.46.22-.31.31s.46.12.43.25a3.44,3.44,0,0,1-.77.68,11.26,11.26,0,0,0-1.23,1c-.22.25-1.29,1.54-1.39,1.66s-1.29,2-1.36,2.16-.4,1.48-.43,1.66a9,9,0,0,0-.15,1.66,20.55,20.55,0,0,0,1.23,2.16s1.17,1.23,1.6,1.79a18.14,18.14,0,0,0,2.13,1.85c.15.12,1.76,1.39,2,1.69a20.75,20.75,0,0,0,2.22,1.82,16.93,16.93,0,0,0,2.65,1.51c.83.37,2.59,1.39,2.59,1.39s5,2.71,5.24,2.9a10.61,10.61,0,0,1,1.45,1.42,4.17,4.17,0,0,0,.4.89,11.21,11.21,0,0,1,.77,1.23,16.35,16.35,0,0,1,.74,1.48,5,5,0,0,0,.59,1.39c.37.59.37.77.83,1.11s.4.49,1,.62a2.62,2.62,0,0,0,1.66.09c1.17-.18,1.36-.25,2.25-.34s1.51-.28,2.28-.34,1.39-.18,1.85-.25a2.66,2.66,0,0,0,1.23-.31c.62-.31.62,0,1-.43s.8-.49.77-1,.28-.55-.22-1-.62-.34-1-.77a4.25,4.25,0,0,1-.68-1c-.15-.37-2.13-3.51-2.13-3.51s-.77-1.2-1.26-1.79-1.88-2.28-2.43-2.86-4.93-4.37-5.42-4.71-3.17-2.06-3.85-2.49-4.56-2.49-4.71-2.59-1.66-.83-2.06-1-1.08-.59-1.63-.86a9.51,9.51,0,0,1-1.26-.55c-.18-.18-.49-.37-.37-.77s.46-.52.71-.77a2.28,2.28,0,0,1,.59-.4s1-.37,1.11-1a5.33,5.33,0,0,0,.06-1.51c0-.18-.28-1-.31-1.29a4.66,4.66,0,0,0-.22-1.14,7.15,7.15,0,0,0-.46-.71Z"/><path id="path4632-6" class="cls-16" d="M483.08,171.39a.4.4,0,0,1-.23.26,2.21,2.21,0,0,1-.39.12,3.57,3.57,0,0,1-.35,0h-.32a.13.13,0,0,1,0-.14c.06-.08.26-.23.32-.29a.63.63,0,0,1,.28-.18,1.32,1.32,0,0,1,.32-.06c.11,0,.66.23.63.12a1.38,1.38,0,0,0-.37-.66,1.07,1.07,0,0,0-.54-.28.85.85,0,0,0-.48,0,1.9,1.9,0,0,0-.68.28,2.78,2.78,0,0,0-.54.4,2.41,2.41,0,0,0-.68.75,2.22,2.22,0,0,0-.25.69c0,.15-.11.28.12.46s-.06.43,1,.43,1.31.12,1.56-.14.39-.29.46-.57.12-.2.17-.49a2.87,2.87,0,0,0,0-.74Z"/><path id="path4632" class="cls-7" d="M483.08,171.39a.4.4,0,0,1-.23.26,2.21,2.21,0,0,1-.39.12,3.57,3.57,0,0,1-.35,0h-.32a.13.13,0,0,1,0-.14c.06-.08.26-.23.32-.29a.63.63,0,0,1,.28-.18,1.32,1.32,0,0,1,.32-.06c.11,0,.66.23.63.12a1.38,1.38,0,0,0-.37-.66,1.07,1.07,0,0,0-.54-.28.85.85,0,0,0-.48,0,1.9,1.9,0,0,0-.68.28,2.78,2.78,0,0,0-.54.4,2.41,2.41,0,0,0-.68.75,2.22,2.22,0,0,0-.25.69c0,.15-.11.28.12.46s-.06.43,1,.43,1.31.12,1.56-.14.39-.29.46-.57.12-.2.17-.49a2.87,2.87,0,0,0,0-.74Z"/><path id="path4628-2" class="cls-13" d="M483.11,170.93c.15.12.31.52.34.28a4.23,4.23,0,0,0,.15-.77,1.18,1.18,0,0,0-.09-.68.8.8,0,0,0-.34-.43c-.22-.15-1.08-.59-1.08-.59l-.89-.09c-.31,0-.86,0-.86,0s-.09.31-.12.43l-.15.59s-.28.18-.46.28-.31,0-.43.25a5.1,5.1,0,0,0-.25.52,2.58,2.58,0,0,0,0,.37c0,.18,0,.22.22.68s.22.74.46.89.37.37.4.18a2.68,2.68,0,0,1,.46-.8c.15-.18.28-.34.43-.49a3.16,3.16,0,0,1,.55-.43c.28-.18.31-.28.52-.28s.34-.09.52-.06.65.18.65.18Z"/><path id="path4856" class="cls-14" d="M483.06,169.16c0,.07.11.14,0,.32s-.12.24-.25.32l-.37.24a1.51,1.51,0,0,1-.31.18,2.19,2.19,0,0,1-.44.15,3.59,3.59,0,0,0-.55.23,1.34,1.34,0,0,0-.5.37,1.44,1.44,0,0,0-.39.46,5.16,5.16,0,0,0-.38.68,2.64,2.64,0,0,0-.07.77,5.9,5.9,0,0,0,.4-.61,6.46,6.46,0,0,1,1.07-1.17,1.81,1.81,0,0,1,1.11-.4,1.84,1.84,0,0,1,.82.31c0,.06.06.31.19.13a1.34,1.34,0,0,0,.25-.74c0-.24,0-.58-.1-.74s-.48-.51-.48-.51Z"/><path id="path4628" class="cls-7" d="M483.11,170.93c.15.12.31.52.34.28a4.23,4.23,0,0,0,.15-.77,1.18,1.18,0,0,0-.09-.68.8.8,0,0,0-.34-.43c-.22-.15-1.08-.59-1.08-.59l-.89-.09c-.31,0-.86,0-.86,0s-.09.31-.12.43l-.15.59s-.28.18-.46.28-.31,0-.43.25a5.1,5.1,0,0,0-.25.52,2.58,2.58,0,0,0,0,.37c0,.18,0,.22.22.68s.22.74.46.89.37.37.4.18a2.68,2.68,0,0,1,.46-.8c.15-.18.28-.34.43-.49a3.16,3.16,0,0,1,.55-.43c.28-.18.31-.28.52-.28s.34-.09.52-.06.65.18.65.18Z"/><path id="path4644-2" class="cls-13" d="M480.74,178.15l1.07.22s1.82.09,2.31.09a3.15,3.15,0,0,0,1.07-.18,5.84,5.84,0,0,0,1.24-.49,3.53,3.53,0,0,0,1.15-.84c.44-.36.53-.62,1-1a5.66,5.66,0,0,1,1.11-.71c.4-.22.44-.4.75-.8s.71-.71,1.24-1.33a3.05,3.05,0,0,1,1.15-.93c.53-.31,1-.49,1.64-.8s.93-.18,1.78-.13,1.69.09,2.26.09,2.49,0,3.28-.09,1.29-.18,1.91-.22a4.92,4.92,0,0,1,1.11,0l-.36.27c.22.09-.09.27.84.31s1.33,0,2.09,0a11,11,0,0,0,2.09-.22c0,.36-.18,0-.18,0a11.11,11.11,0,0,0,2.26-.27c.58-.13,2.62-.93,3.64-1.29l2.89-1a4.23,4.23,0,0,0,1.38-.49c.4-.31,1.15-1.24.84-.49a3.47,3.47,0,0,1-1.38,1.82c-.75.49-1.73.71-.89.62a14.22,14.22,0,0,0,3.11-.53c.75-.31,2.71-.53,3.64-1.2s2.26-1.2,2.93-1.6a12.1,12.1,0,0,1,1.6-.75,2.87,2.87,0,0,1-1,1.74,8,8,0,0,0-1.61,1.67l-.94.94a8,8,0,0,0,2.57-.31,35.16,35.16,0,0,0,3.44-1.11,23.08,23.08,0,0,0,2.66-1c.36-.31.93-1.24.71-.67a19.06,19.06,0,0,1-1.46,2,3.82,3.82,0,0,1-1.51,1.64c-1,.67-2.26,1.33-2.26,1.33a7.31,7.31,0,0,0,2,.09,13,13,0,0,0,2.66-.22c1.73-.31,3.2-.71,3.2-.71a1.54,1.54,0,0,1-.53.89c-.49.44-1.29.84-1.91,1.33a8.85,8.85,0,0,1-1.91,1.38,12.16,12.16,0,0,1-3.55.75c-.62,0-1.29.09-1.69.09s-.58-.18-.49,0-.62.27.71.44,2.09.13,2.53.18,1.33-.49.49.36a3.9,3.9,0,0,1-2,1.38,12.24,12.24,0,0,1-2.93.53c-1.07,0-2.4.13-3.24.09s-2.22-.67-2-.44,1.86.49,1.33.84.44.09-1,.44a20.29,20.29,0,0,1-3.51.58,2.89,2.89,0,0,1-1.46-.09l-2.62-.67,1.15.84s0,.18-.84.22a10.36,10.36,0,0,1-1.86-.13s1.07.89.36,1-.36.27-1.46,0-1-.22-.75.18.09.71-.4.71-1.2-.36-1.2,0,.93,1,.09,1.29-.62.67-1.64.31-1.24-.27-1.24-.27.67.27-.09.58-.49.4-1.38.22-1.33-.53-1.2-.18.67.58.09.71a2.78,2.78,0,0,1-1.6,0c-.4-.18-.67-.71-.67-.22s.62.53-.18.8a4.33,4.33,0,0,1-2,0v.4c0,.36,0,.53-.27.62a4.86,4.86,0,0,1-1.33-.22s.49,0,.27.67-.31.89-.8.89-.58.18-.89-.18a7.21,7.21,0,0,0-.84-.75,6.51,6.51,0,0,1-.75-.67,4.36,4.36,0,0,0-.49-.49,1,1,0,0,0-.36-.44,11.44,11.44,0,0,0-1.07-.53"/><path id="path4871" class="cls-14" d="M488.92,183.25a6.61,6.61,0,0,1,.37-1.4s.42-.28.66-.14a10,10,0,0,0,1.31.42,2.7,2.7,0,0,1-.14-1.17.92.92,0,0,1,.8-.84l1,.61a2.69,2.69,0,0,1,0-1.36c.23-.42,1.78,0,1.78-.23s-.61-.37-.09-1.22,2-.66,2-.66a1.3,1.3,0,0,1-.09-.7,3.59,3.59,0,0,1,1.64-.8,3.81,3.81,0,0,1,.89.19s-.51-.84,0-1.26a2.2,2.2,0,0,1,1.59-.14s0,.61.47,0,2.9-1.22,2.9-1.22a5.39,5.39,0,0,1,.7-1.4c.33-.33-.42-.47-.42-.47L505,171l-1.31,0s-1.45,0-1.59.51-1.83,1-2.34,1-1.12,0-1.87,0a2.44,2.44,0,0,0-1.36.33c-.56.28-.61.66-1,.8s0-.33-.66.33-.66,1-1.12,1.36a4.13,4.13,0,0,0-.8.75c-.33.37-.51.14-.8.37s-.61.94-1.08,1.17a8.24,8.24,0,0,0-1.08.66c-.42.28-.8.28-1.08.56s-1,.51-1,.8.66.51.19.47-.42-.33-1-.09-.33.61-.8.89-1.12.75-1.12.75a14,14,0,0,0,1.4.66c.23,0,2.34.84,2.34.84Zm5.85,3.37a5.55,5.55,0,0,1,.23-1.08,6.07,6.07,0,0,1,1.45-.42c.33.14.28-.23.28-.23.33-.84.61-.89.61-.89v-.37a11.1,11.1,0,0,1,1.45-1.22c.56,0,.56.66.56.66l.42-1.4a2.36,2.36,0,0,1,.75-.19l1.26-.89.66-1.08a3.58,3.58,0,0,1,1-.14l.42-.66a2.5,2.5,0,0,1,1.31-.19l.14-.42a3.3,3.3,0,0,1,1.08-.56l.33-.33c0-.42.8-1,.8-1a1.55,1.55,0,0,1,1.36.09c.19,0,1.69.28,1.69.28l-.51-.61c-.09-.61.14-.8.14-.8l1.54,0-1-.37a.75.75,0,0,1-.19-.56,6.93,6.93,0,0,1,1.4,0,8.56,8.56,0,0,0,.89-.14c-.84-.19-1.45-.37-1.45-.37-.28-.56-.14-.8-.14-.8l1.31,0-.75-.23a1.23,1.23,0,0,1-.56-.56c.19-.37.8-.51.8-.51.23,0,.75-.19.75-.19a6.52,6.52,0,0,0-1.31-.28c-.23,0-2.48.28-2.48.28-.19,0-.61.42-.61.42,0,.33-.56,1-.56,1-.61.33-2.06.89-2.06.89-.19,0,.61.42.61.42l-.33.56-2.48.56c-.37,0-.19.19-.19.19a1.68,1.68,0,0,1,.23,1,5.24,5.24,0,0,1-2.25.33l.47.47a2.71,2.71,0,0,1-1.5.51,7.27,7.27,0,0,1-1.17-.09l.28.56c-.37.14-1.5.42-1.5.42v.56l-.47.28c-.33.09-1,.23-1,.23a.81.81,0,0,0-.33,0c.14.61-.61,1.17-.61,1.17a7,7,0,0,1-.89-.19c.09.19-.47.94-.47.94h-.42l-1.78.66c-.51,0-.66.19-.66.19,0,.23-1.45,1.08-1.45,1.08-.37,0-.61-.47-.61-.47a6.84,6.84,0,0,0-.94-.19,3.33,3.33,0,0,0,1,.94c.66.28,1.73.8,1.73.8a10.53,10.53,0,0,0,.94.84,7.42,7.42,0,0,1,1.26.56,7.53,7.53,0,0,0,1.5.42Z"/><path id="path4634" class="cls-7" d="M482.69,171.94a.59.59,0,0,0-.28,0,2.23,2.23,0,0,1-.4.11,3.43,3.43,0,0,1-.57,0,1.29,1.29,0,0,0-.34-.06,2.49,2.49,0,0,0-.46,0c-.17,0-.15,0-.31.12a2.09,2.09,0,0,0-.32.48.63.63,0,0,0,.42.26,2.16,2.16,0,0,0,1,0,3.68,3.68,0,0,0,.8-.35c.18-.14.25-.11.35-.25a.62.62,0,0,0,.11-.34Z"/><path id="path4636" class="cls-7" d="M478.89,170c0,.11.14.18,0,.37s-.18.29-.4.29a4.57,4.57,0,0,1-.62,0c-.39,0-.34-.12-.6,0a1.25,1.25,0,0,0-.43.22,1.49,1.49,0,0,0-.31.32"/><path id="path4638" class="cls-11" d="M478.55,170.62a.79.79,0,0,1,0,.31c0,.2,0,.46-.12.59s-.17.23-.45.32-.31.18-.51.11a.94.94,0,0,1-.43-.29.85.85,0,0,1-.2-.35,1.43,1.43,0,0,1-.06-.37c0-.11.26-.32.32-.32a2.59,2.59,0,0,1,.45-.06Z"/><path id="path4640" d="M477.81,170.66c-.06.06-.12,0-.08.15s0,.22.12.32l.26.29s-.08.12-.29,0-.4,0-.45-.22,0-.23,0-.39-.14-.28,0-.29A2.15,2.15,0,0,1,477.81,170.66Z"/><path id="path4848" class="cls-15" d="M481.84,178.42l-1.12-.27s-.42.21.07.7A10.15,10.15,0,0,0,483,180s2.24,1.4,2.31.7.21-1.05.56-1,.35-.35.84-.63,1.47-.21,1.82-.35.7-.84,1-1.19,1.4-.14,1.47-.42-.21-1.82.42-1.82,1.26,1.12,1.4.07.21-1.47.84-1.4.63-.84.91-.84,1.12-.63,1.4-.7-.07-.42,1.19-.35a12.37,12.37,0,0,0,2.66-.21l1.12-.28s1.54-.28.35-.35-6.23-.08-6.23-.08l-1.76.7s-1.07.46-1.21.74-1.66,1.91-1.66,1.91l-1.27,1.07-1,.76s-1,1.35-1.47,1.49-2.28.63-2.28.63Z"/><path id="path4642" class="cls-7" d="M485.71,182.1c.44.09,1.07.49,1.33,0a2.6,2.6,0,0,0,.22-1.2,1.26,1.26,0,0,0,.84.09c.4-.13.71-.09.8-.53s-.75-.62.18-.49,1.24-.31,1.07-.62.27-.49.49-.58a3,3,0,0,0,1.33-.44c.62-.44.36-.4,1-.84s.31.09.84-.75,1.24-1.78,1.24-1.78a.41.41,0,0,0,.58-.13,6.53,6.53,0,0,0,.8-1c.09-.27.93-.4.93-.4s-.13.09.67,0,1.64-.13,2.26-.22,1.64-.09,2-.4.36-.53.36-.53a10.11,10.11,0,0,1,.93-.44,5.78,5.78,0,0,0,1.24-.8,4.92,4.92,0,0,0-1.11,0c-.62,0-1.11.13-1.91.22s-2.71.09-3.28.09-1.42,0-2.26-.09-1.11-.18-1.78.13-1.11.49-1.64.8a3.05,3.05,0,0,0-1.15.93c-.53.62-.93.93-1.24,1.33s-.36.58-.75.8a5.66,5.66,0,0,0-1.11.71c-.49.4-.58.67-1,1a3.53,3.53,0,0,1-1.15.84,5.84,5.84,0,0,1-1.24.49,3.15,3.15,0,0,1-1.07.18c-.49,0-2.31-.09-2.31-.09l-1.07-.22"/><path id="path4644" class="cls-7" d="M504.49,171.32c.22.09-.09.27.84.31s1.33,0,2.09,0a11,11,0,0,0,2.09-.22c0,.36.22.53-.27.93s-.89,1-1.38,1.24-.62.22-.22.31.75.18.4.62-.49.71-1,.89a7.69,7.69,0,0,1-1.55.36c-.44,0-1.11-.13-.89.09s.67,1.2.31,1.38a4,4,0,0,1-1.42.27c-.36,0-.49-.36-.49,0s0,1-.62,1a4.67,4.67,0,0,1-1.55,0c-.8-.18-.49.36-.49.36s-.13.71-.71.62-1-.44-.89-.18.67.22.36.67a1.25,1.25,0,0,1-1.15.58c-.58,0-.75-.13-.75,0s.44.49,0,.71-.58.36-1,.31-.49-.4-.31.13.71.8-.09.84a2.36,2.36,0,0,1-1.2-.09c-.49-.13-.58-.67-.49-.13s.13.58-.36.62a3.61,3.61,0,0,1-1,0c-.49,0-.93-.4-.93-.18s.22.36-.09.53,0,.13-.62.18l-1.11.09"/><path id="path4646" class="cls-7" d="M509.33,171.49a11.11,11.11,0,0,0,2.26-.27c.58-.13,2.62-.93,3.64-1.29l2.89-1a4.23,4.23,0,0,0,1.38-.49c.4-.31,1.15-1.24.84-.49a3.47,3.47,0,0,1-1.38,1.82c-.75.49-1.73.71-.89.62a14.22,14.22,0,0,0,3.11-.53c.75-.31,2.71-.53,3.64-1.2s2.26-1.2,2.93-1.6a12.1,12.1,0,0,1,1.6-.75,3.31,3.31,0,0,1-1.07,1.82c-.75.44-1,1.06-1.4,1.46s-1,.9-1,.9a8,8,0,0,0,2.91-.18,27,27,0,0,0,3.06-1.07,23.08,23.08,0,0,0,2.66-1c.36-.31.93-1.24.71-.67a19.06,19.06,0,0,1-1.46,2,3.82,3.82,0,0,1-1.51,1.64c-1,.67-2.26,1.33-2.26,1.33a7.31,7.31,0,0,0,2,.09,13,13,0,0,0,2.66-.22c1.73-.31,3.2-.71,3.2-.71a1.54,1.54,0,0,1-.53.89c-.49.44-1.29.84-1.91,1.33a8.85,8.85,0,0,1-1.91,1.38,12.16,12.16,0,0,1-3.55.75c-.62,0-1.29.09-1.69.09s-.58-.18-.49,0-.62.27.71.44,2.09.13,2.53.18,1.33-.49.49.36a3.9,3.9,0,0,1-2,1.38,12.24,12.24,0,0,1-2.93.53c-1.07,0-2.4.13-3.24.09s-2.22-.67-2-.44,1.86.49,1.33.84.44.09-1,.44a20.29,20.29,0,0,1-3.51.58,2.89,2.89,0,0,1-1.46-.09l-2.62-.67,1.15.84s0,.18-.84.22a10.36,10.36,0,0,1-1.86-.13s1.07.89.36,1-.36.27-1.46,0-1-.22-.75.18.09.71-.4.71-1.2-.36-1.2,0,.93,1,.09,1.29-.62.67-1.64.31-1.24-.27-1.24-.27.67.27-.09.58-.49.4-1.38.22-1.33-.53-1.2-.18.67.58.09.71a2.78,2.78,0,0,1-1.6,0c-.4-.18-.67-.71-.67-.22s.62.53-.18.8a4.33,4.33,0,0,1-2,0v.4c0,.36,0,.53-.27.62a4.86,4.86,0,0,1-1.33-.22s.49,0,.27.67-.31.89-.8.89-.58.18-.89-.18a7.21,7.21,0,0,0-.84-.75,6.51,6.51,0,0,1-.75-.67,4.36,4.36,0,0,0-.49-.49,1,1,0,0,0-.36-.44,11.44,11.44,0,0,0-1.07-.53"/><path id="path4648" class="cls-7" d="M506.18,200.33c-.37,0-.49.34-1.17-.09a7.13,7.13,0,0,1-1.23-1c-.49-.43-.52-.71-1-1.14s0-.22-1-1-.89-.58-1.48-1-.49-.22-1-.8-1.08-1.41-1.26-1.66,0,.68-.22.71-.25.37-.83-.18-.74-.55-1.08-.92-.43-.77-.43-.43.4.71-.31.43a5.53,5.53,0,0,1-1.51-.8,12.05,12.05,0,0,1-1-1.14c-.28-.31-.28.37-.52.4a.74.74,0,0,1-.61-.18,9.9,9.9,0,0,1-.74-.89"/><path id="path4650" class="cls-7" d="M497.84,194.24a2.29,2.29,0,0,1,.34,1c0,.55.18.77,0,1.08s-.22.74-.89.74a7,7,0,0,1-1.35-.06,4.14,4.14,0,0,1-1.41-.22c-.71-.25-.74-.28-1-.37a10.81,10.81,0,0,1-1.08-.65m12.24,5.47c-.25-.25-1-.83-1-.83-.61-.71-1.17-1.32-1.17-1.32-.43-.43-.92-.86-.92-.86-.55-.46-1.23-1-1.23-1l-.65-.55-.65-.49-1-.68m4.3,6.24c-.49-.28-1.38-.71-1.38-.71a7,7,0,0,1-1.08-1c-.4-.52-.83-1-.83-1-.37-.58-.68-1-.68-1-.18-.34-.34-.58-.34-.58a7.16,7.16,0,0,0-.4-.65m1.14,5.53c-.31-.28-.86-.83-.86-.83a15.12,15.12,0,0,1-.86-1.26c-.4-.8-.65-1.26-.65-1.26-.22-.77-.31-1.26-.31-1.26,0-.4,0-.74,0-.74m.83,5.32c-.25-.34-1-1.11-1-1.11a12.48,12.48,0,0,1-1-1.32c-.22-1-.37-1.66-.37-1.66a8.12,8.12,0,0,1-.18-.8c0-.34,0-.74,0-.74"/><path id="path4656" class="cls-15" d="M480.54,169.89c-.29,0-.73.13-.82.35a3.77,3.77,0,0,0-.25.7,1.49,1.49,0,0,0-.06.57c0,.29-.06.57.1.32s.44-.57.67-.86.38-.22.6-.48.16-.48,0-.51a1.44,1.44,0,0,1-.25-.1Zm1.4-.92a1.58,1.58,0,0,0-.54,0c-.1.19-.19.41-.19.41,0,.19.51.29.51.29l.67,0Z"/><path id="path4658" d="M481.71,169.83c-.25-.06-.35-.1-.51,0s-.35.25-.22.29.67.06.67.06Z"/><path id="path4666-5" class="cls-13" d="M483.9,187.52c-.1.4-.55.8-.15,1.35a11.5,11.5,0,0,0,.95,1.4,5.53,5.53,0,0,1,1.1,1.64,13.51,13.51,0,0,1,.65,1.49,7.55,7.55,0,0,1,.1,1.44c0,.4.2.55,0,1s-.5,1.1-.25.85.85-.8.85-.8l.15.4s.55-.65.5.1,0,.9,0,.9,1.35-1.74,1.49-2a5.16,5.16,0,0,0,.6-1,10.34,10.34,0,0,0,.4-1.3,5.59,5.59,0,0,0,.4-1.4c0-.45,0-.45,0-.7s-.1-1.15-.1-1.15"/><path id="path4844" class="cls-15" d="M483.8,188c.25-.74.15-.59.15-.59s-.2,0,0,0,.1-.64,1.49-.1,1.19.55,2.08.89.25.5-.25.5-.79-.2-.55,0,0,0,.94.5a5.86,5.86,0,0,1,1.44,1s-.64.3-1,0a3.22,3.22,0,0,0-1-.35s.2,0,.5.64l.64,1.49s-.94-.2-.84,0,.45.89.55,1.14a1.47,1.47,0,0,1,.1.69c0,.35.25-.1,0,.59s-.4,1.29-.4,1.29l-.25.64s0-.55-.25-.35l-.94.64a3.13,3.13,0,0,0,.5-1.14,5.09,5.09,0,0,0,0-1.73,9.7,9.7,0,0,0-.59-1.69c-.3-.4-.45-1-.74-1.29a10.85,10.85,0,0,1-1-1.09,7.56,7.56,0,0,1-.69-1.14Z"/><path id="path4666" class="cls-7" d="M483.9,187.52c-.1.4-.55.8-.15,1.35a11.5,11.5,0,0,0,.95,1.4,5.53,5.53,0,0,1,1.1,1.64,13.51,13.51,0,0,1,.65,1.49,7.55,7.55,0,0,1,.1,1.44c0,.4.2.55,0,1s-.5,1.1-.25.85.85-.8.85-.8l.15.4s.55-.65.5.1,0,.9,0,.9,1.35-1.74,1.49-2a5.16,5.16,0,0,0,.6-1,10.34,10.34,0,0,0,.4-1.3,5.59,5.59,0,0,0,.4-1.4c0-.45,0-.45,0-.7s-.1-1.15-.1-1.15"/><path id="path4630-7" class="cls-13" d="M480.18,172.77a2.64,2.64,0,0,0,.74,0,3.23,3.23,0,0,0,.92-.15,2.11,2.11,0,0,0,.65-.31,2,2,0,0,0,.31-.4c.12-.18.31-.4.31-.4a1.42,1.42,0,0,1,.22.4,1.33,1.33,0,0,1,0,.49,1.14,1.14,0,0,1-.25.59c-.18.22,0,.37-.43.59a1.88,1.88,0,0,1-.62.28,7.21,7.21,0,0,1-.74.28,2.89,2.89,0,0,1-.68-.06c-.22-.06-.22.15-.43-.18a1.57,1.57,0,0,1-.31-.62,1.78,1.78,0,0,1,0-.49Z"/><path id="path4854" class="cls-14" d="M483.33,172.57s.11.17-.27.25-.21.14-.67.1a2,2,0,0,1-.58-.08c-.17-.06,0-.08-.3-.08a5.29,5.29,0,0,0-.8,0,4.46,4.46,0,0,1-.57,0c-.11,0-.18-.11-.18.12a1.75,1.75,0,0,0,.08.51,2.07,2.07,0,0,0,.24.51s0,.08.23.11.33.06.52.06.12.08.43,0,.51-.13.75-.25.35-.11.51-.25a.91.91,0,0,0,.27-.32c.13-.2.35-.67.35-.67v0Z"/><path id="path4630" class="cls-7" d="M480.18,172.77a2.64,2.64,0,0,0,.74,0,3.23,3.23,0,0,0,.92-.15,2.11,2.11,0,0,0,.65-.31,2,2,0,0,0,.31-.4c.12-.18.31-.4.31-.4a1.42,1.42,0,0,1,.22.4,1.33,1.33,0,0,1,0,.49,1.14,1.14,0,0,1-.25.59c-.18.22,0,.37-.43.59a1.88,1.88,0,0,1-.62.28,7.21,7.21,0,0,1-.74.28,2.89,2.89,0,0,1-.68-.06c-.22-.06-.22.15-.43-.18a1.57,1.57,0,0,1-.31-.62,1.78,1.78,0,0,1,0-.49Z"/><path id="path4836" class="cls-7" d="M480.92,202.84a3.73,3.73,0,0,0,.65-.62c.1-.18.18-.26.36-.28a.57.57,0,0,1,.36,0,3.3,3.3,0,0,0,.67.05,2.89,2.89,0,0,0,.57-.08l.8-.13"/><path id="path4838" class="cls-7" d="M472.12,203.15a2,2,0,0,1,.52-.7,1,1,0,0,1,.41-.26,2.67,2.67,0,0,0,.52-.28,7.32,7.32,0,0,1,1-.44"/><path id="path4840" class="cls-7" d="M471.47,201.81a1.62,1.62,0,0,1,.85-.41,1.06,1.06,0,0,0,.54-.08c.28-.1.59-.26.7-.28l.28-.05"/><path id="path4867" class="cls-7" d="M507.43,173.72a7.34,7.34,0,0,0-.76,0c-.34,0-.89.08-1.18.08s-.59,0-1.14-.08a10.4,10.4,0,0,1-1.4-.25c-.42-.08-1.56-.42-1.56-.42m3.13,2.62c-.34-.13-1.78-.51-1.78-.51-.17,0-1.52-.51-1.52-.51-.34-.17-1.18-.47-1.18-.47l-2-.89m5.07,4c-.47-.13-1.31-.42-1.31-.42-.63-.3-1.86-.8-1.86-.8l-1.48-.63c-.55-.25-1.23-.59-1.23-.59-.34-.17-1.18-.68-1.18-.68m4.48,4.14-.89-.47-2.07-.85c-.59-.25-1.31-.63-1.31-.63-.42-.21-1.65-1-1.65-1m4.31,3.81c-.25-.13-.93-.51-.93-.51l-2.37-1.23c-.25-.13-.72-.42-.72-.42-.3-.17-.89-.59-.89-.59m3.38,3.93a5.41,5.41,0,0,1-1.1-.42c-.68-.47-1.35-1-1.35-1-.38-.25-.93-.72-.93-.72-.34-.3-1-.8-1-.8m2.79,3.85a8.56,8.56,0,0,1-1.06-.72c-.51-.38-1-.85-1-.85l-.8-.72c-.25-.34-.59-.85-.59-.85M494,182c-.17-.13-1-1-1-1-.63-.72-1.18-1.48-1.18-1.48-.13-.25-.38-.85-.38-.85m.47,4-.63-.8c-.3-.38-1.4-2.16-1.4-2.16m.42,3.76h-.59c-.38-.13-.89-.34-.89-.34-.3-.08-1-.34-1-.34a1,1,0,0,1-.38-.17"/><path id="path4869" class="cls-7" d="M517.84,170.33c-.3.08-.89.42-1.52.59a16.2,16.2,0,0,1-1.82.47c-.76.13-1.4.17-2,.3a7.78,7.78,0,0,1-1.27.3l-1.94.17m16.7-1.69a20.64,20.64,0,0,0-2.2.55l-3.51.85c-.59,0-4.06.59-4.06.59-1,0-4.14.51-4.14.51-.59,0-3.64.17-3.64.17m21.69-.68c-.21,0-4,.68-4,.68-.59,0-7.91.8-7.91.8-.89-.13-6.38.25-6.38.25l-3.68,0m13.28,4.35c-.59-.13-5-.93-5-.93l-5.41-.76c-3.51-.63-5-1.06-5-1.06m21.69.21c-1.23-.08-3.93-.08-3.93-.08-.42,0-6-.17-6-.17-1.31-.21-5.58-.55-5.58-.55-.3,0-4.19-.3-4.19-.3l-.3,0m6.43,5-4.19-.93-4.1-1.4A4.5,4.5,0,0,1,505,177m7.19,3.55c-1.06-.3-4.44-1.1-4.44-1.1-.47-.21-2.37-1.31-2.37-1.31l-1.1-.76m6.3,4.19c-1-.42-2.79-1.27-2.79-1.27a24.78,24.78,0,0,1-3-1.73l-1.94-.85m6.3,4.74c-.3-.21-2.37-1-2.37-1-.51-.25-3.26-2-3.26-2a8.51,8.51,0,0,1-1-1.06m3.81,5.37a21.66,21.66,0,0,1-2-1.14c-.59-.47-2.62-2.24-2.62-2.24l-1.52-1.52m3.51,5.67L502.11,183c-.59-.59-1.9-1.94-1.9-1.94-.21-.34-.93-1.23-.93-1.23l-.17-.21-.3-.25m2.49,5.41c-.55-.47-1.9-1.73-1.9-1.73-.38-.38-1.48-1.61-1.48-1.61-.25-.34-.63-.8-.63-.8m.47,6c-.13-.17-1.35-1.61-1.35-1.61-.42-.51-1.82-2.58-1.82-2.58m1.52-.21s.72.89,1.14,1.52c0,0,1.61,1.56,1.94,1.82l.3.25"/><path id="path4873" class="cls-15" d="M526.8,167.91a.28.28,0,0,0-.19.14,3.33,3.33,0,0,1-1.6,1.27,20.39,20.39,0,0,1-2.64.7c-1.34.28-1.19.34-2.58.55s-4.07.71-4.07.71a.28.28,0,1,0,.11.55s2.67-.49,4.06-.7,1.29-.29,2.61-.57a21.26,21.26,0,0,0,2.69-.7,3.69,3.69,0,0,0,1.9-1.53.28.28,0,0,0-.28-.42ZM518.26,169l-.07,0-1.75.7h0c-.49.21-1.43.65-1.5.68h0l-1.86.41a.28.28,0,1,0,.06.56h.06l1.9-.42.05,0s1-.48,1.52-.69h0l1.74-.69a.28.28,0,1,0-.14-.54h0Zm14.44.21-.08,0-2.55,1-2.16.82h0c-1.2.28-3.71.95-3.78,1h0c-2.29.14-3.7.28-3.7.28h0c-.37.09-1.67.29-2.84.46l-2.24.31a.28.28,0,0,0,.07.56l2.24-.31c1.16-.16,2.38-.35,2.87-.46,0,0,1.4-.14,3.71-.28h.05s2.67-.7,3.85-1h0l2.2-.83c1.13-.43,2.31-.88,2.58-1a.28.28,0,0,0-.15-.53Zm3.15,3.15h0c-1.15.22-4.77,1.1-4.82,1.11-2.57.35-5.06.56-5.08.56h0a16.39,16.39,0,0,0-2.72.21c-1.6.07-6.09.14-6.09.14a.28.28,0,0,0,0,.56h0s4.47-.07,6.1-.14h0a16.33,16.33,0,0,1,2.68-.2h0s2.52-.21,5.13-.56h0s3.73-.92,4.82-1.12a.28.28,0,0,0-.09-.55Zm-23.36,3.36a.28.28,0,1,0,0,.56l2.92.35c1.53.19,3.24.42,3.79.55h0s1.54.21,3.36.49h0s4.56.07,6.37.14a.28.28,0,0,0,0-.56c-1.82-.07-6.28-.14-6.34-.14-1.81-.28-3.32-.48-3.35-.48h0c-.65-.15-2.29-.37-3.81-.56l-2.92-.35Zm-4,1.12a.28.28,0,0,0,0,.55,49.8,49.8,0,0,1,5.56,1.39l.07,0,5.53.77a.28.28,0,1,0,.09-.56l-5.52-.77h0a47.44,47.44,0,0,0-5.59-1.39h-.08Zm-3.38,2.45a.28.28,0,0,0-.08.53,24.34,24.34,0,0,1,2.28,1.24l0,0,.81.34c.43.18.91.37,1.19.45a.28.28,0,1,0,.16-.54c-.21-.06-.71-.26-1.14-.43l-.74-.31,0,0a25,25,0,0,0-2.3-1.26.28.28,0,0,0-.17,0Zm-1.54.77a.28.28,0,0,0-.15.49s.84.77,1.76,1.54l0,0a24,24,0,0,0,2.63,1.42.28.28,0,1,0,.29-.48l-.06,0a23.51,23.51,0,0,1-2.52-1.36l0,0h0c-.89-.75-1.71-1.52-1.71-1.52a.28.28,0,0,0-.24-.07Zm-2.1,1.05a.28.28,0,0,0-.14.49l.7.63,0,0s1.54,1.06,2.54,1.63a.28.28,0,1,0,.28-.49c-.95-.54-2.45-1.56-2.48-1.58l0,0-.67-.61A.28.28,0,0,0,501.42,181.16Zm-1.22.91a.28.28,0,0,0-.21.32,2.38,2.38,0,0,0,.08.36,1.5,1.5,0,0,0,.35.65l0,0s1.39,1,2,1.48a.28.28,0,0,0,.32-.47h0c-.6-.4-1.94-1.4-2-1.44a1.07,1.07,0,0,1-.21-.4,1.92,1.92,0,0,1-.06-.27.28.28,0,0,0-.31-.25h0Zm-2.09.7a.28.28,0,0,0-.18.43s.09.15.22.32a2.66,2.66,0,0,0,.46.5l0,0s1,.89,1.39,1.25a.28.28,0,0,0,.35-.44h0c-.4-.33-1.38-1.24-1.38-1.24l0,0a2.39,2.39,0,0,1-.36-.4l-.2-.29a.28.28,0,0,0-.29-.13Zm-.9,1.54a.28.28,0,0,0-.18.45s.63.85.89,1.31a.28.28,0,0,0,.49-.28c-.3-.53-.93-1.36-.93-1.36a.28.28,0,0,0-.27-.11Zm-1.36,1.05a.28.28,0,0,0-.16.44s.86,1.22,1,1.52a.28.28,0,1,0,.47-.28c-.24-.39-1.06-1.56-1.06-1.56A.28.28,0,0,0,495.86,185.37Z"/><path id="path4881" class="cls-7" d="M443.23,172.41c.25,0,1.48.25,1.48.25s1.66.25,2,.31a13.49,13.49,0,0,0,1.85.25c.49,0,2.09-.18,2.09-.18m-6,1.42,2.15.18,2.59-.06c.31,0,3.2-.31,3.2-.31m-5,1.35c.43,0,2.15-.12,2.15-.12.43,0,2-.18,2-.18.55-.06,1.78-.37,1.78-.37m-2.4,2.22a15.69,15.69,0,0,0,1.72-.49c.37-.06,2.34-.62,2.34-.62.25-.12,1.11-.62,1.11-.62m-2.89,2.15a14.15,14.15,0,0,0,1.6-.43c.62-.25,2.28-1.17,2.28-1.17m-1.91,3.14,2.59-1.78.74-1m-.37,4.06a14.28,14.28,0,0,0,1.29-1.11c.25-.37,1.35-2.09,1.35-2.09m.92,3.75a14.51,14.51,0,0,1,1.11-1c.18-.37,1.42-2.34,1.42-2.34m1.35,3.94,1.48-1.72a11.28,11.28,0,0,0,.37-1.17m.31,4.06a2,2,0,0,0,.92-.92c.37-.18,1.11-1.72,1.11-1.72m-.55,3c.37-.31,1-.92,1-.92.12-.25.55-1,.55-1m-.37,2.71c.18-.25.92-1.42.92-1.42l-.06-.49m-39.08-10.28,1.85,1,1.66.31c1.17.18,3.14.37,3.14.37.8,0,3.2.12,3.2.12m-13.17.8,3.45.55c.68.06,3.57.25,3.57.25,1,0,2.34.06,2.34.06a18.23,18.23,0,0,0,2.4-.06c1-.12,3.75-.25,3.75-.25m-10.83,2.46,3.63-.31c1.23-.06,3.82-.31,3.82-.31.86,0,5.17-.92,5.17-.92m-6.59,4.43a24.71,24.71,0,0,0,3.45-.86c.86-.18,5.6-2.4,5.6-2.4m-2.28,3.69,1.78-.92c.86-.49,2.71-1.91,2.71-1.91m-1.42,3.82c.37-.25,2-1.85,2-1.85.31-.55,1-2,1-2m-.49,4.06,1-1.42c.37-.62.8-1.48.8-1.48m.43,4.86,1.17-1.11a17.76,17.76,0,0,0,1.11-2.28m-.12,4.49c.12-.25,1.48-1.78,1.48-1.78.18-.49.86-2,.86-2m-.49,4.25a8.14,8.14,0,0,0,1.42-1.6,21.26,21.26,0,0,0,.74-2.34m.37,4.31c.31-.68.8-1.91.8-1.91.12-.55.49-2.34.49-2.34m.86,4.43a7.75,7.75,0,0,1,.55-1.6,9.81,9.81,0,0,0,.37-2.65m1.85,5.35c.31-.62.92-1.78.92-1.78.06-.74.37-2.65.37-2.65m1.17,4.43c.18-.37.55-1.54.55-1.54a13.83,13.83,0,0,1,.55-1.6m1.11,3.45.31-1.48c.06-.62.06-2.22.06-2.22m1.42,3.88c0-.49-.06-1.78-.06-1.78-.12-.68-.25-1.17-.25-1.17m3.26,3.51a11.67,11.67,0,0,0-1.42-1.66c-.43-.62-1.35-2.46-1.35-2.46"/><path id="path4887" class="cls-15" d="M432.37,169.74a.28.28,0,0,0-.09.52s1.34.86,2.14,1.26a7.19,7.19,0,0,0,2.18.7c1,.2,1.47.19,2.23.29a.28.28,0,0,0,.07-.56c-.78-.1-1.25-.09-2.19-.28a6.46,6.46,0,0,1-2-.65c-.73-.37-2.09-1.24-2.09-1.24A.28.28,0,0,0,432.37,169.74Zm-5.55,1.34a.28.28,0,0,0-.11.52,29.58,29.58,0,0,0,3.79,2h0a19.84,19.84,0,0,0,2.62.39h0s2,.29,2.84.47H439a.28.28,0,0,0,0-.56h-2.89c-.92-.2-2.84-.47-2.84-.47h0a17.77,17.77,0,0,1-2.53-.39h0a30.33,30.33,0,0,1-3.66-2,.28.28,0,0,0-.18,0Zm-2.6,3.08a.28.28,0,0,0,0,.55s2.78.67,4.63,1h0s1.93.19,3.28.29c0,0,1.64.1,2.9.1h3.65a.28.28,0,0,0,0-.56H435c-1.23,0-2.87-.1-2.87-.1-1.33-.1-3.23-.29-3.24-.29h0c-1.8-.29-4.57-1-4.57-1h-.11Zm19.32,2.79h0c-1.44.38-3.15.87-3.16.87h0a27.74,27.74,0,0,0-3.7.56c-1.13.09-2.86.1-2.86.1h0a7.48,7.48,0,0,0-2.3.51.28.28,0,0,0,.17.54l.06,0a6.94,6.94,0,0,1,2.09-.46h0s1.72,0,2.88-.1h0a26,26,0,0,1,3.7-.57h.05l3.16-.86a.28.28,0,0,0-.1-.55Zm3.75,1.44-.11,0c-.75.37-2.29,1.1-2.35,1.13h0l-2.45.66h0l-2.18.38a.28.28,0,1,0,.07.56h0l2.21-.39h0l2.5-.67h0s1.63-.77,2.41-1.16a.28.28,0,0,0-.15-.53Zm2.58.39a.28.28,0,0,0-.21.16,2.49,2.49,0,0,1-.26.32c-.14.15-.31.31-.47.46-.33.31-.64.57-.64.57-.79.44-1.19.64-1.19.64l0,0,0,0-.77.67a.28.28,0,0,0,.33.45l0,0,.74-.65s.39-.19,1.24-.66l0,0,0,0s.32-.27.66-.59c.17-.16.35-.33.5-.49a2,2,0,0,0,.35-.45.28.28,0,0,0-.29-.41Zm2.15,1.05a.28.28,0,0,0-.17.07,4,4,0,0,0-.55.6c-.21.26-.43.56-.64.85-.42.58-.79,1.11-.79,1.11a.28.28,0,0,0,.46.32h0s.35-.52.77-1.1c.21-.29.43-.59.63-.83a4.26,4.26,0,0,1,.46-.51.28.28,0,0,0-.18-.51Zm2.27,1.16a.28.28,0,0,0-.18.11l-1.24,1.63a.28.28,0,1,0,.45.34l1.24-1.63a.28.28,0,0,0-.26-.46Zm2.24,1.34a.28.28,0,0,0-.21.11l-1.44,1.73a.28.28,0,1,0,.41.39l0,0,1.44-1.73a.28.28,0,0,0-.22-.46Zm2.69.19a.28.28,0,0,0-.21.11l-1.44,1.73a.28.28,0,1,0,.41.39l0,0,1.44-1.73a.28.28,0,0,0-.22-.46Zm3.43.48a.28.28,0,0,0-.21.16s-.32.6-.63,1.25c-.16.33-.32.67-.44,1s-.11.27-.15.39a.89.89,0,0,0-.06.32.28.28,0,0,0,.56,0h0s0,0,0-.14.07-.21.13-.35.27-.6.43-.92c.31-.64.61-1.24.61-1.24a.28.28,0,0,0-.28-.41Zm2,.1a.28.28,0,0,0-.23.21s-.14.55-.32,1.17a13.76,13.76,0,0,1-.53,1.56.28.28,0,1,0,.49.27v0a12.1,12.1,0,0,0,.56-1.66c.18-.63.32-1.19.32-1.19a.28.28,0,0,0-.2-.34Zm-4.23.1a.28.28,0,0,0-.2.17L459,186a.28.28,0,0,0,.5.25v0l1.24-2.69a.28.28,0,0,0-.31-.4Zm7.24,1.24a.28.28,0,0,0-.25.19s-.57,1.53-1,2.49a.28.28,0,1,0,.5.26l0-.05c.39-1,1-2.51,1-2.51a.28.28,0,0,0-.28-.39Zm7,.87a.28.28,0,0,0-.18.46s.48.58,1.16,1.35a.28.28,0,1,0,.43-.37c-.67-.77-1.15-1.34-1.15-1.34A.28.28,0,0,0,474.65,185.3Zm-5.18.1a.28.28,0,0,0-.25.28V187a.28.28,0,0,0,.56,0h0v-1.35a.28.28,0,0,0-.28-.28Zm1.71,0a.28.28,0,0,0-.23.27s0,.44,0,.94c0,.25,0,.51,0,.75a2.17,2.17,0,0,0,.11.63.28.28,0,1,0,.52-.2,2.23,2.23,0,0,1-.08-.47c0-.22,0-.47,0-.71,0-.48,0-.91,0-.91a.28.28,0,0,0-.26-.3Zm1.35.77a.28.28,0,0,0-.17.46s.66.77,1.13,1.42a.28.28,0,0,0,.46-.32h0c-.49-.69-1.17-1.46-1.17-1.46a.28.28,0,0,0-.25-.1Z"/></g></g></g></g></g></svg>