<svg xmlns="http://www.w3.org/2000/svg" height="480" width="640" viewBox="0 0 641 480"><defs><style>.a{fill:#fff;}.b{fill:#002373;}.c{fill:#cd0019;}.d{fill:#f8d80e;}</style></defs><title>Newfoundland</title><rect class="a" width="640" height="480"/><path class="a" d="M1,78H641V398H1Z"/><path class="b" d="M20.2,257.2V366L218.6,257.2Z"/><path class="b" d="M257,276.4V378.8H71.4Z"/><path class="c" d="M295.4,270V378.8H621.8Z"/><path class="a" d="M308.2,289.2V366H545Z"/><path class="c" d="M295.4,218.8H609L625,238l-16,19.2H295.4L314.6,238Z"/><path class="d" d="M314.6,225.2h288L615.4,238l-12.8,12.8h-288L327.4,238Z"/><path class="b" d="M20.2,218.8V110L218.6,218.8Z"/><path class="b" d="M257,199.6V97.2H71.4Z"/><path class="c" d="M295.4,206V97.2H621.8Z"/><path class="a" d="M308.2,186.8V110H545Z"/></svg>