<svg xmlns="http://www.w3.org/2000/svg" height="480" width="640" viewBox="0 0 640 480"><defs><style>.cls-1,.cls-13{fill:#fff;}.cls-2{fill:#00247d;}.cls-3{fill:#cf142b;}.cls-4{fill:#528ef7;}.cls-5{fill:#fd5;}.cls-6{fill:#ffe88d;}.cls-12,.cls-15,.cls-7,.cls-8{fill:none;}.cls-12,.cls-13,.cls-15,.cls-7,.cls-8{stroke:#000;}.cls-7{stroke-width:0.94px;}.cls-8{stroke-width:0.92px;}.cls-9{fill:gray;}.cls-10{fill:#656565;}.cls-11{fill:#e9c43f;}.cls-12,.cls-13{stroke-width:1.29px;}.cls-14{fill:#ffe47a;}.cls-15{stroke-width:1.23px;}</style></defs><title>Nyasaland</title><g id="Layer_2" data-name="Layer 2"><g id="Nyasaland"><rect class="cls-1" width="640" height="480"/><path class="cls-2" d="M0,81.5H640v320H0Z"/><path class="cls-1" d="M0,81.5H35.78l97.56,48.78V81.5H144l16,69.33L0,145.5V134.83H70.89L0,99.38Z"/><path class="cls-1" d="M320,81.5H284.22l-97.56,48.78V81.5H176l-16,69.33,160-5.33V134.83H249.11L320,99.38Z"/><path class="cls-3" d="M0,81.5l106.67,53.33H82.82L0,93.42Zm320,0L213.33,134.83H189.48L296.15,81.5H320Z"/><path class="cls-1" d="M320,241.5H284.22l-97.56-48.78V241.5H176l-16-69.33,160,5.33v10.67H249.11L320,223.61Z"/><path class="cls-1" d="M0,241.5H35.78l97.56-48.78V241.5H144l16-69.33L0,177.5v10.67H70.89L0,223.61Z"/><path class="cls-3" d="M320,241.5,213.33,188.16h23.85L320,229.57Zm-320,0,106.67-53.33h23.85L23.85,241.5H0Z"/><path class="cls-3" d="M144,81.5h32v64H320v32H176v64H144v-64H0v-32H144Z"/><path class="cls-4" d="M544,243.79V164.05H416v79.73Z"/><path class="cls-5" d="M471.62,191s-2.91-20.27-2.91-20.92l9.1,20.07"/><path class="cls-6" d="M471.48,190.73a18,18,0,0,0,2.38-.9l-4.95-19.45Z"/><path class="cls-7" d="M471.62,191s-2.91-20.27-2.91-20.92l9.1,20.07"/><path class="cls-5" d="M478.47,190.77c-.55-1.76-1.07-3-.57-5.13s0-4-.38-6a6.54,6.54,0,0,1,1-5.46c1.2-1.62,1.28-2.76.74-4.85,1.89,1.29,2.88,2.3,2.44,4.24a7.56,7.56,0,0,0,.76,5.26,7.61,7.61,0,0,1,.82,5.46,9.06,9.06,0,0,0,.76,6.16"/><path class="cls-6" d="M479.65,189.5a5,5,0,0,0-.06-1.29,13.64,13.64,0,0,1-.13-1.67,12,12,0,0,0,.31-1.29c.06-.45.38-1.87.38-1.87v-.19a5.66,5.66,0,0,0-.31-1.93,5.73,5.73,0,0,1-.44-1.87,6.53,6.53,0,0,1,.06-1.55,3.65,3.65,0,0,1,.31-1.29,10.41,10.41,0,0,0,.5-1.35,5.29,5.29,0,0,0,.44-1.55,6.6,6.6,0,0,0,0-1.67c-.13-1.22-.13-1.55-.38-1.87a6.76,6.76,0,0,0-.94-.84l.19,2.45a9.31,9.31,0,0,1-.81,2.06,9.2,9.2,0,0,0-1.5,2.45c0,.39.19,2.13.19,2.13l.5,3.74v2.45c0,.39-.5,2.06-.5,2.64s.19,2.51.19,2.51Z"/><path class="cls-7" d="M478.47,190.77c-.55-1.76-1.07-3-.57-5.13s0-4-.38-6a6.54,6.54,0,0,1,1-5.46c1.2-1.62,1.28-2.76.74-4.85,1.89,1.29,2.88,2.3,2.44,4.24a7.56,7.56,0,0,0,.76,5.26,7.61,7.61,0,0,1,.82,5.46,9.06,9.06,0,0,0,.76,6.16"/><path class="cls-5" d="M461.51,196.41s-9.86-17.8-10.09-18.41L467,193.31"/><path class="cls-6" d="M461.27,196.18a18.54,18.54,0,0,0,1.9-1.73L451.7,178.18Z"/><path class="cls-7" d="M461.51,196.41s-9.86-17.8-10.09-18.41L467,193.31"/><path class="cls-5" d="M466.91,193.24c-1.24-1.34-2.23-2.24-2.67-4.37s-1.67-3.64-2.89-5.27a6.53,6.53,0,0,1-1.38-5.37c.4-2,0-3.06-1.38-4.7,2.24.32,3.57.79,4,2.74a7.39,7.39,0,0,0,2.9,4.4,7.43,7.43,0,0,1,3,4.55,8.86,8.86,0,0,0,3.28,5.22"/><path class="cls-6" d="M467.44,191.57a4.87,4.87,0,0,0-.6-1.13A13.37,13.37,0,0,1,466,189a12,12,0,0,0-.26-1.3c-.13-.43-.45-1.85-.45-1.85l-.08-.17a5.52,5.52,0,0,0-1.1-1.6,5.57,5.57,0,0,1-1.18-1.49,6.44,6.44,0,0,1-.59-1.42,3.65,3.65,0,0,1-.26-1.3,10.51,10.51,0,0,0-.12-1.44,5.31,5.31,0,0,0-.26-1.59,6.5,6.5,0,0,0-.71-1.51c-.63-1-.76-1.34-1.13-1.52a6.56,6.56,0,0,0-1.2-.34l1.2,2.12a9.42,9.42,0,0,1,.13,2.22,9.41,9.41,0,0,0-.32,2.88c.16.35,1.06,1.83,1.06,1.83l2,3.14,1,2.21c.16.35.42,2.08.66,2.6s1.23,2.18,1.23,2.18Z"/><path class="cls-7" d="M466.91,193.24c-1.24-1.34-2.23-2.24-2.67-4.37s-1.67-3.64-2.89-5.27a6.53,6.53,0,0,1-1.38-5.37c.4-2,0-3.06-1.38-4.7,2.24.32,3.57.79,4,2.74a7.39,7.39,0,0,0,2.9,4.4,7.43,7.43,0,0,1,3,4.55,8.86,8.86,0,0,0,3.28,5.22"/><path class="cls-5" d="M457.7,201.28s-18.59-7.36-19.21-7.5l17,13.53"/><path class="cls-6" d="M457.45,201.07a19,19,0,0,1-1.38,2.19L438.71,194Z"/><path class="cls-7" d="M457.7,201.28s-18.59-7.36-19.21-7.5l17,13.53"/><path class="cls-5" d="M461.45,198c-1-1.57-1.56-2.78-3.46-3.75s-3-2.57-4.25-4.19a6.18,6.18,0,0,0-4.72-2.71c-2-.1-2.88-.77-4.09-2.54-.26,2.31-.14,3.75,1.59,4.65a7.32,7.32,0,0,1,3.43,4,7.37,7.37,0,0,0,3.54,4.15,8.74,8.74,0,0,1,4.1,4.56"/><path class="cls-6" d="M459.74,198.12a4.72,4.72,0,0,1-.92-.88,13.07,13.07,0,0,0-1.17-1.18,11.27,11.27,0,0,1-1.16-.58c-.38-.24-1.63-.91-1.63-.91l-.14-.12a5.47,5.47,0,0,1-1.24-1.49,5.59,5.59,0,0,0-1.11-1.55,6.2,6.2,0,0,0-1.19-.94c-.42-.19-.3-.34-1.16-.58a9.75,9.75,0,0,1-1.33-.48,5,5,0,0,1-1.43-.65,6.28,6.28,0,0,1-1.25-1.08c-.83-.89-1.07-1.09-1.15-1.5a7.1,7.1,0,0,1,0-1.28l1.7,1.72a8.73,8.73,0,0,0,2.06.68,8.67,8.67,0,0,1,2.79.39c.29.25,1.46,1.51,1.46,1.51l2.46,2.8,1.82,1.57c.29.25,1.86.93,2.29,1.3s1.75,1.76,1.75,1.76Z"/><path class="cls-7" d="M461.45,198c-1-1.57-1.56-2.78-3.46-3.75s-3-2.57-4.25-4.19a6.18,6.18,0,0,0-4.72-2.71c-2-.1-2.88-.77-4.09-2.54-.26,2.31-.14,3.75,1.59,4.65a7.32,7.32,0,0,1,3.43,4,7.37,7.37,0,0,0,3.54,4.15,8.74,8.74,0,0,1,4.1,4.56"/><path class="cls-5" d="M455.36,207.28c-1.43-1.11-2.42-2-4.53-2.24s-3.71-1.3-5.42-2.35a6.07,6.07,0,0,0-5.35-.8c-1.88.63-3,.33-4.7-.87.56,2.26,1.17,3.56,3.1,3.77a7.12,7.12,0,0,1,4.58,2.46,7.17,7.17,0,0,0,4.74,2.58,8.5,8.5,0,0,1,5.41,2.76"/><path class="cls-6" d="M453.8,208a4.6,4.6,0,0,1-1.16-.48,12.7,12.7,0,0,0-1.5-.67,11.09,11.09,0,0,1-1.29-.12c-.43-.09-1.84-.25-1.84-.25l-.18-.06a5.31,5.31,0,0,1-1.67-.94,5.43,5.43,0,0,0-1.57-1,6,6,0,0,0-1.44-.45,3.37,3.37,0,0,0-1.29-.12,9.66,9.66,0,0,1-1.41,0,4.9,4.9,0,0,1-1.56-.08,6.12,6.12,0,0,1-1.54-.55c-1.08-.52-1.38-.63-1.59-1a7,7,0,0,1-.46-1.19l2.19,1a8.66,8.66,0,0,0,2.16-.12,8.7,8.7,0,0,1,2.74-.66c.35.13,1.89.88,1.89.88l3.27,1.71,2.25.8c.35.13,2.06.19,2.59.38s2.25,1,2.25,1Z"/><path class="cls-7" d="M455.36,207.28c-1.43-1.11-2.42-2-4.53-2.24s-3.71-1.3-5.42-2.35a6.07,6.07,0,0,0-5.35-.8c-1.88.63-3,.33-4.7-.87.56,2.26,1.17,3.56,3.1,3.77a7.12,7.12,0,0,1,4.58,2.46,7.17,7.17,0,0,0,4.74,2.58,8.5,8.5,0,0,1,5.41,2.76"/><path class="cls-5" d="M453.57,210.48s-19.88,1.23-20.5,1.36l21,5"/><path class="cls-6" d="M453.25,210.39a19.39,19.39,0,0,1-.37,2.58l-19.52-1Z"/><path class="cls-7" d="M453.57,210.48s-19.88,1.23-20.5,1.36l21,5"/><path class="cls-5" d="M489.14,191S492,170.76,492,170.11L483,190.19"/><path class="cls-6" d="M489.29,190.73a18,18,0,0,1-2.38-.9l4.95-19.45Z"/><path class="cls-7" d="M489.14,191S492,170.76,492,170.11L483,190.19"/><path class="cls-5" d="M499.25,196.41s9.86-17.8,10.09-18.41l-15.56,15.31"/><path class="cls-6" d="M498.91,197a18.54,18.54,0,0,1-1.9-1.73l12.07-17.14Z"/><path class="cls-7" d="M499.25,196.41s9.86-17.8,10.09-18.41l-15.56,15.31"/><path class="cls-5" d="M493.86,193.24c1.24-1.34,2.23-2.24,2.67-4.37s1.67-3.64,2.89-5.27a6.53,6.53,0,0,0,1.38-5.37c-.4-2,0-3.06,1.38-4.7-2.24.32-3.57.79-4,2.74a7.39,7.39,0,0,1-2.9,4.4,7.43,7.43,0,0,0-3,4.55,8.86,8.86,0,0,1-3.28,5.22"/><path class="cls-6" d="M493,192.42a12.72,12.72,0,0,1,1-2,13.37,13.37,0,0,0,.82-1.45,12,12,0,0,1,.26-1.3c.13-.43.45-1.85.45-1.85l.08-.17a5.52,5.52,0,0,1,1.1-1.6,5.57,5.57,0,0,0,1.18-1.49,6.44,6.44,0,0,0,.59-1.42,3.65,3.65,0,0,0,.26-1.3,10.51,10.51,0,0,1,.12-1.44,5.31,5.31,0,0,1,.26-1.59,6.5,6.5,0,0,1,.71-1.51c.63-1,.76-1.34,1.13-1.52a6.56,6.56,0,0,1,1.2-.34l-1.2,2.12a9.42,9.42,0,0,0-.13,2.22,9.41,9.41,0,0,1,.32,2.88c-.16.35-1.06,1.83-1.06,1.83l-2,3.14-1,2.21c-.16.35-.42,2.08-.66,2.6s-1.58,3-1.58,3Z"/><path class="cls-7" d="M493.86,193.24c1.24-1.34,2.23-2.24,2.67-4.37s1.67-3.64,2.89-5.27a6.53,6.53,0,0,0,1.38-5.37c-.4-2,0-3.06,1.38-4.7-2.24.32-3.57.79-4,2.74a7.39,7.39,0,0,1-2.9,4.4,7.43,7.43,0,0,0-3,4.55,8.86,8.86,0,0,1-3.28,5.22"/><path class="cls-5" d="M503.06,201.28s18.59-7.36,19.21-7.5l-17,13.53"/><path class="cls-6" d="M503.32,201.07a19,19,0,0,0,1.38,2.19L522.06,194Z"/><path class="cls-7" d="M503.06,201.28s18.59-7.36,19.21-7.5l-17,13.53"/><path class="cls-5" d="M499.32,198c1-1.57,1.56-2.78,3.46-3.75s3-2.57,4.25-4.19a6.18,6.18,0,0,1,4.72-2.71c2-.1,2.88-.77,4.09-2.54.26,2.31.14,3.75-1.59,4.65a7.32,7.32,0,0,0-3.43,4,7.37,7.37,0,0,1-3.54,4.15,8.74,8.74,0,0,0-4.1,4.56"/><path class="cls-6" d="M500.55,198.49a9,9,0,0,0,1.4-1.25,13.07,13.07,0,0,1,1.17-1.18,11.27,11.27,0,0,0,1.16-.58c.38-.24,1.63-.91,1.63-.91l.14-.12a5.47,5.47,0,0,0,1.24-1.49,5.59,5.59,0,0,1,1.11-1.55,6.2,6.2,0,0,1,1.19-.94c.42-.19.3-.34,1.16-.58a9.75,9.75,0,0,0,1.33-.48,5,5,0,0,0,1.43-.65,6.28,6.28,0,0,0,1.25-1.08c.83-.89,1.07-1.09,1.15-1.5a7.1,7.1,0,0,0,0-1.28l-1.7,1.72a8.73,8.73,0,0,1-2.06.68,8.67,8.67,0,0,0-2.79.39c-.29.25-1.46,1.51-1.46,1.51l-2.46,2.8-1.82,1.57c-.29.25-1.86.93-2.29,1.3s-2.23,2.13-2.23,2.13Z"/><path class="cls-7" d="M498.93,197.61a8.26,8.26,0,0,1,3.84-3.35c1.9-1,3-2.57,4.25-4.19a6.18,6.18,0,0,1,4.72-2.71c2-.1,2.88-.77,4.09-2.54.26,2.31.14,3.75-1.59,4.65a7.32,7.32,0,0,0-3.43,4,7.37,7.37,0,0,1-3.54,4.15,8.74,8.74,0,0,0-4.1,4.56"/><path class="cls-5" d="M504.06,207.28c1.43-1.11,2.42-2,4.53-2.24s3.71-1.3,5.42-2.35a6.07,6.07,0,0,1,5.35-.8c1.88.63,3,.33,4.7-.87-.56,2.26-1.17,3.56-3.1,3.77a7.12,7.12,0,0,0-4.58,2.46,7.17,7.17,0,0,1-4.74,2.58,8.5,8.5,0,0,0-5.41,2.76"/><path class="cls-6" d="M505.62,208a4.6,4.6,0,0,0,1.16-.48,12.7,12.7,0,0,1,1.5-.67,11.09,11.09,0,0,0,1.29-.12c.43-.09,1.84-.25,1.84-.25l.18-.06a5.31,5.31,0,0,0,1.67-.94,5.43,5.43,0,0,1,1.57-1,6,6,0,0,1,1.44-.45,3.37,3.37,0,0,1,1.29-.12,9.66,9.66,0,0,0,1.41,0,4.9,4.9,0,0,0,1.56-.08,6.12,6.12,0,0,0,1.54-.55c1.08-.52,1.38-.63,1.59-1a7,7,0,0,0,.46-1.19l-2.19,1a8.66,8.66,0,0,1-2.16-.12,8.7,8.7,0,0,0-2.74-.66c-.35.13-1.89.88-1.89.88l-3.27,1.71-2.25.8c-.35.13-2.06.19-2.59.38s-2.25,1-2.25,1Z"/><path class="cls-7" d="M504.06,207.28c1.43-1.11,2.42-2,4.53-2.24s3.71-1.3,5.42-2.35a6.07,6.07,0,0,1,5.35-.8c1.88.63,3,.33,4.7-.87-.56,2.26-1.17,3.56-3.1,3.77a7.12,7.12,0,0,0-4.58,2.46,7.17,7.17,0,0,1-4.74,2.58,8.5,8.5,0,0,0-5.41,2.76"/><path class="cls-5" d="M505.84,210.48s19.88,1.23,20.5,1.36l-21,5"/><path class="cls-6" d="M506.17,210.39a19.39,19.39,0,0,0,.37,2.58l19.52-1Z"/><path class="cls-7" d="M505.84,210.48s19.88,1.23,20.5,1.36l-21,5"/><path class="cls-5" d="M506.27,214.06c0,13.67-11.92,24.76-26.63,24.76S453,227.74,453,214.06s11.92-24.76,26.63-24.76S506.27,200.39,506.27,214.06Z"/><path class="cls-7" d="M506.27,214.06c0,13.67-11.92,24.76-26.63,24.76S453,227.74,453,214.06s11.92-24.76,26.63-24.76S506.27,200.39,506.27,214.06Z"/><path class="cls-6" d="M479.63,191.18s-20.81-1.39-24.77,21C460,197.08,479.63,191.18,479.63,191.18Z"/><path class="cls-1" d="M543.94,213.89c-8.53,0-12.8,6.93-21.33,6.93s-12.8-6.93-21.33-6.93-12.8,6.93-21.33,6.93-12.8-6.93-21.33-6.93-12.8,6.93-21.33,6.93-12.8-6.93-21.33-6.93L416,292s0,14.21,64,38.48C544,306.19,544,292,544,292Z"/><path class="cls-8" d="M543.94,213.89c-8.53,0-12.8,6.93-21.33,6.93s-12.8-6.93-21.33-6.93-12.8,6.93-21.33,6.93-12.8-6.93-21.33-6.93-12.8,6.93-21.33,6.93-12.8-6.93-21.33-6.93"/><path class="cls-9" d="M430.86,307.21c-2.21-1.3,4.79-9.81,5.41-10.2a6,6,0,0,0,.88-1.9,5.59,5.59,0,0,1,2.45-3.13,31.17,31.17,0,0,0,4.11-4.12,13.79,13.79,0,0,1,6.81-4.92c1.6-.46,14.74.27,19.6,1.09,3.7.62,4.55.66,6.57.3,1.28-.23,4.73-.53,7.68-.68,5-.25,5.52-.33,8.13-1.45l2.77-1.19,3.25.47a16.61,16.61,0,0,1,5.69,1.7c3.78,1.91,4.87,2.2,10.2,2.74,4.54.46,5.1.6,6.49,1.56a7.66,7.66,0,0,1,2.39,2.78,16.91,16.91,0,0,0,2.08,3.07l10.17,9.13c-15.7,10.8-26.38,16.78-55.76,27.62a327,327,0,0,1-48.93-22.88Z"/><path class="cls-10" d="M495.35,281.1l-2,.87c-3,1.28-4,1.47-8.82,1.78-2.36.15-5.56.41-7.11.61-3,.38-3,.38-7.72-.28A126.69,126.69,0,0,0,455.17,283l-4.65-.11.26.43a11.94,11.94,0,0,0,1.56,1.45,8.71,8.71,0,0,1,1.69,1.8,3.36,3.36,0,0,0,3.11,1.73c1.25.09,1.31.13,1.36.54s-.29,1-1.43,2.56a6.35,6.35,0,0,0-.71,1.91c-.16.73-.47,1.87-.69,2.53-.48,1.42-.48,1.32-.15,1.32,1,0,2.58-1.4,4.8-4.16,2.46-3.07,2.86-3.21,5.66-2.15a13.33,13.33,0,0,0,2.59.71c1.27.13,1.53.28,3.54,2.12,1,.87,2.22,1.94,2.81,2.38a4.87,4.87,0,0,1,1.08,1,1.7,1.7,0,0,1-.43.56c-.38.38-.55.43-1.86.43a5.3,5.3,0,0,1-4.45-1.65c-1-1-2.89-2.28-3-2.12s.13.33.37.65a3.36,3.36,0,0,1,.58,2.9,7.29,7.29,0,0,0,.11,2.73c.15.86.36,2.87.48,4.46a17.49,17.49,0,0,0,.32,2.9c.16,0,.41-.85.78-2.71s.79-2.61,2.14-3.51,2-.93,3.42.24a12.29,12.29,0,0,0,2.2,1.39,12.9,12.9,0,0,1,1.82,1c.55.42.61.43.78.15a16.33,16.33,0,0,0,.17-3.25c0-2.81,0-3,.41-3.51a2.42,2.42,0,0,1,2-1.08c.78,0,1.26.38,1.77,1.39a3.82,3.82,0,0,0,1.9,1.93,5.69,5.69,0,0,1,1,.58,14.73,14.73,0,0,0,1.64,1,3.07,3.07,0,0,0,2.31.45,2.55,2.55,0,0,1,1.43.09c.35.29.3,1.06-.22,2.86l-.46,1.64.37.78a15.18,15.18,0,0,0,4.34,4.35c1.75,1.14,2.22,1.55,2.55,2.19a.76.76,0,0,1,0,.85c-.18.33-.3.36-1.25.28s-1.7-.38-4.06-1.43c-1.65-.73-3.44-1.53-4-1.8-.87-.43-1.26-.51-3.89-.69-3.6-.25-3.57-.27-3.22,1.49.13.65.26,1.27.3,1.39s-.18.21-.84.22c-1.29,0-1.46.14-1.19,1a5,5,0,0,0,2.2,3A7.76,7.76,0,0,1,485,321l1.1,1.82,2.18,1.21c1.2.66,2.22.32,2.91,1.79,13.21-5.22,30.76-12,40.54-20.45.82-.78-7.14.32-6.42-.55.92-1.1-2.33-6-1.45-7.12.76-1,1.6-2.16,1.86-2.56l.48-.71-.89-1.11a30.36,30.36,0,0,1-1.88-2.69,11.58,11.58,0,0,0-1.08-1.6,8.62,8.62,0,0,0-1.1.89,4.16,4.16,0,0,1-2.64,1.37,5.71,5.71,0,0,0-2.79,1c-.77.65-6.77,3.24-6.77,2.93a4.27,4.27,0,0,1,1.28-1.78c.49-.46.8-.88.8-1.13a7.47,7.47,0,0,1,1-2.75,2.88,2.88,0,0,0,.41-1.82c0-1.89,0-1.88-1.6-2.12a21.57,21.57,0,0,1-6.12-2,20.16,20.16,0,0,0-6.85-2.06Zm1.23,5.35a4.78,4.78,0,0,1,1.17.3c2.34.81,3.15,1.6,2.92,2.86-.1.55-.13.56-1.75.87a13.73,13.73,0,0,0-2.72.82,14.1,14.1,0,0,1-2,.76c-1.39.36-2.11.28-4.37-.52l-2.05-.71,1.75-1.52a7.31,7.31,0,0,1,3.24-2,24,24,0,0,1,2.68-.71,4.58,4.58,0,0,1,1.17-.13Zm-55.51,9.62-1,.45a29.47,29.47,0,0,0-5.56,4.26c0,.37,2.27,5.3,1.81,6.53-.69,1.84,5.12,5.33,8,7.68a62.46,62.46,0,0,0,7.54,3.38c.09,0,.24-.32.32-.65a59.76,59.76,0,0,1,3.07-7.14l2.55-1.84-.91-1a7.69,7.69,0,0,1-1.9-3.31l-.13-.65-1.77,0-1.77.06-1.84-.89a9,9,0,0,1-3.39-2.56,6.56,6.56,0,0,1-1.95-2.71,16.76,16.76,0,0,0-.73-1.8l-.37-.74Zm65.84,2.41a5.38,5.38,0,0,1,3.67,1.28c1.14.8,1.16.87,1.19,4l0,2.36-1.17.11c-.64.06-1.7.2-2.33.3-1.1.18-1.15.22-1.25.74a18.84,18.84,0,0,1-1.21,3.57c-.74,1.46-.73,1.44-1.79.78-1.42-.89-2.12-2.47-2.55-5.89-.14-1.14-.29-2.26-.35-2.47s0-.43.65-.74a6.25,6.25,0,0,0,2.51-3l.37-.91,1.6-.13.65,0Zm-42.62,11.68-.56.69a6.5,6.5,0,0,1-1.53,1.28c-1.11.65-5.61,8.45-5.31,8.76a55.36,55.36,0,0,0,5.68,2.08c.59.18,6-1,6.75-1l1.36,0-3-5.48A12.77,12.77,0,0,1,465,312l-.73-1.89Z"/><path class="cls-8" d="M535.77,302.46l-10.38-9.13a12,12,0,0,1-2.08-3.07,7.66,7.66,0,0,0-2.39-2.78c-1.39-1-1.94-1.09-6.49-1.56-5.33-.54-6.43-.84-10.2-2.74a16.61,16.61,0,0,0-5.69-1.7l-3.25-.47-2.77,1.19c-2.6,1.12-3.08,1.2-8.13,1.45-2.95.14-6.4.45-7.68.68-2,.36-2.87.32-6.57-.3-4.86-.82-18-1.55-19.6-1.09a13.79,13.79,0,0,0-6.81,4.92,31.18,31.18,0,0,1-4.11,4.12,5.59,5.59,0,0,0-2.45,3.13,13.94,13.94,0,0,1-1.52,3c-2.41,1.83-6.07,8.45-5.42,8.73"/><path class="cls-5" d="M439.35,230a2.55,2.55,0,0,1-1.22.87c-.67.15-.85.44-1.28.36s-.61-.51-1.1-.22-.55.15-.73.51a1.48,1.48,0,0,0-.06.87,4.92,4.92,0,0,1-.18,1,2.34,2.34,0,0,0-.24.87v.94l.18.8.43.51.85.51.31.73.55.58L437,237l.61-.51.55.07c.31.07,1.53.29,1.53.29a1.59,1.59,0,0,1,.49.73c.12.44.37.51.12.94s-.31.8-.67.8-.73.22-1.16.07a5,5,0,0,0-1.22-.15l-.79-.51-.24-.36a1.49,1.49,0,0,1-.06.87,6.15,6.15,0,0,1-.43.58l-.18.94.12.51.49.44.18.73.67-.36s0,.44.31.44a4.53,4.53,0,0,0,1-.29h1.59s2.38.22,2.81.22a5.86,5.86,0,0,0,.85-.07.64.64,0,0,1,.67.36,2.7,2.7,0,0,0,.79,1.09c.31.22,1,.65,1.28.87s.92.73.92.73l.61,1.31.61-.29s.37.51.55.8a2.7,2.7,0,0,0,1,.65c.31.15.73,0,1,.65s1,.87,1,1.23-.31,1.45-.31,1.81.49.29.24,1.16a5.82,5.82,0,0,0-.37,1.89c.06.36-.12.73-.12,1.6s.18,1,.18,1l.06,2.18a12.63,12.63,0,0,0,.37,2.1c.18.36.85.65,1,1.16s.37,1.09.43,1.31a2.64,2.64,0,0,1,.12,1.45c-.18.51-.79,1.6-1.16,2.54a57.85,57.85,0,0,1-2.26,5.8c-.55.8-2.26,3.7-2.26,3.7a20.15,20.15,0,0,1-1,3.19,4,4,0,0,1-1,1.31,3.27,3.27,0,0,1-1.22.58c-.24,0-.37-.36-1-.15s-1.28,1.23-1.28,1.23a2.72,2.72,0,0,0-.55,1c-.06.44-.43.94,0,1.31a2.93,2.93,0,0,0,1.34.44s-.31.94-.06,1.23,1.47.29,1.47.29-.12,1,.37,1a5.5,5.5,0,0,0,1.22-.22s0,1.09.55.94.79-1,1-.44.73,1.67,1.34,1.31a17.6,17.6,0,0,0,2.26-1c.49-.44,1.34-.29,1.59-1.16a14.24,14.24,0,0,1,.49-2.1,21.33,21.33,0,0,0,1.16-2c.43-1,1.71-3.77,2.08-4.57s1.89-3.19,2.32-4.28,1.83-3.26,2.44-4.5,1.34-2.32,1.65-3a4.66,4.66,0,0,1,1.28-2c.73-.58,2,.51,2,.51s3.48.36,4.27.36,3.05.07,3.42-.22a23.67,23.67,0,0,1,3.36-1.74c.24,0,3-1.6,3.91-1.81s3.36-2.47,4.27-2.32,3.48-.58,4.46-.36,1.65.36,1.71.65a6.58,6.58,0,0,0,1.28,2.39c.67.65.06,1,2.44,2.68s3.91,1.6,4.27,2.1.06,1.81,1.1,2.32,1.28-.07,1.47.58.37.8.73,1.81.92,1.16,1,2.1-.06,2.68-.06,2.68-1,.94-1.16,1.52.24,2.18-.43,3-2.14,2.18-2.14,2.18a3.53,3.53,0,0,1-1,.51,5.47,5.47,0,0,0-2.26.36c-.49.36-.67.36-.79.87s-.37.58-.12.94,1.1.15.92.51a1.48,1.48,0,0,0-.24,1c.06.44.31.8.61.8a8,8,0,0,0,1.16-.22s-.12.73.24.8a3.65,3.65,0,0,0,1.4-.29c.49-.15,2-.36,2.32-.51s1,.51,1.28-.44.31-2,.43-2.25a11.16,11.16,0,0,1,1-2.47c.49-.65,1.34-2.76,1.59-3.12a14,14,0,0,0,1.28-2.39c.12-.51.37-2.1.49-2.83a9.35,9.35,0,0,0,.06-2.61c-.12-.73-1-2.68-.43-2.68s1.28.44,1.89.29.37-.29,1.59.73,2.14.51,2.81,1.74a13.67,13.67,0,0,1,1.59,3.7c0,.65.73,2.32.92,3.63a8.4,8.4,0,0,1-.49,3.41c-.18.58.37.58-.92,1.16s-2.38.36-2.87.8-.85.22-1.1.94a6.11,6.11,0,0,0-.31,1.81c0,.36,1.28.87,1.28.87a3.52,3.52,0,0,0,.37,1.23,1.06,1.06,0,0,0,1.4.44c.92-.29,1-1.31,1.34-.73s1.59.8,1.59.8,1.71-.36,2-.87a18.33,18.33,0,0,0,.43-2.39,3.53,3.53,0,0,1,.79-1.67c.61-.73,1-.22,1-1.6a8.92,8.92,0,0,0-.37-2.54c-.12-.94-1-5.08-1.1-5.73a11.52,11.52,0,0,1,.12-3c.12-.36.49-2.25-.18-2.68a21.1,21.1,0,0,0-2.44-1,4.31,4.31,0,0,1-1.89-1.67c-.43-.8-.85-1.81-1.1-2.1s-1.59-2.18-2.32-3.12a3.79,3.79,0,0,0-1.59-1.23s-.67-2.61-1.22-4-1-2.39-1.28-3.12a23.35,23.35,0,0,0-1.65-3.63c-.43-.58-1.65-2-1.65-2l3-.8a11.52,11.52,0,0,1,3.11.07,25.94,25.94,0,0,0,3.24.73,14.3,14.3,0,0,0,2.87.87c.85,0,3.48.29,4.27-.07s2.2-.36,2.81-.65a18.4,18.4,0,0,0,2.08-1.45,4.94,4.94,0,0,0,1.53-1.81c.37-.87,1.16-3,1-3.84a13.9,13.9,0,0,0-1-2.76c-.18-.29-1.16-2-1.59-2.47s-.31-.8-1.4-1.38a6.34,6.34,0,0,0-2.56-.94,13.13,13.13,0,0,0-2.38.15,3.29,3.29,0,0,0-1.53.58s-.37.51.12.58a9.37,9.37,0,0,0,2.44.29c.49-.15,1.22-.58,1.71-.15s1.83,1.31,2.32,1.74a7.69,7.69,0,0,1,1.89,2.47,6.78,6.78,0,0,1,.18,2.54c-.18.87.12,2-1,2.54s-2,1.38-3.3,1.67-2.26,1.16-3.24.73-2.2-.29-3.11-.58-4.4-1.16-4.7-1.16-4.09-.94-4.58-1-5.07,0-5.07,0-3.66-.73-4-.73-2.5-.29-3.79-.29a37.6,37.6,0,0,0-4,.44c-.85-.15-3.85,1-5.31.94s-5.8-.36-6.53-.44a19.54,19.54,0,0,1-4.52-1.16c-1.53-.65-3.79-2.61-4.82-2.76s-5.68-2.18-6.53-2.39a17,17,0,0,1-3.3-.8,44,44,0,0,1-4.4-3.34c-1.1-.8-4.4-3.26-4.4-3.26s.37.07.31-.36a2.38,2.38,0,0,0-.92-1.45c-.43-.22-1.22-.65-1.71-.44l-1.59.73a8.24,8.24,0,0,0-2-.87,8.53,8.53,0,0,0-2.38,0,16.49,16.49,0,0,0-1.71.65,7.23,7.23,0,0,0-1,.73Z"/><path class="cls-11" d="M435.22,231.21a1.87,1.87,0,0,0,.26.61c.09.14.06.17.4.31a2,2,0,0,0,.89.24c.4,0,.75-.34.63,0a1.84,1.84,0,0,1-.4.58,1.28,1.28,0,0,1-.37.24.79.79,0,0,1-.43.07c-.23,0-1.41-.34-1.41-.34Zm-.51,2.6a5.5,5.5,0,0,0,.21,1,8.23,8.23,0,0,0,.69.64,4.7,4.7,0,0,0,1.07.32,11.44,11.44,0,0,0,1.55-.39,10.57,10.57,0,0,1,1.52,0,4.21,4.21,0,0,1,.81.11c.21.25.57.64.57.64,0,.25.06,1.38.06,1.38l-.36.85a5.91,5.91,0,0,1-.66.6c0-.25.06-1.17.06-1.17a4,4,0,0,0-.69-.89c-.42-.14-1.55-.39-1.55-.39a7.33,7.33,0,0,0-.87.21,3.68,3.68,0,0,1-1.16.07,3.87,3.87,0,0,1-.63-.14,2.82,2.82,0,0,1-.54-.67,6,6,0,0,1-.21-.92c0-.43.12-1.06.12-1.28Zm.81,6.45a2.05,2.05,0,0,0,.54.71,1.62,1.62,0,0,1,.57-.28c.12.11,1.16-.78,1.16-.78.15.6.39.74.39.74a.7.7,0,0,0,.93.32c.48.39.87-.21.87-.21.33.18,1.22-.25,1.22-.25a.84.84,0,0,0,1.19.14c.48.57.66.6.66.6a3.3,3.3,0,0,1,1.67-.14c.27-.5.6-.46.6-.46a10.35,10.35,0,0,1,1.07-.71,9,9,0,0,0,1.64-.53,3.45,3.45,0,0,1,.54-.67c.54-.35,1.19-.89,1.19-.89a5.88,5.88,0,0,0,.33-.92l.18-.07a6.73,6.73,0,0,1,.12,1.63,6.15,6.15,0,0,1-.81,1.1,6.06,6.06,0,0,0-.39,1.38,4.41,4.41,0,0,1-.27,1c-.15-.32-.27-.21-.27-.21-.72.67-1.13.43-1.13.43-.87.85-1.13.71-1.13.71a9.88,9.88,0,0,1-.54,1.21l-.27.07a8.9,8.9,0,0,1-1-1,9.15,9.15,0,0,0-.66-.82c-.69,0-1.52.07-1.52.07-.36,0-2.78-.18-2.78-.18-.57,0-1.64-.07-1.64-.07a6.67,6.67,0,0,1-.66.25l-.72-.57a3.76,3.76,0,0,1-.39.57c0-.14-.12-.78-.12-.78a4.17,4.17,0,0,1-.6-.67l.18-.64Zm5.28-9.46a1,1,0,0,0,.18.5,1.72,1.72,0,0,0,.93-.14c.18,0,1-.11,1-.11l.66.28a.61.61,0,0,1,.3.53v.64c-.18.21-.48.67-.48.67-.15.21-.48.57-.48.57a4.82,4.82,0,0,1-.6,0l-1-.28-.69-.28a3.4,3.4,0,0,0,.3.67c0,.14-.48.11-.48.11a3.66,3.66,0,0,1-.57-.85,3.75,3.75,0,0,1,.18-1c.21-.32.72-1.31.72-1.31Zm9.37-1.28c0,.39,0,.67,0,.67l-.45.57c-.18.21-.39.43-.39.43-.24.14-.72.35-.72.35a2.49,2.49,0,0,1-.78-.07,1.37,1.37,0,0,0-.93.18h-.45a10.47,10.47,0,0,1-1-.32l.12.82a3.32,3.32,0,0,0,.66.64c.24.14,1.07.46,1.07.46a5.42,5.42,0,0,0,1.22,0,8.25,8.25,0,0,0,1.25-.78l.81-.71a2.61,2.61,0,0,0,.06-.6c-.06-.18-.15-.57-.15-.57-.06-.21-.36-1-.36-1Zm-3.43.57c-.21.14-.63.5-.63.5-.18.18.54.18.54.18a3.91,3.91,0,0,1,1-.07,5.54,5.54,0,0,1,1.16-.18,2.43,2.43,0,0,1,.48.18l.15.18a3,3,0,0,0-.12-.82,2,2,0,0,0-.66-.43,5.81,5.81,0,0,0-1.28.11l-.66.35Zm-.18,14.64c.21,0,2.34-.7,2.34-.7.27.63.53.76.53.76a1.92,1.92,0,0,0,1.38.82,1.55,1.55,0,0,0,1.12.7,2.18,2.18,0,0,0,1.49,1.52c-.59,1.58,0,2.09,0,2.09-.53,1.39-1,2.53-1,2.53a1.7,1.7,0,0,1-.32.57c-.11-.32-.43-1.33-.43-1.33a11.8,11.8,0,0,1,.53-1.58,9.61,9.61,0,0,1-1-1.33,8.54,8.54,0,0,0-.85-.7L449,247a8.51,8.51,0,0,1-.59-.63,6.68,6.68,0,0,0-.69.51c-.11-.25-.37-1.14-.37-1.14a10.87,10.87,0,0,1-.8-1Zm5.27,9.61a10.8,10.8,0,0,1,1.22,2,15.37,15.37,0,0,0,1,1.83,3.27,3.27,0,0,0,1.33,1.45,2.33,2.33,0,0,0,1.12,1.71,2.52,2.52,0,0,0,.8,2.09,2.77,2.77,0,0,0-.05,1.14c-.11.7-.43,2.28-.43,2.28-.48.76-1.12,2.09-1.12,2.09l-.8,1.64c-.11.38-2.71,7.21-2.71,7.21l.37-2.4c.16-.95.48-2.4.48-2.4V270.9c0-.7.05-1.52.05-1.52a9.8,9.8,0,0,0-.37-1.83l1.28-2.34-.37-2.34-1-1.14a2,2,0,0,0-.75-.88c-.11-.63-.11-2.46-.11-2.46,0-.57-.11-2.34-.11-2.34.05-.25.21-1.71.21-1.71Zm15.91,12.26a20.54,20.54,0,0,1,1.38-3,9.18,9.18,0,0,1,1.65-1.39c.75-.76,1.76-1.83,1.76-1.83-.37-.57-1.76.19-1.76.19-.48-.13-1.44-3-1.44-3A22.16,22.16,0,0,0,468,259.9a4.33,4.33,0,0,1-1,1.07,4.26,4.26,0,0,0-.69-1.07c-1.06,1.71-1.44,1.71-1.44,1.71-1.28,2-1.76,1.9-1.76,1.9-.69,1.71-1.22,1.64-1.22,1.64-.64.06-1.22,2.21-1.22,2.21-.11.25-.48,2.28-.48,2.28-.32,1.2-.8,2.78-.8,2.78-.32.76-.85,1.9-.85,1.9-.27.63-.64,1.45-.64,1.45a16.56,16.56,0,0,0-.21,2.09l3.46-6.38c.05-.25,3.14-5.37,3.14-5.37l1.54-.06c.48.13,1.92.57,1.92.57ZM451,280.5l-.69,1.26c-.37.63-.85,1.39-.85,1.39a5.48,5.48,0,0,1-.85.57c-.21.13-.85.38-.85.38l-1.06-.19-.64.57a4.24,4.24,0,0,0-.53,1,3.05,3.05,0,0,1-.8.76l.16-1.39.05-.57a9.46,9.46,0,0,0-1.33.88,1.07,1.07,0,0,1-.75-.25,6.11,6.11,0,0,0-.53-1l-.59,1.33.64.7H443a7.46,7.46,0,0,0,.27,1.33c.05.25.64.51.64.51l.59.19.37.7a3.81,3.81,0,0,0,1.12.19,3.76,3.76,0,0,0,.37-.25,1.38,1.38,0,0,0,.32.95,11,11,0,0,0,1.17-.7l.21,1.26,1,.25a7,7,0,0,0,1.49-.44l1.44-.76c.32-.19.8-.51.8-.51a12,12,0,0,1,.43-1.52,14,14,0,0,0,1.12-1.9l.64-1.39c.16-.82.48-2.21.48-2.21.32-.63,1.54-2.84,1.54-2.84l-1.49,1.39c-.27.44-1,1.64-1,1.64a24.81,24.81,0,0,0-1.17,2.65c-.37.88-1.06,2.09-1.06,2.09a13.14,13.14,0,0,1-.85,1.33,4.7,4.7,0,0,1-1.54.7,5.08,5.08,0,0,1-1-.38l-.05-.82-.59.25a2.35,2.35,0,0,1-1.38.51,5.78,5.78,0,0,1,.11-1.2l-1,.32a1.68,1.68,0,0,1,0-.95c.27-.25,1.33-1,1.33-1l.69-.13a8.37,8.37,0,0,0,1.49-.7c.11-.25,1.38-4,1.38-4Zm19.4-13.93c1.06-.27,3.42-1.17,3.42-1.17a25.52,25.52,0,0,1,3.87-2.71,44.09,44.09,0,0,1,3.34-3.07,22.3,22.3,0,0,1,3.42-1.89A38.64,38.64,0,0,1,488,256.1a17.42,17.42,0,0,1,3-.45,21.23,21.23,0,0,1,3,.27,21.69,21.69,0,0,0,2.2,1.26c.61.81,1.6,2.53,1.6,2.53l.91,1.71c.3.72,1.06,2.26,1.06,2.26a8.94,8.94,0,0,0,1.52,2.17,8.51,8.51,0,0,0,1.67,1.44c.61.18,3,.72,3,.72.3.09,3,1.08,3,1.08l2.66.27,1.75,1.26a14.62,14.62,0,0,1,2.13,2.8,11.77,11.77,0,0,0,.15,1.62L514,272.52c-.68-.45-2-1.08-2-1.08a11.22,11.22,0,0,0-1.67-.72,9.21,9.21,0,0,0-2-.18l-1.29-.09c-1.14,0-2.28.09-2.28.09a12.8,12.8,0,0,0-1.6.36l-1.6-.27-1.14-.63a7.55,7.55,0,0,1-.46-1.62c-.53-.27-3.65-1.71-3.65-1.71l-3-2.8c-.23-.45-1.9-2.8-1.9-2.8-.15-.45-2.13-1.08-2.13-1.08l-4.63,1.08-5.85,3.16c-1,.36-3.11,1.26-3.11,1.26l-1.82,1.44-2.89.18Zm46.72,4.51c-.3-.09-.76.45-.76.45a3.74,3.74,0,0,0,.68,1.08c.3,1.17.76,3.07.76,3.07.23.9.38,1,.38,1l.53-2.17a12.89,12.89,0,0,0-.15-1.89c-.53-.54-1.44-1.53-1.44-1.53Zm-8.66,3.07a24.3,24.3,0,0,1-1.52,3.07,19.66,19.66,0,0,0-1.22,1.71,12,12,0,0,0-1.29,2.71,20.8,20.8,0,0,0-.38,2.71A15.37,15.37,0,0,1,502.9,287a3.31,3.31,0,0,1-1.9,1l-.3-1a10,10,0,0,1-1.14.63c-.46.27-1-.18-1-.18l-.15-.9a3.21,3.21,0,0,0-1-1l-1.29.63.12,1,.79.36c-.1,0-.31.72-.22,1.17.06.29.41.34.41.34a1.89,1.89,0,0,0,1.26.44l.45.6a11.76,11.76,0,0,0,2.51-.63l2-.27a8,8,0,0,0,.49-1.42,30.36,30.36,0,0,1,1.06-3.32,36.38,36.38,0,0,1,2.6-4.82l.84-3.52v-1.89Zm12.75,8.46a10.58,10.58,0,0,1-.83,1.37,8.24,8.24,0,0,0-1,1.37c-.17.78-.5,2.06-.5,2.06-1.07,1.37-1.82,1.47-1.82,1.47a1.9,1.9,0,0,1-1-.39,9,9,0,0,1-1.9.59,2.35,2.35,0,0,1-1-.88c-.58-.59-1.4-1.67-1.4-1.67l-.41,2.25c.41.2,1.49.59,1.49.59a4.8,4.8,0,0,0,.5,1.57l1.24.1.91-1,.83.88c.33,0,1.73.1,1.73.1l1-.59.5-1.57a7.15,7.15,0,0,0,.25-1.18,6.5,6.5,0,0,0,.87-1.64l.94-.91c-.08-.49-.41-2.55-.41-2.55Zm7.71-40.77-1.55,3.39-1.68,1.56a32.31,32.31,0,0,1-3.86,1.61c-1.25,0-4.17.12-4.17.12-1.15-.12-5.21-1-5.21-1-1.77-.37-3.75-.87-3.75-.87-2.19-.37-3.65-.5-3.65-.5a24.09,24.09,0,0,0-4.59.87l2.19,2c1,.62,2.81,1.86,2.81,1.86.31.5,2.29,3.71,2.29,3.71l-.73-2.85-1.46-2.35L505,249c1.15-.37,3-1,3-1l3.51.4,4.52,1.1a18.13,18.13,0,0,0,2.92.37c.42,0,4.06-.5,4.06-.5.42-.25,2.86-1.63,2.86-1.63.42-.5,1.62-1.59,1.62-1.59.42-.25,1.35-4.33,1.35-4.33Z"/><path class="cls-12" d="M439.35,230a2.55,2.55,0,0,1-1.22.87c-.67.15-.85.44-1.28.36s-.61-.51-1.1-.22-.55.15-.73.51a1.48,1.48,0,0,0-.06.87,4.92,4.92,0,0,1-.18,1,2.34,2.34,0,0,0-.24.87v.94l.18.8.43.51.85.51.31.73.55.58L437,237l.61-.51.55.07c.31.07,1.53.29,1.53.29a1.59,1.59,0,0,1,.49.73c.12.44.37.51.12.94s-.31.8-.67.8-.73.22-1.16.07a5,5,0,0,0-1.22-.15l-.79-.51-.24-.36a1.49,1.49,0,0,1-.06.87,6.15,6.15,0,0,1-.43.58l-.18.94.12.51.49.44.18.73.67-.36s0,.44.31.44a4.53,4.53,0,0,0,1-.29h1.59s2.38.22,2.81.22a5.86,5.86,0,0,0,.85-.07.64.64,0,0,1,.67.36,2.7,2.7,0,0,0,.79,1.09c.31.22,1,.65,1.28.87s.92.73.92.73l.61,1.31.61-.29s.37.51.55.8a2.7,2.7,0,0,0,1,.65c.31.15.73,0,1,.65s1,.87,1,1.23-.31,1.45-.31,1.81.49.29.24,1.16a5.82,5.82,0,0,0-.37,1.89c.06.36-.12.73-.12,1.6s.18,1,.18,1l.06,2.18a12.63,12.63,0,0,0,.37,2.1c.18.36.85.65,1,1.16s.37,1.09.43,1.31a2.64,2.64,0,0,1,.12,1.45c-.18.51-.79,1.6-1.16,2.54a57.85,57.85,0,0,1-2.26,5.8c-.55.8-2.26,3.7-2.26,3.7a20.15,20.15,0,0,1-1,3.19,4,4,0,0,1-1,1.31,3.27,3.27,0,0,1-1.22.58c-.24,0-.37-.36-1-.15s-1.28,1.23-1.28,1.23a2.72,2.72,0,0,0-.55,1c-.06.44-.43.94,0,1.31a2.93,2.93,0,0,0,1.34.44s-.31.94-.06,1.23,1.47.29,1.47.29-.12,1,.37,1a5.5,5.5,0,0,0,1.22-.22s0,1.09.55.94.79-1,1-.44.73,1.67,1.34,1.31a17.6,17.6,0,0,0,2.26-1c.49-.44,1.34-.29,1.59-1.16a14.25,14.25,0,0,1,.49-2.1,21.32,21.32,0,0,0,1.16-2c.43-1,1.71-3.77,2.08-4.57s1.89-3.19,2.32-4.28,1.83-3.26,2.44-4.5,1.34-2.32,1.65-3a4.66,4.66,0,0,1,1.28-2c.73-.58,2,.51,2,.51s3.48.36,4.27.36,3.05.07,3.42-.22a23.67,23.67,0,0,1,3.36-1.74c.24,0,3-1.6,3.91-1.81s3.36-2.47,4.27-2.32,3.48-.58,4.46-.36,1.65.36,1.71.65a6.58,6.58,0,0,0,1.28,2.39c.67.65.06,1,2.44,2.68s3.91,1.6,4.27,2.1.06,1.81,1.1,2.32,1.28-.07,1.47.58.37.8.73,1.81.92,1.16,1,2.1-.06,2.68-.06,2.68-1,.94-1.16,1.52.24,2.18-.43,3-2.14,2.18-2.14,2.18a3.53,3.53,0,0,1-1,.51,5.47,5.47,0,0,0-2.26.36c-.49.36-.67.36-.79.87s-.37.58-.12.94,1.1.15.92.51a1.48,1.48,0,0,0-.24,1c.06.44.31.8.61.8a8,8,0,0,0,1.16-.22s-.12.73.24.8a3.65,3.65,0,0,0,1.4-.29c.49-.15,2-.36,2.32-.51s1,.51,1.28-.44.31-2,.43-2.25a11.16,11.16,0,0,1,1-2.47c.49-.65,1.34-2.76,1.59-3.12a14,14,0,0,0,1.28-2.39c.12-.51.37-2.1.49-2.83a9.35,9.35,0,0,0,.06-2.61c-.12-.73-1-2.68-.43-2.68s1.28.44,1.89.29.37-.29,1.59.73,2.14.51,2.81,1.74a13.67,13.67,0,0,1,1.59,3.7c0,.65.73,2.32.92,3.63a8.4,8.4,0,0,1-.49,3.41c-.18.58.37.58-.92,1.16s-2.38.36-2.87.8-.85.22-1.1.94a6.11,6.11,0,0,0-.31,1.81c0,.36,1.28.87,1.28.87a3.52,3.52,0,0,0,.37,1.23,1.06,1.06,0,0,0,1.4.44c.92-.29,1-1.31,1.34-.73s1.59.8,1.59.8,1.71-.36,2-.87a18.33,18.33,0,0,0,.43-2.39,3.53,3.53,0,0,1,.79-1.67c.61-.73,1-.22,1-1.6a8.92,8.92,0,0,0-.37-2.54c-.12-.94-1-5.08-1.1-5.73a11.52,11.52,0,0,1,.12-3c.12-.36.49-2.25-.18-2.68a21.1,21.1,0,0,0-2.44-1,4.31,4.31,0,0,1-1.89-1.67c-.43-.8-.85-1.81-1.1-2.1s-1.59-2.18-2.32-3.12a3.79,3.79,0,0,0-1.59-1.23s-.67-2.61-1.22-4-1-2.39-1.28-3.12a23.35,23.35,0,0,0-1.65-3.63c-.43-.58-1.65-2-1.65-2l3-.8a11.52,11.52,0,0,1,3.11.07,25.94,25.94,0,0,0,3.24.73,14.3,14.3,0,0,0,2.87.87c.85,0,3.48.29,4.27-.07s2.2-.36,2.81-.65a18.4,18.4,0,0,0,2.08-1.45,4.94,4.94,0,0,0,1.53-1.81c.37-.87,1.16-3,1-3.84a13.9,13.9,0,0,0-1-2.76c-.18-.29-1.16-2-1.59-2.47s-.31-.8-1.4-1.38a6.34,6.34,0,0,0-2.56-.94,13.13,13.13,0,0,0-2.38.15,3.29,3.29,0,0,0-1.53.58s-.37.51.12.58a9.37,9.37,0,0,0,2.44.29c.49-.15,1.22-.58,1.71-.15s1.83,1.31,2.32,1.74a7.69,7.69,0,0,1,1.89,2.47,6.78,6.78,0,0,1,.18,2.54c-.18.87.12,2-1,2.54s-2,1.38-3.3,1.67-2.26,1.16-3.24.73-2.2-.29-3.11-.58-4.4-1.16-4.7-1.16-4.09-.94-4.58-1-5.07,0-5.07,0-3.66-.73-4-.73-2.5-.29-3.79-.29a37.6,37.6,0,0,0-4,.44c-.85-.15-3.85,1-5.31.94s-5.8-.36-6.53-.44a19.54,19.54,0,0,1-4.52-1.16c-1.53-.65-3.79-2.61-4.82-2.76s-5.68-2.18-6.53-2.39a17,17,0,0,1-3.3-.8,44,44,0,0,1-4.4-3.34c-1.1-.8-4.4-3.26-4.4-3.26s.37.07.31-.36a2.38,2.38,0,0,0-.92-1.45c-.43-.22-1.22-.65-1.71-.44l-1.59.73a8.24,8.24,0,0,0-2-.87,8.53,8.53,0,0,0-2.38,0,16.49,16.49,0,0,0-1.71.65,7.23,7.23,0,0,0-1,.73Z"/><path class="cls-12" d="M453.06,262.38a13,13,0,0,0,1.9,1.69l.81.48s-.41,1.53-.47,2,0,2.17-.14,2.9a28,28,0,0,1-1,2.9c-.34,1-1,2.9-1.76,4.51s-1.42,3.94-1.69,4.59-.81,2.25-1.08,2.74-1.63,1-1.63,1a3.56,3.56,0,0,0-1.42-.08c-.41.16-.27-.08-.81.56s-.81.72-.88,1.13a5,5,0,0,0,0,1m3,1,.2-1a4,4,0,0,1,.88-.64h1.08m-3.73,1.53c0-.32-.07-1.13-.07-1.13a7.8,7.8,0,0,1,.75-.72l1.08-.48m-4.68,0a7,7,0,0,1,.2-1.21c.34-.32.88-.72.88-.72a5.92,5.92,0,0,1,1.22.32m18.84-18.67a10.92,10.92,0,0,1,.95-1.61,5.28,5.28,0,0,1,1.22-1,11.32,11.32,0,0,1,1.42-.8m40,7.48-1.42-.64c-1.08-.48-2.37-1-2.37-1a23.26,23.26,0,0,1-2.37-.4c-.75-.48-2.17-1.61-2.17-1.61a12.16,12.16,0,0,1-1.69-1.61c-.88-.8-1.83-1.77-1.83-1.77a5,5,0,0,0-1.63-1.77c-.54-.72-3.32-1-3.32-1m-47.5-18.27.54.48a8,8,0,0,0,.54-.89,5.28,5.28,0,0,0,1.08.56,1.29,1.29,0,0,1,1-.64l.81-.32,1.22-1,1.08-1.45m.47-8.21c-.2.32-.75,1.13-.75,1.13a5.75,5.75,0,0,1-1.49.72,8.09,8.09,0,0,1-.95.08,8.46,8.46,0,0,1-1.15-.24m-11.33,0,.32.3c.08.08.41.3.41.3a2,2,0,0,0,.53,0,3.59,3.59,0,0,1,.71-.06m4-2a3.11,3.11,0,0,0-.39.42c-.07.2-.19.64-.19.64,0,.16.3.3.3.3.27-.08.85-.29.85-.29a1,1,0,0,1,.39-.12c.19,0,.95-.11.95-.11.2,0,1.24.1,1.24.1m-6.24,3.53a9.57,9.57,0,0,0,1.17-.06c.32,0,.78,0,.78,0a5.39,5.39,0,0,1,.69.22c.24.12.59.34.59.34.07.18.3,1.13.3,1.13m-5.42-.12a5,5,0,0,0,.71,0c.24-.06.75-.24.75-.24m-.15,2.6-.32.32a5.18,5.18,0,0,0-.54.28,5.38,5.38,0,0,1-.59,0m62.67,49.53a7.67,7.67,0,0,1,.52-1.51,2.41,2.41,0,0,1,.85-.5c.47.06,1.65-.79,1.65-.79M497,287.64c.19-.5,1.18-1.23,1.18-1.23l.85.34c.42.06,1.23-.56,1.23-.56m15.3,4.15a8.67,8.67,0,0,1,.09-1.68,8.35,8.35,0,0,1,.57-.62l1-1.29a5.65,5.65,0,0,0,.14-.62m-4.72,3.48a7.35,7.35,0,0,1,.71-1.51,3.78,3.78,0,0,1,.76-.56,9.5,9.5,0,0,0,1.79-1.4m2.55-11.33c0-.5-.09-1.79-.09-1.79a4.64,4.64,0,0,0-.24-1.18,10.22,10.22,0,0,0-1.46-.73m-69.93-39.3.88-.08a5,5,0,0,1,.95-.08c.34-.16.61-.32.61-.32a.89.89,0,0,0,.36-.88s-.19-.55-.42-.68a2.25,2.25,0,0,0-.94-.22,4.14,4.14,0,0,0-1,.44l-.71.31m58.36,18.61-2.09-1.14-1.93-.86"/><path class="cls-13" d="M440.89,232.15l.21.57a2.72,2.72,0,0,0,.41.34,2,2,0,0,0,.74.25,1.53,1.53,0,0,0,.67-.28,1.93,1.93,0,0,0,.36-.68c0-.2.43-.57,0-.59a6.58,6.58,0,0,0-1,.17,2.68,2.68,0,0,0-.74.06,3.9,3.9,0,0,1-.48.14"/><path d="M441.6,232l0,.62.43.42c.1.08.57.4.48.17a3.12,3.12,0,0,1-.21-1c0-.23.21-.4,0-.31l-.64.25Z"/><path class="cls-14" d="M441.51,234.65c.35.33.7.41.77.91s.35.66.21,1.49-.21,1.82-.21,1.82,0-1,.77-.5,1,1.66,1.26,1-1.12-2.9.63-1.82,2.16,1.82,2.16.91-.42-1.49.7-1.16,1.53-.17.35-.83-2.09-1-2.51-1.24a2,2,0,0,0-1.32-.5c-.91-.08-2.79-.08-2.79-.08Zm11.17,4.24c-.88,2.19-1.29,3.43-1.29,3.43l1.45.29c.24,1.91,1.61.67,1.61.67a1.9,1.9,0,0,0,1.85,1.72c-.08,1.43-.32,2.86-.32,2.86a6.44,6.44,0,0,1-1,2.1c-1,2.86-.88,2.86-.88,2.86.08.38.4,1.81.4,1.81a12.56,12.56,0,0,0,.72,2.1,13.11,13.11,0,0,1,1.12,1.43,17,17,0,0,1,.48,2.1l1,.48a4.9,4.9,0,0,1,.72,1.14v2.67a34.27,34.27,0,0,1-1,3.34,24.42,24.42,0,0,0-.32,2.86,33.19,33.19,0,0,0,2.41-3.91,13.29,13.29,0,0,1,2.25-3.62c1.61-2.19,2.41-3.24,2.41-3.24a16.72,16.72,0,0,1,2.25-1.34,2.89,2.89,0,0,0,1.69-.76,6.45,6.45,0,0,1,1.61-.48c.32-.1,1.2,1.24,1.2,1.24l.08-3a4.19,4.19,0,0,1,.16-2,13.06,13.06,0,0,1,2.73-.86c.64.1,1.37,1.24,1.37,1.24l4.26-.76c1.37-.38,3.86-1,3.86-1a14.42,14.42,0,0,1,3.05-.86c2,.19,4.82-2,4.82-2,.08-.57-1-2.1-1-2.1a14.85,14.85,0,0,0-5.46-1,50.82,50.82,0,0,1-5.94-.57l-6.51-1C471,244,468,242.61,468,242.61c-2.41-.67-4.74-1.43-4.74-1.43a30.9,30.9,0,0,0-4-.57,15.6,15.6,0,0,1-3.21-.76c-.4-.29-2.89-2.48-2.89-2.48-.72-.38-2.81-1.53-2.81-1.53l1.85,2.38Zm47.15,12a6.13,6.13,0,0,0-3.45.48,5.43,5.43,0,0,0,.56,3.34c1.45,1.91,2,2.67,2,2.67a27.21,27.21,0,0,0,2.65,4.87,16,16,0,0,0,3.78,3.15,34.17,34.17,0,0,0,3.37.86c1.29.38,2.73,1,2.73,1,1,.48.8-.67.8-.67a12.28,12.28,0,0,0-2.57-2.48,9.22,9.22,0,0,1-2.09-3.05,47.28,47.28,0,0,0-1.93-4.48,28.27,28.27,0,0,0-1.93-3.43,13.27,13.27,0,0,0-2.57-1.72,5.78,5.78,0,0,0-1.37-.48Z"/><path d="M435,232.48s-.09.54-.09.67a3.36,3.36,0,0,1-.23.64,1.4,1.4,0,0,1,.43-.24,1.32,1.32,0,0,0,.54-.13,3,3,0,0,1,.62-.3,1.3,1.3,0,0,0,.4-.2s-.82-.07-1-.1A6.64,6.64,0,0,1,435,232.48Z"/><path d="M443.51,229c-.45.34-1,.4-1,.74s.34.61.74.61.68-.13.68-.47a2.13,2.13,0,0,0-.4-.87Zm1.42,3.58a2.43,2.43,0,0,0-.57,1.28,4.3,4.3,0,0,0,.8.4l.06-1.08A2.18,2.18,0,0,0,444.93,232.59Zm-7,.34a1.27,1.27,0,0,0-.34.88c.23,0,.62-.4.62-.4A.69.69,0,0,0,437.94,232.93Zm12.95.07a1.26,1.26,0,0,0-.8,1.21.68.68,0,0,0,1-.13A1.8,1.8,0,0,0,450.89,233Zm-11.13.47-.45.07.11.54Zm-1.14.4a.5.5,0,0,0-.17.54l.17-.54Zm14.94.13a3.47,3.47,0,0,0-.74,1.21c.68,1,1.42.88,1.42.88a2.69,2.69,0,0,0-.4-2Zm-16.3.07a.73.73,0,0,0-.23.61c.4.13.57-.34.57-.34Zm10.45,0a4.57,4.57,0,0,0-.85.88,1.73,1.73,0,0,0,1.36.81c.28-.2.28-1.08.28-1.08A3.72,3.72,0,0,1,447.71,234.08Zm-11.64.13c-.06.34-.11.61-.11.61l.28-.13Zm88.66,1.14a2.53,2.53,0,0,0-.09,1.52c.8.48,1,0,1,0,.16-.66-.88-1.52-.88-1.52Zm-88.26.07.28.47.23-.47Zm8.24.2a1.27,1.27,0,0,0-.91.74,5.42,5.42,0,0,0,1.36.81,1.56,1.56,0,0,0,.06-1.28A1.32,1.32,0,0,0,444.69,235.63Zm5.17.07a2.37,2.37,0,0,0-.11,1.35c.23,0,.34-.47.34-.47C450,236.3,449.86,235.69,449.86,235.69Zm2.44.07a2.46,2.46,0,0,0-.91,1.62,4.63,4.63,0,0,0,1.7.74,4,4,0,0,0,.28-1.69C453.1,236.3,452.31,235.76,452.31,235.76Zm4.26.27c-.45.07-1.7,1.48-1.7,1.48a3.54,3.54,0,0,0,.51,1.62c0,.4.68.81.68.81a3.11,3.11,0,0,0,1.48-.34c0-.3,0-.56,0-.78a.86.86,0,0,1-.71.44c-.4,0-.45-.2-.91-.47a1.12,1.12,0,0,1-.57-1c0-.34.4-.61.85-.94s.51.88,1.14,1.42a.71.71,0,0,1,.18.22v-.15a14.65,14.65,0,0,0-1-2.29Zm1,2.45c0,.08,0,.16,0,.35A.41.41,0,0,0,457.55,238.48Zm-5.36-2.31.23.07,0,.22,0,.05.17.07.34.94a2.35,2.35,0,0,1-.62-.47l.09-.59-.2-.29Zm7.1,1.48a1.47,1.47,0,0,0-.34,1,.71.71,0,0,0,.8,0l.17-.67-.63-.34Zm-11.7.13a2.54,2.54,0,0,0-.57,1.55c.51.34,1.08-.61,1.08-.61A1.2,1.2,0,0,0,447.58,237.79Zm-4.2.34-.28.13a2.8,2.8,0,0,0-.28,1.21c.34.4,1.08.13,1.08.13A2.33,2.33,0,0,0,443.38,238.12Zm19,.34a3.34,3.34,0,0,0-.28,1.89c.91.4,1,.81,1,.81.45.67,1.36.27,1.36.27.34-.67.62-1.15.62-1.15a.73.73,0,0,0-.28-.88,6.43,6.43,0,0,1-.78-.27l.5.54s-.57.94-.91,1.08-.28-.4-.34-.67a2.52,2.52,0,0,1-.23-.94l.1-.37a5.18,5.18,0,0,1-.72-.31Zm.72.3.07,0,.81.34-.13-.13a.43.43,0,0,1-.28-.2l-.4-.27-.07.24ZM454,239l-.23.4.23.88c.34.27.8-.54.8-.54C454.74,239.27,454,239,454,239Zm-4.26.74-.4.13a1.66,1.66,0,0,0,.34,1.55,4.64,4.64,0,0,0,.62-1.21A.6.6,0,0,0,449.74,239.74Zm10.68,0a6.1,6.1,0,0,0-2.27,2.36,1.73,1.73,0,0,0,1.31.81,1.32,1.32,0,0,1,1.25-.34c.74-.13,1-1.15,1-1.15A5.34,5.34,0,0,0,460.42,239.74Zm-8.07.54a3.67,3.67,0,0,0-1.53,1.42,14,14,0,0,0,.45,2.09,4,4,0,0,0,1,.27,3.07,3.07,0,0,0,1.76-1.48,4.14,4.14,0,0,0-.91-2A2.29,2.29,0,0,0,452.36,240.28Zm8.07.27a.66.66,0,0,1,.11.4c0,.27.23.2.11.67a2.09,2.09,0,0,1-1.42.07v-.47S459.46,240.82,460.42,240.55Zm8.69.07a5.68,5.68,0,0,0,.57,1.48,22.45,22.45,0,0,1,.91,2.77c.51.54,1.93.07,1.93.07a7.81,7.81,0,0,0,.74-1.75,18.73,18.73,0,0,1-2.39-1.35C470.3,241.5,469.11,240.62,469.11,240.62Zm58.5.46c-.88,1.34-.09,2.11-.09,2.11.4-.19.4-1.25.4-1.25.16-.76-.31-.86-.31-.86Zm-75.15,0,.57.27s.57,1,.45,1.42-1.25.47-2.1.47a3.53,3.53,0,0,1-.06-1.35S452,241.09,452.47,241.09Zm17.61.34,2.5,1.55s-.23.81-.4,1.21-.45.2-1,.07a2.46,2.46,0,0,1-.62-.94A18,18,0,0,1,470.07,241.43Zm-13.86.81a3.54,3.54,0,0,0-1.25,1.69c.4.81.68,1.28.68,1.28a1.22,1.22,0,0,0,1.59,1.21,11.07,11.07,0,0,0,.45-1.89,5.86,5.86,0,0,0-.51-1.89A10,10,0,0,0,456.22,242.24Zm10.51,0a5.72,5.72,0,0,0-1.3,1.48c-.11.54.51,1.48.51,1.48a1.77,1.77,0,0,0,1.19.2c.85-.07,1-.4,1-.4.68-.54.62-2,.62-2a5.43,5.43,0,0,1-1.48-.67,3.92,3.92,0,0,0-.57-.07Zm-3,.46a1.58,1.58,0,0,0-1.06.36,3.16,3.16,0,0,0,1,.61.81.81,0,0,0,.57.27,1.29,1.29,0,0,0-.11-1.21l-.35,0Zm3.37.15s.57.34,1,.67-.11.61-.34.74a3.64,3.64,0,0,1-1.53.4,6.83,6.83,0,0,1-.06-1.15A1.81,1.81,0,0,1,467.12,242.85Zm-10.91.13s.34.54.57.88a2.67,2.67,0,0,1,.17,1.82.56.56,0,0,1-.68-.54,5,5,0,0,1-.51-1S455.93,243,456.22,243Zm2.61.13a4.12,4.12,0,0,0-.4,1.35c.28.07.57-.34.57-.34A3,3,0,0,0,458.83,243.12Zm-9.26.27a3,3,0,0,0-.51,1.55c.51.13,1-.4,1-.4,0-.67-.17-.94-.45-1.15Zm11.59.54c-1.19,1.35-1.42,1.69-1.42,1.69a6.18,6.18,0,0,0,.85,1.42,2.66,2.66,0,0,0,1.19.67,2.56,2.56,0,0,0,1.59-.88,2.34,2.34,0,0,0,0-1.82c-.11-.54-1-.94-1-.94A5.71,5.71,0,0,0,461.16,243.92Zm13.76.21a8.05,8.05,0,0,0-1.53,2.48c.56.76,2.26.2,2.26.2a3.86,3.86,0,0,0,.55-1.82c-.49-.37-1.28-.85-1.28-.85Zm14.21.2a1.45,1.45,0,0,1-.38.25,1.64,1.64,0,0,1,.7,0s.8.13.85.47a3.81,3.81,0,0,1-.74.67l-1,.26s-.22-.76-.38-1.3a1.47,1.47,0,0,1-.6-.1A3.94,3.94,0,0,0,489,246.7a8.65,8.65,0,0,0,1.93-1.91c0-.38-1.77-.47-1.77-.47Zm-.92.39a1.38,1.38,0,0,0,.54-.13c-.29,0-.55.08-.55.08v.05Zm6.39-.39c-1.69,1-1.77,1.52-1.77,1.52a2.41,2.41,0,0,0,2.33-.47C495.15,245,494.6,244.33,494.6,244.33Zm5.23.08c-.32.38.23,1.91.23,1.91a.86.86,0,0,0,.89-.94C500.47,245,499.83,244.42,499.83,244.42Zm-37.59.18a2.71,2.71,0,0,1-.17,2l-1.19-.2a1.5,1.5,0,0,1,.11-1.21C461.33,244.4,461.56,244.6,462.24,244.6Zm13,0,.06,1.35s-.51.2-.74,0S474.68,245.68,475.25,244.6Zm29.82.19c-.69,0-2.6.3-2.6.3,0,1,1.77,1.91,1.77,1.91a3.89,3.89,0,0,0,1-2.19l-.21,0Zm-24.69.19a2.13,2.13,0,0,0-1.28.88,11.71,11.71,0,0,0-.16,2.58,5.41,5.41,0,0,0,2.24,1.23,5.86,5.86,0,0,0,1.36-.66,17.45,17.45,0,0,0,.17-2,9.48,9.48,0,0,0-2-2,1.06,1.06,0,0,0-.33,0Zm17.11.3a1.28,1.28,0,0,0-.55.39,2.68,2.68,0,0,0-1.77,1.52,6.45,6.45,0,0,0,2.57,1.72c.4,1.14,2.66.67,2.66.67-.24-1.43-.48-3-.48-3a7.42,7.42,0,0,0-2.41-1.33Zm5.31.07a6.52,6.52,0,0,0,.74.07l1.14.13-.74.54Zm-33.89,0c-1.12.76-1.29,1.15-1.29,1.15a1.15,1.15,0,0,0,1,.08,8.88,8.88,0,0,0,.33-1.23Zm57.51,0c-1,1.14-.24,1.72-.24,1.72l.57-.67Zm-72.63,0c-1.19.67-1.14.88-1.14.88a1.19,1.19,0,0,0,1.31.4A1.57,1.57,0,0,0,453.78,245.42Zm38.17.15c-2.33,2.19-2.09,2.77-2.09,2.77,1.12.29,2.41-.94,2.41-.94a3,3,0,0,0-.33-1.82Zm-11.59.05.17.34a4.78,4.78,0,0,0,.8.74c.4.27.28.81.17,1.35,0,0-.4.34-1.48.07a3.08,3.08,0,0,1-.51-.94A3.64,3.64,0,0,1,480.36,245.62Zm28.7.05a1.64,1.64,0,0,0,.64,2.09,1.93,1.93,0,0,0-.24-1.72l-.4-.37Zm-11.6.29,1,.34c.4.13.91.88,1.48,1.89a2.2,2.2,0,0,1-.4,1.35s-.8-.47-2-1.35c0,0-.74-.61-1.31-1C496.2,247.18,496.66,246.71,497.45,246Zm-10.81.37c-.32,0-.4.39-.4.39a6,6,0,0,0-1,2.11c.48,1.14,3,1.62,3,1.62a5.35,5.35,0,0,0,1-2.29c-.48-.86-2.57-1.82-2.57-1.82Zm-27.54.17c-.34.2.11.94.11.94C459.45,247.58,459.39,246.77,459.11,246.5Zm12.1.05a.38.38,0,0,0-.4.29,7.73,7.73,0,0,0-2.61,1.75,2.56,2.56,0,0,1,1.31,1.08,1.65,1.65,0,0,0,1.59.81c.85-.07,1.7-1.35,1.7-1.35a4,4,0,0,0-1.42-2.56l-.17,0Zm41.94.35a1.25,1.25,0,0,0,.16,1.72,1.29,1.29,0,0,0,1.28-.94,2.46,2.46,0,0,0-1.43-.78Zm-6.52.1-2.16,1.62s1.84-.38,2.4-.47.16-1-.24-1.15Zm-41.16,0a9.48,9.48,0,0,0-1.65,2.23,3.92,3.92,0,0,1,.11,1.55,1.38,1.38,0,0,0,.85.94c1-.13,1.93-.2,1.93-.2a6.93,6.93,0,0,0,.4-2.36A10.59,10.59,0,0,0,465.47,247Zm51,.15c-.16,1,1.05,1.72,1.05,1.72.8-.76.64-1,.64-1l-1.69-.67Zm-61,0a4.21,4.21,0,0,0-.62,1.48,1.85,1.85,0,0,0,1.53.67,5.18,5.18,0,0,0,.06-1.62A7.67,7.67,0,0,1,455.42,247.24Zm67.93.05c-1,1.14-.88,1.62-.88,1.62.72-.1.88-.37.88-.37A3.09,3.09,0,0,0,523.35,247.29Zm-52.2.09a8,8,0,0,0,.91,1c.34.27.45.61.17,1.28,0,0-1.82.07-2.27-.34a1.91,1.91,0,0,0-.8-.54.66.66,0,0,1,.4-.74A11.3,11.3,0,0,1,471.15,247.38Zm5.45,0a12.59,12.59,0,0,0-2.66,3.24c.48.57,1.85,1.91,1.85,1.91a1.85,1.85,0,0,0,1.45-.08c1-.38,1.52-1.92,1.52-1.92a1.84,1.84,0,0,0-.64-1.42c-.48-.48-1.52-1.72-1.52-1.72Zm16.87,0c-.48.48.16.94.16.94Zm-6,.1a1.78,1.78,0,0,1,.44.08,2.52,2.52,0,0,1,.57,1.35,2.16,2.16,0,0,1-1.59.27s-.17-.27.06-1.55a.72.72,0,0,1,.53-.15Zm-31.93.22.51.61-.11.61-.68-.54A5.81,5.81,0,0,1,455.53,247.71Zm9.88.13a11,11,0,0,0,.51,1.48l.17,1.15a2,2,0,0,1-1.31.07c-.74-.2,0-.13-.11-1.35A3.7,3.7,0,0,1,465.41,247.85Zm-6.47.34a3.7,3.7,0,0,0-1.7,1.08,1.21,1.21,0,0,0,0,1.15,4.08,4.08,0,0,0-.17,1.15,2,2,0,0,0,1.14.54,3.16,3.16,0,0,0,1.76.81c1.08-1.42,1.65-2.29,1.65-2.29,0-.74-1.36-.88-1.36-.88l-.34-.94a6.34,6.34,0,0,0-.68-.54l-.28-.06Zm-.11.61a8.35,8.35,0,0,0,.45,1.21,3.84,3.84,0,0,0,1.48.74,2.45,2.45,0,0,1-1.53,1.21,11.85,11.85,0,0,0-1.31-.4,4,4,0,0,1,.34-1.15,2.07,2.07,0,0,1-.11-.88S458.43,248.79,458.83,248.79Zm18,0,.34.27-.34.07a4.24,4.24,0,0,1,1,1.15c.45.74-.23.88-1.14,1.35a3.07,3.07,0,0,1-1.53.07,1.66,1.66,0,0,1-.11-1.69A6.67,6.67,0,0,1,476.83,248.79Zm43.07,0s-1.2.38-1.12.76a1.65,1.65,0,0,0,1.92-.29s-.39-.47-.8-.47Zm-25.15.76a5.86,5.86,0,0,0-3.45,2.58c.32,1.62,1.12,1.7,1.12,1.7a3.92,3.92,0,0,0,2.09-.47c1.2.48,2.17-1.15,2.17-1.15a13.93,13.93,0,0,1-1.93-2.66Zm-25.94.86c-1.29.86-1.45,1.43-1.45,1.43.88.48,1.53-.57,1.53-.57l-.09-.86Zm35,.08a2.31,2.31,0,0,0-1.19,1.53c.56,1,1.12,1,1.12,1a4.91,4.91,0,0,0,.88-1.62c0-.38-.81-1-.81-1Zm-22.25.1c-.56-.1-1.36.86-1.36.86,1.45.67,1.77.19,1.77.19a1.8,1.8,0,0,0-.41-1Zm12.7.19,1,1.21s-.17.74-.57.88-2.33-.34-2.22-.94A4.62,4.62,0,0,1,494.27,250.82Zm-5.78.2c-.4,1.14.8,2.09.8,2.09C489.61,252.64,488.49,251,488.49,251Zm11,.28a2.06,2.06,0,0,0-1.6.86,4.17,4.17,0,0,1,1.69,2,4,4,0,0,0,2,1.15c.08-1.72.09-2.66.09-2.66A8,8,0,0,0,500,251.3,3.54,3.54,0,0,0,499.49,251.3Zm.58.51a.86.86,0,0,1,.55.29,8.43,8.43,0,0,1,0,2.16,3.41,3.41,0,0,1-.74-.61,10.88,10.88,0,0,1-1-1.35s.68.07.91-.27a.27.27,0,0,1,.24-.22Zm-15,.07A10.81,10.81,0,0,0,483,254a7.59,7.59,0,0,0,2.66,1c.48-.1.8-2.56.8-2.56C486.15,251.88,485.11,251.88,485.11,251.88Zm-30.77.36a2.71,2.71,0,0,0-.57,1.89c.51.13.8-1.15.8-1.15A1.86,1.86,0,0,0,454.34,252.23Zm31.13.13a1.9,1.9,0,0,1-1,2,1,1,0,0,1-.11-1.21s.8-.81,1.08-.81Zm-14.54.13a8.53,8.53,0,0,0-1.48.13,5.59,5.59,0,0,0-2,1.28,4.25,4.25,0,0,0,1.76,2.5,9.4,9.4,0,0,0,2.39-.88,2.34,2.34,0,0,0-.68-3Zm-19,.07,0,.89a3.28,3.28,0,0,1,.5.59s.4.67.57,1.08a3.94,3.94,0,0,1-1.32.2,8.11,8.11,0,0,1-.16.88,4.75,4.75,0,0,0,1.82-1.21c.8-.88-.28-.67-.45-1.21a6.21,6.21,0,0,0-.91-1.21Zm-.3,2.77a3.94,3.94,0,0,0,0-.47,1.76,1.76,0,0,1,.21-.93v-.49a6.45,6.45,0,0,0-.28,1.55l-.06.34h.1Zm5.58-2.49a4.78,4.78,0,0,0-1.36,1.62c.8,1.28,1.65,1.21,1.65,1.21a2.19,2.19,0,0,0,1-1.08,2.53,2.53,0,0,0-.62-1.55A2.48,2.48,0,0,1,457.24,252.84Zm16.39.17-.4.29a3.58,3.58,0,0,0-.08,1.54,1.58,1.58,0,0,0,1.86-.67c-.88-1-1.38-1.15-1.38-1.15Zm6.52,0a5.12,5.12,0,0,0-2.5,3.25,7.37,7.37,0,0,0,2.09.37,13.88,13.88,0,0,0,.41-3.14V253Zm-16.71.17a1.53,1.53,0,0,0-.8.4,3.48,3.48,0,0,0-1.65,1.48,16.67,16.67,0,0,0,.17,2.77,4.76,4.76,0,0,1,1.08.27.82.82,0,0,0,.85-.2,4.93,4.93,0,0,0,1.82.27,7,7,0,0,0,.62-1.62,9.2,9.2,0,0,1-.23-2,1,1,0,0,0-.4-.81,7.42,7.42,0,0,1-.8.47A5.39,5.39,0,0,1,463.43,253.18Zm6.87.07a7.81,7.81,0,0,1,.51,1.28c.28.88-.23.4-.74.81a4.24,4.24,0,0,1-1.42-.34,7.65,7.65,0,0,1,.11-1.15S468.88,253.79,470.3,253.25Zm-12.84.4.23.81s-.28.61-.62.61-.4-.2-.51-.74A1.27,1.27,0,0,1,457.47,253.66Zm22.09.13.11.4a6.55,6.55,0,0,1-.51,2c-.34.47-.34-.07-.51-.54a3.72,3.72,0,0,1,.23-.74Zm-16.24.06-.26.17c0,.12.26.94.37,1.38a10.38,10.38,0,0,1,1.08-.27,1.59,1.59,0,0,1,0,.81l-.85,1.15-.91-.13s-.91.34-.74,0a11.52,11.52,0,0,0,.45-1.28s-.49-.83.6-1.65l0-.1.29-.07Zm41.72.22a8.2,8.2,0,0,0-2.64,3.42,3.87,3.87,0,0,0,1.76,1.72l1.21.47c.4,0,.8-1.7.8-1.7.08-.48.33-2.29.33-2.29a5.94,5.94,0,0,0-1.45-1.62Zm-8.44.18c-1.69.86-1.36,1.43-1.36,1.43C496.44,255.79,496.6,254.26,496.6,254.26Zm8.75,1.15a10.63,10.63,0,0,1,.06,1.15c0,.67.06,1,.11,2a4.86,4.86,0,0,1-1.65-.4,2.41,2.41,0,0,1-.11-1.62A5,5,0,0,1,505.35,255.41Zm-13.65.37a2.13,2.13,0,0,0-.48,1.64c.48,0,.81-.57.81-.57l-.33-1.06Zm-37.36.3a2.42,2.42,0,0,0-.8,2,5,5,0,0,0,2.5.67,3.52,3.52,0,0,0-.11-1.82A5.61,5.61,0,0,0,454.34,256.07Zm28,.37c-.48.67.64,1.43.64,1.43l.09-1-.72-.39Zm-23.27.1a2.73,2.73,0,0,0-.74,1.69,1.66,1.66,0,0,0,1.76,0c-.11-1.21-.68-1.42-.68-1.42Zm38.78.19c-1,0-1.12,1.53-1.12,1.53a7.9,7.9,0,0,0,2.64,2.66c1,.1,1.6-1.53,1.6-1.53a4.53,4.53,0,0,0-1.19-1.7,5.08,5.08,0,0,0-1.93-1Zm-43,.22s.68.54.68,1.08-.34.27-.8.07c0,0-.85-.27-.8-.61Zm22.82.07c-.8.76-.72,1.33-.72,1.33a.83.83,0,0,0,1.12.29,4.57,4.57,0,0,0-.4-1.62Zm-3.21.1c-1.2.38-1.29,1.15-1.29,1.15a2.38,2.38,0,0,0-2,1.7l1.52.67a4.78,4.78,0,0,0,2.5-1.53,4.09,4.09,0,0,0-.72-2Zm23.84.44a3.92,3.92,0,0,1,1.19.67c.85.61.62.4.45,1.82a5.7,5.7,0,0,1-1.7-.74A2.47,2.47,0,0,1,498.36,257.56Zm-29.71.13a2.65,2.65,0,0,0-1.85,1.7,3.61,3.61,0,0,0,1.92-.47c0-.38-.07-1.23-.07-1.23Zm5.74.67a3.94,3.94,0,0,1-1.08,1.82c-.8.67-1.08-.13-1.08-.61l.74-.27s.68-.54,1.08-.81Zm33.62.56a2.72,2.72,0,0,0-1.21,2.19c1.12,1.14,1.36.57,1.36.57a7.67,7.67,0,0,0-.16-2.77Zm-52.93,1.13a1.38,1.38,0,0,0-1.14,1.21,10.93,10.93,0,0,0,1.87,1.21,3.92,3.92,0,0,0,.06-1.62A6.24,6.24,0,0,0,455.09,260.05Zm15,0c-.8.57-.88,1-.88,1a.9.9,0,0,0,1-.2Zm-7.68.25c-1.65,1.21-1,2-1,2,1.08.27,1.48-.27,1.48-.27a2.19,2.19,0,0,0,0-1.35Zm4.32.61a4.24,4.24,0,0,0-2.33,1.43,5.79,5.79,0,0,0,0,1.91,10,10,0,0,0,2.09-1.15,2.81,2.81,0,0,0,.24-2.19Zm7.8.29a21.72,21.72,0,0,0-2.81,1.33c0,.48,1.52.47,1.52.47a16.53,16.53,0,0,1,1.29-1.8Zm29.45.15a3.46,3.46,0,0,0-1.42.32,7.54,7.54,0,0,1,.88,1c0,1.24.57,1.53.57,1.53,1.53.57,2.48,1,2.48,1,.64-.19,1-1.25,1-1.25a2.38,2.38,0,0,0-.88-1.72,7.9,7.9,0,0,0-1.21-.47l-.57-.29a2.56,2.56,0,0,0-.82-.13Zm-6.49.13a5.78,5.78,0,0,0,0,1.23c.8.38,1.14-.19,1.14-.19-.24-.67-.49-1-1.14-1Zm-31.38,0,.17.81s.06.61-.74.94-.57-.27-.4-.74A4.32,4.32,0,0,1,466.11,261.54Zm-7,.13c-1.76.61-1.7,3.1-1.7,3.1,1,.47,1.25.61,1.25.61a14.35,14.35,0,0,0,1-1.55C459.41,263,459.06,261.68,459.06,261.68Zm45.32.27s1,.54,2.22,1.21.06.34-.06,1a2,2,0,0,1-1.36-.13s-.74-.67-1.08-1C504.1,263,504.1,261.95,504.39,261.95Zm-46,.54h.28l-.13.15.13.12a6,6,0,0,1,.23,1.55c0,.81-.11.4-.74.27a3.49,3.49,0,0,1-.28-.94,6,6,0,0,1,.67-1l-.16-.16Zm35.51.15a.25.25,0,0,0-.1,0l.72,1.8c.32,0,.57-1.33.57-1.33a2,2,0,0,0-1.19-.49Zm-24,.1c-1.29.86-1.29,1.72-1.29,1.72a2.3,2.3,0,0,0,1.76-.66,2,2,0,0,0-.47-1.06Zm40.88.39c-1,1-.4,1.82-.4,1.82C511,264.95,510.75,263.13,510.75,263.13ZM497,264a6,6,0,0,0-.33,1.15,3.19,3.19,0,0,0,1.6,1,1.31,1.31,0,0,0,.57-.86A3.52,3.52,0,0,0,497,264Zm5,.29-.16,1.23a1.88,1.88,0,0,0,1.36.86,2.93,2.93,0,0,0-.8-1.8l-.41-.29Zm7.31,1.8a1.57,1.57,0,0,0-.09,2.11l.24-1.15-.16-.47v-.49Zm3.69.57-.4.2a1.8,1.8,0,0,0,.09,2,1.17,1.17,0,0,0,1.76-.56,8.41,8.41,0,0,0-1.45-1.64Zm-57.55.34-.18.4s.19.3.06,1.85.07,0,.65-.39a3.12,3.12,0,0,0,.58-1.25,8.85,8.85,0,0,0-1.11-.62Zm4.84.17a5.42,5.42,0,0,0-1.18,2.33,2.73,2.73,0,0,0,1.69-.62,3.72,3.72,0,0,0-.18-1.64l-.33-.07Zm-6.16,1.13a1.94,1.94,0,0,0-.81,1.33,2,2,0,0,0,1.12-.29.82.82,0,0,0-.31-1Zm50.12.29a3.75,3.75,0,0,0,.24,1.62,5.22,5.22,0,0,0,1-.86l-1.28-.76Zm-1.6.84a1.14,1.14,0,0,0,.31,1.25C503.36,270.29,502.64,269.42,502.64,269.42Zm-45.77,1.15a3.65,3.65,0,0,0-.71,1.55c.2.47,1,.3,1,.3a3.67,3.67,0,0,0,.14-1.55Zm-5,.29-.64.78-.48.76a1.67,1.67,0,0,0,.88-.47c.16-.76.24-1.06.24-1.06Zm53.42.49c-.48,1.62-.07,2.19-.07,2.19.48,0,1.12-1.06,1.12-1.06a2,2,0,0,0-1.05-1.13Zm-45.57,1.42a16.05,16.05,0,0,0-1.9.29,2,2,0,0,0-.4,1.82,2.66,2.66,0,0,0,1.21-.29,5.78,5.78,0,0,0,1.28-1.82.85.85,0,0,0-.18,0Zm-7.28.67a7.19,7.19,0,0,0-.81,1,.75.75,0,0,0,.89.37,2.94,2.94,0,0,0-.09-1.33Zm2.81.1a7.15,7.15,0,0,0-.4,1.52,4.38,4.38,0,0,0,1-1.52Zm.49,3.53a2.37,2.37,0,0,0-.64,1.8,1,1,0,0,0,.88-.66,1.9,1.9,0,0,0-.24-1.15Zm-3.08,1.62a.89.89,0,0,0-.61.29c-.4,1,0,1.25,0,1.25.48,0,1-1.43,1-1.43a1,1,0,0,0-.43-.1Zm-3-3.16a4.52,4.52,0,0,0-.22,2.91l.67-1.57a4.48,4.48,0,0,0-.45-1.34Zm28.72-15.35a6.26,6.26,0,0,0,.22,2.24l.78-.67a2.74,2.74,0,0,0-1-1.57Zm10.17-4.37-1,1.12a1.1,1.1,0,0,0,.56.56c.56-.45.45-1.68.45-1.68Zm18.66-3.25-.89.67a2.36,2.36,0,0,0,1,1.23c.45-.11-.11-1.9-.11-1.9Zm-4.8-5a5.77,5.77,0,0,0,.22,1.79c.78,0,.89-.11.89-.11ZM507,273.85a1.39,1.39,0,0,0-.22,1l.56.34Zm-1.45,2.24-.22.9.56.22a1.86,1.86,0,0,0-.34-1.12Zm-60.11-37.75v0Zm0-.11c-.55,0-.66.29-.66.29a1.17,1.17,0,0,0,.73.44,2.84,2.84,0,0,0-.22-.77Zm.77-1.57.51.51-.29-.48Zm-.88-6.43a1.38,1.38,0,0,0-.58.55.71.71,0,0,0,.51.4Zm-4.34-.37-.29.29c.18.22.62.11.62.11s-.33-.4-.33-.4Z"/><path class="cls-15" d="M416,164.05V292.48s0,13.71,64,38c64-24.27,64-38,64-38V164.05Z"/></g></g></svg>