<svg xmlns="http://www.w3.org/2000/svg" height="480" width="640" viewBox="0 0 640 480"><defs><style>.a{fill:#fff;}.b{fill:#c6a12f;}</style></defs><title>South Asian Association</title><rect class="a" width="640" height="480"/><path class="b" d="M252.1,277s12.74,5.67,22.3-1.41c0,0,11.68-10.27,18.77,1.41,0,0,4.6,9.21-8.15,15.93,0,0-18.06,8.5-32.93-15.93"/><path class="b" d="M395.12,277s-12.74,5.67-22.3-1.41c0,0-11.68-10.27-18.76,1.41,0,0-4.61,9.21,8.15,15.93,0,0,18,8.5,32.92-15.93"/><path class="b" d="M254.67,377c0-.37-.11-.75-.16-1.12s.23-.74.67-.74a.86.86,0,0,1,.54.13,10.05,10.05,0,0,1,.83,2.25,12.2,12.2,0,0,0,2.77,4.42,7.06,7.06,0,0,0,5.35,2.25,6,6,0,0,0,4.15-1.47,5.28,5.28,0,0,0,1.63-4.08q0-2.85-3.43-4.5t-6.29-2.95a13.18,13.18,0,0,1-4.31-2.9,7.24,7.24,0,0,1-1.43-4.85,8.62,8.62,0,0,1,2.26-6.2,7.85,7.85,0,0,1,6-2.43,9.51,9.51,0,0,1,3.23.56l3.22,1.12a3.77,3.77,0,0,0,1.18-.34,5.3,5.3,0,0,1,1-.35.48.48,0,0,1,.5.43c0,.49.06.9.08,1.21l.46,5.8c.08,1-.24,1.47-1,1.47a16.47,16.47,0,0,0-3.19-5.59,7,7,0,0,0-5.61-2.47,4.83,4.83,0,0,0-3.4,1.21,4.39,4.39,0,0,0-1.26,3.34,3.15,3.15,0,0,0,1.68,3.07q1.73.88,5.9,2.82A17.66,17.66,0,0,1,272,370.9c1.11,1.24,1.66,3.15,1.66,5.72a9.43,9.43,0,0,1-2.59,6.89,9.06,9.06,0,0,1-6.75,2.64,13.27,13.27,0,0,1-3.52-.52c-1.22-.37-2.25-.67-3.1-.9a3.14,3.14,0,0,1-1.38-.61,8,8,0,0,1-.33-1.21L254.67,377"/><path class="b" d="M286.26,375.19a2,2,0,0,0-1.34.56,6.61,6.61,0,0,0-1.23,2.38c-.39,1.22-.63,2-.75,2.43a5.72,5.72,0,0,0-.13,1.09q0,1.77,2.26,2.51t2.26,1.09c0,.43-.35.64-1,.64l-1.13,0-3.94-.17-3.68.17h-.84a.45.45,0,0,1-.41-.48c0-.26.43-.62,1.3-1.08a4.1,4.1,0,0,0,1.88-2.08L290.82,356c.14-.32.28-.65.42-1s.37-.52.63-.52a.44.44,0,0,1,.42.21,5.59,5.59,0,0,1,.58,1.17l11.32,26.51a3.1,3.1,0,0,0,2.17,2c.95.17,1.42.44,1.42.78s-.18.61-.54.61-.69,0-1,0l-5.41-.17-4.6.17h-.55c-.5,0-.75-.17-.75-.52s.48-.68,1.46-1.17a2.38,2.38,0,0,0,1.51-2.25,4.59,4.59,0,0,0-.21-1.3,17.63,17.63,0,0,0-.93-2.47,11.76,11.76,0,0,0-1.13-2.38,1.31,1.31,0,0,0-1.17-.56h-8.25m7-2.33h.54c.54,0,.8-.13.8-.39a1.32,1.32,0,0,0-.09-.52,5.88,5.88,0,0,0-.37-1.08L290.65,363c-.16-.23-.27-.35-.33-.35a.37.37,0,0,0-.2.09,1.72,1.72,0,0,0-.26.43l-3.22,7.67a7.09,7.09,0,0,0-.41,1.08,2.18,2.18,0,0,0,0,.52c0,.2.18.32.54.35l.79,0h5.7Z"/><path class="b" d="M318.83,375.19a2,2,0,0,0-1.34.56,6.49,6.49,0,0,0-1.21,2.38c-.4,1.22-.65,2-.76,2.43a5.72,5.72,0,0,0-.12,1.09q0,1.77,2.26,2.51c1.51.49,2.26.86,2.26,1.09,0,.43-.35.64-1,.64l-1.13,0-3.94-.17-3.68.17h-.84a.45.45,0,0,1-.42-.48c0-.26.44-.62,1.31-1.08a4.11,4.11,0,0,0,1.88-2.08L323.4,356c.14-.32.28-.65.41-1s.38-.52.63-.52a.44.44,0,0,1,.41.21,5.08,5.08,0,0,1,.59,1.17l11.31,26.51a3.12,3.12,0,0,0,2.17,2c1,.17,1.43.44,1.43.78s-.18.61-.55.61-.67,0-1,0l-5.4-.17-4.61.17h-.54c-.5,0-.76-.17-.76-.52s.49-.68,1.46-1.17a2.39,2.39,0,0,0,1.52-2.25,4.59,4.59,0,0,0-.21-1.3,20.16,20.16,0,0,0-.93-2.47,12.27,12.27,0,0,0-1.13-2.38,1.33,1.33,0,0,0-1.17-.56h-8.26m7-2.33h.55c.53,0,.79-.13.79-.39a1.47,1.47,0,0,0-.09-.52,7.54,7.54,0,0,0-.37-1.08L323.24,363c-.17-.23-.28-.35-.34-.35a.39.39,0,0,0-.21.09,1.76,1.76,0,0,0-.25.43l-3.22,7.67a7.54,7.54,0,0,0-.42,1.08,2.77,2.77,0,0,0,0,.52c0,.2.18.32.54.35l.8,0h5.69Z"/><path class="b" d="M345.73,360.64a3.45,3.45,0,0,0-2.3-3.64q-2.26-.82-2.26-1.17c0-.43.31-.65.93-.65l4.89.17,8.47-.17q5.9,0,8,2.68a8.93,8.93,0,0,1,2.05,5.42,7.11,7.11,0,0,1-.67,3.2,6.45,6.45,0,0,1-1.51,2,14.77,14.77,0,0,1-1.76,1.25c-.62.35-.92.61-.92.78l6.58,12a1.07,1.07,0,0,0,.49.52,2.59,2.59,0,0,0,1,.17,2.47,2.47,0,0,0,.63-.12,2.24,2.24,0,0,1,.62-.13c.43,0,.63.2.63.61,0,.61-.5,1.14-1.51,1.6a6.93,6.93,0,0,1-2.94.69,4.38,4.38,0,0,1-3.38-1.25,18.8,18.8,0,0,1-2.56-4l-3.52-6.85a4.4,4.4,0,0,0-1.46-1.86,4.79,4.79,0,0,0-2.35-.43,3.91,3.91,0,0,0-1.67.21c-.19.12-.3.42-.3.91v8.18c0,1.79.69,2.92,2.05,3.38s2.09.78,2.09,1c0,.43-.43.65-1.29.65-.15,0-.6,0-1.38-.08s-1.52-.09-2.23-.09l-6.44.17a4.37,4.37,0,0,1-1-.08c-.23-.06-.33-.28-.33-.65,0-.12.55-.51,1.67-1.17s1.72-2.08,1.72-4.24V360.64m5.14,7.76c0,.55.34.86,1,.95a14.58,14.58,0,0,0,1.81.13q4.27,0,5.44-1.25a5.24,5.24,0,0,0,1.18-3.73,8.06,8.06,0,0,0-1.72-5.37,6,6,0,0,0-4.86-2.08,4.28,4.28,0,0,0-2.18.43c-.45.27-.67,1-.67,2.17v8.75Z"/><path class="b" d="M399.28,364.49a6,6,0,0,1,0,.64c0,.52-.17.78-.54.78a.74.74,0,0,1-.63-.26c-.1-.2-.54-1-1.26-2.47a14.12,14.12,0,0,0-3.85-4.42,9.48,9.48,0,0,0-6.15-2.25,8.19,8.19,0,0,0-7,3.59,13.83,13.83,0,0,0-2.55,8.28,18.68,18.68,0,0,0,2.88,10.05,9.44,9.44,0,0,0,8.47,4.64,10.46,10.46,0,0,0,5.87-1.78c1.5-1.31,3-2.6,4.56-3.91a.54.54,0,0,1,.38.17.4.4,0,0,1,.21.31c0,2-1.48,3.92-4.4,5.67a17.39,17.39,0,0,1-9,2.6q-5.57,0-8.7-2.64a13.93,13.93,0,0,1-4.32-6A18.09,18.09,0,0,1,376,360.07q3.81-5.28,11.06-5.28a15.43,15.43,0,0,1,4.9.82l4.66,1.82c.3,0,.57-.23.79-.69s.45-.74.62-.74c.33,0,.5.08.5.26l.75,8.23"/><path class="b" d="M323.93,261.1s-36.51-46.61-70.21-14.19c0,0-15.48,16.94-5.16,23.76,0,0,13.26,5.9,26-1.11,0,0,18.61-8.27,23.4,8.3,0,0,4,18.23-17.13,21.92,0,0-28.55,1.83-52.31-43.1,0,0-12.53-16.57-10.32-50.84,0,0,1.1-23.76,20.45-55.82,0,0,18.42-31.49,13.26-50.1q-3.65-4-5.15,1.48s.74,15.47-24.86,48.62c0,0-69.82,84.74,4,159.7,0,0,13.82,10.87,22.66,17.14,0,0,11.52,5.17,12.62,22.3H320.9s-4.19-36.3,4.1-47.18c8.3,10.87,4.09,47.18,4.09,47.18h59.73c1.1-17.13,12.63-22.3,12.63-22.3,8.83-6.26,22.66-17.14,22.66-17.14,73.86-75,4-159.7,4-159.7-25.6-33.15-24.86-48.62-24.86-48.62q-1.51-5.49-5.16-1.48C393,118.53,411.39,150,411.39,150c19.35,32.06,20.45,55.82,20.45,55.82,2.21,34.26-10.31,50.84-10.31,50.84-23.76,44.94-52.31,43.1-52.31,43.1-21.19-3.69-17.13-21.92-17.13-21.92,4.79-16.57,23.4-8.3,23.4-8.3,12.71,7,26,1.11,26,1.11,10.3-6.82-5.16-23.76-5.16-23.76-33.71-32.42-70.21,14.19-70.21,14.19h-2.15"/><path class="b" d="M241.54,256.51s8.49-21.6,37.53-25.85c0,0-10.63-9.56-5.66-30.44,0,0,3.18-8.5-9.21-8.5,0,0-24.43-5.31-15.23-36.11,0,0,8.15-16.64,23.72-17.35,0,0-8.85-19.83,5-35,0,0,16.29-18.06,42.48-2.83,0,0-14.87-26.91-43.9-6.73,0,0-19.83,18.06-12.4,38.59,0,0-21.24,8.85-33.28,59.82,0,0-10.63,48.85,11,64.44"/><path class="b" d="M325.45,98.62s30.44-15.57,46,6.37c0,0,9.56,17.34,2.13,30.09,0,0,26.55,3.54,29,30.44,0,0,.71,24.43-26.91,27.26,0,0,7.44,29.38-3.54,36.46,0,0,27.62,4.6,40.37,24.43,0,0,26.9-14.16-2.13-92,0,0-8.14-22.67-26.54-29.74,0,0,9.9-25.5-17.7-41.42A35.44,35.44,0,0,0,330,93.31l-4.6,5.31"/><path class="b" d="M336.77,148.35s-18.23-5.84-25.66,8.5c0,0-5.67,12,6.18,20,0,0,4.26,1.42,4.26-4.6,0,0,2.83-17.53,8.84-16.64,0,0,1.6.71,2,3.54,0,0,0,4.79,2.3,6.9,0,0,8,6.56,1.41,16.46,0,0-9.38,11.33-23.18,3.9,0,0-17.35-11.51-9-29.56,0,0,10.09-21.77,36.28-7.61l-3.36-.89"/><path class="b" d="M363,104.1s-18.23-5.84-25.67,8.5c0,0-5.65,12,6.2,20,0,0,4.25,1.41,4.25-4.6,0,0,2.84-17.53,8.85-16.64,0,0,1.6.71,2,3.54,0,0,0,4.78,2.29,6.9,0,0,8,6.56,1.41,16.46,0,0-9.38,11.33-23.19,3.9,0,0-17.34-11.51-9-29.56,0,0,10.08-21.77,36.29-7.61L363,104.1"/><path class="b" d="M390.93,146.23s-18.24-5.84-25.67,8.49c0,0-5.66,12,6.2,20,0,0,4.25,1.42,4.25-4.6,0,0,2.83-17.52,8.85-16.64,0,0,1.59.71,1.94,3.54,0,0,0,4.78,2.31,6.91,0,0,8,6.55,1.41,16.46,0,0-9.38,11.33-23.19,3.89,0,0-17.34-11.5-9-29.56,0,0,10.08-21.76,36.29-7.61l-3.37-.88"/><path class="b" d="M287.55,148s-18.22-5.84-25.66,8.5c0,0-5.66,12,6.19,20,0,0,4.26,1.42,4.26-4.6,0,0,2.83-17.52,8.84-16.64,0,0,1.6.71,2,3.54,0,0,0,4.78,2.3,6.9,0,0,8,6.55,1.41,16.46,0,0-9.38,11.33-23.18,3.9,0,0-17.36-11.51-9-29.56,0,0,10.09-21.77,36.28-7.62l-3.37-.88"/><path class="b" d="M314.46,104.81S296.24,99,288.8,113.3c0,0-5.66,12,6.19,20,0,0,4.25,1.42,4.25-4.6,0,0,2.83-17.52,8.85-16.64,0,0,1.59.71,1.95,3.54,0,0,0,4.78,2.3,6.9,0,0,8,6.55,1.41,16.46,0,0-9.38,11.33-23.18,3.9,0,0-17.35-11.51-9-29.56,0,0,10.09-21.77,36.29-7.61l-3.37-.88"/><path class="b" d="M313.76,190.12s-18.23-5.84-25.67,8.5c0,0-5.66,12,6.2,20,0,0,4.25,1.41,4.25-4.6,0,0,2.83-17.53,8.85-16.64,0,0,1.59.71,1.95,3.54,0,0,0,4.78,2.3,6.9,0,0,8,6.55,1.41,16.47,0,0-9.38,11.32-23.19,3.89,0,0-17.34-11.5-9-29.56,0,0,10.08-21.77,36.29-7.61l-3.37-.89"/><path class="b" d="M367.57,190.48s-18.24-5.84-25.67,8.49c0,0-5.66,12,6.19,20,0,0,4.26,1.42,4.26-4.6,0,0,2.83-17.52,8.84-16.64,0,0,1.6.71,2,3.55,0,0,0,4.77,2.3,6.9,0,0,8,6.55,1.41,16.46,0,0-9.38,11.33-23.18,3.89,0,0-17.35-11.5-9-29.56,0,0,10.08-21.76,36.28-7.61l-3.36-.88"/><polyline class="b" points="315.52 234.55 323.68 224.29 328.28 224.64 335 234.55 328.98 246.24 324.02 245.88 315.52 234.55"/></svg>