<svg xmlns="http://www.w3.org/2000/svg" height="480" width="640" viewBox="0 0 640 480"><defs><style>.a{fill:#003c6e;}.b{fill:#007846;}.c{fill:#ffdc14;stroke:#007846;stroke-width:2.73px;}</style></defs><title>SADC</title><rect class="a" width="640" height="480"/><circle class="b" cx="318" cy="240" r="180"/><path class="c" d="M302.55,147.57V332.46h39c27.77,0,50.6-17.94,50.6-55.07V202.63c0-37.12-22.83-55.06-50.6-55.06h-39ZM321,165.23h20.58c20.47,0,32.2,17.23,32.2,37.4v74.77c0,20.17-11.72,37.41-32.2,37.41H321Z"/><path class="c" d="M265.6,174.1l-70.54,185h16.51l35.74-90.2h55.46l35.75,90.2h16.53l-70.53-185Zm9.46,24.8L295.8,251.2H254.33l20.74-52.31Z"/><path class="c" d="M238.15,120.92c-15.28.07-31.2,6.83-39.41,20.07-5.72,9.45-9.53,20.88-8.12,32,2,14.13,12.78,24.89,23.75,33,16,12.16,34.85,20.31,49.73,34,6.55,6.08,11.6,15.1,8.81,24.32-2.11,10.53-10.09,19.58-20.53,22.31a44.56,44.56,0,0,1-12.74,1.57L232.8,305.5c15.54,1.73,33-1.45,44.13-13.18,9.2-9.6,13.88-23.17,13.55-36.38-.89-13.05-9.87-23.9-19.75-31.75-16.52-13.52-37.08-21.69-53-36-6.59-6-12.09-14.84-10-24.08,1.74-11.16,9.81-21.26,21-24,13.56-3.46,30.79-1.58,39.4,10.74a32.52,32.52,0,0,1,5.66,17.05h16.91c-.74-17.58-10.15-35.72-27-42.64-8-3.51-16.79-4.49-25.43-4.34Zm-47.89,138c.68,17.45,10.1,35.56,26.77,42.53l6.34-16.64c-9.94-4.48-15.82-15.26-16.17-25.89H190.27Z"/><path class="c" d="M399.34,121c-12.45,0-25.36,5-33,15.07-8.39,10.65-11,24.67-10.35,38.06.07,29.72-.14,59.45.11,89.17,1.06,11.72,5.43,23.68,14.17,31.84,5-11.91,2.84-25.11,3.4-37.57.08-31.69-.16-63.4.12-95.08.73-9,5.84-18.19,14.57-21.55s19.22-3.12,27.6,1.26c8.18,4.56,12.17,14.38,12.08,23.42,5.88,0,11.83,0,17.66,0-.63-16.41-8.73-33.82-24.49-40.61-6.84-3.1-14.43-4.06-21.89-4ZM428,261.27c.43,11.61-7,23.84-18.89,26.07-5.52,2.36-14.09-.8-17.81.91.79,5.23-5.48,13.46-2.75,16.37,16.88,3.65,37.12,0,47.65-14.84,6-8.24,9-18.4,9.49-28.51H428Z"/></svg>
