<svg xmlns="http://www.w3.org/2000/svg" height="480" width="640" viewBox="0 0 640 480"><defs><style>.cls-1{fill:#012a87;}.cls-2{fill:#dc171d;}.cls-3{fill:#fff;}.cls-4{fill:#ff0;}.cls-5,.cls-8{fill:#f9d90f;}.cls-11,.cls-5,.cls-7,.cls-9{stroke:#000;}.cls-11,.cls-5,.cls-9{stroke-width:0.27px;}.cls-6{fill:#62afe1;}.cls-7,.cls-9{fill:none;}.cls-7{stroke-width:1.16px;}.cls-10{fill:#7e7e7e;}.cls-11{fill:#f9b60f;}.cls-12{fill:#bc715f;}.cls-13{fill:#008830;}</style></defs><title>Sint_Maarten</title><g id="Layer_2" data-name="Layer 2"><g id="Sint_Maarten"><path class="cls-1" d="M0,0H640V480H0Z"/><path class="cls-2" d="M0,0H640V240H0Z"/><path class="cls-3" d="M0,0V480L320,240Z"/><path class="cls-4" d="M161.62,181.14l.1-3.72a6.22,6.22,0,0,1,.32-6.59s-4.92-2.6-3.78-6.68a5.7,5.7,0,0,1-4.12-6s-4.8-.33-5.3-4.42c0,0-4.8.79-6.91-3.19,0,0-4.68.91-6-2.37,0,0-4.55,1.58-7.26-2.28,0,0-4.81,1.94-6.82-1.7-2,3.63-6.8,1.7-6.8,1.7-2.67,3.84-7.26,2.25-7.26,2.25-1.27,3.3-5.94,2.36-5.94,2.36-2.11,4-6.9,3.19-6.9,3.19-.47,4.07-5.27,4.41-5.27,4.41a5.6,5.6,0,0,1-4.06,6c1.17,4.07-3.74,6.67-3.74,6.67a6.16,6.16,0,0,1,.4,6.59l-.11,3.43,79.47.37"/><path class="cls-5" d="M161.62,181.14l.1-3.72a6.22,6.22,0,0,1,.32-6.59s-4.92-2.6-3.78-6.68a5.7,5.7,0,0,1-4.12-6s-4.8-.33-5.3-4.42c0,0-4.8.79-6.92-3.19,0,0-4.69.91-6-2.37,0,0-4.55,1.58-7.25-2.28,0,0-4.81,1.94-6.82-1.7-2,3.63-6.8,1.7-6.8,1.7-2.67,3.85-7.26,2.25-7.26,2.25-1.28,3.3-5.95,2.36-5.95,2.36-2.11,4-6.9,3.19-6.9,3.19-.47,4.08-5.27,4.41-5.27,4.41a5.6,5.6,0,0,1-4.06,6c1.17,4.07-3.74,6.67-3.74,6.67a6.16,6.16,0,0,1,.4,6.59l-.11,3.43,79.47.37h0Z"/><path class="cls-2" d="M159.76,176.5c-12.48-1.25-26.86-4.21-38,2-7.44-4.38-17.79-4.12-26.61-3.26-4.79.86-10.42.86-15.42,1.67l-.79.11c-9.08.6-17.32-2.08-25.21-5.61,2.51,14.22,5.29,28.79,6.65,43.68,3,22-10.43,40.56-4.93,62.34,3.28,10.45,14.78,16.53,25.3,17.73a201,201,0,0,1,30.15,4.32,30,30,0,0,1,5.16,1.74,18.48,18.48,0,0,1,6.17,4.39c5.69-5.93,14-7.58,22.26-8.44,14.83-1.73,33.12-.79,42.2-14.23v-.76c4.93-7.43,4.28-18.76,2.14-27.18-.14-2.94-.93-5.53-1.35-8.33-9.06-23.93-1.3-50.84,2.6-75-4.76,2.6-10.08,3.83-15.37,5.13a73.17,73.17,0,0,1-13.21.08l-1.77-.48"/><path class="cls-6" d="M178.41,245.16c-.06,1.58.79,2.81,1.1,4.27,1.73,10.46,3.41,24.31-7.36,30.8-11.91,7.57-27.53,4.33-41.32,8.34a25.31,25.31,0,0,0-8.49,5.09,30.51,30.51,0,0,0-4.1-2.81c-11.34-6-26.09-4-38.89-7.27-6.43-2-13.14-7-14.77-13.62-4.19-17.27,5.84-32,4.66-49.11a208.87,208.87,0,0,0-6-37.9c10,4.66,21.59,5.44,32.85,3.21,8.33-1.16,18-1.19,25.85,2.34a49.84,49.84,0,0,1,14-3.19c8.82.86,18.3,2.45,27.38,2.39a47.32,47.32,0,0,0,16.85-4.41c-3.13,20.27-9.13,41.5-1.76,61.89"/><path class="cls-3" d="M160.4,249.21l-.1-19.06h2.35l-29.14-18.82-.05-9.78h2.81L121.7,191.11l-14.5,10.43H110l.05,9.77-29,18.79H83.4l.1,19,76.9.05"/><path class="cls-7" d="M160.4,249.21l-.1-19.06h2.35l-29.14-18.82-.05-9.78h2.82L121.7,191.12l-14.5,10.43H110l.05,9.77-29,18.79H83.4l.1,19,76.9.05v0Z"/><path class="cls-3" d="M169.36,274.25v6l-93.87-.1,0-5.94,93.91.08"/><path class="cls-7" d="M169.36,274.24v6l-93.87-.1,0-5.94,93.91.08h0Z"/><path class="cls-3" d="M81.72,273.88l-.08-20.19h3.8l-.21,20.42.23-20.26L80,253.7v-4.33l83.9.09,0,4.29h-5.17l.1,20.44-.18-20.44h3.85l.09,20.21"/><path class="cls-7" d="M81.73,273.89l-.08-20.19h3.8l-.21,20.42.23-20.26L80,253.7v-4.33l83.9.09,0,4.29h-5.17l.1,20.44-.18-20.44h3.85l.09,20.21m-62.84-5-.06-14.08H88.44l.06,14.06H99.76m0,0-.06-14.08H88.43l.06,14.06H99.76m0,0-.06-14.08H88.43l.06,14.06H99.76m0,0-.06-14.08H88.43l.06,14.06H99.76m0,0-.06-14.08H88.43l.06,14.06H99.76M91.5,257.77l0,8.18h5.16l0-8.18H91.5M154.83,269l-.06-14.06H143.53l.05,14.08h11.24m-8.26-11.13.06,8.15h5.15l0-8.15h-5.16M154.74,246,154.68,232H143.43l0,14.08h11.27Zm-8.26-11.11,0,8.16h5.15v-8.16h-5.17M99.67,246l-.08-14.05H88.35L88.4,246H99.67Zm-8.26-11.11,0,8.15H96.6l0-8.16H91.42M120.06,246,120,232H108.75l0,14.06h11.26m-8.25-11.12,0,8.15,5.16,0,0-8.18h-5.15m24,11.15L135.69,232H124.45L124.5,246l11.27,0m-8.26-11.14,0,8.18h5.16l0-8.18h-5.17"/><path class="cls-3" d="M138.56,241.72l.12,32.45-32.6-.05L106,241.69l32.59,0"/><path class="cls-7" d="M138.56,241.72l.12,32.45-32.6-.05L106,241.69l32.59,0ZM105.77,251l32.82,0m-32.82,0,32.82,0m-32.82,0,32.82,0m-32.82,0,32.82,0m-32.82,0,32.82,0m-28.73,23.15-.11-22.93m25,22.95-.11-22.92m15.85-23.35-18.36-13.4-20.63,0L93.26,227.84l57.2.05m-37.39-24.53,0,8.17h17.35l0-8.18H113.06m0,0,0,8.17h17.35l0-8.18H113.06"/><path class="cls-7" d="M113.06,203.37l0,8.17h17.35l0-8.18H113.06"/><path class="cls-7" d="M117.76,205.4l0,4.07h8l0-4.07h-8m3.94-11.33,9.65,6.82-19.23,0,9.58-6.8m0,0,9.65,6.82-19.23,0,9.58-6.8m0,0,9.65,6.82-19.23,0,9.58-6.8m0,0,9.65,6.82-19.23,0,9.58-6.8m0,0,9.65,6.82-19.23,0,9.58-6.8"/><path class="cls-3" d="M160.72,189.44c2.74-.07,3.45,11.29,3.45,16.91a25.51,25.51,0,0,1,9.88,6.91l-26.48,0a25.48,25.48,0,0,1,9.79-6.89c0-5.63.58-17,3.35-16.91"/><path class="cls-7" d="M160.72,189.44c2.74-.06,3.45,11.29,3.46,16.91a25.49,25.49,0,0,1,9.89,6.91l-26.48,0a25.49,25.49,0,0,1,9.79-6.89c0-5.63.58-17,3.35-16.91m-53.23,53.2h2.38l-.69,1.27m-1.68-1.27h2.38l-.69,1.27m-1.68-1.27h2.38l-.69,1.27m-1.68-1.27h2.38l-.69,1.27m-1.68-1.27h2.38l-.69,1.27a2.75,2.75,0,0,1,0,3.16l.62,1.17h-2.29l.62-1.11s-1.17-2,.05-3.22l-.71-1.27m4.84,0h2.38l-.69,1.27a2.72,2.72,0,0,1,0,3.16l.61,1.17h-2.28l.61-1.11s-1.14-2,.06-3.22l-.7-1.27m5.28,0H120l-.71,1.27a2.73,2.73,0,0,1,0,3.16l.62,1.2-2.27,0,.61-1.11s-1.16-1.94,0-3.22l-.69-1.27h0Zm6,0H126l-.7,1.29a2.7,2.7,0,0,1,0,3.14l.64,1.19h-2.3l.61-1.11s-1.14-2,.08-3.22l-.72-1.29h0Zm5.3,0h2.37l-.7,1.29a2.68,2.68,0,0,1,0,3.13l.63,1.2H128.9l.6-1.11s-1.15-2,.09-3.22l-.71-1.29m5.27,0h2.37l-.7,1.29a2.67,2.67,0,0,1,0,3.14l.59,1.19h-2.29l.61-1.11s-1.14-2,.08-3.22l-.7-1.28"/><path class="cls-8" d="M122.42,315.76c12.21,0,27.22-2.45,34.25-6.09l15.45-1.37.31,18.84c-13.08,7.21-43.3,8.76-49.94,8.71s-37.24-1.52-50.38-8.76l.17-18.86,15.48,1.4c7,3.62,22.51,6.13,34.7,6.13h0"/><path class="cls-9" d="M122.42,315.76c12.21,0,27.22-2.45,34.25-6.09l15.45-1.37.31,18.84c-13.08,7.21-43.3,8.76-49.94,8.71s-37.24-1.52-50.38-8.76l.17-18.86,15.48,1.39c7,3.62,22.5,6.13,34.7,6.13h0"/><path class="cls-8" d="M32.34,235.38l13.61,4.33-4.12,22-12.88,2s-2.17-11.58,3.39-28.37"/><path class="cls-9" d="M32.34,235.38l13.61,4.33-4.12,22-12.88,2s-2.17-11.58,3.39-28.37h0Z"/><path class="cls-10" d="M41.82,261.5l-12.87,2.24,8.15-11.58,4.73,9.34"/><path class="cls-11" d="M41.83,261.5,29,263.74l8.14-11.58,4.73,9.34"/><path class="cls-8" d="M24.2,251.25l13.12.95C37.61,263.31,39,305.72,89.61,308L88,323.45c-61.65.64-66.34-52-63.83-72.2"/><path class="cls-9" d="M24.2,251.25l13.12.95C37.61,263.31,39,305.72,89.61,308L88,323.45c-61.65.64-66.34-52-63.83-72.2Zm48.14,75.36,15.46-3.37m-15.46,3.37,15.46-3.37m-15.46,3.37,15.46-3.37m-15.46,3.37,15.46-3.37m-15.46,3.37,15.46-3.37"/><path class="cls-4" d="M211.42,235.53l-13.56,4.29,4.3,22,12.91,2.07s2.07-11.58-3.65-28.37"/><path class="cls-5" d="M211.42,235.53l-13.56,4.29,4.3,22,12.91,2.07s2.07-11.58-3.65-28.37h0Z"/><path class="cls-10" d="M202.17,261.59l12.91,2.31-8.26-11.59-4.65,9.27"/><path class="cls-11" d="M202.17,261.59l12.91,2.32-8.26-11.59-4.65,9.27"/><path class="cls-8" d="M219.71,251.42l-13.14.9c-.19,11.1-1.16,53.53-51.81,55.78l1.72,15.42c61.64.71,65.88-51.92,63.22-72.1"/><path class="cls-9" d="M219.71,251.42l-13.14.9c-.19,11.1-1.16,53.53-51.81,55.78l1.72,15.42c61.64.71,65.88-51.92,63.22-72.1h0Zm-47.5,75.27-15.5-3.4"/><path class="cls-1" d="M114.22,325a2.3,2.3,0,0,1-1.36.26l-2.45-.13.21-3.05,2.43.13a2.53,2.53,0,0,1,1.09.27,1.58,1.58,0,0,1,.07,2.52m-4.11,4.81.24-3.72,2.85.2A2.45,2.45,0,0,0,116,324a2.35,2.35,0,0,0-.61-1.92,3,3,0,0,0-1.9-.78l-4.07-.25-.56,8.76,1.21.08m8.88-7.32,3,0m-3,0,3,0m-3,0,3,0m-3,0,3,0m-3,0,3,0a3.15,3.15,0,0,1,1,.21,1.27,1.27,0,0,1,.67,1.27,1.38,1.38,0,0,1-.5,1.22,2.44,2.44,0,0,1-1.34.31l-2.87,0,0-3m0,7.77,0-3.74,2.8,0a2.65,2.65,0,0,1,1.12.16,1.18,1.18,0,0,1,.63,1.14l.07,1.47c0,.35,0,.57,0,.71a1.89,1.89,0,0,0,.11.29h1.5l0-.19a.76.76,0,0,1-.37-.54,3.17,3.17,0,0,1-.09-.75l0-1.17a1.64,1.64,0,0,0-.31-1.1,1.57,1.57,0,0,0-.79-.57,2.7,2.7,0,0,0,1-.79,2.46,2.46,0,0,0,.33-1.32,2.05,2.05,0,0,0-1.25-2.07,4.38,4.38,0,0,0-1.71-.32l-4.21,0,0,8.79h1.21m9.34-1.86a4.18,4.18,0,0,1-.89-2.44,3.77,3.77,0,0,1,.73-2.77,2.92,2.92,0,0,1,2.24-1.06,2.88,2.88,0,0,1,2.32.86,3.59,3.59,0,0,1,1,2.43,4.72,4.72,0,0,1-.59,2.62,2.48,2.48,0,0,1-2.28,1.24,2.87,2.87,0,0,1-2.53-.87m-1.44-5.53a5.58,5.58,0,0,0,.52,6.31,4.31,4.31,0,0,0,3.36,1.15,4.17,4.17,0,0,0,3.36-1.66,5.4,5.4,0,0,0,.84-3.36,4.73,4.73,0,0,0-1.08-2.9,4.21,4.21,0,0,0-3.64-1.34,4,4,0,0,0-3.38,1.8m41.32-12.64a4.46,4.46,0,0,1,2.24.12,3.21,3.21,0,0,1,2.05,2.15l-1.21.17a2.28,2.28,0,0,0-1.14-1.24,3.34,3.34,0,0,0-1.81-.16,2.82,2.82,0,0,0-1.95,1.19,3.92,3.92,0,0,0-.39,2.85,4.17,4.17,0,0,0,1.14,2.4,2.69,2.69,0,0,0,2.44.63,3,3,0,0,0,1.89-1,2.76,2.76,0,0,0,.45-2.33l-2.82.43-.14-1,3.93-.6.77,4.65-.78.12-.48-1.07a4.52,4.52,0,0,1-.94,1.07,4.57,4.57,0,0,1-4.86.15,5.54,5.54,0,0,1-1.18-6.9,3.84,3.84,0,0,1,2.8-1.67m8.88-.67,2.81-1a2.16,2.16,0,0,1,1-.16,1.25,1.25,0,0,1,1.11,1,1.37,1.37,0,0,1,0,1.3,2.39,2.39,0,0,1-1.17.78l-2.64.95L177,309.59m2.81,7.27-1.37-3.53,2.62-.94a3,3,0,0,1,1.09-.22,1.31,1.31,0,0,1,1.05.87l.6,1.34a2.18,2.18,0,0,0,.32.63.79.79,0,0,0,.19.27l1.42-.52-.08-.19a.68.68,0,0,1-.56-.35c-.11-.16-.22-.4-.37-.67l-.46-1.1a2.2,2.2,0,0,0-.67-.95,2.25,2.25,0,0,0-.94-.26,2.32,2.32,0,0,0,.58-1.06,2.34,2.34,0,0,0-.14-1.34,2.15,2.15,0,0,0-1.95-1.51,4.24,4.24,0,0,0-1.7.29l-4,1.41,3.19,8.27,1.16-.43m10.28-4.38-5-7.32,5.51-3.51.61.88-4.51,2.88,1.54,2.24,4.17-2.68.57.86-4.17,2.68,1.7,2.47,4.59-2.94.61.86-5.61,3.58m4.39-12.94,1.44-1.58a2.49,2.49,0,0,1,2.15-.93,4.27,4.27,0,0,1,2.39,1.2,4,4,0,0,1,.64.66,4.31,4.31,0,0,1,.72,1.31,2.38,2.38,0,0,1-.09,1.46,3.62,3.62,0,0,1-.6.82l-1.44,1.57-5.2-4.52m7.6,3.45a3.19,3.19,0,0,0,.65-3.7,6.26,6.26,0,0,0-1.61-2.09,4.85,4.85,0,0,0-2.9-1.31,3.42,3.42,0,0,0-2.91,1.23l-2.45,2.63,6.76,5.9L202.1,303m5.24-6.84-7.79-4.57.64-1,7.8,4.55-.64,1m3-5.32L202,287.5l2.48-5.91,1,.39-2,4.87,2.53,1,1.89-4.49,1,.4L207,288.24l2.83,1.15,2.07-4.93,1,.38-2.53,6m3.87-10.32-8.84-2,.29-1.37,8.17-2.76-7.18-1.58.26-1.07,8.84,1.9-.28,1.33-8.18,2.82,7.18,1.55-.26,1.14m-.71-11.23.11-1.11a2.53,2.53,0,0,0,1.27-.24,2.34,2.34,0,0,0,1.11-2,3.38,3.38,0,0,0-.09-1.24,1.41,1.41,0,0,0-1.26-1.21,1.24,1.24,0,0,0-1.1.34,4.28,4.28,0,0,0-.65,1.38l-.41,1.16a4.92,4.92,0,0,1-.76,1.58,1.87,1.87,0,0,1-1.76.69,2.63,2.63,0,0,1-1.92-1,3,3,0,0,1-.55-2.36,3.88,3.88,0,0,1,.92-2.29,2.51,2.51,0,0,1,2.26-.73l-.09,1.11a2,2,0,0,0-1.15.28,2.07,2.07,0,0,0-.88,1.75,2.13,2.13,0,0,0,.3,1.57,1.53,1.53,0,0,0,1,.54,1,1,0,0,0,1-.43,6.87,6.87,0,0,0,.65-1.53l.4-1.22a3.85,3.85,0,0,1,.71-1.3,2.3,2.3,0,0,1,1.94-.67,2.35,2.35,0,0,1,2,1.26,4.75,4.75,0,0,1,.41,2.52,3.63,3.63,0,0,1-1.1,2.47,3,3,0,0,1-2.41.69m-183.35-.54.2,1.1a2.48,2.48,0,0,0-1.17.55,2.27,2.27,0,0,0-.52,2.2,3.74,3.74,0,0,0,.42,1.16,1.43,1.43,0,0,0,1.55.83,1.13,1.13,0,0,0,.94-.61,4.55,4.55,0,0,0,.28-1.5l.06-1.24a4.84,4.84,0,0,1,.29-1.7,1.88,1.88,0,0,1,1.53-1.1,2.62,2.62,0,0,1,2.12.5,3.07,3.07,0,0,1,1.17,2.14,3.65,3.65,0,0,1-.25,2.43,2.52,2.52,0,0,1-2,1.32l-.2-1.11a2.85,2.85,0,0,0,1-.56,2.21,2.21,0,0,0,.36-1.94,1.91,1.91,0,0,0-.73-1.39,1.4,1.4,0,0,0-1.11-.31,1,1,0,0,0-.86.7,8.73,8.73,0,0,0-.21,1.64l-.06,1.28a3.25,3.25,0,0,1-.33,1.44,2.1,2.1,0,0,1-1.66,1.14,2.32,2.32,0,0,1-2.32-.7,4.6,4.6,0,0,1-1.09-2.31,3.59,3.59,0,0,1,.39-2.67,2.83,2.83,0,0,1,2.13-1.26m-.55,11.58,8.65-2.6,2,6.09-1.06.33-1.65-5L35,280l1.53,4.62-1,.32L34,280.28l-2.93.87,1.67,5.12-1,.3-2-6.2m3.83,10.56,8-4.22.85,1.48L36.83,294l8-1.37.82,1.47-7.94,4.19-.56-1,4.68-2.46.81-.44c.37-.17.79-.4,1.21-.62l-8,1.35-.58-1,5.43-5.76-.26.13-.86.47a6.45,6.45,0,0,1-.88.47l-4.67,2.51-.58-1m14.83,11.73a2.38,2.38,0,0,1-1.18-.72l-1.68-1.73,2.26-2.07,1.7,1.73a2.84,2.84,0,0,1,.65.9,1.33,1.33,0,0,1-.48,1.43,1.4,1.4,0,0,1-1.27.46m-6.39.81,2.77-2.55,2,2a2.64,2.64,0,0,0,2,.93,2.77,2.77,0,0,0,1.81-.79,2.37,2.37,0,0,0,.87-1.8,2.64,2.64,0,0,0-.84-1.8l-2.83-2.88-6.58,6,.85.86m7.95,7.06L54.63,303l5.64,3.43-.59.89L55,304.58l-1.43,2.26,4.26,2.58-.55.86-4.27-2.57-1.62,2.53,4.69,2.82-.56.88-5.7-3.43M64,309.07l2.87.91a2.34,2.34,0,0,1,.9.46,1.27,1.27,0,0,1,.25,1.44,1.43,1.43,0,0,1-.86,1,3,3,0,0,1-1.39-.11l-2.7-.86.95-2.85m-2.47,7.35,1.19-3.56,2.67.87a2.26,2.26,0,0,1,1,.47,1.16,1.16,0,0,1,.26,1.28l-.4,1.42c-.09.35-.14.58-.18.68a1.47,1.47,0,0,0,0,.31l1.41.46.09-.2a.72.72,0,0,1-.23-.6,6.63,6.63,0,0,1,.17-.73l.34-1.14a1.75,1.75,0,0,0,.06-1.14,1.79,1.79,0,0,0-.58-.78,2.66,2.66,0,0,0,1.16-.46,2.41,2.41,0,0,0,.73-1.16,2,2,0,0,0-.57-2.34,4.81,4.81,0,0,0-1.52-.83l-4-1.24-2.8,8.34,1.17.36"/><path class="cls-12" d="M73.65,164.65c1-2.49,10.61-9.29,42-6.31,0,0,5.31,3.24,8.43,2.83,1.78-.23-1,.11-3.37-1.82s-2.87-5.89,2.54-5.78,25.54,1.28,25.92,3.09-10.66,2.6-14.75,2.49-3.64,2,.46,1.81c12.79-.46,26.76-5,41.51,5.47,1.76,1.27-4.45,1.47-9.25-.57,0,0-13,.68-18.64-.25a15.81,15.81,0,0,1-10,3.17c.73,1.82-2.08,8.63-19.79,3.51-2.92.9-13.58,2.68-12.42-.48-2.81,0-7.73.9-8.46-.69s8.66-3.95,10.3-5.64c0,0-19.82.19-23.57-1.18,0,0-11.69,2.62-11,.35"/><path class="cls-13" d="M80,192.39c.43-.58.6-1.61,1.5-1.58,2,.52,3.3,4.11,5.71,1.78.86-.19,1.18,1,1.89,1.11.45,2,2.05-.41,3.25-.27a15.12,15.12,0,0,1,8.75-.84c.09,2-1.44,4.11-3.36,5.23,0,2,1.83,3.23,1.79,5.21-.31.74-.05,1.9-1.17,2.14a10,10,0,0,1-4-1.19c-.14-.15-.26-.43-.56-.33-.14.66.89,1.32,1.29,2-.71,1.22-1.9.1-2.89.12-.3.7,0,1.58-.73,2-1.26,0-1.51-1.4-2.28-2.09-.79.86.55,1.37.75,2-.48,2.58-.42,5.09-3,6.78l-1.73.86c-.47-1.3-.17-3.26-.49-4.61a19.59,19.59,0,0,1-3.32,4.52c-1.75-.58-2.77-2.64-3.16-4.36a5.44,5.44,0,0,1,1.26-5.83c-.54-1-2.38-.81-2.64-2.3-2.75-1.79-4.28,3.14-6.06.58a8.07,8.07,0,0,1,1.85-7.16c-.38-1-1.67-.73-2.43-1.29-1.73-1.47-4.23-3-4.11-5.69A13.17,13.17,0,0,1,80,192.39"/><path class="cls-8" d="M82.46,192.12c-.11,2.17,1.47.59,2.63,1.9-.91-.36-1.58,1.58-2.48.47l-.56.54c.33.74,1,.84.3,1.66-1,.37-1.18-.86-1.64-1.34-.08-.21.15-.62-.21-.76a2.36,2.36,0,0,1-1.9.56c-.21-.42-.61-1-.2-1.29.75-1,1.92.36,2.49-.35.09-.63-.46-1.39.25-1.83.49.09,1.12-.18,1.32.43m5.86,1.78c.06.42-.22,1,.33,1.3a1.37,1.37,0,0,1,1.88.62c0,.38.11.88-.38,1.06L89,196.67c.08-.22-.28-.35-.41-.57-.49-.15-.78.25-1.14.49.28.42.91.65.76,1.18-.65.65-1-.56-1.69-.26-.49-.19.18-1.21-.6-1.51-.92,0-.31,1.5-1.48.91-.42-.47-.83-1.11-.38-1.64a1.49,1.49,0,0,1,1.74.18c.71-.79.79-3.84,2.49-1.57M81,197.06c.48.69-.1,1.62.5,2.39,1-1.78,1.88.39,3,.22.35.43.12,1,.18,1.5-1.4.37-3.1.82-4.34-.31l-.35.4c.74.69,1.44,1.47.85,2.62-1.05.23-2.68.26-3.21-.83-.28-.9.64-1.54-.33-2.26-.7.87-.67,2-2.13,1.24a1.74,1.74,0,0,1-.72-2.39c.94-1.48,2.59,0,3.61-.68.14-1.28-.33-2.39.84-3.09,1-.18,1.47.57,2.07,1.2"/><path class="cls-3" d="M85,197.83c-.47,2.17-2.11-.11-2.87-.2,1-1.81,1.66.59,2.87.2m5.1,2.36c-1.14.32-1-1.1-1.53-1.66l.44-.4a14.87,14.87,0,0,1,1.09,2.05"/><path class="cls-8" d="M88.56,199.76c.33.75-.74,1.35.17,1.9.29-.24.64-.58.79-.71a3.66,3.66,0,0,1,2.23,1.14c.58,1.6-1,1.56-1.95,2l-.91,0c.22-.44-.39-.63-.54-.94a.86.86,0,0,0-1,.38c.2,1,1.44,1.8.16,2.71-1.08-.07-2.75.35-2.66-1.14-.41-.84,1.1-2.14-.51-2.2-.53,1.14-1.11,2.24-2.49,1.16l.17-1.62c1.32,0,2.89.27,3.48-1.21.38-1.07-.66-2.06.27-2.91,1.35-.31,2.11.6,2.79,1.49"/><path d="M87.59,202.2c.34.8-.58.86-1,1.26a1.53,1.53,0,0,1-1.34-.58c-.26-1,.46-1.07,1-1.46s.92.48,1.33.78"/><path class="cls-3" d="M86.8,202.73c-.14.19-.35.13-.56.18l-.2-1c.43,0,1,.18.76.79"/></g></g></svg>