<svg xmlns="http://www.w3.org/2000/svg" height="480" width="640" viewBox="0 0 640 480"><defs><style>.cls-1{fill:#fff;}.cls-2{fill:#006;}.cls-3{fill:#bd1021;}.cls-4{fill:#ffc221;}.cls-5{fill:#5a3719;}.cls-6{fill:#7b3c20;}.cls-7{fill:#aa5323;}.cls-8{fill:#999;}</style></defs><title>American_Samoa</title><g id="Layer_2" data-name="Layer 2"><g id="American_Samoa"><rect class="cls-1" width="640" height="480"/><rect class="cls-2" y="76.99" width="640" height="320"/><path class="cls-3" d="M0,237,640,77V397Z"/><path class="cls-1" d="M68.57,237,640,94.14V379.85"/><path d="M490.54,254.87c4.27.33,4.12,4.56,4.12,4.56l15.11.34c1.93-5.27,3.94-4.66,7.61-2.06a27.42,27.42,0,0,0,7.29,3.57c1.46-7.56,12.18-6,12.18-6,4.57-10.91,5-10.77,2.24-12.15a9,9,0,0,1-3.83-3.72A21.36,21.36,0,0,1,531,229c-.29-2.77-3.5,1.38-4.08.51s-5.35-.36-5.35-.36c1.17,1.24-2.82.51-2.82.51.39.29,0,1.46,0,1.46-.39-.51-3.4-1-3.4-1a6.25,6.25,0,0,1-1,1.38,14.73,14.73,0,0,0-5-.58,16.74,16.74,0,0,0-9.14,2.26,48.93,48.93,0,0,0-10.21,7.13c-4,3.86-6.22,3.42-6.22,3.42-1.17,4.29-10.69,9.53-10.69,9.53-1.56,1.38-6.32,2-8.75,0s0-5.68,0-5.68c.9-1.7,1.79-1.63,1.89-7.53.07-4,4.19-7.16,8.42-11.79,5.17-5.67,12.4-15,12.4-15,0,2.87,1.6,3.33,1.6,3.33a27.24,27.24,0,0,1,3.46-5.27,1.06,1.06,0,0,0,.4.41,21.35,21.35,0,0,1,2.59-3.06c-.55-.22-5,0-9.22,3.66s-7.07,2.43-7.07,2.43a4.17,4.17,0,0,1-3.17-3.17c-2.13-9.16,6.23-15.72,6.23-15.72-11.23-2.67-3.14-16.92,10.79-23s13.78-8.79,13.78-8.79a11.07,11.07,0,0,1,1.46,2.56c.15-.11,1.17-1.64,9.19-5.18a59.79,59.79,0,0,0,11.88-6.6,6,6,0,0,1,.8,3.38c21.95-7.69,43.57-25.35,43.57-25.35a8.45,8.45,0,0,1,.29,3.71c3.57-3.3,16.48-11,16.48-11a7.2,7.2,0,0,1-3.83,6.79,7.58,7.58,0,0,1,.69,2c2.11-1.15,12-8,12-8,3.61,3.11.33,8.21.33,8.21a4.16,4.16,0,0,0,2.22-1.31c.91,5.29-5,10-5,10a7.21,7.21,0,0,0,2.73-1c-1.09,5.78-12.07,12.2-12.07,12.2,1.6,1.42.07,3.3-1.24,4.15s-3.65,2.7-2.92,3.47,5.58-2.65,5.58-2.65c.84,2.43-5.4,7.2-5.4,7.2,4.34.57,16.41-4.91,16.41-4.91-1,4.67-5.54,8.3-11.16,10.4s-5.32,2.43-5.32,2.43c1,.79,8.75-1.47,8.75-1.47-2.33,5.21-10.43,8.79-10.43,8.79,2.22,1.88,5.25-.3,8.28-2.37a48.7,48.7,0,0,1,11.7-5.38,12.75,12.75,0,0,1,7.77-.38,9.84,9.84,0,0,1,7,.49c7.29.6,8,3.25,8,3.25.8.19,1.42.52,3.28,1.88s1.75,5.59,1.68,7.67a3.11,3.11,0,0,1-1,2.65,3.6,3.6,0,0,0-.4,2c0,.79-1.82,5.7-13.09,5.76s-17.07,0-17.07,0a5.63,5.63,0,0,0-2,.55c-4.74,2.35-2.24-1.6-7.87,3s-8.51,3.84-8.51,3.84A75.33,75.33,0,0,1,569,213.61c-3.38,2.18-2.77,2,.17,3.26s7.39,0,7.39,0c-2.84,1.89-.87,2.77-.87,2.77,3.74-2.27,6-1.44,6-1.44,1.19,3.26-3.09,8.4-3.09,8.4a32.35,32.35,0,0,0,4.76,0c-.75,2.2-3.86,4.62-6.15,5.37s-1.87,1-1.19,2.42a3.66,3.66,0,0,1,.1,2.78c-4-2.77-4.13-.29-4.13-.29a64,64,0,0,0-.39,8c-2.82-1.42-3,.47-3,.47-.73,3-4.18,6.44-4.18,6.44a2.66,2.66,0,0,0-1.85-2.33,16.12,16.12,0,0,1-5.1,5.53,26.1,26.1,0,0,0,.39,7.17c-2.14-.44-2.92-.4-3.26.11s.49.76.49.76l27.85.69c.39,0,2,.22,2.09,3.24s-2.43,3.17-2.43,3.17l-30.48-.73s.15.84-1.46,1.67-1.07-.95-1.51,2.8-6.51-.29-6.51-.29a20.26,20.26,0,0,1-3.35,3.35c-1.36-4.11-2.77-5.38-5-1.82s3.94,2.95,3.94,2.95,35.78-5.28,37.72-5.46,4.08-.07,5,2.66-4.33,3.17-4.33,3.17l-36.7,4c-.78,2.18-3.84,2-3.84,2,.24,2.07-1.94,3.38-3.06,4.15s-4.62.4-4.62.4c-4.28,2.91-6.37.62-6.37.62-2.77,1.2-4.52.69-6.81-.29s-2.09-3.75-2.09-3.75l-23.16,2.4a5.6,5.6,0,0,0-1.85,1.11c.83,1.06-1.66,3.51-1.66,3.51.69.48,2,1.81,2.21,4.71.19,3.06-3.74,3.57-1.77,5.7s5.56.37,9.57-1.56a20.56,20.56,0,0,1,9.66-1.66,43.66,43.66,0,0,1,9.46,2.26c3,1.05,4,.42,4.19-1.11a2.42,2.42,0,0,1,1.53-2,2.12,2.12,0,0,0,.44,2.17,8,8,0,0,0,3.15-1c-.18,1.11-1.64,1.8-1.64,1.8-2.92,2,1.09,1.23,1.09,1.23,8-1.64,10.83-1.47,12.91-1.26s11.88,4.39,11.88,4.39a11.17,11.17,0,0,0,.11-3.41,6.52,6.52,0,0,1,3.54,2.13c.95-1,.33-2.78.33-2.78,8.09,4.53-1.68,6.58-4.27,7.45s-2.55,1.94-2.55,1.94a21.94,21.94,0,0,1,5.43-1.06,28.94,28.94,0,0,0,5.43-.87c4.27-.85,6.45,1,6.45,1-3.57.19-4.63,1.26-4.63,1.26,2.26,1.56.11,2.87.11,2.87-3.24-4.09-6,.16-6,.16a12.82,12.82,0,0,1,5.3,1.11c.72.45,2.41,1.28,4.5,2.25,3,1.37,2.41.49,4.7,1.36a2.32,2.32,0,0,1,1.42,3.08,5.75,5.75,0,0,0-3.1-2.43,3.2,3.2,0,0,1-2.62,2.84c3-3.33-3.46-4.78-6.49-4.72a9.22,9.22,0,0,0-5.29,2c6.09,5.7,10.32,3.85,10.32,3.85-.77,2.07-5.8,1.26-5.8,1.26,2.33,1.77,2.08,3,2.08,3-1.24-1.2-3.28-.6-7.66-3.44a11.45,11.45,0,0,0-8.28-1.91c4.27,4.56-1.57,7.26-1.57,7.26-2.15,1.23.91,2.89.91,2.89a2.54,2.54,0,0,1-3.06-2.21c-1.42-.27-3.46,1.45-3.46,1.45.15-2.78,3.79-1.39,3.9-4.28s-3.39-5.13-13.71-3.71-13.34-1.88-13.34-1.88a1.15,1.15,0,0,0-1.06.9c1.71,1.64,2.48,2.32,2.19,3.47a1.24,1.24,0,0,0,.55,1.53c-1.9-.11-2-2.37-2-2.37,0,.93-.44,1-1.06,2a2.6,2.6,0,0,0,0,2.24c-.8-.71-2.26-1.56-.87-3.57,1.07-1.56-2.22-3.55-2.22-3.55-1.28-1.31-4.67-.08-4.67-.08a12.36,12.36,0,0,1-11.16-3.06,12,12,0,0,1-2.33-.44c-7.44,3.33-14-3.87-14-3.87-5.61,1.06-8.17-1.64-9.88-4.28s-2-2.87-4.3-4.23-4.37-5.22-2.3-7.26c1.81-1.77,1.28-2.18,1.28-2.18-2.92-4.9,5.2-6.48,5.35-7.66.21-1.71,1.91-2.79,3.73-2.9s1.82.05,3-1.17,3.5.3,3.5.3c.47-.35,4.48-3.47,8.06-1.86a9,9,0,0,0,6.53.46c2.52-.55,23.41-3.38,23.41-3.38,1.35-2,2.3-4.45,8.06-5.76A27.57,27.57,0,0,0,531.85,271c-1-1.09-2.73-1-3.61-1.15a8.88,8.88,0,0,1-2.7-1.66c-1.06.46-1.6.24-9.15,4.83-6.74,4.1-6.94-4-6.94-4l-14.72,0a5.47,5.47,0,0,1-2.62,4.34l-5.36.27c-3-1.58-3-6.85-3-6.85-16.19.25-25.19,6-25.19,6-18.34-9.39-32.7-11.51-32.7-11.51,22.28-2.43,34.05-8.62,34.05-8.62a52.87,52.87,0,0,0,23.84,7.56c.44-4.45,3.43-5.54,3.43-5.54Z"/><path class="cls-4" d="M464.05,291.83c-4.65,2.73-3.81,4.22-3.41,5.06s.46,1.67-.8,2.95-1.14,1.72-1.14,1.72c.19,4.52,3.4,5.49,4.74,6.59a24.8,24.8,0,0,1,3,3.84,7.16,7.16,0,0,0,6.78,3.46c1.87,0,1.7-.16.75-1s-2.77-2.33-2.77-2.33a14.67,14.67,0,0,1,4.89,3.49c4.73,5.18,9.09,4.49,11,4.24s1.58-1.36,1.58-1.36a8,8,0,0,0-2-.33c-7.1-.67-9.24-5.33-9.24-5.33,4.28,4.2,11,5.06,13.05,5s1.94.51,1.51.62a8,8,0,0,1-2-.07c-.95-.07-.95.16-.73.56s1.11.44,2.24.4.22.08,3.15,2.36,10.24.44,10.24.44c-4.72-1.17-5.38-3.3-5.38-3.3-6.42.75-9-3.1-9-3.1A26.88,26.88,0,0,0,486,312.8a7,7,0,0,1-4.19-4.84,10.4,10.4,0,0,0,5.52,3.81,20.29,20.29,0,0,1,3.23,1.06,3.22,3.22,0,0,1-1.91-.22c-2.52-.74-1.09.29-1.09.29,2.77,2.21,3.54,2,3.54,2,7.27.75,3.66-2.16,3.66-2.16,5.18,1.23,6-.71,6-.71,1.08,2.28,5,1.46,5,1.46-5.21,2.51-1.26,1.79-1.26,1.79,5.27-1,6.3.35,6.3.35a3.82,3.82,0,0,0,2.87,1.14,20.07,20.07,0,0,1,3,.43c2,.4,5.07,2.11,8,1.75s3.39.55,3.39.55c-.55-.19-1.82-.38-4.08.63s-6.16,1.34-11.85,0-6.12-1.17-6.12-1.17a7.91,7.91,0,0,1,2.81,3.41,1.4,1.4,0,0,0,1.24,1c.4-1.26,2.11-1.8,2.11-1.8a21.72,21.72,0,0,0,4.12,2.4,1.19,1.19,0,0,0,0-1.16,5.4,5.4,0,0,0,4.74,1.46c.69-.49.47-1.66.47-1.66.87,0,1,.52,1.64.93s2.59.14,2.59.14a3.18,3.18,0,0,1-1.24-1.42c2.88-2,9.11-1.12,9.11-1.12,4.5.79,3.94,3.74,3.94,3.74a9.31,9.31,0,0,1,2.11,1.8,3.51,3.51,0,0,0,0-2.09,5,5,0,0,1,2.5,3.38c2.39-2.73-2.28-5.8-2.28-5.8a25.08,25.08,0,0,1,6.27.14,11.63,11.63,0,0,1,5.45,2.48,13.77,13.77,0,0,0,4.94,2.16c-.1-.61-1.79-1.64-2.17-1.86a1.46,1.46,0,0,1-.55-.75,9.66,9.66,0,0,0,2.62.14c-5.45-3.33-6.82-4.91-6.82-4.91a3.74,3.74,0,0,0,3.17-1c-4.3.1-4.45-1-4.45-1a11.14,11.14,0,0,0,5,.12,22.33,22.33,0,0,1,6.14,0c-1.86-3-9.06-2.48-11.36-2.36a9.77,9.77,0,0,1-3.19-.18,4.18,4.18,0,0,1,2.55-.57c1.8,0,3.57.14,5.61-1.27a7.45,7.45,0,0,1,4.84-.94c-.68-1.35-3.91-1.82-6.76,0a7.68,7.68,0,0,1-5.42,1.24c4.5-.64,5.81-2.22,5.81-2.22-1.36-.33-2.11.11-4.81.64s-3.43-.4-3.43-.4a30.11,30.11,0,0,1,5-2.47,25.75,25.75,0,0,1-4.86-1.61c-2.62,2.47-4.67,3.86-9.7,1.22s-7.66-2.33-7.66-2.33c4.42-2.62,9-1.49,12.27.49s4.25.36,4.25.36c-1-.65-.9-1.22-.9-1.22,8,4.09,11.5,1.55,13.27.35s-.8-2.8-.8-2.8c-.17,2.6-3.45,3.78-6,2.91s-5-2-8.66-3.53-8.35-.75-12.67.16-4.89.47-5.27.13-.61-1.4-2.82-.49-7.36-1.51-10.57-2.27a19.68,19.68,0,0,0-13,2.15c-4.54,2.49-6.78,1.87-8.14,1.26a2.3,2.3,0,0,1-.75-3.86c1.46-1.53,1.58-1.95,1.46-4.15a5,5,0,0,0-2.28-3.51c2-2.06,2.48-2.51,1.8-3.4s.39-.87,1.53-1.38.63-.58.36-1.26a.86.86,0,0,0-.92-.56,9.07,9.07,0,0,1-4.11-.62c-4.39-2-8.46,1.91-8.46,1.91-2.49-1.91-3.06-.67-3.5-.2a3.94,3.94,0,0,1-2.48.91c-1.06.1-2.67.51-3.22,1.51a1.56,1.56,0,0,0,.12,1.67s.68,1-.56,2.27-1.68,1.54-1.29,2.72a3.2,3.2,0,0,1-.2,2.84,1.93,1.93,0,0,1-.42-1.46,2.88,2.88,0,0,0,0-1.71,6.38,6.38,0,0,0-1.44,2.06s-.51-1.32,1.26-3.1,2.57-2.66,2.08-3.34C465.66,290.83,464.37,291.65,464.05,291.83Z"/><path d="M469.08,311.39s-2.21-1.69-1.94-4,.22-2.64,0-3.13c0,0-.4.23-.39,1.15a6.92,6.92,0,0,1-.19,1.91,15,15,0,0,0-1.6-2.31s.39-2-.24-2.91a1.49,1.49,0,0,0-2-.65c-1,.38-1.76,1.31,1.61,4.07a8.11,8.11,0,0,1,2.13,3.22A4.12,4.12,0,0,0,469.08,311.39Z"/><path d="M480,304.89a7.1,7.1,0,0,1,1-3.67,5.14,5.14,0,0,0,.21-4.67c-.27-.58-.43-.37.77-1.37,1.48-1.24-.57-2.81,1.86-5a16.92,16.92,0,0,0,2-1.94s-2.58,1.38-4.25,2.07-8.09,3.84-6.68,5.95,1.26,2.22,1,3.09c0,0-3.82-2-2.48-5.29a10,10,0,0,1,2.21-2.8c1.46-1.35.58.29,3.55-1.4a12.71,12.71,0,0,0,3.6-3.29,15.28,15.28,0,0,1-2.11,1.15s-3.43.62-4.81,2.07-4.33,4-3.33,6.8a5.13,5.13,0,0,1-4.2-4s-6.34,7.82,7,11.46A30.35,30.35,0,0,0,480,304.89Z"/><path class="cls-4" d="M538.63,278.74c5-.75,33.8-5.11,36.42-5.37,2.87-.29,4-.67,4.91,1.64,1.07,2.62-3.94,2.66-3.94,2.66l-34.37,3.9c-1.69.19-2.06-.45-2.06-.45a12.92,12.92,0,0,0-1.27-1.76S537.87,278.86,538.63,278.74Z"/><path class="cls-5" d="M468.23,294.38s-3.72,7.83,10.9,9.77a6,6,0,0,1,.62-2.1c.58-1.23,1.86-3.71.66-5.32s1-.76,1.31-2.87-.22-1.8.8-3.17c0,0-4.59,1.66-6.34,3.68s2.37,3.55-.07,5.76a6.68,6.68,0,0,1-3.24-2.95A5.7,5.7,0,0,1,468.23,294.38Z"/><path d="M482.52,304s3.61,3.12,7.91,3,6.12-1.28,7.22-3a5.61,5.61,0,0,1,.84,2.2s3.72-3.08,10.14-.41,4.45,1.94,5.87,2.13c0,0-2.73-.49-9,2.37C499.11,313.23,482.38,312.22,482.52,304Z"/><path class="cls-5" d="M476.54,290.18a3.9,3.9,0,0,0,3.24-1.58A6.8,6.8,0,0,0,476.54,290.18Z"/><path class="cls-5" d="M464.28,304.72s-3-2.37-1.08-2.84C463.2,301.88,464.57,301.66,464.28,304.72Z"/><path d="M530,319.57s1.6-2.87,6.23-2.87,5.18,2.13,11,2.54c0,0-7,2-11.88.16A6.91,6.91,0,0,0,530,319.57Z"/><path class="cls-5" d="M484.13,306.08s6.93,4.2,13.09-.35a4.78,4.78,0,0,1,.95,1.61s4.67-4.5,13,.35c0,0-1-.11-5,1.58C501.1,311.49,488.28,312.93,484.13,306.08Z"/><path d="M510.85,310.34a83.16,83.16,0,0,0,12.25.44c3.45-.2,7.18-.84,5.32.33s-.95,1.28,7,.54-.07,1.5,5.4,2.21C540.82,313.86,527.56,320.63,510.85,310.34Z"/><path class="cls-5" d="M528.27,306.11a10.83,10.83,0,0,1,7.51.27c3.61,1.69,3.06,1.83,5.47,2.07,0,0-1.68,2.4-5.65.46S530.58,306.61,528.27,306.11Z"/><path class="cls-5" d="M532.61,318.09a9.88,9.88,0,0,1,8.06.08,14.37,14.37,0,0,0,2.77,1,12.32,12.32,0,0,1-6.56,0A23.51,23.51,0,0,0,532.61,318.09Z"/><path class="cls-5" d="M513.69,311.24s8.53.79,13.16-.13c0,0-5.36,2.59,8.09,1.39,0,0,3-.33,2.62.14s-.58.82.87,1.26C538.45,313.89,528.46,318.36,513.69,311.24Z"/><path d="M471.07,304s.07.65,2,1.5a6.92,6.92,0,0,1,3.32,3.18,4.65,4.65,0,0,0,2.93,2.43s-6.69,1.4-9.69-2.08c0,0-2.27-2.51,1.39-5"/><path class="cls-5" d="M523.72,319.43a26,26,0,0,1-6.27-1.42c-3.61-1.26-4.56-.19-6.6-1.72s-6.16-.57-6.93-.46-3,0-.22-1.77c0,0-2.19-.05-3-1.15,0,0-1,1-4.67.6,0,0,1.64,2.58-5,1.83a9.15,9.15,0,0,0,4.34,2.75,8.57,8.57,0,0,0,4.89-.14s-.44,2,2.62,2.76a25.21,25.21,0,0,1,5.25,2s.22-1.28-3.86-4.26a20.51,20.51,0,0,1,5.32.65C512.74,319.86,519.85,321.69,523.72,319.43Z"/><path class="cls-5" d="M525.37,322.48a2.34,2.34,0,0,0,2.67,1.18c2-.35,5.33-.94,8.54.7,0,0,.55-2.73-5.89-2.92C530.69,321.45,526.66,321.67,525.37,322.48Z"/><path class="cls-5" d="M470.83,305s-2.48,2-.23,4.16c2.05,1.94,5.23,1.76,6.74,1.71a5.76,5.76,0,0,1-1.71-1.72c-.8-1.2-.83-2-2.52-2.78S471.16,305.32,470.83,305Z"/><path class="cls-5" d="M468.23,294.38s-3.72,7.83,10.9,9.77a6,6,0,0,1,.62-2.1c.58-1.23,1.86-3.71.66-5.32s1-.76,1.31-2.87-.22-1.8.8-3.17c0,0-4.59,1.66-6.34,3.68s2.37,3.55-.07,5.76a6.68,6.68,0,0,1-3.24-2.95A5.7,5.7,0,0,1,468.23,294.38Z"/><path d="M506.66,312.44s3.06-.49,10.86,2.43,11,2.18,12.21,2.1c0,0-4.4,2.3-11.22-.7C512.49,313.62,512.09,314.63,506.66,312.44Z"/><path class="cls-4" d="M555.5,310.7a7.66,7.66,0,0,1,2.82.43,4.45,4.45,0,0,1,2.31-.75S559.55,309.3,555.5,310.7Z"/><path class="cls-4" d="M550.16,306.38s1.79-.08,2.32-.94a6.09,6.09,0,0,0-2.27-1.69A6.47,6.47,0,0,1,550.16,306.38Z"/><path class="cls-4" d="M548.57,304.77"/><path class="cls-4" d="M490.21,286.44s-.33-.87,1.53-1.15l26.16-3.74s1.29,0,1.47.85-.15,1.6-6,2.29S492,287.31,492,287.31,490.36,287.58,490.21,286.44Z"/><path class="cls-4" d="M513.92,285.39a4,4,0,0,0,3.5,3.95c3.4.49,4.56-.21,5.47-2,.24-.47,1.28-4.06-.23-4.33a4.81,4.81,0,0,0-2.4.28c-1.17.5-2.26,1.09-1.87,1.67.83,1.26,1,1.55.68,1.64a1.4,1.4,0,0,1-1.63-1c-.21-.64.46-1-1.82-.71C514.69,285,513.92,285,513.92,285.39Z"/><path class="cls-4" d="M528.48,282.75c1.79.21,1.65,4-.49,5.7a5.22,5.22,0,0,1-4.5,1.18c-1.16-.49-1-.33-.12-1.69a5,5,0,0,0,.78-4.24c-.15-.39.27-.7.86-.83A12.18,12.18,0,0,1,528.48,282.75Z"/><path class="cls-4" d="M530,283.08s1.28,1.61-.32,4.57c0,0-.7.87.88.75s5.1-1.82,4.74-4c0,0-.12-.53-1-.47s-.17-.51.22-.62,1.59-.55-1.53-2.56a1.26,1.26,0,0,0-1.12-.27c-.48.15-2.14.83-2.14,1.8A1.55,1.55,0,0,0,530,283.08Z"/><path class="cls-4" d="M533.45,280.36s2.49,1.79,2.48,2.32-.23,1.25.43,1.19,3.35-.64,2.61-2.42a4.19,4.19,0,0,0-2.73-2.85c-1.25-.44-1.57.15-2.64,1C533.6,279.56,532.82,280,533.45,280.36Z"/><path class="cls-4" d="M532.25,278.73"/><path class="cls-4" d="M520,282.88s.41-1.33-1.82-1.82a3.42,3.42,0,0,1,2.84-.36c1.88.42,1.68,1.66,1.67,1.82A8.62,8.62,0,0,0,520,282.88Z"/><path class="cls-4" d="M524.84,282.57a18.7,18.7,0,0,1,3.74-.31,3.82,3.82,0,0,0-4.73-1.88S525.09,281.78,524.84,282.57Z"/><path class="cls-4" d="M529.27,281.86s0-.87,2.2-1.75a3.71,3.71,0,0,0-2.55-.91c-1.7.11-2,.73-2,.73A4.49,4.49,0,0,1,529.27,281.86Z"/><path class="cls-4" d="M530.13,278.88a6.4,6.4,0,0,1,2.21,1.07,6.87,6.87,0,0,1,2.38-1.71A4.46,4.46,0,0,0,530.13,278.88Z"/><path class="cls-5" d="M458.57,272s6-5.09,9.37-4.48,1.68.19,5.36-.38a45.52,45.52,0,0,1,9-.76s-4.45-3.19-12.4-3.14a49.87,49.87,0,0,0-9.48,4.5s-7.44-4.15-15.13-1.66A101.34,101.34,0,0,1,458.57,272Z"/><path class="cls-4" d="M522.42,280.82l1-.17s1.69,2.1.46,2.12c-1,0-.57-.3-.75-.91A2,2,0,0,0,522.42,280.82Z"/><path class="cls-4" d="M514.88,281s-.6.75.53.57a3.76,3.76,0,0,0,2.62-1,2.49,2.49,0,0,1,2.66-.37,4,4,0,0,0,2.64-.1,3.07,3.07,0,0,1,2.1-.48c.64.05.6.19,1.45-.43s2.33-.14,3.26-.92,2.1-.12,0-1.62c0,0-.44-.44-.4-.8a4.16,4.16,0,0,1,1.44.8,2.07,2.07,0,0,0,1.88.3,5.83,5.83,0,0,1,2-3.59c1.86-1.72,1.88-1.86.78-1.87s-2.93-.44-3.55,0-6.07,4-9.24,4.61S516.92,277.61,514.88,281Z"/><path class="cls-4" d="M430.24,261.43s9.73,2.51,11.92,3.57c0,0,.52-1.63-3.9-2.9a55.3,55.3,0,0,1,22.12,4.84s5.48-4.7,23.13-3.25c0,0,0-1.56.16-2.76a54.11,54.11,0,0,1-23.77-7.28S449.71,258.66,430.24,261.43Z"/><path class="cls-5" d="M473.22,270.45"/><path class="cls-4" d="M484.34,266.13c-.68-10,3.14-10.84,3.14-10.84a28.93,28.93,0,0,1,3.74.31s-3,3.58-2.21,10.7c0,0,.32,1.15-2.24,1.15S484.34,266.13,484.34,266.13Z"/><path class="cls-5" d="M486.94,272.71a7.83,7.83,0,0,1-2-4.07s0-.56,1.82-.51,2.12-.18,2.58.91a21.67,21.67,0,0,0,1.92,3.55Z"/><path class="cls-4" d="M490.94,267.75a23.59,23.59,0,0,1-.21-3.78c.12-5.55,1-5.06,1.41-4.36l1.9,0s-1.39-6.26-3-2.6a15.92,15.92,0,0,0-1.29,8.77,15.18,15.18,0,0,0,.51,3.26Z"/><path class="cls-5" d="M512.38,267.76s3.66.56-2,1.9c0,0,.27,6.78,6.91,2a46.19,46.19,0,0,1,6.64-3.52s1.37-.47,1.2-1.5c0,0,.11-1.21-1.31-1a6.21,6.21,0,0,1-1.84-.24s-.78-.92-1.31-.57-1.77.15-.8,1.32,1.26.87,1.73.53,2.57-1.17.64.56-3.45-1-4.06-1.45Z"/><path class="cls-5" d="M494,268.53l-1.63,0s-.87,1.31-1.47-.75l-.69,1.32S492.27,276.35,494,268.53Z"/><path class="cls-4" d="M491.73,260.12s-.83,4.77.22,7.71l17.62.33a73.35,73.35,0,0,1,0-8h-2.5a36.29,36.29,0,0,0,0,6.2h-.41a34.39,34.39,0,0,1,0-6.21h-2.07a39,39,0,0,0-.07,6.24h-.39a35.34,35.34,0,0,1,0-6.24h-2a28.72,28.72,0,0,0,0,6.2h-.49a26.26,26.26,0,0,1,0-6.18h-2.26a20.17,20.17,0,0,0,0,6.22H499a20.79,20.79,0,0,1,0-6.22h-2.26a23.19,23.19,0,0,0-.07,6.22h-.44a26.43,26.43,0,0,1,.12-6.22h-2.11a21.17,21.17,0,0,0-.1,6.22h-.46a27.24,27.24,0,0,1,.1-6.22Z"/><path class="cls-4" d="M510.35,268.82s-.49-8.62,1.17-10.84,2-1.78,4.81,0a73.25,73.25,0,0,0,7,3.93,1.77,1.77,0,0,1,1.41,2c0,1.56.29,2-2.14.07a9.24,9.24,0,0,0-2.32-1.6c-2.18-.69.52.49,1.3,1.6.66.94,1.17.84-.53,1.27S513.51,267.66,510.35,268.82Z"/><path d="M516.52,262.65s-1.28-1.61.35-2,1.75,2.55,2,4.31S516.85,263.2,516.52,262.65Z"/><path d="M514.15,270.16s-1.9.7-.66,1.31,4.74-2.29,3.54-2.1A20.09,20.09,0,0,0,514.15,270.16Z"/><path d="M516.72,267.5s1.68-.16,1.35.56-.93.26-1.18.1S515.44,267.6,516.72,267.5Z"/><path class="cls-4" d="M525.65,265.25s.45,3.28,3.27,4.12c0,0,1.63.4,1.29-1a12.88,12.88,0,0,0-.51-1.7c-.23-.5-1.36-.82-1.48-.87s-.27-.4.51-.15.9.28.84-.26-.52-.33-1.23-.68c-.27-.13,0-.32.32-.25s1,.27,1-.85c0,0,.15-.63-.7-.67s-.86-.47-.57-.53,1.27.62,1.54-.5-1.35-.49-1.13-1.08,1.37.34,1.47-.36,1-1-.56-1.2c-.75-.1-.06-.44.79-.32s1.45-1,2-1.36,3.48-2.13-.46-1.55-5.09,2.49-5.35,2.87A11,11,0,0,0,525.65,265.25Z"/><path class="cls-4" d="M534.82,267.79a1,1,0,0,1,1.16.39c.65,1.33-.84.85-1.66,1.84s-.85.78-2,.44-1.6-2.11-1.6-2.11c-.13-.54.37-.59,1-.52A13.84,13.84,0,0,0,534.82,267.79Z"/><path class="cls-4" d="M530.56,267.08s.08.4.75.45a11.56,11.56,0,0,0,3.76-.15s.43-.08.23-.84c0,0,0-.49-1.05-.29a9.39,9.39,0,0,1-3-.11C530.71,266,530.3,266.16,530.56,267.08Z"/><path class="cls-4" d="M530.4,264.7a1.14,1.14,0,0,0,1,1.17,11.45,11.45,0,0,0,2.89,0c.41-.08,1.16-.23,1.22-.84s.23-1.06-1.06-.75a8.51,8.51,0,0,1-3,.07C531.3,264.34,530.43,264.08,530.4,264.7Z"/><path class="cls-4" d="M530.88,262.61a2,2,0,0,0-.22.93c0,.45.79.61,2.15.63s2.58-.18,2.66-.64.41-1-.66-.82a7.51,7.51,0,0,1-3,0C531.32,262.48,531,262.4,530.88,262.61Z"/><path class="cls-5" d="M580.85,267.88a3.2,3.2,0,0,0,.73,1.88l-37.78-1.08s.55-.34.69-1.81Z"/><path class="cls-4" d="M531.18,261s-.33,1,.35,1.15a7.89,7.89,0,0,0,3.39.15,1.06,1.06,0,0,0,1-.77c.27-.83.24-.36-2-.8,0,0-.69-.2,1.31-.21,0,0,1.12,0,1.29-.15s1.65-1.36-.27-1.29-1-.34,0-.34,1.28.2,1.59-.11,0-.1-.5-.63-.16-.37.22-.08.61.38,1,0-.33-.92,0-.85.49.69,1.73.09a4,4,0,0,1,3.37.05,2.07,2.07,0,0,0,2.53,0c.78-.8-.93-1.46-.2-1.57s1.24.15,1.53-.44-1.13-1.15.24-1.51.22-4.2-.26-4.56a11,11,0,0,0-3.21,3.62c-1.68,2.72-2.66,4.3-4.94,3.47a5.17,5.17,0,0,0-5.48.84c-.79.48,1.65.72.23.75s-1.42.15-1.57.37,0,.41.24.42.8.56-.07.53-1.49-.16-1.24.77c0,0,0,.2.53.26s.69.59-.26.59C531.26,260.75,531.2,261,531.18,261Z"/><path class="cls-4" d="M534.67,270.52s-.67.48.26.53,1.42.23,1.71-.27,1.55-.29.71-1S535.95,269.49,534.67,270.52Z"/><path class="cls-4" d="M538.57,259.15s3.15-3,5.77-1a29.26,29.26,0,0,1,2.92,2.35s.31.26-.4.89,0,.61.77.23.84,0,1.22.4.89.67-.32.68-3.82,0-3.82,0-1.77.15-.87-.57.77-1.58.31-1.64,0,.44-.31.78a2,2,0,0,1-1.51.64c-.62,0-1.17.45-.18.8s-.11.59-.62.57-3,.19-.47.49-.23.23,1.6,1.27c2,1.16.57,3.61-.2,3.83,0,0-.84.46.22.33s1.64-.28.89.3-2.24,2.48-4.32,1c0,0-.95-.45.75-.53s-1.39-.44-1.9-.79-2.46-2.34-1.24-2.09.78-.46.05-.72-.87-1.38-.05-1.13a9.59,9.59,0,0,0,2.44.67c.66,0,.47-.3-.93-.74s-2-.5-1.66-1.69,1.86.46,1.49-.42-1.7-.45-1-1.62.87-.67,1.2-.52.85,0-.07-.65C537.77,259.89,538.41,259.3,538.57,259.15Z"/><path d="M540.83,260s0-.4.55-.33.42-.2.58-.29,1.58.42.26.9C541.73,260.43,541,260.31,540.83,260Z"/><path class="cls-4" d="M543.84,263.33s-1.06.54-.1,1.66c.82,1,.82,1.25.75,1.88s36.36,1,36.36,1a5.08,5.08,0,0,1,1.49-3.66Z"/><path class="cls-5" d="M581.47,267.24s.15-2,1.24-2.63c.6-.36,1.4-.15,1.74,1.44.49,2.26-1.43,4.19-2.32,3.33A2.74,2.74,0,0,1,581.47,267.24Z"/><path class="cls-6" d="M539.72,275.76s2.42-2.06,2.79-3c0,0,6.56,4.65,6.16.38a17.29,17.29,0,0,1,.2-2.24s2.37.23,2.73-1.66l-6.12-.18s-.64-.14-1.59.89-2.9,2.14-4.72,1.17a1.28,1.28,0,0,0-1.54-.1c-.78.56-.81.72-.17,1.32A10.77,10.77,0,0,1,539.72,275.76Z"/><path class="cls-6" d="M553.81,262.92l-3.59-.14a22,22,0,0,0-3.86-3.89s-.75-.33.69-1.47a4.7,4.7,0,0,0,1.91-2.93c.05-.56-.09-1.43.46-.76s4.27,4,4.79,3a7.47,7.47,0,0,0,.71-1.76c.09-.3.22-1.23.75-.26s.89.72.91,3.23a14.7,14.7,0,0,0,.47,3.38S552.35,259.84,553.81,262.92Z"/><path class="cls-6" d="M538.23,255.28s2.73,1.53,4.08-.55,2.26-2.4,1.24-4.39,0-2.92.8-3.74,1.43-.68,1.54-3.85,2.3-4.23,3.28-5.21,3.46-2.48-.29-3.11-11.19-2.56-13.12-5.46-2.81-1.17-2.84-1.06-.66,2.24,1.28,6.08,3.57,6.32,5.43,7.57,3.54,1.93,2.59,4.49S539.61,253.2,538.23,255.28Z"/><path class="cls-5" d="M548.33,247.09s.47,6.58,5.29,8.92a10.33,10.33,0,0,0,.66-5.1s1.57.14,2,.85a2.77,2.77,0,0,0-2.19-2.61c-2.26-.7-1.17-5-.36-5.47s.55-1.35,0-2.12-.69-1.95,1.2-1.46,1.6-.52.47-1.45-1.09-2.07.51-2.07,4.27-1.56,2.66-2-2.11-1,.07-1.64,3.24-1.42,1.6-1.61-2.73-.76-1.13-1-.29-1.91-2.15-2-5.87.68-2.7-1.86-4.56-.68-1.39-2.35-1.06-.93-1.64-1-.58,0-.36-.85-.44-1.23-1.35-.71-.91.52-.87-.65-1.09-.3-1.79,0-2.44,1.61-3.14.9-1.09-1.45-3.24-.14-1.64.14-1.6-.44.84-2.84-2.11-.41-.55-2.62-2.88-.9-2.59,2-3,1.26-.81-1.39-3.37.25-.67-1-.31-1.56,1.46-4.28-.8-1.39c0,0-1.09,2-3.54-1.58,0,0-2.59,3.58-3.24,2s-1.31-1.75-2.15-.71-.22-.05-.58-.93-.58-2.48-4.89.65,1.49.85-1.79,2.26-11.19,5.89-3.94,4.86-3.54,2.84-1,3.55,1.71,2.89,11.16.3,7.91-.41,12.72-2.48-1.09.71,5.36.57,1.09,0,2.33,1.36,6.71,4.5,11.81,5,6.34-1.39,4.89.82a18.11,18.11,0,0,1-2.84,3.82c-.87.76-3.28,2.51-3.32,5.57s-4,3.55-2.55,6.93C544.86,250.47,547.12,248.29,548.33,247.09Z"/><path class="cls-5" d="M556.72,254.45a2.9,2.9,0,0,1-1.14-2.27,1.87,1.87,0,0,1,1.14.67s2.94-3.33-.57-4.53-1.76-4.38-.57-4.4,1.4-.35.4-1.67-.93-1.38,1.06-1.73,1.72-.76.84-1.26a6.45,6.45,0,0,1-1.56-1.29s5.64-2.46,3.81-3.58,0-.84,1.63-2,1.85-1.38,2.09-1.84a11.45,11.45,0,0,1-2.8-.07s1.41-.69,0-1.84-2-2.18-4.23-1.66-1.51-.22-.63-1.15.46-1.46-1.12-1.69a4.77,4.77,0,0,1,1.39-2.13s-3,.22-4.06-.31a3.21,3.21,0,0,0,1.31-1.84,10.36,10.36,0,0,1-3.79.35s1.24-1.07,1.24-2c0,0-3.67.82-5.37,2.11a1.19,1.19,0,0,1-.66-.47c-.29-.4-.51-.8-4.57.49a5.42,5.42,0,0,1,1.43-2.53c1-.73.83-2.18-5.49,1.76a4.72,4.72,0,0,1-1.56-2.4,12.28,12.28,0,0,1-2.41,2.58s-.87.37-.77-.86-.62-.35-1.28,0-1.09,1.23-.77-1.26-.87-3-.87-3-2,2.78-3.1,3.08a20,20,0,0,1-2.81-3.36c-.73-1.34-.73-1.83-1.46.49s-1.64,2.51-1.64,2.51-1.24-1.06-1.39-1.64a2.09,2.09,0,0,1-.62.9,5.08,5.08,0,0,1-1.06-3.14s-6.78,3.74-7.62,6c0,0-6.42-.38-9.08.11a6.3,6.3,0,0,1,2.33-3.11,2,2,0,0,1-1.75-1.91,7.08,7.08,0,0,0,2.19,0c.84-.22-1.17-2.65.95-2.7s3.46,1,2.52-1.8-.51-2.81-.51-2.81,3.68,2.18,4.27,1.64-.47-1.72,2.81-1.17,2.37-1.34,3.65-1.42,2,.82,1.17-5.13,4,2.95.73-6a7.62,7.62,0,0,0-2.77-3.87s-.44,2-2.64.23-6.54-2.35-4.72-3.71,2.68-3.19,2.15-4.34c0,0-2.15,2.25-5.89.64-3-1.27-3.57,1.06-6.6.38,0,0,.05-.78,2.61-2.78s-1.48.67-3.06,1-2,.07,1.31-2.52,10-7.18,9.08-10.94c0,0,1.57,2,5.69.55s7.18-2,8.42-4.09,4.48-4.28,5.32-4.75,2-.79.69,1.23a17.71,17.71,0,0,1-9,7.83c-5.69,2.35-7.87,4.07-8.9,5.29s-6.2,4-2.84,3.52,9.19.08,6.45-.71-5.83.49-3.32-1.8,3-3.06,6.6-4.58,7.69-5,7.29-1.31-7.18,7.67-8.86,8.87-1.06,1-1,1.5a2.48,2.48,0,0,1-.95,2c-.69.46-.47,1-.29,2s-.18,1.45.33,1.61,1,.25,1.17,1,.53.83,1.51.75,1.6,0,1.68.59,1,1.35,1.11-.4.75-2.09-1-1.28-2.17.52-2.13-.31-.16-.64-.91-.71-1-1.12.33-1.81,1.31,0,3-1.36,1.66-1.76,1.91-2.4-2.37,1.87-3.63,2.44-.93-.4-.71-1.83,3.35-3.3,4.79-3.33,4.68.82,3.28,2.78-5.38,4.3-3.66,4.48,2-.49,3,.38.07,2.65-.38,3.59a7,7,0,0,1-1.82,2.35s-1.8-3.22-1.75-.67-.38,3.47,0,3.56,2.39,1.43,3,1.46-3.46,1.92-1.75,2,4.43-.75,5.38-2.52c0,0-3.48-.85-4.89-2.16,0,0,4.06-1,2.93-4.87,0,0,4,1.11,2.3,2.93s-2.81,1.56-1.29,2.07a13.78,13.78,0,0,1,2.26,1s1,.52.44,1.36-.62,2.13-.11,2.1,2.22-.82.78-1.69,1.64-.72.33-1.46a8.72,8.72,0,0,1-2-1.27c-.35-.35,16.48-10.22,8-6.52,0,0,1.77-3.83,4.25-3.85s2.66,2,1.26,3.44-2.32,3.81-5.61,4.35c0,0,4.72,2.31-.86,6.08,0,0-1.21.57-.77,1s3.74-1.46,4.2-2.51a4.75,4.75,0,0,1,2.43-2.49c1.26-.62,7.49-4.86,9.36-8.06s2.38-3.31,6-6.24,3-2.35,3.48-3.06a5.62,5.62,0,0,1,2.33-2.82c1.68-.95,8.19-4.57,10.23-6s6.22-4.18,8-6.48,6.64-5.22,7.85-4.68-.12,2.26-3,4.42-9.89,7.86-11,8.73-7.12,5.24-9.36,5.53-2,1.07-3.33,2.53-4.42,4.51-5.47,5.35-3.52,2.55-3.67,3.75.44,1.35-1.56,3.22-7.83,6.11-9.94,6.79c0,0,3.74,1.24,1.51,3.77s-2.09,2.16-2.26,2.33c0,0,5.68-.84,1.65,3.58,0,0-.78,1.27,1-.05a2.71,2.71,0,0,0,.87-3.64,14.28,14.28,0,0,1,6.49-1.93c3.48-.05,3.35-.29.24-1.18,0,0,2.21-2.69,4.08-1.36s1.26,2.09-.7,3.15-4.89,1.49-7,2.69c0,0,4.11.8,6.32-.87s2.31-.84,2.6-.55.53.84-.44,2.24-1.07,1.47-1,1.78-.07,1.27-2.07,1.6-2.89,1.16-2.21,2.11.7,3.29-1,3.07-1.24-1.56-1.9-2.09-1.58-1.35-4.54.2-3.21-.29-3.06-1.26c0,0-1.92,1.67-3.52.13s-.15-2.15.78-2.93,4.69-2.42,2.43-2.13-5.64.44-6.42-1.31,1.68-1.55,2.07-1.38,2,1.46,2-.24,2.55-1.87,1.7-2.22-2,.73-2.38,1.15a4.39,4.39,0,0,0-4.57-1.64c-2.82.8.9.47,1.65.6s.32,1.53-2.21,3.8-1.39,1.58.49,1.58,6.47,0,3.79,2.2-3.74,3.27-5.13,2.89.17-1.29.78-1.67,1-1.06-.34-.56-1.77.58-2.82-1.27-.61-1.31-.17-2.53,1.46-2.51.24-2.06-1.09.49-1-.91a1.7,1.7,0,0,0-1.39-1.71,3,3,0,0,1,0,2.29c-.53.89-.56,1.2.32,1.44s1.7,1,.51,1.8-1,.71-.29,1.2,1.85,1.06.68,2.2-.19.8.39.8,1.9.49,1.92,1.62-.08,1.4,1.82.35,5.69-.93,5.64.55-.49,1.84,1.53.58,2.92,1.18,4.3,0,2.26-2.33,3.86-.31,1.1,2.63-.85,4.06.95.33,2.43-.44,5.64-1.27,8-.22,3.06.82,4.81.09,2.65-.89,5.3.87a10.41,10.41,0,0,0,6.1,2.06,23.73,23.73,0,0,1-6.25,1.36c-3.31.22-5,.84-5.61,1.35,0,0,2,1.2,2.38,2.67a8.52,8.52,0,0,1,3.24.15,2.07,2.07,0,0,0,.78,2.4c1.34.84,2.26,1.15,1.26,2.29s1.53.65.1,2.27-1.82,2.44-1.87,3.75.32,1.51-1,1.64.22,1.56-.36,3.27-4.18,1.53-4,6.11a14.3,14.3,0,0,1,3.14-4.2c2.14-2,2.21-2.15,2.16-3.33s-.15-.91,1-1.8-.51-1.73.63-3,.15-1,1.48-2.31-1.17-1.46.19-2.78-3.28-2.84-1.94-3.69,3.65-2-4.13-1.91c0,0,1.87-3.09,8.43-2.42,0,0-1.73,1.22-1.87,2.42a7.41,7.41,0,0,0,1.22.49,4.64,4.64,0,0,1-1.51,1.95s3.48,1.95,4,3.09c0,0-2.11.65-2.65,1.58a6.3,6.3,0,0,1,1.24,2.42s-2.36-.29-2.67,1.47-1,.56-1,1.6.07,1.46-.75,1.62-.15,1,0,1.62a7.51,7.51,0,0,1,.29,2.33,9.26,9.26,0,0,0-1.75.18s.36,2.53-1,2.89.75.87-.75,1.15-1.31.36-3.16,3.67c0,0,1.58-.89,3.21-2s-.12-.75,2.58-3.4,2.21-2.86,2-4.2a4.24,4.24,0,0,1,.7-3.71c1-1.27,1.29-2.73,4.74-2.55,0,0-1-2.3-2.28-2.89a8.31,8.31,0,0,1,3.4-1.31,18.15,18.15,0,0,0-4.67-3.62,22.37,22.37,0,0,0,3.18-3.27,6.75,6.75,0,0,1-2.14,0s.45-1.06,2.77-2.58a3.94,3.94,0,0,1,1.19,2.46s4-2.29,6.25-2c0,0,1.14,2.87-4.4,8.26a31.83,31.83,0,0,0,4.89.13s-.83,2.66-5,4.22.9,3.39-3.35,3.07-2.94,1.15-2.82,3.31a47.41,47.41,0,0,1,.17,5s-3.4-1.11-3.33,2.18-1.75,4-2.11,4.29a8,8,0,0,0-2.48-1.4A20.12,20.12,0,0,1,556.72,254.45Z"/><path class="cls-6" d="M551.86,213.17a5.07,5.07,0,0,1,3.14,1c2,1.23,3.9-1.31,1.71-2s0-1.42,2,.16,2.73.79,3.46.25,1.6-.85.26-1.77.91-.49,1.93.16.62,1.34.47,1.53-.26,2.32,1.75.33,3-4,3-5a2.88,2.88,0,0,1,1.24,1.94c.15,1.26,1.68-.68,2.19-1.36a6.61,6.61,0,0,0,1.28-3.7s1.35,2.09,3.35,0,1.13-.78,3.54-1.4a15.08,15.08,0,0,0,7.07-4.39c1.64-2,1.75-.65,3.86-1.15s6.38-3.44,6.78-5,.33-2.59-.29-2-.36.11-1.28-.46S595,191,595,191s1.35,1,.33,1.47-2,1.88-3.94,1.34-3.94,1.77-3.94,1.77,1.68,1.39-.58,2.26-1.9,1.17-3.28.22c0,0-2.41,3.06-3.79,3.68a1.67,1.67,0,0,1-1.09-.63,12,12,0,0,1-2.37,2.13,6.24,6.24,0,0,0-1.9-1.26,13.34,13.34,0,0,1-3.5,3.08,4.3,4.3,0,0,0-1.49-1.47,7.44,7.44,0,0,1-3.86,4.88s.22-.82-1.46-1.94c0,0-4.16,3.6-5.8,4s-.11-.76.11-1.23,1.24-2-.77-2.62-1.68.44-2.11.63-.47-.35-1.82-.16-1.13.79-1.71,1-2.92-.38-2.81,1.17,1.2,2.62-.84,3.52S549.16,213.58,551.86,213.17Z"/><path class="cls-5" d="M560.28,208.78a2.7,2.7,0,0,0-1.24-2.92s11-1.69,2.7-5.89c0,0,9.88-2,7.55-5.21s-4.6-2.46-4.94-2.4,2.1-1.83,2.76-1.58,8.6,3.3,6.56.68-1.86-2.46-2.19-3.22c0,0,2.62,0,6.6,3.87a3.34,3.34,0,0,0,.73-2.46s2.84.79,3.72,1.64a2.76,2.76,0,0,0,.29-1.53,10.43,10.43,0,0,1,3.28,2.7,4.3,4.3,0,0,0,1.31-2.1,11.53,11.53,0,0,1,3.06,1.77,3.48,3.48,0,0,0,.51-2.59s4,1.2,4.59-1.31c0,0,4.07.88,1.43,2.47-3.4,2-.34-.5-3.83,1.93-2.7,1.88-4.22,4.09-5.52,3.64-1-.33-2.1,2.45-3.41,1.08s-1.31-.74-2.22.68a21.31,21.31,0,0,1-2.33,2.87,6.75,6.75,0,0,1-1.25-1,13,13,0,0,1-1.81,2.29,6.74,6.74,0,0,0-2.08-1.72,22.2,22.2,0,0,1-3.24,3.11,7.14,7.14,0,0,0-2.41-1.53,6.62,6.62,0,0,1-2.62,4.75,4,4,0,0,0-2.08-1.66A12.57,12.57,0,0,1,560.28,208.78Z"/><path class="cls-5" d="M554.49,204s-1.34,1-.47,2.13.91-.19,2-.3,14.58-2.43,2.37-6.08c0,0,.51-.46,2.62-.65s9.77-2.26,6.2-5-6.54.93-3.54-2.35c2.41-2.62.47-3.9.47-3.9s-7.11,4.75-8.68,5.62-3.83,2.54-1.17,3.41,4.48-2.89,4.74-2-5.36,4-4.56,5.4.62,2.65,2,2.37,5.14.71,2.08.6S554.49,204,554.49,204Z"/><path d="M559.37,197.19s-1.24.87.4.43,4.92-1.15,4.3-2S561.27,195.8,559.37,197.19Z"/><path class="cls-6" d="M581,183.1s6.27-.16,8.86,1.58,3.83,2.89,4.59,3.14c0,0-.11,2.37-4.12.68a4.58,4.58,0,0,1-.22,2.26,12.09,12.09,0,0,0-3.21-1.42,4,4,0,0,1-.84,1.42,10.09,10.09,0,0,0-3.79-2.35,4.85,4.85,0,0,1-.77,1.23,9.36,9.36,0,0,0-3.79-1.2s.33,1.31,0,1.83c0,0-4.56-3.57-8.6-3.11,0,0,2,2.87,3.24,4.28,0,0-8.2-.65-6.85-5.08s-.11-3.31,5.25-3.28S581,183.1,581,183.1Z"/><path class="cls-5" d="M542.57,195.32s-.95.77,0,1.43,4.19-1.69,4.63-2,1.6-.27,0,.93a23.27,23.27,0,0,0-4.27,3.82,26.55,26.55,0,0,0,9-4.53c3.54-3.06-.16-1.08,5.87-4s9.19-7.59,5.94-7.09-6.16,4.2-8.68,5.62-3.94,1.61-3.54.79,2.26-.49,5.72-3.27,2.7-2.59,2.73-3.57-1.31-3.41,3.9-6.14,21.44-12.22,22.82-15.47c0,0-4.74.52-11,5.13s-9.57,6.77-11.29,7.34-1.5.19-2.63,1.53-7.29,7.29-8.42,8.16-1.46,1.45-1.56,3.23C551.76,188,544.72,193.32,542.57,195.32Z"/><path class="cls-5" d="M564,183a3,3,0,0,1-2.37,0c-1.17-.56-.8-3.07,2-4.57s7.91-3.74,10.5-4.07c0,0-.36,3.25-8.42,6C565.72,180.29,566.23,182,564,183Z"/><path class="cls-7" d="M566.85,180.84a3,3,0,0,1,0,1.53s15,1.45,22.71-7.67c0,0-10.61,1-14.84,3.52,0,0,2.66-3.33,10.61-6.08s11.19-6.17,11.88-8c0,0-10.05,3.52-14.84,3.52a3.94,3.94,0,0,0-1.86.49c-.91.52-7.33,5.18-9,6,0,0,3.61-.3,4.89-1.47C576.36,172.6,573.85,179.34,566.85,180.84Z"/><path class="cls-5" d="M538.15,189.41s-1.93,1.36-1.13,2,2.18.82,5.12-1.64,10-8.57,5.55-8.81c0,0-5.75-.35-5.55,3.17S538.44,189.18,538.15,189.41Z"/><path class="cls-5" d="M524.88,187.33s3.79,2.21,2.37,4c0,0,11.63-9.88,8.35-12s-5.87,1.88-5.07,2.29,2.52-.35,1.9.41A67.18,67.18,0,0,1,524.88,187.33Z"/><path class="cls-5" d="M521.86,184.14s2.55.76,2.66,1.86,7.69-5.35,5.69-8c-.92-1.24-5.14-1.75-5.32.68s3.79-.25,2.41,1.5C525.47,182.42,522.41,183.76,521.86,184.14Z"/><path class="cls-5" d="M549.15,178.76s-1.62,1.18-.17,1.89,2.41-.41,3.14-1.06,4.34-3.3,5.18-5,2.08-2.21,3.39-3.08,10.57-5.48,16.26-10.59,3.32-3.79,9.22-7.07,9.77-6.28,11-9.82a25.5,25.5,0,0,0-5.14,2.46c-2.41,1.56-7.84,5-8.93,5.43s-2.62.55-3.43,1.39-.73,1.86-3.57,4.2-17.54,12.72-19.32,14.19S549.15,178.76,549.15,178.76Z"/><path class="cls-7" d="M537.33,182.19a9,9,0,0,1,4.62-.68c3,.21,14.92-11.33,18.37-13.66s14.24-10.11,15.7-11.53,1.7-2.95,3-3.78,2.43-.73,5.35-2.4,16.92-10,16.09-14.92c0,0-20.85,12.52-25.67,16.59s-18.18,13.32-20.56,14.81-4.28,4.07-8.26,7.31S538,179.9,537.33,182.19Z"/><path class="cls-7" d="M533,177.76s3.86-.39,4.37,1.49c0,0,8.26-5.68,10.16-8s-.63-1,4.08-4.07,20.37-14,22.6-16,6.47-4.55,9.87-6.84,16.72-8.8,15.21-14.15c0,0-9.77,6.55-12,8s-3.11.62-5.35,2.36-7.15,5.24-8,6.33-8.36,6.84-12,9.28-11.81,7.17-15.75,10.59S534.61,176.45,533,177.76Z"/><path class="cls-7" d="M520.93,176.64s2,0,2.54.79a5.78,5.78,0,0,1,7.45,0s14.1-9.53,15.51-11.93,3.69-2.44,9.19-6.44,8.94-5.68,12.59-8.51,6.71-6,9.33-7.75,9.24-6,8.12-9.79a42.77,42.77,0,0,0-8.85,6.88c-3.5,3.82-3.21.55-6.76,3.75s-9,7.57-13.61,9.82-1.8,2-5.1,4.11-3.06,1.78-4.28,2.07a8.74,8.74,0,0,0-4.28,2.58c-1.22,1.42-4.47,3.35-8,5.35S522.48,174.73,520.93,176.64Z"/><path class="cls-7" d="M525.18,169.32a2.29,2.29,0,0,1,.58-2.7c1.35-1.12,3.79-4.07,4.19-5.92s.11-1.56,4-3.17a157.26,157.26,0,0,0,17.75-8.84c5-3.08,12.58-8,14.15-9.25s5.37-3.87,6.91-5.13a3.39,3.39,0,0,1-.94,3.55c-1.68,1.45-8.13,6-9.19,6.69s-7,4.69-8.82,5.7-6.34,3.3-7.95,4.64-1.4,1.75-8.56,5.24-7.49,3.85-7.27,4.12,3.43-1.12,5-2,7.4-3.57,9.15-5a64.4,64.4,0,0,1,6-4.28c1.28-.71,11.85-7,14.87-9.28s3.86-3,4.52-2.59,1.71.41.36,1.69a90.74,90.74,0,0,1-7.29,6.14c-1.64,1.09-6.78,4.15-8.2,4.88s-2,2.1-2.77,2.67a17.39,17.39,0,0,1-6,2.89c-2.84.65-3.35,2.78-5.21,4s-15.09,8.32-15.49,8.68C525,172.05,525.76,171.23,525.18,169.32Z"/><path class="cls-7" d="M571,139.61s-.73.65-.33,1,2.37,1.77,4.67-.5a88.93,88.93,0,0,1,10.47-8.42c2-1.17,2.95-2.29,2.88-3.9A121.63,121.63,0,0,0,571,139.61Z"/><path class="cls-7" d="M584,138.74a16.51,16.51,0,0,1,5-4.72c3.57-2.29,8.94-5.63,9.66-6.44,0,0,1.28,1.45-1.53,3.22s-8.28,5.4-8.93,5.92A11.16,11.16,0,0,1,584,138.74Z"/><path class="cls-6" d="M511.36,165.18s-4,2.13-2.55,3.47a4.27,4.27,0,0,0,4.41.55,27.27,27.27,0,0,1,2.81-.87c.26-.08,3.72-1.06,4.59-2.67s3.21-3.47,5.07-4.8,2.52-2.67,2.26-3.63C527.95,157.21,512.3,164.6,511.36,165.18Z"/><path class="cls-6" d="M487.73,183.54a9.09,9.09,0,0,1,6.6-.6,2.81,2.81,0,0,0-.77-1.42s4.67-1.22,5.69-3.3,1.24-1.64,2.15-2.24,7.22-5.68,6.49-6.77-.87-2.51-1.42-3.08c0,0-1.31,1.8-7.44,4.78s-12.94,5.21-17.9,11.9-4.45,10.56,1.6,12.25c0,0,4.27-2.67,14.66-1.75s13.93,4.83,14.58,5.54,2.77,3.27.73,7.61c0,0,2.08.9,2.26-1.09s.29-1.53.77-1.23,1.06.35.84-1.17-.95-4.94-1.9-6.11.11-.65.73-.41,2.81,2,1.49-1.26-1.64-1.66-1.68-1.5-.29,1-3.14-1.15a22.36,22.36,0,0,0-7.36-3.71c-1.93-.55-.58-.55.55-1s2.66-.65,3.17-1.91a6.22,6.22,0,0,1-3.21-.46,11,11,0,0,0-9.59,1.69s1.06-3.87-2-3.66-5.21.14-8.46,2.7c0,0-.18-3.9,2.88-5.92s2.66-.79,4.37-1.31,1.86-2.24,1.13-2.78c0,0,4,.68,10.75-4.91,0,0-3.62,4.75-8,5.7,0,0-.7,2.53-4.7,3.08S487.7,183,487.73,183.54Z"/><path class="cls-5" d="M476.23,206.66s2-11.76,13-12.61c9.65-.75,12.71.45,14.63,1.07s6.61,2,4.79,3.51-2.87,1.24-2.87,1.24,2.11-2.35.19-2.75-2.09.76-2.36,1.75a5,5,0,0,1-1.34,2.93,1.71,1.71,0,0,0-2.36-.15c-1.39,1-.19,1,.36.85s1.29-.45,1.14.4-.92,2.33-3.21,3.53a10.34,10.34,0,0,1-4.89,1.56c-2.72.44-5.25,1.51-8.73,4.49s-7.28,2-8-1.35A11.55,11.55,0,0,1,476.23,206.66Z"/><path d="M488.83,206.3s1.06-2.32-.84-3.38c0,0-5.8,1-7.51-.76,0,0,6.31-.33,10.21-1.86s2.73-2.59,1.39-2.84-3.83.35-4.08,1.58a1.81,1.81,0,0,1,.22-2.18,4.16,4.16,0,0,1,3.9-.63c1.39.41,2.62,1,7.18-1.36,0,0,2.62.6,2.7,2.37s-.18,2.51-.4,2.78-.55.79-1.09.74a1.64,1.64,0,0,0-1.93,1,8.11,8.11,0,0,1-2.27,3.11s1.36-3.82-2-4.72a13.22,13.22,0,0,1-4.89,1.72S492.11,204.41,488.83,206.3Z"/><path class="cls-5" d="M494.88,199.28s-1.28-1.41.4-1.56,3.9,1.08,3.46,2.11S496.34,200.84,494.88,199.28Z"/><path class="cls-1" d="M589.63,180.65s-3.06.87-.22,2.76,4.23,3.52,6.31,4.07,4.23,1.31,4.19,3.38a5.83,5.83,0,0,1-1.57,4.31c-1.13,1.42.62,2,2.11,1.23s2.77-1.26,3.76-1.83,2.62-.49,1.13.27-3.06,1.23-1.13,1.28,13.56.27,16-.52,5.61-1,5.91-4.2a2.89,2.89,0,0,1,1-2c.91-.59,1.53-1.94.2-1s-2.35,1.38-2.61,1.11-.33-.46.64-.91,1.51,0,2.41-1.35.81-1.11.33-1.61-1.48-.87-1-1.51,1-2.55-1.15-1.43-6.33,4-8.28,4.46-3.43,1-6.05,1.58a21.33,21.33,0,0,0-7,2.64c-2.8,1.55-2.6-.85-2.11-1.18,0,0,1.07,1.87,3.91-.56s1.92-.15,8.87-2.44,5.25-2.66,8-4.07,5.3-1.47,3.4-3.37-2.11-2.06-4.57,0-9.24,5.37-13.29,5.46c0,0,15.68-6.77,14.07-7.75a17.34,17.34,0,0,0-4.42-2.09c-1.09-.24-1.39-.51-3.91.62s-2.94,1.4-3.67,1.47a17.86,17.86,0,0,0-5.83,2c-3,1.55-4.59,2.16-6.59,3.38,0,0,1.39-2.8,7.56-4.66s9.33-3.57,8.65-3.87a7.14,7.14,0,0,0-3.38-.38c-1.17.18-.83-.09-4.59,1.4s-2.16,1.16-5.2,1.82a25.44,25.44,0,0,0-5.78,2,6,6,0,0,1,2.66-1.57c1.05-.38-1.15-.78,1.77-.9a3.12,3.12,0,0,0,.82,0c3.77-1.08,7.9-2.56,7.27-2.67a15.18,15.18,0,0,0-8,1.22c-3.72,1.71-2,1.13-3.33,1.4a18.22,18.22,0,0,0-5,2.77A11.4,11.4,0,0,1,589.63,180.65Z"/><path class="cls-5" d="M497.81,197.59s1.46.44,1.82,1.46,1.28-.45,1.24-.91-.93-2.51-2.52-1.56S497.57,197.5,497.81,197.59Z"/><path class="cls-6" d="M493.75,217.81a13.93,13.93,0,0,1,5.72-1.28s-1-3.68.8-3.06,1.31.38,1.68.35a10,10,0,0,0-.36-3.38,20,20,0,0,0,3.76.46s-1.79-3.49.18-5.89a5.67,5.67,0,0,0,3.51,2.87s0-1,0-2a5.06,5.06,0,0,1,2.58.44c1.13.6,2.08-6.33-1.28-7.86,0,0-.8,1.31-3.94,2s-3.11,1.28-4.4,3.64-2.42,2.39-5,4.08-4.22,5.13-4.37,5.43A6.32,6.32,0,0,1,493.75,217.81Z"/><path class="cls-8" d="M598.35,177.55c1.14-.2-1.15-.78,1.77-.9a3.12,3.12,0,0,0,.82,0c3.77-1.08,7.9-2.56,7.27-2.67a15.18,15.18,0,0,0-8,1.22c-3.72,1.71-2,1.13-3.33,1.4a18.22,18.22,0,0,0-5,2.77,11.4,11.4,0,0,1-2.21,1.31s-3.06.87-.22,2.76,4.23,3.52,6.31,4.07,4.23,1.31,4.19,3.38a5.83,5.83,0,0,1-1.57,4.31c-1.13,1.42.62,2,2.11,1.23s2.77-1.26,3.76-1.83,2.62-.49,1.13.27-3.06,1.23-1.13,1.28,13.56.27,16-.52,5.61-1,5.91-4.2a2.89,2.89,0,0,1,1-2c.91-.59,1.53-1.94.2-1s-2.35,1.38-2.61,1.11-.33-.46.64-.91,1.51,0,2.41-1.35.81-1.11.33-1.61c-.24-.26-.63-.48-.88-.72a1.29,1.29,0,0,0-1.51-.09,23.83,23.83,0,0,1-5.82,2.2,18,18,0,0,0-5.49,2c-2.58,1.26-6.85,3.81-7.53,1.44,0,0-1.87.67-2.27.87-2.87,1.46-2.62-.61-2.11-1.18,0,0-1.51,1.69-1.45.15s1-1.27,2.71-1.76,4.33-1.58,3.23-2.49-2.25.9-3.46,1.46-3.65,1-4-.72-.36-3-3.66-3.18-3.17-2.25-2.27-3.13S595.26,178.09,598.35,177.55Z"/><path d="M608.81,193.51a61.25,61.25,0,0,1,9.84-3.47c4.72-1.11,1,.15.22.4s-8.14,2.67-9.87,3.47S607.63,194,608.81,193.51Z"/><path d="M610,194.55s5.76-1.91,6.83-1.11.19.4-1.07.58-4.74.76-5.66.75S610,194.55,610,194.55Z"/><path d="M619.23,192.54s1.09-.2,1.22.2-.49.45-1.09.38S618.21,192.71,619.23,192.54Z"/><path class="cls-1" d="M467.1,242.73s-.22-5.06,2.34-7.62,14.95-15.46,16.84-19.07A4.29,4.29,0,0,1,488,219.2a24,24,0,0,1,3.72-4.93,5.82,5.82,0,0,1,1.2,4.46,17.84,17.84,0,0,1,7.62-1.61s-1.71,2-1.79,3.19c0,0,6.42-.71,9.77-.16,0,0-8.82,4.94-6.34,5.38a16.58,16.58,0,0,0,5.07,0,13.41,13.41,0,0,1-7.29,3.44s5.69-.08,6.82,1.2a24.75,24.75,0,0,0-10,4.23s-.42-.19-.44-1.45a3.76,3.76,0,0,1-1.41,2.18c-1.28,1.06-4.34,3.33-5.47,4.48s-3.24,3.41-5.51,3.3a1.83,1.83,0,0,0-1.17-2.29,4.72,4.72,0,0,0-5,1.28s-6,.08-7.87.35c0,0,1.35-2.16,2.59-2.1s6.23.74,6.67-2.67-3.21-2.51-1.82-4.53,1.06-1.94,1.09-2.13a4.6,4.6,0,0,0-1.79,2.43,9,9,0,0,1-3.5,5c-2.37,1.8-3.35,2.89-4,4.15C469.14,242.37,468.06,242.52,467.1,242.73Z"/><path d="M600.79,192.14s.75,1,.29,1.49-1.12.93-.8,1.66a2.23,2.23,0,0,1,2-1.4,45.76,45.76,0,0,0,8.36-2.46c2.58-1,8.58-4,10.6-3.89,0,0-1.49-.41-6.84,2a47.63,47.63,0,0,1-11.61,3.83C601.08,193.64,602.59,193.11,600.79,192.14Z"/><path d="M596.8,185.68a.55.55,0,0,0,.53.34,1.92,1.92,0,0,0,1-.47c.1-.06.11-.21-.33-.46s-.67-.29-1,0S596.52,185.39,596.8,185.68Z"/><path class="cls-1" d="M472.85,239.68s.19-.69,1.94-1,1.82-1.13,1.6-1.49-1.26-.36.44-2.29a2.32,2.32,0,0,1,1,.64C478.27,236,480.19,240.13,472.85,239.68Z"/><path class="cls-8" d="M468.64,236.11c.09,3.37,4.51,2.12,4.51,2.12a17.88,17.88,0,0,0-3.2,2.9c.29-1.64-2.49-2-2.49-2A9.5,9.5,0,0,1,468.64,236.11Z"/><path class="cls-8" d="M484.88,218.1a16.2,16.2,0,0,0,1.39-2.05A4.29,4.29,0,0,1,488,219.2a24,24,0,0,1,3.72-4.93,5.82,5.82,0,0,1,1.2,4.46,17.84,17.84,0,0,1,7.62-1.61s-1.71,2-1.79,3.19c0,0,6.42-.71,9.77-.16,0,0-8.82,4.94-6.34,5.38a16.58,16.58,0,0,0,5.07,0,13.41,13.41,0,0,1-7.29,3.44s5.69-.08,6.82,1.2a23.83,23.83,0,0,0-3.81,1s-1.64-1.54-6.37-1.32a30.91,30.91,0,0,1,6.61-2.73,2.23,2.23,0,0,0-3.31-.15s-4-2.77-.7-5.11a5.61,5.61,0,0,0-3.86.6,3.41,3.41,0,0,1,1.77-2.75s-4.5-.73-5.61,2.58a4.13,4.13,0,0,1-.46-2.91,14.72,14.72,0,0,0-4,3.34s-.41-3.36-2.14-4.62"/><path class="cls-8" d="M476.17,239.48a11.26,11.26,0,0,1-3.32.19s.12-.44,1-.76c0,0,.27.55,2.27.57"/><path d="M484.34,226.73a20.7,20.7,0,0,1,2.77,2.59,12.31,12.31,0,0,0,2.55-2.37,5.57,5.57,0,0,1,2,2.37,3.33,3.33,0,0,0,1.24-1.69s2.57.55,3.42,1.39a12.74,12.74,0,0,0,0-4,11.47,11.47,0,0,1,2.89.6s-1-1.64,4.18-3.74c0,0-3.93.84-5.42,2.56a5,5,0,0,1-2.41-.44s.11,2.51,0,3.71a22.63,22.63,0,0,0-3-.87,3.91,3.91,0,0,1-.81,1,6.84,6.84,0,0,1-1.79-2.24s-1.9,1.72-2.62,2.46A7.72,7.72,0,0,0,484.34,226.73Z"/><path class="cls-4" d="M472.6,252.28s.8.38,2.7-1.15,7.25-4.94,7.77-7.67-1.71-2.89-3.46-2.1-1,2.32-.95,2.81.11,2.4-2.73,5S472.6,252.28,472.6,252.28Z"/><path class="cls-4" d="M472,253.15s-4.3-1.8-.44-3.74,5.58-2.46,6-4.07.18-1.34-1.24-.65-6.89,3.14-7.73.85a6.76,6.76,0,0,0,5.07-.49c2.81-1.36,5.1-1.77,3.32-2.35s-8.24.14-9.3.44-.8.25-1,1.31a15.74,15.74,0,0,1-1.82,4c-.44.65-1.49,3.38.47,4.58A7.23,7.23,0,0,0,472,253.15Z"/><path d="M470.31,243.76s-1,.14-.8.52.44.33.8.35.91-.19,1-.44S470.67,243.68,470.31,243.76Z"/><path class="cls-1" d="M471.73,252.19s-2-1,.26-2.24,4.78-2.46,5.1-3A36.25,36.25,0,0,1,471.73,252.19Z"/></g></g></svg>