<svg xmlns="http://www.w3.org/2000/svg" height="480" width="640" viewBox="0 0 640 480"><defs><style>.cls-1{fill:#fff;}.cls-2{fill:#c62139;}.cls-3{fill:#00297b;}.cls-4{fill:#92dbfc;}.cls-5{fill:#008ce7;}.cls-6{fill:#9c8431;}.cls-7{fill:#ffde52;}.cls-8{fill:#8c4200;}.cls-9{fill:#bd0728;}.cls-10{fill:#109421;}.cls-11{fill:#fdf9ff;}</style></defs><title>Guam</title><g id="Layer_2" data-name="Layer 2"><g id="Guam"><rect class="cls-1" width="640" height="480"/><g id="Capa_1"><g id="_762156328" data-name=" 762156328"><rect class="cls-2" y="65" width="640" height="343.42"/><rect class="cls-3" x="29.89" y="87.93" width="580.23" height="297.55"/><path class="cls-2" d="M320.17,148.65s-53.93,40.15-53.93,87.48,53.93,88.62,53.93,88.62,53.58-37.88,53.58-88.62S320.17,148.65,320.17,148.65Zm0,9.72s-48,35.71-48,77.83,48,78.85,48,78.85,47.67-33.7,47.67-78.85S320.15,158.37,320.15,158.37Z"/><path id="path794" class="cls-4" d="M320.15,158.37s-48,35.71-48,77.83,48,78.85,48,78.85,47.67-33.7,47.67-78.85S320.15,158.37,320.15,158.37Z"/><path id="path798" class="cls-5" d="M362.78,262l-85.08-.11C290.3,292.18,320.15,315,320.15,315S350.51,293.58,362.78,262Z"/><path class="cls-6" d="M365.83,252.68c-7.86,5.62-52.06,2.92-52.06,2.92l-2.47,6.29,52.63.16c.22-.86.75-1.89.93-2.76Z"/><path id="path799" class="cls-7" d="M286.75,278.72a14.61,14.61,0,0,1,6.47,1.62c3.58,1.88,5.65,1.86,9.51,1.92,4,.06,7.21,3,11.57,3.16,8,.22,11.42,4.22,5.17,4.21-3,0-9.28-2-12.34-1.57-4.65.47-7.34.83-10.78,3.56A141.3,141.3,0,0,1,286.75,278.72Zm15.9,20c2-1.36,3.37-2.43,5.3-2.49,3.76-.12,5-2.44,9.38-2.44,4.94.91,11.63-.59,15.54-1.46,7-1.6,3.65-6.47-.55-8.23-3.4-1.46-9.78-.07-13.73-1.52-3-1.17-.53-3,1.09-3.43s3.37.24,5.39.57a51.73,51.73,0,0,0,11.32-.51c6.55-1,6.28-2.93,9.45-3a10.06,10.06,0,0,0,5.64-1.92c1.85-1.23,3.78-3.77,6-3.67l1.32.06C345,297.49,320.15,315,320.15,315A160.21,160.21,0,0,1,302.65,298.76Z"/><path id="path804" class="cls-8" d="M334.42,279.18c.86,3.32,1.77,4.45,5.25,5.3s8.7-2.49,5.44-5.74c-3.1-3-6.37-3.79-9.15-6.51-4.31-4.27-10.22-13.11-13-21.46-3.07-9.13-2.54-34.84-2.4-47.86,0-.15.37-.24.42-.3.2-.29.39.09.08-1.82-.08-.49-.47-1-.47-1.49,0-.88-3,1-3.85,2.54-.18.36.58,1.39.58,1.59.1,12.49-1.24,37.16,2.08,48.33,2.05,6.91,5.8,12.25,9.19,17.19C330.6,272.11,333.54,275.52,334.42,279.18Z"/><path id="path2840" class="cls-1" d="M296.4,242.6l-.34,0a6.62,6.62,0,0,1-3-1.19,6,6,0,0,1-2.22-4,11.1,11.1,0,0,1,0-2.2,7.06,7.06,0,0,1,1.4-3.37,6.18,6.18,0,0,1,.85-.82,5.81,5.81,0,0,1,2.11-1,7.68,7.68,0,0,1,3.92.11,4.38,4.38,0,0,1,2.21,1.51,5.89,5.89,0,0,1,.87,2,.49.49,0,0,1-.3.55c-.07,0-.44.14-.82.24-.76.2-.86.21-1,.07s-.15-.17-.25-.48c0-.13-.15-.39-.25-.58a1.69,1.69,0,0,0-.4-.57,1.6,1.6,0,0,0-.57-.4,3.82,3.82,0,0,0-2.19-.32,3.72,3.72,0,0,0-1.68.63,4.35,4.35,0,0,0-1.38,3.67c.07,2.2,1,3.41,2.92,3.8a5.62,5.62,0,0,0,1.57,0,6.3,6.3,0,0,0,1.89-.74l.17-.11v-1.4h-3l-.1-.07a.83.83,0,0,1-.16-.17c-.07-.09-.07-.11-.07-.93s0-.84.07-.93a.76.76,0,0,1,.17-.16l.1-.07H302l.09.07a.73.73,0,0,1,.17.18l.07.11v2.15c0,2.29,0,2.38-.14,2.55a3.46,3.46,0,0,1-.4.32,8.08,8.08,0,0,1-3.87,1.59,11.92,11.92,0,0,1-1.57,0Z"/><path id="path2842" class="cls-1" d="M310,242.71a4.85,4.85,0,0,1-3.13-1.23,4.6,4.6,0,0,1-1.27-3.09c0-.41-.05-.85,0-4.21a24.44,24.44,0,0,1,.06-3.86.7.7,0,0,1,.16-.19l.11-.08h.89c.86,0,.9,0,1,.06a.55.55,0,0,1,.2.17l.07.11v3.88c0,3.42,0,3.92.06,4.19a1.94,1.94,0,0,0,.55,1.29,2.16,2.16,0,0,0,1.66.59,3.5,3.5,0,0,0,1.71-.28c.51-.25.74-.64.91-1.53a32.17,32.17,0,0,0,.09-4.22c0-4.34,0-4,.24-4.16l.11-.08h.93c1,0,1,0,1.17.22l.08.11v3.48a40.92,40.92,0,0,1-.11,4.88,4.15,4.15,0,0,1-1.56,3,3.45,3.45,0,0,1-.72.46,5.05,5.05,0,0,1-1.57.47,13.27,13.27,0,0,1-1.64.05Z"/><path id="path2844" class="cls-1" d="M322.13,242.53a.63.63,0,0,1-.2-.14.44.44,0,0,1-.14-.46c.05-.22,4.45-11.57,4.52-11.66s.18-.19,1.21-.19,1.07,0,1.21.19,1.13,2.69,2.42,5.87c2.06,5.05,2.35,5.8,2.35,5.93a.46.46,0,0,1-.23.4c-.1.07-.1.07-1.13.06h-1l-.11-.09c-.14-.11-.14-.1-.81-1.84-.3-.8-.57-1.47-.58-1.5s-.15-.05-2.07-.06-2,0-2.06,0l-.58,1.57c-.3.84-.58,1.56-.61,1.62a.71.71,0,0,1-.15.16c-.09.07-.11.07-1,.07Zm6.59-5.81-1.16-3.12s0,0,0,0-1.17,3.13-1.18,3.15.54,0,1.21,0h1.23l0-.11Z"/><path id="path2846" class="cls-1" d="M338,242.51a.52.52,0,0,1-.31-.33c0-.08,0-2,0-6l0-5.85.08-.11c.16-.21.14-.2,1.55-.2,1.17,0,1.27,0,1.37.06a.56.56,0,0,1,.17.15s.69,2,1.45,4.27,1.4,4.18,1.41,4.18.66-1.87,1.45-4.15c.9-2.6,1.46-4.2,1.51-4.27.16-.23.14-.22,1.43-.22,1.1,0,1.15,0,1.25.06a.7.7,0,0,1,.18.17l.07.11v5.88c0,5.54,0,5.88-.06,6a.68.68,0,0,1-.16.18l-.11.08h-.9c-.89,0-.9,0-1-.07a.75.75,0,0,1-.16-.16l-.07-.1v-6.74l-.16.45-1.19,3.4c-1,2.84-1,3-1.15,3.08a.49.49,0,0,1-.22.14l-.84,0c-.71,0-.74,0-.87-.07a.59.59,0,0,1-.19-.16c0-.05-.58-1.63-1.22-3.52s-1.17-3.42-1.18-3.42,0,1.52,0,3.39c0,3.8,0,3.52-.22,3.68l-.12.08H339a8.36,8.36,0,0,1-.93,0h0Z"/><path id="path2832" class="cls-9" d="M296.33,242.08a5.73,5.73,0,0,1-3.72-1.83,6,6,0,0,1-1.3-3.14,10.37,10.37,0,0,1,0-1.75,6.56,6.56,0,0,1,1.46-3.44,6.14,6.14,0,0,1,6.15-1.35,3.82,3.82,0,0,1,2.65,2.72,2.81,2.81,0,0,1,.11.38l-1.27.35c-.05,0-.08,0-.15-.26a3.22,3.22,0,0,0-.91-1.46,4.11,4.11,0,0,0-3.24-.67,3.71,3.71,0,0,0-2.16,1.12,4.9,4.9,0,0,0-1.12,3.21,5.26,5.26,0,0,0,.76,3.2,4.47,4.47,0,0,0,4.9,1.42,6.23,6.23,0,0,0,1.72-.82l.21-.15v-2.17H297v-1.33h4.86v4.23l-.27.2a7.94,7.94,0,0,1-3.36,1.5,9.6,9.6,0,0,1-1.91.05Z"/><path id="path2834" class="cls-9" d="M309.78,242.18a4.23,4.23,0,0,1-2.57-1.07,3.69,3.69,0,0,1-1-2.17,29.48,29.48,0,0,1-.12-4.77v-3.64h1.49v3.88c0,4.12,0,4.06.16,4.68a2.26,2.26,0,0,0,1.63,1.63,4.82,4.82,0,0,0,2.35,0,2.05,2.05,0,0,0,1.65-1.64c.19-.71.19-.64.21-4.75l0-3.78h1.49v3.51c0,2,0,3.7,0,4-.13,1.78-.59,2.74-1.66,3.47a4.37,4.37,0,0,1-1.64.63,14.63,14.63,0,0,1-1.93.05Z"/><path id="path2836" class="cls-9" d="M322.36,241.86l2.21-5.72,2.15-5.55h1.61l2.31,5.68L333,242c0,.05,0,.06-.82.06h-.84l-.15-.38-.66-1.73L330,238.6h-4.85l-.63,1.73-.63,1.73H322.3l.06-.17Zm7.12-4.57-.73-2c-.39-1.05-.84-2.27-1-2.72s-.27-.81-.28-.82a2.56,2.56,0,0,0-.12.43,23.82,23.82,0,0,1-1.07,3.2l-.7,1.87c0,.05.08.06,1.94.06s2,0,2-.05Z"/><path id="path2838" class="cls-9" d="M338.24,236.3v-5.73h2.25l1.52,4.57c.84,2.51,1.57,4.72,1.62,4.92a1.88,1.88,0,0,0,.12.34s.19-.55.42-1.21l1.69-4.9,1.28-3.71h2v11.46h-1.42v-4.82c0-2.65,0-4.8,0-4.78s-.72,2-1.57,4.45l-1.67,4.78-.13.36H343l-1.64-4.85c-.9-2.67-1.65-4.87-1.66-4.9s0,2.16,0,4.85V242h-1.42V236.3Z"/><path id="path805" class="cls-10" d="M288.5,199.21a4.62,4.62,0,0,1,.19,1.58c.18.11,3.05-2.45,3.05-2.33,0,.54.07,1.64.07,1.64s3-2.83,3.1-2.53a9.17,9.17,0,0,1,0,2l2.34-2.58c.26-.28.22.35.24,1.38,0,.18,3.24-2.39,3.44-2.43.42-.09.55,1.34.53,1.69s3-1.72,2.86-1.45l.22,1.52c.84-.12,2.83-.86,4-.67.39.06.37.26,0,.4-5.79,2.34-10.24,5.87-12.83,10.79-.88,1.68-1.15,3.14-.92,3.51,0,0,1-2.24,2.21-2.59.16,0,.26,1.43.42,1.35A18.19,18.19,0,0,1,299,207.4c.17-.22.46,1.18.64,1a8.16,8.16,0,0,1,1.36-2.55c.13-.15.36,1.42.51,1.29.94-.86,1.82-3,2.17-3.19s.29,1.8.52,1.63c0,0,1.34-2.68,2.13-3.17.51-.31.49,1.46.49,1.46a29.64,29.64,0,0,0,2.67-3.39c.24-.33.11,2.19.37,2.29s2.53-1.93,2.77-2,.35.59-.07,1.08L309.85,205c.52.1.72,0,1.1.05,1.11.29-2.08,2.12-2,2.47,0,0,1.54,0,1,.27s-2.4,2.83-2.4,2.74,1,0,1,.31a17.56,17.56,0,0,1-1.71,3.32c-.09-.09.9-.12,1,.15.25.51-1.73,2.77-1.34,3.16.05.05,1.13,0,1.61.12a15.38,15.38,0,0,1,.71,3.95,38.16,38.16,0,0,1,1.13-5c.27-.69,1.13,1,1.2.89a23.55,23.55,0,0,1-.05-3.6c0-.31.66.33.65,0a8.86,8.86,0,0,1,.06-2.08c.11-.5.64.91.84.53,0,0-.64-2.45-.37-3.14.18-.46.6,1.1.89,1.16a7.09,7.09,0,0,1,.14-2.4l.89,1c.19-.31.16-3.28.34-3.55s1.07,1.11,1.21.9-.39-2.4-.28-2.57,1.18.61,1.2.6c.41-.42.4-1.45.57-1.84.47-1,3.14-1.18,3.46-.44a3,3,0,0,1,0,1.38,5,5,0,0,0,1.35,0A14.88,14.88,0,0,0,322,206c0,.18,1.34,0,1.35.13.12,1.27-.17,1.39-.17,1.39s.89-.13.91,0a3.52,3.52,0,0,1-.5,2.11c-.06.1,1.26-.1,1.28,0a9.48,9.48,0,0,1,0,3.06c0,.11,1.29-1,1.31-.84.2,1.14,0,2.36.09,3.54,0,.27.86-.81.94-.5s-.19,2.56-.06,2.69a6.76,6.76,0,0,1,1.52,0,3.74,3.74,0,0,1,.9,2.86c.3-.22.19-2.41-.12-4.41,0-.21,1.07-.13,1-.33a4.16,4.16,0,0,1-1.61-2.77c-.08-.44,1.17-.35,1.17-.35-.35-.8-1-1-1.48-1.72-.17-.25,1.3-.37,1.3-.44,0-.77-1.24-1.13-1.89-1.93-.28-.34,1.34-.36,1.34-.36-.48-.66-2-1-2.84-1.82-.44-.48,1.59-.94,1.56-1-.22-.7-2.13-.92-3-1.71-.19-.16,1.2-.71,1.2-.71-.14-.3-3.18-2.3-1.63-2.11.65.08,2,1,2.08.87a4.52,4.52,0,0,1,.08-1.31c.51-.53,2.26,2.24,2.86,2.13,0,0,.22-2,.49-2,.64-.12,1.42,2.89,2.06,2.89.08,0,.13-1.74.46-1.84s.78,2,1.25,2.41.44-1.61.69-1.22c.43.62.53,1.92,1.12,2.49.38.37.45-1.79.88-1.5s.38,1.45.93,2c.26.26.44-1.43.74-1.18s.45,2.28.73,2.61.79-1.09,1.17-.85.21,2,.46,2.34c.52.79.79-1,1.13-.69s.76,2.24,1,2.4c.48.37.75-.93,1.11-.75s.8,2.77,1,2.7.5-6-1.8-8.54c-3.75-4.11-10.46-6.48-15.94-6.54,0,0,2.75-.55,2.83-1,.15-.91,1.51-.8,2.47-.59.17,0,.08-1.61.1-1.61a4.74,4.74,0,0,1,2.43,1c.25.15-.51-1.64-.24-1.49,1,.6,2.21.78,2.92,1.52.19.19-.21-1.39-.21-1.39.52-.13,1.55.63,2,1.33.2.35,0-1.84.14-1.45,0,0,1.82.62,2,1.39,0,0,.15-1.39.39-1.32.73.19,1.37,1.43,1.94,1.6,0,0-.24-1.24-.05-1.19a13.94,13.94,0,0,1,2.86,1.19c-.77-1.93-3.71-4-8.86-4.5a29.23,29.23,0,0,0-8,.5c-2.67.62-4.78,1-4.35.55,1.77-1.73,4.62-1.94,5.4-2.34.56-.29-1.89-1.23-1.41-1.37s2.68-.3,2.68-.3c.48-.37-1.59-1.1-1.28-1.64.62-1.08,4.28-.1,4.59-.51.1-.14-1.57-1.13-1.5-1.27.27-.55,3.52.4,3.6-.07,0,0-1-.74-1.69-1.34-.08-.07,2.91-.88,2.91-.88a4.79,4.79,0,0,0-1.2-.64c-.63-.24,2.63-1.09,2.63-1.09-4.12-1.88-14.82,3.48-16.94,9-.55,1.33-.57-.12-.45-1.24a16.26,16.26,0,0,0,.13-3.38c0-.33-.87.87-.93.55-.21-1.18.42-2.48.13-3.79-.1-.44-1.2,1.3-1.35.86-.4-1.21.3-2.92,0-4.59-.11-.65-1.16,1.4-1.51.81s-.23-3.19-.42-3.57-1.09,1.2-1.17.92c-1.27-4.6.42-5.18-2-2.58-.08.09-.62-2.72-.72-2.63-1,2.13-2.63-1.52-3.18-1.18s1.14,1.67,1.15,2.31c0,.31-1.43.33-1.43.33,0,.53,2.73,2,2.82,2.58s-1.91.36-1.91.36c.06.64,2.31,1.26,2.44,1.94.07.38-1.05.46-1,.84.06.59,2.18,1.75,2.25,2.35,0,.42-1.35.59-1.39,1s2.81,2,2.81,2.49c0,.62-1.14.3-1.65.62-.73.44,2.34,2.23,2.47,2.74s-1.23.05-1.27.46,1.5,1.34,1.86,2.26,0,1.14-.52.78c-1-.72-5.16-5.12-6.26-6.29a12.79,12.79,0,0,0-8.13-3.73c-.34.1,1.75,1.59,1.77,2.12,0,.14-.94.34-.9.39a9.72,9.72,0,0,0,2.38,1.27l-.52.93c.12.27,1,.35,2.34.8,0,0-1,.64-1,.69a8,8,0,0,0,2.13,1l-1.38.46c-.08.27,3.11,1.55,3.11,1.55a9.07,9.07,0,0,0-1,.91,14.94,14.94,0,0,0,2.59.79s-1.66.57-1.65.58c.62.62,2.31.82,2.71,1.83,0,0,.23.58-.44.47a28.09,28.09,0,0,0-14.67-2.16c-8.11,1.06-14.3,8.11-14.19,8.81C285.29,200.87,288.19,198.79,288.5,199.21Z"/><ellipse class="cls-8" cx="317.86" cy="199.72" rx="1.71" ry="1.82" transform="translate(-57.51 203.93) rotate(-32.79)"/><ellipse class="cls-8" cx="320.72" cy="201.36" rx="2.08" ry="1.96" transform="translate(-22.23 361.95) rotate(-57.21)"/><ellipse class="cls-8" cx="318.4" cy="202.98" rx="2.22" ry="2.09" transform="translate(-24.66 360.75) rotate(-57.21)"/><rect x="302.35" y="269.03" width="2.58" height="1.93"/><path class="cls-8" d="M289.42,270.28s17,1.29,27.38-.94c0,0,.87.59-.38,2.06s-4.44,1.78-6.18,2.09a4.36,4.36,0,0,0-.39,1.43c0,.49,1.1.44,1.63.33l.52-.1s-.24,1.83-6.67,2.08c-2.11.08-9.06.23-10.53-1.83a8.08,8.08,0,0,0,1.61,0c.33-.1.09-1.43,0-1.63s-4.51,0-6.81-2.13a3,3,0,0,1-.84-1.48S289.42,270.28,289.42,270.28Zm8.85,3.56a47.19,47.19,0,0,0,10,0,2.94,2.94,0,0,1-.1,1.4c-.24.39-6.41.68-9.52.14C298.13,275.22,298.12,274.6,298.27,273.84Z"/><path class="cls-11" d="M291.79,269.45s6.3-6.7,4.37-20.67c0,0,6.56,1.69,13.25,11.34,0,0,2,2,4.25,8.95Z"/></g></g></g></g></svg>