<svg xmlns="http://www.w3.org/2000/svg" height="480" width="640" viewBox="0 0 639 480"><defs><style>.a{fill:#ed0000;}.b{fill:#fff;}.c{fill:#0050f0;}</style></defs><title>Puerto Rico</title><polygon class="a" points="415.69 240 332.55 288 639 288 639 192 332.55 192 415.69 240"/><polygon class="a" points="639 96 639 0 0 0 166.28 96 639 96"/><polygon class="a" points="166.28 384 0 480 639 480 639 384 166.28 384"/><polygon class="b" points="166.28 384 639 384 639 288 332.55 288 166.28 384"/><polygon class="b" points="332.55 192 639 192 639 96 166.28 96 332.55 192"/><path class="c" d="M332.55,288l83.14-48-83.14-48L166.28,96,0,0V480l166.28-96ZM62.48,215.28H120.6l18-55.28,18,55.28h58.12l-47,34.16,18,55.28-47-34.16-47,34.16,18-55.28Z"/><polygon class="b" points="91.54 304.72 138.56 270.56 185.59 304.72 167.63 249.44 214.65 215.28 156.53 215.28 138.56 160 120.6 215.28 62.48 215.28 109.5 249.44 91.54 304.72"/></svg>