<svg xmlns="http://www.w3.org/2000/svg" height="480" width="640" viewBox="0 0 640 480"><defs><style>.cls-1,.cls-9{fill:#fff;}.cls-2{fill:#369443;}.cls-10,.cls-12,.cls-2,.cls-3,.cls-4,.cls-5,.cls-6,.cls-7,.cls-8,.cls-9{stroke:#010002;stroke-width:3px;}.cls-12,.cls-2,.cls-3,.cls-4,.cls-8{stroke-miterlimit:10;}.cls-3,.cls-5{fill:#f4c53d;}.cls-11,.cls-4,.cls-7{fill:none;}.cls-6{fill:#f6e200;}.cls-8{fill:#0081c6;}.cls-10{fill:#a60032;}.cls-12{fill:#162667;}</style></defs><title>Virgin Islands</title><g id="Layer_2" data-name="Layer 2"><g id="Virgin_Islands" data-name="Virgin Islands"><rect id="rect3" class="cls-1" width="640" height="480"/><path id="path5" class="cls-2" d="M199.56,316.74s-.52-3.51,6.14-6.08,7.18-12.16,5.85-18.55c0,0-3.48,6.08-7.7,8.11,0,0-6.88,3.59-7.2,10.43a22.55,22.55,0,0,1-.57,4.45c-.28,1.07-3.33-8.57,2.44-15.74,6-7.4,7.62-13.4,2.89-25.09,0,0-.44,7.09-5.11,11.14s-5.26,4.36-5.18,14c0,0,.07,3.35-1.7,4.44,0,0-3.63-5.3-4.59-8.81s-1.41-5,2.74-9c0,0,13.28-8.58,3.7-27.36,0,0-.3,6.47-4.88,10.29s-4.22,6.39-4.44,13-.67,6.16-1.18,7.09c0,0-8.44-15.51-1.92-23.77s10.14-10,3-25.33c0,0,.32,7.87-5.43,11.77s-4.41,13-4.41,13a12.94,12.94,0,0,1-.81,5.92s-8.13-15.86-.37-24.39c6.59-7.25,7-12.31,3.48-22.6,0,0-.44,4.75-4.07,7.33s-6.51,5.14-5.85,15c0,0,.3,6.94-.59,8.88,0,0-3.4-6.31-4.37-10.44S158,238,160.56,233.82s12.51-16,.59-33a26,26,0,0,1-3.4,10.52c-3,5-1.63,10.91-1,15.43a16.79,16.79,0,0,1-1.55,8.88s-5.18-9.51-4.07-20.42-3.33-19.87-13.39-26.34c0,0-7.33,17,2.66,25.64,0,0,8.51,8.42,10.66,18.63,0,0-6.44-.62-12.28-12s-18-9.59-18.8-9.66c0,0,2,17.61,20.65,22.6,0,0,11.91,2,14.13,10.76,0,0,2,6,2.81,9.2,0,0-3.77-1.48-7.25-6.62s-3-5.77-14.8-6.94c0,0-4.74-.55-7.25-3.9,0,0,5,18.63,17.69,18.47,0,0,11.62-1.25,18.13,14,0,0-1.26-.78-3-1.95s-6-3.35-14.5-2.34-10.88-.39-13-1.09c0,0,8.58,15.74,20.72,11.07s18,12.38,18.13,12.7a45.85,45.85,0,0,1-3.77-3.35c-2.15-2.1-6.6-4.7-15-2a20.89,20.89,0,0,1-12.21.47A19.35,19.35,0,0,0,161.23,292c13.84-1.95,17.32,10.21,17.32,10.21a31.59,31.59,0,0,1-3.11-2.1c-1.26-1-5.92-3.66-15.91-.7s-13.62-.47-13.62-.47,5.55,10.13,16.21,11.3c0,0,5.92-.08,8.44-1s9.18-2.42,13.76,4.21a5.9,5.9,0,0,1-3.18-.62s-7.1-2.57-12.51,1.95c0,0-4.81,4.91-11.62,4,0,0,8.81,8.57,22.79,1.33,0,0,4.74-3.43,8.21-.78S199.56,316.74,199.56,316.74Z"/><path id="path7" class="cls-3" d="M277.41,105.54s-1.62-14.5,10-15.9c12.09-1.46,18.06,1.09,18.06,1.09l5.43,10.65L309,108.55l-7.5,3.43s1.28-11-8.81-11.24c-2.56-.06-4.06,1-8.11.31S278.32,104.88,277.41,105.54Z"/><path id="path9" class="cls-3" d="M359,141.44c-1.73,2.23-8.63,3-8.63,3s7.1,5.46,10.16,13.25-82.34.05-82.34.05a22.65,22.65,0,0,0,6.22-7.64s-3.77,1.4-7.55-2.34c0,0,2.81.94,6.51-4.68,0,0,5.48-7,9.32-8.88,0,0-1.78,1.09-6.07-1.25,0,0,7.4-.94,10.06-13.56a18.65,18.65,0,0,1,3.26-6.86c2.81-4.05,2.22.78,7.4-5.46,0,0,2.37-4.42.3-7.12s-4.29-1.71-8.63-4.31-6.27-4.05-4.79-8.05,5.33-3.38,5.87-3.38.84-3.48,5.58-5.87,17.32-1.35,19.19-.31,9.47,3.27,13.91,14.5-1.18,15.43,10.9,32.37c0,0-4.83,1-7.94.1C341.69,125,348,136.14,359,141.44Z"/><path id="path11" class="cls-4" d="M306.12,94.08c-9.84-.47-6.07-9.85-6.07-9.85"/><path id="path13" class="cls-3" d="M323.22,95.37A9.68,9.68,0,0,1,320,92.6c-2.06-2.73-6.67-4.05-9.15-1.48,0,0-2.52,2.81-4.74,3a12.8,12.8,0,0,1,4.26,2.38c1.74,1.6,3.55,2.77,6.14,2.42s3-1.71,4.22-2.53A6.35,6.35,0,0,1,323.22,95.37Z"/><path id="path15" class="cls-5" d="M387.23,235.53s9.18,7.48,16.87,0c0,0,3.11,3.74,9.32,2.65s7.25-4.36,7.84-6.23c0,0,5.38,3.14,9.92.66s4.54-6.22,4.54-6.22,7.89,1.56,11.94-3.79,1.58-10.65-.59-11.27c0,0,8.53,2.24,10.85-5.09,2-6.23-2.47-9.46-2.47-9.46s18-.09,25.36-5.72c0,0,6.12-3.84,2.47-7.9,0,0,16.18-2.6,20.23-9a5.58,5.58,0,0,0,1.18-4.88,2,2,0,0,0-1.87-1.87s18.45-2.85,23.78-8.94a6.88,6.88,0,0,0,1.28-6.55,6.72,6.72,0,0,0-.72-1.65s16.8-3.55,25.09-11c0,0,4.78-4.26,2.32-10,0,0,28.07-7.69,21.56-20.05,0,0,13.12-4.26,9-16.11,0,0,10.85-5.51,6.12-14.24-4.53-8.35-18.45,1.45-34.93,6,0,0-44.6,14-66.56,17.78l-62.4,92.9-36.41,14Z"/><path id="path17" class="cls-5" d="M386.79,167.11s5.85-4.39,16.28.78c0,0,3.51,2.42,6.28-.23a5.62,5.62,0,0,0-.65-8.65c-7.77-5.77-10.66-23.07,1.18-30.24,0,0,17.17-10.18,80.12-26.2,0,0,5.27-1.46,8.09-.76a7.83,7.83,0,0,1,5.67,5.7s2.82,8-6.65,12.59a71.14,71.14,0,0,1-8.68,3.22,6.2,6.2,0,0,1,6.91,3.74c2,4.57-.89,9.25-9.77,12.26a50.92,50.92,0,0,1-5.82,1.77s7.6,2.18,3.95,8.31c0,0-3.26,6.44-14.75,7.59,0,0,8.58.94,2.52,9.09,0,0-2.66,4.47-11.05,6.13,0,0,6.36.21,3.16,5.92s-10.75,8.94-18.18,9.46a31.34,31.34,0,0,1-6.83-.42s7.05,3.53,2.91,9.46c0,0-3.06,4.21-10.71,4,0,0,2,6.61-3.63,9.12a7.93,7.93,0,0,1-8-1.17s1.48,7.09-4.88,9.59c0,0-3.18,1.64-7.92,0,0,0-3.63,8.11-16.5,2.42S386.79,167.11,386.79,167.11Z"/><path id="path19" class="cls-6" d="M353.86,191"/><path id="path21" class="cls-7" d="M585.11,93.07s-20.23,11.71-83.22,23.42"/><path id="path23" class="cls-5" d="M223.87,300.17s-7.5,12.89-16.58,13.09c0,0-15.61-1.9-20,2.18-3.08,2.85-6.22,5.2-7.5,12.47s2.47,8.83,3.35,9.14c0,0,.69,5.2,5.82,3.84,0,0,.3,5.4,9.37,2.81s12.83-1.77,14.6-10.81,3.42-8.89,5-10c2.17-1.46,6.25-2.83,9.27-4.57,2.72-1.57,13.12-6.86,16.67-7.27s2.76-12.37,2.76-12.37h-9.18L233,292.17Z"/><path id="path25" class="cls-7" d="M576.13,109.18S521.39,127,495.89,129.23"/><path id="path27" class="cls-7" d="M554.57,129.23a590.22,590.22,0,0,1-69.73,16.44"/><path id="path29" class="cls-7" d="M527.17,150.23S490.88,159,473.56,160.4"/><path id="path31" class="cls-4" d="M502.82,167.37s-30.69,6.4-38.47,7.17"/><polygon id="polygon33" class="cls-8" points="468.27 214.05 469.81 262.75 469.81 262.75 461.21 257.76 461.21 257.76 446.9 319.56 440.99 315.32 454.93 256.11 454.93 256.11 445.21 256.29 445.21 256.29 468.27 214.05"/><path id="path35" class="cls-4" d="M483.29,183.16s-22.4,3.4-31.31,3.22"/><path id="path37" class="cls-4" d="M455.46,196.77s-9.06-.43-13.41-1.15"/><path id="path39" class="cls-4" d="M447.07,211.32s-7.7-2.08-12.24-5"/><path id="path41" class="cls-4" d="M435.73,226.39a17.65,17.65,0,0,1-8.78-8.52"/><path id="path43" class="cls-4" d="M421.27,231.95s-4.59-4.1-4.88-8.68"/><polygon id="polygon45" class="cls-8" points="523.9 235.7 503.54 279.46 503.54 279.46 498.17 270.81 498.17 270.81 455.2 321.58 450.55 316.37 493.36 266.24 493.36 266.24 484.7 261.59 484.7 261.59 523.9 235.7"/><path id="path47" class="cls-4" d="M404.1,235.53s1.72-1.48.54-7.92"/><polygon id="polygon49" class="cls-8" points="505.33 203.58 494.85 251.04 494.85 251.04 487.77 243.88 487.77 243.88 449.31 317.83 443.38 314.37 482.1 240.57 482.1 240.57 472.67 238.09 472.67 238.09 505.33 203.58"/><path id="path51" class="cls-4" d="M406.32,218.16a9.56,9.56,0,0,0,.59-4.75"/><path id="path53" class="cls-5" d="M252.77,235.54s-9.18,7.48-16.87,0c0,0-3.11,3.74-9.32,2.65s-7.25-4.36-7.84-6.23c0,0-5.38,3.14-9.92.66s-4.54-6.22-4.54-6.22-7.89,1.56-11.94-3.79-1.58-10.65.59-11.27c0,0-8.53,2.24-10.85-5.09-2-6.23,2.47-9.46,2.47-9.46s-18-.09-25.36-5.72c0,0-6.12-3.84-2.47-7.9,0,0-16.18-2.6-20.23-9a5.58,5.58,0,0,1-1.18-4.88,2,2,0,0,1,1.87-1.87s-18.45-2.85-23.78-8.94a6.88,6.88,0,0,1-1.28-6.55,6.72,6.72,0,0,1,.72-1.65s-16.8-3.55-25.09-11c0,0-4.78-4.26-2.32-10,0,0-28.07-7.69-21.56-20.05,0,0-13.12-4.26-9-16.11,0,0-10.85-5.51-6.12-14.24,4.53-8.35,18.45,1.45,34.93,6,0,0,44.6,14,66.56,17.78l62.4,92.9,36.41,14Z"/><path id="path55" class="cls-4" d="M438.69,125.91s-10.36,4.16-13.81,9.87-1.18,11.27,0,14.46c.59,1.6,7.89,15.68-.69,25.86"/><path id="path57" class="cls-5" d="M253.21,167.11s-5.85-4.39-16.28.78c0,0-3.51,2.42-6.27-.23a5.62,5.62,0,0,1,.65-8.65c7.77-5.77,10.66-23.07-1.18-30.24,0,0-17.17-10.18-80.12-26.2,0,0-5.27-1.46-8.09-.76a7.83,7.83,0,0,0-5.67,5.7s-2.82,8,6.65,12.59a71.14,71.14,0,0,0,8.68,3.22,6.2,6.2,0,0,0-6.91,3.74c-2,4.57.89,9.25,9.77,12.26a50.92,50.92,0,0,0,5.82,1.77s-7.6,2.18-3.95,8.31c0,0,3.26,6.44,14.75,7.59,0,0-8.58.94-2.52,9.09,0,0,2.66,4.47,11.05,6.13,0,0-6.36.21-3.16,5.92s10.75,8.94,18.18,9.46a31.36,31.36,0,0,0,6.83-.42s-7.05,3.53-2.91,9.46c0,0,3.06,4.21,10.71,4,0,0-2,6.61,3.63,9.12a7.93,7.93,0,0,0,8-1.17s-1.48,7.09,4.88,9.59c0,0,3.18,1.64,7.92,0,0,0,3.63,8.11,16.5,2.42S253.21,167.11,253.21,167.11Z"/><path id="path59" class="cls-4" d="M438.54,187.16s0-.05-3.7-1.2"/><path id="path61" class="cls-4" d="M460.39,172.2a74.82,74.82,0,0,1-12.24,1.3"/><path id="path63" class="cls-4" d="M468.93,157s-7.25.73-14.06.62"/><path id="path65" class="cls-4" d="M479.73,141.08s-10.46,2.08-16.08,2.18"/><path id="path67" class="cls-4" d="M488.42,123.31a199,199,0,0,1-22.5,5"/><path id="path69" class="cls-4" d="M444.61,135.88s9.27,8.62-1.87,16.63c0,0,4.64,7.27-4.64,14.86"/><path id="path71" class="cls-5" d="M254,240.77s-1.89,10.14-16.87,22.91c0,0-11.56,10.2-11.26,21.94.3,12-2.07,13.3-6.61,17.35,0,0,9.37.73,13.91-5.51,0,0-.2,10.39-1.58,11.33,0,0,2.94.19,7.2-4.47a19.36,19.36,0,0,1,4.93-3.74s-2.76,7.17-.59,13.82c0,0,.69-2.6,4.34-3.74,0,0,6.61-1.35,9.18-10.91,0,0,1.68-6.34,12-12,0,0,11.74-4.43,11.45-10.22S254,240.77,254,240.77Z"/><path id="path73" class="cls-4" d="M440.56,171s1.38,13.87-15.59,13.87c0,0,3.26,12.37-13.12,12,0,0-1.87,9.87-13.72,7.9"/><path id="path75" class="cls-5" d="M416.15,300.17s7.5,12.89,16.58,13.09c0,0,15.61-1.9,20,2.18,3.08,2.85,6.22,5.2,7.5,12.47s-2.47,8.83-3.36,9.14c0,0-.69,5.2-5.82,3.84,0,0-.3,5.4-9.37,2.81s-12.83-1.77-14.6-10.81-3.42-8.89-5-10c-2.17-1.46-6.25-2.83-9.27-4.57-2.72-1.57-13.12-6.86-16.68-7.27s-2.76-12.37-2.76-12.37h9.18l4.44-6.55Z"/><path id="path77" class="cls-5" d="M386,240.77s1.89,10.14,16.87,22.91c0,0,11.56,10.2,11.26,21.94-.3,12,2.07,13.3,6.61,17.35,0,0-9.37.73-13.91-5.51,0,0,.2,10.39,1.58,11.33,0,0-2.94.19-7.2-4.47a19.36,19.36,0,0,0-4.93-3.74s2.76,7.17.59,13.82c0,0-.69-2.6-4.34-3.74,0,0-6.61-1.35-9.18-10.91,0,0-1.68-6.34-12-12,0,0-11.74-4.43-11.45-10.22S386,240.77,386,240.77Z"/><path id="path79" class="cls-7" d="M424.21,313.26s2.69.6,8.51,0"/><path id="path81" class="cls-4" d="M449.1,320.54s8.19-1.25,7.79,16.52"/><path id="path83" class="cls-4" d="M444.17,324.59s7.4-.94,6.91,16.31"/><path id="path85" class="cls-7" d="M372.73,283a12.15,12.15,0,0,1,6,3.53c2.47,2.81,7.2,2.29,7.2,2.29s-2.57-2.08-3.45-7.27-3.75-6.75-3.75-6.75"/><path id="path87" class="cls-7" d="M387.23,269.89a12.14,12.14,0,0,1,6,3.53c2.47,2.81,7.2,2.29,7.2,2.29s-2.57-2.08-3.45-7.27-3.75-6.75-3.75-6.75"/><path id="path89" class="cls-7" d="M389.67,290.06a10.6,10.6,0,0,1,5.26,3.09c2.15,2.45,6.29,2,6.29,2s-2.24-1.81-3-6.35-3.27-5.9-3.27-5.9"/><path id="path91" class="cls-3" d="M331.62,371.56s2.69,11.87,12,10.91c0,0,6.61-.62,6.12-11.64,0,0,9.77,5.2,11.35-7.69,0,0,8.88,2.08,8.78-10,0,0,8.29,1.46,7.3-9.25,0,0,9,2.39,9-7.69,0,0,21-3.49-22.79-43.44l-39.07,23.28Z"/><path id="path93" class="cls-5" d="M327.27,318.29s6.51,5.78,11.15-2.85c0,0,6.31-.31,7.3-5.09,0,0,5.13-.52,6.12-5.4,0,0,7-.73,6.81-6.65,0,0,12.74-1,0-15.4s-34.34,23.92-34.34,23.92Z"/><path id="path95" class="cls-4" d="M349.77,370.83s-1-20.89-19.09-50.81"/><path id="path97" class="cls-4" d="M361.12,363.14s2.81-12.05-22.69-47.7c0,0,3-8.52-6.12-14"/><path id="path99" class="cls-4" d="M369.9,353.17s.79-13-24.17-42.81c0,0,2.21-7.69-6.84-13.82"/><path id="path101" class="cls-4" d="M377.2,343.92s-.94-13.2-25.36-39c0,0,1.22-7.9-7.53-12.78"/><path id="path103" class="cls-4" d="M386.18,336.23s-1.78-15.07-27.53-37.93c0,0,.89-5.92-7.7-12"/><path id="path105" class="cls-3" d="M308.4,371.56s-2.69,11.87-12,10.91c0,0-6.61-.62-6.12-11.64,0,0-9.77,5.2-11.35-7.69,0,0-8.88,2.08-8.78-10,0,0-8.29,1.46-7.3-9.25,0,0-9,2.39-9-7.69,0,0-21-3.49,22.79-43.44l39.07,23.28Z"/><path id="path107" class="cls-5" d="M312.74,318.29s-6.51,5.78-11.15-2.85c0,0-6.31-.31-7.3-5.09,0,0-5.13-.52-6.12-5.4,0,0-7-.73-6.81-6.65,0,0-12.74-1,0-15.4s34.34,23.92,34.34,23.92Z"/><path id="path109" class="cls-4" d="M290.25,370.83s1-20.89,19.09-50.81"/><path id="path111" class="cls-4" d="M278.9,363.14s-2.81-12.05,22.69-47.7c0,0-3-8.52,6.12-14"/><path id="path113" class="cls-5" d="M320,314.72c6.31,0,13.47,39.44,11.61,63.19-.67,8.63-5.3,15.68-11.61,15.68s-10.94-7-11.61-15.68c-1.86-23.76,5.3-63.19,11.61-63.19"/><path id="path115" class="cls-4" d="M270.12,353.17s-.79-13,24.17-42.81c0,0-2.21-7.69,6.84-13.82"/><path id="path117" class="cls-4" d="M262.82,343.92s.94-13.2,25.36-39c0,0-1.22-7.9,7.53-12.78"/><ellipse id="ellipse119" class="cls-5" cx="320.01" cy="314.41" rx="8.74" ry="12.94"/><path id="path121" class="cls-4" d="M253.84,336.23s1.78-15.07,27.53-37.93c0,0-.89-5.92,7.7-12"/><path id="path123" class="cls-9" d="M320,311.58s74.09-32.83,74.27-108.78H245.74C245.92,278.75,320,311.58,320,311.58Z"/><line id="line125" class="cls-4" x1="280.02" y1="202.8" x2="291.44" y2="202.8"/><line id="line127" class="cls-4" x1="257.16" y1="202.8" x2="268.59" y2="202.8"/><line id="line129" class="cls-4" x1="302.87" y1="202.8" x2="314.3" y2="202.8"/><path id="path131" class="cls-10" d="M257.16,202.8v48.53s5.67,11.25,11.43,18.31V202.8Z"/><path id="path133" class="cls-10" d="M280,202.8v80s7.15,7,11.43,10.38V202.8Z"/><path id="path135" class="cls-10" d="M302.87,202.8v98.88s8.15,5.27,11.43,7V202.8H302.87Z"/><line id="line137" class="cls-7" x1="257.16" y1="202.8" x2="268.59" y2="202.8"/><line id="line139" class="cls-7" x1="280.02" y1="202.8" x2="291.44" y2="202.8"/><line id="line141" class="cls-7" x1="302.87" y1="202.8" x2="314.3" y2="202.8"/><path id="path143" class="cls-10" d="M382.85,202.8v48.53s-5.67,11.25-11.43,18.31V202.8Z"/><path id="path145" class="cls-10" d="M360,202.8v80s-7.15,7-11.43,10.38V202.8Z"/><path id="path147" class="cls-10" d="M337.15,202.8v98.88s-8.15,5.27-11.43,7V202.8h11.43Z"/><line id="line149" class="cls-11" x1="398.27" y1="385.02" x2="391.38" y2="393.44"/><line id="line151" class="cls-11" x1="382.85" y1="384.09" x2="401.82" y2="401.62"/><path id="path153" class="cls-8" d="M439.78,340.38l-2.88,11.78h0l7.89,7.86h0l-11.15,47.08-9.91-13.32L409,400.63l11.15-47.08h0l10.33-2.88h0l2.68-11.76A7,7,0,0,1,439.78,340.38Z"/><path id="path155" class="cls-8" d="M442.42,332.61l-5.68,10.59h0l5.69,9.74h0L420.1,395.38l-6.3-15.57-15.87,2.62L420.26,340h0l10.69,0h0l5.48-10.63S440.41,329.39,442.42,332.61Z"/><path id="path157" class="cls-8" d="M443.38,335.69l-15.1,19.18h0l3.46,10.84h0l-30.83,36.06-2.82-16.66-16-1.21,30.83-36.06h0l10.41,2.57h0l16-20.37S443.62,332.18,443.38,335.69Z"/><path id="path159" class="cls-4" d="M207.11,288.84"/><path id="path161" class="cls-7" d="M54.89,93.07s20.23,11.71,83.22,23.42"/><path id="path163" class="cls-7" d="M63.87,109.18s54.75,17.86,80.24,20.05"/><path id="path165" class="cls-7" d="M85.43,129.23a590.22,590.22,0,0,0,69.73,16.44"/><path id="path167" class="cls-7" d="M112.83,150.23s36.29,8.72,53.61,10.16"/><path id="path169" class="cls-4" d="M137.18,167.37s30.69,6.4,38.47,7.17"/><path id="path171" class="cls-4" d="M156.71,183.16s22.4,3.4,31.31,3.22"/><path id="path173" class="cls-4" d="M184.54,196.77s9.06-.43,13.41-1.15"/><path id="path175" class="cls-4" d="M192.93,211.32s7.7-2.08,12.24-5"/><path id="path177" class="cls-4" d="M204.27,226.39a17.65,17.65,0,0,0,8.78-8.52"/><path id="path179" class="cls-4" d="M218.73,232s4.59-4.1,4.88-8.68"/><path id="path181" class="cls-4" d="M235.9,235.54s-1.72-1.48-.54-7.92"/><path id="path183" class="cls-4" d="M233.68,218.16a9.56,9.56,0,0,1-.59-4.75"/><path id="path185" class="cls-4" d="M201.31,125.91s10.36,4.16,13.81,9.87,1.18,11.27,0,14.46c-.59,1.6-7.89,15.68.69,25.86"/><path id="path187" class="cls-4" d="M201.46,187.16s0-.05,3.7-1.2"/><path id="path189" class="cls-4" d="M179.61,172.2a74.82,74.82,0,0,0,12.24,1.3"/><path id="path191" class="cls-4" d="M171.07,157s7.25.73,14.06.62"/><path id="path193" class="cls-2" d="M198,338.26s-.22-6.31,7.77-6.78l23.53,32.73s-.89,2.1-11.54,1.87a2,2,0,0,0-1.72,1.24C215.15,369.24,198,338.26,198,338.26Z"/><path id="path195" class="cls-4" d="M160.27,141.08s10.46,2.08,16.08,2.18"/><path id="path197" class="cls-4" d="M151.58,123.31a199,199,0,0,0,22.5,5"/><path id="path199" class="cls-4" d="M195.39,135.88s-9.27,8.62,1.87,16.63c0,0-4.64,7.27,4.64,14.86"/><path id="path201" class="cls-4" d="M199.44,171s-1.38,13.87,15.59,13.87c0,0-3.26,12.37,13.12,12,0,0,1.87,9.87,13.72,7.9"/><path id="path203" class="cls-7" d="M215.78,313.26s-2.69.6-8.51,0"/><path id="path205" class="cls-4" d="M190.89,320.54s-8.19-1.25-7.79,16.52"/><path id="path207" class="cls-4" d="M195.82,324.59s-7.4-.94-6.91,16.31"/><path id="path209" class="cls-7" d="M267.28,283a12.14,12.14,0,0,0-6,3.53c-2.47,2.81-7.2,2.29-7.2,2.29s2.57-2.08,3.45-7.27,3.75-6.75,3.75-6.75"/><path id="path211" class="cls-7" d="M252.79,269.89a12.14,12.14,0,0,0-6,3.53c-2.47,2.81-7.2,2.29-7.2,2.29s2.57-2.08,3.45-7.27,3.75-6.75,3.75-6.75"/><path id="path213" class="cls-7" d="M250.35,290.06a10.6,10.6,0,0,0-5.26,3.08c-2.15,2.45-6.29,2-6.29,2s2.24-1.81,3-6.35,3.27-5.9,3.27-5.9"/><path id="path215" class="cls-12" d="M394.28,147.62s-36.35,19-74.27-1.56c-37.92,20.57-74.27,1.56-74.27,1.56V202.8H394.28V147.62Z"/><path id="path217" class="cls-8" d="M60.77,290.72c3.6-1.47,6.19-2.89,6.18-6.73a27.1,27.1,0,0,0-1.53-6.08L41.24,204a63.3,63.3,0,0,0-3-8C37.14,194,35,193.15,32.14,192H62.86c-3.34,1.58-6.38,2.83-6.35,6.37A20.84,20.84,0,0,0,57.68,204L76.2,262l18.5-58a20,20,0,0,0,1.18-5.72c0-3.64-3.2-4.95-6.32-6.37h29.77c-2.72,1.09-4.94,1.95-6.08,4.12a63.08,63.08,0,0,0-3,8L86.06,277.91a37.85,37.85,0,0,0-1.53,6.15s-1.11,4.67,6.18,6.66Z"/><path id="path219" class="cls-8" d="M575.88,283.12V199.48a6.38,6.38,0,0,0-.71-3.33,13.21,13.21,0,0,0-5.52-4.2h27.68a11.46,11.46,0,0,0-5.52,4.16,6.58,6.58,0,0,0-.71,3.36v83.64a6.56,6.56,0,0,0,.74,3.44,15.11,15.11,0,0,0,5.49,4.16H569.65a14.55,14.55,0,0,0,5.52-4.2A6.55,6.55,0,0,0,575.88,283.12Z"/></g></g></svg>