<svg xmlns="http://www.w3.org/2000/svg" height="480" width="640" viewBox="0 0 640 480"><defs><style>.a{fill:#c00;}.b{fill:gold;}</style></defs><title>USSR</title><rect class="a" width="640" height="480"/><path class="b" d="M125.08,50.72h-21.6l17.44,12.8L114.36,84,131.8,71.36,149.24,84l-6.56-20.48,17.44-12.8h-21.6L131.8,30.08Zm6.72-7.84,3.84,11.84H148L138,61.92l3.78,11.76-10-7.28-10,7.28,3.78-11.76-9.92-7.2H128Z"/><path class="b" d="M105.06,112.52l-27.19,25.9,14.5,14.5,12.52-12.6,67,68c6.53,6.77,17.89-2.44,10.61-10.25-24.91-24.28-42.18-41.8-68.13-67.25l15.39-15.48Z"/><path class="b" d="M104.14,185.16c48.64,45.12,127.47-36.24,26.73-95.21,75,83.29,3,108.82-23.06,83.13L106.5,172l-3.19,3.58c-2-1.91-5.16-2.47-6.12.79-4-.27-6.3,1.92-7.33,6-7.38,4.89-15.37,9.18-20,16.85-2.62,8.12,2.57,11.65,8.44,11,9.62-4,12.6-12.64,17.75-19.77,3.64-1.16,6.73-2.72,7.29-6"/></svg>