<svg xmlns="http://www.w3.org/2000/svg" height="480" width="640" viewBox="0 0 640 480"><defs><style>.cls-1{fill:#fff;}.cls-2{fill:#00247d;}.cls-3{fill:#cf142b;}.cls-4{fill:#f7f0d0;}.cls-10,.cls-11,.cls-12,.cls-13,.cls-14,.cls-15,.cls-16,.cls-17,.cls-18,.cls-19,.cls-20,.cls-23,.cls-24,.cls-25,.cls-26,.cls-28,.cls-29,.cls-30,.cls-31,.cls-4,.cls-5,.cls-6,.cls-7,.cls-8,.cls-9{stroke:#000;}.cls-11,.cls-20,.cls-23,.cls-4,.cls-6,.cls-9{stroke-width:4px;}.cls-5{fill:#3ebbff;}.cls-10,.cls-17,.cls-20,.cls-26,.cls-29,.cls-5,.cls-8{stroke-linejoin:bevel;}.cls-29,.cls-5{stroke-width:4px;}.cls-20,.cls-30,.cls-6,.cls-8{fill:#cfc0a8;}.cls-10,.cls-11,.cls-17,.cls-28,.cls-7{fill:#decc59;}.cls-7{stroke-linejoin:round;}.cls-17,.cls-19,.cls-30,.cls-31,.cls-7{stroke-width:3px;}.cls-8{stroke-width:3px;}.cls-18,.cls-21,.cls-9{fill:#fcf3d6;}.cls-10,.cls-16,.cls-18,.cls-28{stroke-width:0.08px;}.cls-12,.cls-13,.cls-14,.cls-15,.cls-16,.cls-19,.cls-23,.cls-26{fill:none;}.cls-12{stroke-width:0.08px;}.cls-13{stroke-width:0.08px;}.cls-14{stroke-width:0.1px;}.cls-15{stroke-width:0.07px;}.cls-22{fill:#cd400f;}.cls-24,.cls-25{fill:#32311b;}.cls-24{stroke-width:2px;}.cls-25{stroke-width:0.05px;}.cls-26{stroke-width:5px;}.cls-27,.cls-31{fill:#608238;}.cls-29{fill:#3aa6ee;}</style></defs><title>Aden</title><g id="Layer_2" data-name="Layer 2"><g id="Aden"><rect class="cls-1" width="640" height="480"/><g id="g5393"><g id="g4834"><path id="rect6" class="cls-2" d="M0,84H640V404H0Z"/><g id="g11985"><g id="g11972"><g id="g11960"><g id="g11949"><g id="g11939"><g id="g11930"><g id="g2411"><polygon id="polygon8" class="cls-1" points="133.33 195.22 133.33 244 186.67 244 186.67 195.22 284.22 244 320 244 320 226.11 249.11 190.67 320 190.67 320 137.33 249.11 137.33 320 101.89 320 84 320 84 284.22 84 186.67 132.78 186.67 84 133.33 84 133.33 132.78 35.78 84 0 84 0 101.89 70.89 137.33 0 137.33 0 190.67 70.89 190.67 0 226.11 0 244 35.78 244 133.33 195.22"/><polygon id="polygon10" class="cls-3" points="296.15 84 189.48 137.33 213.33 137.33 320 84 320 84 296.15 84"/><polygon id="polygon12" class="cls-3" points="0 84 0 95.92 82.81 137.33 106.67 137.33 106.67 137.33 0 84"/><polygon id="polygon14" class="cls-3" points="23.85 244 130.52 190.67 106.67 190.67 0 244 0 244 23.85 244"/><polygon id="polygon16" class="cls-3" points="320 244 320 232.07 237.19 190.67 213.33 190.67 213.33 190.67 320 244"/><path id="path2938" class="cls-3" d="M144,84h32v64H320v32H176v64H144V180H0V148H144Z"/></g></g></g></g></g></g></g></g></g><g id="g4227"><path id="path4184" class="cls-4" d="M422.29,274.15h0a15.16,15.16,0,0,0-5.33,1,16.16,16.16,0,0,1-2.36.68q1.46,3,3.18,5.84a14.72,14.72,0,0,1,9.84.28c.33.12.67.24,1,.34l.33.09h0l.33.09h0l.33.08c.33.08.66.14,1,.19l.33.05h0l.33,0h0l.33,0c.44,0,.89.07,1.33.07a15.16,15.16,0,0,0,5.33-1l.66-.23a14.72,14.72,0,0,1,10,.22h0c.31.11.62.22.93.31l.09,0,.09,0,.54.15h0a15.14,15.14,0,0,0,1.64.33h0l.12,0,.21,0h0l.55,0h.11l.32,0h0l.65,0H455l.31,0h.22l.67-.08.33-.05.35-.06h0l.32-.06h0c.33-.07.66-.15,1-.25l.68-.2h0l.66-.23c.33-.12.66-.24,1-.34s.66-.19,1-.27h0l.34-.08c.33-.07.65-.13,1-.18l.68-.08.33,0,.65,0h1.08l.35,0h.47l.6.08.5.09.33.07.22,0,.11,0h0l.59.15.07,0h0c.44.12.89.27,1.33.44s.66.24,1,.34l.33.09h0l.32.09h0l.31.08.25.05.1,0,.11,0h.09l.44.08.33.05h0l.31,0h.34l.35,0h1.36q.47,0,.95-.06h0l.29,0,.34,0,.33,0,.35-.06h0l.33-.06h0c.33-.07.66-.16,1-.25s.9-.27,1.34-.43h0l.66-.23.33-.1.28-.09h.05l.54-.14h.06l.08,0,.45-.1.21,0,.17,0,.35-.06.47-.06.33,0H485l.25,0h1.32l.62,0,.42,0h.08l.26,0,.49.07.62.11.63.14.4.1.08,0,.31.09.39.12.07,0,.62.22h0l.65.23h0l.31.1.33.09h0l.33.09h0l.33.08.29.06h0l.35.07.65.1.14,0,.19,0h0l.32,0h.11l.7,0h.87a14.71,14.71,0,0,0,3.06-.4,16.3,16.3,0,0,0,1.93-.58,15.41,15.41,0,0,1,4.31-1h0l.31,0h0c.44,0,.89,0,1.33,0h0l.29,0h.07l.27,0,.27,0,.52.07.21,0,.15,0,.11,0,.24,0h0l.32.07.29.07h.06l.16,0,.2.05.29.08.41.13h0l.08,0,.49.17.1,0h0l.65.23.67.2.33.09.66.16c.33.07.66.12,1,.17l.33,0h0l.66.06c.33,0,.66,0,1,0l.66,0h0l.32,0h0a14.67,14.67,0,0,0,1.66-.21h0l.33-.06h0a16.11,16.11,0,0,0,2.32-.68h0l.66-.23.66-.2.67-.17h0l.33-.08c.33-.07.66-.13,1-.18l.66-.07h0l.33,0h0l.33,0h.33a15.06,15.06,0,0,1,5.66,1h0a14.81,14.81,0,0,0,7.37.85,72.49,72.49,0,0,0,4.37-8c-.36.11-.72.23-1.08.36a14.78,14.78,0,0,1-10.65,0h0a15.06,15.06,0,0,0-5.66-1h-.33l-.33,0h0l-.33,0h0l-.66.08c-.33,0-.66.1-1,.17l-.33.08h0l-.67.17-.66.2-.66.23h0a16.11,16.11,0,0,1-2.32.68h0l-.33.07h0a14.68,14.68,0,0,1-1.66.21h0l-.32,0h0l-.66,0c-.33,0-.66,0-1,0s-.67-.06-1-.1-.66-.1-1-.17l-.66-.16h0l-.33-.09-.67-.2-.65-.22h0l-.37-.13c-.35-.12-.71-.24-1.06-.33l-.71-.18-.32-.07h0l-.24,0-.11,0-.15,0-.21,0-.53-.07-.26,0-.27,0h-.07l-.33,0c-.34,0-.68,0-1,0h-.31l-.33,0h0l-.33,0h0l-.31,0-.33,0h0c-.33,0-.66.1-1,.17l-.33.08h0c-.33.08-.66.17-1,.27s-.66.22-1,.34l-.33.12-.33.11h0c-.42.14-.83.26-1.24.36l-.42.09h0l-.31.07h0l-.5.09a14.82,14.82,0,0,1-1.49.14h-1.19l-.48,0-.5,0-.47-.06h0l-.65-.1h0l-.31-.06h-.06a15.89,15.89,0,0,1-1.61-.43h0l-.65-.23h0a15.86,15.86,0,0,0-3.2-.84l-.36,0-.18,0-.17,0-.33,0h0l-.69,0h-1.72l-.26,0h-.08l-.31,0-.35,0-.15,0-.5.09-.36.08-.31.08-.69.19c-.33.1-.65.22-1,.34l-.42.15-.42.14-.41.12a15.53,15.53,0,0,1-2.09.44l-.5.06-.48,0h0l-.65,0h-.83l-.5,0c-.33,0-.67-.06-1-.1h0l-.48-.08-.5-.09-.66-.16h0l-.32-.09-.67-.2-.66-.23a15.94,15.94,0,0,0-3-.81l-.33,0-.67-.08H466l-.35,0h-1.08c-.44,0-.88,0-1.32.09l-.35,0-.48.08-.37.07-.13,0h-.06l-.63.15-.2.05-.36.1-.09,0-.08,0-.42.13-.52.18-.65.23h0l-.39.12-.27.08h-.05l-.51.13-.1,0h-.06l-.28.06-.66.12-.3,0h0l-.31,0c-.33,0-.67.07-1,.08h-1.16l-.5,0c-.33,0-.67-.06-1-.1s-.88-.14-1.32-.25l-.34-.08h0l-.32-.09h0l-.34-.09-.33-.11-.67-.23a15.1,15.1,0,0,0-5.67-1c-.33,0-.65,0-1,.06s-.67.07-1,.12-.66.12-1,.2-.67.17-1,.27-.66.22-1,.34a15.78,15.78,0,0,1-3.33.85c-.33,0-.66.08-1,.1a14.35,14.35,0,0,1-2.66-.06h0l-.33,0h0a15.16,15.16,0,0,1-1.66-.33h0l-.33-.09h0c-.44-.12-.89-.27-1.33-.43a15.14,15.14,0,0,0-5.32-1Zm0,13.68h-.34a73.07,73.07,0,0,0,7.33,8.33h0l.33.08c.33.08.66.14,1,.19l.33.05h0l.33,0h0l.33,0c.44,0,.89.07,1.33.07a15.16,15.16,0,0,0,5.33-1l.66-.23a14.72,14.72,0,0,1,10,.22h0c.31.11.62.22.93.31l.09,0,.09,0,.54.15h0a15.13,15.13,0,0,0,1.64.33h0l.12,0,.21,0h0l.55,0h.11l.32,0h0l.65,0H455l.31,0h.22l.67-.08.33-.05.35-.06h0l.32-.06h0c.33-.07.66-.15,1-.25l.68-.2h0l.66-.23c.33-.12.66-.24,1-.34s.66-.19,1-.27h0l.34-.08c.33-.07.65-.13,1-.18l.68-.08.33,0,.65,0h1.08l.35,0h.47l.6.08.5.09.33.07.22,0,.11,0h0l.59.15.07,0h0c.44.12.89.27,1.33.44s.66.24,1,.34l.33.09h0l.32.09h0l.31.08.25.05.1,0,.11,0h.09l.44.08.33.05h0l.31,0h.34l.35,0h1.36q.47,0,.95-.06h0l.29,0,.34,0,.33,0,.35-.06h0l.33-.06h0c.33-.07.66-.16,1-.25s.9-.27,1.34-.43h0l.66-.23.33-.1.28-.09h.05l.54-.14h.06l.08,0,.45-.1.21,0,.17,0,.35-.06.47-.06.33,0H485l.25,0h1.32l.62,0,.42,0h.08l.26,0,.49.07.62.11.63.14.4.1.08,0,.31.09.39.12.07,0,.62.22h0l.65.23h0l.31.1.33.09h0l.33.09h0l.33.08.29.06h0l.35.07.65.1.14,0,.19,0h0l.32,0h.11l.7,0h.87a14.71,14.71,0,0,0,3.06-.4,16.29,16.29,0,0,0,1.93-.58,15.41,15.41,0,0,1,4.31-1h0l.31,0h0c.44,0,.89,0,1.33,0h0l.29,0h.07l.27,0,.27,0,.52.07.21,0,.15,0,.11,0,.24,0h0l.32.07.29.07h.06l.16,0,.2.05.29.08.41.13h0l.08,0,.49.17.1,0h0l.65.23.67.2.33.09.66.16c.33.07.66.12,1,.17l.33,0h0l.66.06c.33,0,.66,0,1,0l.66,0h0l.32,0h0a14.68,14.68,0,0,0,1.66-.21h0l.33-.06h0a16.12,16.12,0,0,0,2.32-.68h0l.66-.23.66-.2.67-.17h0l.33-.08c.33-.07.66-.13,1-.18l.66-.07h0l.33,0h0l.33,0h.33a14.46,14.46,0,0,1,3.42.33q2.54-2.59,4.81-5.43a16.08,16.08,0,0,1-2.56-.72h0a15.06,15.06,0,0,0-5.66-1h-.33l-.33,0h0l-.33,0h0l-.66.08c-.33,0-.66.1-1,.17l-.33.08h0l-.67.17-.66.2-.66.23h0a16.11,16.11,0,0,1-2.32.68h0l-.33.07h0a14.68,14.68,0,0,1-1.66.21h0l-.32,0h0l-.66,0c-.33,0-.66,0-1,0s-.67-.06-1-.1-.66-.1-1-.17l-.66-.16h0l-.33-.09-.67-.2-.65-.22h0l-.37-.13c-.35-.12-.71-.24-1.06-.33l-.71-.18-.32-.07h0l-.24,0-.11,0-.15,0-.21,0-.53-.07-.26,0-.27,0h-.07l-.33,0c-.34,0-.68,0-1,0h-.31l-.33,0h0l-.33,0h0l-.31,0-.33,0h0c-.33,0-.66.1-1,.17l-.33.08h0c-.33.08-.66.17-1,.27s-.66.22-1,.34l-.33.12-.33.11h0c-.42.14-.83.26-1.24.36l-.42.09h0l-.31.07h0l-.5.09a14.82,14.82,0,0,1-1.49.14h-1.19l-.48,0-.5,0-.47-.06h0l-.65-.1h0l-.31-.06h-.06a15.89,15.89,0,0,1-1.61-.43h0l-.65-.23h0a15.86,15.86,0,0,0-3.2-.84l-.36,0-.18,0-.17,0-.33,0h0l-.69,0h-1.72l-.26,0h-.08l-.31,0-.35,0-.15,0-.5.09-.36.08-.31.08-.69.19c-.33.1-.65.22-1,.34l-.42.15-.42.14-.41.12a15.53,15.53,0,0,1-2.09.44l-.5.06-.48,0h0l-.65,0h-.83l-.5,0c-.33,0-.67-.06-1-.1h0l-.48-.08-.5-.09-.66-.16h0l-.32-.09-.67-.2-.66-.23a15.94,15.94,0,0,0-3-.81l-.33,0-.67-.08H466l-.35,0h-1.08c-.44,0-.88,0-1.32.09l-.35,0-.48.08-.37.07-.13,0h-.06l-.63.15-.2.05-.36.1-.09,0-.08,0-.42.13-.52.18-.65.23h0l-.39.12-.27.08h-.05l-.51.13-.1,0h-.06l-.28.06-.66.12-.3,0h0l-.31,0c-.33,0-.67.07-1,.08h-1.16l-.5,0c-.33,0-.67-.06-1-.1s-.88-.14-1.32-.25l-.34-.08h0l-.32-.09h0l-.34-.09-.33-.11-.67-.23a15.1,15.1,0,0,0-5.67-1c-.33,0-.65,0-1,.06s-.67.07-1,.12-.66.12-1,.2-.67.17-1,.27-.66.22-1,.34a15.78,15.78,0,0,1-3.33.85c-.33,0-.66.08-1,.1a14.35,14.35,0,0,1-2.66-.06h0l-.33,0h0a15.16,15.16,0,0,1-1.66-.33h0l-.33-.09h0c-.44-.12-.89-.27-1.33-.43a15.14,15.14,0,0,0-5.32-1Zm21.33,13.68h-.36c-.33,0-.65,0-1,.06s-.67.07-1,.12-.66.12-1,.2-.67.17-1,.27-.66.22-1,.34-.71.25-1.07.36a72.7,72.7,0,0,0,9.27,5.75,16.06,16.06,0,0,1,2.44.69h0c.31.11.62.22.93.31l.09,0,.09,0,.54.15h0a15.13,15.13,0,0,0,1.64.33h0l.12,0,.21,0h0l.55,0h.11l.32,0h0l.65,0H455l.31,0h.22l.67-.08.33-.05.35-.06h0l.32-.06h0c.33-.07.66-.15,1-.25l.68-.2h0l.66-.23c.33-.12.66-.24,1-.34s.66-.19,1-.27h0l.34-.08c.33-.07.65-.13,1-.18l.68-.08.33,0,.65,0h1.08l.35,0h.47l.6.08.5.09.33.07.22,0,.11,0h0l.59.15.07,0h0c.44.12.89.27,1.33.44s.66.24,1,.34l.33.09h0l.32.09h0l.31.08.25.05.1,0,.11,0h.09l.44.08.33.05h0l.31,0h.34l.35,0h1.36q.47,0,.95-.06h0l.29,0,.34,0,.33,0,.35-.06h0l.33-.06h0c.33-.07.66-.16,1-.25s.9-.27,1.34-.43h0l.66-.23.33-.1.28-.09h.05l.54-.14h.06l.08,0,.45-.1.21,0,.17,0,.35-.06.47-.06.33,0H485l.25,0h1.32l.62,0,.42,0h.08l.26,0,.49.07.62.11.63.14.4.1.08,0,.31.09.39.12.07,0,.62.22h0l.65.23h0l.31.1.33.09h0l.33.09h0l.33.08.29.06h0l.35.07.65.1.14,0,.19,0h0l.32,0h.11l.7,0h.87a14.71,14.71,0,0,0,3.06-.4,16.29,16.29,0,0,0,1.93-.58,15.41,15.41,0,0,1,4.31-1h0l.31,0h0c.44,0,.89,0,1.33,0h0l.29,0h.07l.27,0,.27,0,.52.07.21,0,.15,0,.11,0,.24,0h0l.32.07.29.07h.06l.16,0,.2.05.29.08.41.13h0l.08,0,.19.07a72.69,72.69,0,0,0,10.63-6.51,15.87,15.87,0,0,1-1.89.53h0l-.33.07h0a14.67,14.67,0,0,1-1.66.21h0l-.32,0h0l-.66,0c-.33,0-.66,0-1,0s-.67-.06-1-.1-.66-.1-1-.17l-.66-.16h0l-.33-.09-.67-.2-.65-.22h0l-.37-.13c-.35-.12-.71-.24-1.06-.33l-.71-.18-.32-.07h0l-.24,0-.11,0-.15,0-.21,0-.53-.07-.26,0-.27,0h-.07l-.33,0c-.34,0-.68,0-1,0h-.31l-.33,0h0l-.33,0h0l-.31,0-.33,0h0c-.33,0-.66.1-1,.17l-.33.08h0c-.33.08-.66.17-1,.27s-.66.22-1,.34l-.33.12-.33.11h0c-.42.14-.83.26-1.24.36l-.42.09h0l-.31.07h0l-.5.09a14.81,14.81,0,0,1-1.49.14h-1.19l-.48,0-.5,0-.47-.06h0l-.65-.1h0l-.31-.06h-.06a15.89,15.89,0,0,1-1.61-.43h0l-.65-.23h0a15.86,15.86,0,0,0-3.2-.84l-.36,0-.18,0-.17,0-.33,0h0l-.69,0h-1.72l-.26,0h-.08l-.31,0-.35,0-.15,0-.5.09-.36.08-.31.08-.69.19c-.33.1-.65.22-1,.34l-.42.15-.42.14-.41.12a15.53,15.53,0,0,1-2.09.44l-.5.06-.48,0h0l-.65,0h-.83l-.5,0c-.33,0-.67-.06-1-.1h0l-.48-.08-.5-.09-.66-.16h0l-.32-.09-.67-.2-.66-.23a15.94,15.94,0,0,0-3-.81l-.33,0-.67-.08H466l-.35,0h-1.08c-.44,0-.88,0-1.32.09l-.35,0-.48.08-.37.07-.13,0h-.06l-.63.15-.2.05-.36.1-.09,0-.08,0-.42.13-.52.18-.65.23h0l-.39.12-.27.08h-.05l-.51.13-.1,0h-.06l-.28.06-.66.12-.3,0h0l-.31,0c-.33,0-.67.07-1,.08h-1.16l-.5,0c-.33,0-.67-.06-1-.1s-.88-.14-1.32-.25l-.34-.08h0l-.32-.09h0l-.34-.09-.33-.11-.67-.23a15.18,15.18,0,0,0-5.31-1Z"/><path id="path4192" class="cls-5" d="M480,171.49a72.69,72.69,0,0,0-65.4,104.35,16.15,16.15,0,0,0,2.36-.68,15.16,15.16,0,0,1,5.33-1h0a15.14,15.14,0,0,1,5.32,1c.44.17.89.31,1.33.43h0l.33.09h0a15.16,15.16,0,0,0,1.66.33h0l.33,0h0a14.37,14.37,0,0,0,2.66.06c.33,0,.66-.06,1-.1a15.78,15.78,0,0,0,3.33-.85c.33-.12.66-.24,1-.34s.67-.19,1-.27.66-.15,1-.2.67-.09,1-.12.65-.05,1-.06a15.11,15.11,0,0,1,5.67,1l.67.23.33.11.34.09h0l.32.09h0l.34.08c.44.1.88.18,1.32.25s.67.08,1,.1l.5,0h1.16c.33,0,.67,0,1-.08l.31,0h0l.3,0,.66-.12.28-.06h.06l.1,0,.51-.13h.05l.27-.08.39-.12h0l.65-.23.52-.18.42-.13.08,0,.09,0,.36-.1.2-.05.63-.15h.06l.13,0,.37-.07.48-.08.35,0c.44-.05.88-.08,1.32-.09h1.08l.35,0h.23l.67.08.33,0a15.94,15.94,0,0,1,3,.81l.66.23.67.2.32.09h0l.66.16.5.09.48.08h0c.33,0,.67.08,1,.1l.5,0h.83l.65,0h0l.48,0,.5-.06a15.53,15.53,0,0,0,2.09-.44l.41-.12.42-.14.42-.15c.33-.12.65-.24,1-.34l.69-.19.31-.08.36-.08.5-.09.15,0,.35,0,.31,0h.08l.26,0h1.72l.69,0h0l.33,0,.17,0,.18,0,.36,0a15.86,15.86,0,0,1,3.2.84h0l.65.23h0a15.89,15.89,0,0,0,1.61.43h.06l.31.06h0l.65.1h0l.47.06.5,0,.48,0h1.19A14.73,14.73,0,0,0,499,276l.5-.09h0l.31-.07h0l.42-.09c.42-.1.83-.22,1.24-.36h0l.33-.11.33-.12c.33-.12.66-.24,1-.34s.66-.19,1-.27h0l.33-.08c.33-.07.66-.12,1-.17h0l.33,0,.31,0h0l.33,0h0l.33,0h.31c.34,0,.68,0,1,0l.33,0h.07l.27,0,.26,0,.53.07.21,0,.15,0,.11,0,.24,0h0l.32.07.71.18c.35.1.71.21,1.06.33l.37.13h0l.65.22.67.2.33.09h0l.66.16c.33.07.66.12,1,.17s.67.08,1,.1.66,0,1,0l.66,0h0l.32,0h0a14.68,14.68,0,0,0,1.66-.21h0l.33-.07h0a16.11,16.11,0,0,0,2.32-.68h0l.66-.23.66-.2.67-.17h0l.33-.08c.33-.07.66-.12,1-.17l.66-.08h0l.33,0h0l.33,0h.33a15.06,15.06,0,0,1,5.66,1h0a14.78,14.78,0,0,0,10.65,0c.36-.13.72-.25,1.08-.36A72.69,72.69,0,0,0,480,171.49Z"/><path id="path4006" class="cls-6" d="M427.14,268.69a48.55,48.55,0,0,0,4.57,2.29c2.55,1.13,5.53,1.53,8.28,2.1,10.23,2.11,23.37,1.57,34.4,1.41,6.32-.08,12.6-.53,18.87-1.19L492,271.78C464,273.71,438.36,273.76,427.14,268.69Z"/><path id="path3962" class="cls-7" d="M527.68,263.1l4.47-11.8h.54L528.26,263"/><path id="path4001" class="cls-8" d="M532,262.89c-9.79.39-21.51.5-32.76.79l-.75,6.92c14.74-2.28,27.18-4.63,33.51-7.18.35-.05.78-.08,0-.53Z"/><path id="path3939" class="cls-9" d="M519.59,192.82l-.64.9.61-.78Zm0,.19c-10.95,16.32-25.24,37.45-35.39,56.23a78.68,78.68,0,0,0,6.24,16.58,90.4,90.4,0,0,1,32.74-.72C508.64,237,515.71,207.48,519.55,193Z"/><path id="path3951" class="cls-10" d="M495.78,226.12c-1.34-5.47-1.79-7.15-2.71-11.39l1.62,1.06a40.17,40.17,0,0,0,2,8.72Z"/><g id="g3888"><path id="path3890" class="cls-11" d="M519.78,192.66c-11.19,14.28-26.45,35.42-36.38,53.5q.35,1.55.75,3.08C494.37,230.33,508.8,209,519.78,192.66Z"/><g id="g3908"><path id="path3914" class="cls-12" d="M487.71,238.59a1.85,1.85,0,0,1,2,1"/></g><g id="g3916"><path id="path3918" class="cls-13" d="M492.06,231.4a1.8,1.8,0,0,1,1.84,1.09"/><path id="path3920" class="cls-13" d="M492.86,230.16a1.8,1.8,0,0,1,1.84,1.09"/><path id="path3922" class="cls-13" d="M493.75,228.83a1.8,1.8,0,0,1,1.84,1.09"/></g><g id="g3924"><path id="path3926" class="cls-14" d="M500.46,219.05a1.45,1.45,0,0,1,1.42,1"/><path id="path3928" class="cls-14" d="M501.7,216.94a1.45,1.45,0,0,1,1.48.9"/><path id="path3930" class="cls-14" d="M503.2,214.75a1.41,1.41,0,0,1,1.4.93"/></g><path id="path3932" class="cls-15" d="M497.81,222.66a1.61,1.61,0,0,1,1.54,1.15"/><path id="path3934" class="cls-16" d="M507.77,208.51a1,1,0,0,1,.93.69"/></g><path id="path3947" class="cls-17" d="M458.89,215.19c-2.19-6.6-2.64-10.92-3.76-16.12l1.11.91c1.2,4.42,1.75,9,3.8,13.23Z"/><path id="path3949" class="cls-18" d="M456.11,204.07a20.1,20.1,0,0,1,4.16.45,46.45,46.45,0,0,1-1.74-5.14,20.47,20.47,0,0,0-3.41-.35Z"/><path id="path3953" class="cls-18" d="M492.91,214.68l.84,3.06a21.3,21.3,0,0,1,3.33.23l.13,0-.47-3.1c-1.28-.11-2.61-.18-3.83-.23Z"/><path id="path3958" class="cls-19" d="M487.28,239.34c-3.44-7.79-4.93-14.67-6.86-21.75"/><path id="path3960" class="cls-19" d="M485.59,242.56a51,51,0,0,1-4.27-8.45"/><path id="path3993" class="cls-20" d="M515.76,283.34c5.9-6.31,11.1-13.32,16.57-20.06-6.87,2.88-21.54,5.5-38.62,8l-1.82.35,1.39,1.73h.4"/><path id="path3966" class="cls-21" d="M532.06,252.82a6.37,6.37,0,0,1,4.83.69,6.46,6.46,0,0,0,4.18.51c1.34-.37,2.51-1.45,4.29.07a11.59,11.59,0,0,0,.07,3.59,14.61,14.61,0,0,1,.29,2.64,6.41,6.41,0,0,1-2.31-.33,6,6,0,0,0-4.07,0,5.71,5.71,0,0,1-4.21-.05,10.15,10.15,0,0,0-5.34-.83"/><path id="path3970" class="cls-22" d="M534.14,252.67a40.64,40.64,0,0,0-1.79,6.45,11,11,0,0,1,2.76.79,5.71,5.71,0,0,0,4.21.05,6,6,0,0,1,4.07,0,6.42,6.42,0,0,0,2.31.33,14.6,14.6,0,0,0-.28-2.64,11.6,11.6,0,0,1-.07-3.6c-1.78-1.52-3-.44-4.29-.07a6.47,6.47,0,0,1-4.18-.52A5.47,5.47,0,0,0,534.14,252.67Z"/><path id="path3964" class="cls-19" d="M532.06,252.82a6.37,6.37,0,0,1,4.83.69,6.46,6.46,0,0,0,4.18.51c1.34-.37,2.51-1.45,4.29.07a11.59,11.59,0,0,0,.07,3.59,14.61,14.61,0,0,1,.29,2.64,6.41,6.41,0,0,1-2.31-.33,6,6,0,0,0-4.07,0,5.71,5.71,0,0,1-4.21-.05,10.15,10.15,0,0,0-5.34-.83"/><path id="path3975" class="cls-6" d="M512.72,285l-79,1-.17-2.82c-4-5.87-8.82-11.2-11.31-18.15,2.1,2.22,5.6,4.24,9.49,6,2.55,1.13,5.53,1.53,8.28,2.1,10.23,2.11,23.38,1.57,34.4,1.41,17.48-.21,34.66-3.3,51.95-5.67"/><path id="path3977" class="cls-23" d="M430.22,275.8c8.28,2.42,17.43,3.33,27.09,3.72,21.46.87,47.29-1.22,63.21-4.13"/><path id="path3979" class="cls-23" d="M426.29,272.4c20.55,4.6,46.53,4.25,72.26,1.85,8.35-.78,17-1.93,26.09-3.46"/><path id="path3981" class="cls-24" d="M499.35,276.83l0-1.71,2-.32"/><path id="path3983" class="cls-25" d="M502.74,276.57l0-1.75,2.14-.32"/><path id="path3985" class="cls-25" d="M506.13,276.38l0-1.83,2.32-.34"/><path id="path3987" class="cls-25" d="M509.73,276.22l-.07-2,2.32-.34"/><path id="path3989" class="cls-25" d="M512.74,275.78l-.07-2,2.32-.34"/><path id="path3991" class="cls-25" d="M515.87,275.4l-.07-2,7-1.19"/><path id="path3995" class="cls-19" d="M492.43,265.32c1.22,1.82,2.05,3.42,3.79,5.63"/><path id="path3997" class="cls-16" d="M494.66,265a36.67,36.67,0,0,0,3.38,5.78"/><path id="path3999" class="cls-19" d="M496.66,264.72a22.91,22.91,0,0,0,3.19,5.59"/><path id="path4011" class="cls-26" d="M458,274.68l0-1.77,2.68-5.05,1.54,5.14,0,1.7"/><path id="path4013" class="cls-26" d="M470,274.7l-.16-1.79-1.59-4.47"/><path id="path4015" class="cls-11" d="M471.5,268.73l1.45,5.82,3,0-1.57-5.43Z"/><path id="path4017" class="cls-26" d="M477.92,274.41l-.13-1.92-1.12-3.17"/><g id="g4023"><path id="path3019" class="cls-9" d="M431.26,270.82c14.77-33.45,35.68-65.1,56-96.94-6.6,12.21-14.09,68.11,7,98.33C473.47,268.47,452.64,265.21,431.26,270.82Z"/><g id="g3863"><path id="path3789" class="cls-11" d="M487.23,173.88c-22.41,30.29-43.81,63.38-58,96,.05,1.21.71,1.45,2,1l.14-.24C446.13,237.23,467,205.65,487.23,173.88Z"/><path id="path3797" class="cls-19" d="M432.61,262.37a1.93,1.93,0,0,1,2,1.07"/><path id="path3799" class="cls-16" d="M437.52,252.39a1.93,1.93,0,0,1,2,1.07"/><g id="g3807"><path id="path3801" class="cls-16" d="M446.55,235.27a1.93,1.93,0,0,1,2,1.07"/><path id="path3803" class="cls-16" d="M447.27,234a1.93,1.93,0,0,1,2,1.07"/></g><g id="g3811"><path id="path3813" class="cls-16" d="M450.72,228.42a1.93,1.93,0,0,1,2,1.07"/><path id="path3815" class="cls-16" d="M451.45,227.1a1.93,1.93,0,0,1,2,1.07"/></g><g id="g3817"><path id="path3819" class="cls-12" d="M454.8,221.52a1.85,1.85,0,0,1,2,1"/><path id="path3821" class="cls-12" d="M455.5,220.26a1.85,1.85,0,0,1,2,1"/><path id="path3823" class="cls-12" d="M456.4,218.79a1.85,1.85,0,0,1,2,1"/></g><g id="g3825"><path id="path3827" class="cls-13" d="M461.9,210.17a1.8,1.8,0,0,1,1.87,1"/><path id="path3829" class="cls-13" d="M462.67,208.91a1.8,1.8,0,0,1,1.87,1"/><path id="path3831" class="cls-13" d="M463.52,207.56a1.8,1.8,0,0,1,1.87,1"/></g><g id="g3833"><path id="path3835" class="cls-14" d="M469.88,198a1.45,1.45,0,0,1,1.47.93"/><path id="path3837" class="cls-14" d="M470.55,197A1.45,1.45,0,0,1,472,198"/><path id="path3839" class="cls-14" d="M471.3,196a1.45,1.45,0,0,1,1.47.93"/></g><path id="path3859" class="cls-15" d="M466.62,202.91a1.61,1.61,0,0,1,1.54,1.15"/><path id="path3861" class="cls-16" d="M476.42,188.78a1,1,0,0,1,.93.69"/></g></g><path id="path4050" class="cls-19" d="M512.59,280.07l7.42-1.68"/><path id="path4052" class="cls-19" d="M513.62,280.81l5.59-1.32"/><path id="path4054" class="cls-19" d="M515.2,281.48l2.88-.76"/><path id="path4218" class="cls-27" d="M499.29,268.54l21.82-3.06.54.64c-7.09,1.48-14.25,2.68-21.44,3.76"/><path id="path4056" class="cls-19" d="M501,266.32c4-.36,7.83-.74,12.7-1,.09-.18.76.38,1,1.07.06.16-.5,1.35-.72,1.34l-.13.09"/><path id="path4058" class="cls-19" d="M507.65,265.79c.46.58,1,.55,1.25,2.68"/><path id="path4060" class="cls-19" d="M510.78,265.7a7.62,7.62,0,0,1-.89,3"/><path id="path4062" class="cls-28" d="M504.81,266a2.38,2.38,0,0,0-1.21.93,1.52,1.52,0,0,0,.65,1.83,2,2,0,0,0,2.09-.26,1.78,1.78,0,0,0,.19-1.8,1.36,1.36,0,0,0-1.25-.66,4.27,4.27,0,0,1-.47,0Z"/><path id="path4115" class="cls-27" d="M448.51,279.31c-3.25-.18-13.6-1-20.21-3.93l4.85,6.3"/><path id="path4181" class="cls-29" d="M422.29,281a14.92,14.92,0,0,0-4.51.71,72.87,72.87,0,0,0,4.17,6.16h.34a15.14,15.14,0,0,1,5.32,1c.44.17.89.31,1.33.43h0l.33.09h0a15.16,15.16,0,0,0,1.66.33h0l.33,0h0a14.37,14.37,0,0,0,2.66.06c.33,0,.66-.06,1-.1a15.78,15.78,0,0,0,3.33-.85c.33-.12.66-.24,1-.34s.67-.19,1-.27.66-.15,1-.2.67-.09,1-.12.65-.05,1-.06a15.11,15.11,0,0,1,5.67,1l.67.23.33.11.34.09h0l.32.09h0l.34.08c.44.1.88.18,1.32.25s.67.08,1,.1l.5,0h1.16c.33,0,.67,0,1-.08l.31,0h0l.3,0,.66-.12.28-.06h.06l.1,0,.51-.13h.05l.27-.08.39-.12h0l.65-.23.52-.18.42-.13.08,0,.09,0,.36-.1.2-.05.63-.15h.06l.13,0,.37-.07.48-.08.35,0c.44-.05.88-.08,1.32-.09h1.08l.35,0h.23l.67.08.33,0a15.94,15.94,0,0,1,3,.81l.66.23.67.2.32.09h0l.66.16.5.09.48.08h0c.33,0,.67.08,1,.1l.5,0h.83l.65,0h0l.48,0,.5-.06a15.53,15.53,0,0,0,2.09-.44l.41-.12.42-.14.42-.15c.33-.12.65-.24,1-.34l.69-.19.31-.08.36-.08.5-.09.15,0,.35,0,.31,0h.08l.26,0h1.72l.69,0h0l.33,0,.17,0,.18,0,.36,0a15.86,15.86,0,0,1,3.2.84h0l.65.23h0a15.89,15.89,0,0,0,1.61.43h.06l.31.06h0l.65.1h0l.47.06.5,0,.48,0h1.19a14.73,14.73,0,0,0,1.49-.14l.5-.09h0l.31-.07h0l.42-.09c.42-.1.83-.22,1.24-.36h0l.33-.11.33-.12c.33-.12.66-.24,1-.34s.66-.19,1-.27h0l.33-.08c.33-.07.66-.12,1-.17h0l.33,0,.31,0h0l.33,0h0l.33,0h.31c.34,0,.68,0,1,0l.33,0h.07l.27,0,.26,0,.53.07.21,0,.15,0,.11,0,.24,0h0l.32.07.71.18c.35.1.71.21,1.06.33l.37.13h0l.65.22.67.2.33.09h0l.66.16c.33.07.66.12,1,.17s.67.08,1,.1.66,0,1,0l.66,0h0l.32,0h0a14.68,14.68,0,0,0,1.66-.21h0l.33-.07h0a16.11,16.11,0,0,0,2.32-.68h0l.66-.23.66-.2.67-.17h0l.33-.08c.33-.07.66-.12,1-.17l.66-.08h0l.33,0h0l.33,0h.33a15.06,15.06,0,0,1,5.66,1h0a16.08,16.08,0,0,0,2.56.72,72.88,72.88,0,0,0,4.81-6.74,14.81,14.81,0,0,1-7.37-.85h0a15.06,15.06,0,0,0-5.66-1h-.33l-.33,0h0l-.33,0h0l-.66.07c-.33,0-.66.11-1,.18l-.33.08h0l-.67.17-.66.2-.66.23h0a16.11,16.11,0,0,1-2.32.68h0l-.33.06h0a14.67,14.67,0,0,1-1.66.21h0l-.32,0h0l-.66,0c-.33,0-.66,0-1,0l-.66-.06h0l-.33,0c-.33,0-.66-.1-1-.17l-.66-.16-.33-.09-.67-.2-.65-.23h0l-.1,0-.49-.17-.08,0h0l-.41-.13-.29-.08-.2-.05-.16,0H511l-.29-.07-.32-.07h0l-.24,0-.11,0-.15,0-.21,0-.52-.07-.27,0-.27,0h-.07l-.29,0h0c-.44,0-.89,0-1.33,0h0l-.31,0h0a15.41,15.41,0,0,0-4.31,1,16.3,16.3,0,0,1-1.93.58,14.71,14.71,0,0,1-3.06.4h-.87l-.7,0h-.11l-.32,0h0l-.19,0-.14,0-.65-.1-.35-.07h0l-.29-.06-.33-.08h0l-.33-.09h0l-.33-.09-.31-.1h0l-.65-.23h0l-.62-.22-.07,0-.39-.12-.31-.09-.08,0-.4-.1-.63-.14-.62-.11-.49-.07-.26,0h-.08l-.42,0-.62,0h-1.32l-.25,0h-.09l-.33,0-.47.06-.35.06-.17,0-.21,0-.45.1-.08,0h-.06l-.54.14h-.05l-.28.09-.33.1-.66.23h0c-.45.17-.9.31-1.34.43s-.65.18-1,.25h0l-.33.06h0l-.35.06-.33,0-.34,0-.29,0h0q-.47,0-.95.06h-1.36l-.35,0h-.34l-.31,0h0l-.33-.05-.44-.08h-.09l-.11,0-.1,0-.25-.05-.31-.08h0l-.32-.09h0l-.33-.09c-.33-.1-.66-.22-1-.34s-.89-.31-1.33-.44h0l-.07,0-.59-.15h0l-.11,0-.22,0-.33-.07-.5-.09-.6-.08H466l-.35,0h-1.08l-.65,0-.33,0-.68.08c-.33,0-.65.11-1,.18l-.34.08h0c-.33.08-.66.17-1,.27s-.66.21-1,.34l-.66.23h0l-.68.2c-.33.09-.66.18-1,.25h0l-.32.06h0l-.35.06-.33.05-.67.08h-.22l-.31,0h-.77l-.65,0h0l-.32,0h-.11l-.55,0h0l-.21,0-.12,0h0a15.14,15.14,0,0,1-1.64-.33h0l-.54-.15-.09,0-.09,0c-.31-.09-.62-.2-.93-.31h0a14.72,14.72,0,0,0-10-.22l-.66.23a15.16,15.16,0,0,1-5.33,1c-.44,0-.89,0-1.33-.07l-.33,0h0l-.33,0h0l-.33-.05c-.33-.05-.66-.12-1-.19l-.33-.08h0l-.33-.09h0l-.33-.09c-.33-.1-.67-.22-1-.34a15.13,15.13,0,0,0-5.32-1Zm42.61,13.68h-.33l-.65,0-.33,0-.68.08c-.33,0-.65.11-1,.18l-.34.08h0c-.33.08-.66.17-1,.27s-.66.21-1,.34l-.66.23h0l-.68.2c-.33.09-.66.18-1,.25h0l-.32.06h0l-.35.06-.33.05-.67.08h-.22l-.31,0h-.77l-.65,0h0l-.32,0h-.11l-.55,0h0l-.21,0-.12,0h0a15.13,15.13,0,0,1-1.64-.33h0L450,296l-.09,0-.09,0c-.31-.09-.62-.2-.93-.31h0a14.72,14.72,0,0,0-10-.22l-.66.23a15.16,15.16,0,0,1-5.33,1c-.44,0-.89,0-1.33-.07l-.33,0h0l-.33,0h0l-.33-.05c-.33-.05-.66-.12-1-.19l-.33-.08a73,73,0,0,0,7.92,6.7c.36-.11.71-.22,1.07-.36s.66-.24,1-.34.67-.19,1-.27.66-.15,1-.2.67-.09,1-.12.65-.05,1-.06a15.1,15.1,0,0,1,5.67,1l.67.23.33.11.34.09h0l.32.09h0l.34.08c.44.1.88.18,1.32.25s.67.08,1,.1l.5,0h1.16c.33,0,.67,0,1-.08l.31,0h0l.3,0,.66-.12.28-.06h.06l.1,0,.51-.13h.05l.27-.08.39-.12h0l.65-.23.52-.18.42-.13.08,0,.09,0,.36-.1.2-.05.63-.15h.06l.13,0,.37-.07.48-.08.35,0c.44-.05.88-.08,1.32-.09h1.08l.35,0h.23l.67.08.33,0a15.94,15.94,0,0,1,3,.81l.66.23.67.2.32.09h0l.66.16.5.09.48.08h0c.33,0,.67.08,1,.1l.5,0h.83l.65,0h0l.48,0,.5-.06a15.53,15.53,0,0,0,2.09-.44l.41-.12.42-.14.42-.15c.33-.12.65-.24,1-.34l.69-.19.31-.08.36-.08.5-.09.15,0,.35,0,.31,0h.08l.26,0h1.72l.69,0h0l.33,0,.17,0,.18,0,.36,0a15.86,15.86,0,0,1,3.2.84h0l.65.23h0a15.89,15.89,0,0,0,1.61.43h.06l.31.06h0l.65.1h0l.47.06.5,0,.48,0h1.19a14.81,14.81,0,0,0,1.49-.14l.5-.09h0l.31-.07h0l.42-.09c.42-.1.83-.22,1.24-.36h0l.33-.11.33-.12c.33-.12.66-.24,1-.34s.66-.19,1-.27h0l.33-.08c.33-.07.66-.12,1-.17h0l.33,0,.31,0h0l.33,0h0l.33,0h.31c.34,0,.68,0,1,0l.33,0h.07l.27,0,.26,0,.53.07.21,0,.15,0,.11,0,.24,0h0l.32.07.71.18c.35.1.71.21,1.06.33l.37.13h0l.65.22.67.2.33.09h0l.66.16c.33.07.66.12,1,.17s.67.08,1,.1.66,0,1,0l.66,0h0l.32,0h0a14.67,14.67,0,0,0,1.66-.21h0l.33-.07h0a15.87,15.87,0,0,0,1.89-.53,73.06,73.06,0,0,0,8.84-7.68,14.46,14.46,0,0,0-3.42-.33h-.33l-.33,0h0l-.33,0h0l-.66.07c-.33,0-.66.11-1,.18l-.33.08h0l-.67.17-.66.2-.66.23h0a16.11,16.11,0,0,1-2.32.68h0l-.33.06h0a14.68,14.68,0,0,1-1.66.21h0l-.32,0h0l-.66,0c-.33,0-.66,0-1,0l-.66-.06h0l-.33,0c-.33,0-.66-.1-1-.17l-.66-.16-.33-.09-.67-.2-.65-.23h0l-.1,0-.49-.17-.08,0h0l-.41-.13-.29-.08-.2-.05-.16,0H511l-.29-.07-.32-.07h0l-.24,0-.11,0-.15,0-.21,0-.52-.07-.27,0-.27,0h-.07l-.29,0h0c-.44,0-.89,0-1.33,0h0l-.31,0h0a15.41,15.41,0,0,0-4.31,1,16.29,16.29,0,0,1-1.93.58,14.71,14.71,0,0,1-3.06.4h-.87l-.7,0h-.11l-.32,0h0l-.19,0-.14,0-.65-.1-.35-.07h0l-.29-.06-.33-.08h0l-.33-.09h0l-.33-.09-.31-.1h0l-.65-.23h0l-.62-.22-.07,0-.39-.12-.31-.09-.08,0-.4-.1-.63-.14-.62-.11-.49-.07-.26,0h-.08l-.42,0-.62,0h-1.32l-.25,0h-.09l-.33,0-.47.06-.35.06-.17,0-.21,0-.45.1-.08,0h-.06l-.54.14h-.05l-.28.09-.33.1-.66.23h0c-.45.17-.9.31-1.34.43s-.65.18-1,.25h0l-.33.06h0l-.35.06-.33,0-.34,0-.29,0h0q-.47,0-.95.06h-1.36l-.35,0h-.34l-.31,0h0l-.33-.05-.44-.08h-.09l-.11,0-.1,0-.25-.05-.31-.08h0l-.32-.09h0l-.33-.09c-.33-.1-.66-.22-1-.34s-.89-.31-1.33-.44h0l-.07,0-.59-.15h0l-.11,0-.22,0-.33-.07-.5-.09-.6-.08H466l-.35,0h-.75Zm0,13.68h-.33l-.65,0-.33,0-.68.08c-.33,0-.65.11-1,.18l-.34.08h0c-.33.08-.66.17-1,.27s-.66.21-1,.34l-.66.23h0l-.68.2c-.33.09-.66.18-1,.25h0l-.32.06h0l-.35.06-.33.05-.67.08h-.22l-.31,0h-.77l-.65,0h0l-.32,0h-.11l-.55,0h0l-.21,0-.12,0h0a15.13,15.13,0,0,1-1.64-.33h0l-.54-.15-.09,0-.09,0c-.31-.09-.62-.2-.93-.31h0a16.06,16.06,0,0,0-2.44-.69,72.81,72.81,0,0,0,66,.56l-.19-.07-.08,0h0l-.41-.13-.29-.08-.2-.05-.16,0H511l-.29-.07-.32-.07h0l-.24,0-.11,0-.15,0-.21,0-.52-.07-.27,0-.27,0h-.07l-.29,0h0c-.44,0-.89,0-1.33,0h0l-.31,0h0a15.41,15.41,0,0,0-4.31,1,16.29,16.29,0,0,1-1.93.58,14.71,14.71,0,0,1-3.06.4h-.87l-.7,0h-.11l-.32,0h0l-.19,0-.14,0-.65-.1-.35-.07h0l-.29-.06-.33-.08h0l-.33-.09h0l-.33-.09-.31-.1h0l-.65-.23h0l-.62-.22-.07,0-.39-.12-.31-.09-.08,0-.4-.1-.63-.14-.62-.11-.49-.07-.26,0h-.08l-.42,0-.62,0h-1.32l-.25,0h-.09l-.33,0-.47.06-.35.06-.17,0-.21,0-.45.1-.08,0h-.06l-.54.14h-.05l-.28.09-.33.1-.66.23h0c-.45.17-.9.31-1.34.43s-.65.18-1,.25h0l-.33.06h0l-.35.06-.33,0-.34,0-.29,0h0q-.47,0-.95.06h-1.36l-.35,0h-.34l-.31,0h0l-.33-.05-.44-.08h-.09l-.11,0-.1,0-.25-.05-.31-.08h0l-.32-.09h0l-.33-.09c-.33-.1-.66-.22-1-.34s-.89-.31-1.33-.44h0l-.07,0-.59-.15h0l-.11,0-.22,0-.33-.07-.5-.09-.6-.08H466l-.35,0h-.75Z"/><path id="path4200" class="cls-30" d="M530.25,265.87c-3.24,4.06-6.43,8.18-9.77,12.14l4.44,2.65c.28.2.33.19.5-.07l1.88-2.85c.39-.58.45-.79.15-1.67l-.24-.55a1.26,1.26,0,0,1,0-1.36,27.53,27.53,0,0,1,2.2-3.25l2-2.72c.39-.54.57-.56.13-1l-1.21-1.29Z"/><path id="path4208" class="cls-31" d="M528.67,267.86l-1.38,1.74,2.07,1.33v0l1.3-1.81-2-1.23Zm-2.21,2.79-1.62,2,2.34,1.48h0a11.75,11.75,0,0,1,1.43-2.18l-2.15-1.33Zm-3,3.8q-1,1.22-2,2.42l4.76,2.56,1.11-1.69c.39-.58.45-.79.15-1.67l-.06-.14Z"/><path id="path4220" class="cls-27" d="M497.16,271.41c3.94-.13,7.92,0,11.8-.81,5.62-.84,11.23-1.68,16.84-2.56,1.42-.77,3.23-1.08,4.17-2.51l.86-1a307.86,307.86,0,0,1-33.67,6.92Z"/><path id="path4225" class="cls-27" d="M426.87,273l1.6,1.79c11,2.86,42.31,4.62,68,1.63l.38-1.71C473.5,276.9,450.18,277.31,426.87,273Z"/></g></g></g></svg>