<svg xmlns="http://www.w3.org/2000/svg" height="480" width="640" viewBox="0 0 639 481"><defs><style>.a{fill:#1eb53a;}.b{fill:#00a3dd;}.c{fill:#fcd116;}</style></defs><title>Zanzibar</title><polygon class="a" points="241 1 241 1 241 1 241 1"/><rect class="a" x="1" y="321" width="638" height="160"/><polygon class="a" points="1 1 1 138.16 206.75 1 1 1"/><polygon class="b" points="241 1 241 1 241 1 241 1"/><polygon class="b" points="35.25 161 241 161 241 23.84 35.25 161"/><polygon class="b" points="241.62 1.93 251.54 16.81 241 23.84 241 161 639 161 639 1 241 1 241 1 241.62 1.93"/><polygon points="639 161 241 161 35.25 161 11.54 176.81 8.21 171.82 8.21 171.82 1 161 1 241 1 321 639 321 639 161"/><polygon class="c" points="251.54 16.81 241.62 1.93 248.21 11.82 8.21 171.82 11.54 176.81 35.25 161 241 23.84 251.54 16.81"/><polygon class="c" points="219.06 0 208.25 0 206.75 1 1 138.16 0 138.83 0 146.04 219.06 0"/><polygon points="8.21 171.82 248.21 11.82 241.62 1.93 241 1 241 1 241 1 240.33 0 219.06 0 0 146.04 0 159.5 1 161 1 161 8.21 171.82 8.21 171.82"/></svg>