<?xml version="1.0" encoding="utf-8"?>
<!-- Generator: Adobe Illustrator 16.0.4, SVG Export Plug-In . SVG Version: 6.00 Build 0)  -->
<!DOCTYPE svg PUBLIC "-//W3C//DTD SVG 1.1//EN" "http://www.w3.org/Graphics/SVG/1.1/DTD/svg11.dtd">
<svg version="1.1" id="Layer_1" xmlns="http://www.w3.org/2000/svg" xmlns:xlink="http://www.w3.org/1999/xlink" x="0px" y="0px"
	 width="673.627px" height="107.305px" viewBox="0 0 673.627 107.305" enable-background="new 0 0 673.627 107.305"
	 xml:space="preserve">
<path fill="#5697C4" d="M40.808,15.73V1.494C31.122,3.8,22.5,8.9,15.6,15.73H40.808z"/>
<path fill="#0869A8" d="M65.973,15.73V1.494c9.688,2.3,18.3,7.4,25.2,14.236H65.973z"/>
<path fill="#ABCAE0" d="M53.437,0c-4.336,0-8.588,0.51-12.629,1.494V15.73h25.165V1.498C61.938,0.5,57.8,0,53.4,0H53.437z"/>
<path fill="#0869A8" d="M65.973,91.582v14.246c9.688-2.359,18.34-7.396,25.157-14.246H65.973z"/>
<path fill="#0869A8" d="M40.808,91.582v14.246c-9.686-2.359-18.337-7.396-25.159-14.246H40.808z"/>
<path fill="#5697C4" d="M53.349,107.304c4.335,0,8.588-0.501,12.624-1.477V91.582H40.808v14.232C44.849,106.8,49,107.3,53.3,107.304
	H53.349z"/>
<path fill="#0869A8" d="M91.13,41.01h14.182c-2.344-9.733-7.351-18.432-14.182-25.279V41.01z"/>
<path fill="#0869A8" d="M91.13,66.302h14.182c-2.344,9.734-7.351,18.428-14.182,25.279V66.302z"/>
<path fill="#5697C4" d="M106.788,53.687c0-4.35-0.503-8.627-1.476-12.678H91.13v25.293h14.164C106.267,62.2,106.8,58,106.8,53.687
	H106.788z"/>
<path fill="#0869A8" d="M15.649,66.302H1.478c2.337,9.7,7.4,18.4,14.2,25.279V66.302H15.649z"/>
<path fill="#5697C4" d="M15.649,41.01H1.478c2.337-9.733,7.355-18.432,14.171-25.279V41.01z"/>
<path fill="#ABCAE0" d="M0,53.604c0,4.399,0.5,8.6,1.5,12.698h14.171V41.01H1.487C0.516,45.1,0,49.2,0,53.604z"/>
<rect x="15.6" y="15.7" fill="#92C857" width="25.2" height="25.3"/>
<rect x="15.6" y="41" fill="#C8E1A9" width="25.2" height="25.3"/>
<rect x="15.6" y="66.3" fill="#6EBA44" width="25.2" height="25.301"/>
<rect x="40.8" y="15.7" fill="#C8E1A9" width="25.2" height="25.3"/>
<rect x="40.8" y="41" fill="#DB1A5B" width="25.2" height="25.3"/>
<rect x="40.8" y="66.3" fill="#92C857" width="25.2" height="25.301"/>
<rect x="66" y="15.7" fill="#6EBA44" width="25.2" height="25.3"/>
<rect x="66" y="41" fill="#92C857" width="25.2" height="25.3"/>
<rect x="66" y="66.3" fill="#6EBA44" width="25.2" height="25.301"/>
<g>
	<g>
		<path fill="#484848" d="M101.022,86.465c0-3.264,2.315-5.744,5.618-5.744c3.211,0,5.7,2.5,5.7,5.699
			c0,3.277-2.479,5.729-5.69,5.729C103.337,92.2,101,89.7,101,86.465H101.022z M110.939,86.465c0-2.529-1.771-4.542-4.299-4.542
			c-2.504,0-4.298,2.013-4.298,4.542c0,2.5,1.8,4.5,4.3,4.533C109.168,91,110.9,89,110.9,86.465H110.939z M104.633,83.268h1.915
			c0.399,0,0.7,0.1,1,0.145c0.804,0.2,1.2,0.8,1.2,1.561c0,0.991-0.757,1.511-1.467,1.699v0.019c0.429,0.2,1.1,1.399,1.8,2.812
			h-1.441c-0.801-1.479-1.298-2.451-1.557-2.478h-0.215v2.478h-1.251v-6.234H104.633z M106.192,86.017
			c0.637,0,1.204-0.265,1.204-0.905c0-0.378-0.165-0.659-0.496-0.755c-0.189-0.07-0.4-0.098-0.684-0.098h-0.332v1.758H106.192z"/>
	</g>
</g>
<g>
	<path fill="#484848" d="M136.59,31.865h7.228l11.28,34.904c1.145,3.8,2.7,8.5,3.9,13.038h0.176c1.41-4.851,2.732-8.638,4.23-12.95
		l8.638-25.117l-3.438-9.875h7.05l11.72,35.075c1.234,3.6,2.9,8.399,4.1,12.783h0.176c1.146-4.585,2.293-8.554,3.615-12.603
		l11.015-35.255h6.875l-19.211,58.343h-5.202l-9.252-27.234c-1.586-4.665-2.821-8.285-4.052-12.511h-0.263
		c-1.237,4.227-2.293,7.406-4.058,12.511l-9.604,27.234h-5.288L136.59,31.865z"/>
	<path fill="#484848" d="M214.421,69.052c0-12.246,7.492-21.854,19.302-21.854c11.543,0,19.2,9.6,19.2,21.9
		c0,12.167-7.578,21.77-19.301,21.77C222,90.8,214.4,81.2,214.4,69.052H214.421z M246.147,69.052
		c0-9.602-4.848-16.297-12.424-16.297c-7.756,0-12.603,6.695-12.603,16.297c0,9.501,4.8,16.2,12.5,16.219
		c7.679,0.028,12.48-6.671,12.48-16.219H246.147z"/>
	<path fill="#484848" d="M262.457,27.551h6.436v52.782c0,3.4,1.1,4.4,3.3,4.411c0.708,0,1.937-0.351,2.557-0.619l1.41,5.101
		c-1.676,0.795-3.879,1.234-5.816,1.234c-5.289,0-7.845-3.083-7.845-8.108V27.551H262.457z"/>
	<path fill="#484848" d="M286.695,81.132V53.546h-7.05v-5.289h7.05V38.83l6.433-2.117v11.544h12.427l-1.939,5.289h-10.488v26.523
		c0,3.6,1.5,5.2,4.3,5.201c2.73,0,5.111-1.146,6.787-2.284l2.289,4.577c-2.554,1.854-6.345,3.259-10.485,3.3
		c-5.975-0.063-9.319-3.563-9.319-9.731H286.695z"/>
	<path fill="#484848" d="M311.817,68.614c0-12.688,6.962-21.415,17.096-21.415c10.574,0,16.6,8.3,16.6,21.415v1.59h-27.055
		c0.174,8.5,5,15.2,13.9,15.159c3.879,0,7.405-1.239,10.225-2.82l2.115,4.581c-3.613,2.376-8.637,3.698-13.307,3.7
		C318.248,90.8,311.8,80.8,311.8,68.614H311.817z M338.696,65.179c-0.088-6.344-3.174-12.688-9.782-12.688
		c-6.345,0-10.312,5.724-10.4,12.688H338.696z"/>
	<path fill="#484848" d="M354.828,48.258h5.467l0.791,5.289c4.583-5.024,8.108-6.347,11.72-6.347c1.676,0,3.4,0.4,4.5,1.1
		l-2.291,5.904c-1.059-0.527-2.115-0.878-3.615-0.878c-2.993,0-5.991,1.849-10.043,5.991v30.67h-6.523V48.258H354.828z"/>
	<path fill="#484848" d="M381.711,82.279c2.379,1.5,5.7,3.1,10.399,3.084c4.849,0,8.9-1.946,8.9-6.699
		c0-9.076-19.475-6.167-19.475-20.004c0-6.348,4.848-11.46,14.1-11.46c3.965,0,7.601,0.9,10.3,1.946v5.723
		c-2.819-1.234-5.993-2.293-10.044-2.293c-3.967,0-8.021,1.322-8.021,5.82c0,9.3,19.7,6.1,19.7,20.2
		c0,8.284-6.875,12.246-15.425,12.246c-5.463,0-9.869-1.849-12.514-3.521L381.711,82.279z"/>
	<path fill="#484848" d="M438.208,31.865h6.523V58.48h0.176l21.944-26.615h7.841l-24.146,28.728l25.731,29.353h-8.196
		l-23.175-26.532h-0.176v26.532h-6.523L438.208,31.865L438.208,31.865z"/>
	<path fill="#484848" d="M484.04,27.551h6.432v52.782c0,3.4,1.101,4.4,3.3,4.411c0.703,0,1.938-0.351,2.558-0.619l1.41,5.101
		c-1.674,0.795-3.879,1.234-5.82,1.234c-5.285,0-7.842-3.083-7.842-8.108V27.551H484.04z"/>
	<path fill="#484848" d="M506.073,83.07c-0.702-2.293-1.054-4.406-1.054-7.578V48.258h6.519v25.645c0,2.8,0.1,4.8,0.7,6.5
		c1.059,3.3,3.399,4.7,6.899,4.669c4.847,0,9.517-3,11.718-5.908V48.258h6.434v27.585c0,8.101,0.4,12,0.9,14.102h-5.82l-1.23-4.846
		c-3.7,3.255-8.371,5.724-13.836,5.724C513.299,90.8,508.1,89.1,506.1,83.07H506.073z"/>
	<path fill="#484848" d="M544.768,48.258h6.787l9.871,33.227h0.176l9.605-33.227h6.08l9.963,33.227h0.172l9.693-33.227h6.61
		l-13.838,41.95h-5.639l-9.871-33.401h-0.176l-9.957,33.401h-5.729L544.768,48.258z"/>
	<path fill="#484848" d="M608.141,68.614c0-12.688,6.963-21.415,17.099-21.415c10.571,0,16.6,8.3,16.6,21.415v1.59H614.78
		c0.18,8.5,5,15.2,13.899,15.159c3.879,0,7.402-1.239,10.224-2.82l2.116,4.581c-3.614,2.376-8.641,3.698-13.309,3.7
		C614.577,90.8,608.1,80.8,608.1,68.614H608.141z M635.02,65.179c-0.088-6.344-3.172-12.688-9.78-12.688
		c-6.349,0-10.312,5.724-10.398,12.688H635.02z"/>
	<path fill="#484848" d="M651.155,48.258h5.465l0.791,5.289c4.586-5.024,8.106-6.347,11.723-6.347c1.675,0,3.4,0.4,4.5,1.1
		l-2.293,5.904c-1.055-0.527-2.117-0.878-3.61-0.878c-3,0-5.99,1.849-10.05,5.991v30.67h-6.52V48.258H651.155z"/>
</g>
</svg>
