<?xml version="1.0" encoding="utf-8"?>
<!-- Generator: Adobe Illustrator 18.1.1, SVG Export Plug-In . SVG Version: 6.00 Build 0)  -->
<svg version="1.1" id="Layer_3" xmlns="http://www.w3.org/2000/svg" xmlns:xlink="http://www.w3.org/1999/xlink" x="0px" y="0px"
	 viewBox="0 0 961 269" enable-background="new 0 0 961 269" xml:space="preserve">
<path fill="#5697C4" d="M58.1,22.4V2.1C44.3,5.4,32.1,12.7,22.2,22.4H58.1z"/>
<path fill="#0869A8" d="M94.1,22.4V2.1c13.8,3.3,26.1,10.5,35.9,20.2H94.1z"/>
<path fill="#ABCAE0" d="M76.1,0c-6.1,0-12.3,0.7-18,2.1v20.2h35.9V2.1C88.2,0.7,82.4,0,76.1,0L76.1,0z"/>
<path fill="#0869A8" d="M94.1,130.5v20.2c13.8-3.4,26.1-10.5,35.9-20.2H94.1z"/>
<path fill="#0869A8" d="M58.1,130.5v20.2c-13.8-3.4-26.1-10.5-35.9-20.2H58.1z"/>
<path fill="#5697C4" d="M76,152.9c6.1,0,12.3-0.7,18-2.1v-20.2H58v20.2C63.8,152.2,69.8,152.9,76,152.9L76,152.9z"/>
<path fill="#0869A8" d="M129.8,58.4h20.2c-3.3-13.8-10.5-26.2-20.2-36.1V58.4z"/>
<path fill="#0869A8" d="M129.8,94.5h20.2c-3.3,13.8-10.5,26.2-20.2,36.1V94.5z"/>
<path fill="#5697C4" d="M152.2,76.5c0-6.3-0.7-12.3-2.1-18.1h-20.2v36.1h20.2C151.5,88.6,152.2,82.7,152.2,76.5L152.2,76.5z"/>
<path fill="#0869A8" d="M22.2,94.5H2c3.3,13.8,10.5,26.2,20.2,36.1L22.2,94.5L22.2,94.5z"/>
<path fill="#5697C4" d="M22.2,58.4H2c3.3-13.8,10.5-26.2,20.2-36.1C22.2,22.4,22.2,58.4,22.2,58.4z"/>
<path fill="#ABCAE0" d="M0,76.4c0,6.3,0.7,12.3,2.1,18.1h20.2V58.4H2.1C0.7,64.3,0,70.1,0,76.4z"/>
<rect x="22.2" y="22.4" fill="#92C857" width="35.9" height="36.1"/>
<rect x="22.2" y="58.4" fill="#C8E1A9" width="35.9" height="36.1"/>
<rect x="22.2" y="94.5" fill="#6EBA44" width="35.9" height="36.1"/>
<rect x="58.1" y="22.4" fill="#C8E1A9" width="35.9" height="36.1"/>
<rect x="58.1" y="58.4" fill="#DB1A5B" width="35.9" height="36.1"/>
<rect x="58.1" y="94.5" fill="#92C857" width="35.9" height="36.1"/>
<rect x="94.1" y="22.4" fill="#6EBA44" width="35.9" height="36.1"/>
<rect x="94.1" y="58.4" fill="#92C857" width="35.9" height="36.1"/>
<rect x="94.1" y="94.5" fill="#6EBA44" width="35.9" height="36.1"/>
<g>
	<g>
		<path fill="#FFFFFF" d="M143.9,123.3c0-4.7,3.3-8.1,8-8.1c4.6,0,8.1,3.6,8.1,8.1c0,4.7-3.6,8.1-8.1,8.1
			C147.2,131.4,143.9,127.8,143.9,123.3L143.9,123.3z M158.1,123.3c0-3.6-2.6-6.4-6.1-6.4c-3.6,0-6.1,2.9-6.1,6.4
			c0,3.6,2.6,6.4,6.1,6.4C155.6,129.7,158.1,126.8,158.1,123.3L158.1,123.3z M149.1,118.7h2.7c0.6,0,1,0.1,1.4,0.1
			c1.1,0.3,1.7,1.1,1.7,2.3c0,1.4-1.1,2.1-2.1,2.4l0,0c0.6,0.3,1.6,2,2.6,4h-2c-1.1-2.1-1.9-3.6-2.3-3.6h-0.3v3.6h-1.9L149.1,118.7
			L149.1,118.7L149.1,118.7z M151.4,122.6c0.9,0,1.7-0.4,1.7-1.3c0-0.6-0.3-1-0.7-1.1c-0.3-0.1-0.6-0.1-1-0.1h-0.4v2.6H151.4z"/>
	</g>
</g>
<g>
	<path fill="#FFFFFF" d="M194.7,45.5h10.3L221,95.2c1.6,5.4,3.8,12.1,5.6,18.5h0.3c2-7,3.8-12.3,6-18.5l12.3-35.8l-4.8-14.1h10.1
		l16.7,50c1.7,5.1,4.1,12,5.8,18.2h0.3c1.6-6.6,3.3-12.3,5.1-18L294,45.3h9.8l-27.4,83.1h-7.4l-13.3-38.8c-2.3-6.7-4-11.8-5.8-17.8
		h-0.4c-1.7,6-3.3,10.5-5.8,17.8L230,128.4h-7.6L194.7,45.5z"/>
	<path fill="#FFFFFF" d="M305.6,98.3c0-17.4,10.7-31.2,27.5-31.2c16.4,0,27.4,13.7,27.4,31.2c0,17.4-10.8,31.1-27.5,31.1
		C316.4,129.4,305.6,115.7,305.6,98.3L305.6,98.3z M350.7,98.3c0-13.7-6.8-23.2-17.7-23.2c-11.1,0-18,9.5-18,23.2
		c0,13.5,6.8,23.1,17.8,23.1C343.9,121.6,350.7,112,350.7,98.3L350.7,98.3z"/>
	<path fill="#FFFFFF" d="M374.1,39.2h9.1v75.2c0,4.8,1.6,6.3,4.7,6.3c1,0,2.7-0.6,3.7-0.9l2,7.3c-2.4,1.1-5.6,1.7-8.3,1.7
		c-7.6,0-11.1-4.4-11.1-11.5L374.1,39.2L374.1,39.2z"/>
	<path fill="#FFFFFF" d="M408.6,115.6V76.2h-10v-7.4h10V55.4l9.1-3v16.4h17.7l-2.7,7.6h-15v37.8c0,5.1,2.1,7.4,6.1,7.4
		c3.8,0,7.3-1.6,9.7-3.3l3.3,6.6c-3.7,2.7-9,4.7-15,4.7C413.3,129.4,408.6,124.4,408.6,115.6L408.6,115.6z"/>
	<path fill="#FFFFFF" d="M444.4,97.8c0-18.1,10-30.5,24.4-30.5c15.1,0,23.7,11.8,23.7,30.5v2.3h-38.6c0.3,12.1,7.1,21.7,19.8,21.7
		c5.6,0,10.5-1.7,14.5-4l3,6.6c-5.1,3.4-12.3,5.3-19,5.3C453.5,129.4,444.4,115.2,444.4,97.8L444.4,97.8z M482.7,92.9
		c-0.1-9-4.6-18.1-14-18.1c-9,0-14.7,8.1-14.8,18.1H482.7z"/>
	<path fill="#FFFFFF" d="M505.7,68.8h7.8l1.1,7.6c6.6-7.1,11.5-9,16.7-9c2.4,0,4.8,0.6,6.4,1.6l-3.3,8.4c-1.6-0.7-3-1.3-5.1-1.3
		c-4.3,0-8.6,2.6-14.3,8.6v43.8h-9.3L505.7,68.8L505.7,68.8z"/>
	<path fill="#FFFFFF" d="M544,117.3c3.4,2.1,8.1,4.4,14.8,4.4c6.8,0,12.7-2.7,12.7-9.5c0-13-27.8-8.8-27.8-28.5
		c0-9,6.8-16.4,20.1-16.4c5.7,0,10.8,1.3,14.7,2.7v8.1c-4-1.7-8.6-3.3-14.3-3.3s-11.4,1.9-11.4,8.3c0,13.3,28.1,8.7,28.1,28.8
		c0,11.8-9.8,17.4-21.9,17.4c-7.8,0-14.1-2.6-17.8-5L544,117.3z"/>
	<path fill="#FFFFFF" d="M624.5,45.5h9.3v37.9h0.3l31.2-37.9h11.1L642,86.4l36.6,41.9H667l-33.1-37.8h-0.3v37.8h-9.3L624.5,45.5
		L624.5,45.5z"/>
	<path fill="#FFFFFF" d="M689.8,39.2h9.1v75.2c0,4.8,1.6,6.3,4.7,6.3c1,0,2.7-0.6,3.7-0.9l2,7.3c-2.4,1.1-5.6,1.7-8.3,1.7
		c-7.6,0-11.1-4.4-11.1-11.5L689.8,39.2L689.8,39.2z"/>
	<path fill="#FFFFFF" d="M721.3,118.4c-1-3.3-1.6-6.3-1.6-10.8V68.8h9.3v36.5c0,4,0.1,6.8,1,9.3c1.6,4.7,4.8,6.7,9.8,6.7
		c6.8,0,13.5-4.3,16.7-8.4v-44h9.1v39.3c0,11.5,0.6,17.1,1.3,20.1h-8.3l-1.7-6.8c-5.3,4.7-12,8.1-19.7,8.1
		C731.5,129.4,724.1,127,721.3,118.4L721.3,118.4z"/>
	<path fill="#FFFFFF" d="M776.4,68.8h9.7l14.1,47.3h0.3l13.7-47.3h8.7l14.3,47.3h0.3l13.8-47.3h9.4L841,128.7h-8l-14.1-47.6h-0.3
		l-14.3,47.6h-8.1L776.4,68.8z"/>
	<path fill="#FFFFFF" d="M866.7,97.8c0-18.1,10-30.5,24.4-30.5c15.1,0,23.7,11.8,23.7,30.5v2.3h-38.6c0.3,12.1,7.1,21.7,19.8,21.7
		c5.6,0,10.5-1.7,14.5-4l3,6.6c-5.1,3.4-12.3,5.3-19,5.3C875.9,129.4,866.7,115.2,866.7,97.8L866.7,97.8z M905,92.9
		c-0.1-9-4.6-18.1-14-18.1c-9,0-14.7,8.1-14.8,18.1H905z"/>
	<path fill="#FFFFFF" d="M928.1,68.8h7.8l1.1,7.6c6.6-7.1,11.5-9,16.7-9c2.4,0,4.8,0.6,6.4,1.6l-3.3,8.4c-1.6-0.7-3-1.3-5.1-1.3
		c-4.3,0-8.6,2.6-14.3,8.6v43.8h-9.3L928.1,68.8L928.1,68.8z"/>
</g>
<g>
	<g>
		<defs>
			<rect id="SVGID_1_" x="189.7" y="181.3" width="279.6" height="87"/>
		</defs>
		<clipPath id="SVGID_2_">
			<use xlink:href="#SVGID_1_"  overflow="visible"/>
		</clipPath>
		<path clip-path="url(#SVGID_2_)" fill="#5698C5" d="M208.3,181.3h242.4c10.3,0,18.6,8.3,18.6,18.6v49.7c0,10.3-8.3,18.6-18.6,18.6
			H208.3c-10.3,0-18.6-8.3-18.6-18.6V200C189.7,189.7,198,181.3,208.3,181.3z"/>
		<g clip-path="url(#SVGID_2_)">
			<path fill="#C8E5AA" d="M275.2,205.3c2.1,0,4,0.2,5.8,0.6c1.7,0.4,3.2,1,4.5,1.8c1.2,0.8,2.2,2,2.9,3.4c0.7,1.4,1,3.1,1,5.2
				c0,2.2-0.5,4.1-1.5,5.6c-1,1.5-2.5,2.7-4.5,3.7c2.7,0.8,4.8,2.2,6.1,4.1c1.3,2,2,4.3,2,7.1c0,2.2-0.4,4.2-1.3,5.8
				c-0.9,1.6-2,3-3.5,4c-1.5,1-3.1,1.8-5,2.3c-1.9,0.5-3.8,0.7-5.8,0.7h-21.5v-44.4H275.2z M274,223.3c1.7,0,3.2-0.4,4.3-1.2
				c1.1-0.8,1.7-2.2,1.7-4c0-1-0.2-1.9-0.6-2.5c-0.4-0.7-0.9-1.2-1.5-1.6c-0.6-0.4-1.3-0.6-2.1-0.8c-0.8-0.1-1.6-0.2-2.5-0.2h-9.1
				v10.4H274z M274.6,242.1c1,0,1.9-0.1,2.7-0.3c0.9-0.2,1.6-0.5,2.3-0.9c0.7-0.4,1.2-1,1.6-1.8c0.4-0.7,0.6-1.7,0.6-2.9
				c0-2.3-0.6-3.9-1.9-4.9c-1.3-1-3-1.5-5.1-1.5h-10.6v12.2H274.6z"/>
			<path fill="#C8E5AA" d="M331.3,205.3v8.2h-23.4v9.5h21.5v7.6h-21.5v10.9h23.9v8.2h-33.7v-44.4H331.3z"/>
			<path fill="#C8E5AA" d="M334.9,213.5v-8.2h36.4v8.2H358v36.2h-9.8v-36.2H334.9z"/>
			<path fill="#C8E5AA" d="M392.8,205.3l16.6,44.4h-10.1l-3.4-9.9h-16.6l-3.5,9.9H366l16.8-44.4H392.8z M393.3,232.5l-5.6-16.3h-0.1
				l-5.8,16.3H393.3z"/>
		</g>
	</g>
</g>
</svg>
