<?xml version="1.0" encoding="utf-8"?>
<!-- Generator: Adobe Illustrator 18.1.1, SVG Export Plug-In . SVG Version: 6.00 Build 0)  -->
<svg version="1.1" id="Layer_1" xmlns="http://www.w3.org/2000/svg" xmlns:xlink="http://www.w3.org/1999/xlink" x="0px" y="0px"
	 viewBox="0 0 299 12" enable-background="new 0 0 299 12" xml:space="preserve">
<g>
	<path fill="#666666" d="M8,0.6V0.3h4v0.3h-0.4c-0.4,0-0.8,0.2-1,0.6c-0.1,0.2-0.2,0.6-0.2,1.2v4.6c0,1.1-0.1,2-0.3,2.6
		c-0.2,0.6-0.7,1.2-1.3,1.6c-0.7,0.4-1.5,0.7-2.7,0.7c-1.2,0-2.2-0.2-2.8-0.6s-1.1-1-1.4-1.7C1.7,8.9,1.6,8,1.6,6.6V2.2
		c0-0.7-0.1-1.1-0.3-1.4C1.2,0.7,0.8,0.6,0.4,0.6H0V0.3h4.9v0.3H4.4C4,0.6,3.6,0.7,3.4,1C3.3,1.2,3.2,1.6,3.2,2.2v4.9
		c0,0.4,0,0.9,0.1,1.5c0.1,0.6,0.2,1,0.4,1.3s0.5,0.6,0.9,0.8c0.4,0.2,0.9,0.3,1.5,0.3c0.7,0,1.4-0.2,2-0.5s1-0.7,1.2-1.2
		C9.5,8.9,9.6,8,9.6,6.8V2.2c0-0.7-0.1-1.1-0.2-1.3c-0.2-0.2-0.5-0.4-1-0.4H8z"/>
	<path fill="#666666" d="M14.2,9.9c0.3,0,0.5,0.1,0.7,0.3c0.2,0.2,0.3,0.4,0.3,0.7s-0.1,0.5-0.3,0.7c-0.2,0.2-0.4,0.3-0.7,0.3
		s-0.5-0.1-0.7-0.3c-0.2-0.2-0.3-0.4-0.3-0.7c0-0.3,0.1-0.5,0.3-0.7C13.8,10,14,9.9,14.2,9.9z"/>
	<path fill="#666666" d="M24.1,0v3.9h-0.3c-0.1-0.7-0.3-1.3-0.5-1.8c-0.3-0.4-0.6-0.8-1.1-1.1s-1-0.4-1.5-0.4
		c-0.6,0-1.1,0.2-1.4,0.5c-0.4,0.4-0.6,0.8-0.6,1.2c0,0.3,0.1,0.7,0.4,0.9c0.3,0.4,1.2,1,2.4,1.7c1.1,0.6,1.8,1,2.2,1.3
		c0.4,0.3,0.7,0.7,0.9,1.1c0.2,0.4,0.3,0.8,0.3,1.3c0,0.9-0.3,1.6-1,2.2c-0.7,0.6-1.5,0.9-2.6,0.9c-0.3,0-0.6,0-0.9-0.1
		c-0.2,0-0.5-0.1-1.1-0.3c-0.5-0.2-0.9-0.3-1-0.3c-0.1,0-0.2,0-0.3,0.1c-0.1,0.1-0.1,0.3-0.2,0.5h-0.3V7.9h0.3
		c0.1,0.8,0.3,1.4,0.6,1.8c0.2,0.4,0.6,0.7,1.1,1c0.5,0.3,1.1,0.4,1.6,0.4c0.7,0,1.2-0.2,1.6-0.5c0.4-0.4,0.6-0.8,0.6-1.3
		c0-0.3-0.1-0.6-0.2-0.8c-0.2-0.3-0.4-0.5-0.7-0.8c-0.2-0.2-0.8-0.5-1.8-1.1c-1-0.5-1.6-1-2.1-1.3c-0.4-0.3-0.7-0.7-0.9-1.1
		S17.3,3.4,17.3,3c0-0.8,0.3-1.5,0.9-2.1C18.9,0.3,19.7,0,20.6,0c0.6,0,1.2,0.1,1.9,0.4c0.3,0.1,0.5,0.2,0.7,0.2
		c0.1,0,0.3,0,0.4-0.1c0.1-0.1,0.2-0.3,0.2-0.5H24.1z"/>
	<path fill="#666666" d="M27.8,9.9c0.3,0,0.5,0.1,0.7,0.3c0.2,0.2,0.3,0.4,0.3,0.7s-0.1,0.5-0.3,0.7c-0.2,0.2-0.4,0.3-0.7,0.3
		s-0.5-0.1-0.7-0.3c-0.2-0.2-0.3-0.4-0.3-0.7c0-0.3,0.1-0.5,0.3-0.7C27.3,10,27.5,9.9,27.8,9.9z"/>
	<path fill="#666666" d="M34.3,11.5v-0.3h0.4c0.5,0,0.8-0.2,1-0.5c0.1-0.2,0.2-0.6,0.2-1.2V2.2c0-0.7-0.1-1.1-0.2-1.3
		c-0.2-0.2-0.5-0.4-1-0.4h-0.4V0.3h4.6c1.7,0,3,0.2,3.8,0.6c0.9,0.4,1.6,1,2.1,1.9c0.5,0.9,0.8,1.9,0.8,3.1c0,1.6-0.5,2.9-1.4,3.9
		c-1.1,1.2-2.7,1.8-4.9,1.8H34.3z M37.5,10.7c0.7,0.2,1.3,0.2,1.8,0.2c1.3,0,2.3-0.5,3.2-1.4s1.3-2.1,1.3-3.7c0-1.6-0.4-2.8-1.3-3.7
		s-1.9-1.3-3.3-1.3c-0.5,0-1.1,0.1-1.7,0.2V10.7z"/>
	<path fill="#666666" d="M49,0.9v4.4h2.5c0.6,0,1.1-0.1,1.3-0.3c0.3-0.3,0.4-0.7,0.5-1.3h0.3v3.9h-0.3c-0.1-0.5-0.2-0.9-0.2-1.1
		c-0.1-0.2-0.3-0.3-0.5-0.5s-0.6-0.2-1-0.2H49v3.7c0,0.5,0,0.8,0.1,0.9c0,0.1,0.1,0.2,0.2,0.3c0.1,0.1,0.3,0.1,0.6,0.1h1.9
		c0.6,0,1.1,0,1.4-0.1s0.6-0.3,0.8-0.5c0.3-0.3,0.7-0.9,1.1-1.6h0.3l-1,2.8h-8.7v-0.3h0.4c0.3,0,0.5-0.1,0.8-0.2
		c0.2-0.1,0.3-0.2,0.4-0.4c0.1-0.2,0.1-0.5,0.1-1.1V2.2c0-0.7-0.1-1.2-0.2-1.3c-0.2-0.2-0.5-0.3-1-0.3h-0.4V0.3h8.7l0.1,2.5h-0.3
		c-0.1-0.6-0.2-1-0.4-1.2c-0.1-0.2-0.3-0.4-0.6-0.5c-0.2-0.1-0.6-0.1-1.2-0.1H49z"/>
	<path fill="#666666" d="M59.3,6.2v3.3c0,0.7,0.1,1.1,0.2,1.3c0.2,0.2,0.5,0.4,1,0.4h0.4v0.3h-4.8v-0.3h0.4c0.5,0,0.8-0.2,1-0.5
		c0.1-0.2,0.2-0.6,0.2-1.2V2.2c0-0.7-0.1-1.1-0.2-1.3c-0.2-0.2-0.5-0.4-1-0.4h-0.4V0.3h4.1c1,0,1.8,0.1,2.4,0.3
		c0.6,0.2,1.1,0.6,1.5,1s0.6,1.1,0.6,1.8c0,0.9-0.3,1.7-0.9,2.2c-0.6,0.6-1.5,0.9-2.6,0.9c-0.3,0-0.6,0-0.9-0.1S59.6,6.3,59.3,6.2z
		 M59.3,5.8c0.3,0.1,0.6,0.1,0.8,0.1s0.4,0,0.6,0c0.6,0,1.1-0.2,1.5-0.7c0.4-0.4,0.6-1,0.6-1.7c0-0.5-0.1-0.9-0.3-1.4
		c-0.2-0.4-0.5-0.7-0.8-0.9c-0.4-0.2-0.8-0.3-1.2-0.3c-0.3,0-0.6,0.1-1.1,0.2V5.8z"/>
	<path fill="#666666" d="M71.4,7.7H67l-0.8,1.8c-0.2,0.4-0.3,0.8-0.3,1c0,0.2,0.1,0.3,0.2,0.5c0.2,0.1,0.5,0.2,1.1,0.3v0.3h-3.5
		v-0.3c0.5-0.1,0.8-0.2,0.9-0.3c0.3-0.3,0.6-0.8,0.9-1.6l4-9.3h0.3l3.9,9.4c0.3,0.8,0.6,1.2,0.9,1.5c0.3,0.2,0.6,0.3,1.1,0.4v0.3
		h-4.4v-0.3c0.4,0,0.8-0.1,0.9-0.2c0.2-0.1,0.2-0.3,0.2-0.5c0-0.2-0.1-0.6-0.3-1.2L71.4,7.7z M71.1,7.1l-1.9-4.5l-2,4.5H71.1z"/>
	<path fill="#666666" d="M87.3,11.5h-3l-3.8-5.3c-0.3,0-0.5,0-0.7,0c-0.1,0-0.1,0-0.2,0c-0.1,0-0.2,0-0.3,0v3.3
		c0,0.7,0.1,1.1,0.2,1.3c0.2,0.2,0.5,0.4,0.9,0.4h0.4v0.3h-4.8v-0.3h0.4c0.5,0,0.8-0.2,1-0.5c0.1-0.2,0.2-0.6,0.2-1.2V2.2
		c0-0.7-0.1-1.1-0.2-1.3c-0.2-0.2-0.5-0.4-1-0.4h-0.4V0.3h4.1c1.2,0,2.1,0.1,2.6,0.3c0.6,0.2,1,0.5,1.4,1c0.4,0.5,0.6,1,0.6,1.7
		c0,0.7-0.2,1.3-0.7,1.8C83.7,5.5,83,5.8,82.1,6l2.3,3.2c0.5,0.7,1,1.2,1.4,1.5s0.9,0.4,1.5,0.5V11.5z M79.3,5.7c0.1,0,0.2,0,0.3,0
		c0.1,0,0.1,0,0.2,0c1.1,0,1.9-0.2,2.4-0.7C82.7,4.6,83,4,83,3.3c0-0.7-0.2-1.3-0.7-1.7c-0.4-0.4-1-0.7-1.7-0.7
		c-0.3,0-0.8,0.1-1.3,0.2V5.7z"/>
	<path fill="#666666" d="M95.8,0.3L96,2.9h-0.3c-0.1-0.5-0.1-0.8-0.2-1c-0.2-0.3-0.4-0.6-0.7-0.7C94.4,1,94.1,1,93.6,1H92v8.6
		c0,0.7,0.1,1.1,0.2,1.3c0.2,0.2,0.5,0.3,1,0.3h0.4v0.3h-4.8v-0.3h0.4c0.5,0,0.8-0.1,1-0.4c0.1-0.2,0.2-0.6,0.2-1.2V1h-1.4
		c-0.5,0-0.9,0-1.1,0.1c-0.3,0.1-0.5,0.3-0.7,0.6s-0.3,0.7-0.4,1.2h-0.3l0.1-2.6H95.8z"/>
	<path fill="#666666" d="M103.3,11.5L98.9,2v7.5c0,0.7,0.1,1.1,0.2,1.3c0.2,0.2,0.5,0.3,1,0.3h0.4v0.3h-3.9v-0.3H97
		c0.5,0,0.8-0.1,1-0.4c0.1-0.2,0.2-0.6,0.2-1.2V2.2c0-0.5-0.1-0.9-0.2-1.1c-0.1-0.2-0.2-0.3-0.4-0.4c-0.2-0.1-0.5-0.2-1-0.2V0.3h3.2
		l4.1,8.8l4-8.8h3.2v0.3h-0.4c-0.5,0-0.8,0.1-1,0.4c-0.1,0.2-0.2,0.6-0.2,1.2v7.4c0,0.7,0.1,1.1,0.2,1.3c0.2,0.2,0.5,0.3,1,0.3h0.4
		v0.3h-4.8v-0.3h0.4c0.5,0,0.8-0.1,1-0.4c0.1-0.2,0.2-0.6,0.2-1.2V2l-4.3,9.5H103.3z"/>
	<path fill="#666666" d="M114.9,0.9v4.4h2.5c0.6,0,1.1-0.1,1.3-0.3c0.3-0.3,0.4-0.7,0.5-1.3h0.3v3.9h-0.3c-0.1-0.5-0.2-0.9-0.2-1.1
		c-0.1-0.2-0.3-0.3-0.5-0.5s-0.6-0.2-1-0.2h-2.5v3.7c0,0.5,0,0.8,0.1,0.9c0,0.1,0.1,0.2,0.2,0.3c0.1,0.1,0.3,0.1,0.6,0.1h1.9
		c0.6,0,1.1,0,1.4-0.1s0.6-0.3,0.8-0.5c0.3-0.3,0.7-0.9,1.1-1.6h0.3l-1,2.8h-8.7v-0.3h0.4c0.3,0,0.5-0.1,0.8-0.2
		c0.2-0.1,0.3-0.2,0.4-0.4c0.1-0.2,0.1-0.5,0.1-1.1V2.2c0-0.7-0.1-1.2-0.2-1.3c-0.2-0.2-0.5-0.3-1-0.3h-0.4V0.3h8.7l0.1,2.5h-0.3
		c-0.1-0.6-0.2-1-0.4-1.2c-0.1-0.2-0.3-0.4-0.6-0.5c-0.2-0.1-0.6-0.1-1.2-0.1H114.9z"/>
	<path fill="#666666" d="M121.4,0.3h3.1l6.9,8.4V2.2c0-0.7-0.1-1.1-0.2-1.3c-0.2-0.2-0.5-0.3-1-0.3h-0.4V0.3h3.9v0.3h-0.4
		c-0.5,0-0.8,0.1-1,0.4c-0.1,0.2-0.2,0.6-0.2,1.2v9.5h-0.3l-7.4-9.1v6.9c0,0.7,0.1,1.1,0.2,1.3c0.2,0.2,0.5,0.3,1,0.3h0.4v0.3H122
		v-0.3h0.4c0.5,0,0.8-0.1,1-0.4c0.1-0.2,0.2-0.6,0.2-1.2V1.7c-0.3-0.4-0.6-0.6-0.7-0.8c-0.2-0.1-0.4-0.2-0.7-0.3
		c-0.2,0-0.4-0.1-0.7-0.1V0.3z"/>
	<path fill="#666666" d="M143.7,0.3l0.1,2.6h-0.3c-0.1-0.5-0.1-0.8-0.2-1c-0.2-0.3-0.4-0.6-0.7-0.7C142.3,1,141.9,1,141.4,1h-1.6
		v8.6c0,0.7,0.1,1.1,0.2,1.3c0.2,0.2,0.5,0.3,1,0.3h0.4v0.3h-4.8v-0.3h0.4c0.5,0,0.8-0.1,1-0.4c0.1-0.2,0.2-0.6,0.2-1.2V1h-1.4
		c-0.5,0-0.9,0-1.1,0.1c-0.3,0.1-0.5,0.3-0.7,0.6s-0.3,0.7-0.4,1.2h-0.3l0.1-2.6H143.7z"/>
	<path fill="#666666" d="M154.2,0c1.5,0,2.7,0.6,3.8,1.7c1.1,1.1,1.6,2.5,1.6,4.2c0,1.7-0.5,3.1-1.6,4.3c-1.1,1.1-2.4,1.7-3.9,1.7
		c-1.5,0-2.9-0.6-3.9-1.7c-1.1-1.1-1.6-2.5-1.6-4.3c0-1.8,0.6-3.2,1.8-4.4C151.5,0.5,152.7,0,154.2,0z M154,0.6
		c-1,0-1.8,0.4-2.4,1.1c-0.8,0.9-1.1,2.3-1.1,4.1c0,1.8,0.4,3.3,1.2,4.2c0.6,0.8,1.4,1.1,2.4,1.1c1.1,0,1.9-0.4,2.6-1.2
		c0.7-0.8,1-2.1,1-3.9c0-1.9-0.4-3.4-1.1-4.3C156,1,155.1,0.6,154,0.6z"/>
	<path fill="#666666" d="M163.7,0.9v4.4h2c0.5,0,0.8-0.1,1-0.3c0.2-0.2,0.4-0.6,0.4-1.2h0.3v3.8h-0.3c0-0.4-0.1-0.8-0.2-1
		c-0.1-0.2-0.3-0.4-0.4-0.5C166.4,6,166.1,6,165.7,6h-2v3.5c0,0.6,0,0.9,0.1,1.1c0.1,0.1,0.2,0.3,0.3,0.4c0.2,0.1,0.5,0.2,0.8,0.2
		h0.4v0.3h-4.8v-0.3h0.4c0.5,0,0.8-0.1,1-0.4c0.1-0.2,0.2-0.6,0.2-1.3V2.2c0-0.6,0-0.9-0.1-1.1c-0.1-0.1-0.2-0.3-0.3-0.4
		c-0.2-0.1-0.5-0.2-0.8-0.2h-0.4V0.3h8.4l0.1,2.5h-0.3c-0.1-0.5-0.3-0.9-0.5-1.2c-0.2-0.2-0.4-0.4-0.7-0.5s-0.7-0.2-1.3-0.2H163.7z"
		/>
	<path fill="#666666" d="M183.2,0.3l0.1,2.6h-0.3c-0.1-0.5-0.1-0.8-0.2-1c-0.2-0.3-0.4-0.6-0.7-0.7C181.8,1,181.5,1,181,1h-1.6v8.6
		c0,0.7,0.1,1.1,0.2,1.3c0.2,0.2,0.5,0.3,1,0.3h0.4v0.3h-4.8v-0.3h0.4c0.5,0,0.8-0.1,1-0.4c0.1-0.2,0.2-0.6,0.2-1.2V1h-1.4
		c-0.5,0-0.9,0-1.1,0.1c-0.3,0.1-0.5,0.3-0.7,0.6s-0.3,0.7-0.4,1.2h-0.3l0.1-2.6H183.2z"/>
	<path fill="#666666" d="M187.2,5.5h5.2V2.3c0-0.6,0-1-0.1-1.1c-0.1-0.1-0.2-0.3-0.3-0.4c-0.2-0.1-0.5-0.2-0.8-0.2h-0.4V0.3h4.8v0.3
		h-0.4c-0.3,0-0.5,0.1-0.8,0.2c-0.2,0.1-0.3,0.2-0.4,0.4c-0.1,0.2-0.1,0.5-0.1,1.1v7.3c0,0.6,0,0.9,0.1,1.1c0.1,0.1,0.2,0.3,0.3,0.4
		c0.2,0.1,0.5,0.2,0.8,0.2h0.4v0.3h-4.8v-0.3h0.4c0.5,0,0.8-0.1,1-0.4c0.1-0.2,0.2-0.6,0.2-1.3V6.1h-5.2v3.4c0,0.6,0,0.9,0.1,1.1
		c0.1,0.1,0.2,0.3,0.3,0.4c0.2,0.1,0.5,0.2,0.8,0.2h0.4v0.3H184v-0.3h0.4c0.5,0,0.8-0.1,1-0.4c0.1-0.2,0.2-0.6,0.2-1.3V2.3
		c0-0.6,0-1-0.1-1.1c-0.1-0.1-0.2-0.3-0.3-0.4c-0.2-0.1-0.5-0.2-0.8-0.2H184V0.3h4.8v0.3h-0.4c-0.3,0-0.5,0.1-0.8,0.2
		c-0.2,0.1-0.3,0.2-0.4,0.4c-0.1,0.2-0.1,0.5-0.1,1.1V5.5z"/>
	<path fill="#666666" d="M199.5,0.9v4.4h2.5c0.6,0,1.1-0.1,1.3-0.3c0.3-0.3,0.4-0.7,0.5-1.3h0.3v3.9h-0.3c-0.1-0.5-0.2-0.9-0.2-1.1
		c-0.1-0.2-0.3-0.3-0.5-0.5s-0.6-0.2-1-0.2h-2.5v3.7c0,0.5,0,0.8,0.1,0.9c0,0.1,0.1,0.2,0.2,0.3c0.1,0.1,0.3,0.1,0.6,0.1h1.9
		c0.6,0,1.1,0,1.4-0.1c0.3-0.1,0.6-0.3,0.8-0.5c0.3-0.3,0.7-0.9,1.1-1.6h0.3l-1,2.8h-8.7v-0.3h0.4c0.3,0,0.5-0.1,0.8-0.2
		c0.2-0.1,0.3-0.2,0.4-0.4s0.1-0.5,0.1-1.1V2.2c0-0.7-0.1-1.2-0.2-1.3c-0.2-0.2-0.5-0.3-1-0.3h-0.4V0.3h8.7l0.1,2.5h-0.3
		c-0.1-0.6-0.2-1-0.4-1.2c-0.1-0.2-0.3-0.4-0.6-0.5c-0.2-0.1-0.6-0.1-1.2-0.1H199.5z"/>
	<path fill="#666666" d="M219.9,0.3l0.1,2.6h-0.3c-0.1-0.5-0.1-0.8-0.2-1c-0.2-0.3-0.4-0.6-0.7-0.7C218.5,1,218.1,1,217.6,1h-1.6
		v8.6c0,0.7,0.1,1.1,0.2,1.3c0.2,0.2,0.5,0.3,1,0.3h0.4v0.3h-4.8v-0.3h0.4c0.5,0,0.8-0.1,1-0.4c0.1-0.2,0.2-0.6,0.2-1.2V1h-1.4
		c-0.5,0-0.9,0-1.1,0.1c-0.3,0.1-0.5,0.3-0.7,0.6s-0.3,0.7-0.4,1.2h-0.3l0.1-2.6H219.9z"/>
	<path fill="#666666" d="M231.8,11.5h-3L225,6.3c-0.3,0-0.5,0-0.7,0c-0.1,0-0.1,0-0.2,0c-0.1,0-0.2,0-0.3,0v3.3
		c0,0.7,0.1,1.1,0.2,1.3c0.2,0.2,0.5,0.4,0.9,0.4h0.4v0.3h-4.8v-0.3h0.4c0.5,0,0.8-0.2,1-0.5c0.1-0.2,0.2-0.6,0.2-1.2V2.2
		c0-0.7-0.1-1.1-0.2-1.3c-0.2-0.2-0.5-0.4-1-0.4h-0.4V0.3h4.1c1.2,0,2.1,0.1,2.6,0.3c0.6,0.2,1,0.5,1.4,1c0.4,0.5,0.6,1,0.6,1.7
		c0,0.7-0.2,1.3-0.7,1.8s-1.2,0.9-2.1,1.1l2.3,3.2c0.5,0.7,1,1.2,1.4,1.5s0.9,0.4,1.5,0.5V11.5z M223.8,5.7c0.1,0,0.2,0,0.3,0
		c0.1,0,0.1,0,0.2,0c1.1,0,1.9-0.2,2.4-0.7s0.8-1.1,0.8-1.8c0-0.7-0.2-1.3-0.7-1.7c-0.4-0.4-1-0.7-1.7-0.7c-0.3,0-0.8,0.1-1.3,0.2
		V5.7z"/>
	<path fill="#666666" d="M235.2,0.9v4.4h2.5c0.6,0,1.1-0.1,1.3-0.3c0.3-0.3,0.4-0.7,0.5-1.3h0.3v3.9h-0.3c-0.1-0.5-0.2-0.9-0.2-1.1
		c-0.1-0.2-0.3-0.3-0.5-0.5s-0.6-0.2-1-0.2h-2.5v3.7c0,0.5,0,0.8,0.1,0.9c0,0.1,0.1,0.2,0.2,0.3c0.1,0.1,0.3,0.1,0.6,0.1h1.9
		c0.6,0,1.1,0,1.4-0.1c0.3-0.1,0.6-0.3,0.8-0.5c0.3-0.3,0.7-0.9,1.1-1.6h0.3l-1,2.8H232v-0.3h0.4c0.3,0,0.5-0.1,0.8-0.2
		c0.2-0.1,0.3-0.2,0.4-0.4s0.1-0.5,0.1-1.1V2.2c0-0.7-0.1-1.2-0.2-1.3c-0.2-0.2-0.5-0.3-1-0.3H232V0.3h8.7l0.1,2.5h-0.3
		c-0.1-0.6-0.2-1-0.4-1.2c-0.1-0.2-0.3-0.4-0.6-0.5c-0.2-0.1-0.6-0.1-1.2-0.1H235.2z"/>
	<path fill="#666666" d="M249.7,7.7h-4.4l-0.8,1.8c-0.2,0.4-0.3,0.8-0.3,1c0,0.2,0.1,0.3,0.2,0.5c0.2,0.1,0.5,0.2,1.1,0.3v0.3H242
		v-0.3c0.5-0.1,0.8-0.2,0.9-0.3c0.3-0.3,0.6-0.8,0.9-1.6l4-9.3h0.3l3.9,9.4c0.3,0.8,0.6,1.2,0.9,1.5c0.3,0.2,0.6,0.3,1.1,0.4v0.3
		h-4.4v-0.3c0.4,0,0.8-0.1,0.9-0.2c0.2-0.1,0.2-0.3,0.2-0.5c0-0.2-0.1-0.6-0.3-1.2L249.7,7.7z M249.5,7.1l-1.9-4.5l-2,4.5H249.5z"/>
	<path fill="#666666" d="M261.9,0v3.9h-0.3c-0.1-0.7-0.3-1.3-0.5-1.8c-0.3-0.4-0.6-0.8-1.1-1.1c-0.5-0.3-1-0.4-1.5-0.4
		c-0.6,0-1.1,0.2-1.4,0.5c-0.4,0.4-0.6,0.8-0.6,1.2c0,0.3,0.1,0.7,0.4,0.9c0.3,0.4,1.2,1,2.4,1.7c1.1,0.6,1.8,1,2.2,1.3
		c0.4,0.3,0.7,0.7,0.9,1.1c0.2,0.4,0.3,0.8,0.3,1.3c0,0.9-0.3,1.6-1,2.2c-0.7,0.6-1.5,0.9-2.6,0.9c-0.3,0-0.6,0-0.9-0.1
		c-0.2,0-0.5-0.1-1.1-0.3c-0.5-0.2-0.9-0.3-1-0.3c-0.1,0-0.2,0-0.3,0.1s-0.1,0.3-0.2,0.5h-0.3V7.9h0.3c0.1,0.8,0.3,1.4,0.6,1.8
		c0.2,0.4,0.6,0.7,1.1,1s1,0.4,1.6,0.4c0.7,0,1.2-0.2,1.6-0.5s0.6-0.8,0.6-1.3c0-0.3-0.1-0.6-0.2-0.8s-0.4-0.5-0.7-0.8
		c-0.2-0.2-0.8-0.5-1.8-1.1c-1-0.5-1.6-1-2.1-1.3c-0.4-0.3-0.7-0.7-0.9-1.1s-0.3-0.8-0.3-1.3c0-0.8,0.3-1.5,0.9-2.1
		c0.6-0.6,1.4-0.9,2.4-0.9c0.6,0,1.2,0.1,1.9,0.4c0.3,0.1,0.5,0.2,0.7,0.2c0.1,0,0.3,0,0.4-0.1c0.1-0.1,0.2-0.3,0.2-0.5H261.9z"/>
	<path fill="#666666" d="M271.6,0.6V0.3h4v0.3h-0.4c-0.4,0-0.8,0.2-1,0.6c-0.1,0.2-0.2,0.6-0.2,1.2v4.6c0,1.1-0.1,2-0.3,2.6
		c-0.2,0.6-0.7,1.2-1.3,1.6c-0.7,0.4-1.5,0.7-2.7,0.7c-1.2,0-2.2-0.2-2.8-0.6c-0.6-0.4-1.1-1-1.4-1.7c-0.2-0.5-0.3-1.4-0.3-2.8V2.2
		c0-0.7-0.1-1.1-0.3-1.4c-0.2-0.2-0.5-0.3-0.9-0.3h-0.4V0.3h4.9v0.3H268c-0.5,0-0.8,0.1-1,0.4c-0.1,0.2-0.2,0.6-0.2,1.2v4.9
		c0,0.4,0,0.9,0.1,1.5s0.2,1,0.4,1.3c0.2,0.3,0.5,0.6,0.9,0.8s0.9,0.3,1.5,0.3c0.7,0,1.4-0.2,2-0.5s1-0.7,1.2-1.2
		c0.2-0.5,0.3-1.3,0.3-2.5V2.2c0-0.7-0.1-1.1-0.2-1.3c-0.2-0.2-0.5-0.4-1-0.4H271.6z"/>
	<path fill="#666666" d="M287.1,11.5h-3l-3.8-5.3c-0.3,0-0.5,0-0.7,0c-0.1,0-0.1,0-0.2,0c-0.1,0-0.2,0-0.3,0v3.3
		c0,0.7,0.1,1.1,0.2,1.3c0.2,0.2,0.5,0.4,0.9,0.4h0.4v0.3H276v-0.3h0.4c0.5,0,0.8-0.2,1-0.5c0.1-0.2,0.2-0.6,0.2-1.2V2.2
		c0-0.7-0.1-1.1-0.2-1.3c-0.2-0.2-0.5-0.4-1-0.4H276V0.3h4.1c1.2,0,2.1,0.1,2.6,0.3c0.6,0.2,1,0.5,1.4,1c0.4,0.5,0.6,1,0.6,1.7
		c0,0.7-0.2,1.3-0.7,1.8S282.9,5.8,282,6l2.3,3.2c0.5,0.7,1,1.2,1.4,1.5s0.9,0.4,1.5,0.5V11.5z M279.2,5.7c0.1,0,0.2,0,0.3,0
		c0.1,0,0.1,0,0.2,0c1.1,0,1.9-0.2,2.4-0.7s0.8-1.1,0.8-1.8c0-0.7-0.2-1.3-0.7-1.7c-0.4-0.4-1-0.7-1.7-0.7c-0.3,0-0.8,0.1-1.3,0.2
		V5.7z"/>
	<path fill="#666666" d="M294.1,0.3h3.9v0.3h-0.2c-0.1,0-0.4,0.1-0.6,0.2c-0.3,0.1-0.5,0.3-0.8,0.5s-0.5,0.6-0.8,1.2l-2.7,4.3v2.8
		c0,0.7,0.1,1.1,0.2,1.3c0.2,0.2,0.5,0.3,1,0.3h0.4v0.3h-4.8v-0.3h0.4c0.5,0,0.8-0.1,1-0.4c0.1-0.2,0.2-0.6,0.2-1.2V6.9l-3.1-4.7
		c-0.4-0.6-0.6-0.9-0.7-1s-0.4-0.3-0.8-0.5c-0.1-0.1-0.3-0.1-0.5-0.1V0.3h4.8v0.3h-0.2c-0.3,0-0.5,0.1-0.7,0.2s-0.3,0.3-0.3,0.5
		c0,0.2,0.2,0.6,0.5,1.1l2.3,3.6l2.2-3.5c0.3-0.5,0.5-0.9,0.5-1.2c0-0.2,0-0.3-0.1-0.4s-0.2-0.2-0.3-0.3c-0.1-0.1-0.4-0.1-0.7-0.1
		V0.3z"/>
</g>
</svg>
