<svg id="Layer_1" data-name="Layer 1" xmlns="http://www.w3.org/2000/svg" viewBox="0 0 102.75 86"><title>Artboard 1</title><path d="M90.27,63.28h2.84a4,4,0,0,1,1.45.21,2.31,2.31,0,0,1,1.78,2.3,2.54,2.54,0,0,1-2.15,2.48v0c.62.31,1.59,2.12,2.68,4.13H94.74c-1.2-2.18-1.91-3.62-2.3-3.65h-.32v3.65H90.27Zm2.3,4c1,0,1.79-.38,1.79-1.32a1,1,0,0,0-.74-1.12,2.49,2.49,0,0,0-1-.14h-.49v2.58Z"/><path d="M101.68,68a8.5,8.5,0,1,1-8.5-8.5A8.5,8.5,0,0,1,101.68,68Zm-8.5-6.71A6.71,6.71,0,1,0,99.89,68,6.71,6.71,0,0,0,93.18,61.28Z"/><path d="M53.36,72.45V83.31A41.64,41.64,0,0,0,72.49,72.45Z"/><path d="M32.58,72.45H13.44A41.62,41.62,0,0,0,32.58,83.31Z"/><path d="M52.25,72.45H33.68V83.58a40.45,40.45,0,0,0,18.57,0Z"/><path d="M53.36,2.55V13.41H72.49A41.64,41.64,0,0,0,53.36,2.55Z"/><path d="M32.58,2.55A41.62,41.62,0,0,0,13.44,13.41H32.58Z"/><path d="M52.25,2.28a40.82,40.82,0,0,0-18.57,0V13.41H52.25Z"/><path d="M83.35,32.54A41.68,41.68,0,0,0,72.49,13.41V32.54Z"/><path d="M83.62,52.22a40.86,40.86,0,0,0,0-18.58H72.49V52.22Z"/><path d="M13.44,32.54V13.41A41.68,41.68,0,0,0,2.58,32.54Z"/><path d="M72.49,53.32V72.45A41.71,41.71,0,0,0,83.35,53.32Z"/><path d="M2.58,53.32A41.63,41.63,0,0,0,13.44,72.45V53.32Z"/><path d="M13.44,52.22V33.64H2.31a40.86,40.86,0,0,0,0,18.58Z"/><polygon points="72.49 32.75 53.15 32.75 53.15 13.41 52.46 13.41 52.46 32.75 33.47 32.75 33.47 13.41 32.78 13.41 32.78 32.75 13.44 32.75 13.44 33.44 32.78 33.44 32.78 52.43 13.44 52.43 13.44 53.12 32.78 53.12 32.78 72.45 33.47 72.45 33.47 53.12 52.46 53.12 52.46 72.45 53.15 72.45 53.15 53.12 72.49 53.12 72.49 52.43 53.15 52.43 53.15 33.44 72.49 33.44 72.49 32.75"/></svg>