<?xml version="1.0" encoding="UTF-8"?>
<svg xmlns="http://www.w3.org/2000/svg" xmlns:xlink="http://www.w3.org/1999/xlink" width="30pt" height="16pt" viewBox="0 0 30 16" version="1.1">
<g id="surface1">
<path style=" stroke:none;fill-rule:nonzero;fill:rgb(100%,0%,0%);fill-opacity:1;" d="M 0 0 L 29.976562 0 L 29.976562 16 L 0 16 Z M 0 0 "/>
<path style=" stroke:none;fill-rule:nonzero;fill:rgb(100%,100%,100%);fill-opacity:1;" d="M 7.164062 0 L 22.957031 0 L 22.957031 16 L 7.164062 16 Z M 7.164062 0 "/>
<path style=" stroke:none;fill-rule:nonzero;fill:rgb(100%,0%,0%);fill-opacity:1;" d="M 15.0625 1.5 L 13.984375 3.535156 C 13.863281 3.757812 13.644531 3.738281 13.421875 3.609375 L 12.644531 3.203125 L 13.222656 6.328125 C 13.347656 6.898438 12.953125 6.898438 12.761719 6.652344 L 11.398438 5.109375 L 11.179688 5.894531 C 11.15625 6 11.039062 6.105469 10.871094 6.078125 L 9.152344 5.714844 L 9.601562 7.378906 C 9.699219 7.75 9.773438 7.902344 9.503906 8.003906 L 8.890625 8.296875 L 11.855469 10.734375 C 11.972656 10.824219 12.03125 10.992188 11.988281 11.144531 L 11.726562 12.003906 C 12.75 11.886719 13.660156 11.707031 14.683594 11.597656 C 14.773438 11.585938 14.921875 11.738281 14.921875 11.84375 L 14.785156 15 L 15.28125 15 L 15.203125 11.847656 C 15.203125 11.742188 15.339844 11.585938 15.429688 11.59375 C 16.449219 11.703125 17.363281 11.882812 18.382812 12.003906 L 18.125 11.140625 C 18.082031 10.992188 18.140625 10.824219 18.257812 10.730469 L 21.222656 8.292969 L 20.605469 8 C 20.335938 7.902344 20.414062 7.75 20.507812 7.378906 L 20.960938 5.710938 L 19.25 6.078125 C 19.082031 6.105469 18.96875 6 18.941406 5.894531 L 18.722656 5.109375 L 17.359375 6.652344 C 17.167969 6.898438 16.777344 6.898438 16.898438 6.328125 L 17.476562 3.203125 L 16.699219 3.609375 C 16.480469 3.734375 16.261719 3.757812 16.136719 3.535156 "/>
</g>
</svg>
